<?xml version="1.0" standalone="no"?>
<!DOCTYPE svg PUBLIC "-//W3C//DTD SVG 1.1//EN" "http://www.w3.org/Graphics/SVG/1.1/DTD/svg11.dtd" >
<svg xmlns="http://www.w3.org/2000/svg" xmlns:xlink="http://www.w3.org/1999/xlink" version="1.1">
<metadata>
Created by FontForge 20170731 at Thu Feb  6 18:53:31 2020
 By Aleksey,,,
Copyright (c) 2020 by Richard Miller. All rights reserved.
</metadata>
<defs>
<font id="UniformPro-Bld" horiz-adv-x="615" >
  <font-face 
    font-family="Uniform Pro Bold"
    font-weight="400"
    font-stretch="normal"
    units-per-em="1000"
    panose-1="0 0 8 0 0 0 0 0 0 0"
    ascent="814"
    descent="-186"
    x-height="517"
    cap-height="700"
    bbox="-466 -218 1210 923"
    underline-thickness="50"
    underline-position="-200"
    unicode-range="U+0020-FB02"
  />
<missing-glyph horiz-adv-x="691" 
d="M20 0v700h651v-700h-651zM186 155l159 159l159 -159l36 36l-159 159l159 158l-36 36l-159 -158l-158 159l-36 -36l158 -159l-159 -159z" />
    <glyph glyph-name="ellipsis" unicode="&#x2e;&#x2e;&#x2e;" horiz-adv-x="949" 
d="M50 82q0 38 27 64.5t65 26.5t64.5 -26.5t26.5 -64.5t-26.5 -65t-64.5 -27t-65 27t-27 65zM383 82q0 38 27 64.5t65 26.5q37 0 64 -26.5t27 -64.5t-26.5 -65t-64.5 -27t-65 27t-27 65zM716 82q0 38 27 64.5t65 26.5t64.5 -26.5t26.5 -64.5t-26.5 -65t-64.5 -27t-65 27
t-27 65z" />
    <glyph glyph-name="fi" unicode="fi" horiz-adv-x="712" 
d="M482 659q0 36 26 60t66 24t65.5 -24t25.5 -60q0 -37 -25.5 -60.5t-65.5 -23.5t-66 23.5t-26 60.5zM115 0v369h-95v118h95v40q0 87 48 135t132 48q38 0 70.5 -5t46.5 -11l13 -5l-17 -110q-29 13 -72 13q-76 0 -76 -76v-29h155v-118h-155v-369h-145zM500 517h147v-517h-147
v517z" />
    <glyph glyph-name="fl" unicode="fl" horiz-adv-x="712" 
d="M115 0v369h-95v118h95v40q0 87 48 135t132 48q38 0 70.5 -5t46.5 -11l13 -5l-17 -110q-29 13 -72 13q-76 0 -76 -76v-29h155v-118h-155v-369h-145zM500 700h147v-700h-147v700z" />
    <glyph glyph-name="f_f.liga" unicode="ff" horiz-adv-x="800" 
d="M115 0v369h-95v118h95v40q0 87 48 135t132 48q38 0 70.5 -5t46.5 -11l13 -5l-17 -110q-29 13 -72 13q-76 0 -76 -76v-29h155v-118h-155v-369h-145zM480 0v510q0 96 49 148t139 52q37 0 67.5 -5t42.5 -11l12 -5l-17 -108q-25 11 -68 11q-38 0 -58.5 -22.5t-20.5 -63.5v-19
h154v-118h-154v-369h-146z" />
    <glyph glyph-name="f_t.liga" unicode="ft" horiz-adv-x="815" 
d="M115 0v369h-95v118h95v40q0 87 48 135t132 48q38 0 70.5 -5t46.5 -11l13 -5l-17 -110q-29 13 -72 13q-76 0 -76 -76v-29h155v-118h-155v-369h-145zM649 -10q-78 0 -123.5 43t-45.5 121v486h146v-123h159v-121h-159v-205q0 -68 61 -68q18 0 38.5 3t31.5 6l11 3l17 -121
q-54 -24 -136 -24z" />
    <glyph glyph-name="r_f.liga" unicode="rf" horiz-adv-x="775" 
d="M455 0v510q0 96 49 148t139 52q37 0 67.5 -5t42.5 -11l12 -5l-17 -108q-25 11 -68 11q-38 0 -58.5 -22.5t-20.5 -63.5v-19h154v-118h-154v-369h-146zM60 0v517h129l8 -101q55 111 192 111l-2 -149h-30q-152 0 -152 -165v-213h-145z" />
    <glyph glyph-name="r_t.liga" unicode="rt" horiz-adv-x="790" 
d="M624 -10q-78 0 -123.5 43t-45.5 121v486h146v-123h159v-121h-159v-205q0 -68 61 -68q18 0 38.5 3t31.5 6l11 3l17 -121q-54 -24 -136 -24zM60 0v517h129l8 -101q55 111 192 111l-2 -149h-30q-152 0 -152 -165v-213h-145z" />
    <glyph glyph-name="r_t_f.liga" unicode="rtf" horiz-adv-x="1145" 
d="M825 0v510q0 96 49 148t139 52q37 0 67.5 -5t42.5 -11l12 -5l-17 -108q-25 11 -68 11q-38 0 -58.5 -22.5t-20.5 -63.5v-19h154v-118h-154v-369h-146zM624 -10q-78 0 -123.5 43t-45.5 121v486h146v-123h159v-121h-159v-205q0 -68 61 -68q18 0 38.5 3t31.5 6l11 3l17 -121
q-54 -24 -136 -24zM60 0v517h129l8 -101q55 111 192 111l-2 -149h-30q-152 0 -152 -165v-213h-145z" />
    <glyph glyph-name="t_f.liga" unicode="tf" horiz-adv-x="805" 
d="M485 0v510q0 96 49 148t139 52q37 0 67.5 -5t42.5 -11l12 -5l-17 -108q-25 11 -68 11q-38 0 -58.5 -22.5t-20.5 -63.5v-19h154v-118h-154v-369h-146zM289 -10q-81 0 -127.5 45.5t-46.5 127.5v236h-95v118h95v123h145v-123h160v-118h-160v-203q0 -73 67 -73q17 0 36 3
t29 6l11 3l17 -121q-51 -24 -131 -24z" />
    <glyph glyph-name="t_t.liga" unicode="tt" horiz-adv-x="820" 
d="M289 -10q-81 0 -127.5 45.5t-46.5 127.5v236h-95v118h95v123h145v-123h160v-118h-160v-203q0 -73 67 -73q17 0 36 3t29 6l11 3l17 -121q-51 -24 -131 -24zM654 -10q-78 0 -123.5 43t-45.5 121v486h146v-123h159v-118h-159v-208q0 -68 61 -68q18 0 38.5 3t31.5 6l11 3
l17 -121q-54 -24 -136 -24z" />
    <glyph glyph-name="checkboxfilled" unicode="[&#x2b;]" horiz-adv-x="940" 
d="M120 700h700v-700h-700v700z" />
    <glyph glyph-name="checkbox" unicode="[]" horiz-adv-x="940" 
d="M120 700h700v-700h-700v700zM221 603v-506h498v506h-498z" />
    <glyph glyph-name="star" unicode="&#x7b;&#x7d;" horiz-adv-x="978" 
d="M489 720l92 -283h297l-240 -174l91 -283l-240 175l-240 -175l91 283l-240 174h297z" />
    <glyph glyph-name="checkcirclefilled" unicode="&#x28;&#x2b;&#x29;" horiz-adv-x="920" 
d="M460 -10q-151 0 -255.5 104.5t-104.5 255.5t104.5 255.5t255.5 104.5t255.5 -104.5t104.5 -255.5t-104.5 -255.5t-255.5 -104.5z" />
    <glyph glyph-name="checkcircle" unicode="&#x28;&#x29;" horiz-adv-x="920" 
d="M460 -10q-151 0 -255.5 104.5t-104.5 255.5t104.5 255.5t255.5 104.5t255.5 -104.5t104.5 -255.5t-104.5 -255.5t-255.5 -104.5zM460 88q109 0 184 76t75 186t-75 186t-184 76t-184 -76t-75 -186t75 -186t184 -76z" />
    <glyph glyph-name="rightarrow" unicode="&#x2d;&#x3e;" horiz-adv-x="726" 
d="M676 350l-288 -195v131h-338v129h338v130z" />
    <glyph glyph-name="leftarrow" unicode="&#x3c;&#x2d;" horiz-adv-x="726" 
d="M676 415v-129h-338v-131l-288 195l288 195v-130h338z" />
    <glyph glyph-name="downarrow" unicode="&#x2b;&#x3e;" horiz-adv-x="491" 
d="M310 325h131l-196 -288l-195 288h131v338h129v-338z" />
    <glyph glyph-name="uparrow" unicode="&#x3c;&#x2b;" horiz-adv-x="491" 
d="M441 375h-131v-338h-129v338h-131l195 288z" />
    <glyph glyph-name="rightarrowcircle" unicode="&#x28;&#x2d;&#x3e;&#x29;" horiz-adv-x="920" 
d="M460 -10q-151 0 -255.5 104.5t-104.5 255.5t104.5 255.5t255.5 104.5t255.5 -104.5t104.5 -255.5t-104.5 -255.5t-255.5 -104.5zM449 203l216 147l-216 147v-99h-159v-96h159v-99z" />
    <glyph glyph-name="leftarrowcircle" unicode="&#x28;&#x3c;&#x2d;&#x29;" horiz-adv-x="920" 
d="M460 -10q-151 0 -255.5 104.5t-104.5 255.5t104.5 255.5t255.5 104.5t255.5 -104.5t104.5 -255.5t-104.5 -255.5t-255.5 -104.5zM471 203v99h159v96h-159v99l-216 -147z" />
    <glyph glyph-name="downarrowcircle" unicode="&#x28;&#x2b;&#x3e;&#x29;" horiz-adv-x="920" 
d="M100 350q0 151 104.5 255.5t255.5 104.5t255.5 -104.5t104.5 -255.5t-104.5 -255.5t-255.5 -104.5t-255.5 104.5t-104.5 255.5zM313 361l147 -216l147 216h-99v159h-96v-159h-99z" />
    <glyph glyph-name="uparrowcircle" unicode="&#x28;&#x3c;&#x2b;&#x29;" horiz-adv-x="920" 
d="M100 350q0 151 104.5 255.5t255.5 104.5t255.5 -104.5t104.5 -255.5t-104.5 -255.5t-255.5 -104.5t-255.5 104.5t-104.5 255.5zM313 339h99v-159h96v159h99l-147 216z" />
    <glyph glyph-name="rightarrowring" unicode="&#x28;&#x28;&#x2d;&#x3e;&#x29;&#x29;" horiz-adv-x="920" 
d="M460 -10q-151 0 -255.5 104.5t-104.5 255.5t104.5 255.5t255.5 104.5t255.5 -104.5t104.5 -255.5t-104.5 -255.5t-255.5 -104.5zM460 76q115 0 193 79t78 195t-78 195t-193 79t-193 -79t-78 -195t78 -195t193 -79zM443 209l207 141l-207 141v-95h-153v-92h153v-95z" />
    <glyph glyph-name="leftarrowring" unicode="&#x28;&#x28;&#x3c;&#x2d;&#x29;&#x29;" horiz-adv-x="920" 
d="M460 -10q-151 0 -255.5 104.5t-104.5 255.5t104.5 255.5t255.5 104.5t255.5 -104.5t104.5 -255.5t-104.5 -255.5t-255.5 -104.5zM460 76q115 0 193 79t78 195t-78 195t-193 79t-193 -79t-78 -195t78 -195t193 -79zM477 209v95h153v92h-153v95l-207 -141z" />
    <glyph glyph-name="downarrowring" unicode="&#x28;&#x28;&#x2b;&#x3e;&#x29;&#x29;" horiz-adv-x="920" 
d="M460 -10q-151 0 -255.5 104.5t-104.5 255.5t104.5 255.5t255.5 104.5t255.5 -104.5t104.5 -255.5t-104.5 -255.5t-255.5 -104.5zM460 76q115 0 193 79t78 195t-78 195t-193 79t-193 -79t-78 -195t78 -195t193 -79zM460 160l-141 207h95v153h92v-153h95z" />
    <glyph glyph-name="uparrowring" unicode="&#x28;&#x28;&#x3c;&#x2b;&#x29;&#x29;" horiz-adv-x="920" 
d="M460 -10q-151 0 -255.5 104.5t-104.5 255.5t104.5 255.5t255.5 104.5t255.5 -104.5t104.5 -255.5t-104.5 -255.5t-255.5 -104.5zM460 76q115 0 193 79t78 195t-78 195t-193 79t-193 -79t-78 -195t78 -195t193 -79zM414 180v153h-95l141 207l141 -207h-95v-153h-92z" />
    <glyph glyph-name=".notdef" horiz-adv-x="691" 
d="M20 0v700h651v-700h-651zM186 155l159 159l159 -159l36 36l-159 159l159 158l-36 36l-159 -158l-158 159l-36 -36l158 -159l-159 -159z" />
    <glyph glyph-name=".null" horiz-adv-x="0" 
 />
    <glyph glyph-name="nonmarkingreturn" horiz-adv-x="333" 
 />
    <glyph glyph-name="space" unicode=" " horiz-adv-x="277" 
 />
    <glyph glyph-name="exclam" unicode="!" horiz-adv-x="323" 
d="M105 238l-33 462h178l-33 -462h-112zM161 -10q-38 0 -64.5 27t-26.5 65t27 64.5t64 26.5q38 0 65 -26.5t27 -64.5t-27 -65t-65 -27z" />
    <glyph glyph-name="quotedbl" unicode="&#x22;" horiz-adv-x="403" 
d="M50 400v300h114v-300h-114zM239 400v300h114v-300h-114z" />
    <glyph glyph-name="numbersign" unicode="#" 
d="M97 0l30 149h-87v87h104l26 128h-90v87h107l30 149h96l-30 -149h109l30 149h96l-30 -149h87v-87h-105l-25 -128h90v-87h-108l-29 -149h-96l30 149h-110l-29 -149h-96zM240 236h109l26 128h-110z" />
    <glyph glyph-name="dollar" unicode="$" horiz-adv-x="564" 
d="M367 183q0 33 -30.5 61.5t-107.5 65.5q-159 75 -159 207q0 73 49.5 123.5t129.5 61.5v98h85v-97q37 -5 69.5 -18.5t52.5 -29.5t35 -31.5t21 -25.5l6 -10l-105 -75q-5 8 -14 20t-40 31.5t-65 19.5t-54.5 -17t-20.5 -43q0 -31 25.5 -54.5t89.5 -54.5q182 -87 182 -221
q0 -78 -50.5 -130.5t-131.5 -65.5v-98h-85v95q-43 4 -81 19.5t-61.5 34.5t-40.5 37.5t-24 31.5l-7 12l107 75q2 -4 6.5 -10t18.5 -21t30 -27t40 -21.5t49 -9.5q36 0 58.5 18.5t22.5 48.5z" />
    <glyph glyph-name="percent" unicode="%" horiz-adv-x="775" 
d="M199 303q-67 0 -112 43t-45 110q0 66 46 110t113 44t111.5 -43t44.5 -109q0 -67 -45.5 -111t-112.5 -44zM133 0l411 600h98l-411 -600h-98zM200 391q27 0 45 19t18 47t-18 46.5t-45 18.5q-28 0 -46 -18.5t-18 -46.5q0 -29 18 -47.5t46 -18.5zM574 -10q-67 0 -111.5 43
t-44.5 109q0 67 45.5 111t112.5 44t112 -43t45 -110q0 -66 -46 -110t-113 -44zM575 78q28 0 46 18.5t18 46.5q0 29 -18 47.5t-46 18.5q-27 0 -45 -19t-18 -47t18 -46.5t45 -18.5z" />
    <glyph glyph-name="ampersand" unicode="&#x26;" horiz-adv-x="738" 
d="M256 -10q-91 0 -156 57.5t-65 142.5q0 125 145 206q-70 81 -70 150t55.5 116.5t145.5 47.5q91 0 144 -48.5t53 -114.5q0 -103 -134 -179l96 -99l108 131h147l-175 -217l175 -183h-160l-93 93q-53 -57 -102 -80t-114 -23zM301 445q84 39 84 92q0 28 -19.5 47t-51.5 19
q-31 0 -50.5 -18t-19.5 -43q0 -23 12.5 -43t44.5 -54zM271 112q61 0 119 67l-134 136q-83 -47 -83 -110q0 -40 27.5 -66.5t70.5 -26.5z" />
    <glyph glyph-name="quotesingle" unicode="'" horiz-adv-x="214" 
d="M50 400v300h114v-300h-114z" />
    <glyph glyph-name="parenleft" unicode="(" horiz-adv-x="432" 
d="M197 350q0 -70 21.5 -131.5t52.5 -99.5t62 -66t53 -39l21 -12l-64 -102q-6 2 -16.5 7t-40.5 23t-57 40t-60 60t-57 81t-40.5 105t-16.5 131t16 131.5t41.5 106.5t56 82t61 61.5t56 40.5t41.5 24l16 7l64 -102q-9 -4 -23 -12t-50 -38.5t-64 -67t-50.5 -98.5t-22.5 -132z
" />
    <glyph glyph-name="parenright" unicode=")" horiz-adv-x="432" 
d="M235 350q0 70 -21.5 131.5t-52.5 99.5t-62 66t-53 39l-21 12l64 102q6 -2 16.5 -7t40.5 -23t57 -40t60 -60t57 -81t40.5 -105t16.5 -131t-16 -131.5t-41.5 -106.5t-56 -82t-61 -61.5t-56 -40.5t-41.5 -24l-16 -7l-64 102q9 4 23 12t50 38.5t64 67t50.5 98.5t22.5 132z
" />
    <glyph glyph-name="asterisk" unicode="*" horiz-adv-x="503" 
d="M293 556l135 55l33 -102l-142 -34l95 -110l-87 -63l-75 123l-76 -123l-87 63l94 110l-141 34l34 102l133 -55l-12 144h109z" />
    <glyph glyph-name="plus" unicode="+" 
d="M249 92v207h-199v113h199v207h117v-207h199v-113h-199v-207h-117z" />
    <glyph glyph-name="comma" unicode="," horiz-adv-x="263" 
d="M40 -130l29 300h154l-69 -300h-114z" />
    <glyph glyph-name="hyphen" unicode="-" horiz-adv-x="420" 
d="M50 291v129h320v-129h-320z" />
    <glyph glyph-name="period" unicode="." horiz-adv-x="283" 
d="M142 -10q-38 0 -65 27t-27 65t27 64.5t65 26.5t64.5 -26.5t26.5 -64.5t-26.5 -65t-64.5 -27z" />
    <glyph glyph-name="slash" unicode="/" horiz-adv-x="533" 
d="M410 780h123l-410 -860h-123z" />
    <glyph glyph-name="zero" unicode="0" 
d="M57 455q0 118 71.5 186.5t181.5 68.5q111 0 179.5 -66t68.5 -184v-215q0 -118 -71.5 -186.5t-181.5 -68.5q-111 0 -179.5 66t-68.5 184v215zM203 230q0 -48 29 -77.5t76 -29.5t75.5 29.5t28.5 77.5v240q0 48 -28.5 77.5t-75.5 29.5t-76 -29.5t-29 -77.5v-240z" />
    <glyph glyph-name="one" unicode="1" horiz-adv-x="490" 
d="M270 700h120v-700h-145v530l-160 -105l-70 97z" />
    <glyph glyph-name="two" unicode="2" horiz-adv-x="565" 
d="M49 0v112l242 238q43 43 60 73t17 66q0 39 -27 65t-70 26q-24 0 -46 -9t-36.5 -22t-25 -26t-15.5 -22l-5 -9l-106 68q2 6 7 16t25.5 36t46 46t71 36t98.5 16q99 0 164 -58.5t65 -145.5q0 -68 -29 -121t-97 -117l-147 -143h268v-125h-460z" />
    <glyph glyph-name="three" unicode="3" horiz-adv-x="559" 
d="M255 -10q-50 0 -93 14t-69 33.5t-44 39t-25 33.5l-8 14l109 66q1 -3 4 -8t14 -18t24.5 -22.5t36 -17.5t48.5 -8q50 0 80.5 27.5t30.5 66.5q0 42 -32 68.5t-91 26.5h-69v110h70q49 0 75.5 23t26.5 62q0 38 -26.5 61t-67.5 23q-35 0 -60.5 -15t-33.5 -30l-8 -15l-106 61
q2 5 6.5 13.5t23 30t41 38t62.5 30t86 13.5q97 0 163 -52.5t66 -136.5q0 -50 -26.5 -90.5t-72.5 -65.5q56 -25 87.5 -69t31.5 -102q0 -91 -72 -147.5t-182 -56.5z" />
    <glyph glyph-name="four" unicode="4" 
d="M345 0v155h-313v118l309 427h142v-431h100v-114h-100v-155h-138zM154 269h191v261z" />
    <glyph glyph-name="five" unicode="5" horiz-adv-x="594" 
d="M79 700h430v-125h-301v-146q51 36 112 36q99 0 161.5 -65t62.5 -160q0 -109 -72.5 -179.5t-186.5 -70.5q-46 0 -87.5 13t-67 32t-45 38t-27.5 32l-8 13l109 77q2 -3 5 -8t14 -17t24.5 -21.5t35 -17.5t45.5 -8q52 0 83.5 32t31.5 81q0 43 -29.5 73t-76.5 30
q-29 0 -51 -12.5t-29 -22t-9 -14.5h-124v410z" />
    <glyph glyph-name="six" unicode="6" 
d="M50 236q0 98 63 192l182 272h163l-171 -246q26 11 54 11q93 0 158.5 -62.5t65.5 -157.5q0 -111 -75.5 -183t-184.5 -72q-105 0 -180 70t-75 176zM195 239q0 -50 31.5 -83t81.5 -33t81 33t31 83q0 49 -31 82t-81 33t-81.5 -32.5t-31.5 -82.5z" />
    <glyph glyph-name="seven" unicode="7" horiz-adv-x="535" 
d="M339 571h-307v129h471v-100l-278 -600h-157z" />
    <glyph glyph-name="eight" unicode="8" 
d="M76 513q0 85 67 141t167 56t164.5 -53.5t64.5 -138.5q0 -87 -80 -143q49 -28 77.5 -71.5t28.5 -95.5q0 -94 -74 -156t-186 -62t-183.5 59.5t-71.5 153.5q0 51 28.5 95.5t77.5 72.5q-80 54 -80 142zM218 504q0 -37 25 -60.5t65 -23.5q39 0 64 23.5t25 60.5t-25 60.5
t-64 23.5q-40 0 -65 -23.5t-25 -60.5zM195 216q0 -46 31.5 -75t81.5 -29q49 0 80.5 29t31.5 75t-31.5 75.5t-80.5 29.5q-50 0 -81.5 -29.5t-31.5 -75.5z" />
    <glyph glyph-name="nine" unicode="9" 
d="M565 464q0 -98 -63 -192l-182 -272h-162l170 246q-26 -11 -54 -11q-93 0 -158.5 62.5t-65.5 157.5q0 111 75.5 183t184.5 72q105 0 180 -70t75 -176zM420 461q0 50 -31 83t-81 33t-81.5 -33t-31.5 -83t31.5 -82.5t81.5 -32.5t81 33t31 82z" />
    <glyph glyph-name="colon" unicode=":" horiz-adv-x="283" 
d="M142 344q-38 0 -65 26.5t-27 64.5t27 65t65 27t64.5 -27t26.5 -65t-26.5 -64.5t-64.5 -26.5zM142 -10q-38 0 -65 27t-27 65t27 64.5t65 26.5t64.5 -26.5t26.5 -64.5t-26.5 -65t-64.5 -27z" />
    <glyph glyph-name="semicolon" unicode=";" horiz-adv-x="283" 
d="M142 344q-38 0 -65 26.5t-27 64.5t27 65t65 27t64.5 -27t26.5 -65t-26.5 -64.5t-64.5 -26.5zM40 -130l29 300h154l-69 -300h-114z" />
    <glyph glyph-name="less" unicode="&#x3c;" 
d="M565 77l-515 218v120l515 218v-127l-385 -149l385 -149v-131z" />
    <glyph glyph-name="equal" unicode="=" 
d="M50 395v114h515v-114h-515zM50 181v114h515v-114h-515z" />
    <glyph glyph-name="greater" unicode="&#x3e;" 
d="M50 77v127l384 148l-384 150v131l515 -218v-120z" />
    <glyph glyph-name="question" unicode="?" horiz-adv-x="540" 
d="M195 238q0 37 15 68.5t36.5 53.5t42.5 41.5t36 42.5t15 48q0 34 -22.5 56.5t-57.5 22.5q-23 0 -42 -8t-30.5 -20t-20 -24t-11.5 -20l-3 -8l-114 69q2 6 6 16t22.5 36t42 46t67 36t95.5 16q93 0 155.5 -57t62.5 -137q0 -43 -14.5 -77.5t-37 -58.5t-45.5 -44.5t-42.5 -45.5
t-25.5 -52h-130zM260 -10q-38 0 -64.5 27t-26.5 65t26.5 64.5t64.5 26.5t65 -26.5t27 -64.5t-27 -65t-65 -27z" />
    <glyph glyph-name="at" unicode="@" horiz-adv-x="981" 
d="M489 -144q-190 0 -317 121t-127 298q0 182 129 308.5t318 126.5t316.5 -124.5t127.5 -307.5q0 -122 -66 -195t-163 -73q-62 0 -103.5 36t-43.5 92q-43 -41 -107 -41q-79 0 -126.5 57t-36.5 138q10 74 64 118.5t126 44.5t109 -52l13 44h78l12 -14l-35 -255
q-5 -35 11.5 -57.5t49.5 -22.5q48 0 84.5 43.5t36.5 128.5q0 156 -97.5 252.5t-251.5 96.5q-147 0 -247.5 -99t-100.5 -243q0 -140 100.5 -237t247.5 -97q44 0 76 9l25 -81q-60 -15 -102 -15zM475 194q35 0 59.5 20t29.5 54q5 38 -18 64.5t-60 26.5q-35 0 -58.5 -20.5
t-28.5 -55.5q-5 -36 17 -62.5t59 -26.5z" />
    <glyph glyph-name="A" unicode="A" horiz-adv-x="725" 
d="M2 0l284 700h153l284 -700h-169l-56 147h-279l-56 -147h-161zM261 268h194l-96 256z" />
    <glyph glyph-name="B" unicode="B" horiz-adv-x="690" 
d="M80 0v700h314q100 0 160 -50t60 -129q0 -50 -25.5 -90.5t-71.5 -64.5q60 -20 94 -66t34 -106q0 -83 -65.5 -138.5t-167.5 -55.5h-332zM233 415h128q46 0 73 24t27 59q0 36 -27 60t-73 24h-128v-167zM233 118h151q50 0 79 27t29 67t-29 66.5t-79 26.5h-151v-187z" />
    <glyph glyph-name="C" unicode="C" horiz-adv-x="713" 
d="M410 -10q-156 0 -260.5 102.5t-104.5 254.5t107 257.5t263 105.5q52 0 98.5 -12t76 -29t52 -33.5t32.5 -28.5l9 -12l-110 -95q-2 3 -6.5 7.5t-19.5 16.5t-32 21t-45 16.5t-58 7.5q-92 0 -153 -63t-61 -156t61 -156t153 -63q32 0 61 8t48.5 19.5t34 23.5t21.5 19.5t7 8.5
l104 -93q-3 -5 -10 -13.5t-32 -30.5t-54.5 -39t-78.5 -30.5t-103 -13.5z" />
    <glyph glyph-name="D" unicode="D" horiz-adv-x="760" 
d="M80 0v700h250q168 0 276.5 -98.5t108.5 -248.5t-111 -251.5t-279 -101.5h-245zM233 133h100q100 0 164.5 61.5t64.5 155.5t-64.5 155.5t-164.5 61.5h-100v-434z" />
    <glyph glyph-name="E" unicode="E" horiz-adv-x="650" 
d="M80 0v700h515v-133h-362v-145h312v-124h-312v-165h372v-133h-525z" />
    <glyph glyph-name="F" unicode="F" horiz-adv-x="610" 
d="M233 262v-262h-153v700h505v-133h-352v-176h302v-129h-302z" />
    <glyph glyph-name="G" unicode="G" horiz-adv-x="800" 
d="M410 -10q-156 0 -260.5 102.5t-104.5 254.5t107 257.5t263 105.5q52 0 98.5 -11t76.5 -27t52 -32.5t32 -27.5l10 -11l-107 -107q-2 3 -6.5 8t-19.5 18t-33 23t-46.5 18t-59.5 8q-92 0 -153 -63t-61 -158t61 -158t153 -63q73 0 123 38.5t63 104.5h-193v110h348
q3 -20 3 -39q-1 -150 -97.5 -250.5t-248.5 -100.5z" />
    <glyph glyph-name="H" unicode="H" horiz-adv-x="770" 
d="M80 0v700h153v-269h304v269h153v-700h-153v295h-304v-295h-153z" />
    <glyph glyph-name="I" unicode="I" horiz-adv-x="327" 
d="M85 700h157v-700h-157v700z" />
    <glyph glyph-name="J" unicode="J" horiz-adv-x="494" 
d="M160 -10q-44 0 -81 8t-52 16l-15 7l42 134q34 -20 94 -20q53 0 86 36t33 99v430h157v-439q0 -123 -74 -197t-190 -74z" />
    <glyph glyph-name="K" unicode="K" horiz-adv-x="712" 
d="M80 0v700h153v-313l271 313h195l-307 -332l327 -368h-195l-291 333v-333h-153z" />
    <glyph glyph-name="L" unicode="L" horiz-adv-x="590" 
d="M80 0v700h153v-563h342v-137h-495z" />
    <glyph glyph-name="M" unicode="M" horiz-adv-x="890" 
d="M228 441v-441h-148v700h157l212 -405l212 405h149v-700h-148v441l-177 -336h-80z" />
    <glyph glyph-name="N" unicode="N" horiz-adv-x="790" 
d="M229 471v-471h-149v700h158l323 -459v459h149v-700h-149z" />
    <glyph glyph-name="O" unicode="O" horiz-adv-x="825" 
d="M45 347q0 152 107 257.5t263 105.5t260.5 -102.5t104.5 -254.5t-107 -257.5t-263 -105.5t-260.5 102.5t-104.5 254.5zM198 350q0 -93 61 -156t153 -63q93 0 154 63t61 156t-61 156t-154 63q-92 0 -153 -63t-61 -156z" />
    <glyph glyph-name="P" unicode="P" horiz-adv-x="684" 
d="M80 0v700h303q118 0 190 -65.5t72 -171.5q0 -105 -74.5 -173t-192.5 -68h-145v-222h-153zM233 348h135q56 0 90 31t34 80t-34 80.5t-90 31.5h-135v-223z" />
    <glyph glyph-name="Q" unicode="Q" horiz-adv-x="825" 
d="M45 347q0 152 107 257.5t263 105.5t260.5 -102.5t104.5 -254.5q0 -98 -47 -179.5t-128 -128.5l124 -165h-174l-85 116q-28 -6 -60 -6q-156 0 -260.5 102.5t-104.5 254.5zM198 350q0 -93 61 -156t153 -63q93 0 154 63t61 156t-61 156t-154 63q-92 0 -153 -63t-61 -156z
" />
    <glyph glyph-name="R" unicode="R" horiz-adv-x="698" 
d="M80 700h313q112 0 182 -63t70 -164q0 -74 -39.5 -130t-107.5 -81l177 -262h-178l-157 241h-107v-241h-153v700zM233 571v-212h141q55 0 86.5 29.5t31.5 76.5t-31.5 76.5t-86.5 29.5h-141z" />
    <glyph glyph-name="S" unicode="S" horiz-adv-x="583" 
d="M212 523q0 -31 26.5 -53.5t99.5 -50.5q200 -79 200 -219q0 -90 -70 -150t-183 -60q-49 0 -94.5 11t-76 26t-53.5 30.5t-33 26.5l-11 11l90 98q9 -9 24.5 -22t64.5 -35t97 -22q39 0 63.5 19.5t24.5 49.5q0 35 -34 62.5t-125 64.5q-167 65 -167 201q0 87 67 143t176 56
q43 0 83 -9.5t66.5 -22.5t47.5 -26t31 -22l9 -10l-90 -98q-7 7 -19 17.5t-49.5 28.5t-76.5 18q-42 0 -65 -19t-23 -44z" />
    <glyph glyph-name="T" unicode="T" horiz-adv-x="590" 
d="M372 567v-567h-153v567h-204v133h560v-133h-203z" />
    <glyph glyph-name="U" unicode="U" horiz-adv-x="740" 
d="M367 -10q-134 0 -215.5 80.5t-81.5 214.5v415h155v-409q0 -73 41 -116.5t107 -43.5t106.5 43.5t40.5 116.5v409h150v-410q0 -135 -84 -217.5t-219 -82.5z" />
    <glyph glyph-name="V" unicode="V" horiz-adv-x="715" 
d="M2 700h173l187 -502l186 502h165l-279 -700h-153z" />
    <glyph glyph-name="W" unicode="W" horiz-adv-x="1010" 
d="M2 700h169l146 -467l138 467h109l137 -467l146 467h161l-236 -700h-134l-133 442l-133 -442h-133z" />
    <glyph glyph-name="X" unicode="X" horiz-adv-x="724" 
d="M2 0l269 356l-257 344h186l165 -228l167 228h178l-259 -342l270 -358h-186l-178 244l-177 -244h-178z" />
    <glyph glyph-name="Y" unicode="Y" horiz-adv-x="695" 
d="M271 0v260l-269 440h178l172 -295l171 295h170l-269 -440v-260h-153z" />
    <glyph glyph-name="Z" unicode="Z" horiz-adv-x="695" 
d="M52 0v112l385 459h-365v129h571v-112l-385 -459h385v-129h-591z" />
    <glyph glyph-name="bracketleft" unicode="[" horiz-adv-x="435" 
d="M80 -80v860h320v-122h-178v-616h178v-122h-320z" />
    <glyph glyph-name="backslash" unicode="\" horiz-adv-x="533" 
d="M533 -80h-123l-410 860h123z" />
    <glyph glyph-name="bracketright" unicode="]" horiz-adv-x="435" 
d="M35 -80v122h178v616h-178v122h320v-860h-320z" />
    <glyph glyph-name="asciicircum" unicode="^" horiz-adv-x="590" 
d="M45 320l194 380h113l193 -380h-137l-112 252l-112 -252h-139z" />
    <glyph glyph-name="underscore" unicode="_" horiz-adv-x="600" 
d="M0 -142v92h600v-92h-600z" />
    <glyph glyph-name="grave" unicode="`" horiz-adv-x="320" 
d="M156 572l-106 168h154l66 -168h-114z" />
    <glyph glyph-name="a" unicode="a" horiz-adv-x="571" 
d="M37 147q0 70 56 116t147 46q79 0 132 -37v22q0 51 -32 79t-85 28q-35 0 -67 -10t-47 -20l-15 -10l-59 101q8 7 24.5 18t72 29t116.5 18q111 0 174.5 -62t63.5 -172v-293h-113l-12 44q-57 -54 -157 -54q-91 0 -145 44t-54 113zM183 153q0 -30 26.5 -50.5t68.5 -20.5
q45 0 72 20.5t27 50.5t-27 50.5t-72 20.5q-42 0 -68.5 -20.5t-26.5 -50.5z" />
    <glyph glyph-name="b" unicode="b" horiz-adv-x="649" 
d="M60 700h145v-247q62 74 160 74q103 0 176 -77t73 -189q0 -113 -75 -192t-179 -79q-106 0 -167 82l-12 -72h-121v700zM200 258q0 -57 38.5 -96t95.5 -39t95.5 39t38.5 96t-38.5 96t-95.5 39t-95.5 -39t-38.5 -96z" />
    <glyph glyph-name="c" unicode="c" horiz-adv-x="538" 
d="M312 -10q-120 0 -198.5 76t-78.5 190t81 192.5t201 78.5q38 0 72.5 -9t56.5 -21.5t39.5 -25t24.5 -21.5l8 -9l-98 -95q-4 5 -12.5 13t-35.5 21t-57 13q-58 0 -96.5 -39t-38.5 -96t38.5 -96t96.5 -39q32 0 59.5 13t38.5 26l11 13l97 -91q-3 -4 -8.5 -10t-25 -22.5t-42 -29
t-58.5 -22.5t-75 -10z" />
    <glyph glyph-name="d" unicode="d" horiz-adv-x="649" 
d="M284 -10q-103 0 -176 77t-73 189q0 113 75 192t179 79q96 0 154 -69v242h146v-700h-121l-13 77q-63 -87 -171 -87zM314 123q57 0 95.5 39t38.5 96t-38.5 96t-95.5 39t-95.5 -39t-38.5 -96t38.5 -96t95.5 -39z" />
    <glyph glyph-name="e" unicode="e" horiz-adv-x="601" 
d="M312 -10q-120 0 -198.5 76t-78.5 190t80 192.5t198 78.5q108 0 182.5 -73.5t74.5 -175.5q0 -13 -1.5 -25t-2.5 -17l-2 -6h-381q7 -51 45 -82.5t94 -31.5q25 0 48.5 6.5t38.5 15t26.5 17.5t16.5 15l5 7l86 -83q-3 -4 -8.5 -11t-26 -25t-45 -32t-65.5 -25t-86 -11zM183 318
h247q-7 42 -41 71.5t-78 29.5q-48 0 -83 -28.5t-45 -72.5z" />
    <glyph glyph-name="f" unicode="f" horiz-adv-x="435" 
d="M115 0v369h-95v118h95v40q0 87 48 135t132 48q38 0 70.5 -5t46.5 -11l13 -5l-17 -110q-29 13 -72 13q-76 0 -76 -76v-29h155v-118h-155v-369h-145z" />
    <glyph glyph-name="g" unicode="g" horiz-adv-x="649" 
d="M93 13q9 -7 26 -17t67 -27t98 -17q75 0 117 37.5t42 107.5v11q-56 -63 -155 -63q-107 0 -180 69.5t-73 168.5q0 104 72.5 174t185.5 70q100 0 165 -72l10 62h121v-388q0 -137 -77 -218t-216 -81q-71 0 -135.5 19.5t-92.5 38.5l-29 20zM448 282q0 51 -38.5 86.5
t-95.5 35.5t-95.5 -35.5t-38.5 -86.5t38.5 -86.5t95.5 -35.5t95.5 35.5t38.5 86.5z" />
    <glyph glyph-name="h" unicode="h" horiz-adv-x="614" 
d="M60 0v700h145v-255q56 82 161 82q83 0 138.5 -56.5t55.5 -155.5v-315h-145v268q0 62 -28 93.5t-73 31.5q-48 0 -78.5 -31t-30.5 -92v-270h-145z" />
    <glyph glyph-name="i" unicode="i" horiz-adv-x="277" 
d="M47 659q0 36 26 60t66 24t65.5 -24t25.5 -60q0 -37 -25.5 -60.5t-65.5 -23.5t-66 23.5t-26 60.5zM65 517h147v-517h-147v517z" />
    <glyph glyph-name="j" unicode="j" horiz-adv-x="277" 
d="M47 659q0 36 26 60t66 24t65.5 -24t25.5 -60q0 -37 -25.5 -60.5t-65.5 -23.5t-66 23.5t-26 60.5zM212 517v-474q0 -104 -50.5 -158.5t-143.5 -54.5q-18 0 -38 3t-30 5l-11 3l18 120q19 -5 41 -5q67 0 67 74v487h147z" />
    <glyph glyph-name="k" unicode="k" horiz-adv-x="593" 
d="M60 0v700h145v-403l194 220h181l-227 -235l247 -282h-184l-211 252v-252h-145z" />
    <glyph glyph-name="l" unicode="l" horiz-adv-x="277" 
d="M65 700h147v-700h-147v700z" />
    <glyph glyph-name="m" unicode="m" horiz-adv-x="949" 
d="M60 517h129l7 -79q55 89 165 89q57 0 101.5 -28t67.5 -81q24 52 70.5 80.5t104.5 28.5q83 0 136.5 -56.5t53.5 -154.5v-316h-146v269q0 62 -26 93t-69 31q-45 0 -74.5 -30t-29.5 -89v-274h-145v269q0 62 -26.5 93t-69.5 31q-45 0 -74.5 -30t-29.5 -89v-274h-145v517z" />
    <glyph glyph-name="n" unicode="n" horiz-adv-x="614" 
d="M205 0h-145v517h129l7 -80q56 90 170 90q85 0 139.5 -56.5t54.5 -155.5v-315h-145v268q0 62 -28 93.5t-73 31.5q-48 0 -78.5 -32.5t-30.5 -97.5v-263z" />
    <glyph glyph-name="o" unicode="o" horiz-adv-x="629" 
d="M35 256q0 114 81 192.5t201 78.5t198.5 -76t78.5 -190t-81 -192.5t-201 -78.5t-198.5 76t-78.5 190zM180 258q0 -57 38.5 -96t96.5 -39q57 0 95.5 39t38.5 96t-38.5 96t-95.5 39q-58 0 -96.5 -39t-38.5 -96z" />
    <glyph glyph-name="p" unicode="p" horiz-adv-x="649" 
d="M60 517h121l12 -77q64 87 172 87q103 0 176 -77t73 -189q0 -113 -75 -192t-179 -79q-95 0 -155 68v-218h-145v677zM200 258q0 -57 38.5 -96t95.5 -39t95.5 39t38.5 96t-38.5 96t-95.5 39t-95.5 -39t-38.5 -96z" />
    <glyph glyph-name="q" unicode="q" horiz-adv-x="649" 
d="M443 -160v223q-60 -73 -159 -73q-103 0 -176 77t-73 189q0 113 75 192t179 79q105 0 167 -83l12 73h121v-677h-146zM314 123q57 0 95.5 39t38.5 96t-38.5 96t-95.5 39t-95.5 -39t-38.5 -96t38.5 -96t95.5 -39z" />
    <glyph glyph-name="r" unicode="r" horiz-adv-x="414" 
d="M60 0v517h129l8 -101q55 111 192 111l-2 -149h-30q-152 0 -152 -165v-213h-145z" />
    <glyph glyph-name="s" unicode="s" horiz-adv-x="470" 
d="M183 380q0 -19 19.5 -34.5t75.5 -32.5q76 -23 116.5 -64t40.5 -96q0 -72 -55 -117.5t-152 -45.5q-37 0 -72.5 7.5t-59.5 19t-43 22.5t-28 19l-9 7l62 93q8 -7 21 -17t52.5 -26.5t76.5 -16.5q31 0 47.5 12.5t16.5 31.5q0 21 -22 38t-88 38q-142 46 -142 155q0 64 53 109
t146 45q51 0 99.5 -16.5t71.5 -32.5l22 -17l-62 -94q-6 6 -17.5 14.5t-44.5 23t-65 14.5q-29 0 -44.5 -11.5t-15.5 -27.5z" />
    <glyph glyph-name="t" unicode="t" horiz-adv-x="450" 
d="M289 -10q-81 0 -127.5 45.5t-46.5 127.5v236h-95v118h95v123h145v-123h160v-118h-160v-203q0 -73 67 -73q17 0 36 3t29 6l11 3l17 -121q-51 -24 -131 -24z" />
    <glyph glyph-name="u" unicode="u" horiz-adv-x="614" 
d="M409 517h145v-517h-129l-7 80q-56 -90 -170 -90q-85 0 -139.5 56.5t-54.5 155.5v315h145v-268q0 -62 28 -93.5t73 -31.5q48 0 78.5 32.5t30.5 97.5v263z" />
    <glyph glyph-name="v" unicode="v" horiz-adv-x="543" 
d="M201 0l-206 517h162l118 -327l119 327h154l-206 -517h-141z" />
    <glyph glyph-name="w" unicode="w" horiz-adv-x="795" 
d="M-5 517h158l98 -321l96 321h109l95 -317l99 317h150l-174 -517h-138l-91 296l-90 -296h-138z" />
    <glyph glyph-name="x" unicode="x" horiz-adv-x="578" 
d="M376 267l207 -267h-172l-125 167l-128 -167h-163l206 262l-196 255h171l116 -156l117 156h164z" />
    <glyph glyph-name="y" unicode="y" horiz-adv-x="543" 
d="M-5 517h162l118 -342l119 342h154l-206 -522q-67 -165 -213 -165q-37 0 -70.5 8.5t-48.5 17.5l-15 8l46 113q27 -20 74 -20q59 0 83 51z" />
    <glyph glyph-name="z" unicode="z" horiz-adv-x="540" 
d="M42 0v105l257 289h-242v123h441v-105l-257 -290h257v-122h-456z" />
    <glyph glyph-name="braceleft" unicode="{" horiz-adv-x="475" 
d="M306 -80q-86 0 -126 40t-40 126v163q0 48 -48 48h-57v106h57q48 0 48 48v163q0 86 40 126t126 40h134v-118h-99q-31 0 -45 -14.5t-14 -45.5v-140q0 -54 -23 -82t-65 -30q88 -3 88 -112v-140q0 -31 14 -45.5t45 -14.5h99v-118h-134z" />
    <glyph glyph-name="bar" unicode="|" horiz-adv-x="335" 
d="M110 800h115v-900h-115v900z" />
    <glyph glyph-name="braceright" unicode="}" horiz-adv-x="475" 
d="M35 -80v118h99q31 0 45 14.5t14 45.5v140q0 54 23 82t64 30q-87 3 -87 112v140q0 31 -14 45.5t-45 14.5h-99v118h134q85 0 125.5 -40t40.5 -126v-163q0 -48 48 -48h57v-106h-57q-48 0 -48 -48v-163q0 -86 -40.5 -126t-125.5 -40h-134z" />
    <glyph glyph-name="asciitilde" unicode="~" 
d="M416 214q-37 0 -69 16.5t-51 36.5t-43 36.5t-47 16.5q-26 0 -40.5 -22t-15.5 -44l-2 -22l-108 13q0 8 1 21.5t9.5 48.5t23.5 61.5t47.5 48t76.5 21.5q37 0 69 -16.5t51.5 -36.5t43.5 -36.5t47 -16.5q26 0 40.5 22t16.5 44l1 22l108 -13q0 -4 -0.5 -11.5t-3.5 -28
t-8.5 -39.5t-17.5 -42.5t-28 -40t-42.5 -28t-58.5 -11.5z" />
    <glyph glyph-name="exclamdown" unicode="&#xa1;" horiz-adv-x="323" 
d="M161 527q-38 0 -64.5 27t-26.5 65q0 37 27 64t64 27q38 0 65 -26.5t27 -64.5t-27 -65t-65 -27zM72 0l33 462h112l33 -462h-178z" />
    <glyph glyph-name="cent" unicode="&#xa2;" horiz-adv-x="564" 
d="M273 83v97q-101 15 -164.5 86.5t-63.5 172.5q0 100 64 172.5t164 89.5v99h84v-96q51 -5 93.5 -25t59.5 -37l18 -18l-100 -96q-4 5 -11.5 13.5t-34 22t-57.5 13.5q-58 0 -96.5 -39t-38.5 -96t38.5 -96t96.5 -39q34 0 60.5 13.5t36.5 27.5l10 13l99 -94q-7 -8 -19.5 -21
t-57.5 -37t-97 -30v-96h-84z" />
    <glyph glyph-name="sterling" unicode="&#xa3;" horiz-adv-x="608" 
d="M120 0v301h-85v83h85v81q0 114 68.5 179.5t174.5 65.5q43 0 80 -12t60 -29t39.5 -34.5t23.5 -29.5l7 -12l-118 -77q-1 2 -2.5 6.5t-9 15t-17.5 18.5t-27.5 14.5t-38.5 6.5q-42 0 -68.5 -27t-26.5 -70v-96h205v-83h-205v-176h290v-125h-435z" />
    <glyph glyph-name="currency" unicode="&#xa4;" horiz-adv-x="678" 
d="M102 55l-57 57l93 89q-50 66 -50 147q0 80 52 148l-95 92l57 57l97 -94q63 44 142 44q78 0 139 -42l95 92l58 -57l-94 -90q50 -64 50 -146t-51 -149l95 -91l-58 -57l-96 94q-64 -44 -142 -44q-79 0 -140 42zM339 223q53 0 89.5 36.5t36.5 90.5t-36.5 90.5t-89.5 36.5
q-54 0 -90 -36.5t-36 -90.5t36 -90.5t90 -36.5z" />
    <glyph glyph-name="yen" unicode="&#xa5;" horiz-adv-x="650" 
d="M249 0v178h-214v76h214v53l-12 21h-202v76h157l-177 296h178l136 -260l136 260h170l-178 -296h158v-76h-202l-11 -21v-53h213v-76h-213v-178h-153z" />
    <glyph glyph-name="brokenbar" unicode="&#xa6;" horiz-adv-x="335" 
d="M225 455h-115v345h115v-345zM110 245h115v-345h-115v345z" />
    <glyph glyph-name="section" unicode="&#xa7;" horiz-adv-x="650" 
d="M305 -170q-61 0 -111 20t-70 40l-19 19l89 89q5 -5 13.5 -13t37 -21t58.5 -13q31 0 48 13.5t17 35.5q0 50 -108 85q-115 38 -165 86t-50 110q0 50 32.5 89t91.5 59q-44 45 -44 104q0 78 60.5 127.5t160.5 49.5q61 0 110.5 -20t69.5 -40l19 -19l-89 -89q-5 5 -13.5 13
t-36.5 21t-58 13q-31 0 -48.5 -14.5t-17.5 -34.5q0 -24 23.5 -44.5t85.5 -40.5q115 -38 164.5 -86t49.5 -110q0 -51 -32.5 -89.5t-92.5 -58.5q45 -47 45 -104q0 -78 -60.5 -127.5t-159.5 -49.5zM392 178q64 13 64 59q0 32 -32 56.5t-119 50.5q-23 7 -47 17
q-29 -5 -46.5 -20.5t-17.5 -37.5q0 -32 32 -56.5t119 -50.5q17 -6 47 -18z" />
    <glyph glyph-name="dieresis" unicode="&#xa8;" horiz-adv-x="473" 
d="M126 582q-33 0 -54.5 21.5t-21.5 54.5t22 55t55 22t54.5 -21.5t21.5 -53.5q0 -33 -22 -55.5t-55 -22.5zM346 582q-33 0 -54.5 21.5t-21.5 54.5t22 55t55 22t54.5 -21.5t21.5 -53.5q0 -33 -22 -55.5t-55 -22.5z" />
    <glyph glyph-name="copyright" unicode="&#xa9;" horiz-adv-x="826" 
d="M411 -10q-154 0 -257.5 103t-103.5 255t105.5 257t259.5 105t257.5 -103t103.5 -255t-105.5 -257t-259.5 -105zM413 67q118 0 199.5 82t81.5 201t-81.5 201t-199.5 82t-199.5 -82t-81.5 -201t81.5 -201t199.5 -82zM420 152q-87 0 -142.5 56t-55.5 140t57 142t144 58
q47 0 85.5 -17t53.5 -33l14 -17l-65 -58q-3 4 -9 11t-28 18t-49 11q-47 0 -78.5 -32.5t-31.5 -80.5t31.5 -80.5t78.5 -32.5q28 0 50.5 11.5t31.5 23.5l9 11l63 -57q-6 -8 -17 -20.5t-52 -33t-90 -20.5z" />
    <glyph glyph-name="ordfeminine" unicode="&#xaa;" horiz-adv-x="405" 
d="M176 380q-57 0 -90.5 26t-33.5 69q0 42 35 70t92 28q45 0 75 -19v10q0 31 -17.5 47.5t-48.5 16.5q-21 0 -41.5 -6t-30.5 -12l-10 -6l-36 63q51 37 134 37q69 0 109 -38t40 -104v-176h-76l-8 24q-35 -30 -93 -30zM202 438q25 0 40 12t15 28q0 17 -15 29t-40 12
q-23 0 -37 -12t-14 -29q0 -16 14 -28t37 -12zM62 272v62h291v-62h-291z" />
    <glyph glyph-name="guillemotleft" unicode="&#xab;" horiz-adv-x="765" 
d="M203 352l173 -178l-77 -82l-249 233v50l249 233l77 -78zM527 352l173 -178l-78 -82l-248 233v50l248 233l78 -78z" />
    <glyph glyph-name="logicalnot" unicode="&#xac;" 
d="M443 160v169h-393v114h515v-283h-122z" />
    <glyph glyph-name="registered" unicode="&#xae;" horiz-adv-x="536" 
d="M50 493q0 91 63.5 154t155.5 63t154.5 -62t62.5 -153t-63.5 -154t-155.5 -63t-154.5 62t-62.5 153zM103 494q0 -71 47.5 -118.5t117.5 -47.5t117.5 47.5t47.5 118.5t-47.5 118.5t-117.5 47.5t-117.5 -47.5t-47.5 -118.5zM187 599h96q35 0 56.5 -19.5t21.5 -50.5
q0 -48 -44 -64l53 -76h-60l-46 69h-25v-69h-52v210zM239 555v-56h38q32 0 32 27q0 29 -32 29h-38z" />
    <glyph glyph-name="macron" unicode="&#xaf;" horiz-adv-x="460" 
d="M50 618v84h360v-84h-360z" />
    <glyph glyph-name="degree" unicode="&#xb0;" horiz-adv-x="433" 
d="M216 362q-75 0 -125.5 49.5t-50.5 123.5t51.5 124.5t126.5 50.5t125 -49.5t50 -123.5t-51 -124.5t-126 -50.5zM217 445q39 0 64 25.5t25 65.5t-25 66t-64 26q-40 0 -65 -26t-25 -66t25 -65.5t65 -25.5z" />
    <glyph glyph-name="plusminus" unicode="&#xb1;" 
d="M249 208v175h-199v114h199v176h117v-176h199v-114h-199v-175h-117zM50 27v115h515v-115h-515z" />
    <glyph glyph-name="uni00B2" unicode="&#xb2;" horiz-adv-x="359" 
d="M39 280v75l143 135q47 44 47 81q0 20 -15 34t-37 14t-40 -12.5t-25 -24.5l-7 -12l-73 46l5 10t16 21.5t29 27.5t44 21.5t60 9.5q62 0 101.5 -35.5t39.5 -88.5q0 -40 -18.5 -71.5t-60.5 -70.5l-83 -76h159v-84h-285z" />
    <glyph glyph-name="uni00B3" unicode="&#xb3;" horiz-adv-x="357" 
d="M167 274q-30 0 -56 8.5t-42 21t-27.5 24.5t-16.5 20l-5 9l74 43q2 -5 6.5 -12t23 -19t42.5 -12q28 0 44 14t16 36q0 23 -17 38.5t-50 15.5h-42v70h42q27 0 41 13t14 34t-13.5 33t-36.5 12q-12 0 -22.5 -3.5t-16.5 -8.5t-10.5 -10.5t-6.5 -8.5l-1 -4l-72 40q1 3 4.5 8.5
t15 19t25.5 23.5t38.5 18.5t52.5 8.5q61 0 101 -31.5t40 -81.5q0 -61 -58 -94q70 -33 70 -102q0 -55 -43.5 -89t-113.5 -34z" />
    <glyph glyph-name="acute" unicode="&#xb4;" horiz-adv-x="320" 
d="M50 572l66 168h154l-106 -168h-114z" />
    <glyph glyph-name="paragraph" unicode="&#xb6;" horiz-adv-x="792" 
d="M306 270h-22q-109 0 -175.5 59.5t-66.5 153.5t69 155.5t178 61.5h403v-700h-131v582h-124v-582h-131v270z" />
    <glyph glyph-name="periodcentered" unicode="&#xb7;" horiz-adv-x="288" 
d="M144 259q-38 0 -65 26.5t-27 64.5t27 65t65 27t64.5 -27t26.5 -65t-26.5 -64.5t-64.5 -26.5z" />
    <glyph glyph-name="cedilla" unicode="&#xb8;" horiz-adv-x="360" 
d="M154 -195q-28 0 -54 6.5t-38 13.5l-12 7l30 84q23 -16 62 -16q29 0 46.5 14.5t17.5 39.5q0 13 -6.5 24.5t-11.5 16t-8 5.5l45 56q3 -1 9 -3.5t20.5 -12.5t26 -22t20.5 -33t9 -45q0 -62 -46 -98.5t-110 -36.5z" />
    <glyph glyph-name="uni00B9" unicode="&#xb9;" horiz-adv-x="306" 
d="M171 700h83v-420h-98v305l-85 -57l-49 65z" />
    <glyph glyph-name="ordmasculine" unicode="&#xba;" horiz-adv-x="451" 
d="M223 380q-74 0 -122.5 45.5t-48.5 114.5t50.5 116.5t124.5 47.5q75 0 123.5 -45.5t48.5 -114.5t-50.5 -116.5t-125.5 -47.5zM225 468q32 0 53.5 21t21.5 53t-21.5 53t-53.5 21q-31 0 -52.5 -21t-21.5 -53t21.5 -53t52.5 -21zM62 272v62h327v-62h-327z" />
    <glyph glyph-name="guillemotright" unicode="&#xbb;" horiz-adv-x="765" 
d="M238 347l-173 179l78 82l248 -233v-50l-248 -233l-78 78zM562 347l-173 179l77 82l249 -233v-50l-249 -233l-77 78z" />
    <glyph glyph-name="onequarter" unicode="&#xbc;" horiz-adv-x="922" 
d="M171 700h83v-420h-98v305l-85 -57l-49 65zM632 700h96l-493 -700h-97zM748 0v89h-188v80l181 251h96v-255h62v-76h-62v-89h-89zM639 165h109v149z" />
    <glyph glyph-name="onehalf" unicode="&#xbd;" horiz-adv-x="897" 
d="M171 700h83v-420h-98v305l-85 -57l-49 65zM632 700h96l-493 -700h-97zM577 0v75l143 135q47 44 47 81q0 20 -15 34t-37 14t-40 -12.5t-25 -24.5l-7 -12l-73 46l5 10t16 21.5t29 27.5t44 21.5t60 9.5q62 0 101.5 -35.5t39.5 -88.5q0 -40 -18.5 -71.5t-60.5 -70.5l-83 -76
h159v-84h-285z" />
    <glyph glyph-name="threequarters" unicode="&#xbe;" horiz-adv-x="943" 
d="M167 274q-30 0 -56 8.5t-42 21t-27.5 24.5t-16.5 20l-5 9l74 43q2 -5 6.5 -12t23 -19t42.5 -12q28 0 44 14t16 36q0 23 -17 38.5t-50 15.5h-42v70h42q27 0 41 13t14 34t-13.5 33t-36.5 12q-12 0 -22.5 -3.5t-16.5 -8.5t-10.5 -10.5t-6.5 -8.5l-1 -4l-72 40q1 3 4.5 8.5
t15 19t25.5 23.5t38.5 18.5t52.5 8.5q61 0 101 -31.5t40 -81.5q0 -61 -58 -94q70 -33 70 -102q0 -55 -43.5 -89t-113.5 -34zM653 700h96l-493 -700h-97zM769 0v89h-188v80l181 251h96v-255h62v-76h-62v-89h-89zM660 165h109v149z" />
    <glyph glyph-name="questiondown" unicode="&#xbf;" horiz-adv-x="540" 
d="M280 710q38 0 65 -27t27 -65t-27 -64.5t-65 -26.5t-64.5 26.5t-26.5 64.5t26.5 65t64.5 27zM345 462q0 -37 -15 -68.5t-36.5 -53.5t-42.5 -41.5t-36 -42.5t-15 -48q0 -34 22.5 -56.5t57.5 -22.5q23 0 42 8t30.5 20t20 24t11.5 20l3 8l114 -69q-2 -6 -6 -16t-22.5 -36
t-42 -46t-67 -36t-95.5 -16q-93 0 -155.5 57t-62.5 137q0 43 14.5 77.5t37 58.5t45.5 44.5t42.5 45.5t25.5 52h130z" />
    <glyph glyph-name="Agrave" unicode="&#xc0;" horiz-adv-x="725" 
d="M305 752l-106 168h154l66 -168h-114zM2 0l284 700h153l284 -700h-169l-56 147h-279l-56 -147h-161zM261 268h194l-96 256z" />
    <glyph glyph-name="Aacute" unicode="&#xc1;" horiz-adv-x="725" 
d="M305 752l66 168h154l-106 -168h-114zM2 0l284 700h153l284 -700h-169l-56 147h-279l-56 -147h-161zM261 268h194l-96 256z" />
    <glyph glyph-name="Acircumflex" unicode="&#xc2;" horiz-adv-x="725" 
d="M157 752l140 168h130l140 -168h-125l-83 82l-81 -82h-121zM2 0l284 700h153l284 -700h-169l-56 147h-279l-56 -147h-161zM261 268h194l-96 256z" />
    <glyph glyph-name="Atilde" unicode="&#xc3;" horiz-adv-x="725" 
d="M433 755q-33 0 -58.5 18t-45.5 36t-39 18q-14 0 -23 -14.5t-11 -28.5l-2 -15l-72 8q0 6 1 15t7 33t16.5 42t32 33t50.5 15q34 0 60 -18t45.5 -36t38.5 -18q14 0 23 14.5t11 28.5l2 15l73 -8q0 -6 -1 -15t-7.5 -33t-16.5 -42t-32.5 -33t-51.5 -15zM2 0l284 700h153
l284 -700h-169l-56 147h-279l-56 -147h-161zM261 268h194l-96 256z" />
    <glyph glyph-name="Adieresis" unicode="&#xc4;" horiz-adv-x="725" 
d="M252 762q-33 0 -54.5 21.5t-21.5 54.5t22 55t55 22t54.5 -21.5t21.5 -53.5q0 -33 -22 -55.5t-55 -22.5zM472 762q-33 0 -54.5 21.5t-21.5 54.5t22 55t55 22t54.5 -21.5t21.5 -53.5q0 -33 -22 -55.5t-55 -22.5zM2 0l284 700h153l284 -700h-169l-56 147h-279l-56 -147h-161
zM261 268h194l-96 256z" />
    <glyph glyph-name="Aring" unicode="&#xc5;" horiz-adv-x="725" 
d="M363 732q-43 0 -71 26.5t-28 67.5t28 67.5t71 26.5q42 0 70 -27t28 -67t-28 -67t-70 -27zM363 782q18 0 30.5 13t12.5 31q0 19 -12 31t-31 12q-20 0 -32.5 -12t-12.5 -31q0 -18 13 -31t32 -13zM2 0l284 700h153l284 -700h-169l-56 147h-279l-56 -147h-161zM261 268h194
l-96 256z" />
    <glyph glyph-name="AE" unicode="&#xc6;" horiz-adv-x="1068" 
d="M-8 0l425 700h596v-133h-363v-145h313v-124h-313v-165h373v-133h-526v147h-247l-87 -147h-171zM317 268h180v305z" />
    <glyph glyph-name="Ccedilla" unicode="&#xc7;" horiz-adv-x="713" 
d="M688 117q-3 -4 -8 -11t-24.5 -25t-42.5 -33.5t-60.5 -31t-79.5 -21.5q14 -23 14 -55q0 -62 -46 -98.5t-110 -36.5q-28 0 -54 6.5t-38 13.5l-12 7l30 84q23 -16 62 -16q29 0 46.5 14.5t17.5 39.5q0 22 -16 38q-141 15 -231.5 114.5t-90.5 240.5q0 152 107 257.5t263 105.5
q52 0 98.5 -12t76 -29t52 -33.5t32.5 -28.5l9 -12l-110 -95q-2 3 -6.5 7.5t-19.5 16.5t-32 21t-45 16.5t-58 7.5q-92 0 -153 -63t-61 -156t61 -156t153 -63q32 0 61 8t48.5 19.5t34 23.5t21.5 19.5t7 8.5z" />
    <glyph glyph-name="Egrave" unicode="&#xc8;" horiz-adv-x="650" 
d="M280 752l-106 168h154l66 -168h-114zM80 0v700h515v-133h-362v-145h312v-124h-312v-165h372v-133h-525z" />
    <glyph glyph-name="Eacute" unicode="&#xc9;" horiz-adv-x="650" 
d="M280 752l66 168h154l-106 -168h-114zM80 0v700h515v-133h-362v-145h312v-124h-312v-165h372v-133h-525z" />
    <glyph glyph-name="Ecircumflex" unicode="&#xca;" horiz-adv-x="650" 
d="M132 752l140 168h130l140 -168h-125l-83 82l-81 -82h-121zM80 0v700h515v-133h-362v-145h312v-124h-312v-165h372v-133h-525z" />
    <glyph glyph-name="Edieresis" unicode="&#xcb;" horiz-adv-x="650" 
d="M227 762q-33 0 -54.5 21.5t-21.5 54.5t22 55t55 22t54.5 -21.5t21.5 -53.5q0 -33 -22 -55.5t-55 -22.5zM447 762q-33 0 -54.5 21.5t-21.5 54.5t22 55t55 22t54.5 -21.5t21.5 -53.5q0 -33 -22 -55.5t-55 -22.5zM80 0v700h515v-133h-362v-145h312v-124h-312v-165h372v-133
h-525z" />
    <glyph glyph-name="Igrave" unicode="&#xcc;" horiz-adv-x="327" 
d="M106 752l-106 168h154l66 -168h-114zM85 700h157v-700h-157v700z" />
    <glyph glyph-name="Iacute" unicode="&#xcd;" horiz-adv-x="327" 
d="M107 752l66 168h154l-106 -168h-114zM85 700h157v-700h-157v700z" />
    <glyph glyph-name="Icircumflex" unicode="&#xce;" horiz-adv-x="327" 
d="M-41 752l140 168h130l140 -168h-125l-83 82l-81 -82h-121zM85 700h157v-700h-157v700z" />
    <glyph glyph-name="Idieresis" unicode="&#xcf;" horiz-adv-x="327" 
d="M53 762q-33 0 -54.5 21.5t-21.5 54.5t22 55t55 22t54.5 -21.5t21.5 -53.5q0 -33 -22 -55.5t-55 -22.5zM273 762q-33 0 -54.5 21.5t-21.5 54.5t22 55t55 22t54.5 -21.5t21.5 -53.5q0 -33 -22 -55.5t-55 -22.5zM85 700h157v-700h-157v700z" />
    <glyph glyph-name="Eth" unicode="&#xd0;" horiz-adv-x="798" 
d="M368 700q168 0 276.5 -98.5t108.5 -248.5t-111 -251.5t-279 -101.5h-246v315h-87v84h87v301h251zM370 133q100 0 165 61.5t65 155.5t-65 155.5t-165 61.5h-100v-168h170v-84h-170v-182h100z" />
    <glyph glyph-name="Ntilde" unicode="&#xd1;" horiz-adv-x="790" 
d="M466 755q-33 0 -58.5 18t-45.5 36t-39 18q-14 0 -23 -14.5t-11 -28.5l-2 -15l-72 8q0 6 1 15t7 33t16.5 42t32 33t50.5 15q34 0 60 -18t45.5 -36t38.5 -18q14 0 23 14.5t11 28.5l2 15l73 -8q0 -6 -1 -15t-7.5 -33t-16.5 -42t-32.5 -33t-51.5 -15zM229 471v-471h-149v700
h158l323 -459v459h149v-700h-149z" />
    <glyph glyph-name="Ograve" unicode="&#xd2;" horiz-adv-x="825" 
d="M355 752l-106 168h154l66 -168h-114zM45 347q0 152 107 257.5t263 105.5t260.5 -102.5t104.5 -254.5t-107 -257.5t-263 -105.5t-260.5 102.5t-104.5 254.5zM198 350q0 -93 61 -156t153 -63q93 0 154 63t61 156t-61 156t-154 63q-92 0 -153 -63t-61 -156z" />
    <glyph glyph-name="Oacute" unicode="&#xd3;" horiz-adv-x="825" 
d="M355 752l66 168h154l-106 -168h-114zM45 347q0 152 107 257.5t263 105.5t260.5 -102.5t104.5 -254.5t-107 -257.5t-263 -105.5t-260.5 102.5t-104.5 254.5zM198 350q0 -93 61 -156t153 -63q93 0 154 63t61 156t-61 156t-154 63q-92 0 -153 -63t-61 -156z" />
    <glyph glyph-name="Ocircumflex" unicode="&#xd4;" horiz-adv-x="825" 
d="M207 752l140 168h130l140 -168h-125l-83 82l-81 -82h-121zM45 347q0 152 107 257.5t263 105.5t260.5 -102.5t104.5 -254.5t-107 -257.5t-263 -105.5t-260.5 102.5t-104.5 254.5zM198 350q0 -93 61 -156t153 -63q93 0 154 63t61 156t-61 156t-154 63q-92 0 -153 -63
t-61 -156z" />
    <glyph glyph-name="Otilde" unicode="&#xd5;" horiz-adv-x="825" 
d="M483 755q-33 0 -58.5 18t-45.5 36t-39 18q-14 0 -23 -14.5t-11 -28.5l-2 -15l-72 8q0 6 1 15t7 33t16.5 42t32 33t50.5 15q34 0 60 -18t45.5 -36t38.5 -18q14 0 23 14.5t11 28.5l2 15l73 -8q0 -6 -1 -15t-7.5 -33t-16.5 -42t-32.5 -33t-51.5 -15zM45 347q0 152 107 257.5
t263 105.5t260.5 -102.5t104.5 -254.5t-107 -257.5t-263 -105.5t-260.5 102.5t-104.5 254.5zM198 350q0 -93 61 -156t153 -63q93 0 154 63t61 156t-61 156t-154 63q-92 0 -153 -63t-61 -156z" />
    <glyph glyph-name="Odieresis" unicode="&#xd6;" horiz-adv-x="825" 
d="M302 762q-33 0 -54.5 21.5t-21.5 54.5t22 55t55 22t54.5 -21.5t21.5 -53.5q0 -33 -22 -55.5t-55 -22.5zM522 762q-33 0 -54.5 21.5t-21.5 54.5t22 55t55 22t54.5 -21.5t21.5 -53.5q0 -33 -22 -55.5t-55 -22.5zM45 347q0 152 107 257.5t263 105.5t260.5 -102.5
t104.5 -254.5t-107 -257.5t-263 -105.5t-260.5 102.5t-104.5 254.5zM198 350q0 -93 61 -156t153 -63q93 0 154 63t61 156t-61 156t-154 63q-92 0 -153 -63t-61 -156z" />
    <glyph glyph-name="multiply" unicode="&#xd7;" 
d="M133 95l-81 82l176 173l-176 173l81 82l175 -176l174 176l81 -82l-177 -173l177 -173l-81 -82l-174 176z" />
    <glyph glyph-name="Oslash" unicode="&#xd8;" horiz-adv-x="825" 
d="M788 730l-108 -127q100 -100 100 -250q0 -152 -107 -257.5t-263 -105.5q-114 0 -205 58l-66 -78h-102l108 127q-100 100 -100 250q0 152 107 257.5t263 105.5q114 0 205 -58l66 78h102zM194 350q0 -81 47 -141l285 334q-52 30 -114 30q-94 0 -156 -64t-62 -159zM631 350
q0 81 -47 141l-285 -334q51 -30 113 -30q94 0 156.5 64t62.5 159z" />
    <glyph glyph-name="Ugrave" unicode="&#xd9;" horiz-adv-x="740" 
d="M313 752l-106 168h154l66 -168h-114zM367 -10q-134 0 -215.5 80.5t-81.5 214.5v415h155v-409q0 -73 41 -116.5t107 -43.5t106.5 43.5t40.5 116.5v409h150v-410q0 -135 -84 -217.5t-219 -82.5z" />
    <glyph glyph-name="Uacute" unicode="&#xda;" horiz-adv-x="740" 
d="M313 752l66 168h154l-106 -168h-114zM367 -10q-134 0 -215.5 80.5t-81.5 214.5v415h155v-409q0 -73 41 -116.5t107 -43.5t106.5 43.5t40.5 116.5v409h150v-410q0 -135 -84 -217.5t-219 -82.5z" />
    <glyph glyph-name="Ucircumflex" unicode="&#xdb;" horiz-adv-x="740" 
d="M165 752l140 168h130l140 -168h-125l-83 82l-81 -82h-121zM367 -10q-134 0 -215.5 80.5t-81.5 214.5v415h155v-409q0 -73 41 -116.5t107 -43.5t106.5 43.5t40.5 116.5v409h150v-410q0 -135 -84 -217.5t-219 -82.5z" />
    <glyph glyph-name="Udieresis" unicode="&#xdc;" horiz-adv-x="740" 
d="M260 762q-33 0 -54.5 21.5t-21.5 54.5t22 55t55 22t54.5 -21.5t21.5 -53.5q0 -33 -22 -55.5t-55 -22.5zM480 762q-33 0 -54.5 21.5t-21.5 54.5t22 55t55 22t54.5 -21.5t21.5 -53.5q0 -33 -22 -55.5t-55 -22.5zM367 -10q-134 0 -215.5 80.5t-81.5 214.5v415h155v-409
q0 -73 41 -116.5t107 -43.5t106.5 43.5t40.5 116.5v409h150v-410q0 -135 -84 -217.5t-219 -82.5z" />
    <glyph glyph-name="Yacute" unicode="&#xdd;" horiz-adv-x="695" 
d="M294 752l66 168h154l-106 -168h-114zM271 0v260l-269 440h178l172 -295l171 295h170l-269 -440v-260h-153z" />
    <glyph glyph-name="Thorn" unicode="&#xde;" horiz-adv-x="680" 
d="M80 0v700h153v-106h149q114 0 183.5 -64t69.5 -166t-72 -168t-186 -66h-144v-130h-153zM233 255h130q54 0 86.5 29.5t32.5 77.5q0 47 -32.5 76.5t-86.5 29.5h-130v-213z" />
    <glyph glyph-name="germandbls" unicode="&#xdf;" horiz-adv-x="614" 
d="M345 -10q-20 0 -37.5 2t-25.5 4l-8 2l14 120q22 -6 42 -6q50 0 80 27t30 69t-30.5 69t-80.5 27h-34v114h9q43 0 69.5 23.5t26.5 61.5t-26.5 61.5t-69.5 23.5q-45 0 -72 -29.5t-27 -81.5v-477h-145v474q0 106 67.5 171t177.5 65q107 0 173.5 -54.5t66.5 -140.5
q0 -92 -75 -141q54 -24 84.5 -69t30.5 -105q0 -91 -67.5 -150.5t-172.5 -59.5z" />
    <glyph glyph-name="agrave" unicode="&#xe0;" horiz-adv-x="571" 
d="M226 572l-106 168h154l66 -168h-114zM37 147q0 70 56 116t147 46q79 0 132 -37v22q0 51 -32 79t-85 28q-35 0 -67 -10t-47 -20l-15 -10l-59 101q8 7 24.5 18t72 29t116.5 18q111 0 174.5 -62t63.5 -172v-293h-113l-12 44q-57 -54 -157 -54q-91 0 -145 44t-54 113z
M183 153q0 -30 26.5 -50.5t68.5 -20.5q45 0 72 20.5t27 50.5t-27 50.5t-72 20.5q-42 0 -68.5 -20.5t-26.5 -50.5z" />
    <glyph glyph-name="aacute" unicode="&#xe1;" horiz-adv-x="571" 
d="M227 572l66 168h154l-106 -168h-114zM37 147q0 70 56 116t147 46q79 0 132 -37v22q0 51 -32 79t-85 28q-35 0 -67 -10t-47 -20l-15 -10l-59 101q8 7 24.5 18t72 29t116.5 18q111 0 174.5 -62t63.5 -172v-293h-113l-12 44q-57 -54 -157 -54q-91 0 -145 44t-54 113z
M183 153q0 -30 26.5 -50.5t68.5 -20.5q45 0 72 20.5t27 50.5t-27 50.5t-72 20.5q-42 0 -68.5 -20.5t-26.5 -50.5z" />
    <glyph glyph-name="acircumflex" unicode="&#xe2;" horiz-adv-x="571" 
d="M79 572l140 168h130l140 -168h-125l-83 82l-81 -82h-121zM37 147q0 70 56 116t147 46q79 0 132 -37v22q0 51 -32 79t-85 28q-35 0 -67 -10t-47 -20l-15 -10l-59 101q8 7 24.5 18t72 29t116.5 18q111 0 174.5 -62t63.5 -172v-293h-113l-12 44q-57 -54 -157 -54
q-91 0 -145 44t-54 113zM183 153q0 -30 26.5 -50.5t68.5 -20.5q45 0 72 20.5t27 50.5t-27 50.5t-72 20.5q-42 0 -68.5 -20.5t-26.5 -50.5z" />
    <glyph glyph-name="atilde" unicode="&#xe3;" horiz-adv-x="571" 
d="M355 575q-33 0 -58.5 18t-45.5 36t-39 18q-14 0 -23 -14.5t-11 -28.5l-2 -15l-72 8q0 6 1 15t7 33t16.5 42t32 33t50.5 15q34 0 60 -18t45.5 -36t38.5 -18q14 0 23 14.5t11 28.5l2 15l73 -8q0 -6 -1 -15t-7.5 -33t-16.5 -42t-32.5 -33t-51.5 -15zM37 147q0 70 56 116
t147 46q79 0 132 -37v22q0 51 -32 79t-85 28q-35 0 -67 -10t-47 -20l-15 -10l-59 101q8 7 24.5 18t72 29t116.5 18q111 0 174.5 -62t63.5 -172v-293h-113l-12 44q-57 -54 -157 -54q-91 0 -145 44t-54 113zM183 153q0 -30 26.5 -50.5t68.5 -20.5q45 0 72 20.5t27 50.5
t-27 50.5t-72 20.5q-42 0 -68.5 -20.5t-26.5 -50.5z" />
    <glyph glyph-name="adieresis" unicode="&#xe4;" horiz-adv-x="571" 
d="M173 582q-33 0 -54.5 21.5t-21.5 54.5t22 55t55 22t54.5 -21.5t21.5 -53.5q0 -33 -22 -55.5t-55 -22.5zM393 582q-33 0 -54.5 21.5t-21.5 54.5t22 55t55 22t54.5 -21.5t21.5 -53.5q0 -33 -22 -55.5t-55 -22.5zM37 147q0 70 56 116t147 46q79 0 132 -37v22q0 51 -32 79
t-85 28q-35 0 -67 -10t-47 -20l-15 -10l-59 101q8 7 24.5 18t72 29t116.5 18q111 0 174.5 -62t63.5 -172v-293h-113l-12 44q-57 -54 -157 -54q-91 0 -145 44t-54 113zM183 153q0 -30 26.5 -50.5t68.5 -20.5q45 0 72 20.5t27 50.5t-27 50.5t-72 20.5q-42 0 -68.5 -20.5
t-26.5 -50.5z" />
    <glyph glyph-name="aring" unicode="&#xe5;" horiz-adv-x="571" 
d="M284 552q-43 0 -71 26.5t-28 67.5t28 67.5t71 26.5q42 0 70 -27t28 -67t-28 -67t-70 -27zM284 602q18 0 30.5 13t12.5 31q0 19 -12 31t-31 12q-20 0 -32.5 -12t-12.5 -31q0 -18 13 -31t32 -13zM37 147q0 70 56 116t147 46q79 0 132 -37v22q0 51 -32 79t-85 28
q-35 0 -67 -10t-47 -20l-15 -10l-59 101q8 7 24.5 18t72 29t116.5 18q111 0 174.5 -62t63.5 -172v-293h-113l-12 44q-57 -54 -157 -54q-91 0 -145 44t-54 113zM183 153q0 -30 26.5 -50.5t68.5 -20.5q45 0 72 20.5t27 50.5t-27 50.5t-72 20.5q-42 0 -68.5 -20.5t-26.5 -50.5z
" />
    <glyph glyph-name="ae" unicode="&#xe6;" horiz-adv-x="939" 
d="M254 -10q-101 0 -159 43.5t-58 113.5t56 116t147 46q79 0 132 -37v22q0 51 -32 79t-85 28q-35 0 -67 -10t-47 -20l-15 -10l-59 102q3 3 9 7t27 15t44 19.5t60.5 15.5t76.5 7q120 0 175 -92q75 92 192 92q107 0 182 -73.5t75 -175.5q0 -13 -2 -25t-4 -17l-2 -6h-379
q7 -51 45 -82.5t93 -31.5q25 0 48.5 6.5t38.5 15t26.5 17.5t16.5 15l5 7l87 -83q-3 -4 -8.5 -11t-26 -25t-45 -32t-65.5 -25t-87 -11q-123 0 -197 93q-54 -93 -198 -93zM520 317h248q-8 43 -42 72.5t-78 29.5q-48 0 -83 -28.5t-45 -73.5zM278 82q45 0 72 20.5t27 50.5
t-27 50.5t-72 20.5q-42 0 -68.5 -20.5t-26.5 -50.5t26.5 -50.5t68.5 -20.5z" />
    <glyph glyph-name="ccedilla" unicode="&#xe7;" horiz-adv-x="538" 
d="M521 84q-6 -8 -17 -19.5t-49 -35.5t-82 -33q14 -26 14 -56q0 -62 -46 -98.5t-110 -36.5q-28 0 -54 6.5t-38 13.5l-12 7l30 84q23 -16 62 -16q29 0 46.5 14.5t17.5 39.5q0 22 -17 39q-102 15 -166.5 88t-64.5 175q0 114 81 192.5t201 78.5q38 0 72.5 -9t56.5 -21.5
t39.5 -25t24.5 -21.5l8 -9l-98 -95q-4 5 -12.5 13t-35.5 21t-57 13q-58 0 -96.5 -39t-38.5 -96t38.5 -96t96.5 -39q32 0 59.5 13t38.5 26l11 13z" />
    <glyph glyph-name="egrave" unicode="&#xe8;" horiz-adv-x="601" 
d="M256 572l-106 168h154l66 -168h-114zM312 -10q-120 0 -198.5 76t-78.5 190t80 192.5t198 78.5q108 0 182.5 -73.5t74.5 -175.5q0 -13 -1.5 -25t-2.5 -17l-2 -6h-381q7 -51 45 -82.5t94 -31.5q25 0 48.5 6.5t38.5 15t26.5 17.5t16.5 15l5 7l86 -83q-3 -4 -8.5 -11t-26 -25
t-45 -32t-65.5 -25t-86 -11zM183 318h247q-7 42 -41 71.5t-78 29.5q-48 0 -83 -28.5t-45 -72.5z" />
    <glyph glyph-name="eacute" unicode="&#xe9;" horiz-adv-x="601" 
d="M256 572l66 168h154l-106 -168h-114zM312 -10q-120 0 -198.5 76t-78.5 190t80 192.5t198 78.5q108 0 182.5 -73.5t74.5 -175.5q0 -13 -1.5 -25t-2.5 -17l-2 -6h-381q7 -51 45 -82.5t94 -31.5q25 0 48.5 6.5t38.5 15t26.5 17.5t16.5 15l5 7l86 -83q-3 -4 -8.5 -11t-26 -25
t-45 -32t-65.5 -25t-86 -11zM183 318h247q-7 42 -41 71.5t-78 29.5q-48 0 -83 -28.5t-45 -72.5z" />
    <glyph glyph-name="ecircumflex" unicode="&#xea;" horiz-adv-x="601" 
d="M108 572l140 168h130l140 -168h-125l-83 82l-81 -82h-121zM312 -10q-120 0 -198.5 76t-78.5 190t80 192.5t198 78.5q108 0 182.5 -73.5t74.5 -175.5q0 -13 -1.5 -25t-2.5 -17l-2 -6h-381q7 -51 45 -82.5t94 -31.5q25 0 48.5 6.5t38.5 15t26.5 17.5t16.5 15l5 7l86 -83
q-3 -4 -8.5 -11t-26 -25t-45 -32t-65.5 -25t-86 -11zM183 318h247q-7 42 -41 71.5t-78 29.5q-48 0 -83 -28.5t-45 -72.5z" />
    <glyph glyph-name="edieresis" unicode="&#xeb;" horiz-adv-x="601" 
d="M203 582q-33 0 -54.5 21.5t-21.5 54.5t22 55t55 22t54.5 -21.5t21.5 -53.5q0 -33 -22 -55.5t-55 -22.5zM423 582q-33 0 -54.5 21.5t-21.5 54.5t22 55t55 22t54.5 -21.5t21.5 -53.5q0 -33 -22 -55.5t-55 -22.5zM312 -10q-120 0 -198.5 76t-78.5 190t80 192.5t198 78.5
q108 0 182.5 -73.5t74.5 -175.5q0 -13 -1.5 -25t-2.5 -17l-2 -6h-381q7 -51 45 -82.5t94 -31.5q25 0 48.5 6.5t38.5 15t26.5 17.5t16.5 15l5 7l86 -83q-3 -4 -8.5 -11t-26 -25t-45 -32t-65.5 -25t-86 -11zM183 318h247q-7 42 -41 71.5t-78 29.5q-48 0 -83 -28.5t-45 -72.5z
" />
    <glyph glyph-name="igrave" unicode="&#xec;" horiz-adv-x="277" 
d="M81 572l-106 168h154l66 -168h-114zM65 517h147v-517h-147v517z" />
    <glyph glyph-name="iacute" unicode="&#xed;" horiz-adv-x="277" 
d="M81 572l66 168h154l-106 -168h-114zM65 517h147v-517h-147v517z" />
    <glyph glyph-name="icircumflex" unicode="&#xee;" horiz-adv-x="277" 
d="M-67 572l140 168h130l140 -168h-125l-83 82l-81 -82h-121zM65 517h147v-517h-147v517z" />
    <glyph glyph-name="idieresis" unicode="&#xef;" horiz-adv-x="277" 
d="M28 582q-33 0 -54.5 21.5t-21.5 54.5t22 55t55 22t54.5 -21.5t21.5 -53.5q0 -33 -22 -55.5t-55 -22.5zM248 582q-33 0 -54.5 21.5t-21.5 54.5t22 55t55 22t54.5 -21.5t21.5 -53.5q0 -33 -22 -55.5t-55 -22.5zM65 517h147v-517h-147v517z" />
    <glyph glyph-name="eth" unicode="&#xf0;" horiz-adv-x="629" 
d="M526 455q68 -100 68 -199q0 -113 -84 -189.5t-198 -76.5q-118 0 -197.5 73t-79.5 190q0 103 75 174.5t177 71.5q31 0 62 -11l-54 75l-161 -35v76l113 25l-51 71h162l28 -41l160 35v-76l-115 -25zM315 123q57 0 95.5 39t38.5 94t-38.5 93.5t-95.5 38.5q-58 0 -96.5 -38.5
t-38.5 -93.5t38.5 -94t96.5 -39z" />
    <glyph glyph-name="ntilde" unicode="&#xf1;" horiz-adv-x="614" 
d="M378 575q-33 0 -58.5 18t-45.5 36t-39 18q-14 0 -23 -14.5t-11 -28.5l-2 -15l-72 8q0 6 1 15t7 33t16.5 42t32 33t50.5 15q34 0 60 -18t45.5 -36t38.5 -18q14 0 23 14.5t11 28.5l2 15l73 -8q0 -6 -1 -15t-7.5 -33t-16.5 -42t-32.5 -33t-51.5 -15zM205 0h-145v517h129
l7 -80q56 90 170 90q85 0 139.5 -56.5t54.5 -155.5v-315h-145v268q0 62 -28 93.5t-73 31.5q-48 0 -78.5 -32.5t-30.5 -97.5v-263z" />
    <glyph glyph-name="ograve" unicode="&#xf2;" horiz-adv-x="629" 
d="M257 572l-106 168h154l66 -168h-114zM35 256q0 114 81 192.5t201 78.5t198.5 -76t78.5 -190t-81 -192.5t-201 -78.5t-198.5 76t-78.5 190zM180 258q0 -57 38.5 -96t96.5 -39q57 0 95.5 39t38.5 96t-38.5 96t-95.5 39q-58 0 -96.5 -39t-38.5 -96z" />
    <glyph glyph-name="oacute" unicode="&#xf3;" horiz-adv-x="629" 
d="M257 572l66 168h154l-106 -168h-114zM35 256q0 114 81 192.5t201 78.5t198.5 -76t78.5 -190t-81 -192.5t-201 -78.5t-198.5 76t-78.5 190zM180 258q0 -57 38.5 -96t96.5 -39q57 0 95.5 39t38.5 96t-38.5 96t-95.5 39q-58 0 -96.5 -39t-38.5 -96z" />
    <glyph glyph-name="ocircumflex" unicode="&#xf4;" horiz-adv-x="629" 
d="M109 572l140 168h130l140 -168h-125l-83 82l-81 -82h-121zM35 256q0 114 81 192.5t201 78.5t198.5 -76t78.5 -190t-81 -192.5t-201 -78.5t-198.5 76t-78.5 190zM180 258q0 -57 38.5 -96t96.5 -39q57 0 95.5 39t38.5 96t-38.5 96t-95.5 39q-58 0 -96.5 -39t-38.5 -96z" />
    <glyph glyph-name="otilde" unicode="&#xf5;" horiz-adv-x="629" 
d="M385 575q-33 0 -58.5 18t-45.5 36t-39 18q-14 0 -23 -14.5t-11 -28.5l-2 -15l-72 8q0 6 1 15t7 33t16.5 42t32 33t50.5 15q34 0 60 -18t45.5 -36t38.5 -18q14 0 23 14.5t11 28.5l2 15l73 -8q0 -6 -1 -15t-7.5 -33t-16.5 -42t-32.5 -33t-51.5 -15zM35 256q0 114 81 192.5
t201 78.5t198.5 -76t78.5 -190t-81 -192.5t-201 -78.5t-198.5 76t-78.5 190zM180 258q0 -57 38.5 -96t96.5 -39q57 0 95.5 39t38.5 96t-38.5 96t-95.5 39q-58 0 -96.5 -39t-38.5 -96z" />
    <glyph glyph-name="odieresis" unicode="&#xf6;" horiz-adv-x="629" 
d="M204 582q-33 0 -54.5 21.5t-21.5 54.5t22 55t55 22t54.5 -21.5t21.5 -53.5q0 -33 -22 -55.5t-55 -22.5zM424 582q-33 0 -54.5 21.5t-21.5 54.5t22 55t55 22t54.5 -21.5t21.5 -53.5q0 -33 -22 -55.5t-55 -22.5zM35 256q0 114 81 192.5t201 78.5t198.5 -76t78.5 -190
t-81 -192.5t-201 -78.5t-198.5 76t-78.5 190zM180 258q0 -57 38.5 -96t96.5 -39q57 0 95.5 39t38.5 96t-38.5 96t-95.5 39q-58 0 -96.5 -39t-38.5 -96z" />
    <glyph glyph-name="divide" unicode="&#xf7;" 
d="M308 487q-35 0 -59.5 24.5t-24.5 59.5t24.5 59t59.5 24q34 0 58.5 -24t24.5 -59t-24 -59.5t-59 -24.5zM50 295v121h515v-121h-515zM308 57q-35 0 -59.5 24.5t-24.5 59.5t24.5 59t59.5 24q34 0 58.5 -24t24.5 -59t-24.5 -59.5t-58.5 -24.5z" />
    <glyph glyph-name="oslash" unicode="&#xf8;" horiz-adv-x="629" 
d="M518 448q76 -74 76 -187q0 -114 -81 -192.5t-201 -78.5q-78 0 -143 35l-45 -55h-94l81 99q-76 74 -76 187q0 114 81 192.5t201 78.5q78 0 143 -35l45 55h94zM169 258q0 -48 27 -86l181 219q-31 13 -62 13q-63 0 -104.5 -42t-41.5 -104zM315 112q62 0 103.5 42.5
t41.5 103.5q0 49 -27 87l-181 -219q30 -14 63 -14z" />
    <glyph glyph-name="ugrave" unicode="&#xf9;" horiz-adv-x="614" 
d="M250 572l-106 168h154l66 -168h-114zM409 517h145v-517h-129l-7 80q-56 -90 -170 -90q-85 0 -139.5 56.5t-54.5 155.5v315h145v-268q0 -62 28 -93.5t73 -31.5q48 0 78.5 32.5t30.5 97.5v263z" />
    <glyph glyph-name="uacute" unicode="&#xfa;" horiz-adv-x="614" 
d="M250 572l66 168h154l-106 -168h-114zM409 517h145v-517h-129l-7 80q-56 -90 -170 -90q-85 0 -139.5 56.5t-54.5 155.5v315h145v-268q0 -62 28 -93.5t73 -31.5q48 0 78.5 32.5t30.5 97.5v263z" />
    <glyph glyph-name="ucircumflex" unicode="&#xfb;" horiz-adv-x="614" 
d="M102 572l140 168h130l140 -168h-125l-83 82l-81 -82h-121zM409 517h145v-517h-129l-7 80q-56 -90 -170 -90q-85 0 -139.5 56.5t-54.5 155.5v315h145v-268q0 -62 28 -93.5t73 -31.5q48 0 78.5 32.5t30.5 97.5v263z" />
    <glyph glyph-name="udieresis" unicode="&#xfc;" horiz-adv-x="614" 
d="M197 582q-33 0 -54.5 21.5t-21.5 54.5t22 55t55 22t54.5 -21.5t21.5 -53.5q0 -33 -22 -55.5t-55 -22.5zM417 582q-33 0 -54.5 21.5t-21.5 54.5t22 55t55 22t54.5 -21.5t21.5 -53.5q0 -33 -22 -55.5t-55 -22.5zM409 517h145v-517h-129l-7 80q-56 -90 -170 -90
q-85 0 -139.5 56.5t-54.5 155.5v315h145v-268q0 -62 28 -93.5t73 -31.5q48 0 78.5 32.5t30.5 97.5v263z" />
    <glyph glyph-name="yacute" unicode="&#xfd;" horiz-adv-x="543" 
d="M219 572l66 168h154l-106 -168h-114zM-5 517h162l118 -342l119 342h154l-206 -522q-67 -165 -213 -165q-37 0 -70.5 8.5t-48.5 17.5l-15 8l46 113q27 -20 74 -20q59 0 83 51z" />
    <glyph glyph-name="thorn" unicode="&#xfe;" horiz-adv-x="649" 
d="M60 700h145v-247q62 74 160 74q103 0 176 -77t73 -189q0 -113 -75 -192t-179 -79q-95 0 -155 68v-218h-145v860zM200 258q0 -57 38.5 -96t95.5 -39t95.5 39t38.5 96t-38.5 96t-95.5 39t-95.5 -39t-38.5 -96z" />
    <glyph glyph-name="ydieresis" unicode="&#xff;" horiz-adv-x="543" 
d="M165 582q-33 0 -54.5 21.5t-21.5 54.5t22 55t55 22t54.5 -21.5t21.5 -53.5q0 -33 -22 -55.5t-55 -22.5zM385 582q-33 0 -54.5 21.5t-21.5 54.5t22 55t55 22t54.5 -21.5t21.5 -53.5q0 -33 -22 -55.5t-55 -22.5zM-5 517h162l118 -342l119 342h154l-206 -522
q-67 -165 -213 -165q-37 0 -70.5 8.5t-48.5 17.5l-15 8l46 113q27 -20 74 -20q59 0 83 51z" />
    <glyph glyph-name="Amacron" unicode="&#x100;" horiz-adv-x="725" 
d="M183 798v84h360v-84h-360zM2 0l284 700h153l284 -700h-169l-56 147h-279l-56 -147h-161zM261 268h194l-96 256z" />
    <glyph glyph-name="amacron" unicode="&#x101;" horiz-adv-x="571" 
d="M104 618v84h360v-84h-360zM37 147q0 70 56 116t147 46q79 0 132 -37v22q0 51 -32 79t-85 28q-35 0 -67 -10t-47 -20l-15 -10l-59 101q8 7 24.5 18t72 29t116.5 18q111 0 174.5 -62t63.5 -172v-293h-113l-12 44q-57 -54 -157 -54q-91 0 -145 44t-54 113zM183 153
q0 -30 26.5 -50.5t68.5 -20.5q45 0 72 20.5t27 50.5t-27 50.5t-72 20.5q-42 0 -68.5 -20.5t-26.5 -50.5z" />
    <glyph glyph-name="Abreve" unicode="&#x102;" horiz-adv-x="725" 
d="M363 752q-75 0 -123 45.5t-48 117.5v5h100v-13q0 -31 19.5 -50.5t52.5 -19.5t51.5 19.5t18.5 50.5v13h100v-5q0 -72 -48 -117.5t-123 -45.5zM2 0l284 700h153l284 -700h-169l-56 147h-279l-56 -147h-161zM261 268h194l-96 256z" />
    <glyph glyph-name="abreve" unicode="&#x103;" horiz-adv-x="571" 
d="M284 572q-75 0 -123 45.5t-48 117.5v5h100v-13q0 -31 19.5 -50.5t52.5 -19.5t51.5 19.5t18.5 50.5v13h100v-5q0 -72 -48 -117.5t-123 -45.5zM37 147q0 70 56 116t147 46q79 0 132 -37v22q0 51 -32 79t-85 28q-35 0 -67 -10t-47 -20l-15 -10l-59 101q8 7 24.5 18t72 29
t116.5 18q111 0 174.5 -62t63.5 -172v-293h-113l-12 44q-57 -54 -157 -54q-91 0 -145 44t-54 113zM183 153q0 -30 26.5 -50.5t68.5 -20.5q45 0 72 20.5t27 50.5t-27 50.5t-72 20.5q-42 0 -68.5 -20.5t-26.5 -50.5z" />
    <glyph glyph-name="Aogonek" unicode="&#x104;" horiz-adv-x="725" 
d="M646 -90q14 0 26.5 3t18.5 7l6 3l23 -82q-31 -26 -88 -26q-60 0 -101 35.5t-41 93.5q0 60 49 96l-41 107h-279l-56 -147h-161l284 700h153l284 -700h-117q-20 -12 -20 -41q0 -21 17 -35t43 -14zM261 268h194l-96 256z" />
    <glyph glyph-name="aogonek" unicode="&#x105;" horiz-adv-x="571" 
d="M589 -77l23 -82q-31 -26 -88 -26q-60 0 -101 35.5t-41 93.5q0 35 20 66l-9 34q-57 -54 -157 -54q-91 0 -145 44t-54 113q0 70 56 116t147 46q79 0 132 -37v22q0 51 -32 79t-85 28q-35 0 -67 -10t-47 -20l-15 -10l-59 101q8 7 24.5 18t72 29t116.5 18q111 0 174.5 -62
t63.5 -172v-293h-20q-20 -12 -20 -41q0 -21 17 -35t43 -14q14 0 26.5 3t18.5 7zM278 82q45 0 72 20.5t27 50.5t-27 50.5t-72 20.5q-42 0 -68.5 -20.5t-26.5 -50.5t26.5 -50.5t68.5 -20.5z" />
    <glyph glyph-name="Cacute" unicode="&#x106;" horiz-adv-x="713" 
d="M355 752l66 168h154l-106 -168h-114zM410 -10q-156 0 -260.5 102.5t-104.5 254.5t107 257.5t263 105.5q52 0 98.5 -12t76 -29t52 -33.5t32.5 -28.5l9 -12l-110 -95q-2 3 -6.5 7.5t-19.5 16.5t-32 21t-45 16.5t-58 7.5q-92 0 -153 -63t-61 -156t61 -156t153 -63q32 0 61 8
t48.5 19.5t34 23.5t21.5 19.5t7 8.5l104 -93q-3 -5 -10 -13.5t-32 -30.5t-54.5 -39t-78.5 -30.5t-103 -13.5z" />
    <glyph glyph-name="cacute" unicode="&#x107;" horiz-adv-x="538" 
d="M260 572l66 168h154l-106 -168h-114zM312 -10q-120 0 -198.5 76t-78.5 190t81 192.5t201 78.5q38 0 72.5 -9t56.5 -21.5t39.5 -25t24.5 -21.5l8 -9l-98 -95q-4 5 -12.5 13t-35.5 21t-57 13q-58 0 -96.5 -39t-38.5 -96t38.5 -96t96.5 -39q32 0 59.5 13t38.5 26l11 13
l97 -91q-3 -4 -8.5 -10t-25 -22.5t-42 -29t-58.5 -22.5t-75 -10z" />
    <glyph glyph-name="Ccircumflex" unicode="&#x108;" horiz-adv-x="713" 
d="M207 752l140 168h130l140 -168h-125l-83 82l-81 -82h-121zM410 -10q-156 0 -260.5 102.5t-104.5 254.5t107 257.5t263 105.5q52 0 98.5 -12t76 -29t52 -33.5t32.5 -28.5l9 -12l-110 -95q-2 3 -6.5 7.5t-19.5 16.5t-32 21t-45 16.5t-58 7.5q-92 0 -153 -63t-61 -156
t61 -156t153 -63q32 0 61 8t48.5 19.5t34 23.5t21.5 19.5t7 8.5l104 -93q-3 -5 -10 -13.5t-32 -30.5t-54.5 -39t-78.5 -30.5t-103 -13.5z" />
    <glyph glyph-name="ccircumflex" unicode="&#x109;" horiz-adv-x="538" 
d="M112 572l140 168h130l140 -168h-125l-83 82l-81 -82h-121zM312 -10q-120 0 -198.5 76t-78.5 190t81 192.5t201 78.5q38 0 72.5 -9t56.5 -21.5t39.5 -25t24.5 -21.5l8 -9l-98 -95q-4 5 -12.5 13t-35.5 21t-57 13q-58 0 -96.5 -39t-38.5 -96t38.5 -96t96.5 -39
q32 0 59.5 13t38.5 26l11 13l97 -91q-3 -4 -8.5 -10t-25 -22.5t-42 -29t-58.5 -22.5t-75 -10z" />
    <glyph glyph-name="Cdotaccent" unicode="&#x10a;" horiz-adv-x="713" 
d="M412 762q-33 0 -54.5 21.5t-21.5 54.5t22 55t55 22t54.5 -21.5t21.5 -53.5q0 -33 -22 -55.5t-55 -22.5zM410 -10q-156 0 -260.5 102.5t-104.5 254.5t107 257.5t263 105.5q52 0 98.5 -12t76 -29t52 -33.5t32.5 -28.5l9 -12l-110 -95q-2 3 -6.5 7.5t-19.5 16.5t-32 21
t-45 16.5t-58 7.5q-92 0 -153 -63t-61 -156t61 -156t153 -63q32 0 61 8t48.5 19.5t34 23.5t21.5 19.5t7 8.5l104 -93q-3 -5 -10 -13.5t-32 -30.5t-54.5 -39t-78.5 -30.5t-103 -13.5z" />
    <glyph glyph-name="cdotaccent" unicode="&#x10b;" horiz-adv-x="538" 
d="M317 582q-33 0 -54.5 21.5t-21.5 54.5t22 55t55 22t54.5 -21.5t21.5 -53.5q0 -33 -22 -55.5t-55 -22.5zM312 -10q-120 0 -198.5 76t-78.5 190t81 192.5t201 78.5q38 0 72.5 -9t56.5 -21.5t39.5 -25t24.5 -21.5l8 -9l-98 -95q-4 5 -12.5 13t-35.5 21t-57 13
q-58 0 -96.5 -39t-38.5 -96t38.5 -96t96.5 -39q32 0 59.5 13t38.5 26l11 13l97 -91q-3 -4 -8.5 -10t-25 -22.5t-42 -29t-58.5 -22.5t-75 -10z" />
    <glyph glyph-name="Ccaron" unicode="&#x10c;" horiz-adv-x="713" 
d="M347 752l-140 168h126l82 -83l82 83h120l-140 -168h-130zM410 -10q-156 0 -260.5 102.5t-104.5 254.5t107 257.5t263 105.5q52 0 98.5 -12t76 -29t52 -33.5t32.5 -28.5l9 -12l-110 -95q-2 3 -6.5 7.5t-19.5 16.5t-32 21t-45 16.5t-58 7.5q-92 0 -153 -63t-61 -156
t61 -156t153 -63q32 0 61 8t48.5 19.5t34 23.5t21.5 19.5t7 8.5l104 -93q-3 -5 -10 -13.5t-32 -30.5t-54.5 -39t-78.5 -30.5t-103 -13.5z" />
    <glyph glyph-name="ccaron" unicode="&#x10d;" horiz-adv-x="538" 
d="M252 572l-140 168h126l82 -83l82 83h120l-140 -168h-130zM312 -10q-120 0 -198.5 76t-78.5 190t81 192.5t201 78.5q38 0 72.5 -9t56.5 -21.5t39.5 -25t24.5 -21.5l8 -9l-98 -95q-4 5 -12.5 13t-35.5 21t-57 13q-58 0 -96.5 -39t-38.5 -96t38.5 -96t96.5 -39q32 0 59.5 13
t38.5 26l11 13l97 -91q-3 -4 -8.5 -10t-25 -22.5t-42 -29t-58.5 -22.5t-75 -10z" />
    <glyph glyph-name="Dcaron" unicode="&#x10e;" horiz-adv-x="760" 
d="M315 752l-140 168h126l82 -83l82 83h120l-140 -168h-130zM80 0v700h250q168 0 276.5 -98.5t108.5 -248.5t-111 -251.5t-279 -101.5h-245zM233 133h100q100 0 164.5 61.5t64.5 155.5t-64.5 155.5t-164.5 61.5h-100v-434z" />
    <glyph glyph-name="dcaron" unicode="&#x10f;" horiz-adv-x="828" 
d="M284 -10q-103 0 -176 77t-73 189q0 113 75 192t179 79q96 0 154 -69v242h146v-700h-121l-13 77q-63 -87 -171 -87zM649 442l32 258h147l-74 -258h-105zM314 123q57 0 95.5 39t38.5 96t-38.5 96t-95.5 39t-95.5 -39t-38.5 -96t38.5 -96t95.5 -39z" />
    <glyph glyph-name="Dcroat" unicode="&#x110;" horiz-adv-x="798" 
d="M368 700q168 0 276.5 -98.5t108.5 -248.5t-111 -251.5t-279 -101.5h-246v315h-87v84h87v301h251zM370 133q100 0 165 61.5t65 155.5t-65 155.5t-165 61.5h-100v-168h170v-84h-170v-182h100z" />
    <glyph glyph-name="dcroat" unicode="&#x111;" horiz-adv-x="681" 
d="M661 651v-83h-72v-568h-121l-13 77q-63 -87 -171 -87q-103 0 -176 77t-73 189q0 113 75 192t179 79q96 0 154 -69v110h-128v83h128v49h146v-49h72zM314 123q57 0 95.5 39t38.5 96t-38.5 96t-95.5 39t-95.5 -39t-38.5 -96t38.5 -96t95.5 -39z" />
    <glyph glyph-name="Emacron" unicode="&#x112;" horiz-adv-x="650" 
d="M157 798v84h360v-84h-360zM80 0v700h515v-133h-362v-145h312v-124h-312v-165h372v-133h-525z" />
    <glyph glyph-name="emacron" unicode="&#x113;" horiz-adv-x="601" 
d="M133 618v84h360v-84h-360zM312 -10q-120 0 -198.5 76t-78.5 190t80 192.5t198 78.5q108 0 182.5 -73.5t74.5 -175.5q0 -13 -1.5 -25t-2.5 -17l-2 -6h-381q7 -51 45 -82.5t94 -31.5q25 0 48.5 6.5t38.5 15t26.5 17.5t16.5 15l5 7l86 -83q-3 -4 -8.5 -11t-26 -25t-45 -32
t-65.5 -25t-86 -11zM183 318h247q-7 42 -41 71.5t-78 29.5q-48 0 -83 -28.5t-45 -72.5z" />
    <glyph glyph-name="Ebreve" unicode="&#x114;" horiz-adv-x="650" 
d="M337 752q-75 0 -123 45.5t-48 117.5v5h100v-13q0 -31 19.5 -50.5t52.5 -19.5t51.5 19.5t18.5 50.5v13h100v-5q0 -72 -48 -117.5t-123 -45.5zM80 0v700h515v-133h-362v-145h312v-124h-312v-165h372v-133h-525z" />
    <glyph glyph-name="ebreve" unicode="&#x115;" horiz-adv-x="601" 
d="M313 572q-75 0 -123 45.5t-48 117.5v5h100v-13q0 -31 19.5 -50.5t52.5 -19.5t51.5 19.5t18.5 50.5v13h100v-5q0 -72 -48 -117.5t-123 -45.5zM312 -10q-120 0 -198.5 76t-78.5 190t80 192.5t198 78.5q108 0 182.5 -73.5t74.5 -175.5q0 -13 -1.5 -25t-2.5 -17l-2 -6h-381
q7 -51 45 -82.5t94 -31.5q25 0 48.5 6.5t38.5 15t26.5 17.5t16.5 15l5 7l86 -83q-3 -4 -8.5 -11t-26 -25t-45 -32t-65.5 -25t-86 -11zM183 318h247q-7 42 -41 71.5t-78 29.5q-48 0 -83 -28.5t-45 -72.5z" />
    <glyph glyph-name="Edotaccent" unicode="&#x116;" horiz-adv-x="650" 
d="M337 762q-33 0 -54.5 21.5t-21.5 54.5t22 55t55 22t54.5 -21.5t21.5 -53.5q0 -33 -22 -55.5t-55 -22.5zM80 0v700h515v-133h-362v-145h312v-124h-312v-165h372v-133h-525z" />
    <glyph glyph-name="edotaccent" unicode="&#x117;" horiz-adv-x="601" 
d="M313 582q-33 0 -54.5 21.5t-21.5 54.5t22 55t55 22t54.5 -21.5t21.5 -53.5q0 -33 -22 -55.5t-55 -22.5zM312 -10q-120 0 -198.5 76t-78.5 190t80 192.5t198 78.5q108 0 182.5 -73.5t74.5 -175.5q0 -13 -1.5 -25t-2.5 -17l-2 -6h-381q7 -51 45 -82.5t94 -31.5
q25 0 48.5 6.5t38.5 15t26.5 17.5t16.5 15l5 7l86 -83q-3 -4 -8.5 -11t-26 -25t-45 -32t-65.5 -25t-86 -11zM183 318h247q-7 42 -41 71.5t-78 29.5q-48 0 -83 -28.5t-45 -72.5z" />
    <glyph glyph-name="Eogonek" unicode="&#x118;" horiz-adv-x="650" 
d="M599 -77l23 -82q-31 -26 -88 -26q-60 0 -101 35.5t-41 93.5q0 30 14 56h-326v700h515v-133h-362v-145h312v-124h-312v-165h372v-133h-97q-20 -12 -20 -41q0 -21 17 -35t43 -14q14 0 26.5 3t18.5 7z" />
    <glyph glyph-name="eogonek" unicode="&#x119;" horiz-adv-x="601" 
d="M570 278q0 -13 -1.5 -25t-2.5 -17l-2 -6h-381q7 -51 45 -82.5t94 -31.5q25 0 48.5 6.5t38.5 15t26.5 17.5t16.5 15l5 7l86 -83q-2 -3 -5.5 -7.5t-17.5 -18t-29.5 -25t-42.5 -24.5t-56 -20q-19 -14 -19 -40q0 -21 17 -35t43 -14q14 0 26.5 3t18.5 7l6 3l23 -82
q-31 -26 -88 -26q-60 0 -101 35.5t-41 93.5q0 25 10 47q-110 8 -181 83t-71 182q0 114 80 192.5t198 78.5q108 0 182.5 -73.5t74.5 -175.5zM183 318h247q-7 42 -41 71.5t-78 29.5q-48 0 -83 -28.5t-45 -72.5z" />
    <glyph glyph-name="Ecaron" unicode="&#x11a;" horiz-adv-x="650" 
d="M272 752l-140 168h126l82 -83l82 83h120l-140 -168h-130zM80 0v700h515v-133h-362v-145h312v-124h-312v-165h372v-133h-525z" />
    <glyph glyph-name="ecaron" unicode="&#x11b;" horiz-adv-x="601" 
d="M248 572l-140 168h126l82 -83l82 83h120l-140 -168h-130zM312 -10q-120 0 -198.5 76t-78.5 190t80 192.5t198 78.5q108 0 182.5 -73.5t74.5 -175.5q0 -13 -1.5 -25t-2.5 -17l-2 -6h-381q7 -51 45 -82.5t94 -31.5q25 0 48.5 6.5t38.5 15t26.5 17.5t16.5 15l5 7l86 -83
q-3 -4 -8.5 -11t-26 -25t-45 -32t-65.5 -25t-86 -11zM183 318h247q-7 42 -41 71.5t-78 29.5q-48 0 -83 -28.5t-45 -72.5z" />
    <glyph glyph-name="Gcircumflex" unicode="&#x11c;" horiz-adv-x="800" 
d="M205 752l140 168h130l140 -168h-125l-83 82l-81 -82h-121zM410 -10q-156 0 -260.5 102.5t-104.5 254.5t107 257.5t263 105.5q52 0 98.5 -11t76.5 -27t52 -32.5t32 -27.5l10 -11l-107 -107q-2 3 -6.5 8t-19.5 18t-33 23t-46.5 18t-59.5 8q-92 0 -153 -63t-61 -158t61 -158
t153 -63q73 0 123 38.5t63 104.5h-193v110h348q3 -20 3 -39q-1 -150 -97.5 -250.5t-248.5 -100.5z" />
    <glyph glyph-name="gcircumflex" unicode="&#x11d;" horiz-adv-x="649" 
d="M120 572l140 168h130l140 -168h-125l-83 82l-81 -82h-121zM93 13q9 -7 26 -17t67 -27t98 -17q75 0 117 37.5t42 107.5v11q-56 -63 -155 -63q-107 0 -180 69.5t-73 168.5q0 104 72.5 174t185.5 70q100 0 165 -72l10 62h121v-388q0 -137 -77 -218t-216 -81
q-71 0 -135.5 19.5t-92.5 38.5l-29 20zM448 282q0 51 -38.5 86.5t-95.5 35.5t-95.5 -35.5t-38.5 -86.5t38.5 -86.5t95.5 -35.5t95.5 35.5t38.5 86.5z" />
    <glyph glyph-name="Gbreve" unicode="&#x11e;" horiz-adv-x="800" 
d="M410 752q-75 0 -123 45.5t-48 117.5v5h100v-13q0 -31 19.5 -50.5t52.5 -19.5t51.5 19.5t18.5 50.5v13h100v-5q0 -72 -48 -117.5t-123 -45.5zM410 -10q-156 0 -260.5 102.5t-104.5 254.5t107 257.5t263 105.5q52 0 98.5 -11t76.5 -27t52 -32.5t32 -27.5l10 -11l-107 -107
q-2 3 -6.5 8t-19.5 18t-33 23t-46.5 18t-59.5 8q-92 0 -153 -63t-61 -158t61 -158t153 -63q73 0 123 38.5t63 104.5h-193v110h348q3 -20 3 -39q-1 -150 -97.5 -250.5t-248.5 -100.5z" />
    <glyph glyph-name="gbreve" unicode="&#x11f;" horiz-adv-x="649" 
d="M325 572q-75 0 -123 45.5t-48 117.5v5h100v-13q0 -31 19.5 -50.5t52.5 -19.5t51.5 19.5t18.5 50.5v13h100v-5q0 -72 -48 -117.5t-123 -45.5zM93 13q9 -7 26 -17t67 -27t98 -17q75 0 117 37.5t42 107.5v11q-56 -63 -155 -63q-107 0 -180 69.5t-73 168.5q0 104 72.5 174
t185.5 70q100 0 165 -72l10 62h121v-388q0 -137 -77 -218t-216 -81q-71 0 -135.5 19.5t-92.5 38.5l-29 20zM448 282q0 51 -38.5 86.5t-95.5 35.5t-95.5 -35.5t-38.5 -86.5t38.5 -86.5t95.5 -35.5t95.5 35.5t38.5 86.5z" />
    <glyph glyph-name="Gdotaccent" unicode="&#x120;" horiz-adv-x="800" 
d="M410 762q-33 0 -54.5 21.5t-21.5 54.5t22 55t55 22t54.5 -21.5t21.5 -53.5q0 -33 -22 -55.5t-55 -22.5zM410 -10q-156 0 -260.5 102.5t-104.5 254.5t107 257.5t263 105.5q52 0 98.5 -11t76.5 -27t52 -32.5t32 -27.5l10 -11l-107 -107q-2 3 -6.5 8t-19.5 18t-33 23
t-46.5 18t-59.5 8q-92 0 -153 -63t-61 -158t61 -158t153 -63q73 0 123 38.5t63 104.5h-193v110h348q3 -20 3 -39q-1 -150 -97.5 -250.5t-248.5 -100.5z" />
    <glyph glyph-name="gdotaccent" unicode="&#x121;" horiz-adv-x="649" 
d="M324 582q-33 0 -54.5 21.5t-21.5 54.5t22 55t55 22t54.5 -21.5t21.5 -53.5q0 -33 -22 -55.5t-55 -22.5zM93 13q9 -7 26 -17t67 -27t98 -17q75 0 117 37.5t42 107.5v11q-56 -63 -155 -63q-107 0 -180 69.5t-73 168.5q0 104 72.5 174t185.5 70q100 0 165 -72l10 62h121
v-388q0 -137 -77 -218t-216 -81q-71 0 -135.5 19.5t-92.5 38.5l-29 20zM448 282q0 51 -38.5 86.5t-95.5 35.5t-95.5 -35.5t-38.5 -86.5t38.5 -86.5t95.5 -35.5t95.5 35.5t38.5 86.5z" />
    <glyph glyph-name="uni0122" unicode="&#x122;" horiz-adv-x="800" 
d="M410 -10q-156 0 -260.5 102.5t-104.5 254.5t107 257.5t263 105.5q52 0 98.5 -11t76.5 -27t52 -32.5t32 -27.5l10 -11l-107 -107q-2 3 -6.5 8t-19.5 18t-33 23t-46.5 18t-59.5 8q-92 0 -153 -63t-61 -158t61 -158t153 -63q73 0 123 38.5t63 104.5h-193v110h348
q3 -20 3 -39q-1 -150 -97.5 -250.5t-248.5 -100.5zM267 -218l66 168h154l-106 -168h-114z" />
    <glyph glyph-name="uni0123" unicode="&#x123;" horiz-adv-x="649" 
d="M468 734l-66 -167h-154l106 167h114zM93 13q9 -7 26 -17t67 -27t98 -17q75 0 117 37.5t42 107.5v11q-56 -63 -155 -63q-107 0 -180 69.5t-73 168.5q0 104 72.5 174t185.5 70q100 0 165 -72l10 62h121v-388q0 -137 -77 -218t-216 -81q-71 0 -135.5 19.5t-92.5 38.5l-29 20
zM448 282q0 51 -38.5 86.5t-95.5 35.5t-95.5 -35.5t-38.5 -86.5t38.5 -86.5t95.5 -35.5t95.5 35.5t38.5 86.5z" />
    <glyph glyph-name="Hcircumflex" unicode="&#x124;" horiz-adv-x="770" 
d="M180 752l140 168h130l140 -168h-125l-83 82l-81 -82h-121zM80 0v700h153v-269h304v269h153v-700h-153v295h-304v-295h-153z" />
    <glyph glyph-name="hcircumflex" unicode="&#x125;" horiz-adv-x="614" 
d="M102 752l140 168h130l140 -168h-125l-83 82l-81 -82h-121zM60 0v700h145v-255q56 82 161 82q83 0 138.5 -56.5t55.5 -155.5v-315h-145v268q0 62 -28 93.5t-73 31.5q-48 0 -78.5 -31t-30.5 -92v-270h-145z" />
    <glyph glyph-name="Hbar" unicode="&#x126;" horiz-adv-x="845" 
d="M815 605v-84h-87v-521h-153v295h-305v-295h-153v521h-87v84h87v95h153v-95h305v95h153v-95h87zM575 431v90h-305v-90h305z" />
    <glyph glyph-name="hbar" unicode="&#x127;" horiz-adv-x="646" 
d="M398 527q84 0 139.5 -56.5t55.5 -155.5v-315h-146v268q0 62 -27.5 93.5t-72.5 31.5q-48 0 -78.5 -31t-30.5 -92v-270h-146v568h-72v83h72v49h146v-49h128v-83h-128v-123q56 82 160 82z" />
    <glyph glyph-name="Itilde" unicode="&#x128;" horiz-adv-x="327" 
d="M235 755q-33 0 -58.5 18t-45.5 36t-39 18q-14 0 -23 -14.5t-11 -28.5l-2 -15l-72 8q0 6 1 15t7 33t16.5 42t32 33t50.5 15q34 0 60 -18t45.5 -36t38.5 -18q14 0 23 14.5t11 28.5l2 15l73 -8q0 -6 -1 -15t-7.5 -33t-16.5 -42t-32.5 -33t-51.5 -15zM85 700h157v-700h-157
v700z" />
    <glyph glyph-name="itilde" unicode="&#x129;" horiz-adv-x="277" 
d="M209 575q-33 0 -58.5 18t-45.5 36t-39 18q-14 0 -23 -14.5t-11 -28.5l-2 -15l-72 8q0 6 1 15t7 33t16.5 42t32 33t50.5 15q34 0 60 -18t45.5 -36t38.5 -18q14 0 23 14.5t11 28.5l2 15l73 -8q0 -6 -1 -15t-7.5 -33t-16.5 -42t-32.5 -33t-51.5 -15zM65 517h147v-517h-147
v517z" />
    <glyph glyph-name="Imacron" unicode="&#x12a;" horiz-adv-x="327" 
d="M-16 798v84h360v-84h-360zM85 700h157v-700h-157v700z" />
    <glyph glyph-name="imacron" unicode="&#x12b;" horiz-adv-x="277" 
d="M-41 618v84h360v-84h-360zM65 517h147v-517h-147v517z" />
    <glyph glyph-name="Ibreve" unicode="&#x12c;" horiz-adv-x="327" 
d="M164 752q-75 0 -123 45.5t-48 117.5v5h100v-13q0 -31 19.5 -50.5t52.5 -19.5t51.5 19.5t18.5 50.5v13h100v-5q0 -72 -48 -117.5t-123 -45.5zM85 700h157v-700h-157v700z" />
    <glyph glyph-name="ibreve" unicode="&#x12d;" horiz-adv-x="277" 
d="M139 572q-75 0 -123 45.5t-48 117.5v5h100v-13q0 -31 19.5 -50.5t52.5 -19.5t51.5 19.5t18.5 50.5v13h100v-5q0 -72 -48 -117.5t-123 -45.5zM65 517h147v-517h-147v517z" />
    <glyph glyph-name="Iogonek" unicode="&#x12e;" horiz-adv-x="327" 
d="M262 -77l23 -82q-31 -26 -88 -26q-60 0 -101 35.5t-41 93.5q0 45 30 79v677h157v-700h-71q-20 -12 -20 -41q0 -21 17 -35t43 -14q14 0 26.5 3t18.5 7z" />
    <glyph glyph-name="iogonek" unicode="&#x12f;" horiz-adv-x="277" 
d="M139 575q-40 0 -66 23.5t-26 60.5q0 36 26 60t66 24t65.5 -24t25.5 -60q0 -37 -25.5 -60.5t-65.5 -23.5zM242 -77l23 -82q-31 -26 -88 -26q-60 0 -101 35.5t-41 93.5q0 45 30 79v494h147v-517h-61q-20 -12 -20 -41q0 -21 17 -35t43 -14q14 0 26.5 3t18.5 7z" />
    <glyph glyph-name="Idotaccent" unicode="&#x130;" horiz-adv-x="327" 
d="M163 762q-33 0 -54.5 21.5t-21.5 54.5t22 55t55 22t54.5 -21.5t21.5 -53.5q0 -33 -22 -55.5t-55 -22.5zM85 700h157v-700h-157v700z" />
    <glyph glyph-name="dotlessi" unicode="&#x131;" horiz-adv-x="277" 
d="M65 517h147v-517h-147v517z" />
    <glyph glyph-name="IJ" unicode="&#x132;" horiz-adv-x="821" 
d="M85 700h157v-700h-157v700zM487 -10q-44 0 -81 8t-52 16l-15 7l42 134q34 -20 94 -20q53 0 86 36t33 99v430h157v-439q0 -123 -73.5 -197t-190.5 -74z" />
    <glyph glyph-name="ij" unicode="&#x133;" horiz-adv-x="554" 
d="M47 659q0 36 26 60t66 24t65.5 -24t25.5 -60q0 -37 -25.5 -60.5t-65.5 -23.5t-66 23.5t-26 60.5zM324 659q0 36 26 60t66 24t65.5 -24t25.5 -60q0 -37 -25.5 -60.5t-65.5 -23.5t-66 23.5t-26 60.5zM65 517h147v-517h-147v517zM489 517v-474q0 -104 -50.5 -158.5
t-143.5 -54.5q-18 0 -38 3t-31 5l-10 3l18 120q19 -5 41 -5q67 0 67 74v487h147z" />
    <glyph glyph-name="Jcircumflex" unicode="&#x134;" horiz-adv-x="494" 
d="M141 752l140 168h130l140 -168h-125l-83 82l-81 -82h-121zM160 -10q-44 0 -81 8t-52 16l-15 7l42 134q34 -20 94 -20q53 0 86 36t33 99v430h157v-439q0 -123 -74 -197t-190 -74z" />
    <glyph glyph-name="jcircumflex" unicode="&#x135;" horiz-adv-x="277" 
d="M-67 572l140 168h131l140 -168h-126l-82 82l-82 -82h-121zM212 517v-474q0 -104 -50.5 -158.5t-143.5 -54.5q-18 0 -38 3t-30 5l-11 3l18 120q19 -5 41 -5q67 0 67 74v487h147z" />
    <glyph glyph-name="uni0136" unicode="&#x136;" horiz-adv-x="712" 
d="M80 0v700h153v-313l271 313h195l-307 -332l327 -368h-195l-291 333v-333h-153zM237 -218l66 168h154l-106 -168h-114z" />
    <glyph glyph-name="uni0137" unicode="&#x137;" horiz-adv-x="593" 
d="M60 0v700h145v-403l194 220h181l-227 -235l247 -282h-184l-211 252v-252h-145zM170 -218l66 168h154l-106 -168h-114z" />
    <glyph glyph-name="Lacute" unicode="&#x139;" horiz-adv-x="590" 
d="M99 752l66 168h154l-106 -168h-114zM80 0v700h153v-563h342v-137h-495z" />
    <glyph glyph-name="lacute" unicode="&#x13a;" horiz-adv-x="277" 
d="M81 752l66 168h154l-106 -168h-114zM65 700h147v-700h-147v700z" />
    <glyph glyph-name="uni013B" unicode="&#x13b;" horiz-adv-x="590" 
d="M80 0v700h153v-563h342v-137h-495zM184 -218l66 168h154l-106 -168h-114z" />
    <glyph glyph-name="uni013C" unicode="&#x13c;" horiz-adv-x="277" 
d="M65 700h147v-700h-147v700zM-5 -218l66 168h154l-106 -168h-114z" />
    <glyph glyph-name="Lcaron" unicode="&#x13d;" horiz-adv-x="590" 
d="M80 0v700h153v-563h342v-137h-495zM362 442l32 258h147l-74 -258h-105z" />
    <glyph glyph-name="lcaron" unicode="&#x13e;" horiz-adv-x="451" 
d="M65 700h147v-700h-147v700zM272 442l33 258h146l-73 -258h-106z" />
    <glyph glyph-name="Ldot" unicode="&#x13f;" horiz-adv-x="590" 
d="M80 0v700h153v-563h342v-137h-495zM423 259q-38 0 -65 26.5t-27 64.5t27 65t65 27t64.5 -27t26.5 -65t-26.5 -64.5t-64.5 -26.5z" />
    <glyph glyph-name="ldot" unicode="&#x140;" horiz-adv-x="480" 
d="M65 700h147v-700h-147v700zM366 259q-38 0 -64.5 26.5t-26.5 64.5t26.5 65t64.5 27t65 -27t27 -65t-27 -64.5t-65 -26.5z" />
    <glyph glyph-name="Lslash" unicode="&#x141;" horiz-adv-x="628" 
d="M270 137h343v-137h-496v309l-87 -13v84l87 13v307h153v-283l238 37v-84l-238 -37v-196z" />
    <glyph glyph-name="lslash" unicode="&#x142;" horiz-adv-x="370" 
d="M340 449v-84l-86 -18v-347h-148v315l-76 -16v84l76 16v301h148v-269z" />
    <glyph glyph-name="Nacute" unicode="&#x143;" horiz-adv-x="790" 
d="M338 752l66 168h154l-106 -168h-114zM229 471v-471h-149v700h158l323 -459v459h149v-700h-149z" />
    <glyph glyph-name="nacute" unicode="&#x144;" horiz-adv-x="614" 
d="M250 572l66 168h154l-106 -168h-114zM205 0h-145v517h129l7 -80q56 90 170 90q85 0 139.5 -56.5t54.5 -155.5v-315h-145v268q0 62 -28 93.5t-73 31.5q-48 0 -78.5 -32.5t-30.5 -97.5v-263z" />
    <glyph glyph-name="uni0145" unicode="&#x145;" horiz-adv-x="790" 
d="M229 471v-471h-149v700h158l323 -459v459h149v-700h-149zM252 -218l66 168h154l-106 -168h-114z" />
    <glyph glyph-name="uni0146" unicode="&#x146;" horiz-adv-x="614" 
d="M205 0h-145v517h129l7 -80q56 90 170 90q85 0 139.5 -56.5t54.5 -155.5v-315h-145v268q0 62 -28 93.5t-73 31.5q-48 0 -78.5 -32.5t-30.5 -97.5v-263zM164 -218l66 168h154l-106 -168h-114z" />
    <glyph glyph-name="Ncaron" unicode="&#x147;" horiz-adv-x="790" 
d="M330 752l-140 168h126l82 -83l82 83h120l-140 -168h-130zM229 471v-471h-149v700h158l323 -459v459h149v-700h-149z" />
    <glyph glyph-name="ncaron" unicode="&#x148;" horiz-adv-x="614" 
d="M242 572l-140 168h126l82 -83l82 83h120l-140 -168h-130zM205 0h-145v517h129l7 -80q56 90 170 90q85 0 139.5 -56.5t54.5 -155.5v-315h-145v268q0 62 -28 93.5t-73 31.5q-48 0 -78.5 -32.5t-30.5 -97.5v-263z" />
    <glyph glyph-name="Eng" unicode="&#x14a;" horiz-adv-x="790" 
d="M561 241v459h149v-656q0 -101 -55 -157.5t-148 -56.5q-32 0 -58.5 5.5t-36.5 10.5l-10 6l30 111q25 -11 58 -11q58 0 71 48l-332 471v-471h-149v700h158z" />
    <glyph glyph-name="eng" unicode="&#x14b;" horiz-adv-x="614" 
d="M364 -170q-17 0 -33 2.5t-23 5.5l-8 2l14 121q14 -5 34 -5q67 0 67 74v238q0 62 -28 93.5t-73 31.5q-48 0 -78.5 -32.5t-30.5 -97.5v-263h-145v517h129l7 -80q56 90 170 90q85 0 139.5 -56.5t54.5 -155.5v-272q0 -105 -51 -159t-145 -54z" />
    <glyph glyph-name="Omacron" unicode="&#x14c;" horiz-adv-x="825" 
d="M232 798v84h360v-84h-360zM45 347q0 152 107 257.5t263 105.5t260.5 -102.5t104.5 -254.5t-107 -257.5t-263 -105.5t-260.5 102.5t-104.5 254.5zM198 350q0 -93 61 -156t153 -63q93 0 154 63t61 156t-61 156t-154 63q-92 0 -153 -63t-61 -156z" />
    <glyph glyph-name="omacron" unicode="&#x14d;" horiz-adv-x="629" 
d="M135 618v84h360v-84h-360zM35 256q0 114 81 192.5t201 78.5t198.5 -76t78.5 -190t-81 -192.5t-201 -78.5t-198.5 76t-78.5 190zM180 258q0 -57 38.5 -96t96.5 -39q57 0 95.5 39t38.5 96t-38.5 96t-95.5 39q-58 0 -96.5 -39t-38.5 -96z" />
    <glyph glyph-name="Obreve" unicode="&#x14e;" horiz-adv-x="825" 
d="M412 752q-75 0 -123 45.5t-48 117.5v5h100v-13q0 -31 19.5 -50.5t52.5 -19.5t51.5 19.5t18.5 50.5v13h100v-5q0 -72 -48 -117.5t-123 -45.5zM45 347q0 152 107 257.5t263 105.5t260.5 -102.5t104.5 -254.5t-107 -257.5t-263 -105.5t-260.5 102.5t-104.5 254.5zM198 350
q0 -93 61 -156t153 -63q93 0 154 63t61 156t-61 156t-154 63q-92 0 -153 -63t-61 -156z" />
    <glyph glyph-name="obreve" unicode="&#x14f;" horiz-adv-x="629" 
d="M314 572q-75 0 -123 45.5t-48 117.5v5h100v-13q0 -31 19.5 -50.5t52.5 -19.5t51.5 19.5t18.5 50.5v13h100v-5q0 -72 -48 -117.5t-123 -45.5zM35 256q0 114 81 192.5t201 78.5t198.5 -76t78.5 -190t-81 -192.5t-201 -78.5t-198.5 76t-78.5 190zM180 258q0 -57 38.5 -96
t96.5 -39q57 0 95.5 39t38.5 96t-38.5 96t-95.5 39q-58 0 -96.5 -39t-38.5 -96z" />
    <glyph glyph-name="Ohungarumlaut" unicode="&#x150;" horiz-adv-x="825" 
d="M251 752l54 168h150l-94 -168h-110zM462 752l54 168h151l-94 -168h-111zM45 347q0 152 107 257.5t263 105.5t260.5 -102.5t104.5 -254.5t-107 -257.5t-263 -105.5t-260.5 102.5t-104.5 254.5zM198 350q0 -93 61 -156t153 -63q93 0 154 63t61 156t-61 156t-154 63
q-92 0 -153 -63t-61 -156z" />
    <glyph glyph-name="ohungarumlaut" unicode="&#x151;" horiz-adv-x="629" 
d="M154 572l54 168h150l-94 -168h-110zM365 572l54 168h151l-94 -168h-111zM35 256q0 114 81 192.5t201 78.5t198.5 -76t78.5 -190t-81 -192.5t-201 -78.5t-198.5 76t-78.5 190zM180 258q0 -57 38.5 -96t96.5 -39q57 0 95.5 39t38.5 96t-38.5 96t-95.5 39q-58 0 -96.5 -39
t-38.5 -96z" />
    <glyph glyph-name="OE" unicode="&#x152;" horiz-adv-x="1077" 
d="M430 0q-168 0 -276.5 98.5t-108.5 248.5t111 251.5t279 101.5h587v-133h-362v-145h312v-124h-312v-165h372v-133h-602zM427 133h80v434h-80q-100 0 -164.5 -61.5t-64.5 -155.5t64.5 -155.5t164.5 -61.5z" />
    <glyph glyph-name="oe" unicode="&#x153;" horiz-adv-x="1011" 
d="M312 -10q-120 0 -198.5 76t-78.5 190t81 192.5t201 78.5q64 0 117.5 -28.5t87.5 -77.5q34 49 86.5 77.5t114.5 28.5q108 0 182.5 -73t74.5 -176q0 -13 -2 -25t-4 -17l-1 -6h-376q7 -51 44 -82.5t91 -31.5q25 0 48.5 6.5t38.5 15t26.5 17.5t16.5 15l5 7l86 -83
q-3 -4 -8.5 -11t-26 -25t-45 -32t-65.5 -25t-86 -11q-64 0 -117 28t-87 78q-34 -49 -88 -77.5t-118 -28.5zM596 318h244q-7 42 -41 71.5t-78 29.5q-47 0 -81.5 -28.5t-43.5 -72.5zM315 123q57 0 95.5 39t38.5 96t-38.5 96t-95.5 39q-58 0 -96.5 -39t-38.5 -96t38.5 -96
t96.5 -39z" />
    <glyph glyph-name="Racute" unicode="&#x154;" horiz-adv-x="698" 
d="M292 752l66 168h154l-106 -168h-114zM80 700h313q112 0 182 -63t70 -164q0 -74 -39.5 -130t-107.5 -81l177 -262h-178l-157 241h-107v-241h-153v700zM233 571v-212h141q55 0 86.5 29.5t31.5 76.5t-31.5 76.5t-86.5 29.5h-141z" />
    <glyph glyph-name="racute" unicode="&#x155;" horiz-adv-x="414" 
d="M165 572l66 168h154l-106 -168h-114zM60 0v517h129l8 -101q55 111 192 111l-2 -149h-30q-152 0 -152 -165v-213h-145z" />
    <glyph glyph-name="uni0156" unicode="&#x156;" horiz-adv-x="698" 
d="M80 700h313q112 0 182 -63t70 -164q0 -74 -39.5 -130t-107.5 -81l177 -262h-178l-157 241h-107v-241h-153v700zM233 571v-212h141q55 0 86.5 29.5t31.5 76.5t-31.5 76.5t-86.5 29.5h-141zM205 -218l66 168h154l-106 -168h-114z" />
    <glyph glyph-name="uni0157" unicode="&#x157;" horiz-adv-x="414" 
d="M60 0v517h129l8 -101q55 111 192 111l-2 -149h-30q-152 0 -152 -165v-213h-145zM-11 -218l66 168h154l-106 -168h-114z" />
    <glyph glyph-name="Rcaron" unicode="&#x158;" horiz-adv-x="698" 
d="M284 752l-140 168h126l82 -83l82 83h120l-140 -168h-130zM80 700h313q112 0 182 -63t70 -164q0 -74 -39.5 -130t-107.5 -81l177 -262h-178l-157 241h-107v-241h-153v700zM233 571v-212h141q55 0 86.5 29.5t31.5 76.5t-31.5 76.5t-86.5 29.5h-141z" />
    <glyph glyph-name="rcaron" unicode="&#x159;" horiz-adv-x="414" 
d="M157 572l-140 168h126l82 -83l82 83h120l-140 -168h-130zM60 0v517h129l8 -101q55 111 192 111l-2 -149h-30q-152 0 -152 -165v-213h-145z" />
    <glyph glyph-name="Sacute" unicode="&#x15a;" horiz-adv-x="583" 
d="M241 752l66 168h154l-106 -168h-114zM212 523q0 -31 26.5 -53.5t99.5 -50.5q200 -79 200 -219q0 -90 -70 -150t-183 -60q-49 0 -94.5 11t-76 26t-53.5 30.5t-33 26.5l-11 11l90 98q9 -9 24.5 -22t64.5 -35t97 -22q39 0 63.5 19.5t24.5 49.5q0 35 -34 62.5t-125 64.5
q-167 65 -167 201q0 87 67 143t176 56q43 0 83 -9.5t66.5 -22.5t47.5 -26t31 -22l9 -10l-90 -98q-7 7 -19 17.5t-49.5 28.5t-76.5 18q-42 0 -65 -19t-23 -44z" />
    <glyph glyph-name="sacute" unicode="&#x15b;" horiz-adv-x="470" 
d="M182 572l66 168h154l-106 -168h-114zM183 380q0 -19 19.5 -34.5t75.5 -32.5q76 -23 116.5 -64t40.5 -96q0 -72 -55 -117.5t-152 -45.5q-37 0 -72.5 7.5t-59.5 19t-43 22.5t-28 19l-9 7l62 93q8 -7 21 -17t52.5 -26.5t76.5 -16.5q31 0 47.5 12.5t16.5 31.5q0 21 -22 38
t-88 38q-142 46 -142 155q0 64 53 109t146 45q51 0 99.5 -16.5t71.5 -32.5l22 -17l-62 -94q-6 6 -17.5 14.5t-44.5 23t-65 14.5q-29 0 -44.5 -11.5t-15.5 -27.5z" />
    <glyph glyph-name="Scircumflex" unicode="&#x15c;" horiz-adv-x="583" 
d="M93 752l140 168h130l140 -168h-125l-83 82l-81 -82h-121zM212 523q0 -31 26.5 -53.5t99.5 -50.5q200 -79 200 -219q0 -90 -70 -150t-183 -60q-49 0 -94.5 11t-76 26t-53.5 30.5t-33 26.5l-11 11l90 98q9 -9 24.5 -22t64.5 -35t97 -22q39 0 63.5 19.5t24.5 49.5
q0 35 -34 62.5t-125 64.5q-167 65 -167 201q0 87 67 143t176 56q43 0 83 -9.5t66.5 -22.5t47.5 -26t31 -22l9 -10l-90 -98q-7 7 -19 17.5t-49.5 28.5t-76.5 18q-42 0 -65 -19t-23 -44z" />
    <glyph glyph-name="scircumflex" unicode="&#x15d;" horiz-adv-x="470" 
d="M34 572l140 168h130l140 -168h-125l-83 82l-81 -82h-121zM183 380q0 -19 19.5 -34.5t75.5 -32.5q76 -23 116.5 -64t40.5 -96q0 -72 -55 -117.5t-152 -45.5q-37 0 -72.5 7.5t-59.5 19t-43 22.5t-28 19l-9 7l62 93q8 -7 21 -17t52.5 -26.5t76.5 -16.5q31 0 47.5 12.5
t16.5 31.5q0 21 -22 38t-88 38q-142 46 -142 155q0 64 53 109t146 45q51 0 99.5 -16.5t71.5 -32.5l22 -17l-62 -94q-6 6 -17.5 14.5t-44.5 23t-65 14.5q-29 0 -44.5 -11.5t-15.5 -27.5z" />
    <glyph glyph-name="Scedilla" unicode="&#x15e;" horiz-adv-x="583" 
d="M538 200q0 -77 -52.5 -133t-140.5 -72q14 -23 14 -55q0 -62 -46 -98.5t-110 -36.5q-28 0 -54 6.5t-38 13.5l-12 7l30 84q23 -16 62 -16q29 0 46.5 14.5t17.5 39.5q0 22 -17 39q-64 7 -119 32.5t-79 47.5l-23 22l90 98q9 -9 24.5 -22t64.5 -35t97 -22q39 0 63.5 19.5
t24.5 49.5q0 35 -34 62.5t-125 64.5q-167 65 -167 201q0 87 67 143t176 56q43 0 83 -9.5t66.5 -22.5t47.5 -26t31 -22l9 -10l-90 -98q-7 7 -19 17.5t-49.5 28.5t-76.5 18q-42 0 -65 -19t-23 -44q0 -31 26.5 -53.5t99.5 -50.5q200 -79 200 -219z" />
    <glyph glyph-name="scedilla" unicode="&#x15f;" horiz-adv-x="470" 
d="M435 153q0 -59 -38 -101.5t-108 -56.5q14 -26 14 -55q0 -62 -46 -98.5t-110 -36.5q-28 0 -54 6.5t-38 13.5l-12 7l30 84q23 -16 62 -16q29 0 46.5 14.5t17.5 39.5q0 22 -17 39q-46 6 -87.5 24t-60.5 33l-18 15l62 93q8 -7 21 -17t52.5 -26.5t76.5 -16.5q31 0 47.5 12.5
t16.5 31.5q0 21 -22 38t-88 38q-142 46 -142 155q0 64 53 109t146 45q51 0 99.5 -16.5t71.5 -32.5l22 -17l-62 -94q-6 6 -17.5 14.5t-44.5 23t-65 14.5q-29 0 -44.5 -11.5t-15.5 -27.5q0 -19 19.5 -34.5t75.5 -32.5q76 -23 116.5 -64t40.5 -96z" />
    <glyph glyph-name="Scaron" unicode="&#x160;" horiz-adv-x="583" 
d="M233 752l-140 168h126l82 -83l82 83h120l-140 -168h-130zM212 523q0 -31 26.5 -53.5t99.5 -50.5q200 -79 200 -219q0 -90 -70 -150t-183 -60q-49 0 -94.5 11t-76 26t-53.5 30.5t-33 26.5l-11 11l90 98q9 -9 24.5 -22t64.5 -35t97 -22q39 0 63.5 19.5t24.5 49.5
q0 35 -34 62.5t-125 64.5q-167 65 -167 201q0 87 67 143t176 56q43 0 83 -9.5t66.5 -22.5t47.5 -26t31 -22l9 -10l-90 -98q-7 7 -19 17.5t-49.5 28.5t-76.5 18q-42 0 -65 -19t-23 -44z" />
    <glyph glyph-name="scaron" unicode="&#x161;" horiz-adv-x="470" 
d="M174 572l-140 168h126l82 -83l82 83h120l-140 -168h-130zM183 380q0 -19 19.5 -34.5t75.5 -32.5q76 -23 116.5 -64t40.5 -96q0 -72 -55 -117.5t-152 -45.5q-37 0 -72.5 7.5t-59.5 19t-43 22.5t-28 19l-9 7l62 93q8 -7 21 -17t52.5 -26.5t76.5 -16.5q31 0 47.5 12.5
t16.5 31.5q0 21 -22 38t-88 38q-142 46 -142 155q0 64 53 109t146 45q51 0 99.5 -16.5t71.5 -32.5l22 -17l-62 -94q-6 6 -17.5 14.5t-44.5 23t-65 14.5q-29 0 -44.5 -11.5t-15.5 -27.5z" />
    <glyph glyph-name="uni0162" unicode="&#x162;" horiz-adv-x="590" 
d="M15 700h560v-133h-203v-567h-18q16 -28 16 -60q0 -62 -46 -98.5t-110 -36.5q-28 0 -54 6.5t-38 13.5l-12 7l30 84q23 -16 62 -16q29 0 46.5 14.5t17.5 39.5q0 13 -6.5 24.5t-11.5 16t-8 5.5h-21v567h-204v133z" />
    <glyph glyph-name="uni0163" unicode="&#x163;" horiz-adv-x="450" 
d="M420 399h-160v-203q0 -73 67 -73q17 0 36 3t29 6l11 3l17 -121q-27 -13 -72 -20q13 -23 13 -54q0 -62 -46 -98.5t-110 -36.5q-28 0 -54 6.5t-38 13.5l-12 7l30 84q23 -16 62 -16q29 0 46.5 14.5t17.5 39.5q0 26 -20 41q-58 14 -90 57t-32 111v236h-95v118h95v123h145
v-123h160v-118z" />
    <glyph glyph-name="Tcaron" unicode="&#x164;" horiz-adv-x="590" 
d="M230 752l-140 168h126l82 -83l82 83h120l-140 -168h-130zM372 567v-567h-153v567h-204v133h560v-133h-203z" />
    <glyph glyph-name="tcaron" unicode="&#x165;" horiz-adv-x="473" 
d="M320 570l33 220h146l-73 -220h-106zM289 -10q-81 0 -127.5 45.5t-46.5 127.5v236h-95v118h95v123h145v-123h160v-118h-160v-203q0 -73 67 -73q17 0 36 3t29 6l11 3l17 -121q-51 -24 -131 -24z" />
    <glyph glyph-name="Tbar" unicode="&#x166;" horiz-adv-x="590" 
d="M575 567h-203v-177h181v-84h-181v-306h-153v306h-182v84h182v177h-204v133h560v-133z" />
    <glyph glyph-name="tbar" unicode="&#x167;" horiz-adv-x="450" 
d="M420 399h-160v-90h160v-83h-160v-30q0 -73 67 -73q17 0 36 3t29 6l11 3l17 -121q-51 -24 -131 -24q-81 0 -127.5 45.5t-46.5 127.5v63h-95v83h95v90h-95v118h95v123h145v-123h160v-118z" />
    <glyph glyph-name="Utilde" unicode="&#x168;" horiz-adv-x="740" 
d="M441 755q-33 0 -58.5 18t-45.5 36t-39 18q-14 0 -23 -14.5t-11 -28.5l-2 -15l-72 8q0 6 1 15t7 33t16.5 42t32 33t50.5 15q34 0 60 -18t45.5 -36t38.5 -18q14 0 23 14.5t11 28.5l2 15l73 -8q0 -6 -1 -15t-7.5 -33t-16.5 -42t-32.5 -33t-51.5 -15zM367 -10
q-134 0 -215.5 80.5t-81.5 214.5v415h155v-409q0 -73 41 -116.5t107 -43.5t106.5 43.5t40.5 116.5v409h150v-410q0 -135 -84 -217.5t-219 -82.5z" />
    <glyph glyph-name="utilde" unicode="&#x169;" horiz-adv-x="614" 
d="M378 575q-33 0 -58.5 18t-45.5 36t-39 18q-14 0 -23 -14.5t-11 -28.5l-2 -15l-72 8q0 6 1 15t7 33t16.5 42t32 33t50.5 15q34 0 60 -18t45.5 -36t38.5 -18q14 0 23 14.5t11 28.5l2 15l73 -8q0 -6 -1 -15t-7.5 -33t-16.5 -42t-32.5 -33t-51.5 -15zM409 517h145v-517h-129
l-7 80q-56 -90 -170 -90q-85 0 -139.5 56.5t-54.5 155.5v315h145v-268q0 -62 28 -93.5t73 -31.5q48 0 78.5 32.5t30.5 97.5v263z" />
    <glyph glyph-name="Umacron" unicode="&#x16a;" horiz-adv-x="740" 
d="M190 798v84h360v-84h-360zM367 -10q-134 0 -215.5 80.5t-81.5 214.5v415h155v-409q0 -73 41 -116.5t107 -43.5t106.5 43.5t40.5 116.5v409h150v-410q0 -135 -84 -217.5t-219 -82.5z" />
    <glyph glyph-name="umacron" unicode="&#x16b;" horiz-adv-x="614" 
d="M127 618v84h360v-84h-360zM409 517h145v-517h-129l-7 80q-56 -90 -170 -90q-85 0 -139.5 56.5t-54.5 155.5v315h145v-268q0 -62 28 -93.5t73 -31.5q48 0 78.5 32.5t30.5 97.5v263z" />
    <glyph glyph-name="Ubreve" unicode="&#x16c;" horiz-adv-x="740" 
d="M370 752q-75 0 -123 45.5t-48 117.5v5h100v-13q0 -31 19.5 -50.5t52.5 -19.5t51.5 19.5t18.5 50.5v13h100v-5q0 -72 -48 -117.5t-123 -45.5zM367 -10q-134 0 -215.5 80.5t-81.5 214.5v415h155v-409q0 -73 41 -116.5t107 -43.5t106.5 43.5t40.5 116.5v409h150v-410
q0 -135 -84 -217.5t-219 -82.5z" />
    <glyph glyph-name="ubreve" unicode="&#x16d;" horiz-adv-x="614" 
d="M307 572q-75 0 -123 45.5t-48 117.5v5h100v-13q0 -31 19.5 -50.5t52.5 -19.5t51.5 19.5t18.5 50.5v13h100v-5q0 -72 -48 -117.5t-123 -45.5zM409 517h145v-517h-129l-7 80q-56 -90 -170 -90q-85 0 -139.5 56.5t-54.5 155.5v315h145v-268q0 -62 28 -93.5t73 -31.5
q48 0 78.5 32.5t30.5 97.5v263z" />
    <glyph glyph-name="Uring" unicode="&#x16e;" horiz-adv-x="740" 
d="M370 732q-43 0 -71 26.5t-28 67.5t28 67.5t71 26.5q42 0 70 -27t28 -67t-28 -67t-70 -27zM370 782q18 0 30.5 13t12.5 31q0 19 -12 31t-31 12q-20 0 -32.5 -12t-12.5 -31q0 -18 13 -31t32 -13zM367 -10q-134 0 -215.5 80.5t-81.5 214.5v415h155v-409q0 -73 41 -116.5
t107 -43.5t106.5 43.5t40.5 116.5v409h150v-410q0 -135 -84 -217.5t-219 -82.5z" />
    <glyph glyph-name="uring" unicode="&#x16f;" horiz-adv-x="614" 
d="M308 552q-43 0 -71 26.5t-28 67.5t28 67.5t71 26.5q42 0 70 -27t28 -67t-28 -67t-70 -27zM308 602q18 0 30.5 13t12.5 31q0 19 -12 31t-31 12q-20 0 -32.5 -12t-12.5 -31q0 -18 13 -31t32 -13zM409 517h145v-517h-129l-7 80q-56 -90 -170 -90q-85 0 -139.5 56.5
t-54.5 155.5v315h145v-268q0 -62 28 -93.5t73 -31.5q48 0 78.5 32.5t30.5 97.5v263z" />
    <glyph glyph-name="Uhungarumlaut" unicode="&#x170;" horiz-adv-x="740" 
d="M209 752l54 168h150l-94 -168h-110zM420 752l54 168h151l-94 -168h-111zM367 -10q-134 0 -215.5 80.5t-81.5 214.5v415h155v-409q0 -73 41 -116.5t107 -43.5t106.5 43.5t40.5 116.5v409h150v-410q0 -135 -84 -217.5t-219 -82.5z" />
    <glyph glyph-name="uhungarumlaut" unicode="&#x171;" horiz-adv-x="614" 
d="M146 572l54 168h150l-94 -168h-110zM357 572l54 168h151l-94 -168h-111zM409 517h145v-517h-129l-7 80q-56 -90 -170 -90q-85 0 -139.5 56.5t-54.5 155.5v315h145v-268q0 -62 28 -93.5t73 -31.5q48 0 78.5 32.5t30.5 97.5v263z" />
    <glyph glyph-name="Uogonek" unicode="&#x172;" horiz-adv-x="740" 
d="M520 700h150v-410q0 -115 -63 -194t-169 -99q-16 -16 -16 -38q0 -21 17 -35t43 -14q14 0 26.5 3t18.5 7l6 3l23 -82q-31 -26 -88 -26q-60 0 -101 35.5t-41 93.5q0 25 10 47q-121 10 -193.5 89t-72.5 205v415h155v-409q0 -73 41 -116.5t107 -43.5t106.5 43.5t40.5 116.5
v409z" />
    <glyph glyph-name="uogonek" unicode="&#x173;" horiz-adv-x="614" 
d="M587 -77l23 -82q-31 -26 -88 -26q-60 0 -101 35.5t-41 93.5q0 54 42 90l-4 46q-56 -90 -170 -90q-85 0 -139.5 56.5t-54.5 155.5v315h145v-268q0 -62 28 -93.5t73 -31.5q48 0 78.5 32.5t30.5 97.5v263h145v-517h-58q-20 -12 -20 -41q0 -21 17 -35t43 -14q14 0 26.5 3
t18.5 7z" />
    <glyph glyph-name="Wcircumflex" unicode="&#x174;" horiz-adv-x="1010" 
d="M304 752l140 168h130l140 -168h-125l-83 82l-81 -82h-121zM2 700h169l146 -467l138 467h109l137 -467l146 467h161l-236 -700h-134l-133 442l-133 -442h-133z" />
    <glyph glyph-name="wcircumflex" unicode="&#x175;" horiz-adv-x="795" 
d="M197 572l140 168h130l140 -168h-125l-83 82l-81 -82h-121zM-5 517h158l98 -321l96 321h109l95 -317l99 317h150l-174 -517h-138l-91 296l-90 -296h-138z" />
    <glyph glyph-name="Ycircumflex" unicode="&#x176;" horiz-adv-x="695" 
d="M146 752l140 168h130l140 -168h-125l-83 82l-81 -82h-121zM271 0v260l-269 440h178l172 -295l171 295h170l-269 -440v-260h-153z" />
    <glyph glyph-name="ycircumflex" unicode="&#x177;" horiz-adv-x="543" 
d="M71 572l140 168h130l140 -168h-125l-83 82l-81 -82h-121zM-5 517h162l118 -342l119 342h154l-206 -522q-67 -165 -213 -165q-37 0 -70.5 8.5t-48.5 17.5l-15 8l46 113q27 -20 74 -20q59 0 83 51z" />
    <glyph glyph-name="Ydieresis" unicode="&#x178;" horiz-adv-x="695" 
d="M241 762q-33 0 -54.5 21.5t-21.5 54.5t22 55t55 22t54.5 -21.5t21.5 -53.5q0 -33 -22 -55.5t-55 -22.5zM461 762q-33 0 -54.5 21.5t-21.5 54.5t22 55t55 22t54.5 -21.5t21.5 -53.5q0 -33 -22 -55.5t-55 -22.5zM271 0v260l-269 440h178l172 -295l171 295h170l-269 -440
v-260h-153z" />
    <glyph glyph-name="Zacute" unicode="&#x179;" horiz-adv-x="695" 
d="M300 752l66 168h154l-106 -168h-114zM52 0v112l385 459h-365v129h571v-112l-385 -459h385v-129h-591z" />
    <glyph glyph-name="zacute" unicode="&#x17a;" horiz-adv-x="540" 
d="M220 572l66 168h154l-106 -168h-114zM42 0v105l257 289h-242v123h441v-105l-257 -290h257v-122h-456z" />
    <glyph glyph-name="Zdotaccent" unicode="&#x17b;" horiz-adv-x="695" 
d="M357 762q-33 0 -54.5 21.5t-21.5 54.5t22 55t55 22t54.5 -21.5t21.5 -53.5q0 -33 -22 -55.5t-55 -22.5zM52 0v112l385 459h-365v129h571v-112l-385 -459h385v-129h-591z" />
    <glyph glyph-name="zdotaccent" unicode="&#x17c;" horiz-adv-x="540" 
d="M277 582q-33 0 -54.5 21.5t-21.5 54.5t22 55t55 22t54.5 -21.5t21.5 -53.5q0 -33 -22 -55.5t-55 -22.5zM42 0v105l257 289h-242v123h441v-105l-257 -290h257v-122h-456z" />
    <glyph glyph-name="Zcaron" unicode="&#x17d;" horiz-adv-x="695" 
d="M292 752l-140 168h126l82 -83l82 83h120l-140 -168h-130zM52 0v112l385 459h-365v129h571v-112l-385 -459h385v-129h-591z" />
    <glyph glyph-name="zcaron" unicode="&#x17e;" horiz-adv-x="540" 
d="M212 572l-140 168h126l82 -83l82 83h120l-140 -168h-130zM42 0v105l257 289h-242v123h441v-105l-257 -290h257v-122h-456z" />
    <glyph glyph-name="florin" unicode="&#x192;" 
d="M120 -160l35 447h-120v87h127l9 116q9 105 68.5 162.5t156.5 57.5q41 0 76 -12.5t55.5 -30t35.5 -35t21 -30.5l6 -12l-106 -70q-1 2 -2.5 6t-8 14t-15 17.5t-24 13.5t-33.5 6q-37 0 -59 -23t-25 -63l-10 -117h183v-87h-189l-36 -447h-145z" />
    <glyph glyph-name="Aringacute" unicode="&#x1fa;" horiz-adv-x="725" 
d="M442 694l281 -694h-169l-56 147h-279l-56 -147h-161l281 694q-19 24 -19 57q0 34 20 58.5t52 32.5l28 78h154l-76 -112q19 -24 19 -57t-19 -57zM362 795q-19 0 -31.5 -12.5t-12.5 -31.5q0 -18 12.5 -31t31.5 -13t31.5 13t12.5 31q0 19 -12.5 31.5t-31.5 12.5zM261 268
h194l-96 256z" />
    <glyph glyph-name="aringacute" unicode="&#x1fb;" horiz-adv-x="571" 
d="M368 515q72 -22 111 -79t39 -143v-293h-113l-12 44q-57 -54 -157 -54q-91 0 -145 44t-54 113q0 70 56 116t147 46q79 0 132 -37v22q0 51 -32 79t-85 28q-35 0 -67 -10t-47 -20l-15 -10l-59 101q6 5 17 13t49.5 24t81.5 23q-19 25 -19 57q0 33 18.5 57t49.5 33l25 71h154
l-69 -102q20 -27 20 -59q0 -38 -26 -64zM295 622q-19 0 -31.5 -12.5t-12.5 -30.5q0 -19 12.5 -31.5t31.5 -12.5t31 12.5t12 31.5q0 18 -12 30.5t-31 12.5zM278 82q45 0 72 20.5t27 50.5t-27 50.5t-72 20.5q-42 0 -68.5 -20.5t-26.5 -50.5t26.5 -50.5t68.5 -20.5z" />
    <glyph glyph-name="AEacute" unicode="&#x1fc;" horiz-adv-x="1068" 
d="M626 755l66 168h154l-106 -168h-114zM-8 0l425 700h596v-133h-363v-145h313v-124h-313v-165h373v-133h-526v147h-247l-87 -147h-171zM317 268h180v305z" />
    <glyph glyph-name="aeacute" unicode="&#x1fd;" horiz-adv-x="939" 
d="M412 572l66 168h154l-106 -168h-114zM254 -10q-101 0 -159 43.5t-58 113.5t56 116t147 46q79 0 132 -37v22q0 51 -32 79t-85 28q-35 0 -67 -10t-47 -20l-15 -10l-59 102q3 3 9 7t27 15t44 19.5t60.5 15.5t76.5 7q120 0 175 -92q75 92 192 92q107 0 182 -73.5t75 -175.5
q0 -13 -2 -25t-4 -17l-2 -6h-379q7 -51 45 -82.5t93 -31.5q25 0 48.5 6.5t38.5 15t26.5 17.5t16.5 15l5 7l87 -83q-3 -4 -8.5 -11t-26 -25t-45 -32t-65.5 -25t-87 -11q-123 0 -197 93q-54 -93 -198 -93zM520 317h248q-8 43 -42 72.5t-78 29.5q-48 0 -83 -28.5t-45 -73.5z
M278 82q45 0 72 20.5t27 50.5t-27 50.5t-72 20.5q-42 0 -68.5 -20.5t-26.5 -50.5t26.5 -50.5t68.5 -20.5z" />
    <glyph glyph-name="Oslashacute" unicode="&#x1fe;" horiz-adv-x="825" 
d="M575 923l-106 -168h-114l66 168h154zM788 730l-108 -127q100 -100 100 -250q0 -152 -107 -257.5t-263 -105.5q-114 0 -205 58l-66 -78h-102l108 127q-100 100 -100 250q0 152 107 257.5t263 105.5q114 0 205 -58l66 78h102zM194 350q0 -81 47 -141l285 334
q-52 30 -114 30q-94 0 -156 -64t-62 -159zM631 350q0 81 -47 141l-285 -334q51 -30 113 -30q94 0 156.5 64t62.5 159z" />
    <glyph glyph-name="oslashacute" unicode="&#x1ff;" horiz-adv-x="629" 
d="M477 740l-106 -168h-114l66 168h154zM518 448q76 -74 76 -187q0 -114 -81 -192.5t-201 -78.5q-78 0 -143 35l-45 -55h-94l81 99q-76 74 -76 187q0 114 81 192.5t201 78.5q78 0 143 -35l45 55h94zM169 258q0 -48 27 -86l181 219q-31 13 -62 13q-63 0 -104.5 -42
t-41.5 -104zM315 112q62 0 103.5 42.5t41.5 103.5q0 49 -27 87l-181 -219q30 -14 63 -14z" />
    <glyph glyph-name="uni0218" unicode="&#x218;" horiz-adv-x="583" 
d="M212 523q0 -31 26.5 -53.5t99.5 -50.5q200 -79 200 -219q0 -90 -70 -150t-183 -60q-49 0 -94.5 11t-76 26t-53.5 30.5t-33 26.5l-11 11l90 98q9 -9 24.5 -22t64.5 -35t97 -22q39 0 63.5 19.5t24.5 49.5q0 35 -34 62.5t-125 64.5q-167 65 -167 201q0 87 67 143t176 56
q43 0 83 -9.5t66.5 -22.5t47.5 -26t31 -22l9 -10l-90 -98q-7 7 -19 17.5t-49.5 28.5t-76.5 18q-42 0 -65 -19t-23 -44zM141 -218l66 168h154l-106 -168h-114z" />
    <glyph glyph-name="uni0219" unicode="&#x219;" horiz-adv-x="470" 
d="M183 380q0 -19 19.5 -34.5t75.5 -32.5q76 -23 116.5 -64t40.5 -96q0 -72 -55 -117.5t-152 -45.5q-37 0 -72.5 7.5t-59.5 19t-43 22.5t-28 19l-9 7l62 93q8 -7 21 -17t52.5 -26.5t76.5 -16.5q31 0 47.5 12.5t16.5 31.5q0 21 -22 38t-88 38q-142 46 -142 155q0 64 53 109
t146 45q51 0 99.5 -16.5t71.5 -32.5l22 -17l-62 -94q-6 6 -17.5 14.5t-44.5 23t-65 14.5q-29 0 -44.5 -11.5t-15.5 -27.5zM85 -218l66 168h154l-106 -168h-114z" />
    <glyph glyph-name="uni021A" unicode="&#x21a;" horiz-adv-x="590" 
d="M372 567v-567h-153v567h-204v133h560v-133h-203zM152 -218l66 168h154l-106 -168h-114z" />
    <glyph glyph-name="uni021B" unicode="&#x21b;" horiz-adv-x="450" 
d="M289 -10q-81 0 -127.5 45.5t-46.5 127.5v236h-95v118h95v123h145v-123h160v-118h-160v-203q0 -73 67 -73q17 0 36 3t29 6l11 3l17 -121q-51 -24 -131 -24zM143 -218l66 168h154l-106 -168h-114z" />
    <glyph glyph-name="uni02BC" unicode="&#x2bc;" horiz-adv-x="600" 
 />
    <glyph glyph-name="circumflex" unicode="&#x2c6;" horiz-adv-x="510" 
d="M50 572l140 168h130l140 -168h-125l-83 82l-81 -82h-121z" />
    <glyph glyph-name="caron" unicode="&#x2c7;" horiz-adv-x="510" 
d="M190 572l-140 168h126l82 -83l82 83h120l-140 -168h-130z" />
    <glyph glyph-name="breve" unicode="&#x2d8;" horiz-adv-x="442" 
d="M221 572q-75 0 -123 45.5t-48 117.5v5h100v-13q0 -31 19.5 -50.5t52.5 -19.5t51.5 19.5t18.5 50.5v13h100v-5q0 -72 -48 -117.5t-123 -45.5z" />
    <glyph glyph-name="dotaccent" unicode="&#x2d9;" horiz-adv-x="253" 
d="M126 582q-33 0 -54.5 21.5t-21.5 54.5t22 55t55 22t54.5 -21.5t21.5 -53.5q0 -33 -22 -55.5t-55 -22.5z" />
    <glyph glyph-name="ring" unicode="&#x2da;" horiz-adv-x="297" 
d="M149 552q-43 0 -71 26.5t-28 67.5t28 67.5t71 26.5q42 0 70 -27t28 -67t-28 -67t-70 -27zM149 602q18 0 30.5 13t12.5 31q0 19 -12 31t-31 12q-20 0 -32.5 -12t-12.5 -31q0 -18 13 -31t32 -13z" />
    <glyph glyph-name="ogonek" unicode="&#x2db;" horiz-adv-x="330" 
d="M192 -185q-60 0 -101 35.5t-41 93.5q0 37 20 65.5t40 38.5l20 10l36 -58q-20 -12 -20 -41q0 -21 17 -35t43 -14q14 0 26.5 3t18.5 7l6 3l23 -82q-31 -26 -88 -26z" />
    <glyph glyph-name="tilde" unicode="&#x2dc;" horiz-adv-x="460" 
d="M301 575q-33 0 -58.5 18t-45.5 36t-39 18q-14 0 -23 -14.5t-11 -28.5l-2 -15l-72 8q0 6 1 15t7 33t16.5 42t32 33t50.5 15q34 0 60 -18t45.5 -36t38.5 -18q14 0 23 14.5t11 28.5l2 15l73 -8q0 -6 -1 -15t-7.5 -33t-16.5 -42t-32.5 -33t-51.5 -15z" />
    <glyph glyph-name="hungarumlaut" unicode="&#x2dd;" horiz-adv-x="516" 
d="M50 572l54 168h150l-94 -168h-110zM261 572l54 168h151l-94 -168h-111z" />
    <glyph glyph-name="gravecomb" unicode="&#x300;" horiz-adv-x="0" 
d="M-164 572l-106 168h154l66 -168h-114z" />
    <glyph glyph-name="acutecomb" unicode="&#x301;" horiz-adv-x="0" 
d="M-270 572l66 168h154l-106 -168h-114z" />
    <glyph glyph-name="uni0302" unicode="&#x302;" horiz-adv-x="0" 
d="M-460 572l140 168h130l140 -168h-125l-83 82l-81 -82h-121z" />
    <glyph glyph-name="tildecomb" unicode="&#x303;" horiz-adv-x="0" 
d="M-159 575q-33 0 -58.5 18t-45.5 36t-39 18q-14 0 -23 -14.5t-11 -28.5l-2 -15l-72 8q0 6 1 15t7 33t16.5 42t32 33t50.5 15q34 0 60 -18t45.5 -36t38.5 -18q14 0 23 14.5t11 28.5l2 15l73 -8q0 -6 -1 -15t-7.5 -33t-16.5 -42t-32.5 -33t-51.5 -15z" />
    <glyph glyph-name="uni0304" unicode="&#x304;" horiz-adv-x="0" 
d="M-410 618v84h360v-84h-360z" />
    <glyph glyph-name="uni0306" unicode="&#x306;" horiz-adv-x="0" 
d="M-221 572q-75 0 -123 45.5t-48 117.5v5h100v-13q0 -31 19.5 -50.5t52.5 -19.5t51.5 19.5t18.5 50.5v13h100v-5q0 -72 -48 -117.5t-123 -45.5z" />
    <glyph glyph-name="uni0307" unicode="&#x307;" horiz-adv-x="0" 
d="M-127 582q-33 0 -54.5 21.5t-21.5 54.5t22 55t55 22t54.5 -21.5t21.5 -53.5q0 -33 -22 -55.5t-55 -22.5z" />
    <glyph glyph-name="uni0308" unicode="&#x308;" horiz-adv-x="0" 
d="M-347 582q-33 0 -54.5 21.5t-21.5 54.5t22 55t55 22t54.5 -21.5t21.5 -53.5q0 -33 -22 -55.5t-55 -22.5zM-127 582q-33 0 -54.5 21.5t-21.5 54.5t22 55t55 22t54.5 -21.5t21.5 -53.5q0 -33 -22 -55.5t-55 -22.5z" />
    <glyph glyph-name="uni030A" unicode="&#x30a;" horiz-adv-x="0" 
d="M-148 552q-43 0 -71 26.5t-28 67.5t28 67.5t71 26.5q42 0 70 -27t28 -67t-28 -67t-70 -27zM-148 602q18 0 30.5 13t12.5 31q0 19 -12 31t-31 12q-20 0 -32.5 -12t-12.5 -31q0 -18 13 -31t32 -13z" />
    <glyph glyph-name="uni030B" unicode="&#x30b;" horiz-adv-x="0" 
d="M-466 572l54 168h150l-94 -168h-110zM-255 572l54 168h151l-94 -168h-111z" />
    <glyph glyph-name="uni030C" unicode="&#x30c;" horiz-adv-x="0" 
d="M-320 572l-140 168h126l82 -83l82 83h120l-140 -168h-130z" />
    <glyph glyph-name="uni0312" unicode="&#x312;" horiz-adv-x="0" 
d="M-50 735l-66 -167h-154l106 167h114z" />
    <glyph glyph-name="uni0326" unicode="&#x326;" horiz-adv-x="0" 
d="M-270 -218l66 168h154l-106 -168h-114z" />
    <glyph glyph-name="uni0327" unicode="&#x327;" horiz-adv-x="0" 
d="M-206 -195q-28 0 -54 6.5t-38 13.5l-12 7l30 84q23 -16 62 -16q29 0 46.5 14.5t17.5 39.5q0 13 -6.5 24.5t-11.5 16t-8 5.5l45 56q3 -1 9 -3.5t20.5 -12.5t26 -22t20.5 -33t9 -45q0 -62 -46 -98.5t-110 -36.5z" />
    <glyph glyph-name="uni0328" unicode="&#x328;" horiz-adv-x="0" 
d="M-138 -185q-60 0 -101 35.5t-41 93.5q0 37 20 65.5t40 38.5l20 10l36 -58q-20 -12 -20 -41q0 -21 17 -35t43 -14q14 0 26.5 3t18.5 7l6 3l23 -82q-31 -26 -88 -26z" />
    <glyph glyph-name="uni0374" unicode="&#x374;" horiz-adv-x="600" 
 />
    <glyph glyph-name="uni0375" unicode="&#x375;" horiz-adv-x="600" 
 />
    <glyph glyph-name="uni037E" unicode="&#x37e;" horiz-adv-x="283" 
d="M142 344q-38 0 -65 26.5t-27 64.5t27 65t65 27t64.5 -27t26.5 -65t-26.5 -64.5t-64.5 -26.5zM40 -130l29 300h154l-69 -300h-114z" />
    <glyph glyph-name="tonos" unicode="&#x384;" horiz-adv-x="262" 
d="M50 572l16 168h146l-56 -168h-106z" />
    <glyph glyph-name="dieresistonos" unicode="&#x385;" horiz-adv-x="596" 
d="M234 572l8 168h139l-48 -168h-99zM126 582q-33 0 -54.5 21.5t-21.5 54.5t22 55t55 22t54.5 -21.5t21.5 -53.5q0 -33 -22 -55.5t-55 -22.5zM469 582q-33 0 -54.5 21.5t-21.5 54.5t22 55t55 22t54.5 -21.5t21.5 -53.5q0 -33 -22 -55.5t-55 -22.5z" />
    <glyph glyph-name="Alphatonos" unicode="&#x386;" horiz-adv-x="740" 
d="M12 532l16 168h146l-55 -168h-107zM18 0l283 700h153l284 -700h-169l-56 147h-279l-56 -147h-160zM276 268h194l-96 256z" />
    <glyph glyph-name="anoteleia" unicode="&#x387;" horiz-adv-x="288" 
d="M144 259q-38 0 -65 26.5t-27 64.5t27 65t65 27t64.5 -27t26.5 -65t-26.5 -64.5t-64.5 -26.5z" />
    <glyph glyph-name="Epsilontonos" unicode="&#x388;" horiz-adv-x="788" 
d="M12 532l16 168h146l-55 -168h-107zM218 0v700h515v-133h-362v-145h312v-124h-312v-165h372v-133h-525z" />
    <glyph glyph-name="Etatonos" unicode="&#x389;" horiz-adv-x="908" 
d="M12 532l16 168h146l-55 -168h-107zM218 0v700h153v-269h304v269h153v-700h-153v295h-304v-295h-153z" />
    <glyph glyph-name="Iotatonos" unicode="&#x38a;" horiz-adv-x="465" 
d="M12 532l16 168h146l-55 -168h-107zM223 700h157v-700h-157v700z" />
    <glyph glyph-name="Omicrontonos" unicode="&#x38c;" horiz-adv-x="912" 
d="M132 347q0 152 107.5 257.5t263.5 105.5t260.5 -102.5t104.5 -254.5t-107.5 -257.5t-263.5 -105.5t-260.5 102.5t-104.5 254.5zM12 532l16 168h146l-55 -168h-107zM285 350q0 -93 61.5 -156t153.5 -63q93 0 154 63t61 156t-61 156t-154 63q-92 0 -153.5 -63t-61.5 -156z
" />
    <glyph glyph-name="Upsilontonos" unicode="&#x38e;" horiz-adv-x="888" 
d="M12 532l16 168h146l-55 -168h-107zM464 0v260l-269 440h178l171 -295l172 295h169l-268 -440v-260h-153z" />
    <glyph glyph-name="Omegatonos" unicode="&#x38f;" horiz-adv-x="930" 
d="M875 374q0 -151 -130 -241h118v-133h-311v120q170 84 170 232q0 93 -61 155t-153 62q-93 0 -154 -62t-61 -155q0 -148 170 -232v-120h-311v133h112q-124 88 -124 236q0 143 107 242t263 99q157 0 261 -96.5t104 -239.5zM28 700h146l-55 -168h-107z" />
    <glyph glyph-name="iotadieresistonos" unicode="&#x390;" horiz-adv-x="350" 
d="M83 572l8 168h139l-48 -168h-99zM-25 582q-33 0 -54.5 21.5t-21.5 54.5t22 55t55 22t54.5 -21.5t21.5 -53.5q0 -33 -22 -55.5t-55 -22.5zM318 582q-33 0 -54.5 21.5t-21.5 54.5t22 55t55 22t54.5 -21.5t21.5 -53.5q0 -33 -22 -55.5t-55 -22.5zM205 517h-145v-377
q0 -72 42 -111t113 -39q35 0 64 6t40 12l11 6l-22 114q-20 -8 -51 -8q-52 0 -52 53v344z" />
    <glyph glyph-name="Alpha" unicode="&#x391;" horiz-adv-x="725" 
d="M2 0l284 700h153l284 -700h-169l-56 147h-279l-56 -147h-161zM261 268h194l-96 256z" />
    <glyph glyph-name="Beta" unicode="&#x392;" horiz-adv-x="690" 
d="M80 0v700h314q100 0 160 -50t60 -129q0 -50 -25.5 -90.5t-71.5 -64.5q60 -20 94 -66t34 -106q0 -83 -65.5 -138.5t-167.5 -55.5h-332zM233 415h128q46 0 73 24t27 59q0 36 -27 60t-73 24h-128v-167zM233 118h151q50 0 79 27t29 67t-29 66.5t-79 26.5h-151v-187z" />
    <glyph glyph-name="Gamma" unicode="&#x393;" horiz-adv-x="590" 
d="M80 700h495v-137h-342v-563h-153v700z" />
    <glyph glyph-name="uni0394" unicode="&#x394;" horiz-adv-x="735" 
d="M2 0l289 700h153l289 -700h-731zM211 137h304l-151 390z" />
    <glyph glyph-name="uni0394" unicode="&#x2206;" horiz-adv-x="735" 
d="M2 0l289 700h153l289 -700h-731zM211 137h304l-151 390z" />
    <glyph glyph-name="Epsilon" unicode="&#x395;" horiz-adv-x="650" 
d="M80 0v700h515v-133h-362v-145h312v-124h-312v-165h372v-133h-525z" />
    <glyph glyph-name="Zeta" unicode="&#x396;" horiz-adv-x="695" 
d="M52 0v112l385 459h-365v129h571v-112l-385 -459h385v-129h-591z" />
    <glyph glyph-name="Eta" unicode="&#x397;" horiz-adv-x="770" 
d="M80 0v700h153v-269h304v269h153v-700h-153v295h-304v-295h-153z" />
    <glyph glyph-name="Theta" unicode="&#x398;" horiz-adv-x="825" 
d="M45 347q0 152 107 257.5t263 105.5t260.5 -102.5t104.5 -254.5t-107 -257.5t-263 -105.5t-260.5 102.5t-104.5 254.5zM194 350q0 -95 61.5 -159t156.5 -64t157 64t62 159q0 96 -62 159.5t-157 63.5t-156.5 -63.5t-61.5 -159.5zM277 298v114h271v-114h-271z" />
    <glyph glyph-name="Iota" unicode="&#x399;" horiz-adv-x="327" 
d="M85 700h157v-700h-157v700z" />
    <glyph glyph-name="Kappa" unicode="&#x39a;" horiz-adv-x="712" 
d="M80 0v700h153v-313l271 313h195l-307 -332l327 -368h-195l-291 333v-333h-153z" />
    <glyph glyph-name="Lambda" unicode="&#x39b;" horiz-adv-x="715" 
d="M713 0h-173l-186 502l-187 -502h-165l279 700h153z" />
    <glyph glyph-name="Mu" unicode="&#x39c;" horiz-adv-x="890" 
d="M228 441v-441h-148v700h157l212 -405l212 405h149v-700h-148v441l-177 -336h-80z" />
    <glyph glyph-name="Nu" unicode="&#x39d;" horiz-adv-x="790" 
d="M229 471v-471h-149v700h158l323 -459v459h149v-700h-149z" />
    <glyph glyph-name="Xi" unicode="&#x39e;" horiz-adv-x="670" 
d="M55 567v133h560v-133h-560zM92 297v126h473v-126h-473zM45 0v133h580v-133h-580z" />
    <glyph glyph-name="Omicron" unicode="&#x39f;" horiz-adv-x="825" 
d="M45 347q0 152 107 257.5t263 105.5t260.5 -102.5t104.5 -254.5t-107 -257.5t-263 -105.5t-260.5 102.5t-104.5 254.5zM198 350q0 -93 61 -156t153 -63q93 0 154 63t61 156t-61 156t-154 63q-92 0 -153 -63t-61 -156z" />
    <glyph glyph-name="Pi" unicode="&#x3a0;" horiz-adv-x="770" 
d="M80 0v700h610v-700h-153v563h-304v-563h-153z" />
    <glyph glyph-name="Rho" unicode="&#x3a1;" horiz-adv-x="684" 
d="M80 0v700h303q118 0 190 -65.5t72 -171.5q0 -105 -74.5 -173t-192.5 -68h-145v-222h-153zM233 348h135q56 0 90 31t34 80t-34 80.5t-90 31.5h-135v-223z" />
    <glyph glyph-name="Sigma" unicode="&#x3a3;" horiz-adv-x="658" 
d="M261 129h352v-129h-561v115l246 239l-246 234v112h551v-129h-326l215 -211z" />
    <glyph glyph-name="Tau" unicode="&#x3a4;" horiz-adv-x="590" 
d="M372 567v-567h-153v567h-204v133h560v-133h-203z" />
    <glyph glyph-name="Upsilon" unicode="&#x3a5;" horiz-adv-x="695" 
d="M271 0v260l-269 440h178l172 -295l171 295h170l-269 -440v-260h-153z" />
    <glyph glyph-name="Phi" unicode="&#x3a6;" horiz-adv-x="960" 
d="M915 353q0 -140 -102 -237t-260 -104v-62h-146v62q-160 4 -261 99t-101 236q0 140 102 237t260 104v62h146v-62q160 -4 261 -99t101 -236zM553 146q95 5 152 61.5t57 142.5t-57 142.5t-152 61.5v-408zM198 350q0 -86 57 -142.5t152 -61.5v408q-95 -5 -152 -61.5
t-57 -142.5z" />
    <glyph glyph-name="Chi" unicode="&#x3a7;" horiz-adv-x="724" 
d="M2 0l269 356l-257 344h186l165 -228l167 228h178l-259 -342l270 -358h-186l-178 244l-177 -244h-178z" />
    <glyph glyph-name="Psi" unicode="&#x3a8;" horiz-adv-x="940" 
d="M742 700h153v-185q0 -150 -97 -247.5t-251 -104.5v-163h-153v162q-156 5 -252.5 100.5t-96.5 247.5v190h153v-184q0 -95 52.5 -152t143.5 -63v399h153v-399q90 6 142.5 63t52.5 152v184z" />
    <glyph glyph-name="uni03A9" unicode="&#x3a9;" horiz-adv-x="845" 
d="M790 374q0 -151 -130 -241h118v-133h-311v120q170 84 170 232q0 93 -61 155t-154 62q-92 0 -153 -62t-61 -155q0 -148 170 -232v-120h-311v133h112q-124 88 -124 236q0 143 106.5 242t263.5 99t261 -96.5t104 -239.5z" />
    <glyph glyph-name="Iotadieresis" unicode="&#x3aa;" horiz-adv-x="327" 
d="M53 762q-33 0 -54.5 21.5t-21.5 54.5t22 55t55 22t54.5 -21.5t21.5 -53.5q0 -33 -22 -55.5t-55 -22.5zM273 762q-33 0 -54.5 21.5t-21.5 54.5t22 55t55 22t54.5 -21.5t21.5 -53.5q0 -33 -22 -55.5t-55 -22.5zM85 700h157v-700h-157v700z" />
    <glyph glyph-name="Upsilondieresis" unicode="&#x3ab;" horiz-adv-x="695" 
d="M241 762q-33 0 -54.5 21.5t-21.5 54.5t22 55t55 22t54.5 -21.5t21.5 -53.5q0 -33 -22 -55.5t-55 -22.5zM461 762q-33 0 -54.5 21.5t-21.5 54.5t22 55t55 22t54.5 -21.5t21.5 -53.5q0 -33 -22 -55.5t-55 -22.5zM271 0v260l-269 440h178l172 -295l171 295h170l-269 -440
v-260h-153z" />
    <glyph glyph-name="alphatonos" unicode="&#x3ac;" horiz-adv-x="734" 
d="M434 740l-56 -168h-106l16 168h146zM692 128l22 -114q-36 -24 -115 -24q-111 0 -144 87q-26 -37 -70 -62t-101 -25q-103 0 -176 77t-73 189q0 113 75 192t179 79q105 0 167 -83l12 73h121v-344q0 -53 51 -53q14 0 27 2t19 4zM314 123q57 0 95.5 39t38.5 96t-38.5 96
t-95.5 39t-95.5 -39t-38.5 -96t38.5 -96t95.5 -39z" />
    <glyph glyph-name="epsilontonos" unicode="&#x3ad;" horiz-adv-x="533" 
d="M238 572l16 168h146l-56 -168h-106zM293 -10q-123 0 -190.5 40t-67.5 108q0 46 29 80.5t79 49.5q-93 35 -93 113q0 65 65 105.5t177 40.5q60 0 111.5 -14.5t72.5 -28.5l22 -15l-56 -89q-56 35 -142 35q-105 0 -105 -51t111 -51h61v-97h-61q-126 0 -126 -57
q0 -26 30 -41.5t88 -15.5q43 0 83 11t59 22l18 11l58 -92q-3 -3 -9 -7t-26.5 -15t-44.5 -19.5t-62.5 -15.5t-80.5 -7z" />
    <glyph glyph-name="etatonos" unicode="&#x3ae;" horiz-adv-x="614" 
d="M254 572l16 168h146l-56 -168h-106zM205 0h-145v517h129l7 -80q56 90 170 90q85 0 139.5 -56.5t54.5 -155.5v-475h-145v428q0 62 -28 93.5t-73 31.5q-48 0 -78.5 -32.5t-30.5 -97.5v-263z" />
    <glyph glyph-name="iotatonos" unicode="&#x3af;" horiz-adv-x="350" 
d="M79 572l16 168h146l-56 -168h-106zM205 517h-145v-377q0 -72 42 -111t113 -39q35 0 64 6t40 12l11 6l-22 114q-20 -8 -51 -8q-52 0 -52 53v344z" />
    <glyph glyph-name="upsilondieresistonos" unicode="&#x3b0;" horiz-adv-x="608" 
d="M254 572l8 168h139l-48 -168h-99zM146 582q-33 0 -54.5 21.5t-21.5 54.5t22 55t55 22t54.5 -21.5t21.5 -53.5q0 -33 -22 -55.5t-55 -22.5zM489 582q-33 0 -54.5 21.5t-21.5 54.5t22 55t55 22t54.5 -21.5t21.5 -53.5q0 -33 -22 -55.5t-55 -22.5zM554 245v272h-146v-276
q0 -53 -29.5 -85.5t-74.5 -32.5q-46 0 -75.5 32.5t-29.5 85.5v276h-145v-277q0 -110 69.5 -180t177.5 -70q109 0 181 72t72 183z" />
    <glyph glyph-name="alpha" unicode="&#x3b1;" horiz-adv-x="734" 
d="M692 128l22 -114q-36 -24 -115 -24q-111 0 -144 87q-26 -37 -70 -62t-101 -25q-103 0 -176 77t-73 189q0 113 75 192t179 79q105 0 167 -83l12 73h121v-344q0 -53 51 -53q14 0 27 2t19 4zM314 123q57 0 95.5 39t38.5 96t-38.5 96t-95.5 39t-95.5 -39t-38.5 -96t38.5 -96
t95.5 -39z" />
    <glyph glyph-name="beta" unicode="&#x3b2;" horiz-adv-x="620" 
d="M473 370q112 -54 112 -170q0 -91 -66 -150.5t-168 -59.5q-87 0 -146 45v-195h-145v626q0 109 70 176.5t181 67.5q108 0 176 -55t68 -140q0 -90 -82 -145zM328 112q51 0 81.5 27t30.5 69t-30.5 69t-82.5 27h-59v114h42q44 0 72 24t28 61t-28 61t-72 24q-46 0 -75.5 -32.5
t-29.5 -86.5v-247q0 -48 35 -79t88 -31z" />
    <glyph glyph-name="gamma" unicode="&#x3b3;" horiz-adv-x="543" 
d="M394 517h154l-204 -517v-160h-145v160l-204 517h162l118 -335z" />
    <glyph glyph-name="delta" unicode="&#x3b4;" horiz-adv-x="629" 
d="M420 506q174 -107 174 -249q0 -111 -81.5 -189t-200.5 -78t-198 75.5t-79 186.5q0 49 16.5 90t44.5 70t55.5 48t58.5 33l-145 103v104h499v-122h-262zM315 120q57 0 95.5 38t38.5 94q0 44 -27 78t-80 70l-21 15q-22 -7 -42.5 -18.5t-44.5 -30.5t-39 -48t-15 -63
q0 -57 38.5 -96t96.5 -39z" />
    <glyph glyph-name="epsilon" unicode="&#x3b5;" horiz-adv-x="533" 
d="M293 -10q-123 0 -190.5 40t-67.5 108q0 46 29 80.5t79 49.5q-93 35 -93 113q0 65 65 105.5t177 40.5q60 0 111.5 -14.5t72.5 -28.5l22 -15l-56 -89q-56 35 -142 35q-105 0 -105 -51t111 -51h61v-97h-61q-126 0 -126 -57q0 -26 30 -41.5t88 -15.5q43 0 83 11t59 22l18 11
l58 -92q-3 -3 -9 -7t-26.5 -15t-44.5 -19.5t-62.5 -15.5t-80.5 -7z" />
    <glyph glyph-name="zeta" unicode="&#x3b6;" horiz-adv-x="512" 
d="M429 -169l-114 34q46 63 46 94q0 45 -63 49q-124 5 -193.5 61.5t-69.5 153.5q0 72 39 133t126 144l82 78h-217v122h414v-104l-176 -170q-63 -59 -93 -101t-30 -83q0 -89 153 -109q166 -22 166 -141q0 -40 -17.5 -80.5t-35.5 -60.5z" />
    <glyph glyph-name="eta" unicode="&#x3b7;" horiz-adv-x="614" 
d="M205 0h-145v517h129l7 -80q56 90 170 90q85 0 139.5 -56.5t54.5 -155.5v-475h-145v428q0 62 -28 93.5t-73 31.5q-48 0 -78.5 -32.5t-30.5 -97.5v-263z" />
    <glyph glyph-name="theta" unicode="&#x3b8;" horiz-adv-x="629" 
d="M317 710q122 0 199.5 -97t77.5 -260q0 -164 -80 -263.5t-202 -99.5t-199.5 97t-77.5 260q0 164 80 263.5t202 99.5zM315 580q-53 0 -89 -45t-46 -128h269q-10 83 -46 128t-88 45zM315 120q54 0 90 47t45 134h-271q9 -87 45.5 -134t90.5 -47z" />
    <glyph glyph-name="iota" unicode="&#x3b9;" horiz-adv-x="350" 
d="M205 517h-145v-377q0 -72 42 -111t113 -39q35 0 64 6t40 12l11 6l-22 114q-20 -8 -51 -8q-52 0 -52 53v344z" />
    <glyph glyph-name="kappa" unicode="&#x3ba;" horiz-adv-x="593" 
d="M60 0v517h145v-220l194 220h181l-227 -235l247 -282h-184l-211 252v-252h-145z" />
    <glyph glyph-name="lambda" unicode="&#x3bb;" horiz-adv-x="543" 
d="M-5 0l203 509q-31 67 -91 67q-20 0 -36.5 -5.5t-22.5 -10.5l-7 -6l-46 121q47 34 125 34q79 0 130.5 -44t88.5 -136l209 -529h-162l-119 341l-118 -341h-154z" />
    <glyph glyph-name="uni03BC" unicode="&#x3bc;" horiz-adv-x="705" 
d="M663 128l22 -114q-36 -24 -115 -24q-114 0 -145 89q-62 -89 -163 -89q-30 0 -57 11v-161h-145v677h145v-268q0 -63 28 -94.5t73 -31.5q48 0 78.5 32.5t30.5 98.5v263h145v-344q0 -53 51 -53q14 0 27 2t19 4z" />
    <glyph glyph-name="nu" unicode="&#x3bd;" horiz-adv-x="543" 
d="M201 0l-206 517h162l118 -327l119 327h154l-206 -517h-141z" />
    <glyph glyph-name="xi" unicode="&#x3be;" horiz-adv-x="527" 
d="M345 127q169 -19 169 -135q0 -40 -17.5 -80.5t-34.5 -60.5l-18 -20l-114 34q46 63 46 94q0 45 -64 49q-130 5 -203.5 54.5t-73.5 145.5q0 106 123 154q-103 45 -103 149q0 91 74.5 145t191.5 54q54 0 102 -13t69 -26l20 -13l-58 -102q-6 3 -17 8t-44 12.5t-65 7.5
q-58 -1 -93 -22t-35 -59q0 -39 35 -60.5t93 -21.5h82v-118h-99q-58 0 -94.5 -23t-36.5 -60q0 -32 24.5 -52t56 -27.5t84.5 -13.5z" />
    <glyph glyph-name="omicron" unicode="&#x3bf;" horiz-adv-x="629" 
d="M35 256q0 114 81 192.5t201 78.5t198.5 -76t78.5 -190t-81 -192.5t-201 -78.5t-198.5 76t-78.5 190zM180 258q0 -57 38.5 -96t96.5 -39q57 0 95.5 39t38.5 96t-38.5 96t-95.5 39q-58 0 -96.5 -39t-38.5 -96z" />
    <glyph glyph-name="pi" unicode="&#x3c0;" horiz-adv-x="710" 
d="M20 517h660v-121h-125v-223q0 -53 52 -53q14 0 26.5 2t18.5 4l6 2l22 -114q-36 -24 -115 -24q-71 0 -113 39t-42 111v256h-140v-396h-145v396h-105v121z" />
    <glyph glyph-name="rho" unicode="&#x3c1;" horiz-adv-x="648" 
d="M54 238q0 128 78.5 208.5t203.5 80.5q120 0 198.5 -76t78.5 -190q0 -113 -75 -192t-179 -79t-160 76v-226h-145v398zM199 258q0 -57 38.5 -96t95.5 -39t95.5 39t38.5 96t-38.5 96t-95.5 39t-95.5 -39t-38.5 -96z" />
    <glyph glyph-name="uni03C2" unicode="&#x3c2;" horiz-adv-x="538" 
d="M446 -169l-114 34q47 63 47 94q0 45 -65 49q-127 5 -203 70t-76 179q0 112 81.5 191t200.5 79q38 0 72.5 -9t56.5 -21.5t39.5 -25t24.5 -21.5l8 -9l-98 -95q-4 5 -12.5 13t-36.5 21t-60 13q-56 0 -93.5 -37t-37.5 -89q0 -115 167 -134q170 -19 170 -141
q0 -40 -17.5 -80.5t-35.5 -60.5z" />
    <glyph glyph-name="sigma" unicode="&#x3c3;" horiz-adv-x="647" 
d="M624 517v-119h-98q68 -61 68 -149q0 -108 -81.5 -183.5t-200.5 -75.5q-120 0 -198.5 74.5t-78.5 187.5t81 189t201 76h307zM315 121q57 0 95.5 39t38.5 96q0 56 -38.5 94t-95.5 38q-58 0 -96.5 -38t-38.5 -94q0 -57 38.5 -96t96.5 -39z" />
    <glyph glyph-name="tau" unicode="&#x3c4;" horiz-adv-x="510" 
d="M349 -10q-84 0 -134 49t-50 134v222h-145v122h460v-122h-170v-189q0 -40 21 -61.5t56 -21.5q17 0 36 3t29 6l11 3l17 -121q-51 -24 -131 -24z" />
    <glyph glyph-name="upsilon" unicode="&#x3c5;" horiz-adv-x="608" 
d="M554 245v272h-146v-276q0 -53 -29.5 -85.5t-74.5 -32.5q-46 0 -75.5 32.5t-29.5 85.5v276h-145v-277q0 -110 69.5 -180t177.5 -70q109 0 181 72t72 183z" />
    <glyph glyph-name="phi" unicode="&#x3c6;" horiz-adv-x="800" 
d="M765 261q0 -111 -83.5 -188.5t-212.5 -82.5v-150h-138v150q-132 4 -214 79t-82 187q0 111 83.5 188.5t212.5 82.5v173h138v-173q132 -4 214 -79t82 -187zM180 258q0 -56 41.5 -95t109.5 -43v277q-68 -4 -109.5 -43.5t-41.5 -95.5zM469 120q68 4 109.5 43t41.5 95
t-41.5 95.5t-109.5 43.5v-277z" />
    <glyph glyph-name="chi" unicode="&#x3c7;" horiz-adv-x="578" 
d="M-5 -160l210 343l-200 334h171l116 -209l117 209h164l-200 -327l210 -350h-172l-125 225l-128 -225h-163z" />
    <glyph glyph-name="psi" unicode="&#x3c8;" horiz-adv-x="828" 
d="M628 517h146v-258q0 -117 -80 -191t-207 -78v-150h-146v150q-129 2 -208 74.5t-79 189.5v263h145v-261q0 -62 38 -97.5t104 -38.5v580h146v-580q65 3 103 38.5t38 97.5v261z" />
    <glyph glyph-name="omega" unicode="&#x3c9;" horiz-adv-x="905" 
d="M786 533l9 -12t20.5 -35.5t25.5 -58t20 -77.5t9 -95q0 -119 -65.5 -192t-174.5 -73q-121 0 -179 90q-63 -90 -181 -90q-108 0 -171.5 71t-63.5 189q0 78 21 148.5t42 102.5l21 32l130 -57q-3 -3 -7.5 -9.5t-16.5 -28t-21 -45t-16.5 -60t-7.5 -74.5q0 -64 28 -100t74 -36
q45 0 73 36t28 100v156h139v-156q0 -64 28 -100t73 -36q46 0 74 36t28 100q0 60 -17.5 114.5t-34.5 78.5l-17 24z" />
    <glyph glyph-name="iotadieresis" unicode="&#x3ca;" horiz-adv-x="350" 
d="M22 582q-33 0 -54.5 21.5t-21.5 54.5t22 55t55 22t54.5 -21.5t21.5 -53.5q0 -33 -22 -55.5t-55 -22.5zM242 582q-33 0 -54.5 21.5t-21.5 54.5t22 55t55 22t54.5 -21.5t21.5 -53.5q0 -33 -22 -55.5t-55 -22.5zM205 517h-145v-377q0 -72 42 -111t113 -39q35 0 64 6t40 12
l11 6l-22 114q-20 -8 -51 -8q-52 0 -52 53v344z" />
    <glyph glyph-name="upsilondieresis" unicode="&#x3cb;" horiz-adv-x="608" 
d="M193 582q-33 0 -54.5 21.5t-21.5 54.5t22 55t55 22t54.5 -21.5t21.5 -53.5q0 -33 -22 -55.5t-55 -22.5zM413 582q-33 0 -54.5 21.5t-21.5 54.5t22 55t55 22t54.5 -21.5t21.5 -53.5q0 -33 -22 -55.5t-55 -22.5zM554 245v272h-146v-276q0 -53 -29.5 -85.5t-74.5 -32.5
q-46 0 -75.5 32.5t-29.5 85.5v276h-145v-277q0 -110 69.5 -180t177.5 -70q109 0 181 72t72 183z" />
    <glyph glyph-name="omicrontonos" unicode="&#x3cc;" horiz-adv-x="629" 
d="M261 572l16 168h146l-56 -168h-106zM35 256q0 114 81 192.5t201 78.5t198.5 -76t78.5 -190t-81 -192.5t-201 -78.5t-198.5 76t-78.5 190zM180 258q0 -57 38.5 -96t96.5 -39q57 0 95.5 39t38.5 96t-38.5 96t-95.5 39q-58 0 -96.5 -39t-38.5 -96z" />
    <glyph glyph-name="upsilontonos" unicode="&#x3cd;" horiz-adv-x="608" 
d="M251 572l16 168h146l-56 -168h-106zM554 245v272h-146v-276q0 -53 -29.5 -85.5t-74.5 -32.5q-46 0 -75.5 32.5t-29.5 85.5v276h-145v-277q0 -110 69.5 -180t177.5 -70q109 0 181 72t72 183z" />
    <glyph glyph-name="omegatonos" unicode="&#x3ce;" horiz-adv-x="905" 
d="M561 740l-56 -168h-106l16 168h146zM786 533l9 -12t20.5 -35.5t25.5 -58t20 -77.5t9 -95q0 -119 -65.5 -192t-174.5 -73q-121 0 -179 90q-63 -90 -181 -90q-108 0 -171.5 71t-63.5 189q0 78 21 148.5t42 102.5l21 32l130 -57q-3 -3 -7.5 -9.5t-16.5 -28t-21 -45
t-16.5 -60t-7.5 -74.5q0 -64 28 -100t74 -36q45 0 73 36t28 100v156h139v-156q0 -64 28 -100t73 -36q46 0 74 36t28 100q0 60 -17.5 114.5t-34.5 78.5l-17 24z" />
    <glyph glyph-name="uni0400" unicode="&#x400;" horiz-adv-x="650" 
d="M280 752l-106 168h154l66 -168h-114zM80 0v700h515v-133h-362v-145h312v-124h-312v-165h372v-133h-525z" />
    <glyph glyph-name="uni0401" unicode="&#x401;" horiz-adv-x="650" 
d="M227 762q-33 0 -54.5 21.5t-21.5 54.5t22 55t55 22t54.5 -21.5t21.5 -53.5q0 -33 -22 -55.5t-55 -22.5zM447 762q-33 0 -54.5 21.5t-21.5 54.5t22 55t55 22t54.5 -21.5t21.5 -53.5q0 -33 -22 -55.5t-55 -22.5zM80 0v700h515v-133h-362v-145h312v-124h-312v-165h372v-133
h-525z" />
    <glyph glyph-name="uni0402" unicode="&#x402;" horiz-adv-x="842" 
d="M512 448q135 0 213.5 -61t78.5 -168q0 -108 -81.5 -168.5t-232.5 -60.5v130q73 0 117 27t44 72t-43.5 72t-116.5 27q-69 0 -119 -24v-294h-153v567h-204v133h560v-133h-203v-147q60 28 140 28z" />
    <glyph glyph-name="uni0403" unicode="&#x403;" horiz-adv-x="590" 
d="M270 755l66 168h154l-106 -168h-114zM80 700h495v-137h-342v-563h-153v700z" />
    <glyph glyph-name="uni0404" unicode="&#x404;" horiz-adv-x="713" 
d="M412 131q50 0 92.5 20.5t59.5 40.5l18 20l106 -95q-3 -5 -10 -13.5t-32 -30.5t-54.5 -39t-78.5 -30.5t-103 -13.5q-156 0 -260.5 102.5t-104.5 254.5t107 257.5t263 105.5q52 0 99.5 -12.5t78 -31t53 -36.5t32.5 -30l10 -13l-114 -90q-2 3 -6.5 8t-20 17t-33 21.5
t-45.5 17.5t-57 8q-74 0 -129.5 -42.5t-75.5 -111.5h268v-118h-271q17 -74 73.5 -120t134.5 -46z" />
    <glyph glyph-name="uni0405" unicode="&#x405;" horiz-adv-x="583" 
d="M212 523q0 -31 26.5 -53.5t99.5 -50.5q200 -79 200 -219q0 -90 -70 -150t-183 -60q-49 0 -94.5 11t-76 26t-53.5 30.5t-33 26.5l-11 11l90 98q9 -9 24.5 -22t64.5 -35t97 -22q39 0 63.5 19.5t24.5 49.5q0 35 -34 62.5t-125 64.5q-167 65 -167 201q0 87 67 143t176 56
q43 0 83 -9.5t66.5 -22.5t47.5 -26t31 -22l9 -10l-90 -98q-7 7 -19 17.5t-49.5 28.5t-76.5 18q-42 0 -65 -19t-23 -44z" />
    <glyph glyph-name="uni0406" unicode="&#x406;" horiz-adv-x="327" 
d="M85 700h157v-700h-157v700z" />
    <glyph glyph-name="uni0407" unicode="&#x407;" horiz-adv-x="327" 
d="M53 762q-33 0 -54.5 21.5t-21.5 54.5t22 55t55 22t54.5 -21.5t21.5 -53.5q0 -33 -22 -55.5t-55 -22.5zM273 762q-33 0 -54.5 21.5t-21.5 54.5t22 55t55 22t54.5 -21.5t21.5 -53.5q0 -33 -22 -55.5t-55 -22.5zM85 700h157v-700h-157v700z" />
    <glyph glyph-name="uni0408" unicode="&#x408;" horiz-adv-x="494" 
d="M160 -10q-44 0 -81 8t-52 16l-15 7l42 134q34 -20 94 -20q53 0 86 36t33 99v430h157v-439q0 -123 -74 -197t-190 -74z" />
    <glyph glyph-name="uni0409" unicode="&#x409;" horiz-adv-x="1171" 
d="M15 -4l12 129q12 -2 22 -2q91 0 99 106l37 471h535v-222h149q119 0 191 -65.5t72 -171.5t-74 -173.5t-192 -67.5h-299v563h-239l-28 -323q-9 -122 -70.5 -186t-172.5 -64zM720 129h135q56 0 90 31.5t34 80.5t-34 80t-90 31h-135v-223z" />
    <glyph glyph-name="uni040A" unicode="&#x40a;" horiz-adv-x="1141" 
d="M80 0v700h153v-269h304v269h153v-222h149q119 0 191 -65.5t72 -171.5t-74 -173.5t-192 -67.5h-299v295h-304v-295h-153zM690 129h135q56 0 90 31.5t34 80.5t-34 80t-90 31h-135v-223z" />
    <glyph glyph-name="uni040B" unicode="&#x40b;" horiz-adv-x="842" 
d="M512 448q135 0 213.5 -74.5t78.5 -202.5v-171h-153v157q0 70 -43 111.5t-117 41.5q-69 0 -119 -24v-286h-153v567h-204v133h560v-133h-203v-147q60 28 140 28z" />
    <glyph glyph-name="uni040C" unicode="&#x40c;" horiz-adv-x="712" 
d="M296 752l66 168h154l-106 -168h-114zM80 0v700h153v-313l271 313h195l-307 -332l327 -368h-195l-291 333v-333h-153z" />
    <glyph glyph-name="uni040D" unicode="&#x40d;" horiz-adv-x="790" 
d="M338 752l-106 168h154l66 -168h-114zM557 471l-328 -471h-149v700h153v-459l319 459h158v-700h-153v471z" />
    <glyph glyph-name="uni040E" unicode="&#x40e;" horiz-adv-x="715" 
d="M362 755q-75 0 -123 45.5t-48 117.5v5h100v-13q0 -31 19.5 -50.5t52.5 -19.5t51.5 19.5t18.5 50.5v13h100v-5q0 -72 -48 -117.5t-123 -45.5zM548 700h165l-274 -538q-88 -172 -237 -172q-38 0 -72.5 8t-50.5 16l-16 9l45 127q40 -23 93 -23q42 0 78 34l-277 539h174
l188 -395z" />
    <glyph glyph-name="uni040F" unicode="&#x40f;" horiz-adv-x="770" 
d="M80 0v700h153v-563h304v563h153v-700h-232v-120h-146v120h-232z" />
    <glyph glyph-name="uni0410" unicode="&#x410;" horiz-adv-x="725" 
d="M2 0l284 700h153l284 -700h-169l-56 147h-279l-56 -147h-161zM261 268h194l-96 256z" />
    <glyph glyph-name="uni0411" unicode="&#x411;" horiz-adv-x="684" 
d="M80 0v700h505v-129h-352v-133h145q119 0 193 -60.5t74 -160.5q0 -101 -71.5 -159t-190.5 -58h-303zM233 129h146q53 0 83 26.5t30 67.5q0 40 -30 66.5t-83 26.5h-146v-187z" />
    <glyph glyph-name="uni0412" unicode="&#x412;" horiz-adv-x="690" 
d="M80 0v700h314q100 0 160 -50t60 -129q0 -50 -25.5 -90.5t-71.5 -64.5q60 -20 94 -66t34 -106q0 -83 -65.5 -138.5t-167.5 -55.5h-332zM233 415h128q46 0 73 24t27 59q0 36 -27 60t-73 24h-128v-167zM233 118h151q50 0 79 27t29 67t-29 66.5t-79 26.5h-151v-187z" />
    <glyph glyph-name="uni0413" unicode="&#x413;" horiz-adv-x="590" 
d="M80 700h495v-137h-342v-563h-153v700z" />
    <glyph glyph-name="uni0414" unicode="&#x414;" horiz-adv-x="835" 
d="M723 137h97v-257h-145v120h-515v-120h-145v257h37q90 0 99 105l36 458h536v-563zM303 246q-6 -67 -32 -109h299v426h-240z" />
    <glyph glyph-name="uni0415" unicode="&#x415;" horiz-adv-x="650" 
d="M80 0v700h515v-133h-362v-145h312v-124h-312v-165h372v-133h-525z" />
    <glyph glyph-name="uni0416" unicode="&#x416;" horiz-adv-x="1105" 
d="M-8 0l328 368l-308 332h193l271 -313v313h153v-313l271 313h193l-308 -332l328 -368h-193l-291 333v-333h-153v333l-291 -333h-193z" />
    <glyph glyph-name="uni0417" unicode="&#x417;" horiz-adv-x="627" 
d="M284 -10q-51 0 -97.5 10t-76 24.5t-52 29t-32.5 24.5l-9 10l82 100q8 -7 22.5 -18t61 -29.5t95.5 -18.5q71 0 111.5 25.5t40.5 63.5q0 41 -42 66t-121 25h-72v116h72q69 0 106 22t37 60q0 37 -36 57.5t-99 20.5q-42 0 -80.5 -14t-56.5 -28l-18 -13l-78 98q3 4 9.5 10
t29 21t48.5 27t68.5 21.5t88.5 9.5q124 0 200.5 -52t76.5 -137q0 -52 -33 -92.5t-88 -63.5q64 -21 102.5 -65.5t38.5 -105.5q0 -92 -81.5 -148t-217.5 -56z" />
    <glyph glyph-name="uni0418" unicode="&#x418;" horiz-adv-x="790" 
d="M557 471l-328 -471h-149v700h153v-459l319 459h158v-700h-153v471z" />
    <glyph glyph-name="uni0419" unicode="&#x419;" horiz-adv-x="790" 
d="M395 752q-75 0 -123 45.5t-48 117.5v5h100v-13q0 -31 19.5 -50.5t52.5 -19.5t51.5 19.5t18.5 50.5v13h100v-5q0 -72 -48 -117.5t-123 -45.5zM557 471l-328 -471h-149v700h153v-459l319 459h158v-700h-153v471z" />
    <glyph glyph-name="uni041A" unicode="&#x41a;" horiz-adv-x="712" 
d="M80 0v700h153v-313l271 313h195l-307 -332l327 -368h-195l-291 333v-333h-153z" />
    <glyph glyph-name="uni041B" unicode="&#x41b;" horiz-adv-x="800" 
d="M57 -10l-42 6l12 129q12 -2 22 -2q91 0 99 106l37 471h535v-700h-153v563h-239l-28 -323q-9 -122 -70.5 -186t-172.5 -64z" />
    <glyph glyph-name="uni041C" unicode="&#x41c;" horiz-adv-x="890" 
d="M228 441v-441h-148v700h157l212 -405l212 405h149v-700h-148v441l-177 -336h-80z" />
    <glyph glyph-name="uni041D" unicode="&#x41d;" horiz-adv-x="770" 
d="M80 0v700h153v-269h304v269h153v-700h-153v295h-304v-295h-153z" />
    <glyph glyph-name="uni041E" unicode="&#x41e;" horiz-adv-x="825" 
d="M45 347q0 152 107 257.5t263 105.5t260.5 -102.5t104.5 -254.5t-107 -257.5t-263 -105.5t-260.5 102.5t-104.5 254.5zM198 350q0 -93 61 -156t153 -63q93 0 154 63t61 156t-61 156t-154 63q-92 0 -153 -63t-61 -156z" />
    <glyph glyph-name="uni041F" unicode="&#x41f;" horiz-adv-x="770" 
d="M80 0v700h610v-700h-153v563h-304v-563h-153z" />
    <glyph glyph-name="uni0420" unicode="&#x420;" horiz-adv-x="684" 
d="M80 0v700h303q118 0 190 -65.5t72 -171.5q0 -105 -74.5 -173t-192.5 -68h-145v-222h-153zM233 348h135q56 0 90 31t34 80t-34 80.5t-90 31.5h-135v-223z" />
    <glyph glyph-name="uni0421" unicode="&#x421;" horiz-adv-x="713" 
d="M410 -10q-156 0 -260.5 102.5t-104.5 254.5t107 257.5t263 105.5q52 0 98.5 -12t76 -29t52 -33.5t32.5 -28.5l9 -12l-110 -95q-2 3 -6.5 7.5t-19.5 16.5t-32 21t-45 16.5t-58 7.5q-92 0 -153 -63t-61 -156t61 -156t153 -63q32 0 61 8t48.5 19.5t34 23.5t21.5 19.5t7 8.5
l104 -93q-3 -5 -10 -13.5t-32 -30.5t-54.5 -39t-78.5 -30.5t-103 -13.5z" />
    <glyph glyph-name="uni0422" unicode="&#x422;" horiz-adv-x="590" 
d="M372 567v-567h-153v567h-204v133h560v-133h-203z" />
    <glyph glyph-name="uni0423" unicode="&#x423;" horiz-adv-x="715" 
d="M548 700h165l-274 -538q-88 -172 -237 -172q-38 0 -72.5 8t-50.5 16l-16 9l45 127q40 -23 93 -23q42 0 78 34l-277 539h174l188 -395z" />
    <glyph glyph-name="uni0424" unicode="&#x424;" horiz-adv-x="960" 
d="M915 353q0 -140 -102 -237t-260 -104v-62h-146v62q-160 4 -261 99t-101 236q0 140 102 237t260 104v62h146v-62q160 -4 261 -99t101 -236zM553 146q95 5 152 61.5t57 142.5t-57 142.5t-152 61.5v-408zM198 350q0 -86 57 -142.5t152 -61.5v408q-95 -5 -152 -61.5
t-57 -142.5z" />
    <glyph glyph-name="uni0425" unicode="&#x425;" horiz-adv-x="724" 
d="M2 0l269 356l-257 344h186l165 -228l167 228h178l-259 -342l270 -358h-186l-178 244l-177 -244h-178z" />
    <glyph glyph-name="uni0426" unicode="&#x426;" horiz-adv-x="803" 
d="M690 137h98v-257h-146v120h-562v700h153v-563h304v563h153v-563z" />
    <glyph glyph-name="uni0427" unicode="&#x427;" horiz-adv-x="704" 
d="M471 700h153v-700h-153v238q-60 -28 -140 -28q-136 0 -214 74.5t-78 202.5v213h153v-200q0 -71 43 -112t116 -41q66 0 120 24v329z" />
    <glyph glyph-name="uni0428" unicode="&#x428;" horiz-adv-x="1170" 
d="M80 0v700h153v-563h276v563h153v-563h275v563h153v-700h-1010z" />
    <glyph glyph-name="uni0429" unicode="&#x429;" horiz-adv-x="1203" 
d="M1090 137h98v-257h-146v120h-962v700h153v-563h276v563h153v-563h275v563h153v-563z" />
    <glyph glyph-name="uni042A" unicode="&#x42a;" horiz-adv-x="764" 
d="M15 571v129h298v-222h150q118 0 190 -65.5t72 -171.5t-74 -173.5t-193 -67.5h-298v571h-145zM313 129h135q56 0 90 31.5t34 80.5t-34 80t-90 31h-135v-223z" />
    <glyph glyph-name="uni042B" unicode="&#x42b;" horiz-adv-x="1011" 
d="M80 0v700h153v-222h149q118 0 190.5 -66t72.5 -171q0 -106 -74 -173.5t-192 -67.5h-299zM769 700h157v-700h-157v700zM233 129h135q56 0 90 31.5t34 80.5t-34 80t-90 31h-135v-223z" />
    <glyph glyph-name="uni042C" unicode="&#x42c;" horiz-adv-x="684" 
d="M80 0v700h153v-222h149q118 0 190.5 -66t72.5 -171q0 -106 -74 -173.5t-192 -67.5h-299zM233 129h135q56 0 90 31.5t34 80.5t-34 80t-90 31h-135v-223z" />
    <glyph glyph-name="uni042D" unicode="&#x42d;" horiz-adv-x="711" 
d="M301 710q156 0 260.5 -102.5t104.5 -254.5t-107 -257.5t-263 -105.5q-52 0 -99.5 13t-77.5 31t-52 36.5t-32 31.5l-10 13l111 87q7 -8 19.5 -20t54.5 -31.5t88 -19.5q79 0 136 46.5t73 120.5h-271v118h268q-20 69 -75.5 111t-130.5 42q-49 0 -91.5 -20t-60.5 -40l-18 -20
l-103 92q3 5 10 14t31.5 31t53.5 39t78 31t103 14z" />
    <glyph glyph-name="uni042E" unicode="&#x42e;" horiz-adv-x="1147" 
d="M737 710q156 0 260.5 -102.5t104.5 -254.5t-107 -257.5t-263 -105.5q-138 0 -237.5 82t-121.5 210h-136v-282h-157v700h157v-282h137q24 127 125 209.5t238 82.5zM734 131q93 0 154 63t61 156t-61 156t-154 63q-92 0 -153 -63t-61 -156t61 -156t153 -63z" />
    <glyph glyph-name="uni042F" unicode="&#x42f;" horiz-adv-x="698" 
d="M618 700v-700h-153v241h-111l-157 -241h-175l178 263q-67 25 -107.5 80t-40.5 128q0 103 71.5 166t186.5 63h308zM465 571h-141q-55 0 -87 -29.5t-32 -76.5t32 -76.5t87 -29.5h141v212z" />
    <glyph glyph-name="uni0430" unicode="&#x430;" horiz-adv-x="571" 
d="M37 147q0 70 56 116t147 46q79 0 132 -37v22q0 51 -32 79t-85 28q-35 0 -67 -10t-47 -20l-15 -10l-59 101q8 7 24.5 18t72 29t116.5 18q111 0 174.5 -62t63.5 -172v-293h-113l-12 44q-57 -54 -157 -54q-91 0 -145 44t-54 113zM183 153q0 -30 26.5 -50.5t68.5 -20.5
q45 0 72 20.5t27 50.5t-27 50.5t-72 20.5q-42 0 -68.5 -20.5t-26.5 -50.5z" />
    <glyph glyph-name="uni0431" unicode="&#x431;" horiz-adv-x="629" 
d="M348 475q109 0 177.5 -65t68.5 -169q0 -105 -79.5 -178t-194.5 -73q-127 0 -206 79.5t-79 217.5q0 186 99 291t274 117q25 1 46.5 5t30.5 7l9 3l36 -115q-30 -26 -124 -33q-107 -8 -166.5 -55t-79.5 -134q59 102 188 102zM315 116q57 0 95.5 35.5t38.5 86.5
q0 52 -38 87.5t-95 35.5q-58 0 -97 -35t-39 -86q0 -52 38.5 -88t96.5 -36z" />
    <glyph glyph-name="uni0432" unicode="&#x432;" horiz-adv-x="588" 
d="M60 0v517h304q75 0 120.5 -37t45.5 -95q0 -75 -75 -115q45 -15 71.5 -48.5t26.5 -77.5q0 -62 -49 -103t-127 -41h-317zM205 311h114q31 0 48.5 14t17.5 38q0 25 -17.5 39t-48.5 14h-114v-105zM205 101h131q33 0 52.5 16t19.5 44q0 27 -19.5 43t-52.5 16h-131v-119z" />
    <glyph glyph-name="uni0433" unicode="&#x433;" horiz-adv-x="450" 
d="M60 0v517h375v-130h-230v-387h-145z" />
    <glyph glyph-name="uni0434" unicode="&#x434;" horiz-adv-x="719" 
d="M617 129h87v-249h-138v120h-413v-120h-138v249h53q63 0 71 74l32 314h446v-388zM283 194q-4 -37 -19 -65h207v258h-167z" />
    <glyph glyph-name="uni0435" unicode="&#x435;" horiz-adv-x="601" 
d="M312 -10q-120 0 -198.5 76t-78.5 190t80 192.5t198 78.5q108 0 182.5 -73.5t74.5 -175.5q0 -13 -1.5 -25t-2.5 -17l-2 -6h-381q7 -51 45 -82.5t94 -31.5q25 0 48.5 6.5t38.5 15t26.5 17.5t16.5 15l5 7l86 -83q-3 -4 -8.5 -11t-26 -25t-45 -32t-65.5 -25t-86 -11zM183 318
h247q-7 42 -41 71.5t-78 29.5q-48 0 -83 -28.5t-45 -72.5z" />
    <glyph glyph-name="uni0436" unicode="&#x436;" horiz-adv-x="915" 
d="M-8 0l248 282l-228 235h179l194 -221v221h145v-221l194 221h179l-227 -235l247 -282h-182l-211 252v-252h-145v252l-211 -252h-182z" />
    <glyph glyph-name="uni0437" unicode="&#x437;" horiz-adv-x="533" 
d="M240 -10q-66 0 -122 16t-78 32l-23 16l58 94q7 -5 20 -12.5t55 -20.5t85 -13q58 0 88 15.5t30 42.5q0 58 -126 58h-61v96h61q111 0 111 50t-105 50q-38 0 -73.5 -9t-51.5 -18l-17 -9l-56 91q8 6 23.5 16t69 26t113.5 16q113 0 177.5 -39t64.5 -102q0 -39 -26.5 -69.5
t-69.5 -46.5q50 -16 80.5 -49t30.5 -78q0 -70 -68 -111.5t-190 -41.5z" />
    <glyph glyph-name="uni0438" unicode="&#x438;" horiz-adv-x="640" 
d="M435 321l-233 -321h-142v517h145v-313l225 313h150v-517h-145v321z" />
    <glyph glyph-name="uni0439" unicode="&#x439;" horiz-adv-x="640" 
d="M320 572q-75 0 -123 45.5t-48 117.5v5h100v-13q0 -31 19.5 -50.5t52.5 -19.5t51.5 19.5t18.5 50.5v13h100v-5q0 -72 -48 -117.5t-123 -45.5zM435 321l-233 -321h-142v517h145v-313l225 313h150v-517h-145v321z" />
    <glyph glyph-name="uni043A" unicode="&#x43a;" horiz-adv-x="593" 
d="M60 0v517h145v-220l194 220h181l-227 -235l247 -282h-184l-211 252v-252h-145z" />
    <glyph glyph-name="uni043B" unicode="&#x43b;" horiz-adv-x="650" 
d="M56 -10l-41 5l11 122q8 -2 16 -2q63 0 71 74l31 328h446v-517h-145v387h-167l-21 -199q-19 -198 -201 -198z" />
    <glyph glyph-name="uni043C" unicode="&#x43c;" horiz-adv-x="720" 
d="M199 300v-300h-139v517h147l156 -277l157 277h140v-517h-139v300l-126 -223h-70z" />
    <glyph glyph-name="uni043D" unicode="&#x43d;" horiz-adv-x="620" 
d="M60 0v517h145v-184h210v184h145v-517h-145v204h-210v-204h-145z" />
    <glyph glyph-name="uni043E" unicode="&#x43e;" horiz-adv-x="629" 
d="M35 256q0 114 81 192.5t201 78.5t198.5 -76t78.5 -190t-81 -192.5t-201 -78.5t-198.5 76t-78.5 190zM180 258q0 -57 38.5 -96t96.5 -39q57 0 95.5 39t38.5 96t-38.5 96t-95.5 39q-58 0 -96.5 -39t-38.5 -96z" />
    <glyph glyph-name="uni043F" unicode="&#x43f;" horiz-adv-x="620" 
d="M60 0v517h500v-517h-145v387h-210v-387h-145z" />
    <glyph glyph-name="uni0440" unicode="&#x440;" horiz-adv-x="649" 
d="M60 517h121l12 -77q64 87 172 87q103 0 176 -77t73 -189q0 -113 -75 -192t-179 -79q-95 0 -155 68v-218h-145v677zM200 258q0 -57 38.5 -96t95.5 -39t95.5 39t38.5 96t-38.5 96t-95.5 39t-95.5 -39t-38.5 -96z" />
    <glyph glyph-name="uni0441" unicode="&#x441;" horiz-adv-x="538" 
d="M312 -10q-120 0 -198.5 76t-78.5 190t81 192.5t201 78.5q38 0 72.5 -9t56.5 -21.5t39.5 -25t24.5 -21.5l8 -9l-98 -95q-4 5 -12.5 13t-35.5 21t-57 13q-58 0 -96.5 -39t-38.5 -96t38.5 -96t96.5 -39q32 0 59.5 13t38.5 26l11 13l97 -91q-3 -4 -8.5 -10t-25 -22.5t-42 -29
t-58.5 -22.5t-75 -10z" />
    <glyph glyph-name="uni0442" unicode="&#x442;" horiz-adv-x="480" 
d="M313 391v-391h-146v391h-152v126h450v-126h-152z" />
    <glyph glyph-name="uni0443" unicode="&#x443;" horiz-adv-x="543" 
d="M-5 517h162l118 -342l119 342h154l-206 -522q-67 -165 -213 -165q-37 0 -70.5 8.5t-48.5 17.5l-15 8l46 113q27 -20 74 -20q59 0 83 51z" />
    <glyph glyph-name="uni0444" unicode="&#x444;" horiz-adv-x="800" 
d="M765 261q0 -111 -83.5 -188.5t-212.5 -82.5v-150h-138v150q-132 4 -214 79t-82 187q0 111 83.5 188.5t212.5 82.5v173h138v-173q132 -4 214 -79t82 -187zM180 258q0 -56 41.5 -95t109.5 -43v277q-68 -4 -109.5 -43.5t-41.5 -95.5zM469 120q68 4 109.5 43t41.5 95
t-41.5 95.5t-109.5 43.5v-277z" />
    <glyph glyph-name="uni0445" unicode="&#x445;" horiz-adv-x="578" 
d="M376 267l207 -267h-172l-125 167l-128 -167h-163l206 262l-196 255h171l116 -156l117 156h164z" />
    <glyph glyph-name="uni0446" unicode="&#x446;" horiz-adv-x="663" 
d="M560 129h88v-249h-138v120h-450v517h145v-388h210v388h145v-388z" />
    <glyph glyph-name="uni0447" unicode="&#x447;" horiz-adv-x="571" 
d="M365 517h146v-517h-146v152q-46 -22 -109 -22q-103 0 -163.5 58t-60.5 156v173h146v-149q0 -51 27.5 -80t78.5 -29q45 0 81 17v241z" />
    <glyph glyph-name="uni0448" unicode="&#x448;" horiz-adv-x="930" 
d="M60 0v517h145v-388h187v388h146v-388h187v388h145v-517h-810z" />
    <glyph glyph-name="uni0449" unicode="&#x449;" horiz-adv-x="973" 
d="M870 129h88v-249h-138v120h-760v517h145v-388h187v388h146v-388h187v388h145v-388z" />
    <glyph glyph-name="uni044A" unicode="&#x44a;" horiz-adv-x="635" 
d="M15 395v122h270v-154h106q94 0 152.5 -51.5t58.5 -131.5q0 -81 -57 -130.5t-150 -49.5h-255v395h-125zM285 110h88q39 0 61.5 20t22.5 53t-22.5 53t-61.5 20h-88v-146z" />
    <glyph glyph-name="uni044B" unicode="&#x44b;" horiz-adv-x="832" 
d="M60 0v517h145v-154h109q93 0 150.5 -49.5t57.5 -129.5q0 -81 -58 -132.5t-152 -51.5h-252zM620 517h147v-517h-147v517zM205 110h88q39 0 61.5 20t22.5 53t-22.5 53t-61.5 20h-88v-146z" />
    <glyph glyph-name="uni044C" unicode="&#x44c;" horiz-adv-x="555" 
d="M60 0v517h145v-154h109q93 0 150.5 -49.5t57.5 -129.5q0 -81 -58 -132.5t-152 -51.5h-252zM205 110h88q39 0 61.5 20t22.5 53t-22.5 53t-61.5 20h-88v-146z" />
    <glyph glyph-name="uni044D" unicode="&#x44d;" horiz-adv-x="536" 
d="M224 527q120 0 199 -76t79 -190t-81.5 -192.5t-201.5 -78.5q-38 0 -72 9t-56.5 22t-39.5 26.5t-25 22.5l-7 9l94 88q4 -5 12.5 -13.5t37 -22t59.5 -13.5q46 0 80.5 27t47.5 70h-178v95h175q-14 40 -47.5 64t-77.5 24q-34 0 -62.5 -13.5t-39.5 -26.5l-11 -14l-92 87
q3 4 8.5 10.5t24.5 23t41 29t58 23t75 10.5z" />
    <glyph glyph-name="uni044E" unicode="&#x44e;" horiz-adv-x="901" 
d="M589 527q120 0 198.5 -76t78.5 -190t-81 -192.5t-201 -78.5q-103 0 -177.5 58.5t-93.5 150.5h-106v-199h-147v517h147v-189h110q24 88 98.5 143.5t173.5 55.5zM587 123q57 0 95.5 39t38.5 96t-38.5 96t-95.5 39t-95.5 -39t-38.5 -96t38.5 -96t95.5 -39z" />
    <glyph glyph-name="uni044F" unicode="&#x44f;" horiz-adv-x="556" 
d="M254 517h257v-517h-145v172h-78l-106 -172h-163l124 193q-94 43 -94 149q0 79 56.5 127t148.5 48zM366 271v135h-93q-37 0 -58 -18t-21 -49t22.5 -49.5t56.5 -18.5h93z" />
    <glyph glyph-name="uni0450" unicode="&#x450;" horiz-adv-x="601" 
d="M256 572l-106 168h154l66 -168h-114zM312 -10q-120 0 -198.5 76t-78.5 190t80 192.5t198 78.5q108 0 182.5 -73.5t74.5 -175.5q0 -13 -1.5 -25t-2.5 -17l-2 -6h-381q7 -51 45 -82.5t94 -31.5q25 0 48.5 6.5t38.5 15t26.5 17.5t16.5 15l5 7l86 -83q-3 -4 -8.5 -11t-26 -25
t-45 -32t-65.5 -25t-86 -11zM183 318h247q-7 42 -41 71.5t-78 29.5q-48 0 -83 -28.5t-45 -72.5z" />
    <glyph glyph-name="uni0451" unicode="&#x451;" horiz-adv-x="601" 
d="M203 582q-33 0 -54.5 21.5t-21.5 54.5t22 55t55 22t54.5 -21.5t21.5 -53.5q0 -33 -22 -55.5t-55 -22.5zM423 582q-33 0 -54.5 21.5t-21.5 54.5t22 55t55 22t54.5 -21.5t21.5 -53.5q0 -33 -22 -55.5t-55 -22.5zM312 -10q-120 0 -198.5 76t-78.5 190t80 192.5t198 78.5
q108 0 182.5 -73.5t74.5 -175.5q0 -13 -1.5 -25t-2.5 -17l-2 -6h-381q7 -51 45 -82.5t94 -31.5q25 0 48.5 6.5t38.5 15t26.5 17.5t16.5 15l5 7l86 -83q-3 -4 -8.5 -11t-26 -25t-45 -32t-65.5 -25t-86 -11zM183 318h247q-7 42 -41 71.5t-78 29.5q-48 0 -83 -28.5t-45 -72.5z
" />
    <glyph glyph-name="uni0452" unicode="&#x452;" horiz-adv-x="646" 
d="M398 527q84 0 139.5 -56.5t55.5 -155.5v-267q0 -108 -51 -163t-145 -55l-63 6l9 122q17 -2 34 -2q70 0 70 79v233q0 62 -27.5 93.5t-72.5 31.5q-48 0 -78.5 -31t-30.5 -92v-270h-146v568h-72v83h72v49h146v-49h128v-83h-128v-123q56 82 160 82z" />
    <glyph glyph-name="uni0453" unicode="&#x453;" horiz-adv-x="450" 
d="M190 572l66 168h154l-106 -168h-114zM60 0v517h375v-130h-230v-387h-145z" />
    <glyph glyph-name="uni0454" unicode="&#x454;" horiz-adv-x="538" 
d="M428 172l93 -88q-3 -4 -8.5 -10t-25 -22.5t-42 -29t-58.5 -22.5t-75 -10q-120 0 -198.5 76t-78.5 190t81 192.5t201 78.5q38 0 72.5 -9t57 -21.5t39.5 -25.5t25 -22l8 -9l-95 -90q-4 5 -12.5 13t-37 21.5t-59.5 13.5q-44 0 -78 -24t-48 -64h175v-95h-178q13 -43 47.5 -70
t81.5 -27q34 0 62 13.5t39 26.5z" />
    <glyph glyph-name="uni0455" unicode="&#x455;" horiz-adv-x="470" 
d="M183 380q0 -19 19.5 -34.5t75.5 -32.5q76 -23 116.5 -64t40.5 -96q0 -72 -55 -117.5t-152 -45.5q-37 0 -72.5 7.5t-59.5 19t-43 22.5t-28 19l-9 7l62 93q8 -7 21 -17t52.5 -26.5t76.5 -16.5q31 0 47.5 12.5t16.5 31.5q0 21 -22 38t-88 38q-142 46 -142 155q0 64 53 109
t146 45q51 0 99.5 -16.5t71.5 -32.5l22 -17l-62 -94q-6 6 -17.5 14.5t-44.5 23t-65 14.5q-29 0 -44.5 -11.5t-15.5 -27.5z" />
    <glyph glyph-name="uni0456" unicode="&#x456;" horiz-adv-x="277" 
d="M47 659q0 36 26 60t66 24t65.5 -24t25.5 -60q0 -37 -25.5 -60.5t-65.5 -23.5t-66 23.5t-26 60.5zM65 517h147v-517h-147v517z" />
    <glyph glyph-name="uni0457" unicode="&#x457;" horiz-adv-x="277" 
d="M28 582q-33 0 -54.5 21.5t-21.5 54.5t22 55t55 22t54.5 -21.5t21.5 -53.5q0 -33 -22 -55.5t-55 -22.5zM248 582q-33 0 -54.5 21.5t-21.5 54.5t22 55t55 22t54.5 -21.5t21.5 -53.5q0 -33 -22 -55.5t-55 -22.5zM65 517h147v-517h-147v517z" />
    <glyph glyph-name="uni0458" unicode="&#x458;" horiz-adv-x="277" 
d="M47 659q0 36 26 60t66 24t65.5 -24t25.5 -60q0 -37 -25.5 -60.5t-65.5 -23.5t-66 23.5t-26 60.5zM212 517v-474q0 -104 -50.5 -158.5t-143.5 -54.5q-18 0 -38 3t-30 5l-11 3l18 120q19 -5 41 -5q67 0 67 74v487h147z" />
    <glyph glyph-name="uni0459" unicode="&#x459;" horiz-adv-x="939" 
d="M15 -5l11 122q8 -2 16 -2q63 0 71 74l31 328h446v-154h109q93 0 150.5 -49.5t57.5 -129.5q0 -81 -58.5 -132.5t-151.5 -51.5h-252v387h-167l-21 -199q-19 -198 -201 -198zM590 110h88q38 0 60.5 20t22.5 53t-22.5 53t-60.5 20h-88v-146z" />
    <glyph glyph-name="uni045A" unicode="&#x45a;" horiz-adv-x="909" 
d="M60 0v517h145v-184h210v184h145v-154h109q93 0 150.5 -49.5t57.5 -129.5q0 -81 -58.5 -132.5t-151.5 -51.5h-252v204h-210v-204h-145zM560 110h88q38 0 60.5 20t22.5 53t-22.5 53t-60.5 20h-88v-146z" />
    <glyph glyph-name="uni045B" unicode="&#x45b;" horiz-adv-x="646" 
d="M398 527q84 0 139.5 -56.5t55.5 -155.5v-315h-146v268q0 62 -27.5 93.5t-72.5 31.5q-48 0 -78.5 -31t-30.5 -92v-270h-146v568h-72v83h72v49h146v-49h128v-83h-128v-123q56 82 160 82z" />
    <glyph glyph-name="uni045C" unicode="&#x45c;" horiz-adv-x="593" 
d="M238 572l66 168h154l-106 -168h-114zM60 0v517h145v-220l194 220h181l-227 -235l247 -282h-184l-211 252v-252h-145z" />
    <glyph glyph-name="uni045D" unicode="&#x45d;" horiz-adv-x="640" 
d="M263 572l-106 168h154l66 -168h-114zM435 321l-233 -321h-142v517h145v-313l225 313h150v-517h-145v321z" />
    <glyph glyph-name="uni045E" unicode="&#x45e;" horiz-adv-x="543" 
d="M276 572q-75 0 -123 45.5t-48 117.5v5h100v-13q0 -31 19.5 -50.5t52.5 -19.5t51.5 19.5t18.5 50.5v13h100v-5q0 -72 -48 -117.5t-123 -45.5zM-5 517h162l118 -342l119 342h154l-206 -522q-67 -165 -213 -165q-37 0 -70.5 8.5t-48.5 17.5l-15 8l46 113q27 -20 74 -20
q59 0 83 51z" />
    <glyph glyph-name="uni045F" unicode="&#x45f;" horiz-adv-x="620" 
d="M60 0v517h145v-388h210v388h145v-517h-181v-120h-138v120h-181z" />
    <glyph glyph-name="uni0462" unicode="&#x462;" horiz-adv-x="721" 
d="M430 450q114 0 183.5 -61.5t69.5 -161.5t-71 -163.5t-185 -63.5h-310v524h-87v83h87v93h153v-93h160v-83h-160v-74h160zM412 125q52 0 85 28.5t33 73.5t-33 73.5t-85 28.5h-142v-204h142z" />
    <glyph glyph-name="uni0463" unicode="&#x463;" horiz-adv-x="587" 
d="M350 355q93 0 149 -48t56 -127q0 -80 -57 -130t-150 -50h-256v433h-72v84h72v183h146v-183h128v-84h-128v-78h112zM330 110q36 0 57.5 19t21.5 51q0 31 -21.5 50t-57.5 19h-92v-139h92z" />
    <glyph glyph-name="uni0472" unicode="&#x472;" horiz-adv-x="825" 
d="M415 710q156 0 260.5 -102.5t104.5 -254.5t-107 -257.5t-263 -105.5t-260.5 102.5t-104.5 254.5t107 257.5t263 105.5zM412 573q-77 0 -133 -45t-74 -118q43 24 100 24t118 -26t96 -26q64 0 101 29q-18 73 -74.5 117.5t-133.5 44.5zM412 127q80 0 137.5 48t72.5 126
q-43 -26 -103 -26q-57 0 -117.5 26.5t-95.5 26.5q-67 0 -103 -31q16 -76 73 -123t136 -47z" />
    <glyph glyph-name="uni0473" unicode="&#x473;" horiz-adv-x="629" 
d="M317 527q120 0 198.5 -76t78.5 -190t-81 -192.5t-201 -78.5t-198.5 76t-78.5 190t81 192.5t201 78.5zM315 412q-50 0 -85.5 -28t-47.5 -78q25 14 58 14q39 0 79 -17.5t65 -17.5q38 0 64 17q-11 52 -46.5 81t-86.5 29zM315 105q51 0 86.5 29t46.5 81q-28 -14 -59 -14
q-39 0 -78.5 17.5t-64.5 17.5q-40 0 -65 -18q10 -53 45.5 -83t88.5 -30z" />
    <glyph glyph-name="uni0474" unicode="&#x474;" horiz-adv-x="745" 
d="M281 0l-279 700h173l187 -502l115 301q42 120 96 165.5t160 45.5l-3 -140q-40 0 -61 -17.5t-42 -70.5l-193 -482h-153z" />
    <glyph glyph-name="uni0475" unicode="&#x475;" horiz-adv-x="572" 
d="M477 338l-135 -338h-141l-206 517h162l118 -327l64 168q33 95 79.5 132t138.5 37v-124q-30 0 -47 -13.5t-33 -51.5z" />
    <glyph glyph-name="uni0490" unicode="&#x490;" horiz-adv-x="590" 
d="M80 0v700h350v120h145v-257h-342v-563h-153z" />
    <glyph glyph-name="uni0491" unicode="&#x491;" horiz-adv-x="450" 
d="M60 0v517h237v120h138v-250h-230v-387h-145z" />
    <glyph glyph-name="uni0492" unicode="&#x492;" horiz-adv-x="590" 
d="M613 563h-343v-201h160v-84h-160v-278h-153v278h-87v84h87v338h496v-137z" />
    <glyph glyph-name="uni0493" unicode="&#x493;" horiz-adv-x="450" 
d="M468 387h-230v-127h121v-83h-121v-177h-146v177h-72v83h72v257h376v-130z" />
    <glyph glyph-name="uni0496" unicode="&#x496;" horiz-adv-x="1158" 
d="M991 137h152v-257h-146v120h-77l-291 333v-333h-153v333l-291 -333h-193l328 368l-308 332h193l271 -313v313h153v-313l271 313h193l-308 -332z" />
    <glyph glyph-name="uni0497" unicode="&#x497;" horiz-adv-x="958" 
d="M810 129h133v-249h-138v120h-64l-211 252v-252h-145v252l-211 -252h-182l248 282l-228 235h179l194 -221v221h145v-221l194 221h179l-227 -235z" />
    <glyph glyph-name="uni0498" unicode="&#x498;" horiz-adv-x="627" 
d="M583 194q0 -78 -59 -131t-162 -68v-115h-145v115q-61 8 -111 31.5t-70 42.5l-19 19l82 100q8 -7 22.5 -18t61 -29.5t95.5 -18.5q71 0 111.5 25.5t40.5 63.5q0 41 -42 66t-121 25h-72v116h72q69 0 106 22t37 60q0 37 -36 57.5t-99 20.5q-42 0 -80.5 -14t-56.5 -28l-18 -13
l-78 98q3 4 9.5 10t29 21t48.5 27t68.5 21.5t88.5 9.5q124 0 200.5 -52t76.5 -137q0 -52 -33 -92.5t-88 -63.5q64 -21 102.5 -65.5t38.5 -105.5z" />
    <glyph glyph-name="uni0499" unicode="&#x499;" horiz-adv-x="533" 
d="M498 143q0 -58 -48 -97t-136 -51v-115h-138v114q-47 6 -87 21t-56 27l-16 12l58 94q7 -5 20 -12.5t55 -20.5t85 -13q58 0 88 15.5t30 42.5q0 58 -126 58h-61v96h61q111 0 111 50t-105 50q-38 0 -73.5 -9t-51.5 -18l-17 -9l-56 91q8 6 23.5 16t69 26t113.5 16
q113 0 177.5 -39t64.5 -102q0 -39 -26.5 -69.5t-69.5 -46.5q50 -16 80.5 -49t30.5 -78z" />
    <glyph glyph-name="uni049A" unicode="&#x49a;" horiz-adv-x="762" 
d="M595 137h152v-257h-146v120h-77l-291 333v-333h-153v700h153v-313l271 313h193l-308 -332z" />
    <glyph glyph-name="uni049B" unicode="&#x49b;" horiz-adv-x="633" 
d="M485 129h133v-249h-138v120h-64l-211 252v-252h-145v517h145v-221l194 221h179l-228 -235z" />
    <glyph glyph-name="uni049C" unicode="&#x49c;" horiz-adv-x="809" 
d="M624 0l-250 299h-19v-164h-70v164h-52v-299h-153v700h153v-279h52v164h70v-164h18l231 279h193l-299 -332l319 -368h-193z" />
    <glyph glyph-name="uni049D" unicode="&#x49d;" horiz-adv-x="690" 
d="M516 0l-174 221h-24v-122h-70v122h-43v-221h-145v517h145v-189h43v122h70v-122h25l156 189h179l-218 -235l238 -282h-182z" />
    <glyph glyph-name="uni04A0" unicode="&#x4a0;" horiz-adv-x="789" 
d="M15 571v129h298v-313l271 313h193l-308 -332l328 -368h-193l-291 333v-333h-153v571h-145z" />
    <glyph glyph-name="uni04A1" unicode="&#x4a1;" horiz-adv-x="670" 
d="M15 395v122h270v-221l194 221h179l-228 -235l248 -282h-182l-211 252v-252h-145v395h-125z" />
    <glyph glyph-name="uni04A2" unicode="&#x4a2;" horiz-adv-x="803" 
d="M690 137h98v-257h-146v120h-105v295h-304v-295h-153v700h153v-269h304v269h153v-563z" />
    <glyph glyph-name="uni04A3" unicode="&#x4a3;" horiz-adv-x="663" 
d="M560 129h88v-249h-138v120h-95v204h-210v-204h-145v517h145v-184h210v184h145v-388z" />
    <glyph glyph-name="uni04A4" unicode="&#x4a4;" horiz-adv-x="1047" 
d="M80 0v700h153v-269h304v269h495v-137h-342v-563h-153v295h-304v-295h-153z" />
    <glyph glyph-name="uni04A5" unicode="&#x4a5;" horiz-adv-x="805" 
d="M60 0v517h145v-184h210v184h375v-130h-230v-387h-145v204h-210v-204h-145z" />
    <glyph glyph-name="uni04AA" unicode="&#x4aa;" horiz-adv-x="713" 
d="M688 117q-3 -4 -8 -10.5t-23.5 -24.5t-40.5 -32.5t-58 -30.5t-76 -23v-116h-145v117q-129 23 -210.5 120t-81.5 230q0 152 107 257.5t263 105.5q52 0 98.5 -12t76 -29t52 -33.5t32.5 -28.5l9 -12l-110 -95q-2 3 -6.5 7.5t-19.5 16.5t-32 21t-45 16.5t-58 7.5
q-92 0 -153 -63t-61 -156t61 -156t153 -63q32 0 61 8t48.5 19.5t34 23.5t21.5 19.5t7 8.5z" />
    <glyph glyph-name="uni04AB" unicode="&#x4ab;" horiz-adv-x="538" 
d="M521 84q-5 -7 -16 -18.5t-47.5 -34.5t-78.5 -33v-118h-138v118q-92 22 -149 92.5t-57 165.5q0 114 81 192.5t201 78.5q38 0 72.5 -9t56.5 -21.5t39.5 -25t24.5 -21.5l8 -9l-98 -95q-4 5 -12.5 13t-35.5 21t-57 13q-58 0 -96.5 -39t-38.5 -96t38.5 -96t96.5 -39
q32 0 59.5 13t38.5 26l11 13z" />
    <glyph glyph-name="uni04AE" unicode="&#x4ae;" horiz-adv-x="695" 
d="M271 0v260l-269 440h178l172 -295l171 295h170l-269 -440v-260h-153z" />
    <glyph glyph-name="uni04AF" unicode="&#x4af;" horiz-adv-x="543" 
d="M394 517h154l-204 -517v-160h-145v160l-204 517h162l118 -335z" />
    <glyph glyph-name="uni04B0" unicode="&#x4b0;" horiz-adv-x="695" 
d="M693 700l-239 -391h174v-83h-204v-226h-153v226h-204v83h174l-239 391h178l172 -295l171 295h170z" />
    <glyph glyph-name="uni04B1" unicode="&#x4b1;" horiz-adv-x="543" 
d="M548 517l-185 -468h126v-83h-145v-126h-145v126h-145v83h126l-185 468h162l118 -335l119 335h154z" />
    <glyph glyph-name="uni04B2" unicode="&#x4b2;" horiz-adv-x="766" 
d="M618 137h133v-257h-145v120h-71l-178 244l-177 -244h-178l269 356l-257 344h186l165 -228l167 228h178l-259 -342z" />
    <glyph glyph-name="uni04B3" unicode="&#x4b3;" horiz-adv-x="618" 
d="M483 129h120v-249h-138v120h-54l-125 167l-128 -167h-163l206 262l-196 255h171l116 -156l117 156h164l-197 -250z" />
    <glyph glyph-name="uni04B6" unicode="&#x4b6;" horiz-adv-x="736" 
d="M624 137h98v-257h-146v120h-105v238q-60 -28 -140 -28q-136 0 -214 74.5t-78 202.5v213h153v-200q0 -71 43 -112t116 -41q66 0 120 24v329h153v-563z" />
    <glyph glyph-name="uni04B7" unicode="&#x4b7;" horiz-adv-x="613" 
d="M511 129h87v-249h-138v120h-95v152q-46 -22 -109 -22q-103 0 -163.5 58t-60.5 156v173h146v-149q0 -51 27.5 -80t78.5 -29q45 0 81 17v241h146v-388z" />
    <glyph glyph-name="uni04B8" unicode="&#x4b8;" horiz-adv-x="724" 
d="M491 700h153v-700h-153v248q-47 -28 -115 -36v-127h-70v126q-125 7 -196 80.5t-71 195.5v213h153v-200q0 -59 30 -98t84 -50v183h70v-187q69 5 115 33v319z" />
    <glyph glyph-name="uni04B9" unicode="&#x4b9;" horiz-adv-x="591" 
d="M385 517h146v-517h-146v162q-29 -19 -68 -26v-96h-70v90q-99 3 -157 60.5t-58 153.5v173h146v-149q0 -86 69 -104v126h70v-128q36 5 68 25v230z" />
    <glyph glyph-name="uni04BA" unicode="&#x4ba;" horiz-adv-x="704" 
d="M373 490q136 0 214 -74.5t78 -202.5v-213h-153v200q0 71 -43 112t-116 41q-66 0 -120 -24v-329h-153v700h153v-238q60 28 140 28z" />
    <glyph glyph-name="uni04BB" unicode="&#x4bb;" horiz-adv-x="614" 
d="M60 0v700h145v-255q56 82 161 82q83 0 138.5 -56.5t55.5 -155.5v-315h-145v268q0 62 -28 93.5t-73 31.5q-48 0 -78.5 -31t-30.5 -92v-270h-145z" />
    <glyph glyph-name="uni04C0" unicode="&#x4c0;" horiz-adv-x="327" 
d="M85 700h157v-700h-157v700z" />
    <glyph glyph-name="uni04C1" unicode="&#x4c1;" horiz-adv-x="1105" 
d="M553 755q-75 0 -123 45.5t-48 117.5v5h100v-13q0 -31 19.5 -50.5t52.5 -19.5t51.5 19.5t18.5 50.5v13h100v-5q0 -72 -48 -117.5t-123 -45.5zM-8 0l328 368l-308 332h193l271 -313v313h153v-313l271 313h193l-308 -332l328 -368h-193l-291 333v-333h-153v333l-291 -333
h-193z" />
    <glyph glyph-name="uni04C2" unicode="&#x4c2;" horiz-adv-x="915" 
d="M458 572q-75 0 -123 45.5t-48 117.5v5h100v-13q0 -31 19.5 -50.5t52.5 -19.5t51.5 19.5t18.5 50.5v13h100v-5q0 -72 -48 -117.5t-123 -45.5zM-8 0l248 282l-228 235h179l194 -221v221h145v-221l194 221h179l-227 -235l247 -282h-182l-211 252v-252h-145v252l-211 -252
h-182z" />
    <glyph glyph-name="uni04CF" unicode="&#x4cf;" horiz-adv-x="277" 
d="M65 517h147v-517h-147v517z" />
    <glyph glyph-name="uni04D0" unicode="&#x4d0;" horiz-adv-x="725" 
d="M363 752q-75 0 -123 45.5t-48 117.5v5h100v-13q0 -31 19.5 -50.5t52.5 -19.5t51.5 19.5t18.5 50.5v13h100v-5q0 -72 -48 -117.5t-123 -45.5zM2 0l284 700h153l284 -700h-169l-56 147h-279l-56 -147h-161zM261 268h194l-96 256z" />
    <glyph glyph-name="uni04D1" unicode="&#x4d1;" horiz-adv-x="571" 
d="M284 572q-75 0 -123 45.5t-48 117.5v5h100v-13q0 -31 19.5 -50.5t52.5 -19.5t51.5 19.5t18.5 50.5v13h100v-5q0 -72 -48 -117.5t-123 -45.5zM37 147q0 70 56 116t147 46q79 0 132 -37v22q0 51 -32 79t-85 28q-35 0 -67 -10t-47 -20l-15 -10l-59 101q8 7 24.5 18t72 29
t116.5 18q111 0 174.5 -62t63.5 -172v-293h-113l-12 44q-57 -54 -157 -54q-91 0 -145 44t-54 113zM183 153q0 -30 26.5 -50.5t68.5 -20.5q45 0 72 20.5t27 50.5t-27 50.5t-72 20.5q-42 0 -68.5 -20.5t-26.5 -50.5z" />
    <glyph glyph-name="uni04D2" unicode="&#x4d2;" horiz-adv-x="725" 
d="M252 762q-33 0 -54.5 21.5t-21.5 54.5t22 55t55 22t54.5 -21.5t21.5 -53.5q0 -33 -22 -55.5t-55 -22.5zM472 762q-33 0 -54.5 21.5t-21.5 54.5t22 55t55 22t54.5 -21.5t21.5 -53.5q0 -33 -22 -55.5t-55 -22.5zM2 0l284 700h153l284 -700h-169l-56 147h-279l-56 -147h-161
zM261 268h194l-96 256z" />
    <glyph glyph-name="uni04D3" unicode="&#x4d3;" horiz-adv-x="571" 
d="M173 582q-33 0 -54.5 21.5t-21.5 54.5t22 55t55 22t54.5 -21.5t21.5 -53.5q0 -33 -22 -55.5t-55 -22.5zM393 582q-33 0 -54.5 21.5t-21.5 54.5t22 55t55 22t54.5 -21.5t21.5 -53.5q0 -33 -22 -55.5t-55 -22.5zM37 147q0 70 56 116t147 46q79 0 132 -37v22q0 51 -32 79
t-85 28q-35 0 -67 -10t-47 -20l-15 -10l-59 101q8 7 24.5 18t72 29t116.5 18q111 0 174.5 -62t63.5 -172v-293h-113l-12 44q-57 -54 -157 -54q-91 0 -145 44t-54 113zM183 153q0 -30 26.5 -50.5t68.5 -20.5q45 0 72 20.5t27 50.5t-27 50.5t-72 20.5q-42 0 -68.5 -20.5
t-26.5 -50.5z" />
    <glyph glyph-name="uni04D4" unicode="&#x4d4;" horiz-adv-x="1068" 
d="M-8 0l425 700h596v-133h-363v-145h313v-124h-313v-165h373v-133h-526v147h-247l-87 -147h-171zM317 268h180v305z" />
    <glyph glyph-name="uni04D5" unicode="&#x4d5;" horiz-adv-x="939" 
d="M254 -10q-101 0 -159 43.5t-58 113.5t56 116t147 46q79 0 132 -37v22q0 51 -32 79t-85 28q-35 0 -67 -10t-47 -20l-15 -10l-59 102q3 3 9 7t27 15t44 19.5t60.5 15.5t76.5 7q120 0 175 -92q75 92 192 92q107 0 182 -73.5t75 -175.5q0 -13 -2 -25t-4 -17l-2 -6h-379
q7 -51 45 -82.5t93 -31.5q25 0 48.5 6.5t38.5 15t26.5 17.5t16.5 15l5 7l87 -83q-3 -4 -8.5 -11t-26 -25t-45 -32t-65.5 -25t-87 -11q-123 0 -197 93q-54 -93 -198 -93zM520 317h248q-8 43 -42 72.5t-78 29.5q-48 0 -83 -28.5t-45 -73.5zM278 82q45 0 72 20.5t27 50.5
t-27 50.5t-72 20.5q-42 0 -68.5 -20.5t-26.5 -50.5t26.5 -50.5t68.5 -20.5z" />
    <glyph glyph-name="uni04D6" unicode="&#x4d6;" horiz-adv-x="650" 
d="M337 752q-75 0 -123 45.5t-48 117.5v5h100v-13q0 -31 19.5 -50.5t52.5 -19.5t51.5 19.5t18.5 50.5v13h100v-5q0 -72 -48 -117.5t-123 -45.5zM80 0v700h515v-133h-362v-145h312v-124h-312v-165h372v-133h-525z" />
    <glyph glyph-name="uni04D7" unicode="&#x4d7;" horiz-adv-x="601" 
d="M313 572q-75 0 -123 45.5t-48 117.5v5h100v-13q0 -31 19.5 -50.5t52.5 -19.5t51.5 19.5t18.5 50.5v13h100v-5q0 -72 -48 -117.5t-123 -45.5zM312 -10q-120 0 -198.5 76t-78.5 190t80 192.5t198 78.5q108 0 182.5 -73.5t74.5 -175.5q0 -13 -1.5 -25t-2.5 -17l-2 -6h-381
q7 -51 45 -82.5t94 -31.5q25 0 48.5 6.5t38.5 15t26.5 17.5t16.5 15l5 7l86 -83q-3 -4 -8.5 -11t-26 -25t-45 -32t-65.5 -25t-86 -11zM183 318h247q-7 42 -41 71.5t-78 29.5q-48 0 -83 -28.5t-45 -72.5z" />
    <glyph glyph-name="uni04D8" unicode="&#x4d8;" horiz-adv-x="809" 
d="M393 710q160 0 266 -102t106 -255q0 -152 -108 -257.5t-266 -105.5q-145 0 -245.5 98t-100.5 235q0 18 2 34t4 23l2 7h557q-12 80 -74 131t-147 51q-57 0 -107 -25.5t-72 -50.5l-22 -25l-102 99q4 6 11.5 15.5t34.5 34t59.5 43.5t87 34.5t114.5 15.5zM395 123
q75 0 129 41t76 109h-393q15 -62 65 -106t123 -44z" />
    <glyph glyph-name="uni04D9" unicode="&#x4d9;" horiz-adv-x="602" 
d="M289 527q120 0 198.5 -76t78.5 -190t-80 -192.5t-198 -78.5q-108 0 -182.5 73.5t-74.5 175.5q0 13 1.5 25t3.5 18l1 5h381q-7 51 -45 82.5t-94 31.5q-40 0 -74 -15.5t-47 -30.5l-14 -15l-86 83q3 4 8.5 11t26 25t45 32t65.5 25t86 11zM418 199h-247q7 -42 41 -71.5
t78 -29.5q48 0 83 28.5t45 72.5z" />
    <glyph glyph-name="uni04DA" unicode="&#x4da;" horiz-adv-x="809" 
d="M282 765q-33 0 -54.5 21.5t-21.5 54.5t22 55t55 22t54.5 -21.5t21.5 -53.5q0 -33 -22 -55.5t-55 -22.5zM502 765q-33 0 -54.5 21.5t-21.5 54.5t22 55t55 22t54.5 -21.5t21.5 -53.5q0 -33 -22 -55.5t-55 -22.5zM393 710q160 0 266 -102t106 -255q0 -152 -108 -257.5
t-266 -105.5q-145 0 -245.5 98t-100.5 235q0 18 2 34t4 23l2 7h557q-12 80 -74 131t-147 51q-57 0 -107 -25.5t-72 -50.5l-22 -25l-102 99q4 6 11.5 15.5t34.5 34t59.5 43.5t87 34.5t114.5 15.5zM395 123q75 0 129 41t76 109h-393q15 -62 65 -106t123 -44z" />
    <glyph glyph-name="uni04DB" unicode="&#x4db;" horiz-adv-x="602" 
d="M190 582q-33 0 -54.5 21.5t-21.5 54.5t22 55t55 22t54.5 -21.5t21.5 -53.5q0 -33 -22 -55.5t-55 -22.5zM410 582q-33 0 -54.5 21.5t-21.5 54.5t22 55t55 22t54.5 -21.5t21.5 -53.5q0 -33 -22 -55.5t-55 -22.5zM289 527q120 0 198.5 -76t78.5 -190t-80 -192.5t-198 -78.5
q-108 0 -182.5 73.5t-74.5 175.5q0 13 1.5 25t3.5 18l1 5h381q-7 51 -45 82.5t-94 31.5q-40 0 -74 -15.5t-47 -30.5l-14 -15l-86 83q3 4 8.5 11t26 25t45 32t65.5 25t86 11zM418 199h-247q7 -42 41 -71.5t78 -29.5q48 0 83 28.5t45 72.5z" />
    <glyph glyph-name="uni04DC" unicode="&#x4dc;" horiz-adv-x="1105" 
d="M442 765q-33 0 -54.5 21.5t-21.5 54.5t22 55t55 22t54.5 -21.5t21.5 -53.5q0 -33 -22 -55.5t-55 -22.5zM662 765q-33 0 -54.5 21.5t-21.5 54.5t22 55t55 22t54.5 -21.5t21.5 -53.5q0 -33 -22 -55.5t-55 -22.5zM-8 0l328 368l-308 332h193l271 -313v313h153v-313l271 313
h193l-308 -332l328 -368h-193l-291 333v-333h-153v333l-291 -333h-193z" />
    <glyph glyph-name="uni04DD" unicode="&#x4dd;" horiz-adv-x="915" 
d="M347 582q-33 0 -54.5 21.5t-21.5 54.5t22 55t55 22t54.5 -21.5t21.5 -53.5q0 -33 -22 -55.5t-55 -22.5zM567 582q-33 0 -54.5 21.5t-21.5 54.5t22 55t55 22t54.5 -21.5t21.5 -53.5q0 -33 -22 -55.5t-55 -22.5zM-8 0l248 282l-228 235h179l194 -221v221h145v-221l194 221
h179l-227 -235l247 -282h-182l-211 252v-252h-145v252l-211 -252h-182z" />
    <glyph glyph-name="uni04DE" unicode="&#x4de;" horiz-adv-x="627" 
d="M176 765q-33 0 -54.5 21.5t-21.5 54.5t22 55t55 22t54.5 -21.5t21.5 -53.5q0 -33 -22 -55.5t-55 -22.5zM396 765q-33 0 -54.5 21.5t-21.5 54.5t22 55t55 22t54.5 -21.5t21.5 -53.5q0 -33 -22 -55.5t-55 -22.5zM284 -10q-51 0 -97.5 10t-76 24.5t-52 29t-32.5 24.5l-9 10
l82 100q8 -7 22.5 -18t61 -29.5t95.5 -18.5q71 0 111.5 25.5t40.5 63.5q0 41 -42 66t-121 25h-72v116h72q69 0 106 22t37 60q0 37 -36 57.5t-99 20.5q-42 0 -80.5 -14t-56.5 -28l-18 -13l-78 98q3 4 9.5 10t29 21t48.5 27t68.5 21.5t88.5 9.5q124 0 200.5 -52t76.5 -137
q0 -52 -33 -92.5t-88 -63.5q64 -21 102.5 -65.5t38.5 -105.5q0 -92 -81.5 -148t-217.5 -56z" />
    <glyph glyph-name="uni04DF" unicode="&#x4df;" horiz-adv-x="533" 
d="M131 582q-33 0 -54.5 21.5t-21.5 54.5t22 55t55 22t54.5 -21.5t21.5 -53.5q0 -33 -22 -55.5t-55 -22.5zM351 582q-33 0 -54.5 21.5t-21.5 54.5t22 55t55 22t54.5 -21.5t21.5 -53.5q0 -33 -22 -55.5t-55 -22.5zM240 -10q-66 0 -122 16t-78 32l-23 16l58 94q7 -5 20 -12.5
t55 -20.5t85 -13q58 0 88 15.5t30 42.5q0 58 -126 58h-61v96h61q111 0 111 50t-105 50q-38 0 -73.5 -9t-51.5 -18l-17 -9l-56 91q8 6 23.5 16t69 26t113.5 16q113 0 177.5 -39t64.5 -102q0 -39 -26.5 -69.5t-69.5 -46.5q50 -16 80.5 -49t30.5 -78q0 -70 -68 -111.5
t-190 -41.5z" />
    <glyph glyph-name="uni04E2" unicode="&#x4e2;" horiz-adv-x="790" 
d="M215 798v84h360v-84h-360zM557 471l-328 -471h-149v700h153v-459l319 459h158v-700h-153v471z" />
    <glyph glyph-name="uni04E3" unicode="&#x4e3;" horiz-adv-x="640" 
d="M140 618v84h360v-84h-360zM435 321l-233 -321h-142v517h145v-313l225 313h150v-517h-145v321z" />
    <glyph glyph-name="uni04E4" unicode="&#x4e4;" horiz-adv-x="790" 
d="M285 762q-33 0 -54.5 21.5t-21.5 54.5t22 55t55 22t54.5 -21.5t21.5 -53.5q0 -33 -22 -55.5t-55 -22.5zM505 762q-33 0 -54.5 21.5t-21.5 54.5t22 55t55 22t54.5 -21.5t21.5 -53.5q0 -33 -22 -55.5t-55 -22.5zM557 471l-328 -471h-149v700h153v-459l319 459h158v-700
h-153v471z" />
    <glyph glyph-name="uni04E5" unicode="&#x4e5;" horiz-adv-x="640" 
d="M210 582q-33 0 -54.5 21.5t-21.5 54.5t22 55t55 22t54.5 -21.5t21.5 -53.5q0 -33 -22 -55.5t-55 -22.5zM430 582q-33 0 -54.5 21.5t-21.5 54.5t22 55t55 22t54.5 -21.5t21.5 -53.5q0 -33 -22 -55.5t-55 -22.5zM435 321l-233 -321h-142v517h145v-313l225 313h150v-517
h-145v321z" />
    <glyph glyph-name="uni04E6" unicode="&#x4e6;" horiz-adv-x="825" 
d="M302 762q-33 0 -54.5 21.5t-21.5 54.5t22 55t55 22t54.5 -21.5t21.5 -53.5q0 -33 -22 -55.5t-55 -22.5zM522 762q-33 0 -54.5 21.5t-21.5 54.5t22 55t55 22t54.5 -21.5t21.5 -53.5q0 -33 -22 -55.5t-55 -22.5zM45 347q0 152 107 257.5t263 105.5t260.5 -102.5
t104.5 -254.5t-107 -257.5t-263 -105.5t-260.5 102.5t-104.5 254.5zM198 350q0 -93 61 -156t153 -63q93 0 154 63t61 156t-61 156t-154 63q-92 0 -153 -63t-61 -156z" />
    <glyph glyph-name="uni04E7" unicode="&#x4e7;" horiz-adv-x="629" 
d="M204 582q-33 0 -54.5 21.5t-21.5 54.5t22 55t55 22t54.5 -21.5t21.5 -53.5q0 -33 -22 -55.5t-55 -22.5zM424 582q-33 0 -54.5 21.5t-21.5 54.5t22 55t55 22t54.5 -21.5t21.5 -53.5q0 -33 -22 -55.5t-55 -22.5zM35 256q0 114 81 192.5t201 78.5t198.5 -76t78.5 -190
t-81 -192.5t-201 -78.5t-198.5 76t-78.5 190zM180 258q0 -57 38.5 -96t96.5 -39q57 0 95.5 39t38.5 96t-38.5 96t-95.5 39q-58 0 -96.5 -39t-38.5 -96z" />
    <glyph glyph-name="uni04E8" unicode="&#x4e8;" horiz-adv-x="825" 
d="M415 710q156 0 260.5 -102.5t104.5 -254.5t-107 -257.5t-263 -105.5t-260.5 102.5t-104.5 254.5t107 257.5t263 105.5zM412 573q-77 0 -133.5 -45.5t-73.5 -119.5h415q-17 74 -73.5 119.5t-134.5 45.5zM412 127q81 0 138.5 48.5t72.5 126.5h-421q15 -78 72.5 -126.5
t137.5 -48.5z" />
    <glyph glyph-name="uni04E9" unicode="&#x4e9;" horiz-adv-x="629" 
d="M317 527q120 0 198.5 -76t78.5 -190t-81 -192.5t-201 -78.5t-198.5 76t-78.5 190t81 192.5t201 78.5zM315 412q-51 0 -87 -29t-47 -81h267q-11 52 -46.5 81t-86.5 29zM315 105q52 0 87.5 30t45.5 83h-267q10 -53 45.5 -83t88.5 -30z" />
    <glyph glyph-name="uni04EA" unicode="&#x4ea;" horiz-adv-x="825" 
d="M302 765q-33 0 -54.5 21.5t-21.5 54.5t22 55t55 22t54.5 -21.5t21.5 -53.5q0 -33 -22 -55.5t-55 -22.5zM522 765q-33 0 -54.5 21.5t-21.5 54.5t22 55t55 22t54.5 -21.5t21.5 -53.5q0 -33 -22 -55.5t-55 -22.5zM415 710q156 0 260.5 -102.5t104.5 -254.5t-107 -257.5
t-263 -105.5t-260.5 102.5t-104.5 254.5t107 257.5t263 105.5zM412 573q-77 0 -133.5 -45.5t-73.5 -119.5h415q-17 74 -73.5 119.5t-134.5 45.5zM412 127q81 0 138.5 48.5t72.5 126.5h-421q15 -78 72.5 -126.5t137.5 -48.5z" />
    <glyph glyph-name="uni04EB" unicode="&#x4eb;" horiz-adv-x="629" 
d="M204 582q-33 0 -54.5 21.5t-21.5 54.5t22 55t55 22t54.5 -21.5t21.5 -53.5q0 -33 -22 -55.5t-55 -22.5zM424 582q-33 0 -54.5 21.5t-21.5 54.5t22 55t55 22t54.5 -21.5t21.5 -53.5q0 -33 -22 -55.5t-55 -22.5zM317 527q120 0 198.5 -76t78.5 -190t-81 -192.5t-201 -78.5
t-198.5 76t-78.5 190t81 192.5t201 78.5zM315 412q-51 0 -87 -29t-47 -81h267q-11 52 -46.5 81t-86.5 29zM315 105q52 0 87.5 30t45.5 83h-267q10 -53 45.5 -83t88.5 -30z" />
    <glyph glyph-name="uni04EC" unicode="&#x4ec;" horiz-adv-x="711" 
d="M191 765q-33 0 -54.5 21.5t-21.5 54.5t22 55t55 22t54.5 -21.5t21.5 -53.5q0 -33 -22 -55.5t-55 -22.5zM411 765q-33 0 -54.5 21.5t-21.5 54.5t22 55t55 22t54.5 -21.5t21.5 -53.5q0 -33 -22 -55.5t-55 -22.5zM301 710q156 0 260.5 -102.5t104.5 -254.5t-107 -257.5
t-263 -105.5q-52 0 -99.5 13t-77.5 31t-52 36.5t-32 31.5l-10 13l111 87q7 -8 19.5 -20t54.5 -31.5t88 -19.5q79 0 136 46.5t73 120.5h-271v118h268q-20 69 -75.5 111t-130.5 42q-49 0 -91.5 -20t-60.5 -40l-18 -20l-103 92q3 5 10 14t31.5 31t53.5 39t78 31t103 14z" />
    <glyph glyph-name="uni04ED" unicode="&#x4ed;" horiz-adv-x="536" 
d="M114 582q-33 0 -54.5 21.5t-21.5 54.5t22 55t55 22t54.5 -21.5t21.5 -53.5q0 -33 -22 -55.5t-55 -22.5zM334 582q-33 0 -54.5 21.5t-21.5 54.5t22 55t55 22t54.5 -21.5t21.5 -53.5q0 -33 -22 -55.5t-55 -22.5zM224 527q120 0 199 -76t79 -190t-81.5 -192.5t-201.5 -78.5
q-38 0 -72 9t-56.5 22t-39.5 26.5t-25 22.5l-7 9l94 88q4 -5 12.5 -13.5t37 -22t59.5 -13.5q46 0 80.5 27t47.5 70h-178v95h175q-14 40 -47.5 64t-77.5 24q-34 0 -62.5 -13.5t-39.5 -26.5l-11 -14l-92 87q3 4 8.5 10.5t24.5 23t41 29t58 23t75 10.5z" />
    <glyph glyph-name="uni04EE" unicode="&#x4ee;" horiz-adv-x="715" 
d="M542 885v-84h-360v84h360zM548 700h165l-274 -538q-88 -172 -237 -172q-38 0 -72.5 8t-50.5 16l-16 9l45 127q40 -23 93 -23q42 0 78 34l-277 539h174l188 -395z" />
    <glyph glyph-name="uni04EF" unicode="&#x4ef;" horiz-adv-x="543" 
d="M96 618v84h360v-84h-360zM-5 517h162l118 -342l119 342h154l-206 -522q-67 -165 -213 -165q-37 0 -70.5 8.5t-48.5 17.5l-15 8l46 113q27 -20 74 -20q59 0 83 51z" />
    <glyph glyph-name="uni04F0" unicode="&#x4f0;" horiz-adv-x="715" 
d="M251 765q-33 0 -54.5 21.5t-21.5 54.5t22 55t55 22t54.5 -21.5t21.5 -53.5q0 -33 -22 -55.5t-55 -22.5zM471 765q-33 0 -54.5 21.5t-21.5 54.5t22 55t55 22t54.5 -21.5t21.5 -53.5q0 -33 -22 -55.5t-55 -22.5zM548 700h165l-274 -538q-88 -172 -237 -172q-38 0 -72.5 8
t-50.5 16l-16 9l45 127q40 -23 93 -23q42 0 78 34l-277 539h174l188 -395z" />
    <glyph glyph-name="uni04F1" unicode="&#x4f1;" horiz-adv-x="543" 
d="M165 582q-33 0 -54.5 21.5t-21.5 54.5t22 55t55 22t54.5 -21.5t21.5 -53.5q0 -33 -22 -55.5t-55 -22.5zM385 582q-33 0 -54.5 21.5t-21.5 54.5t22 55t55 22t54.5 -21.5t21.5 -53.5q0 -33 -22 -55.5t-55 -22.5zM-5 517h162l118 -342l119 342h154l-206 -522
q-67 -165 -213 -165q-37 0 -70.5 8.5t-48.5 17.5l-15 8l46 113q27 -20 74 -20q59 0 83 51z" />
    <glyph glyph-name="uni04F2" unicode="&#x4f2;" horiz-adv-x="715" 
d="M405 923l-94 -168h-110l54 168h150zM617 923l-94 -168h-111l54 168h151zM548 700h165l-274 -538q-88 -172 -237 -172q-38 0 -72.5 8t-50.5 16l-16 9l45 127q40 -23 93 -23q42 0 78 34l-277 539h174l188 -395z" />
    <glyph glyph-name="uni04F3" unicode="&#x4f3;" horiz-adv-x="543" 
d="M115 572l54 168h150l-94 -168h-110zM326 572l54 168h151l-94 -168h-111zM-5 517h162l118 -342l119 342h154l-206 -522q-67 -165 -213 -165q-37 0 -70.5 8.5t-48.5 17.5l-15 8l46 113q27 -20 74 -20q59 0 83 51z" />
    <glyph glyph-name="uni04F4" unicode="&#x4f4;" horiz-adv-x="704" 
d="M221 765q-33 0 -54.5 21.5t-21.5 54.5t22 55t55 22t54.5 -21.5t21.5 -53.5q0 -33 -22 -55.5t-55 -22.5zM441 765q-33 0 -54.5 21.5t-21.5 54.5t22 55t55 22t54.5 -21.5t21.5 -53.5q0 -33 -22 -55.5t-55 -22.5zM471 700h153v-700h-153v238q-60 -28 -140 -28
q-136 0 -214 74.5t-78 202.5v213h153v-200q0 -71 43 -112t116 -41q66 0 120 24v329z" />
    <glyph glyph-name="uni04F5" unicode="&#x4f5;" horiz-adv-x="571" 
d="M161 582q-33 0 -54.5 21.5t-21.5 54.5t22 55t55 22t54.5 -21.5t21.5 -53.5q0 -33 -22 -55.5t-55 -22.5zM381 582q-33 0 -54.5 21.5t-21.5 54.5t22 55t55 22t54.5 -21.5t21.5 -53.5q0 -33 -22 -55.5t-55 -22.5zM365 517h146v-517h-146v152q-46 -22 -109 -22
q-103 0 -163.5 58t-60.5 156v173h146v-149q0 -51 27.5 -80t78.5 -29q45 0 81 17v241z" />
    <glyph glyph-name="uni04F8" unicode="&#x4f8;" horiz-adv-x="1011" 
d="M395 765q-33 0 -54.5 21.5t-21.5 54.5t22 55t55 22t54.5 -21.5t21.5 -53.5q0 -33 -22 -55.5t-55 -22.5zM615 765q-33 0 -54.5 21.5t-21.5 54.5t22 55t55 22t54.5 -21.5t21.5 -53.5q0 -33 -22 -55.5t-55 -22.5zM80 0v700h153v-222h149q118 0 190.5 -66t72.5 -171
q0 -106 -74 -173.5t-192 -67.5h-299zM769 700h157v-700h-157v700zM233 129h135q56 0 90 31.5t34 80.5t-34 80t-90 31h-135v-223z" />
    <glyph glyph-name="uni04F9" unicode="&#x4f9;" horiz-adv-x="832" 
d="M305 582q-33 0 -54.5 21.5t-21.5 54.5t22 55t55 22t54.5 -21.5t21.5 -53.5q0 -33 -22 -55.5t-55 -22.5zM525 582q-33 0 -54.5 21.5t-21.5 54.5t22 55t55 22t54.5 -21.5t21.5 -53.5q0 -33 -22 -55.5t-55 -22.5zM60 0v517h145v-154h109q93 0 150.5 -49.5t57.5 -129.5
q0 -81 -58 -132.5t-152 -51.5h-252zM620 517h147v-517h-147v517zM205 110h88q39 0 61.5 20t22.5 53t-22.5 53t-61.5 20h-88v-146z" />
    <glyph glyph-name="Wgrave" unicode="&#x1e80;" horiz-adv-x="1010" 
d="M452 752l-106 168h154l66 -168h-114zM2 700h169l146 -467l138 467h109l137 -467l146 467h161l-236 -700h-134l-133 442l-133 -442h-133z" />
    <glyph glyph-name="wgrave" unicode="&#x1e81;" horiz-adv-x="795" 
d="M344 572l-106 168h154l66 -168h-114zM-5 517h158l98 -321l96 321h109l95 -317l99 317h150l-174 -517h-138l-91 296l-90 -296h-138z" />
    <glyph glyph-name="Wacute" unicode="&#x1e82;" horiz-adv-x="1010" 
d="M452 752l66 168h154l-106 -168h-114zM2 700h169l146 -467l138 467h109l137 -467l146 467h161l-236 -700h-134l-133 442l-133 -442h-133z" />
    <glyph glyph-name="wacute" unicode="&#x1e83;" horiz-adv-x="795" 
d="M345 572l66 168h154l-106 -168h-114zM-5 517h158l98 -321l96 321h109l95 -317l99 317h150l-174 -517h-138l-91 296l-90 -296h-138z" />
    <glyph glyph-name="Wdieresis" unicode="&#x1e84;" horiz-adv-x="1010" 
d="M399 762q-33 0 -54.5 21.5t-21.5 54.5t22 55t55 22t54.5 -21.5t21.5 -53.5q0 -33 -22 -55.5t-55 -22.5zM619 762q-33 0 -54.5 21.5t-21.5 54.5t22 55t55 22t54.5 -21.5t21.5 -53.5q0 -33 -22 -55.5t-55 -22.5zM2 700h169l146 -467l138 467h109l137 -467l146 467h161
l-236 -700h-134l-133 442l-133 -442h-133z" />
    <glyph glyph-name="wdieresis" unicode="&#x1e85;" horiz-adv-x="795" 
d="M291 582q-33 0 -54.5 21.5t-21.5 54.5t22 55t55 22t54.5 -21.5t21.5 -53.5q0 -33 -22 -55.5t-55 -22.5zM511 582q-33 0 -54.5 21.5t-21.5 54.5t22 55t55 22t54.5 -21.5t21.5 -53.5q0 -33 -22 -55.5t-55 -22.5zM-5 517h158l98 -321l96 321h109l95 -317l99 317h150
l-174 -517h-138l-91 296l-90 -296h-138z" />
    <glyph glyph-name="uni1E9E" unicode="&#x1e9e;" horiz-adv-x="715" 
d="M412 -10q-25 0 -49.5 2.5t-36.5 5.5l-12 2l21 130q29 -7 62 -7q58 0 91.5 30t33.5 77q0 43 -34.5 73t-92.5 30h-48v97l109 123q-43 24 -86 24q-66 0 -106.5 -45t-40.5 -123v-409h-153v402q0 139 84 223.5t219 84.5q48 0 93 -11t75 -26t53.5 -30.5t34.5 -26.5l11 -11
l-142 -168q81 -20 129 -77.5t48 -135.5q0 -100 -73.5 -167t-189.5 -67z" />
    <glyph glyph-name="Ygrave" unicode="&#x1ef2;" horiz-adv-x="695" 
d="M294 752l-106 168h154l66 -168h-114zM271 0v260l-269 440h178l172 -295l171 295h170l-269 -440v-260h-153z" />
    <glyph glyph-name="ygrave" unicode="&#x1ef3;" horiz-adv-x="543" 
d="M218 572l-106 168h154l66 -168h-114zM-5 517h162l118 -342l119 342h154l-206 -522q-67 -165 -213 -165q-37 0 -70.5 8.5t-48.5 17.5l-15 8l46 113q27 -20 74 -20q59 0 83 51z" />
    <glyph glyph-name="endash" unicode="&#x2013;" horiz-adv-x="570" 
d="M50 291v129h470v-129h-470z" />
    <glyph glyph-name="emdash" unicode="&#x2014;" horiz-adv-x="900" 
d="M50 291v129h800v-129h-800z" />
    <glyph glyph-name="quoteleft" unicode="&#x2018;" horiz-adv-x="263" 
d="M223 700l-29 -300h-154l69 300h114z" />
    <glyph glyph-name="quoteright" unicode="&#x2019;" horiz-adv-x="263" 
d="M40 400l29 300h154l-69 -300h-114z" />
    <glyph glyph-name="quotesinglbase" unicode="&#x201a;" horiz-adv-x="263" 
d="M40 -130l29 300h154l-69 -300h-114z" />
    <glyph glyph-name="quotedblleft" unicode="&#x201c;" horiz-adv-x="483" 
d="M223 700l-29 -300h-154l69 300h114zM443 700l-28 -300h-155l69 300h114z" />
    <glyph glyph-name="quotedblright" unicode="&#x201d;" horiz-adv-x="483" 
d="M40 400l29 300h154l-69 -300h-114zM260 400l29 300h154l-68 -300h-115z" />
    <glyph glyph-name="quotedblbase" unicode="&#x201e;" horiz-adv-x="483" 
d="M40 -130l29 300h154l-69 -300h-114zM260 -130l29 300h154l-68 -300h-115z" />
    <glyph glyph-name="dagger" unicode="&#x2020;" horiz-adv-x="415" 
d="M258 490v-230h-101v230h-117v91h117v119h101v-119h117v-91h-117z" />
    <glyph glyph-name="daggerdbl" unicode="&#x2021;" horiz-adv-x="415" 
d="M157 150v119h-117v91h117v130h-117v91h117v119h101v-119h117v-91h-117v-130h117v-91h-117v-119h-101z" />
    <glyph glyph-name="bullet" unicode="&#x2022;" horiz-adv-x="403" 
d="M201 201q-64 0 -106.5 42t-42.5 106t43 107t107 43t106.5 -42t42.5 -106t-43 -107t-107 -43z" />
    <glyph glyph-name="perthousand" unicode="&#x2030;" horiz-adv-x="1125" 
d="M199 303q-67 0 -112 43.5t-45 109.5t45.5 110t112.5 44t112 -43t45 -110q0 -66 -45.5 -110t-112.5 -44zM133 0l411 600h98l-411 -600h-98zM200 391q27 0 45 19t18 47t-18 46.5t-45 18.5q-28 0 -46 -18.5t-18 -46.5q0 -29 18 -47.5t46 -18.5zM575 -10q-67 0 -112 43
t-45 110q0 66 45.5 110t112.5 44t112 -43.5t45 -109.5t-45.5 -110t-112.5 -44zM925 -10q-67 0 -112 43t-45 110q0 66 45.5 110t112.5 44t112 -43.5t45 -109.5t-45.5 -110t-112.5 -44zM576 78q27 0 45 18.5t18 46.5t-18 47t-45 19q-28 0 -46 -18.5t-18 -47.5q0 -28 18 -46.5
t46 -18.5zM926 78q27 0 45 18.5t18 46.5t-18 47t-45 19q-28 0 -46 -18.5t-18 -47.5q0 -28 18 -46.5t46 -18.5z" />
    <glyph glyph-name="guilsinglleft" unicode="&#x2039;" horiz-adv-x="441" 
d="M203 352l173 -178l-77 -82l-249 233v50l249 233l77 -78z" />
    <glyph glyph-name="guilsinglright" unicode="&#x203a;" horiz-adv-x="441" 
d="M238 347l-173 179l78 82l248 -233v-50l-248 -233l-78 78z" />
    <glyph glyph-name="fraction" unicode="&#x2044;" horiz-adv-x="225" 
d="M319 700h96l-493 -700h-97z" />
    <glyph glyph-name="Euro" unicode="&#x20ac;" 
d="M371 -10q-112 0 -181 63.5t-70 176.5v9h-85v76h85v70h-85v76h85v8q2 111 74 176t182 65q47 0 86 -13t61.5 -31t38.5 -36.5t22 -31.5l6 -13l-117 -64l-3 6t-10.5 14.5t-19.5 18t-29.5 14t-40.5 6.5q-48 0 -78 -30t-30 -79v-10h248v-76h-248v-70h228v-76h-228v-10
q0 -49 30 -79t78 -30q34 0 59.5 15t34.5 29l9 15l117 -64q-2 -5 -6.5 -13.5t-22.5 -30t-40.5 -38t-62.5 -30t-87 -13.5z" />
    <glyph glyph-name="trademark" unicode="&#x2122;" horiz-adv-x="786" 
d="M230 625v-240h-84v240h-94v75h271v-75h-93zM456 570v-185h-81v315h86l94 -168l95 168h83v-315h-82v184l-76 -135h-42z" />
    <glyph glyph-name="minus" unicode="&#x2212;" 
d="M50 291v129h515v-129h-515z" />
    <glyph glyph-name="uni2713" unicode="&#x2713;" horiz-adv-x="758" 
d="M52 318l81 82l144 -142l348 347l81 -82l-429 -428z" />
    <glyph glyph-name="G.ss01" horiz-adv-x="775" 
d="M410 -10q-156 0 -260.5 102.5t-104.5 254.5t107 257.5t263 105.5q52 0 98.5 -11t76 -27t52 -32.5t32.5 -27.5l10 -11l-107 -107q-2 3 -6.5 8t-19.5 18t-33 23t-46.5 18t-59.5 8q-92 0 -153 -63t-61 -158t61 -158t153 -63q50 0 90.5 14.5t55.5 28.5l15 14v86h-168v110h310
v-266q-4 -5 -12 -13.5t-36.5 -30t-61 -37.5t-85.5 -29.5t-110 -13.5z" />
    <glyph glyph-name="Gbreve.ss01" horiz-adv-x="775" 
d="M415 755q-75 0 -123 45.5t-48 117.5v5h100v-13q0 -31 19.5 -50.5t52.5 -19.5t51.5 19.5t18.5 50.5v13h100v-5q0 -72 -48 -117.5t-123 -45.5zM410 -10q-156 0 -260.5 102.5t-104.5 254.5t107 257.5t263 105.5q52 0 98.5 -11t76 -27t52 -32.5t32.5 -27.5l10 -11l-107 -107
q-2 3 -6.5 8t-19.5 18t-33 23t-46.5 18t-59.5 8q-92 0 -153 -63t-61 -158t61 -158t153 -63q50 0 90.5 14.5t55.5 28.5l15 14v86h-168v110h310v-266q-4 -5 -12 -13.5t-36.5 -30t-61 -37.5t-85.5 -29.5t-110 -13.5z" />
    <glyph glyph-name="Gcircumflex.ss01" horiz-adv-x="775" 
d="M210 755l140 168h130l140 -168h-125l-83 82l-81 -82h-121zM410 -10q-156 0 -260.5 102.5t-104.5 254.5t107 257.5t263 105.5q52 0 98.5 -11t76 -27t52 -32.5t32.5 -27.5l10 -11l-107 -107q-2 3 -6.5 8t-19.5 18t-33 23t-46.5 18t-59.5 8q-92 0 -153 -63t-61 -158t61 -158
t153 -63q50 0 90.5 14.5t55.5 28.5l15 14v86h-168v110h310v-266q-4 -5 -12 -13.5t-36.5 -30t-61 -37.5t-85.5 -29.5t-110 -13.5z" />
    <glyph glyph-name="uni0122.ss01" horiz-adv-x="775" 
d="M410 -10q-156 0 -260.5 102.5t-104.5 254.5t107 257.5t263 105.5q52 0 98.5 -11t76 -27t52 -32.5t32.5 -27.5l10 -11l-107 -107q-2 3 -6.5 8t-19.5 18t-33 23t-46.5 18t-59.5 8q-92 0 -153 -63t-61 -158t61 -158t153 -63q50 0 90.5 14.5t55.5 28.5l15 14v86h-168v110h310
v-266q-4 -5 -12 -13.5t-36.5 -30t-61 -37.5t-85.5 -29.5t-110 -13.5zM245 -218l66 168h154l-106 -168h-114z" />
    <glyph glyph-name="Gdotaccent.ss01" horiz-adv-x="775" 
d="M415 765q-33 0 -54.5 21.5t-21.5 54.5t22 55t55 22t54.5 -21.5t21.5 -53.5q0 -33 -22 -55.5t-55 -22.5zM410 -10q-156 0 -260.5 102.5t-104.5 254.5t107 257.5t263 105.5q52 0 98.5 -11t76 -27t52 -32.5t32.5 -27.5l10 -11l-107 -107q-2 3 -6.5 8t-19.5 18t-33 23
t-46.5 18t-59.5 8q-92 0 -153 -63t-61 -158t61 -158t153 -63q50 0 90.5 14.5t55.5 28.5l15 14v86h-168v110h310v-266q-4 -5 -12 -13.5t-36.5 -30t-61 -37.5t-85.5 -29.5t-110 -13.5z" />
    <glyph glyph-name="K.ss01" horiz-adv-x="718" 
d="M314 296l-81 -85v-211h-153v700h153v-318l285 318h187l-280 -307l300 -393h-190z" />
    <glyph glyph-name="uni0136.ss01" horiz-adv-x="718" 
d="M314 296l-81 -85v-211h-153v700h153v-318l285 318h187l-280 -307l300 -393h-190zM236 -218l66 168h154l-106 -168h-114z" />
    <glyph glyph-name="i.loclTRK" horiz-adv-x="277" 
d="M138 582q-33 0 -54.5 21.5t-21.5 54.5t22 55t55 22t54.5 -21.5t21.5 -53.5q0 -33 -22 -55.5t-55 -22.5zM65 517h147v-517h-147v517z" />
    <glyph glyph-name="a.ss01" horiz-adv-x="649" 
d="M284 -10q-103 0 -176 77t-73 189q0 113 75 192t179 79q105 0 167 -83l12 73h121v-517h-121l-13 77q-63 -87 -171 -87zM314 123q57 0 95.5 39t38.5 96t-38.5 96t-95.5 39t-95.5 -39t-38.5 -96t38.5 -96t95.5 -39z" />
    <glyph glyph-name="aacute.ss01" horiz-adv-x="649" 
d="M268 572l66 168h154l-106 -168h-114zM284 -10q-103 0 -176 77t-73 189q0 113 75 192t179 79q105 0 167 -83l12 73h121v-517h-121l-13 77q-63 -87 -171 -87zM314 123q57 0 95.5 39t38.5 96t-38.5 96t-95.5 39t-95.5 -39t-38.5 -96t38.5 -96t95.5 -39z" />
    <glyph glyph-name="abreve.ss01" horiz-adv-x="649" 
d="M325 572q-75 0 -123 45.5t-48 117.5v5h100v-13q0 -31 19.5 -50.5t52.5 -19.5t51.5 19.5t18.5 50.5v13h100v-5q0 -72 -48 -117.5t-123 -45.5zM284 -10q-103 0 -176 77t-73 189q0 113 75 192t179 79q105 0 167 -83l12 73h121v-517h-121l-13 77q-63 -87 -171 -87zM314 123
q57 0 95.5 39t38.5 96t-38.5 96t-95.5 39t-95.5 -39t-38.5 -96t38.5 -96t95.5 -39z" />
    <glyph glyph-name="acircumflex.ss01" horiz-adv-x="649" 
d="M120 572l140 168h130l140 -168h-125l-83 82l-81 -82h-121zM284 -10q-103 0 -176 77t-73 189q0 113 75 192t179 79q105 0 167 -83l12 73h121v-517h-121l-13 77q-63 -87 -171 -87zM314 123q57 0 95.5 39t38.5 96t-38.5 96t-95.5 39t-95.5 -39t-38.5 -96t38.5 -96t95.5 -39z
" />
    <glyph glyph-name="adieresis.ss01" horiz-adv-x="649" 
d="M214 582q-33 0 -54.5 21.5t-21.5 54.5t22 55t55 22t54.5 -21.5t21.5 -53.5q0 -33 -22 -55.5t-55 -22.5zM434 582q-33 0 -54.5 21.5t-21.5 54.5t22 55t55 22t54.5 -21.5t21.5 -53.5q0 -33 -22 -55.5t-55 -22.5zM284 -10q-103 0 -176 77t-73 189q0 113 75 192t179 79
q105 0 167 -83l12 73h121v-517h-121l-13 77q-63 -87 -171 -87zM314 123q57 0 95.5 39t38.5 96t-38.5 96t-95.5 39t-95.5 -39t-38.5 -96t38.5 -96t95.5 -39z" />
    <glyph glyph-name="agrave.ss01" horiz-adv-x="649" 
d="M267 572l-106 168h154l66 -168h-114zM284 -10q-103 0 -176 77t-73 189q0 113 75 192t179 79q105 0 167 -83l12 73h121v-517h-121l-13 77q-63 -87 -171 -87zM314 123q57 0 95.5 39t38.5 96t-38.5 96t-95.5 39t-95.5 -39t-38.5 -96t38.5 -96t95.5 -39z" />
    <glyph glyph-name="amacron.ss01" horiz-adv-x="649" 
d="M145 618v84h360v-84h-360zM284 -10q-103 0 -176 77t-73 189q0 113 75 192t179 79q105 0 167 -83l12 73h121v-517h-121l-13 77q-63 -87 -171 -87zM314 123q57 0 95.5 39t38.5 96t-38.5 96t-95.5 39t-95.5 -39t-38.5 -96t38.5 -96t95.5 -39z" />
    <glyph glyph-name="aogonek.ss01" horiz-adv-x="649" 
d="M626 -77l23 -82q-31 -26 -88 -26q-60 0 -101 35.5t-41 93.5q0 54 43 91l-7 42q-63 -87 -171 -87q-103 0 -176 77t-73 189q0 113 75 192t179 79q105 0 167 -83l12 73h121v-517h-54q-20 -12 -20 -41q0 -21 17 -35t43 -14q14 0 26.5 3t18.5 7zM314 123q57 0 95.5 39t38.5 96
t-38.5 96t-95.5 39t-95.5 -39t-38.5 -96t38.5 -96t95.5 -39z" />
    <glyph glyph-name="aring.ss01" horiz-adv-x="649" 
d="M325 552q-43 0 -71 26.5t-28 67.5t28 67.5t71 26.5q42 0 70 -27t28 -67t-28 -67t-70 -27zM325 602q18 0 30.5 13t12.5 31q0 19 -12 31t-31 12q-20 0 -32.5 -12t-12.5 -31q0 -18 13 -31t32 -13zM284 -10q-103 0 -176 77t-73 189q0 113 75 192t179 79q105 0 167 -83l12 73
h121v-517h-121l-13 77q-63 -87 -171 -87zM314 123q57 0 95.5 39t38.5 96t-38.5 96t-95.5 39t-95.5 -39t-38.5 -96t38.5 -96t95.5 -39z" />
    <glyph glyph-name="aringacute.ss01" horiz-adv-x="649" 
d="M468 517h121v-517h-121l-13 77q-63 -87 -171 -87q-103 0 -176 77t-73 189q0 96 56.5 170t142.5 95q-20 23 -20 58q0 32 18.5 56.5t48.5 33.5l25 71h154l-69 -103q20 -25 20 -58q0 -44 -33 -71q48 -23 78 -64zM312 622q-19 0 -31.5 -12.5t-12.5 -30.5q0 -19 12.5 -31.5
t31.5 -12.5t31.5 12.5t12.5 31.5q0 18 -12.5 30.5t-31.5 12.5zM314 123q57 0 95.5 39t38.5 96t-38.5 96t-95.5 39t-95.5 -39t-38.5 -96t38.5 -96t95.5 -39z" />
    <glyph glyph-name="atilde.ss01" horiz-adv-x="649" 
d="M395 575q-33 0 -58.5 18t-45.5 36t-39 18q-14 0 -23 -14.5t-11 -28.5l-2 -15l-72 8q0 6 1 15t7 33t16.5 42t32 33t50.5 15q34 0 60 -18t45.5 -36t38.5 -18q14 0 23 14.5t11 28.5l2 15l73 -8q0 -6 -1 -15t-7.5 -33t-16.5 -42t-32.5 -33t-51.5 -15zM284 -10q-103 0 -176 77
t-73 189q0 113 75 192t179 79q105 0 167 -83l12 73h121v-517h-121l-13 77q-63 -87 -171 -87zM314 123q57 0 95.5 39t38.5 96t-38.5 96t-95.5 39t-95.5 -39t-38.5 -96t38.5 -96t95.5 -39z" />
    <glyph glyph-name="k.ss01" horiz-adv-x="603" 
d="M277 212l-72 -66v-146h-145v700h145v-396l208 213h187l-218 -215l228 -302h-179z" />
    <glyph glyph-name="uni0137.ss01" horiz-adv-x="603" 
d="M277 212l-72 -66v-146h-145v700h145v-396l208 213h187l-218 -215l228 -302h-179zM175 -218l66 168h154l-106 -168h-114z" />
    <glyph glyph-name="uni0414.loclBGR" horiz-adv-x="810" 
d="M713 137h82v-257h-146v120h-489v-120h-145v257h82l231 563h153zM401 517l-146 -380h292z" />
    <glyph glyph-name="uni041B.loclBGR" horiz-adv-x="715" 
d="M713 0h-173l-186 502l-187 -502h-165l279 700h153z" />
    <glyph glyph-name="uni0424.loclBGR" horiz-adv-x="960" 
d="M915 353q0 -148 -102.5 -252t-259.5 -111v-80h-146v80q-159 5 -260.5 107t-101.5 250t102.5 252t259.5 111v80h146v-80q159 -5 260.5 -107t101.5 -250zM553 127q95 6 152 68.5t57 154.5t-57 154.5t-152 68.5v-446zM198 350q0 -92 57 -154.5t152 -67.5v444
q-95 -5 -152 -67.5t-57 -154.5z" />
    <glyph glyph-name="uni0416.ss01" horiz-adv-x="1122" 
d="M-8 0l300 393l-280 307h188l285 -318v318h153v-318l285 318h187l-280 -307l300 -393h-190l-221 296l-81 -85v-211h-153v211l-81 85l-221 -296h-191z" />
    <glyph glyph-name="uni041A.ss01" horiz-adv-x="718" 
d="M314 296l-81 -85v-211h-153v700h153v-318l285 318h187l-280 -307l300 -393h-190z" />
    <glyph glyph-name="uni040C.ss01" horiz-adv-x="718" 
d="M302 755l66 168h154l-106 -168h-114zM314 296l-81 -85v-211h-153v700h153v-318l285 318h187l-280 -307l300 -393h-190z" />
    <glyph glyph-name="uni0496.ss01" horiz-adv-x="1175" 
d="M1025 137h135v-257h-145v120h-75l-221 296l-81 -85v-211h-153v211l-81 85l-221 -296h-191l300 393l-280 307h188l285 -318v318h153v-318l285 318h187l-280 -307z" />
    <glyph glyph-name="uni049A.ss01" horiz-adv-x="770" 
d="M620 137h135v-257h-145v120h-75l-221 296l-81 -85v-211h-153v700h153v-318l285 318h187l-280 -307z" />
    <glyph glyph-name="uni04A0.ss01" horiz-adv-x="798" 
d="M15 571v129h298v-318l285 318h187l-280 -307l300 -393h-190l-221 296l-81 -85v-211h-153v571h-145z" />
    <glyph glyph-name="uni04C1.ss01" horiz-adv-x="1122" 
d="M561 755q-75 0 -123 45.5t-48 117.5v5h100v-13q0 -31 19.5 -50.5t52.5 -19.5t51.5 19.5t18.5 50.5v13h100v-5q0 -72 -48 -117.5t-123 -45.5zM-8 0l300 393l-280 307h188l285 -318v318h153v-318l285 318h187l-280 -307l300 -393h-190l-221 296l-81 -85v-211h-153v211
l-81 85l-221 -296h-191z" />
    <glyph glyph-name="uni04DC.ss01" horiz-adv-x="1122" 
d="M451 765q-33 0 -54.5 21.5t-21.5 54.5t22 55t55 22t54.5 -21.5t21.5 -53.5q0 -33 -22 -55.5t-55 -22.5zM671 765q-33 0 -54.5 21.5t-21.5 54.5t22 55t55 22t54.5 -21.5t21.5 -53.5q0 -33 -22 -55.5t-55 -22.5zM-8 0l300 393l-280 307h188l285 -318v318h153v-318l285 318
h187l-280 -307l300 -393h-190l-221 296l-81 -85v-211h-153v211l-81 85l-221 -296h-191z" />
    <glyph glyph-name="uni0432.loclBGR" horiz-adv-x="620" 
d="M470 370q115 -50 115 -170q0 -90 -75.5 -150t-183.5 -60q-125 0 -195.5 68.5t-70.5 194.5v198q0 119 69.5 189t181.5 70q108 0 176 -55t68 -140q0 -95 -85 -145zM310 588q-46 0 -75.5 -30.5t-29.5 -81.5v-61h105q44 0 72 24t28 62t-28 62.5t-72 24.5zM328 112
q51 0 81.5 27.5t30.5 70.5q0 42 -31 69.5t-82 27.5h-122v-75q0 -52 35 -86t88 -34z" />
    <glyph glyph-name="uni0433.loclBGR" horiz-adv-x="470" 
d="M297 378q0 15 -15.5 26t-44.5 11q-30 0 -64 -12.5t-53 -24.5l-18 -13l-53 96q9 7 25.5 18t66.5 29.5t100 18.5q94 0 146.5 -42t52.5 -106q0 -52 -41 -92.5t-112 -63.5q-67 -21 -93 -39.5t-26 -38.5q0 -19 17 -31t47 -12q36 0 74 14t58 28l20 15l60 -94q-3 -3 -9.5 -8
t-27 -18t-43.5 -23t-59 -18t-73 -8q-97 0 -152 43.5t-55 113.5q0 111 168 164q59 19 81.5 34t22.5 33z" />
    <glyph glyph-name="uni0434.loclBGR" horiz-adv-x="649" 
d="M93 13q9 -7 26 -17t67 -27t98 -17q75 0 117 37.5t42 107.5v11q-56 -63 -155 -63q-107 0 -180 69.5t-73 168.5q0 104 72.5 174t185.5 70q100 0 165 -72l10 62h121v-388q0 -137 -77 -218t-216 -81q-71 0 -135.5 19.5t-92.5 38.5l-29 20zM448 282q0 51 -38.5 86.5
t-95.5 35.5t-95.5 -35.5t-38.5 -86.5t38.5 -86.5t95.5 -35.5t95.5 35.5t38.5 86.5z" />
    <glyph glyph-name="uni0436.loclBGR" horiz-adv-x="915" 
d="M-8 0l248 282l-228 235h179l194 -221v404h145v-404l194 221h179l-227 -235l247 -282h-182l-211 252v-252h-145v252l-211 -252h-182z" />
    <glyph glyph-name="uni0438.loclBGR" horiz-adv-x="614" 
d="M409 517h145v-517h-129l-7 80q-56 -90 -170 -90q-85 0 -139.5 56.5t-54.5 155.5v315h145v-268q0 -62 28 -93.5t73 -31.5q48 0 78.5 32.5t30.5 97.5v263z" />
    <glyph glyph-name="uni0439.loclBGR" horiz-adv-x="614" 
d="M307 572q-75 0 -123 45.5t-48 117.5v5h100v-13q0 -31 19.5 -50.5t52.5 -19.5t51.5 19.5t18.5 50.5v13h100v-5q0 -72 -48 -117.5t-123 -45.5zM409 517h145v-517h-129l-7 80q-56 -90 -170 -90q-85 0 -139.5 56.5t-54.5 155.5v315h145v-268q0 -62 28 -93.5t73 -31.5
q48 0 78.5 32.5t30.5 97.5v263z" />
    <glyph glyph-name="uni045D.loclBGR" horiz-adv-x="614" 
d="M250 572l-106 168h154l66 -168h-114zM409 517h145v-517h-129l-7 80q-56 -90 -170 -90q-85 0 -139.5 56.5t-54.5 155.5v315h145v-268q0 -62 28 -93.5t73 -31.5q48 0 78.5 32.5t30.5 97.5v263z" />
    <glyph glyph-name="uni043A.loclBGR" horiz-adv-x="593" 
d="M60 0v700h145v-403l194 220h181l-227 -235l247 -282h-184l-211 252v-252h-145z" />
    <glyph glyph-name="uni043B.loclBGR" horiz-adv-x="543" 
d="M342 517l206 -517h-162l-118 327l-119 -327h-154l206 517h141z" />
    <glyph glyph-name="uni043F.loclBGR" horiz-adv-x="614" 
d="M205 0h-145v517h129l7 -80q56 90 170 90q85 0 139.5 -56.5t54.5 -155.5v-315h-145v268q0 62 -28 93.5t-73 31.5q-48 0 -78.5 -32.5t-30.5 -97.5v-263z" />
    <glyph glyph-name="uni0442.loclBGR" horiz-adv-x="949" 
d="M60 517h129l7 -79q55 89 165 89q57 0 101.5 -28t67.5 -81q24 52 70.5 80.5t104.5 28.5q83 0 136.5 -56.5t53.5 -154.5v-316h-146v269q0 62 -26 93t-69 31q-45 0 -74.5 -30t-29.5 -89v-274h-145v269q0 62 -26.5 93t-69.5 31q-45 0 -74.5 -30t-29.5 -89v-274h-145v517z" />
    <glyph glyph-name="uni0446.loclBGR" horiz-adv-x="656" 
d="M554 129h87v-249h-137v120h-79l-7 80q-56 -90 -170 -90q-85 0 -139.5 56.5t-54.5 155.5v315h145v-268q0 -62 28 -93.5t73 -31.5q48 0 78.5 32.5t30.5 97.5v263h145v-388z" />
    <glyph glyph-name="uni0448.loclBGR" horiz-adv-x="949" 
d="M889 0h-129l-7 79q-55 -89 -165 -89q-57 0 -101.5 28t-67.5 81q-24 -52 -70.5 -80.5t-104.5 -28.5q-83 0 -136.5 56.5t-53.5 154.5v316h146v-269q0 -62 26 -93t69 -31q45 0 74.5 30t29.5 89v274h145v-269q0 -62 26.5 -93t69.5 -31q45 0 74.5 30t29.5 89v274h145v-517z
" />
    <glyph glyph-name="uni0449.loclBGR" horiz-adv-x="1006" 
d="M889 129h87v-249h-138v120h-78l-7 79q-55 -89 -165 -89q-57 0 -102 28t-67 80q-25 -52 -71.5 -80t-104.5 -28q-83 0 -136 56t-53 155v316h145v-269q0 -62 26 -93.5t69 -31.5q45 0 74.5 30t29.5 90v274h146v-269q0 -62 26 -93.5t69 -31.5q45 0 74.5 30t29.5 90v274h146
v-388z" />
    <glyph glyph-name="uni044C.loclBGR" horiz-adv-x="555" 
d="M60 227v290h145v-134h104q95 0 154 -53t59 -136q0 -85 -62.5 -139.5t-168.5 -54.5q-107 0 -169 61.5t-62 165.5zM205 208q0 -40 23.5 -65t62.5 -25t62.5 22.5t23.5 56.5t-26 56.5t-67 22.5h-79v-68z" />
    <glyph glyph-name="uni044A.loclBGR" horiz-adv-x="635" 
d="M285 383h104q95 0 154 -53t59 -136q0 -85 -62.5 -139.5t-168.5 -54.5q-107 0 -169 61.5t-62 165.5v168h-125v122h270v-134zM285 208q0 -40 23.5 -65t62.5 -25t62.5 22.5t23.5 56.5t-26 56.5t-67 22.5h-79v-68z" />
    <glyph glyph-name="uni044E.loclBGR" horiz-adv-x="901" 
d="M589 527q120 0 198.5 -76t78.5 -190t-81 -192.5t-201 -78.5q-103 0 -177.5 58.5t-93.5 150.5h-106v-199h-147v700h147v-372h110q24 88 98.5 143.5t173.5 55.5zM587 123q57 0 95.5 39t38.5 96t-38.5 96t-95.5 39t-95.5 -39t-38.5 -96t38.5 -96t95.5 -39z" />
    <glyph glyph-name="uni0431.loclSRB" horiz-adv-x="629" 
d="M305 516q131 -17 210 -81.5t79 -178.5q0 -112 -81.5 -189t-200.5 -77t-198 74t-79 183q0 72 36.5 123.5t101.5 77.5q-101 46 -101 131q0 55 38 88t100 33h318v-118h-264q-39 0 -39 -25q0 -27 80 -41zM315 120q57 0 95.5 37.5t38.5 92.5q0 54 -38 90.5t-96 36.5
t-96.5 -36.5t-38.5 -90.5q0 -55 38.5 -92.5t96.5 -37.5z" />
    <glyph glyph-name="uni0430.ss01" horiz-adv-x="649" 
d="M284 -10q-103 0 -176 77t-73 189q0 113 75 192t179 79q105 0 167 -83l12 73h121v-517h-121l-13 77q-63 -87 -171 -87zM314 123q57 0 95.5 39t38.5 96t-38.5 96t-95.5 39t-95.5 -39t-38.5 -96t38.5 -96t95.5 -39z" />
    <glyph glyph-name="uni0436.ss01" horiz-adv-x="940" 
d="M-8 0l229 302l-219 215h187l208 -213v213h146v-213l208 213h187l-219 -215l229 -302h-180l-154 212l-71 -66v-146h-146v146l-71 66l-154 -212h-180z" />
    <glyph glyph-name="uni043A.ss01" horiz-adv-x="603" 
d="M277 212l-72 -66v-146h-145v517h145v-213l208 213h187l-218 -215l228 -302h-179z" />
    <glyph glyph-name="uni045C.ss01" horiz-adv-x="603" 
d="M244 572l66 168h154l-106 -168h-114zM277 212l-72 -66v-146h-145v517h145v-213l208 213h187l-218 -215l228 -302h-179z" />
    <glyph glyph-name="uni0497.ss01" horiz-adv-x="982" 
d="M850 129h118v-249h-138v120h-62l-154 212l-71 -66v-146h-146v146l-71 66l-154 -212h-180l229 302l-219 215h187l208 -213v213h146v-213l208 213h187l-219 -215z" />
    <glyph glyph-name="uni049B.ss01" horiz-adv-x="645" 
d="M513 129h117v-249h-138v120h-61l-154 212l-72 -66v-146h-145v517h145v-213l208 213h187l-218 -215z" />
    <glyph glyph-name="uni04A1.ss01" horiz-adv-x="683" 
d="M15 395v122h270v-213l208 213h187l-218 -215l228 -302h-179l-154 212l-72 -66v-146h-145v395h-125z" />
    <glyph glyph-name="uni04C2.ss01" horiz-adv-x="940" 
d="M470 572q-75 0 -123 45.5t-48 117.5v5h100v-13q0 -31 19.5 -50.5t52.5 -19.5t51.5 19.5t18.5 50.5v13h100v-5q0 -72 -48 -117.5t-123 -45.5zM-8 0l229 302l-219 215h187l208 -213v213h146v-213l208 213h187l-219 -215l229 -302h-180l-154 212l-71 -66v-146h-146v146
l-71 66l-154 -212h-180z" />
    <glyph glyph-name="uni04D1.ss01" horiz-adv-x="649" 
d="M325 572q-75 0 -123 45.5t-48 117.5v5h100v-13q0 -31 19.5 -50.5t52.5 -19.5t51.5 19.5t18.5 50.5v13h100v-5q0 -72 -48 -117.5t-123 -45.5zM284 -10q-103 0 -176 77t-73 189q0 113 75 192t179 79q105 0 167 -83l12 73h121v-517h-121l-13 77q-63 -87 -171 -87zM314 123
q57 0 95.5 39t38.5 96t-38.5 96t-95.5 39t-95.5 -39t-38.5 -96t38.5 -96t95.5 -39z" />
    <glyph glyph-name="uni04D3.ss01" horiz-adv-x="649" 
d="M214 582q-33 0 -54.5 21.5t-21.5 54.5t22 55t55 22t54.5 -21.5t21.5 -53.5q0 -33 -22 -55.5t-55 -22.5zM434 582q-33 0 -54.5 21.5t-21.5 54.5t22 55t55 22t54.5 -21.5t21.5 -53.5q0 -33 -22 -55.5t-55 -22.5zM284 -10q-103 0 -176 77t-73 189q0 113 75 192t179 79
q105 0 167 -83l12 73h121v-517h-121l-13 77q-63 -87 -171 -87zM314 123q57 0 95.5 39t38.5 96t-38.5 96t-95.5 39t-95.5 -39t-38.5 -96t38.5 -96t95.5 -39z" />
    <glyph glyph-name="uni04DD.ss01" horiz-adv-x="940" 
d="M360 582q-33 0 -54.5 21.5t-21.5 54.5t22 55t55 22t54.5 -21.5t21.5 -53.5q0 -33 -22 -55.5t-55 -22.5zM580 582q-33 0 -54.5 21.5t-21.5 54.5t22 55t55 22t54.5 -21.5t21.5 -53.5q0 -33 -22 -55.5t-55 -22.5zM-8 0l229 302l-219 215h187l208 -213v213h146v-213l208 213
h187l-219 -215l229 -302h-180l-154 212l-71 -66v-146h-146v146l-71 66l-154 -212h-180z" />
    <glyph glyph-name="uni0436.loclBGR.ss01" horiz-adv-x="940" 
d="M-8 0l229 302l-219 215h187l208 -213v396h146v-396l208 213h187l-219 -215l229 -302h-180l-154 212l-71 -66v-146h-146v146l-71 66l-154 -212h-180z" />
    <glyph glyph-name="uni043A.loclBGR.ss01" horiz-adv-x="603" 
d="M277 212l-72 -66v-146h-145v700h145v-396l208 213h187l-218 -215l228 -302h-179z" />
    <glyph glyph-name="Kappa.ss01" horiz-adv-x="718" 
d="M314 296l-81 -85v-211h-153v700h153v-318l285 318h187l-280 -307l300 -393h-190z" />
    <glyph glyph-name="kappa.ss01" horiz-adv-x="603" 
d="M277 212l-72 -66v-146h-145v517h145v-213l208 213h187l-218 -215l228 -302h-179z" />
    <glyph glyph-name="zero.osf" horiz-adv-x="575" 
d="M47 405q0 114 68.5 179.5t174.5 65.5t172 -63t66 -177v-175q0 -114 -68.5 -179.5t-174.5 -65.5t-172 63t-66 177v175zM189 220q0 -45 27.5 -72.5t71.5 -27.5t71 27.5t27 72.5v200q0 45 -27 72.5t-71 27.5t-71.5 -27.5t-27.5 -72.5v-200z" />
    <glyph glyph-name="one.osf" horiz-adv-x="470" 
d="M264 640h116v-640h-141v471l-154 -101l-70 97z" />
    <glyph glyph-name="two.osf" horiz-adv-x="525" 
d="M39 0v108l238 218q65 59 65 112q0 38 -25.5 62t-65.5 24q-36 0 -65.5 -20t-41.5 -40l-11 -20l-106 56q2 6 6.5 16t23.5 36t43.5 46t68.5 36t96 16q94 0 156.5 -55.5t62.5 -138.5q0 -59 -29 -108t-92 -104l-136 -122h252v-122h-440z" />
    <glyph glyph-name="three.osf" horiz-adv-x="533" 
d="M248 -10q-50 0 -92.5 14.5t-67 35.5t-42 42t-24.5 36l-6 14l121 50q1 -3 3.5 -8t12 -18t21 -22.5t32 -17.5t43.5 -8q47 0 74.5 24t27.5 60q0 38 -28 62.5t-81 24.5h-62v96h55q45 0 70.5 22t25.5 57q0 36 -23.5 57t-61.5 21q-30 0 -52 -15t-29 -30l-7 -15l-119 47
q2 5 6 14t21.5 31.5t39.5 40t61.5 31.5t86.5 14q94 0 156.5 -48.5t62.5 -126.5q0 -94 -91 -143q111 -40 111 -147q0 -85 -68.5 -140t-176.5 -55z" />
    <glyph glyph-name="four.osf" horiz-adv-x="575" 
d="M319 0v136h-297v107l293 397h138v-401h100v-103h-100v-136h-134zM139 239h180v241z" />
    <glyph glyph-name="five.osf" horiz-adv-x="554" 
d="M69 640h410v-122h-284v-127q44 33 105 33q94 0 154 -57.5t60 -143.5q0 -104 -70 -168.5t-179 -64.5q-45 0 -84.5 13t-64 32t-43 38t-25.5 32l-8 13l108 69q2 -3 5 -8t14 -17.5t23.5 -22t33.5 -17.5t43 -8q48 0 76.5 27.5t28.5 73.5q0 40 -28 67t-71 27q-13 0 -24.5 -2.5
t-20 -6.5t-15.5 -8.5t-11.5 -9t-8 -8.5t-5.5 -7l-2 -3h-117v376z" />
    <glyph glyph-name="six.osf" horiz-adv-x="575" 
d="M40 221q0 90 69 187l166 232h158l-165 -217q30 12 57 12q87 0 148.5 -57.5t61.5 -147.5q0 -104 -74 -172t-176 -68q-99 0 -172 66t-73 165zM182 224q0 -45 29.5 -74t76.5 -29q46 0 75.5 29t29.5 74t-29.5 74t-75.5 29q-47 0 -76.5 -29t-29.5 -74z" />
    <glyph glyph-name="seven.osf" horiz-adv-x="495" 
d="M314 515h-292v125h451v-97l-246 -543h-154z" />
    <glyph glyph-name="eight.osf" horiz-adv-x="575" 
d="M66 469q0 79 63.5 130t160.5 51q96 0 157.5 -49t61.5 -127q0 -80 -75 -129q47 -26 74 -66t27 -87q0 -88 -71 -145t-179 -57t-176.5 54.5t-68.5 142.5q0 46 27 86.5t74 67.5q-75 46 -75 128zM204 461q0 -32 23.5 -53.5t60.5 -21.5q36 0 59.5 21.5t23.5 53.5
q0 33 -23.5 54.5t-59.5 21.5q-37 0 -60.5 -21.5t-23.5 -54.5zM182 199q0 -41 29.5 -68.5t76.5 -27.5q46 0 75.5 27.5t29.5 68.5q0 42 -29.5 69.5t-75.5 27.5q-47 0 -76.5 -27.5t-29.5 -69.5z" />
    <glyph glyph-name="nine.osf" horiz-adv-x="575" 
d="M535 419q0 -90 -69 -187l-166 -232h-158l165 217q-30 -12 -57 -12q-87 0 -148.5 57.5t-61.5 147.5q0 104 74 172t176 68q99 0 172 -66t73 -165zM393 416q0 45 -29.5 74t-75.5 29q-47 0 -76.5 -29t-29.5 -74t29.5 -73.5t76.5 -28.5q46 0 75.5 28.5t29.5 73.5z" />
    <glyph glyph-name="zero.tf" 
d="M57 455q0 118 71.5 186.5t181.5 68.5q111 0 179.5 -66t68.5 -184v-215q0 -118 -71.5 -186.5t-181.5 -68.5q-111 0 -179.5 66t-68.5 184v215zM203 230q0 -48 29 -77.5t76 -29.5t75.5 29.5t28.5 77.5v240q0 48 -28.5 77.5t-75.5 29.5t-76 -29.5t-29 -77.5v-240z" />
    <glyph glyph-name="one.tf" 
d="M79 0v118h193v411l-145 -96l-70 97l240 170h121v-582h163v-118h-502z" />
    <glyph glyph-name="two.tf" 
d="M67 0v112l243 223q48 45 67.5 78t19.5 71q0 40 -29 68t-78 28q-24 0 -46.5 -9t-36.5 -22t-25 -26t-16 -22l-4 -9l-106 68q2 6 7 16t25 36t45.5 46t71 36t99.5 16q104 0 171.5 -61t67.5 -148q0 -72 -32.5 -128.5t-107.5 -123.5l-136 -124h271v-125h-471z" />
    <glyph glyph-name="three.tf" 
d="M290 -10q-52 0 -96.5 15t-71 36t-46 42t-27.5 36l-8 15l109 66q2 -3 5 -9t15 -20.5t26.5 -25.5t39 -20t51.5 -9q56 0 88.5 27t32.5 67q0 42 -34 68.5t-99 26.5h-71v110h72q55 0 83.5 23t28.5 62q0 38 -28.5 61t-75.5 23q-37 0 -65 -17.5t-37 -34.5l-10 -18l-106 61
q2 5 7 14.5t24.5 32.5t43 41t65 32.5t89.5 14.5q102 0 170.5 -52.5t68.5 -136.5q0 -101 -103 -156q58 -25 90.5 -69t32.5 -102q0 -91 -74.5 -147.5t-189.5 -56.5z" />
    <glyph glyph-name="four.tf" 
d="M345 0v155h-313v118l309 427h142v-431h100v-114h-100v-155h-138zM154 269h191v261z" />
    <glyph glyph-name="five.tf" 
d="M85 700h440v-125h-310v-148q51 38 116 38q100 0 164.5 -65t64.5 -160q0 -109 -74 -179.5t-190 -70.5q-46 0 -88 13t-68.5 32t-46.5 38t-29 32l-8 13l109 77q2 -3 5.5 -8t15.5 -17t25.5 -21.5t36 -17.5t46.5 -8q54 0 87.5 32t33.5 81q0 43 -30.5 73t-80.5 30
q-62 0 -95 -49h-124v410z" />
    <glyph glyph-name="six.tf" 
d="M50 236q0 98 63 192l182 272h163l-171 -246q26 11 54 11q93 0 158.5 -62.5t65.5 -157.5q0 -111 -75.5 -183t-184.5 -72q-105 0 -180 70t-75 176zM195 239q0 -50 31.5 -83t81.5 -33t81 33t31 83q0 49 -31 82t-81 33t-81.5 -32.5t-31.5 -82.5z" />
    <glyph glyph-name="seven.tf" 
d="M408 571h-356v129h521v-100l-308 -600h-157z" />
    </font>
</defs>
</svg>
