<?xml version="1.0" standalone="no"?>
<!DOCTYPE svg PUBLIC "-//W3C//DTD SVG 1.1//EN" "http://www.w3.org/Graphics/SVG/1.1/DTD/svg11.dtd" >
<svg xmlns="http://www.w3.org/2000/svg" xmlns:xlink="http://www.w3.org/1999/xlink" version="1.1">
<metadata>
Created by FontForge 20170731 at Thu Feb  6 18:52:26 2020
 By Aleksey,,,
Copyright (c) 2020 by Richard Miller. All rights reserved.
</metadata>
<defs>
<font id="UniformPro-Thn" horiz-adv-x="600" >
  <font-face 
    font-family="Uniform Pro Thin"
    font-weight="400"
    font-stretch="normal"
    units-per-em="1000"
    panose-1="0 0 2 0 0 0 0 0 0 0"
    ascent="807"
    descent="-193"
    x-height="506"
    cap-height="700"
    bbox="-410 -210 1180 934"
    underline-thickness="50"
    underline-position="-200"
    unicode-range="U+0020-FB02"
  />
<missing-glyph horiz-adv-x="691" 
d="M20 0v700h651v-700h-651zM186 155l159 159l159 -159l36 36l-159 159l159 158l-36 36l-159 -158l-158 159l-36 -36l158 -159l-159 -159z" />
    <glyph glyph-name="ellipsis" unicode="&#x2e;&#x2e;&#x2e;" horiz-adv-x="610" 
d="M50 25q0 14 10.5 24.5t24.5 10.5t24.5 -10.5t10.5 -24.5t-10.5 -24.5t-24.5 -10.5t-24.5 10.5t-10.5 24.5zM270 25q0 14 10.5 24.5t24.5 10.5t24.5 -10.5t10.5 -24.5t-10.5 -24.5t-24.5 -10.5t-24.5 10.5t-10.5 24.5zM490 25q0 14 10.5 24.5t24.5 10.5t24.5 -10.5
t10.5 -24.5t-10.5 -24.5t-24.5 -10.5t-24.5 10.5t-10.5 24.5z" />
    <glyph glyph-name="fi" unicode="fi" horiz-adv-x="637" 
d="M130 0v444h-110v32h110v59q0 85 44 130t121 45q31 0 56 -5t35 -10l9 -5l-8 -34q-34 17 -92 17t-91.5 -35t-33.5 -103v-59h215v-32h-215v-444h-40zM486 655q0 14 10.5 24.5t24.5 10.5t24.5 -10.5t10.5 -24.5t-10.5 -24.5t-24.5 -10.5t-24.5 10.5t-10.5 24.5zM500 506h42
v-506h-42v506z" />
    <glyph glyph-name="fl" unicode="fl" horiz-adv-x="637" 
d="M130 0v444h-110v32h110v59q0 85 44 130t121 45q31 0 56 -5t35 -10l9 -5l-8 -34q-34 17 -92 17t-91.5 -35t-33.5 -103v-59h215v-32h-215v-444h-40zM500 700h42v-700h-42v700z" />
    <glyph glyph-name="f_f.liga" unicode="ff" horiz-adv-x="740" 
d="M130 0v444h-110v32h110v59q0 85 44 130t121 45q31 0 56 -5t35 -10l9 -5l-8 -34q-34 17 -92 17t-91.5 -35t-33.5 -103v-59h215v-32h-215v-444h-40zM465 0v525q0 92 43.5 138.5t121.5 46.5q31 0 56 -5t34 -10l10 -5l-8 -34q-34 17 -92 17t-91.5 -37t-33.5 -111v-49h215v-32
h-215v-444h-40z" />
    <glyph glyph-name="f_t.liga" unicode="ft" horiz-adv-x="755" 
d="M130 0v444h-110v32h110v59q0 85 44 130t121 45q31 0 56 -5t35 -10l9 -5l-8 -34q-34 17 -92 17t-91.5 -35t-33.5 -103v-59h215v-32h-215v-444h-40zM615 -10q-71 0 -110.5 40.5t-39.5 119.5v490h40v-134h220v-32h-220v-324q0 -61 29.5 -92t80.5 -31q24 0 49.5 4t39.5 8
l13 4l8 -33q-38 -20 -110 -20z" />
    <glyph glyph-name="r_f.liga" unicode="rf" horiz-adv-x="715" 
d="M440 0v525q0 92 43.5 138.5t121.5 46.5q31 0 56 -5t35 -10l9 -5l-8 -34q-34 17 -92 17t-91.5 -37t-33.5 -111v-49h215v-32h-215v-444h-40zM90 0v506h35l5 -122q58 132 218 132l-1 -39h-5q-100 0 -156 -61.5t-56 -184.5v-231h-40z" />
    <glyph glyph-name="r_t.liga" unicode="rt" horiz-adv-x="730" 
d="M590 -10q-71 0 -110.5 40.5t-39.5 119.5v490h40v-134h220v-32h-220v-324q0 -61 29.5 -92t80.5 -31q24 0 49.5 4t38.5 8l14 4l8 -33q-38 -20 -110 -20zM90 0v506h35l5 -122q58 132 218 132l-1 -39h-5q-100 0 -156 -61.5t-56 -184.5v-231h-40z" />
    <glyph glyph-name="r_t_f.liga" unicode="rtf" horiz-adv-x="1055" 
d="M780 0v525q0 92 43.5 138.5t121.5 46.5q31 0 56 -5t35 -10l9 -5l-8 -34q-34 17 -92 17t-91.5 -37t-33.5 -111v-49h215v-32h-215v-444h-40zM590 -10q-71 0 -110.5 40.5t-39.5 119.5v490h40v-134h220v-32h-220v-324q0 -61 29.5 -92t80.5 -31q24 0 49.5 4t38.5 8l14 4l8 -33
q-38 -20 -110 -20zM90 0v506h35l5 -122q58 132 218 132l-1 -39h-5q-100 0 -156 -61.5t-56 -184.5v-231h-40z" />
    <glyph glyph-name="t_f.liga" unicode="tf" horiz-adv-x="745" 
d="M470 0v525q0 92 43.5 138.5t121.5 46.5q31 0 56 -5t35 -10l9 -5l-8 -34q-34 17 -92 17t-91.5 -37t-33.5 -111v-49h215v-32h-215v-444h-40zM287 -10q-73 0 -115 42t-42 123v319h-110v32h110v134h40v-134h220v-32h-220v-319q0 -63 32 -95.5t85 -32.5q23 0 47 4t36 8l12 4
l8 -33q-33 -20 -103 -20z" />
    <glyph glyph-name="t_t.liga" unicode="tt" horiz-adv-x="760" 
d="M287 -10q-73 0 -115 42t-42 123v319h-110v32h110v134h40v-134h220v-32h-220v-319q0 -63 32 -95.5t85 -32.5q23 0 47 4t36 8l12 4l8 -33q-33 -20 -103 -20zM620 -10q-71 0 -110.5 40.5t-39.5 119.5v490h40v-134h220v-32h-220v-324q0 -61 29.5 -92t80.5 -31q24 0 49.5 4
t38.5 8l14 4l8 -33q-38 -20 -110 -20z" />
    <glyph glyph-name="checkboxfilled" unicode="[&#x2b;]" horiz-adv-x="940" 
d="M120 700h700v-700h-700v700z" />
    <glyph glyph-name="checkbox" unicode="[]" horiz-adv-x="940" 
d="M120 700h700v-700h-700v700zM160 662v-624h620v624h-620z" />
    <glyph glyph-name="star" unicode="&#x7b;&#x7d;" horiz-adv-x="978" 
d="M489 720l92 -283h297l-240 -174l91 -283l-240 175l-240 -175l91 283l-240 174h297z" />
    <glyph glyph-name="checkcirclefilled" unicode="&#x28;&#x2b;&#x29;" horiz-adv-x="920" 
d="M459 -10q-151 0 -255 104t-104 255t105 256t256 105t255 -104t104 -255t-105 -256t-256 -105z" />
    <glyph glyph-name="checkcircle" unicode="&#x28;&#x29;" horiz-adv-x="920" 
d="M459 -10q-151 0 -255 104t-104 255t105 256t256 105t255 -104t104 -255t-105 -256t-256 -105zM460 27q135 0 227.5 93t92.5 230t-92.5 230t-227.5 93t-227.5 -93t-92.5 -230t92.5 -230t227.5 -93z" />
    <glyph glyph-name="rightarrow" unicode="&#x2d;&#x3e;" horiz-adv-x="500" 
d="M450 350l-130 -90v73h-270v35h270v72z" />
    <glyph glyph-name="leftarrow" unicode="&#x3c;&#x2d;" horiz-adv-x="500" 
d="M450 368v-35h-270v-73l-130 90l130 90v-72h270z" />
    <glyph glyph-name="downarrow" unicode="&#x2b;&#x3e;" horiz-adv-x="280" 
d="M158 280h72l-90 -130l-90 130h73v270h35v-270z" />
    <glyph glyph-name="uparrow" unicode="&#x3c;&#x2b;" horiz-adv-x="280" 
d="M230 420h-72v-270h-35v270h-73l90 130z" />
    <glyph glyph-name="rightarrowcircle" unicode="&#x28;&#x2d;&#x3e;&#x29;" horiz-adv-x="920" 
d="M460 -10q-151 0 -255.5 104.5t-104.5 255.5t104.5 255.5t255.5 104.5t255.5 -104.5t104.5 -255.5t-104.5 -255.5t-255.5 -104.5zM490 260l130 90l-130 90v-72h-170v-35h170v-73z" />
    <glyph glyph-name="leftarrowcircle" unicode="&#x28;&#x3c;&#x2d;&#x29;" horiz-adv-x="920" 
d="M460 -10q-151 0 -255.5 104.5t-104.5 255.5t104.5 255.5t255.5 104.5t255.5 -104.5t104.5 -255.5t-104.5 -255.5t-255.5 -104.5zM430 260v73h170v35h-170v72l-130 -90z" />
    <glyph glyph-name="downarrowcircle" unicode="&#x28;&#x2b;&#x3e;&#x29;" horiz-adv-x="920" 
d="M100 350q0 151 104.5 255.5t255.5 104.5t255.5 -104.5t104.5 -255.5t-104.5 -255.5t-255.5 -104.5t-255.5 104.5t-104.5 255.5zM370 320l90 -130l90 130h-72v170h-35v-170h-73z" />
    <glyph glyph-name="uparrowcircle" unicode="&#x28;&#x3c;&#x2b;&#x29;" horiz-adv-x="920" 
d="M100 350q0 151 104.5 255.5t255.5 104.5t255.5 -104.5t104.5 -255.5t-104.5 -255.5t-255.5 -104.5t-255.5 104.5t-104.5 255.5zM370 380h73v-170h35v170h72l-90 130z" />
    <glyph glyph-name="rightarrowring" unicode="&#x28;&#x28;&#x2d;&#x3e;&#x29;&#x29;" horiz-adv-x="920" 
d="M460 -10q-151 0 -255.5 104.5t-104.5 255.5t104.5 255.5t255.5 104.5t255.5 -104.5t104.5 -255.5t-104.5 -255.5t-255.5 -104.5zM460 27q135 0 227.5 93t92.5 230t-92.5 230t-227.5 93t-227.5 -93t-92.5 -230t92.5 -230t227.5 -93zM490 260l130 90l-130 90v-72h-170v-35
h170v-73z" />
    <glyph glyph-name="leftarrowring" unicode="&#x28;&#x28;&#x3c;&#x2d;&#x29;&#x29;" horiz-adv-x="920" 
d="M460 -10q-151 0 -255.5 104.5t-104.5 255.5t104.5 255.5t255.5 104.5t255.5 -104.5t104.5 -255.5t-104.5 -255.5t-255.5 -104.5zM460 27q135 0 227.5 93t92.5 230t-92.5 230t-227.5 93t-227.5 -93t-92.5 -230t92.5 -230t227.5 -93zM430 260v73h170v35h-170v72l-130 -90z
" />
    <glyph glyph-name="downarrowring" unicode="&#x28;&#x28;&#x2b;&#x3e;&#x29;&#x29;" horiz-adv-x="920" 
d="M460 -10q-151 0 -255.5 104.5t-104.5 255.5t104.5 255.5t255.5 104.5t255.5 -104.5t104.5 -255.5t-104.5 -255.5t-255.5 -104.5zM460 27q135 0 227.5 93t92.5 230t-92.5 230t-227.5 93t-227.5 -93t-92.5 -230t92.5 -230t227.5 -93zM460 190l-90 130h73v170h35v-170h72z
" />
    <glyph glyph-name="uparrowring" unicode="&#x28;&#x28;&#x3c;&#x2b;&#x29;&#x29;" horiz-adv-x="920" 
d="M460 -10q-151 0 -255.5 104.5t-104.5 255.5t104.5 255.5t255.5 104.5t255.5 -104.5t104.5 -255.5t-104.5 -255.5t-255.5 -104.5zM460 27q135 0 227.5 93t92.5 230t-92.5 230t-227.5 93t-227.5 -93t-92.5 -230t92.5 -230t227.5 -93zM443 210v170h-73l90 130l90 -130h-72
v-170h-35z" />
    <glyph glyph-name=".notdef" horiz-adv-x="691" 
d="M20 0v700h651v-700h-651zM186 155l159 159l159 -159l36 36l-159 159l159 158l-36 36l-159 -158l-158 159l-36 -36l158 -159l-159 -159z" />
    <glyph glyph-name=".null" horiz-adv-x="0" 
 />
    <glyph glyph-name="nonmarkingreturn" horiz-adv-x="333" 
 />
    <glyph glyph-name="space" unicode=" " horiz-adv-x="232" 
 />
    <glyph glyph-name="exclam" unicode="!" horiz-adv-x="270" 
d="M122 200l-12 500h50l-12 -500h-26zM135 -10q-14 0 -24.5 10.5t-10.5 24.5t10.5 24.5t24.5 10.5t24.5 -10.5t10.5 -24.5t-10.5 -24.5t-24.5 -10.5z" />
    <glyph glyph-name="quotedbl" unicode="&#x22;" horiz-adv-x="260" 
d="M50 490v210h35v-210h-35zM175 490v210h35v-210h-35z" />
    <glyph glyph-name="numbersign" unicode="#" 
d="M120 0l35 177h-115v31h121l37 184h-118v31h124l36 177h35l-36 -177h170l36 177h35l-36 -177h116v-31h-122l-37 -184h119v-31h-125l-35 -177h-35l35 177h-170l-35 -177h-35zM196 208h170l37 184h-170z" />
    <glyph glyph-name="dollar" unicode="$" horiz-adv-x="530" 
d="M430 165q0 62 -40.5 105t-130.5 81q-179 74 -179 193q0 67 50 113.5t127 51.5v91h36v-91q35 -3 66 -14.5t50 -26.5t33 -29.5t20 -24.5l6 -10l-31 -20q-2 4 -6 10t-18.5 21t-31.5 27t-46 21.5t-61 9.5q-71 0 -112.5 -36t-41.5 -87q0 -54 39.5 -94t120.5 -73
q190 -77 190 -212q0 -74 -49.5 -123t-127.5 -57v-91h-36v90q-42 2 -78.5 15.5t-59 31.5t-39 36t-23.5 31l-7 12l32 20q2 -4 6.5 -11.5t21.5 -26.5t37 -33t53.5 -26t70.5 -12q71 0 115 39t44 99z" />
    <glyph glyph-name="percent" unicode="%" horiz-adv-x="760" 
d="M192 326q-61 0 -101.5 40t-40.5 101t41.5 102t102.5 41t101.5 -40t40.5 -101t-41.5 -102t-102.5 -41zM152 0l415 600h41l-415 -600h-41zM193 361q45 0 75 30.5t30 76.5t-30 76.5t-75 30.5t-75 -30.5t-30 -76.5t30 -76.5t75 -30.5zM566 -10q-61 0 -101.5 40t-40.5 101
t41.5 102t102.5 41t101.5 -40t40.5 -101t-41.5 -102t-102.5 -41zM567 25q45 0 75 30.5t30 76.5t-30 76.5t-75 30.5t-75 -30.5t-30 -76.5t30 -76.5t75 -30.5z" />
    <glyph glyph-name="ampersand" unicode="&#x26;" horiz-adv-x="700" 
d="M248 -10q-86 0 -142 54.5t-56 134.5q0 141 173 212q-48 49 -73 89.5t-25 83.5q0 63 47.5 104.5t118.5 41.5q70 0 117 -42.5t47 -106.5q0 -116 -164 -182l188 -183l155 204h46l-174 -230l174 -170h-54l-144 139q-60 -80 -113.5 -114.5t-120.5 -34.5zM263 407
q82 33 117 67.5t35 85.5q0 48 -35.5 80.5t-89.5 32.5q-56 0 -90.5 -30t-34.5 -78q0 -40 21.5 -72.5t76.5 -85.5zM249 27q61 0 104 30t103 108l-205 199q-161 -65 -161 -184q0 -64 45 -108.5t114 -44.5z" />
    <glyph glyph-name="quotesingle" unicode="'" horiz-adv-x="135" 
d="M50 490v210h35v-210h-35z" />
    <glyph glyph-name="parenleft" unicode="(" horiz-adv-x="423" 
d="M110 350q0 -83 28 -157t68 -120t80.5 -80t68.5 -49l28 -14l-14 -30q-6 2 -17 7t-42 23.5t-59 40.5t-62.5 60.5t-59.5 82t-42 105.5t-17 130t16.5 130t43 106t58 81.5t63.5 61.5t58.5 41t42.5 24l17 7l14 -30q-6 -3 -15.5 -8t-38 -23.5t-54.5 -40t-57.5 -58t-54 -77
t-38 -96.5t-15.5 -117z" />
    <glyph glyph-name="parenright" unicode=")" horiz-adv-x="423" 
d="M313 350q0 48 -9.5 93t-25 80.5t-36 68t-43.5 56.5t-45.5 44.5t-43 34.5t-36 24t-24.5 15l-10 4l14 30q6 -2 17 -7t42 -23.5t59 -40.5t62.5 -60.5t59.5 -82t42 -105.5t17 -130t-16.5 -130t-43 -106t-58 -81.5t-63.5 -61.5t-58.5 -41t-43.5 -24l-16 -7l-14 30q6 3 15.5 8
t38 23.5t54.5 40t57.5 58t54 77t38 96.5t15.5 117z" />
    <glyph glyph-name="asterisk" unicode="*" horiz-adv-x="482" 
d="M255 527l165 58l12 -39l-166 -49l105 -137l-32 -24l-98 142l-98 -142l-32 24l104 137l-165 49l12 39l164 -58l-6 173h42z" />
    <glyph glyph-name="plus" unicode="+" 
d="M283 99v241h-233v34h233v241h34v-241h233v-34h-233v-241h-34z" />
    <glyph glyph-name="comma" unicode="," horiz-adv-x="150" 
d="M40 -130l25 210h45l-35 -210h-35z" />
    <glyph glyph-name="hyphen" unicode="-" horiz-adv-x="420" 
d="M50 340v35h320v-35h-320z" />
    <glyph glyph-name="period" unicode="." horiz-adv-x="170" 
d="M85 -10q-14 0 -24.5 10.5t-10.5 24.5t10.5 24.5t24.5 10.5t24.5 -10.5t10.5 -24.5t-10.5 -24.5t-24.5 -10.5z" />
    <glyph glyph-name="slash" unicode="/" horiz-adv-x="450" 
d="M410 780h40l-410 -860h-40z" />
    <glyph glyph-name="zero" unicode="0" 
d="M80 479q0 107 61 169t160 62t159 -61t60 -168v-260q0 -107 -61 -169t-160 -62t-159 61t-60 168v260zM120 215q0 -87 49 -137.5t131 -50.5t131 50.5t49 137.5v270q0 87 -49 137.5t-131 50.5t-131 -50.5t-49 -137.5v-270z" />
    <glyph glyph-name="one" unicode="1" horiz-adv-x="430" 
d="M270 700h30v-700h-40v646l-207 -144l-23 28z" />
    <glyph glyph-name="two" unicode="2" horiz-adv-x="550" 
d="M60 0v25l280 295q55 58 77.5 103t22.5 92q0 68 -48 113t-117 45q-38 0 -70.5 -11.5t-52 -28t-34 -33.5t-20.5 -28l-5 -12l-33 15q2 5 6.5 14.5t23 32.5t41 41t61.5 32.5t85 14.5q85 0 144 -55.5t59 -137.5q0 -58 -27 -109.5t-88 -114.5l-245 -258h355v-35h-415z" />
    <glyph glyph-name="three" unicode="3" horiz-adv-x="540" 
d="M241 -10q-41 0 -77 10.5t-58.5 25t-39.5 29.5t-24 25l-7 11l30 21q2 -3 6.5 -9t20.5 -20.5t34.5 -26t50 -20.5t65.5 -9q85 0 139 46t54 114q0 69 -54.5 116t-138.5 47h-67v35h70q77 0 123.5 41.5t46.5 103.5t-46.5 102.5t-123.5 40.5q-32 0 -59.5 -8t-44 -19t-28.5 -22
t-17 -19l-5 -8l-31 17q2 4 6.5 10.5t20.5 23t35.5 29t52.5 23t71 10.5q92 0 150.5 -50.5t58.5 -128.5q0 -57 -34.5 -100.5t-93.5 -62.5q67 -20 107.5 -68.5t40.5 -111.5q0 -84 -67 -141t-167 -57z" />
    <glyph glyph-name="four" unicode="4" 
d="M405 0v200h-350v35l350 465h40v-465h100v-35h-100v-200h-40zM94 235h311v406z" />
    <glyph glyph-name="five" unicode="5" horiz-adv-x="575" 
d="M90 700h385v-35h-348v-276q61 61 154 61q97 0 163 -64.5t66 -159.5q0 -100 -69.5 -168t-171.5 -68q-37 0 -72 9.5t-58 23t-40.5 27t-25.5 22.5l-8 10l29 23q2 -3 7 -8.5t22 -19t35.5 -23.5t49 -18.5t62.5 -8.5q86 0 143 56.5t57 141.5q0 81 -56 134.5t-139 53.5
q-49 0 -87.5 -19.5t-53.5 -39.5l-14 -19h-30v365z" />
    <glyph glyph-name="six" unicode="6" 
d="M65 219q0 84 53 160l222 321h49l-204 -286q50 36 121 36q96 0 162.5 -66t66.5 -163q0 -98 -68 -164.5t-168 -66.5t-167 65.5t-67 163.5zM105 220q0 -83 56 -138t139 -55t139 55t56 138t-56 138t-139 55t-139 -55t-56 -138z" />
    <glyph glyph-name="seven" unicode="7" horiz-adv-x="520" 
d="M435 665h-395v35h440v-25l-330 -675h-42z" />
    <glyph glyph-name="eight" unicode="8" 
d="M95 531q0 76 59.5 127.5t146.5 51.5t145.5 -50.5t58.5 -126.5q0 -53 -32 -95.5t-85 -63.5q67 -20 107 -68t40 -113q0 -88 -68 -145.5t-168 -57.5q-101 0 -167.5 56.5t-66.5 144.5q0 64 40.5 112.5t106.5 69.5q-53 21 -85 63t-32 95zM135 532q0 -60 47.5 -101t117.5 -41
t117.5 41t47.5 101q0 59 -47.5 100t-117.5 41t-117.5 -41t-47.5 -100zM105 190q0 -71 55.5 -117t139.5 -46t139.5 46t55.5 117q0 72 -55.5 118.5t-139.5 46.5t-139.5 -46.5t-55.5 -118.5z" />
    <glyph glyph-name="nine" unicode="9" 
d="M535 481q0 -84 -53 -160l-222 -321h-49l204 286q-50 -36 -121 -36q-96 0 -162.5 66t-66.5 163q0 98 68 164.5t168 66.5t167 -65.5t67 -163.5zM495 480q0 83 -56 138t-139 55t-139 -55t-56 -138t56 -138t139 -55t139 55t56 138z" />
    <glyph glyph-name="colon" unicode=":" horiz-adv-x="170" 
d="M85 446q-14 0 -24.5 10.5t-10.5 24.5t10.5 24.5t24.5 10.5t24.5 -10.5t10.5 -24.5t-10.5 -24.5t-24.5 -10.5zM85 -10q-14 0 -24.5 10.5t-10.5 24.5t10.5 24.5t24.5 10.5t24.5 -10.5t10.5 -24.5t-10.5 -24.5t-24.5 -10.5z" />
    <glyph glyph-name="semicolon" unicode=";" horiz-adv-x="170" 
d="M85 446q-14 0 -24.5 10.5t-10.5 24.5t10.5 24.5t24.5 10.5t24.5 -10.5t10.5 -24.5t-10.5 -24.5t-24.5 -10.5zM40 -130l25 210h45l-35 -210h-35z" />
    <glyph glyph-name="less" unicode="&#x3c;" 
d="M550 115l-500 225v30l500 225v-41l-451 -198l451 -198v-43z" />
    <glyph glyph-name="equal" unicode="=" 
d="M50 425v35h500v-35h-500zM50 230v35h500v-35h-500z" />
    <glyph glyph-name="greater" unicode="&#x3e;" 
d="M50 115v41l451 198l-451 198v43l500 -225v-30z" />
    <glyph glyph-name="question" unicode="?" horiz-adv-x="540" 
d="M240 200q0 41 18.5 76t45 60.5t53 50.5t45 59t18.5 74q0 68 -44.5 110.5t-110.5 42.5q-34 0 -63.5 -11.5t-47.5 -27.5t-31 -32.5t-19 -27.5l-5 -12l-34 13q2 5 6 14.5t20.5 32.5t37.5 41t58 32.5t80 14.5q84 0 138.5 -53.5t54.5 -131.5q0 -47 -18.5 -86t-45 -65.5
t-53 -51t-45 -55.5t-18.5 -67h-40zM260 -10q-14 0 -24.5 10.5t-10.5 24.5t10.5 24.5t24.5 10.5t24.5 -10.5t10.5 -24.5t-10.5 -24.5t-24.5 -10.5z" />
    <glyph glyph-name="at" unicode="@" horiz-adv-x="995" 
d="M497 -145q-181 0 -309 122t-128 295q0 182 128 310t309 128t309.5 -128t128.5 -310q0 -123 -60 -184.5t-137 -61.5q-60 0 -94.5 40.5t-27.5 106.5q-53 -75 -146 -75q-78 0 -126.5 57t-37.5 132q11 74 63.5 121t124.5 47q55 0 93 -27t55 -72l17 86h32l2 -1l-37 -260
q-8 -57 14.5 -87.5t69.5 -30.5q60 0 107.5 53t47.5 156q0 165 -116.5 281.5t-281.5 116.5t-281 -116.5t-116 -281.5q0 -154 116.5 -265.5t280.5 -111.5q49 0 92 10l6 -38q-55 -12 -98 -12zM476 134q58 0 103 36t53 93q9 63 -31.5 109t-104.5 46q-57 0 -99 -36t-51 -94
q-10 -64 28 -109t102 -45z" />
    <glyph glyph-name="A" unicode="A" horiz-adv-x="680" 
d="M10 0l310 700h40l310 -700h-43l-101 230h-374l-101 -230h-41zM166 263h345l-172 393z" />
    <glyph glyph-name="B" unicode="B" horiz-adv-x="690" 
d="M110 0v700h271q89 0 144 -49t55 -121q0 -54 -31 -97t-84 -63q68 -16 109 -65t41 -116q0 -80 -61.5 -134.5t-157.5 -54.5h-286zM150 384h229q71 0 116 40.5t45 99.5q0 60 -45 100.5t-116 40.5h-229v-281zM150 35h246q78 0 128.5 45.5t50.5 112.5t-50.5 112.5t-128.5 45.5
h-246v-316z" />
    <glyph glyph-name="C" unicode="C" horiz-adv-x="720" 
d="M419 -10q-151 0 -255 104t-104 255t105 256t256 105q45 0 87.5 -10.5t71 -25.5t50.5 -30t32 -26l11 -10l-26 -25q-3 4 -10 10t-29 21.5t-46.5 27.5t-63 21.5t-78.5 9.5q-135 0 -227.5 -93t-92.5 -230t92.5 -230t227.5 -93q42 0 81.5 10t66 24.5t47 29.5t30.5 24.5
t10 10.5l25 -25q-4 -5 -11 -12t-32.5 -26.5t-53.5 -34t-72.5 -26.5t-91.5 -12z" />
    <glyph glyph-name="D" unicode="D" horiz-adv-x="760" 
d="M110 0v700h211q166 0 272.5 -99.5t106.5 -249.5t-107.5 -250.5t-273.5 -100.5h-209zM150 35h175q145 0 240 90.5t95 224.5t-95 224.5t-240 90.5h-175v-630z" />
    <glyph glyph-name="E" unicode="E" horiz-adv-x="650" 
d="M110 0v700h470v-35h-430v-281h380v-33h-380v-316h440v-35h-480z" />
    <glyph glyph-name="F" unicode="F" horiz-adv-x="610" 
d="M150 315v-315h-40v700h460v-35h-420v-315h370v-35h-370z" />
    <glyph glyph-name="G" unicode="G" horiz-adv-x="815" 
d="M419 -10q-151 0 -255 104t-104 255t105 256t256 105q45 0 87.5 -10t70.5 -25t50 -29.5t32 -24.5l10 -10l-27 -27q-3 4 -9.5 10t-28 21t-45.5 27t-62.5 21.5t-78.5 9.5q-135 0 -227.5 -93t-92.5 -230t92.5 -230t227.5 -93q114 0 199 76.5t99 196.5h-298v35h340v-1
q-2 -147 -102 -245.5t-239 -98.5z" />
    <glyph glyph-name="H" unicode="H" horiz-adv-x="770" 
d="M110 0v700h40v-310h470v310h40v-700h-40v355h-470v-355h-40z" />
    <glyph glyph-name="I" unicode="I" horiz-adv-x="272" 
d="M115 700h42v-700h-42v700z" />
    <glyph glyph-name="J" unicode="J" horiz-adv-x="445" 
d="M124 -10q-33 0 -59 6t-35 12l-10 6l15 33q28 -20 90 -20q77 0 128 52t51 146v475h41v-474q0 -109 -63.5 -172.5t-157.5 -63.5z" />
    <glyph glyph-name="K" unicode="K" horiz-adv-x="645" 
d="M110 0v700h40v-336l411 336h64l-422 -339l442 -361h-64l-431 356v-356h-40z" />
    <glyph glyph-name="L" unicode="L" horiz-adv-x="590" 
d="M110 0v700h40v-665h410v-35h-450z" />
    <glyph glyph-name="M" unicode="M" horiz-adv-x="890" 
d="M150 623v-623h-40v700h42l294 -526l294 526h40v-700h-40v623l-284 -503h-22z" />
    <glyph glyph-name="N" unicode="N" horiz-adv-x="790" 
d="M150 644v-644h-40v700h45l485 -638v638h40v-700h-40z" />
    <glyph glyph-name="O" unicode="O" horiz-adv-x="840" 
d="M60 349q0 151 105 256t256 105t255 -104t104 -255t-105 -256t-256 -105t-255 104t-104 255zM100 350q0 -137 92.5 -230t227.5 -93t227.5 93t92.5 230t-92.5 230t-227.5 93t-227.5 -93t-92.5 -230z" />
    <glyph glyph-name="P" unicode="P" horiz-adv-x="665" 
d="M110 0v700h273q102 0 167 -60.5t65 -151.5t-66 -152t-168 -61h-231v-275h-40zM150 310h227q88 0 143 50t55 127t-55 127.5t-143 50.5h-227v-355z" />
    <glyph glyph-name="Q" unicode="Q" horiz-adv-x="840" 
d="M60 349q0 151 105 256t256 105t255 -104t104 -255q0 -113 -61 -203.5t-161 -130.5l124 -137h-52l-108 124q-51 -14 -103 -14q-151 0 -255 104t-104 255zM100 350q0 -137 92.5 -230t227.5 -93t227.5 93t92.5 230t-92.5 230t-227.5 93t-227.5 -93t-92.5 -230z" />
    <glyph glyph-name="R" unicode="R" horiz-adv-x="690" 
d="M110 700h281q99 0 161.5 -58t62.5 -146q0 -79 -52 -135.5t-136 -68.5l218 -292h-50l-217 290h-228v-290h-40v700zM150 665v-340h235q85 0 137.5 48t52.5 122t-52.5 122t-137.5 48h-235z" />
    <glyph glyph-name="S" unicode="S" horiz-adv-x="560" 
d="M110 543q0 -54 41 -91.5t130 -63.5q110 -33 164.5 -84t54.5 -127q0 -81 -60 -134t-163 -53q-45 0 -85.5 9.5t-67 22.5t-46.5 26t-29 22l-9 10l28 29l8.5 -8.5t26 -20t43.5 -25t60.5 -19.5t78.5 -9q78 0 126.5 41.5t48.5 103.5q0 65 -44.5 106.5t-154.5 75.5
q-90 28 -140.5 74.5t-50.5 109.5q0 73 58.5 122.5t154.5 49.5q62 0 114 -19t73 -37l20 -19l-28 -29q-7 8 -20.5 19t-59 29.5t-97.5 18.5q-84 0 -129.5 -39.5t-45.5 -90.5z" />
    <glyph glyph-name="T" unicode="T" horiz-adv-x="590" 
d="M315 665v-665h-40v665h-245v35h530v-35h-245z" />
    <glyph glyph-name="U" unicode="U" horiz-adv-x="740" 
d="M369 -10q-117 0 -193 81t-76 208v421h41v-423q0 -110 65 -180t165 -70t165 70t65 180v423h39v-419q0 -127 -77 -209t-194 -82z" />
    <glyph glyph-name="V" unicode="V" horiz-adv-x="670" 
d="M10 700h43l283 -654l283 654h41l-305 -700h-40z" />
    <glyph glyph-name="W" unicode="W" horiz-adv-x="965" 
d="M10 700h43l217 -640l199 640h29l198 -640l218 640h41l-240 -700h-38l-195 618l-194 -618h-38z" />
    <glyph glyph-name="X" unicode="X" horiz-adv-x="643" 
d="M10 0l287 359l-272 341h51l245 -312l248 312h49l-273 -340l288 -360h-51l-262 331l-261 -331h-49z" />
    <glyph glyph-name="Y" unicode="Y" horiz-adv-x="650" 
d="M305 0v290l-295 410h49l267 -376l267 376h47l-295 -410v-290h-40z" />
    <glyph glyph-name="Z" unicode="Z" horiz-adv-x="680" 
d="M60 0v25l505 640h-485v35h540v-25l-505 -640h505v-35h-560z" />
    <glyph glyph-name="bracketleft" unicode="[" horiz-adv-x="435" 
d="M110 -80v860h275v-35h-235v-790h235v-35h-275z" />
    <glyph glyph-name="backslash" unicode="\" horiz-adv-x="450" 
d="M450 -80h-40l-410 860h40z" />
    <glyph glyph-name="bracketright" unicode="]" horiz-adv-x="435" 
d="M50 -80v35h235v790h-235v35h275v-860h-275z" />
    <glyph glyph-name="asciicircum" unicode="^" horiz-adv-x="560" 
d="M60 320l205 380h30l205 -380h-45l-176 336l-176 -336h-43z" />
    <glyph glyph-name="underscore" unicode="_" 
d="M0 -85v35h600v-35h-600z" />
    <glyph glyph-name="grave" unicode="`" horiz-adv-x="230" 
d="M145 580l-95 160h45l85 -160h-35z" />
    <glyph glyph-name="a" unicode="a" horiz-adv-x="560" 
d="M60 146q0 66 55 112.5t147 46.5q118 0 178 -68v53q0 96 -45.5 143.5t-124.5 47.5q-46 0 -85 -14t-55 -28l-15 -14l-25 26q7 7 20 18t60 29t101 18q100 0 154.5 -58t54.5 -167v-291h-30l-7 61q-59 -71 -181 -71q-92 0 -147 45t-55 111zM100 147q0 -51 45 -85.5t122 -34.5
q85 0 131.5 34t46.5 86t-46.5 86.5t-131.5 34.5q-77 0 -122 -35t-45 -86z" />
    <glyph glyph-name="b" unicode="b" horiz-adv-x="660" 
d="M90 700h40v-313q33 59 92.5 94t131.5 35q107 0 181.5 -75.5t74.5 -186.5t-75.5 -187.5t-182.5 -76.5q-72 0 -130.5 33.5t-91.5 92.5l-7 -116h-33v700zM125 253q0 -97 64 -161.5t159 -64.5t158.5 64.5t63.5 161.5t-63.5 161.5t-158.5 64.5t-159 -64.5t-64 -161.5z" />
    <glyph glyph-name="c" unicode="c" horiz-adv-x="550" 
d="M312 -10q-111 0 -186.5 75.5t-75.5 186.5t76.5 187.5t187.5 76.5q35 0 67.5 -8.5t54 -20t37.5 -23.5t23 -20l8 -9l-25 -26q-7 8 -19.5 19.5t-55.5 31t-91 19.5q-95 0 -159 -64.5t-64 -161.5t64 -161.5t159 -64.5q51 0 93.5 19t59.5 38l17 19l27 -23q-3 -4 -8 -10
t-23 -21.5t-39 -27.5t-55.5 -21.5t-72.5 -9.5z" />
    <glyph glyph-name="d" unicode="d" horiz-adv-x="660" 
d="M306 -10q-107 0 -181.5 75.5t-74.5 186.5t75.5 187.5t182.5 76.5q71 0 130 -34t92 -93v311h40v-700h-33l-7 119q-34 -60 -93 -94.5t-131 -34.5zM312 27q95 0 159 64.5t64 161.5t-64 161.5t-159 64.5t-158.5 -64.5t-63.5 -161.5t63.5 -161.5t158.5 -64.5z" />
    <glyph glyph-name="e" unicode="e" horiz-adv-x="606" 
d="M312 -10q-111 0 -186.5 75.5t-75.5 186.5t76.5 187.5t187.5 76.5q99 0 170.5 -73.5t71.5 -178.5v-4h-466q0 -103 63.5 -168t159.5 -65q39 0 73 11.5t55.5 27.5t37.5 32t23 28l7 11l29 -17q-3 -5 -8 -14t-25.5 -31.5t-44 -39.5t-63.5 -31t-85 -14zM93 295h421
q-11 79 -68.5 131.5t-132.5 52.5q-83 0 -144.5 -51.5t-75.5 -132.5z" />
    <glyph glyph-name="f" unicode="f" horiz-adv-x="405" 
d="M130 0v444h-110v32h110v59q0 85 44 130t121 45q31 0 56 -5t35 -10l9 -5l-8 -34q-34 17 -92 17t-91.5 -35t-33.5 -103v-59h215v-32h-215v-444h-40z" />
    <glyph glyph-name="g" unicode="g" horiz-adv-x="660" 
d="M85 -69q9 -7 26 -17.5t72 -28.5t112 -18q114 0 174.5 64t60.5 179v39q-34 -55 -93 -87t-131 -32q-107 0 -181.5 70t-74.5 172t75.5 173t182.5 71q72 0 130.5 -31.5t91.5 -86.5l7 108h33v-390q0 -131 -73 -208.5t-203 -77.5q-62 0 -119.5 17.5t-83.5 34.5l-26 18zM535 273
q0 88 -64 147t-159 59t-158.5 -59t-63.5 -147t63.5 -147t158.5 -59t159 59t64 147z" />
    <glyph glyph-name="h" unicode="h" horiz-adv-x="610" 
d="M90 0v700h40v-302q57 118 198 118q86 0 144 -61.5t58 -180.5v-274h-40v261q0 110 -48 164t-120 54q-83 0 -137.5 -55t-54.5 -170v-254h-40z" />
    <glyph glyph-name="i" unicode="i" horiz-adv-x="232" 
d="M81 655q0 14 10.5 24.5t24.5 10.5t24.5 -10.5t10.5 -24.5t-10.5 -24.5t-24.5 -10.5t-24.5 10.5t-10.5 24.5zM95 506h42v-506h-42v506z" />
    <glyph glyph-name="j" unicode="j" horiz-adv-x="232" 
d="M81 655q0 14 10.5 24.5t24.5 10.5t24.5 -10.5t10.5 -24.5t-10.5 -24.5t-24.5 -10.5t-24.5 10.5t-10.5 24.5zM137 506v-525q0 -73 -38 -112t-100 -39q-16 0 -32 4t-24 8l-8 3l12 32q25 -10 53 -10q95 0 95 108v531h42z" />
    <glyph glyph-name="k" unicode="k" horiz-adv-x="530" 
d="M90 0v700h40v-424l313 230h67l-326 -233l346 -273h-66l-334 269v-269h-40z" />
    <glyph glyph-name="l" unicode="l" horiz-adv-x="232" 
d="M95 700h42v-700h-42v700z" />
    <glyph glyph-name="m" unicode="m" horiz-adv-x="990" 
d="M90 506h35l5 -105q57 115 193 115q64 0 114 -36t71 -107q25 72 79.5 107.5t125.5 35.5q84 0 140.5 -60.5t56.5 -176.5v-279h-40v266q0 107 -47 160t-116 53q-81 0 -134 -53.5t-53 -167.5v-258h-40v266q0 107 -47 160t-116 53q-81 0 -134 -53.5t-53 -167.5v-258h-40v506z
" />
    <glyph glyph-name="n" unicode="n" horiz-adv-x="610" 
d="M130 0h-40v506h35l5 -108q57 118 198 118q86 0 144 -61.5t58 -180.5v-274h-40v261q0 110 -48 164t-120 54q-84 0 -138 -58t-54 -180v-241z" />
    <glyph glyph-name="o" unicode="o" horiz-adv-x="626" 
d="M50 252q0 111 76.5 187.5t187.5 76.5t186.5 -75.5t75.5 -186.5t-76.5 -187.5t-187.5 -76.5t-186.5 75.5t-75.5 186.5zM90 253q0 -97 64 -161.5t159 -64.5t159 64.5t64 161.5t-64 161.5t-159 64.5t-159 -64.5t-64 -161.5z" />
    <glyph glyph-name="p" unicode="p" horiz-adv-x="660" 
d="M90 506h33l7 -119q33 59 92.5 94t131.5 35q107 0 181.5 -75.5t74.5 -186.5t-75.5 -187.5t-182.5 -76.5q-72 0 -130.5 33.5t-91.5 92.5v-276h-40v666zM125 253q0 -97 64 -161.5t159 -64.5t158.5 64.5t63.5 161.5t-63.5 161.5t-158.5 64.5t-159 -64.5t-64 -161.5z" />
    <glyph glyph-name="q" unicode="q" horiz-adv-x="660" 
d="M530 -160v279q-34 -60 -93 -94.5t-131 -34.5q-107 0 -181.5 75.5t-74.5 186.5t75.5 187.5t182.5 76.5q71 0 130 -34t92 -93l7 117h33v-666h-40zM312 27q95 0 159 64.5t64 161.5t-64 161.5t-159 64.5t-158.5 -64.5t-63.5 -161.5t63.5 -161.5t158.5 -64.5z" />
    <glyph glyph-name="r" unicode="r" horiz-adv-x="373" 
d="M90 0v506h35l5 -122q58 132 218 132l-1 -39h-5q-100 0 -156 -61.5t-56 -184.5v-231h-40z" />
    <glyph glyph-name="s" unicode="s" horiz-adv-x="440" 
d="M95 394q0 -37 29 -64.5t101 -45.5q165 -41 165 -149q0 -60 -48 -102.5t-129 -42.5q-50 0 -94.5 15t-64.5 30l-19 15l22 31q7 -6 20.5 -15t54.5 -24t83 -15q63 0 99 28.5t36 69.5q0 43 -30.5 73t-114.5 50q-70 18 -110 53t-40 84q0 54 43.5 92.5t121.5 38.5q43 0 82 -12.5
t56 -25.5l17 -12l-22 -32q-6 5 -16 12.5t-44.5 20t-70.5 12.5q-60 0 -93.5 -26t-33.5 -59z" />
    <glyph glyph-name="t" unicode="t" horiz-adv-x="420" 
d="M287 -10q-73 0 -115 42t-42 123v319h-110v32h110v134h40v-134h220v-32h-220v-319q0 -63 32 -95.5t85 -32.5q23 0 47 4t36 8l12 4l8 -33q-33 -20 -103 -20z" />
    <glyph glyph-name="u" unicode="u" horiz-adv-x="610" 
d="M480 506h40v-506h-35l-5 108q-57 -118 -198 -118q-86 0 -144 61.5t-58 180.5v274h40v-261q0 -110 48 -164t120 -54q84 0 138 58t54 180v241z" />
    <glyph glyph-name="v" unicode="v" horiz-adv-x="505" 
d="M233 0l-223 506h45l198 -461l199 461h43l-223 -506h-39z" />
    <glyph glyph-name="w" unicode="w" horiz-adv-x="765" 
d="M10 506h45l163 -449l150 449h31l150 -449l163 449h43l-188 -506h-38l-147 433l-146 -433h-38z" />
    <glyph glyph-name="x" unicode="x" horiz-adv-x="525" 
d="M289 259l226 -259h-54l-199 231l-200 -231h-52l226 258l-216 248h54l189 -220l190 220h52z" />
    <glyph glyph-name="y" unicode="y" horiz-adv-x="505" 
d="M10 506h45l198 -465l199 465h43l-225 -511q-72 -165 -188 -165q-24 0 -42 4t-24 8l-6 4l14 32q19 -11 58 -11q92 0 151 133z" />
    <glyph glyph-name="z" unicode="z" horiz-adv-x="495" 
d="M50 0v27l339 442h-324v37h380v-27l-339 -442h339v-37h-395z" />
    <glyph glyph-name="braceleft" unicode="{" horiz-adv-x="475" 
d="M295 -80q-61 0 -93 31.5t-32 93.5v218q0 40 -16 55t-54 15h-50v34h50q38 0 54 15.5t16 54.5v218q0 62 32 93.5t93 31.5h130v-35h-125q-46 0 -68 -21.5t-22 -68.5v-218q0 -39 -16.5 -62t-43.5 -25q27 -2 43.5 -24.5t16.5 -62.5v-218q0 -47 22 -68.5t68 -21.5h125v-35h-130
z" />
    <glyph glyph-name="bar" unicode="|" horiz-adv-x="320" 
d="M140 800h40v-900h-40v900z" />
    <glyph glyph-name="braceright" unicode="}" horiz-adv-x="475" 
d="M50 -80v35h125q46 0 68 21.5t22 68.5v218q0 39 16.5 62t42.5 25q-26 2 -42.5 24.5t-16.5 62.5v218q0 47 -22 68.5t-68 21.5h-125v35h130q61 0 93 -31.5t32 -93.5v-218q0 -40 16 -55t54 -15h50v-34h-50q-38 0 -54 -15.5t-16 -54.5v-218q0 -62 -32 -93.5t-93 -31.5h-130z
" />
    <glyph glyph-name="asciitilde" unicode="~" 
d="M424 240q-32 0 -60.5 14.5t-50 35.5t-42.5 42t-46.5 35.5t-52.5 14.5q-41 0 -64.5 -29t-26.5 -57l-3 -29l-38 3q0 6 1 16t8.5 36t20 46t40 36t65.5 16q32 0 60.5 -14.5t50.5 -35.5t43 -42t46.5 -35.5t52.5 -14.5q41 0 64.5 29t26.5 57l3 29l38 -3q0 -6 -1 -16t-8.5 -36
t-20 -46t-40.5 -36t-66 -16z" />
    <glyph glyph-name="exclamdown" unicode="&#xa1;" horiz-adv-x="270" 
d="M135 640q-14 0 -24.5 10.5t-10.5 24.5t10.5 24.5t24.5 10.5t24.5 -10.5t10.5 -24.5t-10.5 -24.5t-24.5 -10.5zM110 0l12 500h26l12 -500h-50z" />
    <glyph glyph-name="cent" unicode="&#xa2;" horiz-adv-x="565" 
d="M295 94v91q-102 10 -168.5 83.5t-66.5 177.5q0 103 67 177t168 85v92h36v-90q53 -1 99 -21.5t65 -40.5l19 -19l-25 -26q-7 8 -19.5 19.5t-55.5 31t-91 19.5q-95 0 -159 -64.5t-64 -161.5t64 -161.5t159 -64.5q51 0 93.5 19t59.5 38l17 19l27 -23q-2 -3 -7 -9t-22.5 -21
t-37.5 -27t-53 -22t-69 -11v-90h-36z" />
    <glyph glyph-name="sterling" unicode="&#xa3;" 
d="M150 0v333h-100v34h100v122q0 103 58 162t153 59q41 0 75.5 -12t54.5 -29t34.5 -33.5t19.5 -28.5l5 -12l-34 -15q-1 4 -4 10t-15.5 22t-28 28.5t-44.5 22.5t-64 10q-77 0 -123.5 -47.5t-46.5 -130.5v-128h250v-34h-250v-298h335v-35h-375z" />
    <glyph glyph-name="currency" unicode="&#xa4;" horiz-adv-x="670" 
d="M87 70l-27 27l91 87q-61 69 -61 165q0 95 62 165l-92 89l27 27l93 -90q68 55 156 55q90 0 155 -54l92 89l27 -27l-92 -88q62 -68 62 -164t-62 -166l92 -88l-27 -27l-93 90q-68 -55 -156 -55q-89 0 -156 54zM335 142q85 0 145 60.5t60 147.5t-60 147.5t-145 60.5
t-145 -60.5t-60 -147.5t60 -147.5t145 -60.5z" />
    <glyph glyph-name="yen" unicode="&#xa5;" horiz-adv-x="620" 
d="M290 0v188h-240v34h240v108l-6 8h-234v34h210l-230 328h49l232 -338l232 338h47l-231 -328h211v-34h-235l-5 -8v-108h240v-34h-240v-188h-40z" />
    <glyph glyph-name="brokenbar" unicode="&#xa6;" horiz-adv-x="320" 
d="M180 470h-40v330h40v-330zM140 230h40v-330h-40v330z" />
    <glyph glyph-name="section" unicode="&#xa7;" horiz-adv-x="620" 
d="M297 -170q-53 0 -97 15t-62 30l-18 15l26 27q6 -6 17.5 -14t50.5 -22t81 -14q73 0 109 29.5t36 70.5q0 91 -151 135q-120 36 -174.5 82.5t-54.5 108.5q0 58 43.5 97t120.5 51q-84 52 -84 127q0 60 48.5 101t134.5 41q53 0 97 -15t62 -30l18 -15l-26 -27q-6 6 -17.5 14
t-50.5 22t-81 14q-73 0 -109 -29.5t-36 -70.5q0 -91 151 -135q120 -36 174.5 -82.5t54.5 -108.5q0 -59 -43.5 -97.5t-120.5 -51.5q84 -50 84 -126q0 -60 -48.5 -101t-134.5 -41zM348 122q76 3 124 35.5t48 84.5q0 51 -45 88t-164 74q-25 7 -39 13q-77 -2 -124.5 -34
t-47.5 -85q0 -51 45 -88t164 -74q38 -14 39 -14z" />
    <glyph glyph-name="dieresis" unicode="&#xa8;" horiz-adv-x="360" 
d="M85 620q-14 0 -24.5 10.5t-10.5 24.5t10.5 24.5t24.5 10.5t24.5 -10.5t10.5 -24.5t-10.5 -24.5t-24.5 -10.5zM275 620q-14 0 -24.5 10.5t-10.5 24.5t10.5 24.5t24.5 10.5t24.5 -10.5t10.5 -24.5t-10.5 -24.5t-24.5 -10.5z" />
    <glyph glyph-name="copyright" unicode="&#xa9;" horiz-adv-x="826" 
d="M411 -10q-154 0 -257.5 103t-103.5 255t105.5 257t259.5 105t257.5 -103t103.5 -255t-105.5 -257t-259.5 -105zM413 27q136 0 229.5 93.5t93.5 229.5t-93.5 229.5t-229.5 93.5t-229.5 -93.5t-93.5 -229.5t93.5 -229.5t229.5 -93.5zM422 152q-88 0 -144 56t-56 140
t57.5 142t145.5 58q29 0 55 -7t42.5 -17t29 -20t18.5 -17l5 -7l-29 -22q-2 2 -5 5.5t-14.5 13t-24 16.5t-33.5 12.5t-44 5.5q-68 0 -115.5 -46t-47.5 -115t47.5 -115t115.5 -46q38 0 69.5 15t43.5 30l13 15l27 -22q-2 -3 -6 -8t-18 -18t-30.5 -23t-44 -18t-57.5 -8z" />
    <glyph glyph-name="ordfeminine" unicode="&#xaa;" horiz-adv-x="396" 
d="M190 380q-58 0 -94 28t-36 69t36 69.5t94 28.5q68 0 106 -35v20q0 53 -28 81t-73 28q-28 0 -53 -8t-36 -16l-11 -8l-20 28q46 39 121 39q64 0 102 -38t38 -105v-175h-34l-4 32q-36 -38 -108 -38zM194 413q48 0 76.5 17.5t28.5 45.5t-29 47t-76 19q-42 0 -68 -19t-26 -47
q0 -27 26 -45t68 -18zM70 280v35h266v-35h-266z" />
    <glyph glyph-name="guillemotleft" unicode="&#xab;" horiz-adv-x="750" 
d="M102 351l248 -224l-25 -27l-275 240v20l275 240l25 -25zM422 351l248 -224l-25 -27l-275 240v20l275 240l25 -25z" />
    <glyph glyph-name="logicalnot" unicode="&#xac;" 
d="M515 160v210h-465v35h500v-245h-35z" />
    <glyph glyph-name="registered" unicode="&#xae;" horiz-adv-x="536" 
d="M50 493q0 91 63.5 154t155.5 63t154.5 -62t62.5 -153t-63.5 -154t-155.5 -63t-154.5 62t-62.5 153zM88 494q0 -79 51 -129.5t129 -50.5t129 50.5t51 129.5t-51 129.5t-129 50.5t-129 -50.5t-51 -129.5zM191 599h92q32 0 53 -18.5t21 -48.5q0 -50 -51 -64l60 -79h-42
l-56 76h-43v-76h-34v210zM225 569v-75h54q21 0 32.5 10t11.5 27t-11.5 27.5t-32.5 10.5h-54z" />
    <glyph glyph-name="macron" unicode="&#xaf;" horiz-adv-x="460" 
d="M50 644v33h360v-33h-360z" />
    <glyph glyph-name="degree" unicode="&#xb0;" horiz-adv-x="394" 
d="M196 400q-68 0 -112 44t-44 110t45 111t113 45t112 -44t44 -110t-45 -111t-113 -45zM197 437q52 0 84.5 33.5t32.5 84.5t-32.5 84.5t-84.5 33.5t-84.5 -33.5t-32.5 -84.5t32.5 -84.5t84.5 -33.5z" />
    <glyph glyph-name="plusminus" unicode="&#xb1;" 
d="M283 200v208h-233v34h233v208h34v-208h233v-34h-233v-208h-34zM50 50v35h500v-35h-500z" />
    <glyph glyph-name="uni00B2" unicode="&#xb2;" horiz-adv-x="342" 
d="M40 280v27l165 165q60 60 60 117q0 35 -26 59t-65 24q-21 0 -39 -6.5t-29 -15t-19 -17.5t-11 -15l-4 -7l-32 14q2 3 5 8.5t14.5 19.5t26 24.5t38.5 19.5t51 9q54 0 90.5 -33t36.5 -83q0 -67 -68 -136l-141 -141h206v-33h-259z" />
    <glyph glyph-name="uni00B3" unicode="&#xb3;" horiz-adv-x="334" 
d="M149 274q-25 0 -47 6.5t-36.5 15t-25 17.5t-15.5 15l-5 7l28 19q3 -5 10 -12.5t33 -20.5t58 -13q49 0 78.5 24t29.5 63q0 38 -29.5 63.5t-78.5 25.5h-40v33h42q44 0 69 21.5t25 56.5t-25 56t-69 21q-29 0 -50.5 -10t-28.5 -20l-8 -11l-29 17q4 6 12 16t38.5 26t66.5 16
q57 0 93.5 -30.5t36.5 -76.5q0 -67 -66 -98q36 -15 57 -44t21 -64q0 -50 -42 -84.5t-103 -34.5z" />
    <glyph glyph-name="acute" unicode="&#xb4;" horiz-adv-x="230" 
d="M50 580l85 160h45l-95 -160h-35z" />
    <glyph glyph-name="paragraph" unicode="&#xb6;" horiz-adv-x="705" 
d="M295 315h-21q-104 0 -164 53t-60 138t61 139.5t165 54.5h299v-700h-40v665h-200v-665h-40v315z" />
    <glyph glyph-name="periodcentered" unicode="&#xb7;" horiz-adv-x="190" 
d="M95 315q-14 0 -24.5 10.5t-10.5 24.5t10.5 24.5t24.5 10.5t24.5 -10.5t10.5 -24.5t-10.5 -24.5t-24.5 -10.5z" />
    <glyph glyph-name="cedilla" unicode="&#xb8;" horiz-adv-x="330" 
d="M150 -195q-27 0 -52 7.5t-36 15.5l-12 7l15 30q34 -25 92 -25q39 0 61 20.5t22 52.5q0 24 -13 46t-22.5 29.5t-16.5 11.5l22 15q3 -1 7.5 -3.5t16.5 -12t21.5 -20.5t17 -29.5t7.5 -39.5q0 -49 -37 -77t-93 -28z" />
    <glyph glyph-name="uni00B9" unicode="&#xb9;" horiz-adv-x="258" 
d="M169 700h29v-420h-37v370l-109 -79l-22 27z" />
    <glyph glyph-name="ordmasculine" unicode="&#xba;" horiz-adv-x="454" 
d="M225 380q-71 0 -118 46t-47 114q0 69 48.5 116.5t120.5 47.5q71 0 118 -46t47 -114q0 -69 -48.5 -116.5t-120.5 -47.5zM227 415q53 0 90 36.5t37 90.5t-37 90.5t-90 36.5t-90 -36.5t-37 -90.5t37 -90.5t90 -36.5zM70 280v35h314v-35h-314z" />
    <glyph glyph-name="guillemotright" unicode="&#xbb;" horiz-adv-x="750" 
d="M327 349l-247 224l25 27l275 -240v-20l-275 -240l-25 25zM647 349l-247 224l25 27l275 -240v-20l-275 -240l-25 25z" />
    <glyph glyph-name="onequarter" unicode="&#xbc;" horiz-adv-x="833" 
d="M169 700h29v-420h-37v370l-109 -79l-22 27zM618 700h40l-520 -700h-40zM698 0v115h-200v31l200 274h36v-274h69v-31h-69v-115h-36zM533 146h165v222z" />
    <glyph glyph-name="onehalf" unicode="&#xbd;" horiz-adv-x="810" 
d="M169 700h29v-420h-37v370l-109 -79l-22 27zM618 700h40l-520 -700h-40zM508 0v27l165 165q60 60 60 117q0 35 -26 59t-65 24q-21 0 -39 -6.5t-29 -15t-19 -17.5t-11 -15l-4 -7l-32 14q2 3 5 8.5t14.5 19.5t26 24.5t38.5 19.5t51 9q54 0 90.5 -33t36.5 -83q0 -67 -68 -136
l-141 -141h206v-33h-259z" />
    <glyph glyph-name="threequarters" unicode="&#xbe;" horiz-adv-x="879" 
d="M149 274q-25 0 -47 6.5t-36.5 15t-25 17.5t-15.5 15l-5 7l28 19q3 -5 10 -12.5t33 -20.5t58 -13q49 0 78.5 24t29.5 63q0 38 -29.5 63.5t-78.5 25.5h-40v33h42q44 0 69 21.5t25 56.5t-25 56t-69 21q-29 0 -50.5 -10t-28.5 -20l-8 -11l-29 17q4 6 12 16t38.5 26t66.5 16
q57 0 93.5 -30.5t36.5 -76.5q0 -67 -66 -98q36 -15 57 -44t21 -64q0 -50 -42 -84.5t-103 -34.5zM664 700h40l-520 -700h-40zM744 0v115h-200v31l200 274h36v-274h69v-31h-69v-115h-36zM579 146h165v222z" />
    <glyph glyph-name="questiondown" unicode="&#xbf;" horiz-adv-x="540" 
d="M280 710q14 0 24.5 -10.5t10.5 -24.5t-10.5 -24.5t-24.5 -10.5t-24.5 10.5t-10.5 24.5t10.5 24.5t24.5 10.5zM300 500q0 -41 -18.5 -76t-45 -60.5t-53 -50.5t-45 -59t-18.5 -74q0 -68 44.5 -110.5t110.5 -42.5q34 0 63.5 11.5t47.5 27.5t31 32.5t19 27.5l5 12l34 -13
q-2 -5 -6 -14.5t-20.5 -32.5t-37.5 -41t-58 -32.5t-80 -14.5q-84 0 -138.5 53.5t-54.5 131.5q0 47 18.5 86t45 65.5t53 51t45 55.5t18.5 67h40z" />
    <glyph glyph-name="Agrave" unicode="&#xc0;" horiz-adv-x="680" 
d="M322 760l-95 160h45l85 -160h-35zM10 0l310 700h40l310 -700h-43l-101 230h-374l-101 -230h-41zM166 263h345l-172 393z" />
    <glyph glyph-name="Aacute" unicode="&#xc1;" horiz-adv-x="680" 
d="M322 760l85 160h45l-95 -160h-35zM10 0l310 700h40l310 -700h-43l-101 230h-374l-101 -230h-41zM166 263h345l-172 393z" />
    <glyph glyph-name="Acircumflex" unicode="&#xc2;" horiz-adv-x="680" 
d="M165 760l155 160h40l155 -160h-42l-135 127l-133 -127h-40zM10 0l310 700h40l310 -700h-43l-101 230h-374l-101 -230h-41zM166 263h345l-172 393z" />
    <glyph glyph-name="Atilde" unicode="&#xc3;" horiz-adv-x="680" 
d="M417 770q-28 0 -51 15t-36.5 33.5t-32.5 33.5t-39 15t-32.5 -19.5t-15.5 -39.5l-2 -19l-37 4q0 4 1 11.5t6 26t14 32.5t27 25.5t42 11.5q29 0 52.5 -15t36 -33.5t31.5 -33.5t39 -15q21 0 33.5 19.5t14.5 39.5l3 20l37 -4q0 -4 -1 -11.5t-6.5 -26t-14 -33t-27 -26
t-42.5 -11.5zM10 0l310 700h40l310 -700h-43l-101 230h-374l-101 -230h-41zM166 263h345l-172 393z" />
    <glyph glyph-name="Adieresis" unicode="&#xc4;" horiz-adv-x="680" 
d="M245 800q-14 0 -24.5 10.5t-10.5 24.5t10.5 24.5t24.5 10.5t24.5 -10.5t10.5 -24.5t-10.5 -24.5t-24.5 -10.5zM435 800q-14 0 -24.5 10.5t-10.5 24.5t10.5 24.5t24.5 10.5t24.5 -10.5t10.5 -24.5t-10.5 -24.5t-24.5 -10.5zM10 0l310 700h40l310 -700h-43l-101 230h-374
l-101 -230h-41zM166 263h345l-172 393z" />
    <glyph glyph-name="Aring" unicode="&#xc5;" horiz-adv-x="680" 
d="M340 740q-39 0 -66.5 25.5t-27.5 64.5t27.5 64.5t66.5 25.5q40 0 67.5 -25.5t27.5 -64.5t-27.5 -64.5t-67.5 -25.5zM340 771q25 0 42.5 16.5t17.5 42.5t-17.5 42.5t-42.5 16.5t-42.5 -16.5t-17.5 -42.5t17.5 -42.5t42.5 -16.5zM10 0l310 700h40l310 -700h-43l-101 230
h-374l-101 -230h-41zM166 263h345l-172 393z" />
    <glyph glyph-name="AE" unicode="&#xc6;" horiz-adv-x="1045" 
d="M0 0l485 700h490v-35h-430v-281h380v-33h-380v-316h440v-35h-480v230h-300l-157 -230h-48zM228 263h277v403z" />
    <glyph glyph-name="Ccedilla" unicode="&#xc7;" horiz-adv-x="720" 
d="M680 101q-3 -4 -9.5 -10.5t-27.5 -23.5t-45 -30.5t-62 -27t-78 -17.5q37 -35 37 -82q0 -49 -37 -77t-93 -28q-27 0 -52 7.5t-37 15.5l-11 7l15 30q34 -25 92 -25q39 0 61 20.5t22 52.5q0 44 -38 77q-151 1 -254 104.5t-103 254.5t105 256t256 105q45 0 87.5 -10.5
t71 -25.5t50.5 -30t32 -26l11 -10l-26 -25q-3 4 -10 10t-29 21.5t-46.5 27.5t-63 21.5t-78.5 9.5q-135 0 -227.5 -93t-92.5 -230t92.5 -230t227.5 -93q42 0 81.5 10t66 24.5t47 29.5t30.5 24.5t10 10.5z" />
    <glyph glyph-name="Egrave" unicode="&#xc8;" horiz-adv-x="650" 
d="M327 760l-95 160h45l85 -160h-35zM110 0v700h470v-35h-430v-281h380v-33h-380v-316h440v-35h-480z" />
    <glyph glyph-name="Eacute" unicode="&#xc9;" horiz-adv-x="650" 
d="M327 760l85 160h45l-95 -160h-35zM110 0v700h470v-35h-430v-281h380v-33h-380v-316h440v-35h-480z" />
    <glyph glyph-name="Ecircumflex" unicode="&#xca;" horiz-adv-x="650" 
d="M170 760l155 160h40l155 -160h-42l-135 127l-133 -127h-40zM110 0v700h470v-35h-430v-281h380v-33h-380v-316h440v-35h-480z" />
    <glyph glyph-name="Edieresis" unicode="&#xcb;" horiz-adv-x="650" 
d="M250 800q-14 0 -24.5 10.5t-10.5 24.5t10.5 24.5t24.5 10.5t24.5 -10.5t10.5 -24.5t-10.5 -24.5t-24.5 -10.5zM440 800q-14 0 -24.5 10.5t-10.5 24.5t10.5 24.5t24.5 10.5t24.5 -10.5t10.5 -24.5t-10.5 -24.5t-24.5 -10.5zM110 0v700h470v-35h-430v-281h380v-33h-380
v-316h440v-35h-480z" />
    <glyph glyph-name="Igrave" unicode="&#xcc;" horiz-adv-x="272" 
d="M118 760l-95 160h45l85 -160h-35zM115 700h42v-700h-42v700z" />
    <glyph glyph-name="Iacute" unicode="&#xcd;" horiz-adv-x="272" 
d="M118 760l85 160h45l-95 -160h-35zM115 700h42v-700h-42v700z" />
    <glyph glyph-name="Icircumflex" unicode="&#xce;" horiz-adv-x="272" 
d="M-39 760l155 160h40l155 -160h-42l-135 127l-133 -127h-40zM115 700h42v-700h-42v700z" />
    <glyph glyph-name="Idieresis" unicode="&#xcf;" horiz-adv-x="272" 
d="M41 800q-14 0 -24.5 10.5t-10.5 24.5t10.5 24.5t24.5 10.5t24.5 -10.5t10.5 -24.5t-10.5 -24.5t-24.5 -10.5zM231 800q-14 0 -24.5 10.5t-10.5 24.5t10.5 24.5t24.5 10.5t24.5 -10.5t10.5 -24.5t-10.5 -24.5t-24.5 -10.5zM115 700h42v-700h-42v700z" />
    <glyph glyph-name="Eth" unicode="&#xd0;" horiz-adv-x="790" 
d="M351 700q166 0 272.5 -99.5t106.5 -249.5t-107.5 -250.5t-273.5 -100.5h-209v346h-110v33h110v321h211zM355 35q145 0 240 90.5t95 224.5t-95 224.5t-240 90.5h-175v-286h260v-33h-260v-311h175z" />
    <glyph glyph-name="Ntilde" unicode="&#xd1;" horiz-adv-x="790" 
d="M472 770q-28 0 -51 15t-36.5 33.5t-32.5 33.5t-39 15t-32.5 -19.5t-14.5 -39.5l-3 -19l-37 4q0 4 1 11.5t6 26t14 32.5t27 25.5t42 11.5q29 0 52.5 -15t36 -33.5t31.5 -33.5t39 -15q21 0 33.5 19.5t15.5 39.5l2 20l37 -4q0 -4 -1 -11.5t-6.5 -26t-14 -33t-27 -26
t-42.5 -11.5zM150 644v-644h-40v700h45l485 -638v638h40v-700h-40z" />
    <glyph glyph-name="Ograve" unicode="&#xd2;" horiz-adv-x="840" 
d="M402 760l-95 160h45l85 -160h-35zM60 349q0 151 105 256t256 105t255 -104t104 -255t-105 -256t-256 -105t-255 104t-104 255zM100 350q0 -137 92.5 -230t227.5 -93t227.5 93t92.5 230t-92.5 230t-227.5 93t-227.5 -93t-92.5 -230z" />
    <glyph glyph-name="Oacute" unicode="&#xd3;" horiz-adv-x="840" 
d="M402 760l85 160h45l-95 -160h-35zM60 349q0 151 105 256t256 105t255 -104t104 -255t-105 -256t-256 -105t-255 104t-104 255zM100 350q0 -137 92.5 -230t227.5 -93t227.5 93t92.5 230t-92.5 230t-227.5 93t-227.5 -93t-92.5 -230z" />
    <glyph glyph-name="Ocircumflex" unicode="&#xd4;" horiz-adv-x="840" 
d="M245 760l155 160h40l155 -160h-42l-135 127l-133 -127h-40zM60 349q0 151 105 256t256 105t255 -104t104 -255t-105 -256t-256 -105t-255 104t-104 255zM100 350q0 -137 92.5 -230t227.5 -93t227.5 93t92.5 230t-92.5 230t-227.5 93t-227.5 -93t-92.5 -230z" />
    <glyph glyph-name="Otilde" unicode="&#xd5;" horiz-adv-x="840" 
d="M497 770q-28 0 -51 15t-36.5 33.5t-32.5 33.5t-39 15t-32.5 -19.5t-15.5 -39.5l-2 -19l-37 4q0 4 1 11.5t6 26t14 32.5t27 25.5t42 11.5q29 0 52.5 -15t36 -33.5t31.5 -33.5t39 -15q21 0 33.5 19.5t14.5 39.5l3 20l37 -4q0 -4 -1 -11.5t-6.5 -26t-14 -33t-27 -26
t-42.5 -11.5zM60 349q0 151 105 256t256 105t255 -104t104 -255t-105 -256t-256 -105t-255 104t-104 255zM100 350q0 -137 92.5 -230t227.5 -93t227.5 93t92.5 230t-92.5 230t-227.5 93t-227.5 -93t-92.5 -230z" />
    <glyph glyph-name="Odieresis" unicode="&#xd6;" horiz-adv-x="840" 
d="M325 800q-14 0 -24.5 10.5t-10.5 24.5t10.5 24.5t24.5 10.5t24.5 -10.5t10.5 -24.5t-10.5 -24.5t-24.5 -10.5zM515 800q-14 0 -24.5 10.5t-10.5 24.5t10.5 24.5t24.5 10.5t24.5 -10.5t10.5 -24.5t-10.5 -24.5t-24.5 -10.5zM60 349q0 151 105 256t256 105t255 -104
t104 -255t-105 -256t-256 -105t-255 104t-104 255zM100 350q0 -137 92.5 -230t227.5 -93t227.5 93t92.5 230t-92.5 230t-227.5 93t-227.5 -93t-92.5 -230z" />
    <glyph glyph-name="multiply" unicode="&#xd7;" 
d="M98 123l-25 25l204 202l-204 202l25 25l202 -204l202 204l25 -25l-204 -202l204 -202l-25 -25l-202 204z" />
    <glyph glyph-name="Oslash" unicode="&#xd8;" horiz-adv-x="840" 
d="M673 609q107 -104 107 -258q0 -151 -105 -256t-256 -105q-128 0 -227 78l-87 -98h-45l107 121q-107 104 -107 258q0 151 105 256t256 105q128 0 227 -78l87 98h45zM100 350q0 -139 93 -230l429 483q-88 70 -202 70q-135 0 -227.5 -93t-92.5 -230zM420 27q135 0 227.5 93
t92.5 230q0 139 -93 230l-429 -483q87 -70 202 -70z" />
    <glyph glyph-name="Ugrave" unicode="&#xd9;" horiz-adv-x="740" 
d="M352 760l-95 160h45l85 -160h-35zM369 -10q-117 0 -193 81t-76 208v421h41v-423q0 -110 65 -180t165 -70t165 70t65 180v423h39v-419q0 -127 -77 -209t-194 -82z" />
    <glyph glyph-name="Uacute" unicode="&#xda;" horiz-adv-x="740" 
d="M352 760l85 160h45l-95 -160h-35zM369 -10q-117 0 -193 81t-76 208v421h41v-423q0 -110 65 -180t165 -70t165 70t65 180v423h39v-419q0 -127 -77 -209t-194 -82z" />
    <glyph glyph-name="Ucircumflex" unicode="&#xdb;" horiz-adv-x="740" 
d="M195 760l155 160h40l155 -160h-42l-135 127l-133 -127h-40zM369 -10q-117 0 -193 81t-76 208v421h41v-423q0 -110 65 -180t165 -70t165 70t65 180v423h39v-419q0 -127 -77 -209t-194 -82z" />
    <glyph glyph-name="Udieresis" unicode="&#xdc;" horiz-adv-x="740" 
d="M275 800q-14 0 -24.5 10.5t-10.5 24.5t10.5 24.5t24.5 10.5t24.5 -10.5t10.5 -24.5t-10.5 -24.5t-24.5 -10.5zM465 800q-14 0 -24.5 10.5t-10.5 24.5t10.5 24.5t24.5 10.5t24.5 -10.5t10.5 -24.5t-10.5 -24.5t-24.5 -10.5zM369 -10q-117 0 -193 81t-76 208v421h41v-423
q0 -110 65 -180t165 -70t165 70t65 180v423h39v-419q0 -127 -77 -209t-194 -82z" />
    <glyph glyph-name="Yacute" unicode="&#xdd;" horiz-adv-x="650" 
d="M308 760l85 160h45l-95 -160h-35zM305 0v290l-295 410h49l267 -376l267 376h47l-295 -410v-290h-40z" />
    <glyph glyph-name="Thorn" unicode="&#xde;" horiz-adv-x="665" 
d="M110 0v700h40v-125h228q100 0 163.5 -59t63.5 -148t-64.5 -148.5t-164.5 -59.5h-226v-160h-40zM150 195h222q86 0 139.5 49t53.5 123q0 75 -53.5 124t-139.5 49h-222v-345z" />
    <glyph glyph-name="germandbls" unicode="&#xdf;" horiz-adv-x="595" 
d="M347 -10q-23 0 -42 3t-27 6l-8 3l10 35q32 -10 67 -10q75 0 121.5 45t46.5 115t-48 115.5t-125 45.5h-47v34h7q76 0 124.5 40.5t48.5 104.5t-48.5 105t-124.5 41q-79 0 -125.5 -54t-46.5 -147v-472h-40v471q0 108 58.5 173.5t154.5 65.5q93 0 152.5 -50.5t59.5 -128.5
q0 -56 -29.5 -97.5t-80.5 -62.5q69 -17 109.5 -66.5t40.5 -119.5q0 -84 -58 -139.5t-150 -55.5z" />
    <glyph glyph-name="agrave" unicode="&#xe0;" horiz-adv-x="560" 
d="M253 580l-95 160h45l85 -160h-35zM60 146q0 66 55 112.5t147 46.5q118 0 178 -68v53q0 96 -45.5 143.5t-124.5 47.5q-46 0 -85 -14t-55 -28l-15 -14l-25 26q7 7 20 18t60 29t101 18q100 0 154.5 -58t54.5 -167v-291h-30l-7 61q-59 -71 -181 -71q-92 0 -147 45t-55 111z
M100 147q0 -51 45 -85.5t122 -34.5q85 0 131.5 34t46.5 86t-46.5 86.5t-131.5 34.5q-77 0 -122 -35t-45 -86z" />
    <glyph glyph-name="aacute" unicode="&#xe1;" horiz-adv-x="560" 
d="M253 580l85 160h45l-95 -160h-35zM60 146q0 66 55 112.5t147 46.5q118 0 178 -68v53q0 96 -45.5 143.5t-124.5 47.5q-46 0 -85 -14t-55 -28l-15 -14l-25 26q7 7 20 18t60 29t101 18q100 0 154.5 -58t54.5 -167v-291h-30l-7 61q-59 -71 -181 -71q-92 0 -147 45t-55 111z
M100 147q0 -51 45 -85.5t122 -34.5q85 0 131.5 34t46.5 86t-46.5 86.5t-131.5 34.5q-77 0 -122 -35t-45 -86z" />
    <glyph glyph-name="acircumflex" unicode="&#xe2;" horiz-adv-x="560" 
d="M96 580l155 160h40l155 -160h-42l-135 127l-133 -127h-40zM60 146q0 66 55 112.5t147 46.5q118 0 178 -68v53q0 96 -45.5 143.5t-124.5 47.5q-46 0 -85 -14t-55 -28l-15 -14l-25 26q7 7 20 18t60 29t101 18q100 0 154.5 -58t54.5 -167v-291h-30l-7 61q-59 -71 -181 -71
q-92 0 -147 45t-55 111zM100 147q0 -51 45 -85.5t122 -34.5q85 0 131.5 34t46.5 86t-46.5 86.5t-131.5 34.5q-77 0 -122 -35t-45 -86z" />
    <glyph glyph-name="atilde" unicode="&#xe3;" horiz-adv-x="560" 
d="M348 590q-28 0 -51 15t-36.5 33.5t-32.5 33.5t-39 15t-32.5 -19.5t-14.5 -39.5l-3 -19l-37 4q0 4 1 11.5t6 26t14 32.5t27 25.5t42 11.5q29 0 52.5 -15t36 -33.5t31.5 -33.5t39 -15q21 0 33.5 19.5t15.5 39.5l2 20l37 -4q0 -4 -1 -11.5t-6.5 -26t-14 -33t-27 -26
t-42.5 -11.5zM60 146q0 66 55 112.5t147 46.5q118 0 178 -68v53q0 96 -45.5 143.5t-124.5 47.5q-46 0 -85 -14t-55 -28l-15 -14l-25 26q7 7 20 18t60 29t101 18q100 0 154.5 -58t54.5 -167v-291h-30l-7 61q-59 -71 -181 -71q-92 0 -147 45t-55 111zM100 147q0 -51 45 -85.5
t122 -34.5q85 0 131.5 34t46.5 86t-46.5 86.5t-131.5 34.5q-77 0 -122 -35t-45 -86z" />
    <glyph glyph-name="adieresis" unicode="&#xe4;" horiz-adv-x="560" 
d="M176 620q-14 0 -24.5 10.5t-10.5 24.5t10.5 24.5t24.5 10.5t24.5 -10.5t10.5 -24.5t-10.5 -24.5t-24.5 -10.5zM366 620q-14 0 -24.5 10.5t-10.5 24.5t10.5 24.5t24.5 10.5t24.5 -10.5t10.5 -24.5t-10.5 -24.5t-24.5 -10.5zM60 146q0 66 55 112.5t147 46.5q118 0 178 -68
v53q0 96 -45.5 143.5t-124.5 47.5q-46 0 -85 -14t-55 -28l-15 -14l-25 26q7 7 20 18t60 29t101 18q100 0 154.5 -58t54.5 -167v-291h-30l-7 61q-59 -71 -181 -71q-92 0 -147 45t-55 111zM100 147q0 -51 45 -85.5t122 -34.5q85 0 131.5 34t46.5 86t-46.5 86.5t-131.5 34.5
q-77 0 -122 -35t-45 -86z" />
    <glyph glyph-name="aring" unicode="&#xe5;" horiz-adv-x="560" 
d="M271 560q-39 0 -66.5 25.5t-27.5 64.5t27.5 64.5t66.5 25.5q40 0 67.5 -25.5t27.5 -64.5t-27.5 -64.5t-67.5 -25.5zM271 591q25 0 42.5 16.5t17.5 42.5t-17.5 42.5t-42.5 16.5t-42.5 -16.5t-17.5 -42.5t17.5 -42.5t42.5 -16.5zM60 146q0 66 55 112.5t147 46.5
q118 0 178 -68v53q0 96 -45.5 143.5t-124.5 47.5q-46 0 -85 -14t-55 -28l-15 -14l-25 26q7 7 20 18t60 29t101 18q100 0 154.5 -58t54.5 -167v-291h-30l-7 61q-59 -71 -181 -71q-92 0 -147 45t-55 111zM100 147q0 -51 45 -85.5t122 -34.5q85 0 131.5 34t46.5 86t-46.5 86.5
t-131.5 34.5q-77 0 -122 -35t-45 -86z" />
    <glyph glyph-name="ae" unicode="&#xe6;" horiz-adv-x="996" 
d="M262 -10q-92 0 -147 45t-55 111t55 112.5t147 46.5q118 0 178 -68v53q0 96 -45.5 143.5t-124.5 47.5q-46 0 -85 -13.5t-55 -27.5l-15 -13l-25 26q7 7 20 17.5t60 28t101 17.5q165 0 197 -152q31 69 93.5 110.5t142.5 41.5q99 0 170.5 -73.5t71.5 -178.5v-4h-466
q0 -103 63.5 -168t159.5 -65q39 0 73 11.5t55.5 27.5t37.5 32t23 28l7 11l29 -17q-3 -5 -8 -14t-25.5 -31.5t-44 -39.5t-63.5 -31t-85 -14q-76 0 -136 37t-92 100q-9 -61 -63 -99t-149 -38zM483 293h421q-11 80 -68 133t-133 53q-84 0 -145 -52t-75 -134zM267 27
q85 0 131.5 34t46.5 86t-46.5 86.5t-131.5 34.5q-77 0 -122 -35t-45 -86t45 -85.5t122 -34.5z" />
    <glyph glyph-name="ccedilla" unicode="&#xe7;" horiz-adv-x="550" 
d="M510 80q-2 -3 -6 -8t-19 -18.5t-32 -24.5t-45 -22t-58 -15q37 -33 37 -82t-37 -77t-93 -28q-27 0 -52 7.5t-37 15.5l-11 7l15 30q34 -25 92 -25q39 0 61 20.5t22 52.5q0 44 -38 77q-110 2 -184.5 77t-74.5 185q0 111 76.5 187.5t187.5 76.5q35 0 67.5 -8.5t54 -20
t37.5 -23.5t23 -20l8 -9l-25 -26q-7 8 -19.5 19.5t-55.5 31t-91 19.5q-95 0 -159 -64.5t-64 -161.5t64 -161.5t159 -64.5q51 0 93.5 19t59.5 38l17 19z" />
    <glyph glyph-name="egrave" unicode="&#xe8;" horiz-adv-x="606" 
d="M296 580l-95 160h45l85 -160h-35zM312 -10q-111 0 -186.5 75.5t-75.5 186.5t76.5 187.5t187.5 76.5q99 0 170.5 -73.5t71.5 -178.5v-4h-466q0 -103 63.5 -168t159.5 -65q39 0 73 11.5t55.5 27.5t37.5 32t23 28l7 11l29 -17q-3 -5 -8 -14t-25.5 -31.5t-44 -39.5t-63.5 -31
t-85 -14zM93 295h421q-11 79 -68.5 131.5t-132.5 52.5q-83 0 -144.5 -51.5t-75.5 -132.5z" />
    <glyph glyph-name="eacute" unicode="&#xe9;" horiz-adv-x="606" 
d="M296 580l85 160h45l-95 -160h-35zM312 -10q-111 0 -186.5 75.5t-75.5 186.5t76.5 187.5t187.5 76.5q99 0 170.5 -73.5t71.5 -178.5v-4h-466q0 -103 63.5 -168t159.5 -65q39 0 73 11.5t55.5 27.5t37.5 32t23 28l7 11l29 -17q-3 -5 -8 -14t-25.5 -31.5t-44 -39.5t-63.5 -31
t-85 -14zM93 295h421q-11 79 -68.5 131.5t-132.5 52.5q-83 0 -144.5 -51.5t-75.5 -132.5z" />
    <glyph glyph-name="ecircumflex" unicode="&#xea;" horiz-adv-x="606" 
d="M139 580l155 160h40l155 -160h-42l-135 127l-133 -127h-40zM312 -10q-111 0 -186.5 75.5t-75.5 186.5t76.5 187.5t187.5 76.5q99 0 170.5 -73.5t71.5 -178.5v-4h-466q0 -103 63.5 -168t159.5 -65q39 0 73 11.5t55.5 27.5t37.5 32t23 28l7 11l29 -17q-3 -5 -8 -14
t-25.5 -31.5t-44 -39.5t-63.5 -31t-85 -14zM93 295h421q-11 79 -68.5 131.5t-132.5 52.5q-83 0 -144.5 -51.5t-75.5 -132.5z" />
    <glyph glyph-name="edieresis" unicode="&#xeb;" horiz-adv-x="606" 
d="M219 620q-14 0 -24.5 10.5t-10.5 24.5t10.5 24.5t24.5 10.5t24.5 -10.5t10.5 -24.5t-10.5 -24.5t-24.5 -10.5zM409 620q-14 0 -24.5 10.5t-10.5 24.5t10.5 24.5t24.5 10.5t24.5 -10.5t10.5 -24.5t-10.5 -24.5t-24.5 -10.5zM312 -10q-111 0 -186.5 75.5t-75.5 186.5
t76.5 187.5t187.5 76.5q99 0 170.5 -73.5t71.5 -178.5v-4h-466q0 -103 63.5 -168t159.5 -65q39 0 73 11.5t55.5 27.5t37.5 32t23 28l7 11l29 -17q-3 -5 -8 -14t-25.5 -31.5t-44 -39.5t-63.5 -31t-85 -14zM93 295h421q-11 79 -68.5 131.5t-132.5 52.5q-83 0 -144.5 -51.5
t-75.5 -132.5z" />
    <glyph glyph-name="igrave" unicode="&#xec;" horiz-adv-x="232" 
d="M98 580l-95 160h45l85 -160h-35zM95 506h42v-506h-42v506z" />
    <glyph glyph-name="iacute" unicode="&#xed;" horiz-adv-x="232" 
d="M98 580l85 160h45l-95 -160h-35zM95 506h42v-506h-42v506z" />
    <glyph glyph-name="icircumflex" unicode="&#xee;" horiz-adv-x="232" 
d="M-59 580l155 160h40l155 -160h-42l-135 127l-133 -127h-40zM95 506h42v-506h-42v506z" />
    <glyph glyph-name="idieresis" unicode="&#xef;" horiz-adv-x="232" 
d="M21 620q-14 0 -24.5 10.5t-10.5 24.5t10.5 24.5t24.5 10.5t24.5 -10.5t10.5 -24.5t-10.5 -24.5t-24.5 -10.5zM211 620q-14 0 -24.5 10.5t-10.5 24.5t10.5 24.5t24.5 10.5t24.5 -10.5t10.5 -24.5t-10.5 -24.5t-24.5 -10.5zM95 506h42v-506h-42v506z" />
    <glyph glyph-name="eth" unicode="&#xf0;" horiz-adv-x="626" 
d="M518 414q58 -88 58 -170q0 -105 -77 -179.5t-187 -74.5t-186 73.5t-76 178.5t77 179.5t187 74.5q72 0 136 -42l-91 139l-195 -42v33l176 38l-51 78h46l45 -70l136 29v-33l-118 -25zM313 27q94 0 158.5 63t64.5 153t-64.5 153t-158.5 63t-158.5 -63t-64.5 -153t64.5 -153
t158.5 -63z" />
    <glyph glyph-name="ntilde" unicode="&#xf1;" horiz-adv-x="610" 
d="M382 590q-28 0 -51 15t-36.5 33.5t-32.5 33.5t-39 15t-32.5 -19.5t-14.5 -39.5l-3 -19l-37 4q0 4 1 11.5t6 26t14 32.5t27 25.5t42 11.5q29 0 52.5 -15t36 -33.5t31.5 -33.5t39 -15q21 0 33.5 19.5t15.5 39.5l2 20l37 -4q0 -4 -1 -11.5t-6.5 -26t-14 -33t-27 -26
t-42.5 -11.5zM130 0h-40v506h35l5 -108q57 118 198 118q86 0 144 -61.5t58 -180.5v-274h-40v261q0 110 -48 164t-120 54q-84 0 -138 -58t-54 -180v-241z" />
    <glyph glyph-name="ograve" unicode="&#xf2;" horiz-adv-x="626" 
d="M295 580l-95 160h45l85 -160h-35zM50 252q0 111 76.5 187.5t187.5 76.5t186.5 -75.5t75.5 -186.5t-76.5 -187.5t-187.5 -76.5t-186.5 75.5t-75.5 186.5zM90 253q0 -97 64 -161.5t159 -64.5t159 64.5t64 161.5t-64 161.5t-159 64.5t-159 -64.5t-64 -161.5z" />
    <glyph glyph-name="oacute" unicode="&#xf3;" horiz-adv-x="626" 
d="M295 580l85 160h45l-95 -160h-35zM50 252q0 111 76.5 187.5t187.5 76.5t186.5 -75.5t75.5 -186.5t-76.5 -187.5t-187.5 -76.5t-186.5 75.5t-75.5 186.5zM90 253q0 -97 64 -161.5t159 -64.5t159 64.5t64 161.5t-64 161.5t-159 64.5t-159 -64.5t-64 -161.5z" />
    <glyph glyph-name="ocircumflex" unicode="&#xf4;" horiz-adv-x="626" 
d="M138 580l155 160h40l155 -160h-42l-135 127l-133 -127h-40zM50 252q0 111 76.5 187.5t187.5 76.5t186.5 -75.5t75.5 -186.5t-76.5 -187.5t-187.5 -76.5t-186.5 75.5t-75.5 186.5zM90 253q0 -97 64 -161.5t159 -64.5t159 64.5t64 161.5t-64 161.5t-159 64.5t-159 -64.5
t-64 -161.5z" />
    <glyph glyph-name="otilde" unicode="&#xf5;" horiz-adv-x="626" 
d="M390 590q-28 0 -51 15t-36.5 33.5t-32.5 33.5t-39 15t-32.5 -19.5t-14.5 -39.5l-3 -19l-37 4q0 4 1 11.5t6 26t14 32.5t27 25.5t42 11.5q29 0 52.5 -15t36 -33.5t31.5 -33.5t39 -15q21 0 33.5 19.5t15.5 39.5l2 20l37 -4q0 -4 -1 -11.5t-6.5 -26t-14 -33t-27 -26
t-42.5 -11.5zM50 252q0 111 76.5 187.5t187.5 76.5t186.5 -75.5t75.5 -186.5t-76.5 -187.5t-187.5 -76.5t-186.5 75.5t-75.5 186.5zM90 253q0 -97 64 -161.5t159 -64.5t159 64.5t64 161.5t-64 161.5t-159 64.5t-159 -64.5t-64 -161.5z" />
    <glyph glyph-name="odieresis" unicode="&#xf6;" horiz-adv-x="626" 
d="M218 620q-14 0 -24.5 10.5t-10.5 24.5t10.5 24.5t24.5 10.5t24.5 -10.5t10.5 -24.5t-10.5 -24.5t-24.5 -10.5zM408 620q-14 0 -24.5 10.5t-10.5 24.5t10.5 24.5t24.5 10.5t24.5 -10.5t10.5 -24.5t-10.5 -24.5t-24.5 -10.5zM50 252q0 111 76.5 187.5t187.5 76.5
t186.5 -75.5t75.5 -186.5t-76.5 -187.5t-187.5 -76.5t-186.5 75.5t-75.5 186.5zM90 253q0 -97 64 -161.5t159 -64.5t159 64.5t64 161.5t-64 161.5t-159 64.5t-159 -64.5t-64 -161.5z" />
    <glyph glyph-name="divide" unicode="&#xf7;" 
d="M300 525q-14 0 -24.5 10.5t-10.5 24.5t10.5 24.5t24.5 10.5t24.5 -10.5t10.5 -24.5t-10.5 -24.5t-24.5 -10.5zM50 340v35h500v-35h-500zM300 120q-14 0 -24.5 10.5t-10.5 24.5t10.5 24.5t24.5 10.5t24.5 -10.5t10.5 -24.5t-10.5 -24.5t-24.5 -10.5z" />
    <glyph glyph-name="oslash" unicode="&#xf8;" horiz-adv-x="626" 
d="M596 536l-92 -99q72 -75 72 -183q0 -111 -76.5 -187.5t-187.5 -76.5q-95 0 -166 57l-71 -77h-45l92 99q-72 75 -72 183q0 111 76.5 187.5t187.5 76.5q95 0 166 -57l71 77h45zM90 253q0 -91 58 -155l306 332q-60 49 -141 49q-95 0 -159 -64.5t-64 -161.5zM536 253
q0 91 -58 155l-306 -332q60 -49 141 -49q95 0 159 64.5t64 161.5z" />
    <glyph glyph-name="ugrave" unicode="&#xf9;" horiz-adv-x="610" 
d="M287 580l-95 160h45l85 -160h-35zM480 506h40v-506h-35l-5 108q-57 -118 -198 -118q-86 0 -144 61.5t-58 180.5v274h40v-261q0 -110 48 -164t120 -54q84 0 138 58t54 180v241z" />
    <glyph glyph-name="uacute" unicode="&#xfa;" horiz-adv-x="610" 
d="M287 580l85 160h45l-95 -160h-35zM480 506h40v-506h-35l-5 108q-57 -118 -198 -118q-86 0 -144 61.5t-58 180.5v274h40v-261q0 -110 48 -164t120 -54q84 0 138 58t54 180v241z" />
    <glyph glyph-name="ucircumflex" unicode="&#xfb;" horiz-adv-x="610" 
d="M130 580l155 160h40l155 -160h-42l-135 127l-133 -127h-40zM480 506h40v-506h-35l-5 108q-57 -118 -198 -118q-86 0 -144 61.5t-58 180.5v274h40v-261q0 -110 48 -164t120 -54q84 0 138 58t54 180v241z" />
    <glyph glyph-name="udieresis" unicode="&#xfc;" horiz-adv-x="610" 
d="M210 620q-14 0 -24.5 10.5t-10.5 24.5t10.5 24.5t24.5 10.5t24.5 -10.5t10.5 -24.5t-10.5 -24.5t-24.5 -10.5zM400 620q-14 0 -24.5 10.5t-10.5 24.5t10.5 24.5t24.5 10.5t24.5 -10.5t10.5 -24.5t-10.5 -24.5t-24.5 -10.5zM480 506h40v-506h-35l-5 108
q-57 -118 -198 -118q-86 0 -144 61.5t-58 180.5v274h40v-261q0 -110 48 -164t120 -54q84 0 138 58t54 180v241z" />
    <glyph glyph-name="yacute" unicode="&#xfd;" horiz-adv-x="505" 
d="M236 580l85 160h45l-95 -160h-35zM10 506h45l198 -465l199 465h43l-225 -511q-72 -165 -188 -165q-24 0 -42 4t-24 8l-6 4l14 32q19 -11 58 -11q92 0 151 133z" />
    <glyph glyph-name="thorn" unicode="&#xfe;" horiz-adv-x="660" 
d="M90 700h40v-313q33 59 92.5 94t131.5 35q107 0 181.5 -75.5t74.5 -186.5t-75.5 -187.5t-182.5 -76.5q-72 0 -130.5 33.5t-91.5 92.5v-276h-40v860zM125 253q0 -97 64 -161.5t159 -64.5t158.5 64.5t63.5 161.5t-63.5 161.5t-158.5 64.5t-159 -64.5t-64 -161.5z" />
    <glyph glyph-name="ydieresis" unicode="&#xff;" horiz-adv-x="505" 
d="M159 620q-14 0 -24.5 10.5t-10.5 24.5t10.5 24.5t24.5 10.5t24.5 -10.5t10.5 -24.5t-10.5 -24.5t-24.5 -10.5zM349 620q-14 0 -24.5 10.5t-10.5 24.5t10.5 24.5t24.5 10.5t24.5 -10.5t10.5 -24.5t-10.5 -24.5t-24.5 -10.5zM10 506h45l198 -465l199 465h43l-225 -511
q-72 -165 -188 -165q-24 0 -42 4t-24 8l-6 4l14 32q19 -11 58 -11q92 0 151 133z" />
    <glyph glyph-name="Amacron" unicode="&#x100;" horiz-adv-x="680" 
d="M160 824v33h360v-33h-360zM10 0l310 700h40l310 -700h-43l-101 230h-374l-101 -230h-41zM166 263h345l-172 393z" />
    <glyph glyph-name="amacron" unicode="&#x101;" horiz-adv-x="560" 
d="M91 644v33h360v-33h-360zM60 146q0 66 55 112.5t147 46.5q118 0 178 -68v53q0 96 -45.5 143.5t-124.5 47.5q-46 0 -85 -14t-55 -28l-15 -14l-25 26q7 7 20 18t60 29t101 18q100 0 154.5 -58t54.5 -167v-291h-30l-7 61q-59 -71 -181 -71q-92 0 -147 45t-55 111zM100 147
q0 -51 45 -85.5t122 -34.5q85 0 131.5 34t46.5 86t-46.5 86.5t-131.5 34.5q-77 0 -122 -35t-45 -86z" />
    <glyph glyph-name="Abreve" unicode="&#x102;" horiz-adv-x="680" 
d="M340 760q-67 0 -111.5 44.5t-44.5 110.5v5h38v-5q0 -53 33 -86.5t86 -33.5t85 33t32 87v5h38v-5q0 -66 -44.5 -110.5t-111.5 -44.5zM10 0l310 700h40l310 -700h-43l-101 230h-374l-101 -230h-41zM166 263h345l-172 393z" />
    <glyph glyph-name="abreve" unicode="&#x103;" horiz-adv-x="560" 
d="M271 580q-67 0 -111.5 44.5t-44.5 110.5v5h38v-5q0 -53 33 -86.5t86 -33.5t85 33t32 87v5h38v-5q0 -66 -44.5 -110.5t-111.5 -44.5zM60 146q0 66 55 112.5t147 46.5q118 0 178 -68v53q0 96 -45.5 143.5t-124.5 47.5q-46 0 -85 -14t-55 -28l-15 -14l-25 26q7 7 20 18
t60 29t101 18q100 0 154.5 -58t54.5 -167v-291h-30l-7 61q-59 -71 -181 -71q-92 0 -147 45t-55 111zM100 147q0 -51 45 -85.5t122 -34.5q85 0 131.5 34t46.5 86t-46.5 86.5t-131.5 34.5q-77 0 -122 -35t-45 -86z" />
    <glyph glyph-name="Aogonek" unicode="&#x104;" horiz-adv-x="680" 
d="M776 -133l16 -27q-28 -25 -83 -25q-58 0 -95 31.5t-37 80.5q0 55 43 88l-94 215h-374l-101 -230h-41l310 700h40l310 -700h-27q-29 -18 -29 -67q0 -37 27.5 -60t68.5 -23q18 0 34.5 4t23.5 8zM166 263h345l-172 393z" />
    <glyph glyph-name="aogonek" unicode="&#x105;" horiz-adv-x="560" 
d="M608 -133l16 -27q-28 -25 -83 -25q-58 0 -95 31.5t-37 80.5q0 53 40 85l-6 49q-59 -71 -181 -71q-92 0 -147 45t-55 111t55 112.5t147 46.5q118 0 178 -68v53q0 96 -45.5 143.5t-124.5 47.5q-46 0 -85 -14t-55 -28l-15 -14l-25 26q7 7 20 18t60 29t101 18
q100 0 154.5 -58t54.5 -167v-291h-5q-29 -18 -29 -67q0 -37 27.5 -60t68.5 -23q18 0 34.5 4t23.5 8zM267 27q85 0 131.5 34t46.5 86t-46.5 86.5t-131.5 34.5q-77 0 -122 -35t-45 -86t45 -85.5t122 -34.5z" />
    <glyph glyph-name="Cacute" unicode="&#x106;" horiz-adv-x="720" 
d="M402 760l85 160h45l-95 -160h-35zM419 -10q-151 0 -255 104t-104 255t105 256t256 105q45 0 87.5 -10.5t71 -25.5t50.5 -30t32 -26l11 -10l-26 -25q-3 4 -10 10t-29 21.5t-46.5 27.5t-63 21.5t-78.5 9.5q-135 0 -227.5 -93t-92.5 -230t92.5 -230t227.5 -93q42 0 81.5 10
t66 24.5t47 29.5t30.5 24.5t10 10.5l25 -25q-4 -5 -11 -12t-32.5 -26.5t-53.5 -34t-72.5 -26.5t-91.5 -12z" />
    <glyph glyph-name="cacute" unicode="&#x107;" horiz-adv-x="550" 
d="M296 580l85 160h45l-95 -160h-35zM312 -10q-111 0 -186.5 75.5t-75.5 186.5t76.5 187.5t187.5 76.5q35 0 67.5 -8.5t54 -20t37.5 -23.5t23 -20l8 -9l-25 -26q-7 8 -19.5 19.5t-55.5 31t-91 19.5q-95 0 -159 -64.5t-64 -161.5t64 -161.5t159 -64.5q51 0 93.5 19t59.5 38
l17 19l27 -23q-3 -4 -8 -10t-23 -21.5t-39 -27.5t-55.5 -21.5t-72.5 -9.5z" />
    <glyph glyph-name="Ccircumflex" unicode="&#x108;" horiz-adv-x="720" 
d="M245 760l155 160h40l155 -160h-42l-135 127l-133 -127h-40zM419 -10q-151 0 -255 104t-104 255t105 256t256 105q45 0 87.5 -10.5t71 -25.5t50.5 -30t32 -26l11 -10l-26 -25q-3 4 -10 10t-29 21.5t-46.5 27.5t-63 21.5t-78.5 9.5q-135 0 -227.5 -93t-92.5 -230t92.5 -230
t227.5 -93q42 0 81.5 10t66 24.5t47 29.5t30.5 24.5t10 10.5l25 -25q-4 -5 -11 -12t-32.5 -26.5t-53.5 -34t-72.5 -26.5t-91.5 -12z" />
    <glyph glyph-name="ccircumflex" unicode="&#x109;" horiz-adv-x="550" 
d="M139 580l155 160h40l155 -160h-42l-135 127l-133 -127h-40zM312 -10q-111 0 -186.5 75.5t-75.5 186.5t76.5 187.5t187.5 76.5q35 0 67.5 -8.5t54 -20t37.5 -23.5t23 -20l8 -9l-25 -26q-7 8 -19.5 19.5t-55.5 31t-91 19.5q-95 0 -159 -64.5t-64 -161.5t64 -161.5
t159 -64.5q51 0 93.5 19t59.5 38l17 19l27 -23q-3 -4 -8 -10t-23 -21.5t-39 -27.5t-55.5 -21.5t-72.5 -9.5z" />
    <glyph glyph-name="Cdotaccent" unicode="&#x10a;" horiz-adv-x="720" 
d="M420 800q-14 0 -24.5 10.5t-10.5 24.5t10.5 24.5t24.5 10.5t24.5 -10.5t10.5 -24.5t-10.5 -24.5t-24.5 -10.5zM419 -10q-151 0 -255 104t-104 255t105 256t256 105q45 0 87.5 -10.5t71 -25.5t50.5 -30t32 -26l11 -10l-26 -25q-3 4 -10 10t-29 21.5t-46.5 27.5t-63 21.5
t-78.5 9.5q-135 0 -227.5 -93t-92.5 -230t92.5 -230t227.5 -93q42 0 81.5 10t66 24.5t47 29.5t30.5 24.5t10 10.5l25 -25q-4 -5 -11 -12t-32.5 -26.5t-53.5 -34t-72.5 -26.5t-91.5 -12z" />
    <glyph glyph-name="cdotaccent" unicode="&#x10b;" horiz-adv-x="550" 
d="M314 620q-14 0 -24.5 10.5t-10.5 24.5t10.5 24.5t24.5 10.5t24.5 -10.5t10.5 -24.5t-10.5 -24.5t-24.5 -10.5zM312 -10q-111 0 -186.5 75.5t-75.5 186.5t76.5 187.5t187.5 76.5q35 0 67.5 -8.5t54 -20t37.5 -23.5t23 -20l8 -9l-25 -26q-7 8 -19.5 19.5t-55.5 31t-91 19.5
q-95 0 -159 -64.5t-64 -161.5t64 -161.5t159 -64.5q51 0 93.5 19t59.5 38l17 19l27 -23q-3 -4 -8 -10t-23 -21.5t-39 -27.5t-55.5 -21.5t-72.5 -9.5z" />
    <glyph glyph-name="Ccaron" unicode="&#x10c;" horiz-adv-x="720" 
d="M400 760l-155 160h42l134 -127l134 127h40l-155 -160h-40zM419 -10q-151 0 -255 104t-104 255t105 256t256 105q45 0 87.5 -10.5t71 -25.5t50.5 -30t32 -26l11 -10l-26 -25q-3 4 -10 10t-29 21.5t-46.5 27.5t-63 21.5t-78.5 9.5q-135 0 -227.5 -93t-92.5 -230t92.5 -230
t227.5 -93q42 0 81.5 10t66 24.5t47 29.5t30.5 24.5t10 10.5l25 -25q-4 -5 -11 -12t-32.5 -26.5t-53.5 -34t-72.5 -26.5t-91.5 -12z" />
    <glyph glyph-name="ccaron" unicode="&#x10d;" horiz-adv-x="550" 
d="M294 580l-155 160h42l134 -127l134 127h40l-155 -160h-40zM312 -10q-111 0 -186.5 75.5t-75.5 186.5t76.5 187.5t187.5 76.5q35 0 67.5 -8.5t54 -20t37.5 -23.5t23 -20l8 -9l-25 -26q-7 8 -19.5 19.5t-55.5 31t-91 19.5q-95 0 -159 -64.5t-64 -161.5t64 -161.5t159 -64.5
q51 0 93.5 19t59.5 38l17 19l27 -23q-3 -4 -8 -10t-23 -21.5t-39 -27.5t-55.5 -21.5t-72.5 -9.5z" />
    <glyph glyph-name="Dcaron" unicode="&#x10e;" horiz-adv-x="760" 
d="M360 760l-155 160h42l134 -127l134 127h40l-155 -160h-40zM110 0v700h211q166 0 272.5 -99.5t106.5 -249.5t-107.5 -250.5t-273.5 -100.5h-209zM150 35h175q145 0 240 90.5t95 224.5t-95 224.5t-240 90.5h-175v-630z" />
    <glyph glyph-name="dcaron" unicode="&#x10f;" horiz-adv-x="745" 
d="M306 -10q-107 0 -181.5 75.5t-74.5 186.5t75.5 187.5t182.5 76.5q71 0 130 -34t92 -93v311h40v-700h-33l-7 119q-34 -60 -93 -94.5t-131 -34.5zM660 480l40 220h45l-55 -220h-30zM312 27q95 0 159 64.5t64 161.5t-64 161.5t-159 64.5t-158.5 -64.5t-63.5 -161.5
t63.5 -161.5t158.5 -64.5z" />
    <glyph glyph-name="Dcroat" unicode="&#x110;" horiz-adv-x="790" 
d="M351 700q166 0 272.5 -99.5t106.5 -249.5t-107.5 -250.5t-273.5 -100.5h-209v346h-110v33h110v321h211zM355 35q145 0 240 90.5t95 224.5t-95 224.5t-240 90.5h-175v-286h260v-33h-260v-311h175z" />
    <glyph glyph-name="dcroat" unicode="&#x111;" horiz-adv-x="670" 
d="M650 624v-33h-80v-591h-33l-7 119q-34 -60 -93 -94.5t-131 -34.5q-107 0 -181.5 75.5t-74.5 186.5t75.5 187.5t182.5 76.5q71 0 130 -34t92 -93v202h-185v33h185v76h40v-76h80zM312 27q95 0 159 64.5t64 161.5t-64 161.5t-159 64.5t-158.5 -64.5t-63.5 -161.5
t63.5 -161.5t158.5 -64.5z" />
    <glyph glyph-name="Emacron" unicode="&#x112;" horiz-adv-x="650" 
d="M165 824v33h360v-33h-360zM110 0v700h470v-35h-430v-281h380v-33h-380v-316h440v-35h-480z" />
    <glyph glyph-name="emacron" unicode="&#x113;" horiz-adv-x="606" 
d="M134 644v33h360v-33h-360zM312 -10q-111 0 -186.5 75.5t-75.5 186.5t76.5 187.5t187.5 76.5q99 0 170.5 -73.5t71.5 -178.5v-4h-466q0 -103 63.5 -168t159.5 -65q39 0 73 11.5t55.5 27.5t37.5 32t23 28l7 11l29 -17q-3 -5 -8 -14t-25.5 -31.5t-44 -39.5t-63.5 -31
t-85 -14zM93 295h421q-11 79 -68.5 131.5t-132.5 52.5q-83 0 -144.5 -51.5t-75.5 -132.5z" />
    <glyph glyph-name="Ebreve" unicode="&#x114;" horiz-adv-x="650" 
d="M345 760q-67 0 -111.5 44.5t-44.5 110.5v5h38v-5q0 -53 33 -86.5t86 -33.5t85 33t32 87v5h38v-5q0 -66 -44.5 -110.5t-111.5 -44.5zM110 0v700h470v-35h-430v-281h380v-33h-380v-316h440v-35h-480z" />
    <glyph glyph-name="ebreve" unicode="&#x115;" horiz-adv-x="606" 
d="M314 580q-67 0 -111.5 44.5t-44.5 110.5v5h38v-5q0 -53 33 -86.5t86 -33.5t85 33t32 87v5h38v-5q0 -66 -44.5 -110.5t-111.5 -44.5zM312 -10q-111 0 -186.5 75.5t-75.5 186.5t76.5 187.5t187.5 76.5q99 0 170.5 -73.5t71.5 -178.5v-4h-466q0 -103 63.5 -168t159.5 -65
q39 0 73 11.5t55.5 27.5t37.5 32t23 28l7 11l29 -17q-3 -5 -8 -14t-25.5 -31.5t-44 -39.5t-63.5 -31t-85 -14zM93 295h421q-11 79 -68.5 131.5t-132.5 52.5q-83 0 -144.5 -51.5t-75.5 -132.5z" />
    <glyph glyph-name="Edotaccent" unicode="&#x116;" horiz-adv-x="650" 
d="M345 800q-14 0 -24.5 10.5t-10.5 24.5t10.5 24.5t24.5 10.5t24.5 -10.5t10.5 -24.5t-10.5 -24.5t-24.5 -10.5zM110 0v700h470v-35h-430v-281h380v-33h-380v-316h440v-35h-480z" />
    <glyph glyph-name="edotaccent" unicode="&#x117;" horiz-adv-x="606" 
d="M314 620q-14 0 -24.5 10.5t-10.5 24.5t10.5 24.5t24.5 10.5t24.5 -10.5t10.5 -24.5t-10.5 -24.5t-24.5 -10.5zM312 -10q-111 0 -186.5 75.5t-75.5 186.5t76.5 187.5t187.5 76.5q99 0 170.5 -73.5t71.5 -178.5v-4h-466q0 -103 63.5 -168t159.5 -65q39 0 73 11.5t55.5 27.5
t37.5 32t23 28l7 11l29 -17q-3 -5 -8 -14t-25.5 -31.5t-44 -39.5t-63.5 -31t-85 -14zM93 295h421q-11 79 -68.5 131.5t-132.5 52.5q-83 0 -144.5 -51.5t-75.5 -132.5z" />
    <glyph glyph-name="Eogonek" unicode="&#x118;" horiz-adv-x="650" 
d="M599 -133l16 -27q-28 -25 -83 -25q-58 0 -95 31.5t-37 80.5q0 42 27 73h-317v700h470v-35h-430v-281h380v-33h-380v-316h440v-35h-124q-29 -18 -29 -67q0 -37 27.5 -60t68.5 -23q18 0 34.5 4t24.5 8z" />
    <glyph glyph-name="eogonek" unicode="&#x119;" horiz-adv-x="606" 
d="M556 264v-4h-466q0 -103 63.5 -168t159.5 -65q39 0 73 11.5t55.5 27.5t37.5 32t23 28l7 11l29 -17q-2 -4 -6 -10.5t-18 -24t-31 -32.5t-45.5 -31t-59.5 -24q-26 -22 -26 -65q0 -37 27.5 -60t68.5 -23q18 0 34.5 4t23.5 8l8 5l16 -27q-28 -25 -83 -25q-58 0 -95 31.5
t-37 80.5q0 37 20 64q-7 -1 -23 -1q-111 0 -186.5 75.5t-75.5 186.5t76.5 187.5t187.5 76.5q99 0 170.5 -73.5t71.5 -178.5zM93 295h421q-11 79 -68.5 131.5t-132.5 52.5q-83 0 -144.5 -51.5t-75.5 -132.5z" />
    <glyph glyph-name="Ecaron" unicode="&#x11a;" horiz-adv-x="650" 
d="M325 760l-155 160h42l134 -127l134 127h40l-155 -160h-40zM110 0v700h470v-35h-430v-281h380v-33h-380v-316h440v-35h-480z" />
    <glyph glyph-name="ecaron" unicode="&#x11b;" horiz-adv-x="606" 
d="M294 580l-155 160h42l134 -127l134 127h40l-155 -160h-40zM312 -10q-111 0 -186.5 75.5t-75.5 186.5t76.5 187.5t187.5 76.5q99 0 170.5 -73.5t71.5 -178.5v-4h-466q0 -103 63.5 -168t159.5 -65q39 0 73 11.5t55.5 27.5t37.5 32t23 28l7 11l29 -17q-3 -5 -8 -14
t-25.5 -31.5t-44 -39.5t-63.5 -31t-85 -14zM93 295h421q-11 79 -68.5 131.5t-132.5 52.5q-83 0 -144.5 -51.5t-75.5 -132.5z" />
    <glyph glyph-name="Gcircumflex" unicode="&#x11c;" horiz-adv-x="815" 
d="M243 760l155 160h40l155 -160h-42l-135 127l-133 -127h-40zM419 -10q-151 0 -255 104t-104 255t105 256t256 105q45 0 87.5 -10t70.5 -25t50 -29.5t32 -24.5l10 -10l-27 -27q-3 4 -9.5 10t-28 21t-45.5 27t-62.5 21.5t-78.5 9.5q-135 0 -227.5 -93t-92.5 -230t92.5 -230
t227.5 -93q114 0 199 76.5t99 196.5h-298v35h340v-1q-2 -147 -102 -245.5t-239 -98.5z" />
    <glyph glyph-name="gcircumflex" unicode="&#x11d;" horiz-adv-x="660" 
d="M155 580l155 160h40l155 -160h-42l-135 127l-133 -127h-40zM85 -69q9 -7 26 -17.5t72 -28.5t112 -18q114 0 174.5 64t60.5 179v39q-34 -55 -93 -87t-131 -32q-107 0 -181.5 70t-74.5 172t75.5 173t182.5 71q72 0 130.5 -31.5t91.5 -86.5l7 108h33v-390q0 -131 -73 -208.5
t-203 -77.5q-62 0 -119.5 17.5t-83.5 34.5l-26 18zM535 273q0 88 -64 147t-159 59t-158.5 -59t-63.5 -147t63.5 -147t158.5 -59t159 59t64 147z" />
    <glyph glyph-name="Gbreve" unicode="&#x11e;" horiz-adv-x="815" 
d="M418 760q-67 0 -111.5 44.5t-44.5 110.5v5h38v-5q0 -53 33 -86.5t86 -33.5t85 33t32 87v5h38v-5q0 -66 -44.5 -110.5t-111.5 -44.5zM419 -10q-151 0 -255 104t-104 255t105 256t256 105q45 0 87.5 -10t70.5 -25t50 -29.5t32 -24.5l10 -10l-27 -27q-3 4 -9.5 10t-28 21
t-45.5 27t-62.5 21.5t-78.5 9.5q-135 0 -227.5 -93t-92.5 -230t92.5 -230t227.5 -93q114 0 199 76.5t99 196.5h-298v35h340v-1q-2 -147 -102 -245.5t-239 -98.5z" />
    <glyph glyph-name="gbreve" unicode="&#x11f;" horiz-adv-x="660" 
d="M330 580q-67 0 -111.5 44.5t-44.5 110.5v5h38v-5q0 -53 33 -86.5t86 -33.5t85 33t32 87v5h38v-5q0 -66 -44.5 -110.5t-111.5 -44.5zM85 -69q9 -7 26 -17.5t72 -28.5t112 -18q114 0 174.5 64t60.5 179v39q-34 -55 -93 -87t-131 -32q-107 0 -181.5 70t-74.5 172t75.5 173
t182.5 71q72 0 130.5 -31.5t91.5 -86.5l7 108h33v-390q0 -131 -73 -208.5t-203 -77.5q-62 0 -119.5 17.5t-83.5 34.5l-26 18zM535 273q0 88 -64 147t-159 59t-158.5 -59t-63.5 -147t63.5 -147t158.5 -59t159 59t64 147z" />
    <glyph glyph-name="Gdotaccent" unicode="&#x120;" horiz-adv-x="815" 
d="M418 800q-14 0 -24.5 10.5t-10.5 24.5t10.5 24.5t24.5 10.5t24.5 -10.5t10.5 -24.5t-10.5 -24.5t-24.5 -10.5zM419 -10q-151 0 -255 104t-104 255t105 256t256 105q45 0 87.5 -10t70.5 -25t50 -29.5t32 -24.5l10 -10l-27 -27q-3 4 -9.5 10t-28 21t-45.5 27t-62.5 21.5
t-78.5 9.5q-135 0 -227.5 -93t-92.5 -230t92.5 -230t227.5 -93q114 0 199 76.5t99 196.5h-298v35h340v-1q-2 -147 -102 -245.5t-239 -98.5z" />
    <glyph glyph-name="gdotaccent" unicode="&#x121;" horiz-adv-x="660" 
d="M330 620q-14 0 -24.5 10.5t-10.5 24.5t10.5 24.5t24.5 10.5t24.5 -10.5t10.5 -24.5t-10.5 -24.5t-24.5 -10.5zM85 -69q9 -7 26 -17.5t72 -28.5t112 -18q114 0 174.5 64t60.5 179v39q-34 -55 -93 -87t-131 -32q-107 0 -181.5 70t-74.5 172t75.5 173t182.5 71
q72 0 130.5 -31.5t91.5 -86.5l7 108h33v-390q0 -131 -73 -208.5t-203 -77.5q-62 0 -119.5 17.5t-83.5 34.5l-26 18zM535 273q0 88 -64 147t-159 59t-158.5 -59t-63.5 -147t63.5 -147t158.5 -59t159 59t64 147z" />
    <glyph glyph-name="uni0122" unicode="&#x122;" horiz-adv-x="815" 
d="M419 -10q-151 0 -255 104t-104 255t105 256t256 105q45 0 87.5 -10t70.5 -25t50 -29.5t32 -24.5l10 -10l-27 -27q-3 4 -9.5 10t-28 21t-45.5 27t-62.5 21.5t-78.5 9.5q-135 0 -227.5 -93t-92.5 -230t92.5 -230t227.5 -93q114 0 199 76.5t99 196.5h-298v35h340v-1
q-2 -147 -102 -245.5t-239 -98.5zM310 -210l85 160h45l-95 -160h-35z" />
    <glyph glyph-name="uni0123" unicode="&#x123;" horiz-adv-x="660" 
d="M438 716l-85 -160h-45l95 160h35zM85 -69q9 -7 26 -17.5t72 -28.5t112 -18q114 0 174.5 64t60.5 179v39q-34 -55 -93 -87t-131 -32q-107 0 -181.5 70t-74.5 172t75.5 173t182.5 71q72 0 130.5 -31.5t91.5 -86.5l7 108h33v-390q0 -131 -73 -208.5t-203 -77.5
q-62 0 -119.5 17.5t-83.5 34.5l-26 18zM535 273q0 88 -64 147t-159 59t-158.5 -59t-63.5 -147t63.5 -147t158.5 -59t159 59t64 147z" />
    <glyph glyph-name="Hcircumflex" unicode="&#x124;" horiz-adv-x="770" 
d="M210 760l155 160h40l155 -160h-42l-135 127l-133 -127h-40zM110 0v700h40v-310h470v310h40v-700h-40v355h-470v-355h-40z" />
    <glyph glyph-name="hcircumflex" unicode="&#x125;" horiz-adv-x="610" 
d="M130 760l155 160h40l155 -160h-42l-135 127l-133 -127h-40zM90 0v700h40v-302q57 118 198 118q86 0 144 -61.5t58 -180.5v-274h-40v261q0 110 -48 164t-120 54q-83 0 -137.5 -55t-54.5 -170v-254h-40z" />
    <glyph glyph-name="Hbar" unicode="&#x126;" horiz-adv-x="830" 
d="M800 559v-33h-110v-526h-40v355h-470v-355h-40v526h-110v33h110v141h40v-141h470v141h40v-141h110zM650 390v136h-470v-136h470z" />
    <glyph glyph-name="hbar" unicode="&#x127;" horiz-adv-x="620" 
d="M338 516q86 0 144 -61.5t58 -180.5v-274h-40v261q0 110 -48 164t-120 54q-83 0 -137.5 -55t-54.5 -170v-254h-40v591h-80v33h80v76h40v-76h185v-33h-185v-193q57 118 198 118z" />
    <glyph glyph-name="Itilde" unicode="&#x128;" horiz-adv-x="272" 
d="M213 770q-28 0 -51 15t-36.5 33.5t-32.5 33.5t-39 15t-32.5 -19.5t-15.5 -39.5l-2 -19l-37 4q0 4 1 11.5t6 26t14 32.5t27 25.5t42 11.5q29 0 52.5 -15t36 -33.5t31.5 -33.5t39 -15q21 0 33.5 19.5t14.5 39.5l3 20l37 -4q0 -4 -1 -11.5t-6.5 -26t-14 -33t-27 -26
t-42.5 -11.5zM115 700h42v-700h-42v700z" />
    <glyph glyph-name="itilde" unicode="&#x129;" horiz-adv-x="232" 
d="M193 590q-28 0 -51 15t-36.5 33.5t-32.5 33.5t-39 15t-32.5 -19.5t-15.5 -39.5l-2 -19l-37 4q0 4 1 11.5t6 26t14 32.5t27 25.5t42 11.5q29 0 52.5 -15t36 -33.5t31.5 -33.5t39 -15q21 0 33.5 19.5t14.5 39.5l3 20l37 -4q0 -4 -1 -11.5t-6.5 -26t-14 -33t-27 -26
t-42.5 -11.5zM95 506h42v-506h-42v506z" />
    <glyph glyph-name="Imacron" unicode="&#x12a;" horiz-adv-x="272" 
d="M-44 824v33h360v-33h-360zM115 700h42v-700h-42v700z" />
    <glyph glyph-name="imacron" unicode="&#x12b;" horiz-adv-x="232" 
d="M-64 644v33h360v-33h-360zM95 506h42v-506h-42v506z" />
    <glyph glyph-name="Ibreve" unicode="&#x12c;" horiz-adv-x="272" 
d="M136 760q-67 0 -111.5 44.5t-44.5 110.5v5h38v-5q0 -53 33 -86.5t86 -33.5t85 33t32 87v5h38v-5q0 -66 -44.5 -110.5t-111.5 -44.5zM115 700h42v-700h-42v700z" />
    <glyph glyph-name="ibreve" unicode="&#x12d;" horiz-adv-x="232" 
d="M116 580q-67 0 -111.5 44.5t-44.5 110.5v5h38v-5q0 -53 33 -86.5t86 -33.5t85 33t32 87v5h38v-5q0 -66 -44.5 -110.5t-111.5 -44.5zM95 506h42v-506h-42v506z" />
    <glyph glyph-name="Iogonek" unicode="&#x12e;" horiz-adv-x="272" 
d="M286 -133l16 -27q-28 -25 -83 -25q-58 0 -95 31.5t-37 80.5q0 42 28 74v699h42v-700h-4q-29 -18 -29 -67q0 -37 27.5 -60t68.5 -23q18 0 34.5 4t23.5 8z" />
    <glyph glyph-name="iogonek" unicode="&#x12f;" horiz-adv-x="232" 
d="M116 620q-14 0 -24.5 10.5t-10.5 24.5t10.5 24.5t24.5 10.5t24.5 -10.5t10.5 -24.5t-10.5 -24.5t-24.5 -10.5zM249 -133l16 -27q-28 -25 -83 -25q-58 0 -95 31.5t-37 80.5q0 55 45 90v489h42v-506h-21q-29 -18 -29 -67q0 -37 27.5 -60t68.5 -23q18 0 34.5 4t24.5 8z" />
    <glyph glyph-name="Idotaccent" unicode="&#x130;" horiz-adv-x="272" 
d="M136 800q-14 0 -24.5 10.5t-10.5 24.5t10.5 24.5t24.5 10.5t24.5 -10.5t10.5 -24.5t-10.5 -24.5t-24.5 -10.5zM115 700h42v-700h-42v700z" />
    <glyph glyph-name="dotlessi" unicode="&#x131;" horiz-adv-x="232" 
d="M95 506h42v-506h-42v506z" />
    <glyph glyph-name="IJ" unicode="&#x132;" horiz-adv-x="717" 
d="M115 700h42v-700h-42v700zM396 -10q-33 0 -59 6t-35 12l-10 6l15 33q28 -20 90 -20q77 0 128 52t51 146v475h41v-474q0 -109 -63.5 -172.5t-157.5 -63.5z" />
    <glyph glyph-name="ij" unicode="&#x133;" horiz-adv-x="464" 
d="M81 655q0 14 10.5 24.5t24.5 10.5t24.5 -10.5t10.5 -24.5t-10.5 -24.5t-24.5 -10.5t-24.5 10.5t-10.5 24.5zM313 655q0 14 10.5 24.5t24.5 10.5t24.5 -10.5t10.5 -24.5t-10.5 -24.5t-24.5 -10.5t-24.5 10.5t-10.5 24.5zM95 506h42v-506h-42v506zM369 506v-525
q0 -73 -38 -112t-100 -39q-16 0 -32 4t-24 8l-8 3l12 32q25 -10 53 -10q95 0 95 108v531h42z" />
    <glyph glyph-name="Jcircumflex" unicode="&#x134;" horiz-adv-x="445" 
d="M150 760l155 160h40l155 -160h-42l-135 127l-133 -127h-40zM124 -10q-33 0 -59 6t-35 12l-10 6l15 33q28 -20 90 -20q77 0 128 52t51 146v475h41v-474q0 -109 -63.5 -172.5t-157.5 -63.5z" />
    <glyph glyph-name="jcircumflex" unicode="&#x135;" horiz-adv-x="232" 
d="M-59 580l155 160h40l155 -160h-42l-135 127l-133 -127h-40zM137 506v-525q0 -73 -38 -112t-100 -39q-16 0 -32 4t-24 8l-8 3l12 32q25 -10 53 -10q95 0 95 108v531h42z" />
    <glyph glyph-name="uni0136" unicode="&#x136;" horiz-adv-x="645" 
d="M110 0v700h40v-336l411 336h64l-422 -339l442 -361h-64l-431 356v-356h-40zM257 -210l85 160h45l-95 -160h-35z" />
    <glyph glyph-name="uni0137" unicode="&#x137;" horiz-adv-x="530" 
d="M90 0v700h40v-424l313 230h67l-326 -233l346 -273h-66l-334 269v-269h-40zM189 -210l85 160h45l-95 -160h-35z" />
    <glyph glyph-name="Lacute" unicode="&#x139;" horiz-adv-x="590" 
d="M112 760l85 160h45l-95 -160h-35zM110 0v700h40v-665h410v-35h-450z" />
    <glyph glyph-name="lacute" unicode="&#x13a;" horiz-adv-x="232" 
d="M98 760l85 160h45l-95 -160h-35zM95 700h42v-700h-42v700z" />
    <glyph glyph-name="uni013B" unicode="&#x13b;" horiz-adv-x="590" 
d="M110 0v700h40v-665h410v-35h-450zM227 -210l85 160h45l-95 -160h-35z" />
    <glyph glyph-name="uni013C" unicode="&#x13c;" horiz-adv-x="232" 
d="M95 700h42v-700h-42v700zM8 -210l85 160h45l-95 -160h-35z" />
    <glyph glyph-name="Lcaron" unicode="&#x13d;" horiz-adv-x="590" 
d="M110 0v700h40v-665h410v-35h-450zM397 480l40 220h45l-55 -220h-30z" />
    <glyph glyph-name="lcaron" unicode="&#x13e;" horiz-adv-x="312" 
d="M95 700h42v-700h-42v700zM227 480l40 220h45l-55 -220h-30z" />
    <glyph glyph-name="Ldot" unicode="&#x13f;" horiz-adv-x="590" 
d="M110 0v700h40v-665h410v-35h-450zM374 315q-14 0 -24.5 10.5t-10.5 24.5t10.5 24.5t24.5 10.5t24.5 -10.5t10.5 -24.5t-10.5 -24.5t-24.5 -10.5z" />
    <glyph glyph-name="ldot" unicode="&#x140;" horiz-adv-x="337" 
d="M95 700h42v-700h-42v700zM272 315q-14 0 -24.5 10.5t-10.5 24.5t10.5 24.5t24.5 10.5t24.5 -10.5t10.5 -24.5t-10.5 -24.5t-24.5 -10.5z" />
    <glyph glyph-name="Lslash" unicode="&#x141;" horiz-adv-x="620" 
d="M180 35h410v-35h-450v336l-110 -21v35l110 21v329h40v-321l290 56v-35l-290 -56v-309z" />
    <glyph glyph-name="lslash" unicode="&#x142;" horiz-adv-x="302" 
d="M272 415v-35l-105 -24v-356h-42v347l-95 -22v35l95 22v318h42v-309z" />
    <glyph glyph-name="Nacute" unicode="&#x143;" horiz-adv-x="790" 
d="M377 760l85 160h45l-95 -160h-35zM150 644v-644h-40v700h45l485 -638v638h40v-700h-40z" />
    <glyph glyph-name="nacute" unicode="&#x144;" horiz-adv-x="610" 
d="M287 580l85 160h45l-95 -160h-35zM130 0h-40v506h35l5 -108q57 118 198 118q86 0 144 -61.5t58 -180.5v-274h-40v261q0 110 -48 164t-120 54q-84 0 -138 -58t-54 -180v-241z" />
    <glyph glyph-name="uni0145" unicode="&#x145;" horiz-adv-x="790" 
d="M150 644v-644h-40v700h45l485 -638v638h40v-700h-40zM287 -210l85 160h45l-95 -160h-35z" />
    <glyph glyph-name="uni0146" unicode="&#x146;" horiz-adv-x="610" 
d="M130 0h-40v506h35l5 -108q57 118 198 118q86 0 144 -61.5t58 -180.5v-274h-40v261q0 110 -48 164t-120 54q-84 0 -138 -58t-54 -180v-241zM197 -210l85 160h45l-95 -160h-35z" />
    <glyph glyph-name="Ncaron" unicode="&#x147;" horiz-adv-x="790" 
d="M375 760l-155 160h42l134 -127l134 127h40l-155 -160h-40zM150 644v-644h-40v700h45l485 -638v638h40v-700h-40z" />
    <glyph glyph-name="ncaron" unicode="&#x148;" horiz-adv-x="610" 
d="M285 580l-155 160h42l134 -127l134 127h40l-155 -160h-40zM130 0h-40v506h35l5 -108q57 118 198 118q86 0 144 -61.5t58 -180.5v-274h-40v261q0 110 -48 164t-120 54q-84 0 -138 -58t-54 -180v-241z" />
    <glyph glyph-name="Eng" unicode="&#x14a;" horiz-adv-x="790" 
d="M640 62v638h40v-684q0 -91 -47.5 -138.5t-123.5 -47.5q-26 0 -47 5t-29 9l-8 5l15 33q25 -15 70 -15q54 0 89.5 34t39.5 100l-489 643v-644h-40v700h45z" />
    <glyph glyph-name="eng" unicode="&#x14b;" horiz-adv-x="610" 
d="M394 -170q-16 0 -32 4t-24 8l-8 3l12 32q25 -10 53 -10q95 0 95 108v286q0 110 -48 164t-120 54q-84 0 -138 -58t-54 -180v-241h-40v506h35l5 -108q57 118 198 118q86 0 144 -61.5t58 -180.5v-293q0 -73 -37.5 -112t-98.5 -39z" />
    <glyph glyph-name="Omacron" unicode="&#x14c;" horiz-adv-x="840" 
d="M240 824v33h360v-33h-360zM60 349q0 151 105 256t256 105t255 -104t104 -255t-105 -256t-256 -105t-255 104t-104 255zM100 350q0 -137 92.5 -230t227.5 -93t227.5 93t92.5 230t-92.5 230t-227.5 93t-227.5 -93t-92.5 -230z" />
    <glyph glyph-name="omacron" unicode="&#x14d;" horiz-adv-x="626" 
d="M133 644v33h360v-33h-360zM50 252q0 111 76.5 187.5t187.5 76.5t186.5 -75.5t75.5 -186.5t-76.5 -187.5t-187.5 -76.5t-186.5 75.5t-75.5 186.5zM90 253q0 -97 64 -161.5t159 -64.5t159 64.5t64 161.5t-64 161.5t-159 64.5t-159 -64.5t-64 -161.5z" />
    <glyph glyph-name="Obreve" unicode="&#x14e;" horiz-adv-x="840" 
d="M420 760q-67 0 -111.5 44.5t-44.5 110.5v5h38v-5q0 -53 33 -86.5t86 -33.5t85 33t32 87v5h38v-5q0 -66 -44.5 -110.5t-111.5 -44.5zM60 349q0 151 105 256t256 105t255 -104t104 -255t-105 -256t-256 -105t-255 104t-104 255zM100 350q0 -137 92.5 -230t227.5 -93
t227.5 93t92.5 230t-92.5 230t-227.5 93t-227.5 -93t-92.5 -230z" />
    <glyph glyph-name="obreve" unicode="&#x14f;" horiz-adv-x="626" 
d="M313 580q-67 0 -111.5 44.5t-44.5 110.5v5h38v-5q0 -53 33 -86.5t86 -33.5t85 33t32 87v5h38v-5q0 -66 -44.5 -110.5t-111.5 -44.5zM50 252q0 111 76.5 187.5t187.5 76.5t186.5 -75.5t75.5 -186.5t-76.5 -187.5t-187.5 -76.5t-186.5 75.5t-75.5 186.5zM90 253
q0 -97 64 -161.5t159 -64.5t159 64.5t64 161.5t-64 161.5t-159 64.5t-159 -64.5t-64 -161.5z" />
    <glyph glyph-name="Ohungarumlaut" unicode="&#x150;" horiz-adv-x="840" 
d="M317 760l65 160h45l-75 -160h-35zM487 760l65 160h45l-75 -160h-35zM60 349q0 151 105 256t256 105t255 -104t104 -255t-105 -256t-256 -105t-255 104t-104 255zM100 350q0 -137 92.5 -230t227.5 -93t227.5 93t92.5 230t-92.5 230t-227.5 93t-227.5 -93t-92.5 -230z" />
    <glyph glyph-name="ohungarumlaut" unicode="&#x151;" horiz-adv-x="626" 
d="M210 580l65 160h45l-75 -160h-35zM380 580l65 160h45l-75 -160h-35zM50 252q0 111 76.5 187.5t187.5 76.5t186.5 -75.5t75.5 -186.5t-76.5 -187.5t-187.5 -76.5t-186.5 75.5t-75.5 186.5zM90 253q0 -97 64 -161.5t159 -64.5t159 64.5t64 161.5t-64 161.5t-159 64.5
t-159 -64.5t-64 -161.5z" />
    <glyph glyph-name="OE" unicode="&#x152;" horiz-adv-x="1130" 
d="M439 0q-166 0 -272.5 99.5t-106.5 249.5t107.5 250.5t273.5 100.5h619v-35h-430v-281h380v-33h-380v-316h440v-35h-631zM435 35h155v630h-155q-145 0 -240 -90.5t-95 -224.5t95 -224.5t240 -90.5z" />
    <glyph glyph-name="oe" unicode="&#x153;" horiz-adv-x="1092" 
d="M312 -10q-111 0 -186.5 75.5t-75.5 186.5t76.5 187.5t187.5 76.5q86 0 151 -47t91 -125q28 77 93.5 124.5t150.5 47.5q99 0 170.5 -73.5t71.5 -178.5v-4h-466q0 -103 63.5 -168t159.5 -65q39 0 73 11.5t55.5 27.5t37.5 32t23 28l7 11l29 -17q-3 -5 -8 -14t-25.5 -31.5
t-44 -39.5t-63.5 -31t-85 -14q-86 0 -151.5 47.5t-91.5 124.5q-27 -78 -92.5 -125t-150.5 -47zM313 27q95 0 159 64.5t64 161.5t-64 161.5t-159 64.5t-159 -64.5t-64 -161.5t64 -161.5t159 -64.5zM579 295h421q-11 78 -68 131t-133 53q-84 0 -145 -52t-75 -132z" />
    <glyph glyph-name="Racute" unicode="&#x154;" horiz-adv-x="690" 
d="M327 760l85 160h45l-95 -160h-35zM110 700h281q99 0 161.5 -58t62.5 -146q0 -79 -52 -135.5t-136 -68.5l218 -292h-50l-217 290h-228v-290h-40v700zM150 665v-340h235q85 0 137.5 48t52.5 122t-52.5 122t-137.5 48h-235z" />
    <glyph glyph-name="racute" unicode="&#x155;" horiz-adv-x="373" 
d="M199 580l85 160h45l-95 -160h-35zM90 0v506h35l5 -122q58 132 218 132l-1 -39h-5q-100 0 -156 -61.5t-56 -184.5v-231h-40z" />
    <glyph glyph-name="uni0156" unicode="&#x156;" horiz-adv-x="690" 
d="M110 700h281q99 0 161.5 -58t62.5 -146q0 -79 -52 -135.5t-136 -68.5l218 -292h-50l-217 290h-228v-290h-40v700zM150 665v-340h235q85 0 137.5 48t52.5 122t-52.5 122t-137.5 48h-235zM237 -210l85 160h45l-95 -160h-35z" />
    <glyph glyph-name="uni0157" unicode="&#x157;" horiz-adv-x="373" 
d="M90 0v506h35l5 -122q58 132 218 132l-1 -39h-5q-100 0 -156 -61.5t-56 -184.5v-231h-40zM2 -210l85 160h45l-95 -160h-35z" />
    <glyph glyph-name="Rcaron" unicode="&#x158;" horiz-adv-x="690" 
d="M325 760l-155 160h42l134 -127l134 127h40l-155 -160h-40zM110 700h281q99 0 161.5 -58t62.5 -146q0 -79 -52 -135.5t-136 -68.5l218 -292h-50l-217 290h-228v-290h-40v700zM150 665v-340h235q85 0 137.5 48t52.5 122t-52.5 122t-137.5 48h-235z" />
    <glyph glyph-name="rcaron" unicode="&#x159;" horiz-adv-x="373" 
d="M197 580l-155 160h42l134 -127l134 127h40l-155 -160h-40zM90 0v506h35l5 -122q58 132 218 132l-1 -39h-5q-100 0 -156 -61.5t-56 -184.5v-231h-40z" />
    <glyph glyph-name="Sacute" unicode="&#x15a;" horiz-adv-x="560" 
d="M265 760l85 160h45l-95 -160h-35zM110 543q0 -54 41 -91.5t130 -63.5q110 -33 164.5 -84t54.5 -127q0 -81 -60 -134t-163 -53q-45 0 -85.5 9.5t-67 22.5t-46.5 26t-29 22l-9 10l28 29l8.5 -8.5t26 -20t43.5 -25t60.5 -19.5t78.5 -9q78 0 126.5 41.5t48.5 103.5
q0 65 -44.5 106.5t-154.5 75.5q-90 28 -140.5 74.5t-50.5 109.5q0 73 58.5 122.5t154.5 49.5q62 0 114 -19t73 -37l20 -19l-28 -29q-7 8 -20.5 19t-59 29.5t-97.5 18.5q-84 0 -129.5 -39.5t-45.5 -90.5z" />
    <glyph glyph-name="sacute" unicode="&#x15b;" horiz-adv-x="440" 
d="M202 580l85 160h45l-95 -160h-35zM95 394q0 -37 29 -64.5t101 -45.5q165 -41 165 -149q0 -60 -48 -102.5t-129 -42.5q-50 0 -94.5 15t-64.5 30l-19 15l22 31q7 -6 20.5 -15t54.5 -24t83 -15q63 0 99 28.5t36 69.5q0 43 -30.5 73t-114.5 50q-70 18 -110 53t-40 84
q0 54 43.5 92.5t121.5 38.5q43 0 82 -12.5t56 -25.5l17 -12l-22 -32q-6 5 -16 12.5t-44.5 20t-70.5 12.5q-60 0 -93.5 -26t-33.5 -59z" />
    <glyph glyph-name="Scircumflex" unicode="&#x15c;" horiz-adv-x="560" 
d="M108 760l155 160h40l155 -160h-42l-135 127l-133 -127h-40zM110 543q0 -54 41 -91.5t130 -63.5q110 -33 164.5 -84t54.5 -127q0 -81 -60 -134t-163 -53q-45 0 -85.5 9.5t-67 22.5t-46.5 26t-29 22l-9 10l28 29l8.5 -8.5t26 -20t43.5 -25t60.5 -19.5t78.5 -9
q78 0 126.5 41.5t48.5 103.5q0 65 -44.5 106.5t-154.5 75.5q-90 28 -140.5 74.5t-50.5 109.5q0 73 58.5 122.5t154.5 49.5q62 0 114 -19t73 -37l20 -19l-28 -29q-7 8 -20.5 19t-59 29.5t-97.5 18.5q-84 0 -129.5 -39.5t-45.5 -90.5z" />
    <glyph glyph-name="scircumflex" unicode="&#x15d;" horiz-adv-x="440" 
d="M45 580l155 160h40l155 -160h-42l-135 127l-133 -127h-40zM95 394q0 -37 29 -64.5t101 -45.5q165 -41 165 -149q0 -60 -48 -102.5t-129 -42.5q-50 0 -94.5 15t-64.5 30l-19 15l22 31q7 -6 20.5 -15t54.5 -24t83 -15q63 0 99 28.5t36 69.5q0 43 -30.5 73t-114.5 50
q-70 18 -110 53t-40 84q0 54 43.5 92.5t121.5 38.5q43 0 82 -12.5t56 -25.5l17 -12l-22 -32q-6 5 -16 12.5t-44.5 20t-70.5 12.5q-60 0 -93.5 -26t-33.5 -59z" />
    <glyph glyph-name="Scedilla" unicode="&#x15e;" horiz-adv-x="560" 
d="M500 177q0 -72 -49 -123.5t-136 -61.5q37 -35 37 -82q0 -49 -37 -77t-93 -28q-27 0 -52 7.5t-36 15.5l-12 7l15 30q34 -25 92 -25q39 0 61 20.5t22 52.5q0 44 -38 77q-44 0 -84.5 9.5t-66.5 22.5t-45.5 26.5t-28.5 22.5l-9 9l28 29l8.5 -8.5t26 -20t43.5 -25t60.5 -19.5
t78.5 -9q78 0 126.5 41.5t48.5 103.5q0 65 -44.5 106.5t-154.5 75.5q-90 28 -140.5 74.5t-50.5 109.5q0 73 58.5 122.5t154.5 49.5q62 0 114 -19t73 -37l20 -19l-28 -29q-7 8 -20.5 19t-59 29.5t-97.5 18.5q-84 0 -129.5 -39.5t-45.5 -90.5q0 -54 41 -91.5t130 -63.5
q110 -33 164.5 -84t54.5 -127z" />
    <glyph glyph-name="scedilla" unicode="&#x15f;" horiz-adv-x="440" 
d="M390 135q0 -52 -37.5 -92.5t-102.5 -49.5q38 -34 38 -83t-37 -77t-93 -28q-27 0 -52 7.5t-36 15.5l-12 7l15 30q34 -25 92 -25q39 0 61 20.5t22 52.5q0 44 -38 77q-49 0 -93 15t-63 30l-19 15l22 31q7 -6 20.5 -15t54.5 -24t83 -15q63 0 99 28.5t36 69.5q0 43 -30.5 73
t-114.5 50q-70 18 -110 53t-40 84q0 54 43.5 92.5t121.5 38.5q43 0 82 -12.5t56 -25.5l17 -12l-22 -32q-6 5 -16 12.5t-44.5 20t-70.5 12.5q-60 0 -93.5 -26t-33.5 -59q0 -37 29 -64.5t101 -45.5q165 -41 165 -149z" />
    <glyph glyph-name="Scaron" unicode="&#x160;" horiz-adv-x="560" 
d="M263 760l-155 160h42l134 -127l134 127h40l-155 -160h-40zM110 543q0 -54 41 -91.5t130 -63.5q110 -33 164.5 -84t54.5 -127q0 -81 -60 -134t-163 -53q-45 0 -85.5 9.5t-67 22.5t-46.5 26t-29 22l-9 10l28 29l8.5 -8.5t26 -20t43.5 -25t60.5 -19.5t78.5 -9
q78 0 126.5 41.5t48.5 103.5q0 65 -44.5 106.5t-154.5 75.5q-90 28 -140.5 74.5t-50.5 109.5q0 73 58.5 122.5t154.5 49.5q62 0 114 -19t73 -37l20 -19l-28 -29q-7 8 -20.5 19t-59 29.5t-97.5 18.5q-84 0 -129.5 -39.5t-45.5 -90.5z" />
    <glyph glyph-name="scaron" unicode="&#x161;" horiz-adv-x="440" 
d="M200 580l-155 160h42l134 -127l134 127h40l-155 -160h-40zM95 394q0 -37 29 -64.5t101 -45.5q165 -41 165 -149q0 -60 -48 -102.5t-129 -42.5q-50 0 -94.5 15t-64.5 30l-19 15l22 31q7 -6 20.5 -15t54.5 -24t83 -15q63 0 99 28.5t36 69.5q0 43 -30.5 73t-114.5 50
q-70 18 -110 53t-40 84q0 54 43.5 92.5t121.5 38.5q43 0 82 -12.5t56 -25.5l17 -12l-22 -32q-6 5 -16 12.5t-44.5 20t-70.5 12.5q-60 0 -93.5 -26t-33.5 -59z" />
    <glyph glyph-name="uni0162" unicode="&#x162;" horiz-adv-x="590" 
d="M560 665h-245v-659q55 -34 55 -96q0 -49 -37 -77t-93 -28q-27 0 -52 7.5t-36 15.5l-12 7l15 30q34 -25 92 -25q39 0 61 20.5t22 52.5q0 24 -13 46t-22.5 29.5t-16.5 11.5h-3v665h-245v35h530v-35z" />
    <glyph glyph-name="uni0163" unicode="&#x163;" horiz-adv-x="420" 
d="M390 474h-220v-319q0 -63 32 -95.5t85 -32.5q23 0 47 4t36 8l12 4l8 -33q-24 -15 -76 -19q36 -34 36 -81q0 -49 -37 -77t-93 -28q-27 0 -52 7.5t-36 15.5l-12 7l15 30q34 -25 92 -25q39 0 61 20.5t22 52.5q0 42 -39 78q-66 5 -103.5 46.5t-37.5 117.5v319h-110v32h110
v134h40v-134h220v-32z" />
    <glyph glyph-name="Tcaron" unicode="&#x164;" horiz-adv-x="590" 
d="M275 760l-155 160h42l134 -127l134 127h40l-155 -160h-40zM315 665v-665h-40v665h-245v35h530v-35h-245z" />
    <glyph glyph-name="tcaron" unicode="&#x165;" horiz-adv-x="420" 
d="M275 570l40 220h45l-55 -220h-30zM287 -10q-73 0 -115 42t-42 123v319h-110v32h110v134h40v-134h220v-32h-220v-319q0 -63 32 -95.5t85 -32.5q23 0 47 4t36 8l12 4l8 -33q-33 -20 -103 -20z" />
    <glyph glyph-name="Tbar" unicode="&#x166;" horiz-adv-x="590" 
d="M560 665h-245v-277h215v-33h-215v-355h-40v355h-215v33h215v277h-245v35h530v-35z" />
    <glyph glyph-name="tbar" unicode="&#x167;" horiz-adv-x="420" 
d="M390 474h-220v-191h220v-33h-220v-95q0 -63 32 -95.5t85 -32.5q23 0 47 4t36 8l12 4l8 -33q-33 -20 -103 -20q-73 0 -115 42t-42 123v95h-110v33h110v191h-110v32h110v134h40v-134h220v-32z" />
    <glyph glyph-name="Utilde" unicode="&#x168;" horiz-adv-x="740" 
d="M447 770q-28 0 -51 15t-36.5 33.5t-32.5 33.5t-39 15t-32.5 -19.5t-15.5 -39.5l-2 -19l-37 4q0 4 1 11.5t6 26t14 32.5t27 25.5t42 11.5q29 0 52.5 -15t36 -33.5t31.5 -33.5t39 -15q21 0 33.5 19.5t14.5 39.5l3 20l37 -4q0 -4 -1 -11.5t-6.5 -26t-14 -33t-27 -26
t-42.5 -11.5zM369 -10q-117 0 -193 81t-76 208v421h41v-423q0 -110 65 -180t165 -70t165 70t65 180v423h39v-419q0 -127 -77 -209t-194 -82z" />
    <glyph glyph-name="utilde" unicode="&#x169;" horiz-adv-x="610" 
d="M382 590q-28 0 -51 15t-36.5 33.5t-32.5 33.5t-39 15t-32.5 -19.5t-14.5 -39.5l-3 -19l-37 4q0 4 1 11.5t6 26t14 32.5t27 25.5t42 11.5q29 0 52.5 -15t36 -33.5t31.5 -33.5t39 -15q21 0 33.5 19.5t15.5 39.5l2 20l37 -4q0 -4 -1 -11.5t-6.5 -26t-14 -33t-27 -26
t-42.5 -11.5zM480 506h40v-506h-35l-5 108q-57 -118 -198 -118q-86 0 -144 61.5t-58 180.5v274h40v-261q0 -110 48 -164t120 -54q84 0 138 58t54 180v241z" />
    <glyph glyph-name="Umacron" unicode="&#x16a;" horiz-adv-x="740" 
d="M190 824v33h360v-33h-360zM369 -10q-117 0 -193 81t-76 208v421h41v-423q0 -110 65 -180t165 -70t165 70t65 180v423h39v-419q0 -127 -77 -209t-194 -82z" />
    <glyph glyph-name="umacron" unicode="&#x16b;" horiz-adv-x="610" 
d="M125 644v33h360v-33h-360zM480 506h40v-506h-35l-5 108q-57 -118 -198 -118q-86 0 -144 61.5t-58 180.5v274h40v-261q0 -110 48 -164t120 -54q84 0 138 58t54 180v241z" />
    <glyph glyph-name="Ubreve" unicode="&#x16c;" horiz-adv-x="740" 
d="M370 760q-67 0 -111.5 44.5t-44.5 110.5v5h38v-5q0 -53 33 -86.5t86 -33.5t85 33t32 87v5h38v-5q0 -66 -44.5 -110.5t-111.5 -44.5zM369 -10q-117 0 -193 81t-76 208v421h41v-423q0 -110 65 -180t165 -70t165 70t65 180v423h39v-419q0 -127 -77 -209t-194 -82z" />
    <glyph glyph-name="ubreve" unicode="&#x16d;" horiz-adv-x="610" 
d="M305 580q-67 0 -111.5 44.5t-44.5 110.5v5h38v-5q0 -53 33 -86.5t86 -33.5t85 33t32 87v5h38v-5q0 -66 -44.5 -110.5t-111.5 -44.5zM480 506h40v-506h-35l-5 108q-57 -118 -198 -118q-86 0 -144 61.5t-58 180.5v274h40v-261q0 -110 48 -164t120 -54q84 0 138 58t54 180
v241z" />
    <glyph glyph-name="Uring" unicode="&#x16e;" horiz-adv-x="740" 
d="M370 740q-39 0 -66.5 25.5t-27.5 64.5t27.5 64.5t66.5 25.5q40 0 67.5 -25.5t27.5 -64.5t-27.5 -64.5t-67.5 -25.5zM370 771q25 0 42.5 16.5t17.5 42.5t-17.5 42.5t-42.5 16.5t-42.5 -16.5t-17.5 -42.5t17.5 -42.5t42.5 -16.5zM369 -10q-117 0 -193 81t-76 208v421h41
v-423q0 -110 65 -180t165 -70t165 70t65 180v423h39v-419q0 -127 -77 -209t-194 -82z" />
    <glyph glyph-name="uring" unicode="&#x16f;" horiz-adv-x="610" 
d="M305 560q-39 0 -66.5 25.5t-27.5 64.5t27.5 64.5t66.5 25.5q40 0 67.5 -25.5t27.5 -64.5t-27.5 -64.5t-67.5 -25.5zM305 591q25 0 42.5 16.5t17.5 42.5t-17.5 42.5t-42.5 16.5t-42.5 -16.5t-17.5 -42.5t17.5 -42.5t42.5 -16.5zM480 506h40v-506h-35l-5 108
q-57 -118 -198 -118q-86 0 -144 61.5t-58 180.5v274h40v-261q0 -110 48 -164t120 -54q84 0 138 58t54 180v241z" />
    <glyph glyph-name="Uhungarumlaut" unicode="&#x170;" horiz-adv-x="740" 
d="M267 760l65 160h45l-75 -160h-35zM437 760l65 160h45l-75 -160h-35zM369 -10q-117 0 -193 81t-76 208v421h41v-423q0 -110 65 -180t165 -70t165 70t65 180v423h39v-419q0 -127 -77 -209t-194 -82z" />
    <glyph glyph-name="uhungarumlaut" unicode="&#x171;" horiz-adv-x="610" 
d="M202 580l65 160h45l-75 -160h-35zM372 580l65 160h45l-75 -160h-35zM480 506h40v-506h-35l-5 108q-57 -118 -198 -118q-86 0 -144 61.5t-58 180.5v274h40v-261q0 -110 48 -164t120 -54q84 0 138 58t54 180v241z" />
    <glyph glyph-name="Uogonek" unicode="&#x172;" horiz-adv-x="740" 
d="M432 -3q-25 -22 -25 -64q0 -37 27.5 -60t68.5 -23q18 0 34.5 4t24.5 8l7 5l16 -27q-28 -25 -83 -25q-58 0 -95 31.5t-37 80.5q0 37 20 64q-7 -1 -21 -1q-117 0 -193 81t-76 208v421h41v-423q0 -110 65 -180t165 -70t165 70t65 180v423h39v-419q0 -108 -57.5 -185.5
t-150.5 -98.5z" />
    <glyph glyph-name="uogonek" unicode="&#x173;" horiz-adv-x="610" 
d="M643 -133l16 -27q-28 -25 -83 -25q-58 0 -95 31.5t-37 80.5q0 52 40 86l-4 95q-57 -118 -198 -118q-86 0 -144 61.5t-58 180.5v274h40v-261q0 -110 48 -164t120 -54q84 0 138 58t54 180v241h40v-506h-10q-29 -18 -29 -67q0 -37 27.5 -60t68.5 -23q18 0 34.5 4t24.5 8z
" />
    <glyph glyph-name="Wcircumflex" unicode="&#x174;" horiz-adv-x="965" 
d="M309 760l155 160h40l155 -160h-42l-135 127l-133 -127h-40zM10 700h43l217 -640l199 640h29l198 -640l218 640h41l-240 -700h-38l-195 618l-194 -618h-38z" />
    <glyph glyph-name="wcircumflex" unicode="&#x175;" horiz-adv-x="765" 
d="M208 580l155 160h40l155 -160h-42l-135 127l-133 -127h-40zM10 506h45l163 -449l150 449h31l150 -449l163 449h43l-188 -506h-38l-147 433l-146 -433h-38z" />
    <glyph glyph-name="Ycircumflex" unicode="&#x176;" horiz-adv-x="650" 
d="M151 760l155 160h40l155 -160h-42l-135 127l-133 -127h-40zM305 0v290l-295 410h49l267 -376l267 376h47l-295 -410v-290h-40z" />
    <glyph glyph-name="ycircumflex" unicode="&#x177;" horiz-adv-x="505" 
d="M79 580l155 160h40l155 -160h-42l-135 127l-133 -127h-40zM10 506h45l198 -465l199 465h43l-225 -511q-72 -165 -188 -165q-24 0 -42 4t-24 8l-6 4l14 32q19 -11 58 -11q92 0 151 133z" />
    <glyph glyph-name="Ydieresis" unicode="&#x178;" horiz-adv-x="650" 
d="M231 800q-14 0 -24.5 10.5t-10.5 24.5t10.5 24.5t24.5 10.5t24.5 -10.5t10.5 -24.5t-10.5 -24.5t-24.5 -10.5zM421 800q-14 0 -24.5 10.5t-10.5 24.5t10.5 24.5t24.5 10.5t24.5 -10.5t10.5 -24.5t-10.5 -24.5t-24.5 -10.5zM305 0v290l-295 410h49l267 -376l267 376h47
l-295 -410v-290h-40z" />
    <glyph glyph-name="Zacute" unicode="&#x179;" horiz-adv-x="680" 
d="M332 760l85 160h45l-95 -160h-35zM60 0v25l505 640h-485v35h540v-25l-505 -640h505v-35h-560z" />
    <glyph glyph-name="zacute" unicode="&#x17a;" horiz-adv-x="495" 
d="M237 580l85 160h45l-95 -160h-35zM50 0v27l339 442h-324v37h380v-27l-339 -442h339v-37h-395z" />
    <glyph glyph-name="Zdotaccent" unicode="&#x17b;" horiz-adv-x="680" 
d="M350 800q-14 0 -24.5 10.5t-10.5 24.5t10.5 24.5t24.5 10.5t24.5 -10.5t10.5 -24.5t-10.5 -24.5t-24.5 -10.5zM60 0v25l505 640h-485v35h540v-25l-505 -640h505v-35h-560z" />
    <glyph glyph-name="zdotaccent" unicode="&#x17c;" horiz-adv-x="495" 
d="M255 620q-14 0 -24.5 10.5t-10.5 24.5t10.5 24.5t24.5 10.5t24.5 -10.5t10.5 -24.5t-10.5 -24.5t-24.5 -10.5zM50 0v27l339 442h-324v37h380v-27l-339 -442h339v-37h-395z" />
    <glyph glyph-name="Zcaron" unicode="&#x17d;" horiz-adv-x="680" 
d="M330 760l-155 160h42l134 -127l134 127h40l-155 -160h-40zM60 0v25l505 640h-485v35h540v-25l-505 -640h505v-35h-560z" />
    <glyph glyph-name="zcaron" unicode="&#x17e;" horiz-adv-x="495" 
d="M235 580l-155 160h42l134 -127l134 127h40l-155 -160h-40zM50 0v27l339 442h-324v37h380v-27l-339 -442h339v-37h-395z" />
    <glyph glyph-name="florin" unicode="&#x192;" 
d="M150 -160l39 483h-139v34h142l13 162q7 92 56.5 141.5t129.5 49.5q38 0 69.5 -12t49 -29t30 -33.5t16.5 -28.5l4 -12l-34 -15q-1 4 -3 10t-12.5 22t-24 28.5t-39 22.5t-57.5 10q-63 0 -101 -38t-44 -110l-14 -168h229v-34h-231l-39 -483h-40z" />
    <glyph glyph-name="Aringacute" unicode="&#x1fa;" horiz-adv-x="680" 
d="M367 685l303 -685h-43l-101 230h-374l-101 -230h-41l303 684q-30 8 -49 31.5t-19 55.5q0 39 27.5 64.5t66.5 25.5q6 0 20 -2l31 61h45l-43 -74q42 -25 42 -75q0 -31 -19 -54.5t-48 -31.5zM279 771q0 -26 17.5 -42.5t42.5 -16.5t42.5 16.5t17.5 42.5t-17.5 42.5
t-42.5 16.5t-42.5 -16.5t-17.5 -42.5zM166 263h345l-172 393z" />
    <glyph glyph-name="aringacute" unicode="&#x1fb;" horiz-adv-x="560" 
d="M330 510q73 -16 111.5 -71.5t38.5 -147.5v-291h-30l-7 61q-59 -71 -181 -71q-92 0 -147 45t-55 111t55 112.5t147 46.5q118 0 178 -68v53q0 96 -45.5 143.5t-124.5 47.5q-46 0 -85 -14t-55 -28l-15 -14l-25 26q5 6 16 15t49.5 26.5t82.5 21.5q-44 26 -44 77
q0 39 27.5 64.5t66.5 25.5q6 0 20 -2l31 61h45l-43 -74q42 -25 42 -75q0 -57 -53 -81zM288 650q-25 0 -42.5 -16.5t-17.5 -42.5t17.5 -42.5t42.5 -16.5t42.5 16.5t17.5 42.5t-17.5 42.5t-42.5 16.5zM267 27q85 0 131.5 34t46.5 86t-46.5 86.5t-131.5 34.5q-77 0 -122 -35
t-45 -86t45 -85.5t122 -34.5z" />
    <glyph glyph-name="AEacute" unicode="&#x1fc;" horiz-adv-x="1045" 
d="M675 774l85 160h45l-95 -160h-35zM0 0l485 700h490v-35h-430v-281h380v-33h-380v-316h440v-35h-480v230h-300l-157 -230h-48zM228 263h277v403z" />
    <glyph glyph-name="aeacute" unicode="&#x1fd;" horiz-adv-x="996" 
d="M480 580l85 160h45l-95 -160h-35zM262 -10q-92 0 -147 45t-55 111t55 112.5t147 46.5q118 0 178 -68v53q0 96 -45.5 143.5t-124.5 47.5q-46 0 -85 -13.5t-55 -27.5l-15 -13l-25 26q7 7 20 17.5t60 28t101 17.5q165 0 197 -152q31 69 93.5 110.5t142.5 41.5
q99 0 170.5 -73.5t71.5 -178.5v-4h-466q0 -103 63.5 -168t159.5 -65q39 0 73 11.5t55.5 27.5t37.5 32t23 28l7 11l29 -17q-3 -5 -8 -14t-25.5 -31.5t-44 -39.5t-63.5 -31t-85 -14q-76 0 -136 37t-92 100q-9 -61 -63 -99t-149 -38zM483 293h421q-11 80 -68 133t-133 53
q-84 0 -145 -52t-75 -134zM267 27q85 0 131.5 34t46.5 86t-46.5 86.5t-131.5 34.5q-77 0 -122 -35t-45 -86t45 -85.5t122 -34.5z" />
    <glyph glyph-name="Oslashacute" unicode="&#x1fe;" horiz-adv-x="840" 
d="M532 934l-95 -160h-35l85 160h45zM673 609q107 -104 107 -258q0 -151 -105 -256t-256 -105q-128 0 -227 78l-87 -98h-45l107 121q-107 104 -107 258q0 151 105 256t256 105q128 0 227 -78l87 98h45zM100 350q0 -139 93 -230l429 483q-88 70 -202 70q-135 0 -227.5 -93
t-92.5 -230zM420 27q135 0 227.5 93t92.5 230q0 139 -93 230l-429 -483q87 -70 202 -70z" />
    <glyph glyph-name="oslashacute" unicode="&#x1ff;" horiz-adv-x="626" 
d="M425 740l-95 -160h-35l85 160h45zM596 536l-92 -99q72 -75 72 -183q0 -111 -76.5 -187.5t-187.5 -76.5q-95 0 -166 57l-71 -77h-45l92 99q-72 75 -72 183q0 111 76.5 187.5t187.5 76.5q95 0 166 -57l71 77h45zM90 253q0 -91 58 -155l306 332q-60 49 -141 49
q-95 0 -159 -64.5t-64 -161.5zM536 253q0 91 -58 155l-306 -332q60 -49 141 -49q95 0 159 64.5t64 161.5z" />
    <glyph glyph-name="uni0218" unicode="&#x218;" horiz-adv-x="560" 
d="M110 543q0 -54 41 -91.5t130 -63.5q110 -33 164.5 -84t54.5 -127q0 -81 -60 -134t-163 -53q-45 0 -85.5 9.5t-67 22.5t-46.5 26t-29 22l-9 10l28 29l8.5 -8.5t26 -20t43.5 -25t60.5 -19.5t78.5 -9q78 0 126.5 41.5t48.5 103.5q0 65 -44.5 106.5t-154.5 75.5
q-90 28 -140.5 74.5t-50.5 109.5q0 73 58.5 122.5t154.5 49.5q62 0 114 -19t73 -37l20 -19l-28 -29q-7 8 -20.5 19t-59 29.5t-97.5 18.5q-84 0 -129.5 -39.5t-45.5 -90.5zM169 -210l85 160h45l-95 -160h-35z" />
    <glyph glyph-name="uni0219" unicode="&#x219;" horiz-adv-x="440" 
d="M95 394q0 -37 29 -64.5t101 -45.5q165 -41 165 -149q0 -60 -48 -102.5t-129 -42.5q-50 0 -94.5 15t-64.5 30l-19 15l22 31q7 -6 20.5 -15t54.5 -24t83 -15q63 0 99 28.5t36 69.5q0 43 -30.5 73t-114.5 50q-70 18 -110 53t-40 84q0 54 43.5 92.5t121.5 38.5q43 0 82 -12.5
t56 -25.5l17 -12l-22 -32q-6 5 -16 12.5t-44.5 20t-70.5 12.5q-60 0 -93.5 -26t-33.5 -59zM105 -210l85 160h45l-95 -160h-35z" />
    <glyph glyph-name="uni021A" unicode="&#x21a;" horiz-adv-x="590" 
d="M315 665v-665h-40v665h-245v35h530v-35h-245zM187 -210l85 160h45l-95 -160h-35z" />
    <glyph glyph-name="uni021B" unicode="&#x21b;" horiz-adv-x="420" 
d="M287 -10q-73 0 -115 42t-42 123v319h-110v32h110v134h40v-134h220v-32h-220v-319q0 -63 32 -95.5t85 -32.5q23 0 47 4t36 8l12 4l8 -33q-33 -20 -103 -20zM167 -210l85 160h45l-95 -160h-35z" />
    <glyph glyph-name="uni02BC" unicode="&#x2bc;" 
 />
    <glyph glyph-name="circumflex" unicode="&#x2c6;" horiz-adv-x="450" 
d="M50 580l155 160h40l155 -160h-42l-135 127l-133 -127h-40z" />
    <glyph glyph-name="caron" unicode="&#x2c7;" horiz-adv-x="450" 
d="M205 580l-155 160h42l134 -127l134 127h40l-155 -160h-40z" />
    <glyph glyph-name="breve" unicode="&#x2d8;" horiz-adv-x="412" 
d="M206 580q-67 0 -111.5 44.5t-44.5 110.5v5h38v-5q0 -53 33 -86.5t86 -33.5t85 33t32 87v5h38v-5q0 -66 -44.5 -110.5t-111.5 -44.5z" />
    <glyph glyph-name="dotaccent" unicode="&#x2d9;" horiz-adv-x="170" 
d="M85 620q-14 0 -24.5 10.5t-10.5 24.5t10.5 24.5t24.5 10.5t24.5 -10.5t10.5 -24.5t-10.5 -24.5t-24.5 -10.5z" />
    <glyph glyph-name="ring" unicode="&#x2da;" horiz-adv-x="289" 
d="M144 560q-39 0 -66.5 25.5t-27.5 64.5t27.5 64.5t66.5 25.5q40 0 67.5 -25.5t27.5 -64.5t-27.5 -64.5t-67.5 -25.5zM144 591q25 0 42.5 16.5t17.5 42.5t-17.5 42.5t-42.5 16.5t-42.5 -16.5t-17.5 -42.5t17.5 -42.5t42.5 -16.5z" />
    <glyph glyph-name="ogonek" unicode="&#x2db;" horiz-adv-x="315" 
d="M182 -185q-58 0 -95 31.5t-37 80.5q0 28 12.5 51.5t25.5 32.5l12 9l16 -20q-29 -18 -29 -67q0 -37 27.5 -60t68.5 -23q18 0 34.5 4t24.5 8l7 5l16 -27q-28 -25 -83 -25z" />
    <glyph glyph-name="tilde" unicode="&#x2dc;" horiz-adv-x="437" 
d="M296 590q-28 0 -51 15t-36.5 33.5t-32.5 33.5t-39 15t-32.5 -19.5t-14.5 -39.5l-3 -19l-37 4q0 4 1 11.5t6 26t14 32.5t27 25.5t42 11.5q29 0 52.5 -15t36 -33.5t31.5 -33.5t39 -15q21 0 33.5 19.5t15.5 39.5l2 20l37 -4q0 -4 -1 -11.5t-6.5 -26t-14 -33t-27 -26
t-42.5 -11.5z" />
    <glyph glyph-name="hungarumlaut" unicode="&#x2dd;" horiz-adv-x="380" 
d="M50 580l65 160h45l-75 -160h-35zM220 580l65 160h45l-75 -160h-35z" />
    <glyph glyph-name="gravecomb" unicode="&#x300;" horiz-adv-x="0" 
d="M-85 580l-95 160h45l85 -160h-35z" />
    <glyph glyph-name="acutecomb" unicode="&#x301;" horiz-adv-x="0" 
d="M-180 580l85 160h45l-95 -160h-35z" />
    <glyph glyph-name="uni0302" unicode="&#x302;" horiz-adv-x="0" 
d="M-400 580l155 160h40l155 -160h-42l-135 127l-133 -127h-40z" />
    <glyph glyph-name="tildecomb" unicode="&#x303;" horiz-adv-x="0" 
d="M-141 590q-28 0 -51 15t-36.5 33.5t-32.5 33.5t-39 15t-32.5 -19.5t-15.5 -39.5l-2 -19l-37 4q0 4 1 11.5t6 26t14 32.5t27 25.5t42 11.5q29 0 52.5 -15t36 -33.5t31.5 -33.5t39 -15q21 0 33.5 19.5t14.5 39.5l3 20l37 -4q0 -4 -1 -11.5t-6.5 -26t-14 -33t-27 -26
t-42.5 -11.5z" />
    <glyph glyph-name="uni0304" unicode="&#x304;" horiz-adv-x="0" 
d="M-410 644v33h360v-33h-360z" />
    <glyph glyph-name="uni0306" unicode="&#x306;" horiz-adv-x="0" 
d="M-206 580q-67 0 -111.5 44.5t-44.5 110.5v5h38v-5q0 -53 33 -86.5t86 -33.5t85 33t32 87v5h38v-5q0 -66 -44.5 -110.5t-111.5 -44.5z" />
    <glyph glyph-name="uni0307" unicode="&#x307;" horiz-adv-x="0" 
d="M-85 620q-14 0 -24.5 10.5t-10.5 24.5t10.5 24.5t24.5 10.5t24.5 -10.5t10.5 -24.5t-10.5 -24.5t-24.5 -10.5z" />
    <glyph glyph-name="uni0308" unicode="&#x308;" horiz-adv-x="0" 
d="M-275 620q-14 0 -24.5 10.5t-10.5 24.5t10.5 24.5t24.5 10.5t24.5 -10.5t10.5 -24.5t-10.5 -24.5t-24.5 -10.5zM-85 620q-14 0 -24.5 10.5t-10.5 24.5t10.5 24.5t24.5 10.5t24.5 -10.5t10.5 -24.5t-10.5 -24.5t-24.5 -10.5z" />
    <glyph glyph-name="uni030A" unicode="&#x30a;" horiz-adv-x="0" 
d="M-145 560q-39 0 -66.5 25.5t-27.5 64.5t27.5 64.5t66.5 25.5q40 0 67.5 -25.5t27.5 -64.5t-27.5 -64.5t-67.5 -25.5zM-145 591q25 0 42.5 16.5t17.5 42.5t-17.5 42.5t-42.5 16.5t-42.5 -16.5t-17.5 -42.5t17.5 -42.5t42.5 -16.5z" />
    <glyph glyph-name="uni030B" unicode="&#x30b;" horiz-adv-x="0" 
d="M-330 580l65 160h45l-75 -160h-35zM-160 580l65 160h45l-75 -160h-35z" />
    <glyph glyph-name="uni030C" unicode="&#x30c;" horiz-adv-x="0" 
d="M-245 580l-155 160h42l134 -127l134 127h40l-155 -160h-40z" />
    <glyph glyph-name="uni0312" unicode="&#x312;" horiz-adv-x="0" 
d="M-50 720l-85 -160h-45l95 160h35z" />
    <glyph glyph-name="uni0326" unicode="&#x326;" horiz-adv-x="0" 
d="M-180 -210l85 160h45l-95 -160h-35z" />
    <glyph glyph-name="uni0327" unicode="&#x327;" horiz-adv-x="0" 
d="M-180 -195q-27 0 -52 7.5t-36 15.5l-12 7l15 30q34 -25 92 -25q39 0 61 20.5t22 52.5q0 24 -13 46t-22.5 29.5t-16.5 11.5l22 15q3 -1 7.5 -3.5t16.5 -12t21.5 -20.5t17 -29.5t7.5 -39.5q0 -49 -37 -77t-93 -28z" />
    <glyph glyph-name="uni0328" unicode="&#x328;" horiz-adv-x="0" 
d="M-133 -185q-58 0 -95 31.5t-37 80.5q0 28 12.5 51.5t24.5 32.5l13 9l16 -20q-29 -18 -29 -67q0 -37 27.5 -60t68.5 -23q18 0 34.5 4t23.5 8l8 5l16 -27q-28 -25 -83 -25z" />
    <glyph glyph-name="uni0374" unicode="&#x374;" 
 />
    <glyph glyph-name="uni0375" unicode="&#x375;" 
 />
    <glyph glyph-name="uni037E" unicode="&#x37e;" horiz-adv-x="170" 
d="M85 446q-14 0 -24.5 10.5t-10.5 24.5t10.5 24.5t24.5 10.5t24.5 -10.5t10.5 -24.5t-10.5 -24.5t-24.5 -10.5zM40 -130l25 210h45l-35 -210h-35z" />
    <glyph glyph-name="tonos" unicode="&#x384;" horiz-adv-x="175" 
d="M50 580l33 160h42l-41 -160h-34z" />
    <glyph glyph-name="dieresistonos" unicode="&#x385;" horiz-adv-x="400" 
d="M165 580l33 160h42l-41 -160h-34zM85 620q-14 0 -24.5 10.5t-10.5 24.5t10.5 24.5t24.5 10.5t24.5 -10.5t10.5 -24.5t-10.5 -24.5t-24.5 -10.5zM315 620q-14 0 -24.5 10.5t-10.5 24.5t10.5 24.5t24.5 10.5t24.5 -10.5t10.5 -24.5t-10.5 -24.5t-24.5 -10.5z" />
    <glyph glyph-name="Alphatonos" unicode="&#x386;" horiz-adv-x="680" 
d="M10 0l310 700h40l310 -700h-43l-101 230h-374l-101 -230h-41zM50 540l33 160h42l-41 -160h-34zM166 263h345l-172 393z" />
    <glyph glyph-name="anoteleia" unicode="&#x387;" horiz-adv-x="190" 
d="M95 315q-14 0 -24.5 10.5t-10.5 24.5t10.5 24.5t24.5 10.5t24.5 -10.5t10.5 -24.5t-10.5 -24.5t-24.5 -10.5z" />
    <glyph glyph-name="Epsilontonos" unicode="&#x388;" horiz-adv-x="750" 
d="M50 540l33 160h42l-41 -160h-34zM210 0v700h470v-35h-430v-281h380v-33h-380v-316h440v-35h-480z" />
    <glyph glyph-name="Etatonos" unicode="&#x389;" horiz-adv-x="870" 
d="M50 540l33 160h42l-41 -160h-34zM210 0v700h40v-310h470v310h40v-700h-40v355h-470v-355h-40z" />
    <glyph glyph-name="Iotatonos" unicode="&#x38a;" horiz-adv-x="372" 
d="M50 540l33 160h42l-41 -160h-34zM215 700h42v-700h-42v700z" />
    <glyph glyph-name="Omicrontonos" unicode="&#x38c;" horiz-adv-x="920" 
d="M140 349q0 151 105 256t256 105t255 -104t104 -255t-105 -256t-256 -105t-255 104t-104 255zM50 540l33 160h42l-41 -160h-34zM180 350q0 -137 92.5 -230t227.5 -93t227.5 93t92.5 230t-92.5 230t-227.5 93t-227.5 -93t-92.5 -230z" />
    <glyph glyph-name="Upsilontonos" unicode="&#x38e;" horiz-adv-x="820" 
d="M50 540l33 160h42l-41 -160h-34zM475 0v290l-295 410h49l267 -376l267 376h47l-295 -410v-290h-40z" />
    <glyph glyph-name="Omegatonos" unicode="&#x38f;" horiz-adv-x="930" 
d="M860 361q0 -116 -64.5 -200.5t-158.5 -125.5h203v-35h-280v30q111 40 185.5 125.5t74.5 204.5q0 132 -92.5 222.5t-227.5 90.5t-227.5 -90.5t-92.5 -222.5q0 -119 74.5 -204.5t185.5 -125.5v-30h-280v35h201q-94 41 -157.5 125t-63.5 199q0 146 105 248.5t256 102.5
t255 -101.5t104 -247.5zM50 540l33 160h42l-41 -160h-34z" />
    <glyph glyph-name="iotadieresistonos" unicode="&#x390;" horiz-adv-x="320" 
d="M93 580l33 160h42l-41 -160h-34zM13 620q-14 0 -24.5 10.5t-10.5 24.5t10.5 24.5t24.5 10.5t24.5 -10.5t10.5 -24.5t-10.5 -24.5t-24.5 -10.5zM243 620q-14 0 -24.5 10.5t-10.5 24.5t10.5 24.5t24.5 10.5t24.5 -10.5t10.5 -24.5t-10.5 -24.5t-24.5 -10.5zM130 506h-40
v-386q0 -65 33 -97.5t90 -32.5q27 0 49 4.5t30 9.5l8 5l-10 32q-30 -14 -77 -14q-38 0 -60.5 23t-22.5 70v386z" />
    <glyph glyph-name="Alpha" unicode="&#x391;" horiz-adv-x="680" 
d="M10 0l310 700h40l310 -700h-43l-101 230h-374l-101 -230h-41zM166 263h345l-172 393z" />
    <glyph glyph-name="Beta" unicode="&#x392;" horiz-adv-x="690" 
d="M110 0v700h271q89 0 144 -49t55 -121q0 -54 -31 -97t-84 -63q68 -16 109 -65t41 -116q0 -80 -61.5 -134.5t-157.5 -54.5h-286zM150 384h229q71 0 116 40.5t45 99.5q0 60 -45 100.5t-116 40.5h-229v-281zM150 35h246q78 0 128.5 45.5t50.5 112.5t-50.5 112.5t-128.5 45.5
h-246v-316z" />
    <glyph glyph-name="Gamma" unicode="&#x393;" horiz-adv-x="590" 
d="M110 700h450v-35h-410v-665h-40v700z" />
    <glyph glyph-name="uni0394" unicode="&#x394;" horiz-adv-x="690" 
d="M10 0l315 700h40l315 -700h-670zM66 35h555l-277 622z" />
    <glyph glyph-name="uni0394" unicode="&#x2206;" horiz-adv-x="690" 
d="M10 0l315 700h40l315 -700h-670zM66 35h555l-277 622z" />
    <glyph glyph-name="Epsilon" unicode="&#x395;" horiz-adv-x="650" 
d="M110 0v700h470v-35h-430v-281h380v-33h-380v-316h440v-35h-480z" />
    <glyph glyph-name="Zeta" unicode="&#x396;" horiz-adv-x="680" 
d="M60 0v25l505 640h-485v35h540v-25l-505 -640h505v-35h-560z" />
    <glyph glyph-name="Eta" unicode="&#x397;" horiz-adv-x="770" 
d="M110 0v700h40v-310h470v310h40v-700h-40v355h-470v-355h-40z" />
    <glyph glyph-name="Theta" unicode="&#x398;" horiz-adv-x="840" 
d="M60 349q0 151 105 256t256 105t255 -104t104 -255t-105 -256t-256 -105t-255 104t-104 255zM100 350q0 -137 92.5 -230t227.5 -93t227.5 93t92.5 230t-92.5 230t-227.5 93t-227.5 -93t-92.5 -230zM205 341v33h430v-33h-430z" />
    <glyph glyph-name="Iota" unicode="&#x399;" horiz-adv-x="272" 
d="M115 700h42v-700h-42v700z" />
    <glyph glyph-name="Kappa" unicode="&#x39a;" horiz-adv-x="645" 
d="M110 0v700h40v-336l411 336h64l-422 -339l442 -361h-64l-431 356v-356h-40z" />
    <glyph glyph-name="Lambda" unicode="&#x39b;" horiz-adv-x="670" 
d="M660 0h-43l-283 654l-283 -654h-41l305 700h40z" />
    <glyph glyph-name="Mu" unicode="&#x39c;" horiz-adv-x="890" 
d="M150 623v-623h-40v700h42l294 -526l294 526h40v-700h-40v623l-284 -503h-22z" />
    <glyph glyph-name="Nu" unicode="&#x39d;" horiz-adv-x="790" 
d="M150 644v-644h-40v700h45l485 -638v638h40v-700h-40z" />
    <glyph glyph-name="Xi" unicode="&#x39e;" horiz-adv-x="670" 
d="M70 665v35h530v-35h-530zM100 350v35h450v-35h-450zM60 0v35h550v-35h-550z" />
    <glyph glyph-name="Omicron" unicode="&#x39f;" horiz-adv-x="840" 
d="M60 349q0 151 105 256t256 105t255 -104t104 -255t-105 -256t-256 -105t-255 104t-104 255zM100 350q0 -137 92.5 -230t227.5 -93t227.5 93t92.5 230t-92.5 230t-227.5 93t-227.5 -93t-92.5 -230z" />
    <glyph glyph-name="Pi" unicode="&#x3a0;" horiz-adv-x="770" 
d="M110 0v700h550v-700h-40v665h-470v-665h-40z" />
    <glyph glyph-name="Rho" unicode="&#x3a1;" horiz-adv-x="665" 
d="M110 0v700h273q102 0 167 -60.5t65 -151.5t-66 -152t-168 -61h-231v-275h-40zM150 310h227q88 0 143 50t55 127t-55 127.5t-143 50.5h-227v-355z" />
    <glyph glyph-name="Sigma" unicode="&#x3a3;" horiz-adv-x="650" 
d="M120 35h470v-35h-530v25l298 335l-298 315v25h520v-35h-456l285 -303z" />
    <glyph glyph-name="Tau" unicode="&#x3a4;" horiz-adv-x="590" 
d="M315 665v-665h-40v665h-245v35h530v-35h-245z" />
    <glyph glyph-name="Upsilon" unicode="&#x3a5;" horiz-adv-x="650" 
d="M305 0v290l-295 410h49l267 -376l267 376h47l-295 -410v-290h-40z" />
    <glyph glyph-name="Phi" unicode="&#x3a6;" horiz-adv-x="930" 
d="M870 351q0 -141 -109 -235t-276 -96v-70h-40v70q-168 1 -276.5 94.5t-108.5 234.5t109 235t276 96v70h40v-70q168 -1 276.5 -94.5t108.5 -234.5zM100 350q0 -127 97 -209.5t248 -83.5v586q-151 -1 -248 -83.5t-97 -209.5zM485 57q151 1 248 83.5t97 209.5t-97 209.5
t-248 83.5v-586z" />
    <glyph glyph-name="Chi" unicode="&#x3a7;" horiz-adv-x="643" 
d="M10 0l287 359l-272 341h51l245 -312l248 312h49l-273 -340l288 -360h-51l-262 331l-261 -331h-49z" />
    <glyph glyph-name="Psi" unicode="&#x3a8;" horiz-adv-x="910" 
d="M810 700h40v-149q0 -151 -105.5 -250t-269.5 -101v-200h-40v200q-165 1 -270 99t-105 250v151h40v-150q0 -137 93.5 -224.5t241.5 -88.5v463h40v-463q148 1 241.5 88.5t93.5 224.5v150z" />
    <glyph glyph-name="uni03A9" unicode="&#x3a9;" horiz-adv-x="860" 
d="M790 361q0 -116 -64.5 -200.5t-158.5 -125.5h203v-35h-280v30q111 40 185.5 125.5t74.5 204.5q0 132 -92.5 222.5t-227.5 90.5t-227.5 -90.5t-92.5 -222.5q0 -119 74.5 -204.5t185.5 -125.5v-30h-280v35h201q-94 41 -157.5 125t-63.5 199q0 146 105 248.5t256 102.5
t255 -101.5t104 -247.5z" />
    <glyph glyph-name="Iotadieresis" unicode="&#x3aa;" horiz-adv-x="272" 
d="M41 800q-14 0 -24.5 10.5t-10.5 24.5t10.5 24.5t24.5 10.5t24.5 -10.5t10.5 -24.5t-10.5 -24.5t-24.5 -10.5zM231 800q-14 0 -24.5 10.5t-10.5 24.5t10.5 24.5t24.5 10.5t24.5 -10.5t10.5 -24.5t-10.5 -24.5t-24.5 -10.5zM115 700h42v-700h-42v700z" />
    <glyph glyph-name="Upsilondieresis" unicode="&#x3ab;" horiz-adv-x="650" 
d="M231 800q-14 0 -24.5 10.5t-10.5 24.5t10.5 24.5t24.5 10.5t24.5 -10.5t10.5 -24.5t-10.5 -24.5t-24.5 -10.5zM421 800q-14 0 -24.5 10.5t-10.5 24.5t10.5 24.5t24.5 10.5t24.5 -10.5t10.5 -24.5t-10.5 -24.5t-24.5 -10.5zM305 0v290l-295 410h49l267 -376l267 376h47
l-295 -410v-290h-40z" />
    <glyph glyph-name="alphatonos" unicode="&#x3ac;" horiz-adv-x="760" 
d="M388 740l-41 -160h-34l33 160h42zM730 41l10 -32q-26 -19 -87 -19q-119 0 -123 131q-28 -60 -90.5 -95.5t-133.5 -35.5q-107 0 -181.5 75.5t-74.5 186.5t75.5 187.5t182.5 76.5q71 0 130 -34t92 -93l7 117h33v-386q0 -47 22.5 -70t60.5 -23q21 0 40 3.5t28 7.5zM312 27
q95 0 159 64.5t64 161.5t-64 161.5t-159 64.5t-158.5 -64.5t-63.5 -161.5t63.5 -161.5t158.5 -64.5z" />
    <glyph glyph-name="epsilontonos" unicode="&#x3ad;" horiz-adv-x="521" 
d="M261 580l33 160h42l-41 -160h-34zM281 -10q-111 0 -171 41t-60 102q0 49 37.5 84t96.5 49q-54 14 -86.5 43t-32.5 74q0 57 54 95t159 38q48 0 94.5 -13t68.5 -27l22 -13l-19 -29q-8 5 -22.5 12.5t-58 20t-85.5 12.5q-88 0 -130.5 -25.5t-42.5 -69.5q0 -46 45 -73t128 -27
h59v-35h-57q-88 0 -139 -32t-51 -83q0 -48 48 -77.5t142 -29.5q47 0 92.5 12t67.5 24l22 12l19 -29q-9 -6 -25.5 -15.5t-68.5 -25t-106 -15.5z" />
    <glyph glyph-name="etatonos" unicode="&#x3ae;" horiz-adv-x="610" 
d="M288 580l33 160h42l-41 -160h-34zM130 0h-40v506h35l5 -108q57 118 198 118q86 0 144 -61.5t58 -180.5v-434h-40v421q0 110 -48 164t-120 54q-84 0 -138 -58t-54 -180v-241z" />
    <glyph glyph-name="iotatonos" unicode="&#x3af;" horiz-adv-x="320" 
d="M93 580l33 160h42l-41 -160h-34zM130 506h-40v-386q0 -65 33 -97.5t90 -32.5q27 0 49 4.5t30 9.5l8 5l-10 32q-30 -14 -77 -14q-38 0 -60.5 23t-22.5 70v386z" />
    <glyph glyph-name="upsilondieresistonos" unicode="&#x3b0;" 
d="M283 580l33 160h42l-41 -160h-34zM203 620q-14 0 -24.5 10.5t-10.5 24.5t10.5 24.5t24.5 10.5t24.5 -10.5t10.5 -24.5t-10.5 -24.5t-24.5 -10.5zM433 620q-14 0 -24.5 10.5t-10.5 24.5t10.5 24.5t24.5 10.5t24.5 -10.5t10.5 -24.5t-10.5 -24.5t-24.5 -10.5zM520 231v275
h-40v-276q0 -92 -51 -147.5t-129 -55.5t-129 55.5t-51 147.5v276h-40v-277q0 -106 62.5 -172.5t156.5 -66.5t157.5 67.5t63.5 173.5z" />
    <glyph glyph-name="alpha" unicode="&#x3b1;" horiz-adv-x="760" 
d="M730 41l10 -32q-26 -19 -87 -19q-119 0 -123 131q-28 -60 -90.5 -95.5t-133.5 -35.5q-107 0 -181.5 75.5t-74.5 186.5t75.5 187.5t182.5 76.5q71 0 130 -34t92 -93l7 117h33v-386q0 -47 22.5 -70t60.5 -23q21 0 40 3.5t28 7.5zM312 27q95 0 159 64.5t64 161.5t-64 161.5
t-159 64.5t-158.5 -64.5t-63.5 -161.5t63.5 -161.5t158.5 -64.5z" />
    <glyph glyph-name="beta" unicode="&#x3b2;" horiz-adv-x="605" 
d="M411 370q67 -19 105.5 -69t38.5 -116q0 -84 -59.5 -139.5t-158.5 -55.5q-145 0 -207 102v-252h-40v631q0 107 63 173t160 66q92 0 152 -51t60 -128q0 -54 -30.5 -96.5t-83.5 -64.5zM337 27q82 0 130 45t48 115q0 71 -49.5 116t-133.5 45h-87v34h67q76 0 124.5 41
t48.5 104t-49 104.5t-124 41.5q-80 0 -131 -54.5t-51 -146.5v-275q0 -75 60.5 -122.5t146.5 -47.5z" />
    <glyph glyph-name="gamma" unicode="&#x3b3;" horiz-adv-x="505" 
d="M452 506h43l-223 -506v-160h-39v160l-223 506h45l198 -461z" />
    <glyph glyph-name="delta" unicode="&#x3b4;" horiz-adv-x="626" 
d="M353 547q46 -29 71.5 -46.5t59 -47t50.5 -55.5t29.5 -63.5t12.5 -80.5q0 -111 -76.5 -187.5t-187.5 -76.5t-186.5 75.5t-75.5 186.5q0 51 20 96t47.5 75t65 55t63.5 37.5t51 21.5l-217 138v25h466v-35h-377zM313 27q95 0 159 64.5t64 161.5q0 46 -15 84t-47.5 70.5
t-61 54t-77.5 52.5q-25 -8 -50.5 -19t-62.5 -34.5t-64.5 -50.5t-47.5 -68.5t-20 -88.5q0 -97 64 -161.5t159 -64.5z" />
    <glyph glyph-name="epsilon" unicode="&#x3b5;" horiz-adv-x="521" 
d="M281 -10q-111 0 -171 41t-60 102q0 49 37.5 84t96.5 49q-54 14 -86.5 43t-32.5 74q0 57 54 95t159 38q48 0 94.5 -13t68.5 -27l22 -13l-19 -29q-8 5 -22.5 12.5t-58 20t-85.5 12.5q-88 0 -130.5 -25.5t-42.5 -69.5q0 -46 45 -73t128 -27h59v-35h-57q-88 0 -139 -32
t-51 -83q0 -48 48 -77.5t142 -29.5q47 0 92.5 12t67.5 24l22 12l19 -29q-9 -6 -25.5 -15.5t-68.5 -25t-106 -15.5z" />
    <glyph glyph-name="zeta" unicode="&#x3b6;" horiz-adv-x="474" 
d="M410 -165l-35 15q39 49 39 82q0 62 -99 68q-265 16 -265 227q0 78 44 146.5t138 159.5l135 132h-287v35h354v-25l-177 -171q-82 -79 -124.5 -144t-42.5 -132q0 -95 56 -137.5t170 -53.5q73 -7 105.5 -31.5t32.5 -68.5q0 -24 -11 -49.5t-22 -39.5z" />
    <glyph glyph-name="eta" unicode="&#x3b7;" horiz-adv-x="610" 
d="M130 0h-40v506h35l5 -108q57 118 198 118q86 0 144 -61.5t58 -180.5v-434h-40v421q0 110 -48 164t-120 54q-84 0 -138 -58t-54 -180v-241z" />
    <glyph glyph-name="theta" unicode="&#x3b8;" horiz-adv-x="626" 
d="M314 710q113 0 187.5 -99t74.5 -260t-75.5 -261t-188.5 -100t-187.5 99t-74.5 260t75.5 261t188.5 100zM313 673q-93 0 -155.5 -82t-67.5 -219h446q-5 137 -67.5 219t-155.5 82zM313 27q94 0 157 84.5t66 225.5h-446q3 -141 66 -225.5t157 -84.5z" />
    <glyph glyph-name="iota" unicode="&#x3b9;" horiz-adv-x="320" 
d="M130 506h-40v-386q0 -65 33 -97.5t90 -32.5q27 0 49 4.5t30 9.5l8 5l-10 32q-30 -14 -77 -14q-38 0 -60.5 23t-22.5 70v386z" />
    <glyph glyph-name="kappa" unicode="&#x3ba;" horiz-adv-x="530" 
d="M90 0v506h40v-230l313 230h67l-326 -233l346 -273h-66l-334 269v-269h-40z" />
    <glyph glyph-name="lambda" unicode="&#x3bb;" horiz-adv-x="505" 
d="M10 0l223 506q-39 85 -75.5 124t-85.5 39q-14 0 -26 -2.5t-17 -5.5l-5 -3l-14 32q18 16 64 16q65 0 108.5 -48t87.5 -147l225 -511h-45l-199 465l-198 -465h-43z" />
    <glyph glyph-name="uni03BC" unicode="&#x3bc;" horiz-adv-x="720" 
d="M690 41l10 -32q-26 -19 -87 -19q-54 0 -86.5 29t-36.5 87q-25 -51 -77 -83.5t-121 -32.5q-112 0 -162 97v-247h-40v666h40v-261q0 -110 48 -164t120 -54q84 0 138 58t54 180v241h40v-386q0 -47 22.5 -70t60.5 -23q21 0 40 3.5t28 7.5z" />
    <glyph glyph-name="nu" unicode="&#x3bd;" horiz-adv-x="505" 
d="M233 0l-223 506h45l198 -461l199 461h43l-223 -506h-39z" />
    <glyph glyph-name="xi" unicode="&#x3be;" horiz-adv-x="504" 
d="M343 37q141 -12 141 -100q0 -24 -11 -49.5t-22 -39.5l-11 -13l-35 15q39 49 39 82q0 62 -102 68q-292 17 -292 199q0 62 45 107t124 63q-70 18 -109.5 58.5t-39.5 98.5q0 80 71 132t183 52q47 0 86.5 -8.5t55.5 -17.5l16 -9l-17 -31l-17 8.5t-48 13.5t-77 7
q-96 -2 -154.5 -41.5t-58.5 -102.5t59 -103.5t154 -40.5h57v-34h-67q-100 0 -161.5 -44t-61.5 -109q0 -79 65.5 -115t187.5 -46z" />
    <glyph glyph-name="omicron" unicode="&#x3bf;" horiz-adv-x="626" 
d="M50 252q0 111 76.5 187.5t187.5 76.5t186.5 -75.5t75.5 -186.5t-76.5 -187.5t-187.5 -76.5t-186.5 75.5t-75.5 186.5zM90 253q0 -97 64 -161.5t159 -64.5t159 64.5t64 161.5t-64 161.5t-159 64.5t-159 -64.5t-64 -161.5z" />
    <glyph glyph-name="pi" unicode="&#x3c0;" horiz-adv-x="680" 
d="M20 506h630v-32h-170v-354q0 -47 22.5 -70t60.5 -23q21 0 40 3.5t28 7.5l9 3l10 -32q-26 -19 -87 -19q-57 0 -90 32.5t-33 97.5v354h-260v-474h-40v474h-120v32z" />
    <glyph glyph-name="rho" unicode="&#x3c1;" horiz-adv-x="656" 
d="M80 242q0 120 75 197t189 77q111 0 186.5 -75.5t75.5 -186.5t-75.5 -187.5t-182.5 -76.5q-74 0 -134 36t-94 104v-290h-40v402zM121 253q0 -97 64 -161.5t159 -64.5t158.5 64.5t63.5 161.5t-63.5 161.5t-158.5 64.5t-159 -64.5t-64 -161.5z" />
    <glyph glyph-name="uni03C2" unicode="&#x3c2;" horiz-adv-x="550" 
d="M450 -165l-35 15q39 49 39 82q0 62 -102 68q-136 8 -219 72t-83 185q0 106 77 182.5t187 76.5q35 0 67.5 -8.5t54 -20t37.5 -23.5t23 -20l8 -9l-25 -26q-7 8 -19.5 19.5t-55.5 31t-91 19.5q-94 0 -158.5 -64.5t-64.5 -156.5q0 -200 263 -221q141 -12 141 -100
q0 -24 -11 -49.5t-22 -39.5z" />
    <glyph glyph-name="sigma" unicode="&#x3c3;" horiz-adv-x="636" 
d="M606 506v-37h-157q59 -33 93 -89.5t34 -125.5q0 -111 -76.5 -187.5t-187.5 -76.5t-186.5 75.5t-75.5 186.5q0 107 76.5 180.5t187.5 73.5h292zM536 253q0 93 -64 154.5t-159 61.5t-159 -61.5t-64 -154.5q0 -97 64 -161.5t159 -64.5t159 64.5t64 161.5z" />
    <glyph glyph-name="tau" unicode="&#x3c4;" horiz-adv-x="510" 
d="M377 -10q-76 0 -121.5 45.5t-45.5 129.5v306h-190v35h460v-35h-230v-306q0 -67 35 -102.5t92 -35.5q23 0 47 4t36 8l12 4l8 -33q-33 -20 -103 -20z" />
    <glyph glyph-name="upsilon" unicode="&#x3c5;" 
d="M520 231v275h-40v-276q0 -92 -51 -147.5t-129 -55.5t-129 55.5t-51 147.5v276h-40v-277q0 -106 62.5 -172.5t156.5 -66.5t157.5 67.5t63.5 173.5z" />
    <glyph glyph-name="phi" unicode="&#x3c6;" horiz-adv-x="770" 
d="M720 254q0 -112 -86 -186.5t-229 -77.5v-150h-40v150q-143 2 -229 76t-86 186t86 186.5t229 77.5v184h40v-184q143 -2 229 -76t86 -186zM90 253q0 -97 75.5 -160.5t199.5 -65.5v452q-124 -2 -199.5 -65.5t-75.5 -160.5zM405 27q124 2 199.5 65.5t75.5 160.5t-75.5 160.5
t-199.5 65.5v-452z" />
    <glyph glyph-name="chi" unicode="&#x3c7;" horiz-adv-x="525" 
d="M10 -160l226 340l-216 326h54l189 -289l190 289h52l-216 -325l226 -341h-54l-199 304l-200 -304h-52z" />
    <glyph glyph-name="psi" unicode="&#x3c8;" horiz-adv-x="820" 
d="M700 506h40v-245q0 -126 -84 -197t-226 -74v-150h-40v150q-143 2 -226.5 72.5t-83.5 196.5v247h40v-246q0 -111 72.5 -171t197.5 -62v673h40v-673q125 2 197.5 62t72.5 171v246z" />
    <glyph glyph-name="omega" unicode="&#x3c9;" horiz-adv-x="920" 
d="M790 513q9 -13 22.5 -36t35.5 -94t22 -142q0 -116 -59 -183.5t-155 -67.5q-75 0 -126 43t-70 120q-19 -77 -70 -120t-126 -43q-96 0 -155 67.5t-59 181.5q0 72 20 140.5t40 100.5l20 33l34 -17q-8 -12 -20.5 -33.5t-33 -88t-20.5 -134.5q0 -99 48.5 -156t126.5 -57
q79 0 127 56.5t48 156.5v160h40v-160q0 -100 48 -156.5t127 -56.5q78 0 126.5 57t48.5 156q0 68 -18.5 132t-37.5 94l-18 30z" />
    <glyph glyph-name="iotadieresis" unicode="&#x3ca;" horiz-adv-x="320" 
d="M15 620q-14 0 -24.5 10.5t-10.5 24.5t10.5 24.5t24.5 10.5t24.5 -10.5t10.5 -24.5t-10.5 -24.5t-24.5 -10.5zM205 620q-14 0 -24.5 10.5t-10.5 24.5t10.5 24.5t24.5 10.5t24.5 -10.5t10.5 -24.5t-10.5 -24.5t-24.5 -10.5zM130 506h-40v-386q0 -65 33 -97.5t90 -32.5
q27 0 49 4.5t30 9.5l8 5l-10 32q-30 -14 -77 -14q-38 0 -60.5 23t-22.5 70v386z" />
    <glyph glyph-name="upsilondieresis" unicode="&#x3cb;" 
d="M205 620q-14 0 -24.5 10.5t-10.5 24.5t10.5 24.5t24.5 10.5t24.5 -10.5t10.5 -24.5t-10.5 -24.5t-24.5 -10.5zM395 620q-14 0 -24.5 10.5t-10.5 24.5t10.5 24.5t24.5 10.5t24.5 -10.5t10.5 -24.5t-10.5 -24.5t-24.5 -10.5zM520 231v275h-40v-276q0 -92 -51 -147.5
t-129 -55.5t-129 55.5t-51 147.5v276h-40v-277q0 -106 62.5 -172.5t156.5 -66.5t157.5 67.5t63.5 173.5z" />
    <glyph glyph-name="omicrontonos" unicode="&#x3cc;" horiz-adv-x="626" 
d="M296 580l33 160h42l-41 -160h-34zM50 252q0 111 76.5 187.5t187.5 76.5t186.5 -75.5t75.5 -186.5t-76.5 -187.5t-187.5 -76.5t-186.5 75.5t-75.5 186.5zM90 253q0 -97 64 -161.5t159 -64.5t159 64.5t64 161.5t-64 161.5t-159 64.5t-159 -64.5t-64 -161.5z" />
    <glyph glyph-name="upsilontonos" unicode="&#x3cd;" 
d="M283 580l33 160h42l-41 -160h-34zM520 231v275h-40v-276q0 -92 -51 -147.5t-129 -55.5t-129 55.5t-51 147.5v276h-40v-277q0 -106 62.5 -172.5t156.5 -66.5t157.5 67.5t63.5 173.5z" />
    <glyph glyph-name="omegatonos" unicode="&#x3ce;" horiz-adv-x="920" 
d="M518 740l-41 -160h-34l33 160h42zM790 513q9 -13 22.5 -36t35.5 -94t22 -142q0 -116 -59 -183.5t-155 -67.5q-75 0 -126 43t-70 120q-19 -77 -70 -120t-126 -43q-96 0 -155 67.5t-59 181.5q0 72 20 140.5t40 100.5l20 33l34 -17q-8 -12 -20.5 -33.5t-33 -88t-20.5 -134.5
q0 -99 48.5 -156t126.5 -57q79 0 127 56.5t48 156.5v160h40v-160q0 -100 48 -156.5t127 -56.5q78 0 126.5 57t48.5 156q0 68 -18.5 132t-37.5 94l-18 30z" />
    <glyph glyph-name="uni0400" unicode="&#x400;" horiz-adv-x="650" 
d="M327 760l-95 160h45l85 -160h-35zM110 0v700h470v-35h-430v-281h380v-33h-380v-316h440v-35h-480z" />
    <glyph glyph-name="uni0401" unicode="&#x401;" horiz-adv-x="650" 
d="M250 800q-14 0 -24.5 10.5t-10.5 24.5t10.5 24.5t24.5 10.5t24.5 -10.5t10.5 -24.5t-10.5 -24.5t-24.5 -10.5zM440 800q-14 0 -24.5 10.5t-10.5 24.5t10.5 24.5t24.5 10.5t24.5 -10.5t10.5 -24.5t-10.5 -24.5t-24.5 -10.5zM110 0v700h470v-35h-430v-281h380v-33h-380
v-316h440v-35h-480z" />
    <glyph glyph-name="uni0402" unicode="&#x402;" horiz-adv-x="850" 
d="M524 425q126 0 201 -60.5t75 -156.5t-77 -157t-203 -61v37q109 0 174 51t65 130t-65.5 129.5t-174.5 50.5q-134 0 -204 -51v-337h-40v665h-245v35h530v-35h-245v-289q78 49 209 49z" />
    <glyph glyph-name="uni0403" unicode="&#x403;" horiz-adv-x="590" 
d="M317 774l85 160h45l-95 -160h-35zM110 700h450v-35h-410v-665h-40v700z" />
    <glyph glyph-name="uni0404" unicode="&#x404;" horiz-adv-x="720" 
d="M420 27q42 0 81.5 10t66 24.5t47 29.5t30.5 24.5t10 10.5l25 -25q-4 -5 -11 -12t-32.5 -26.5t-53.5 -34t-72.5 -26.5t-91.5 -12q-151 0 -255 104t-104 255t105 256t256 105q47 0 91 -11t73 -27t51.5 -32.5t33.5 -27.5l10 -11l-27 -26l-10.5 10.5t-29.5 23.5t-48 30
t-64.5 23.5t-80.5 10.5q-128 0 -218.5 -84t-100.5 -212h379v-35h-380q3 -134 95 -224.5t225 -90.5z" />
    <glyph glyph-name="uni0405" unicode="&#x405;" horiz-adv-x="560" 
d="M110 543q0 -54 41 -91.5t130 -63.5q110 -33 164.5 -84t54.5 -127q0 -81 -60 -134t-163 -53q-45 0 -85.5 9.5t-67 22.5t-46.5 26t-29 22l-9 10l28 29l8.5 -8.5t26 -20t43.5 -25t60.5 -19.5t78.5 -9q78 0 126.5 41.5t48.5 103.5q0 65 -44.5 106.5t-154.5 75.5
q-90 28 -140.5 74.5t-50.5 109.5q0 73 58.5 122.5t154.5 49.5q62 0 114 -19t73 -37l20 -19l-28 -29q-7 8 -20.5 19t-59 29.5t-97.5 18.5q-84 0 -129.5 -39.5t-45.5 -90.5z" />
    <glyph glyph-name="uni0406" unicode="&#x406;" horiz-adv-x="272" 
d="M115 700h42v-700h-42v700z" />
    <glyph glyph-name="uni0407" unicode="&#x407;" horiz-adv-x="272" 
d="M41 800q-14 0 -24.5 10.5t-10.5 24.5t10.5 24.5t24.5 10.5t24.5 -10.5t10.5 -24.5t-10.5 -24.5t-24.5 -10.5zM231 800q-14 0 -24.5 10.5t-10.5 24.5t10.5 24.5t24.5 10.5t24.5 -10.5t10.5 -24.5t-10.5 -24.5t-24.5 -10.5zM115 700h42v-700h-42v700z" />
    <glyph glyph-name="uni0408" unicode="&#x408;" horiz-adv-x="445" 
d="M124 -10q-33 0 -59 6t-35 12l-10 6l15 33q28 -20 90 -20q77 0 128 52t51 146v475h41v-474q0 -109 -63.5 -172.5t-157.5 -63.5z" />
    <glyph glyph-name="uni0409" unicode="&#x409;" horiz-adv-x="1205" 
d="M30 -7l5 33q6 -1 12 -1q111 0 126 138l57 537h460v-275h229q103 0 169.5 -60t66.5 -151q0 -92 -64 -153t-166 -61h-275v665h-382l-56 -507q-9 -80 -50.5 -124t-109.5 -44zM690 35h227q88 0 143 50.5t55 127.5t-55 127t-143 50h-227v-355z" />
    <glyph glyph-name="uni040A" unicode="&#x40a;" horiz-adv-x="1175" 
d="M110 0v700h40v-310h470v310h40v-275h229q103 0 169.5 -60t66.5 -151q0 -92 -64 -153t-166 -61h-275v355h-470v-355h-40zM660 35h227q88 0 143 50.5t55 127.5t-55 127t-143 50h-227v-355z" />
    <glyph glyph-name="uni040B" unicode="&#x40b;" horiz-adv-x="850" 
d="M524 425q127 0 201.5 -75.5t74.5 -200.5v-149h-41v148q0 108 -65 174t-175 66q-134 0 -204 -51v-337h-40v665h-245v35h530v-35h-245v-289q78 49 209 49z" />
    <glyph glyph-name="uni040C" unicode="&#x40c;" horiz-adv-x="645" 
d="M305 760l85 160h45l-95 -160h-35zM110 0v700h40v-336l411 336h64l-422 -339l442 -361h-64l-431 356v-356h-40z" />
    <glyph glyph-name="uni040D" unicode="&#x40d;" horiz-adv-x="790" 
d="M377 760l-95 160h45l85 -160h-35zM640 644l-490 -644h-40v700h40v-638l485 638h45v-700h-40v644z" />
    <glyph glyph-name="uni040E" unicode="&#x40e;" horiz-adv-x="670" 
d="M336 774q-67 0 -111.5 44.5t-44.5 110.5v5h38v-5q0 -53 33 -86.5t86 -33.5t85 33t32 87v5h38v-5q0 -66 -44.5 -110.5t-111.5 -44.5zM617 700h43l-305 -545q-93 -165 -208 -165q-28 0 -51 5.5t-32 10.5l-9 6l14 33q30 -18 78 -18q90 0 168 129l-305 544h45l281 -507z" />
    <glyph glyph-name="uni040F" unicode="&#x40f;" horiz-adv-x="770" 
d="M110 0v700h40v-665h470v665h40v-700h-255v-120h-40v120h-255z" />
    <glyph glyph-name="uni0410" unicode="&#x410;" horiz-adv-x="680" 
d="M10 0l310 700h40l310 -700h-43l-101 230h-374l-101 -230h-41zM166 263h345l-172 393z" />
    <glyph glyph-name="uni0411" unicode="&#x411;" horiz-adv-x="665" 
d="M110 0v700h445v-35h-405v-250h231q103 0 168.5 -59.5t65.5 -148.5t-65 -148t-167 -59h-273zM150 35h227q88 0 143 49t55 124t-55 123.5t-143 48.5h-227v-345z" />
    <glyph glyph-name="uni0412" unicode="&#x412;" horiz-adv-x="690" 
d="M110 0v700h271q89 0 144 -49t55 -121q0 -54 -31 -97t-84 -63q68 -16 109 -65t41 -116q0 -80 -61.5 -134.5t-157.5 -54.5h-286zM150 384h229q71 0 116 40.5t45 99.5q0 60 -45 100.5t-116 40.5h-229v-281zM150 35h246q78 0 128.5 45.5t50.5 112.5t-50.5 112.5t-128.5 45.5
h-246v-316z" />
    <glyph glyph-name="uni0413" unicode="&#x413;" horiz-adv-x="590" 
d="M110 700h450v-35h-410v-665h-40v700z" />
    <glyph glyph-name="uni0414" unicode="&#x414;" horiz-adv-x="820" 
d="M700 35h90v-155h-40v120h-680v-120h-40v155h27q111 0 126 138l57 527h460v-665zM222 168q-10 -95 -68 -133h506v630h-382z" />
    <glyph glyph-name="uni0415" unicode="&#x415;" horiz-adv-x="650" 
d="M110 0v700h470v-35h-430v-281h380v-33h-380v-316h440v-35h-480z" />
    <glyph glyph-name="uni0416" unicode="&#x416;" horiz-adv-x="1030" 
d="M0 0l442 361l-422 339h64l411 -336v336h40v-336l411 336h64l-422 -339l442 -361h-64l-431 356v-356h-40v356l-431 -356h-64z" />
    <glyph glyph-name="uni0417" unicode="&#x417;" horiz-adv-x="635" 
d="M286 -10q-46 0 -88.5 9.5t-70 22.5t-48 26.5t-29.5 23.5l-10 9l26 26q3 -3 9 -8.5t27.5 -19.5t45 -24.5t61.5 -19t78 -8.5q106 0 169.5 45.5t63.5 114.5q0 68 -66.5 115.5t-166.5 47.5h-77v35h80q92 0 151 41.5t59 103.5q0 63 -56 103t-154 40q-36 0 -69.5 -7.5
t-56 -18.5t-40 -22.5t-25.5 -18.5l-8 -8l-26 26l9 9t27.5 21t45.5 26t63 20.5t81 9.5q114 0 181.5 -50t67.5 -129q0 -121 -158 -163q83 -21 130.5 -66.5t47.5 -113.5q0 -85 -76.5 -141.5t-197.5 -56.5z" />
    <glyph glyph-name="uni0418" unicode="&#x418;" horiz-adv-x="790" 
d="M640 644l-490 -644h-40v700h40v-638l485 638h45v-700h-40v644z" />
    <glyph glyph-name="uni0419" unicode="&#x419;" horiz-adv-x="790" 
d="M395 760q-67 0 -111.5 44.5t-44.5 110.5v5h38v-5q0 -53 33 -86.5t86 -33.5t85 33t32 87v5h38v-5q0 -66 -44.5 -110.5t-111.5 -44.5zM640 644l-490 -644h-40v700h40v-638l485 638h45v-700h-40v644z" />
    <glyph glyph-name="uni041A" unicode="&#x41a;" horiz-adv-x="645" 
d="M110 0v700h40v-336l411 336h64l-422 -339l442 -361h-64l-431 356v-356h-40z" />
    <glyph glyph-name="uni041B" unicode="&#x41b;" horiz-adv-x="800" 
d="M52 -10l-22 3l5 33q6 -1 12 -1q111 0 126 138l57 537h460v-700h-40v665h-382l-56 -507q-9 -80 -50.5 -124t-109.5 -44z" />
    <glyph glyph-name="uni041C" unicode="&#x41c;" horiz-adv-x="890" 
d="M150 623v-623h-40v700h42l294 -526l294 526h40v-700h-40v623l-284 -503h-22z" />
    <glyph glyph-name="uni041D" unicode="&#x41d;" horiz-adv-x="770" 
d="M110 0v700h40v-310h470v310h40v-700h-40v355h-470v-355h-40z" />
    <glyph glyph-name="uni041E" unicode="&#x41e;" horiz-adv-x="840" 
d="M60 349q0 151 105 256t256 105t255 -104t104 -255t-105 -256t-256 -105t-255 104t-104 255zM100 350q0 -137 92.5 -230t227.5 -93t227.5 93t92.5 230t-92.5 230t-227.5 93t-227.5 -93t-92.5 -230z" />
    <glyph glyph-name="uni041F" unicode="&#x41f;" horiz-adv-x="770" 
d="M110 0v700h550v-700h-40v665h-470v-665h-40z" />
    <glyph glyph-name="uni0420" unicode="&#x420;" horiz-adv-x="665" 
d="M110 0v700h273q102 0 167 -60.5t65 -151.5t-66 -152t-168 -61h-231v-275h-40zM150 310h227q88 0 143 50t55 127t-55 127.5t-143 50.5h-227v-355z" />
    <glyph glyph-name="uni0421" unicode="&#x421;" horiz-adv-x="720" 
d="M419 -10q-151 0 -255 104t-104 255t105 256t256 105q45 0 87.5 -10.5t71 -25.5t50.5 -30t32 -26l11 -10l-26 -25q-3 4 -10 10t-29 21.5t-46.5 27.5t-63 21.5t-78.5 9.5q-135 0 -227.5 -93t-92.5 -230t92.5 -230t227.5 -93q42 0 81.5 10t66 24.5t47 29.5t30.5 24.5
t10 10.5l25 -25q-4 -5 -11 -12t-32.5 -26.5t-53.5 -34t-72.5 -26.5t-91.5 -12z" />
    <glyph glyph-name="uni0422" unicode="&#x422;" horiz-adv-x="590" 
d="M315 665v-665h-40v665h-245v35h530v-35h-245z" />
    <glyph glyph-name="uni0423" unicode="&#x423;" horiz-adv-x="670" 
d="M617 700h43l-305 -545q-93 -165 -208 -165q-28 0 -51 5.5t-32 10.5l-9 6l14 33q30 -18 78 -18q90 0 168 129l-305 544h45l281 -507z" />
    <glyph glyph-name="uni0424" unicode="&#x424;" horiz-adv-x="930" 
d="M870 351q0 -141 -109 -235t-276 -96v-70h-40v70q-168 1 -276.5 94.5t-108.5 234.5t109 235t276 96v70h40v-70q168 -1 276.5 -94.5t108.5 -234.5zM100 350q0 -127 97 -209.5t248 -83.5v586q-151 -1 -248 -83.5t-97 -209.5zM485 57q151 1 248 83.5t97 209.5t-97 209.5
t-248 83.5v-586z" />
    <glyph glyph-name="uni0425" unicode="&#x425;" horiz-adv-x="643" 
d="M10 0l287 359l-272 341h51l245 -312l248 312h49l-273 -340l288 -360h-51l-262 331l-261 -331h-49z" />
    <glyph glyph-name="uni0426" unicode="&#x426;" horiz-adv-x="780" 
d="M660 35h90v-155h-40v120h-600v700h40v-665h470v665h40v-665z" />
    <glyph glyph-name="uni0427" unicode="&#x427;" horiz-adv-x="685" 
d="M535 700h40v-700h-40v304q-78 -49 -209 -49q-127 0 -201.5 75.5t-74.5 200.5v169h41v-168q0 -108 65 -174t175 -66q134 0 204 51v357z" />
    <glyph glyph-name="uni0428" unicode="&#x428;" horiz-adv-x="1170" 
d="M110 0v700h40v-665h415v665h40v-665h415v665h40v-700h-950z" />
    <glyph glyph-name="uni0429" unicode="&#x429;" horiz-adv-x="1180" 
d="M1060 35h90v-155h-40v120h-1000v700h40v-665h415v665h40v-665h415v665h40v-665z" />
    <glyph glyph-name="uni042A" unicode="&#x42a;" horiz-adv-x="745" 
d="M30 665v35h200v-275h231q102 0 168 -61t66 -152t-65 -151.5t-167 -60.5h-273v665h-160zM230 35h227q88 0 143 50.5t55 127.5t-55 127t-143 50h-227v-355z" />
    <glyph glyph-name="uni042B" unicode="&#x42b;" horiz-adv-x="937" 
d="M110 0v700h40v-275h229q103 0 169.5 -60t66.5 -151q0 -92 -64 -153t-166 -61h-275zM780 700h42v-700h-42v700zM150 35h227q88 0 143 50.5t55 127.5t-55 127t-143 50h-227v-355z" />
    <glyph glyph-name="uni042C" unicode="&#x42c;" horiz-adv-x="665" 
d="M110 0v700h40v-275h229q103 0 169.5 -60t66.5 -151q0 -92 -64 -153t-166 -61h-275zM150 35h227q88 0 143 50.5t55 127.5t-55 127t-143 50h-227v-355z" />
    <glyph glyph-name="uni042D" unicode="&#x42d;" horiz-adv-x="720" 
d="M301 710q151 0 255 -104t104 -255t-105 -256t-256 -105q-47 0 -91 11t-73 27t-51.5 32.5t-33.5 27.5l-10 11l27 26l10.5 -10.5t29.5 -23.5t48 -30t64.5 -23.5t80.5 -10.5q134 0 225.5 90.5t94.5 225.5h-380v35h379q-11 127 -101 211t-218 84q-42 0 -81.5 -10t-66 -24.5
t-47 -29.5t-30.5 -24.5t-10 -10.5l-25 25q4 5 11 12t32.5 26.5t53.5 34t72.5 26.5t91.5 12z" />
    <glyph glyph-name="uni042E" unicode="&#x42e;" horiz-adv-x="1107" 
d="M688 710q152 0 255.5 -104t103.5 -255t-104.5 -256t-256.5 -105q-147 0 -250 98.5t-109 244.5h-175v-333h-42v700h42v-332h175q8 145 111 243.5t250 98.5zM687 27q135 0 227.5 93t92.5 230t-92.5 230t-227.5 93t-227.5 -93t-92.5 -230t92.5 -230t227.5 -93z" />
    <glyph glyph-name="uni042F" unicode="&#x42f;" horiz-adv-x="690" 
d="M580 700v-700h-40v290h-228l-217 -290h-50l218 292q-84 12 -136 67.5t-52 134.5q0 89 63 147.5t163 58.5h279zM540 665h-235q-85 0 -137.5 -48t-52.5 -122t52.5 -122t137.5 -48h235v340z" />
    <glyph glyph-name="uni0430" unicode="&#x430;" horiz-adv-x="560" 
d="M60 146q0 66 55 112.5t147 46.5q118 0 178 -68v53q0 96 -45.5 143.5t-124.5 47.5q-46 0 -85 -14t-55 -28l-15 -14l-25 26q7 7 20 18t60 29t101 18q100 0 154.5 -58t54.5 -167v-291h-30l-7 61q-59 -71 -181 -71q-92 0 -147 45t-55 111zM100 147q0 -51 45 -85.5t122 -34.5
q85 0 131.5 34t46.5 86t-46.5 86.5t-131.5 34.5q-77 0 -122 -35t-45 -86z" />
    <glyph glyph-name="uni0431" unicode="&#x431;" horiz-adv-x="626" 
d="M319 476q111 0 184 -69t73 -173q0 -103 -76.5 -173.5t-187.5 -70.5q-115 0 -188.5 75t-73.5 192q0 401 358 438q21 2 40.5 6t28.5 7l9 2l10 -36q-26 -12 -88 -19q-279 -31 -320 -309q30 62 92.5 96t138.5 34zM313 27q95 0 159 58.5t64 147.5t-62 147.5t-156 58.5
q-96 0 -162 -56.5t-66 -144.5q0 -89 64.5 -150t158.5 -61z" />
    <glyph glyph-name="uni0432" unicode="&#x432;" horiz-adv-x="573" 
d="M90 0v506h264q64 0 104 -35.5t40 -87.5q0 -39 -23 -70.5t-61 -45.5q49 -11 79 -46.5t30 -83.5q0 -58 -44.5 -97.5t-113.5 -39.5h-275zM130 283h219q49 0 79 26.5t30 67.5t-30.5 67.5t-78.5 26.5h-219v-188zM130 35h232q53 0 87 30t34 77t-34 77t-87 30h-232v-214z" />
    <glyph glyph-name="uni0433" unicode="&#x433;" horiz-adv-x="450" 
d="M90 0v506h330v-35h-290v-471h-40z" />
    <glyph glyph-name="uni0434" unicode="&#x434;" horiz-adv-x="704" 
d="M594 35h80v-155h-40v120h-564v-120h-40v155h46q79 0 92 98l51 373h375v-471zM207 124q-7 -58 -46 -89h393v436h-300z" />
    <glyph glyph-name="uni0435" unicode="&#x435;" horiz-adv-x="606" 
d="M312 -10q-111 0 -186.5 75.5t-75.5 186.5t76.5 187.5t187.5 76.5q99 0 170.5 -73.5t71.5 -178.5v-4h-466q0 -103 63.5 -168t159.5 -65q39 0 73 11.5t55.5 27.5t37.5 32t23 28l7 11l29 -17q-3 -5 -8 -14t-25.5 -31.5t-44 -39.5t-63.5 -31t-85 -14zM93 295h421
q-11 79 -68.5 131.5t-132.5 52.5q-83 0 -144.5 -51.5t-75.5 -132.5z" />
    <glyph glyph-name="uni0436" unicode="&#x436;" horiz-adv-x="840" 
d="M0 0l346 273l-326 233h67l313 -230v230h40v-230l313 230h67l-326 -233l346 -273h-66l-334 269v-269h-40v269l-334 -269h-66z" />
    <glyph glyph-name="uni0437" unicode="&#x437;" horiz-adv-x="521" 
d="M240 -10q-54 0 -104 14t-73 28l-23 14l19 29q9 -5 24.5 -13t63 -21.5t94.5 -13.5q94 0 142 29.5t48 77.5q0 51 -51 83t-139 32h-57v35h59q83 0 128 27t45 73q0 44 -42.5 69.5t-130.5 25.5q-42 0 -83.5 -11.5t-61.5 -22.5l-21 -11l-19 29q9 6 24.5 15t64 23.5t96.5 14.5
q106 0 159.5 -37t53.5 -94q0 -45 -32.5 -75t-86.5 -44q60 -14 97 -48t37 -83q0 -62 -60 -103.5t-171 -41.5z" />
    <glyph glyph-name="uni0438" unicode="&#x438;" horiz-adv-x="640" 
d="M510 453l-380 -453h-40v506h40v-447l375 447h45v-506h-40v453z" />
    <glyph glyph-name="uni0439" unicode="&#x439;" horiz-adv-x="640" 
d="M320 580q-67 0 -111.5 44.5t-44.5 110.5v5h38v-5q0 -53 33 -86.5t86 -33.5t85 33t32 87v5h38v-5q0 -66 -44.5 -110.5t-111.5 -44.5zM510 453l-380 -453h-40v506h40v-447l375 447h45v-506h-40v453z" />
    <glyph glyph-name="uni043A" unicode="&#x43a;" horiz-adv-x="530" 
d="M90 0v506h40v-230l313 230h67l-326 -233l346 -273h-66l-334 269v-269h-40z" />
    <glyph glyph-name="uni043B" unicode="&#x43b;" horiz-adv-x="650" 
d="M46 -10l-16 2l4 34q4 -1 8 -1q79 0 92 98l51 383h375v-506h-40v471h-300l-47 -357q-7 -57 -41.5 -90.5t-85.5 -33.5z" />
    <glyph glyph-name="uni043C" unicode="&#x43c;" horiz-adv-x="720" 
d="M130 435v-435h-40v506h42l229 -365l229 365h40v-506h-40v435l-221 -348h-18z" />
    <glyph glyph-name="uni043D" unicode="&#x43d;" horiz-adv-x="620" 
d="M90 0v506h40v-219h360v219h40v-506h-40v252h-360v-252h-40z" />
    <glyph glyph-name="uni043E" unicode="&#x43e;" horiz-adv-x="626" 
d="M50 252q0 111 76.5 187.5t187.5 76.5t186.5 -75.5t75.5 -186.5t-76.5 -187.5t-187.5 -76.5t-186.5 75.5t-75.5 186.5zM90 253q0 -97 64 -161.5t159 -64.5t159 64.5t64 161.5t-64 161.5t-159 64.5t-159 -64.5t-64 -161.5z" />
    <glyph glyph-name="uni043F" unicode="&#x43f;" horiz-adv-x="620" 
d="M90 0v506h440v-506h-40v471h-360v-471h-40z" />
    <glyph glyph-name="uni0440" unicode="&#x440;" horiz-adv-x="660" 
d="M90 506h33l7 -119q33 59 92.5 94t131.5 35q107 0 181.5 -75.5t74.5 -186.5t-75.5 -187.5t-182.5 -76.5q-72 0 -130.5 33.5t-91.5 92.5v-276h-40v666zM125 253q0 -97 64 -161.5t159 -64.5t158.5 64.5t63.5 161.5t-63.5 161.5t-158.5 64.5t-159 -64.5t-64 -161.5z" />
    <glyph glyph-name="uni0441" unicode="&#x441;" horiz-adv-x="550" 
d="M312 -10q-111 0 -186.5 75.5t-75.5 186.5t76.5 187.5t187.5 76.5q35 0 67.5 -8.5t54 -20t37.5 -23.5t23 -20l8 -9l-25 -26q-7 8 -19.5 19.5t-55.5 31t-91 19.5q-95 0 -159 -64.5t-64 -161.5t64 -161.5t159 -64.5q51 0 93.5 19t59.5 38l17 19l27 -23q-3 -4 -8 -10
t-23 -21.5t-39 -27.5t-55.5 -21.5t-72.5 -9.5z" />
    <glyph glyph-name="uni0442" unicode="&#x442;" horiz-adv-x="480" 
d="M260 471v-471h-40v471h-190v35h420v-35h-190z" />
    <glyph glyph-name="uni0443" unicode="&#x443;" horiz-adv-x="505" 
d="M10 506h45l198 -465l199 465h43l-225 -511q-72 -165 -188 -165q-24 0 -42 4t-24 8l-6 4l14 32q19 -11 58 -11q92 0 151 133z" />
    <glyph glyph-name="uni0444" unicode="&#x444;" horiz-adv-x="770" 
d="M720 254q0 -112 -86 -186.5t-229 -77.5v-150h-40v150q-143 2 -229 76t-86 186t86 186.5t229 77.5v184h40v-184q143 -2 229 -76t86 -186zM90 253q0 -97 75.5 -160.5t199.5 -65.5v452q-124 -2 -199.5 -65.5t-75.5 -160.5zM405 27q124 2 199.5 65.5t75.5 160.5t-75.5 160.5
t-199.5 65.5v-452z" />
    <glyph glyph-name="uni0445" unicode="&#x445;" horiz-adv-x="525" 
d="M289 259l226 -259h-54l-199 231l-200 -231h-52l226 258l-216 248h54l189 -220l190 220h52z" />
    <glyph glyph-name="uni0446" unicode="&#x446;" horiz-adv-x="640" 
d="M530 35h80v-155h-40v120h-480v506h40v-471h360v471h40v-471z" />
    <glyph glyph-name="uni0447" unicode="&#x447;" horiz-adv-x="548" 
d="M418 506h40v-506h-40v204q-61 -35 -158 -35q-100 0 -160 58.5t-60 150.5v128h40v-127q0 -78 49.5 -125.5t134.5 -47.5q97 0 154 37v263z" />
    <glyph glyph-name="uni0448" unicode="&#x448;" horiz-adv-x="930" 
d="M90 0v506h40v-471h315v471h40v-471h315v471h40v-506h-750z" />
    <glyph glyph-name="uni0449" unicode="&#x449;" horiz-adv-x="950" 
d="M840 35h80v-155h-40v120h-790v506h40v-471h315v471h40v-471h315v471h40v-471z" />
    <glyph glyph-name="uni044A" unicode="&#x44a;" horiz-adv-x="612" 
d="M30 471v35h180v-180h183q78 0 128.5 -47t50.5 -116q0 -70 -50 -116.5t-127 -46.5h-225v471h-140zM210 35h179q64 0 103.5 36.5t39.5 91.5t-39.5 91.5t-103.5 36.5h-179v-256z" />
    <glyph glyph-name="uni044B" unicode="&#x44b;" horiz-adv-x="764" 
d="M90 0v506h40v-180h181q78 0 129.5 -46.5t51.5 -115.5q0 -70 -49 -117t-126 -47h-227zM627 506h42v-506h-42v506zM130 35h179q64 0 103.5 36.5t39.5 91.5t-39.5 91.5t-103.5 36.5h-179v-256z" />
    <glyph glyph-name="uni044C" unicode="&#x44c;" horiz-adv-x="532" 
d="M90 0v506h40v-180h181q78 0 129.5 -46.5t51.5 -115.5q0 -70 -49 -117t-126 -47h-227zM130 35h179q64 0 103.5 36.5t39.5 91.5t-39.5 91.5t-103.5 36.5h-179v-256z" />
    <glyph glyph-name="uni044D" unicode="&#x44d;" horiz-adv-x="550" 
d="M238 516q111 0 186.5 -75.5t75.5 -186.5t-76.5 -187.5t-187.5 -76.5q-35 0 -67.5 8.5t-53.5 20t-37.5 23.5t-23.5 20l-8 9l25 26q7 -8 19.5 -19.5t55.5 -31t91 -19.5q92 0 155.5 61t67.5 153h-275v35h274q-8 88 -71 145.5t-151 57.5q-51 0 -93.5 -19t-59.5 -38l-17 -19
l-27 23q3 4 8 10t23 21.5t39 27.5t55.5 21.5t72.5 9.5z" />
    <glyph glyph-name="uni044E" unicode="&#x44e;" horiz-adv-x="853" 
d="M541 516q111 0 186.5 -75.5t75.5 -186.5t-76.5 -187.5t-187.5 -76.5q-108 0 -182.5 72t-79.5 179h-145v-241h-42v506h42v-230h146q9 103 84 171.5t179 68.5zM540 27q95 0 159 64.5t64 161.5t-64 161.5t-159 64.5t-159 -64.5t-64 -161.5t64 -161.5t159 -64.5z" />
    <glyph glyph-name="uni044F" unicode="&#x44f;" horiz-adv-x="552" 
d="M230 506h232v-506h-40v195h-177l-165 -195h-50l167 198q-61 11 -99 53t-38 99q0 68 47.5 112t122.5 44zM422 230v241h-184q-62 0 -100 -33.5t-38 -86.5q0 -54 38 -87.5t100 -33.5h184z" />
    <glyph glyph-name="uni0450" unicode="&#x450;" horiz-adv-x="606" 
d="M296 580l-95 160h45l85 -160h-35zM312 -10q-111 0 -186.5 75.5t-75.5 186.5t76.5 187.5t187.5 76.5q99 0 170.5 -73.5t71.5 -178.5v-4h-466q0 -103 63.5 -168t159.5 -65q39 0 73 11.5t55.5 27.5t37.5 32t23 28l7 11l29 -17q-3 -5 -8 -14t-25.5 -31.5t-44 -39.5t-63.5 -31
t-85 -14zM93 295h421q-11 79 -68.5 131.5t-132.5 52.5q-83 0 -144.5 -51.5t-75.5 -132.5z" />
    <glyph glyph-name="uni0451" unicode="&#x451;" horiz-adv-x="606" 
d="M219 620q-14 0 -24.5 10.5t-10.5 24.5t10.5 24.5t24.5 10.5t24.5 -10.5t10.5 -24.5t-10.5 -24.5t-24.5 -10.5zM409 620q-14 0 -24.5 10.5t-10.5 24.5t10.5 24.5t24.5 10.5t24.5 -10.5t10.5 -24.5t-10.5 -24.5t-24.5 -10.5zM312 -10q-111 0 -186.5 75.5t-75.5 186.5
t76.5 187.5t187.5 76.5q99 0 170.5 -73.5t71.5 -178.5v-4h-466q0 -103 63.5 -168t159.5 -65q39 0 73 11.5t55.5 27.5t37.5 32t23 28l7 11l29 -17q-3 -5 -8 -14t-25.5 -31.5t-44 -39.5t-63.5 -31t-85 -14zM93 295h421q-11 79 -68.5 131.5t-132.5 52.5q-83 0 -144.5 -51.5
t-75.5 -132.5z" />
    <glyph glyph-name="uni0452" unicode="&#x452;" horiz-adv-x="620" 
d="M338 516q86 0 144 -61.5t58 -180.5v-273q0 -86 -40 -128.5t-108 -42.5l-62 6l5 35q30 -4 58 -4q53 0 80 30t27 98v266q0 110 -48 164t-120 54q-83 0 -137.5 -55t-54.5 -170v-254h-40v591h-80v33h80v76h40v-76h185v-33h-185v-193q57 118 198 118z" />
    <glyph glyph-name="uni0453" unicode="&#x453;" horiz-adv-x="450" 
d="M237 580l85 160h45l-95 -160h-35zM90 0v506h330v-35h-290v-471h-40z" />
    <glyph glyph-name="uni0454" unicode="&#x454;" horiz-adv-x="550" 
d="M483 103l27 -23q-3 -4 -8 -10t-23 -21.5t-39 -27.5t-55.5 -21.5t-72.5 -9.5q-111 0 -186.5 75.5t-75.5 186.5t76.5 187.5t187.5 76.5q35 0 67.5 -8.5t54 -20t37.5 -23.5t23 -20l8 -9l-25 -26q-7 8 -19.5 19.5t-55.5 31t-91 19.5q-89 0 -151.5 -57.5t-70.5 -146.5h274v-35
h-275q5 -92 68.5 -152.5t154.5 -60.5q51 0 93.5 19t59.5 38z" />
    <glyph glyph-name="uni0455" unicode="&#x455;" horiz-adv-x="440" 
d="M95 394q0 -37 29 -64.5t101 -45.5q165 -41 165 -149q0 -60 -48 -102.5t-129 -42.5q-50 0 -94.5 15t-64.5 30l-19 15l22 31q7 -6 20.5 -15t54.5 -24t83 -15q63 0 99 28.5t36 69.5q0 43 -30.5 73t-114.5 50q-70 18 -110 53t-40 84q0 54 43.5 92.5t121.5 38.5q43 0 82 -12.5
t56 -25.5l17 -12l-22 -32q-6 5 -16 12.5t-44.5 20t-70.5 12.5q-60 0 -93.5 -26t-33.5 -59z" />
    <glyph glyph-name="uni0456" unicode="&#x456;" horiz-adv-x="232" 
d="M81 655q0 14 10.5 24.5t24.5 10.5t24.5 -10.5t10.5 -24.5t-10.5 -24.5t-24.5 -10.5t-24.5 10.5t-10.5 24.5zM95 506h42v-506h-42v506z" />
    <glyph glyph-name="uni0457" unicode="&#x457;" horiz-adv-x="232" 
d="M21 620q-14 0 -24.5 10.5t-10.5 24.5t10.5 24.5t24.5 10.5t24.5 -10.5t10.5 -24.5t-10.5 -24.5t-24.5 -10.5zM211 620q-14 0 -24.5 10.5t-10.5 24.5t10.5 24.5t24.5 10.5t24.5 -10.5t10.5 -24.5t-10.5 -24.5t-24.5 -10.5zM95 506h42v-506h-42v506z" />
    <glyph glyph-name="uni0458" unicode="&#x458;" horiz-adv-x="232" 
d="M81 655q0 14 10.5 24.5t24.5 10.5t24.5 -10.5t10.5 -24.5t-10.5 -24.5t-24.5 -10.5t-24.5 10.5t-10.5 24.5zM137 506v-525q0 -73 -38 -112t-100 -39q-16 0 -32 4t-24 8l-8 3l12 32q25 -10 53 -10q95 0 95 108v531h42z" />
    <glyph glyph-name="uni0459" unicode="&#x459;" horiz-adv-x="962" 
d="M30 -8l4 34q4 -1 8 -1q79 0 92 98l51 383h375v-180h181q78 0 129.5 -46.5t51.5 -115.5q0 -70 -49 -117t-126 -47h-227v471h-300l-47 -357q-7 -57 -41.5 -90.5t-85.5 -33.5zM560 35h179q64 0 103.5 36.5t39.5 91.5t-39.5 91.5t-103.5 36.5h-179v-256z" />
    <glyph glyph-name="uni045A" unicode="&#x45a;" horiz-adv-x="932" 
d="M90 0v506h40v-219h360v219h40v-180h181q78 0 129.5 -46.5t51.5 -115.5q0 -70 -49 -117t-126 -47h-227v252h-360v-252h-40zM530 35h179q64 0 103.5 36.5t39.5 91.5t-39.5 91.5t-103.5 36.5h-179v-256z" />
    <glyph glyph-name="uni045B" unicode="&#x45b;" horiz-adv-x="620" 
d="M338 516q86 0 144 -61.5t58 -180.5v-274h-40v261q0 110 -48 164t-120 54q-83 0 -137.5 -55t-54.5 -170v-254h-40v591h-80v33h80v76h40v-76h185v-33h-185v-193q57 118 198 118z" />
    <glyph glyph-name="uni045C" unicode="&#x45c;" horiz-adv-x="530" 
d="M247 580l85 160h45l-95 -160h-35zM90 0v506h40v-230l313 230h67l-326 -233l346 -273h-66l-334 269v-269h-40z" />
    <glyph glyph-name="uni045D" unicode="&#x45d;" horiz-adv-x="640" 
d="M302 580l-95 160h45l85 -160h-35zM510 453l-380 -453h-40v506h40v-447l375 447h45v-506h-40v453z" />
    <glyph glyph-name="uni045E" unicode="&#x45e;" horiz-adv-x="505" 
d="M254 580q-67 0 -111.5 44.5t-44.5 110.5v5h38v-5q0 -53 33 -86.5t86 -33.5t85 33t32 87v5h38v-5q0 -66 -44.5 -110.5t-111.5 -44.5zM10 506h45l198 -465l199 465h43l-225 -511q-72 -165 -188 -165q-24 0 -42 4t-24 8l-6 4l14 32q19 -11 58 -11q92 0 151 133z" />
    <glyph glyph-name="uni045F" unicode="&#x45f;" horiz-adv-x="620" 
d="M90 0v506h40v-471h360v471h40v-506h-200v-120h-40v120h-200z" />
    <glyph glyph-name="uni0462" unicode="&#x462;" horiz-adv-x="695" 
d="M419 405q99 0 162.5 -56.5t63.5 -144.5q0 -89 -61 -146.5t-159 -57.5h-285v536h-110v33h110v131h40v-131h190v-33h-190v-131h239zM417 35q84 0 136 47t52 121t-52 120.5t-136 46.5h-237v-335h237z" />
    <glyph glyph-name="uni0463" unicode="&#x463;" horiz-adv-x="542" 
d="M321 326q78 0 129.5 -46.5t51.5 -115.5q0 -70 -49 -117t-126 -47h-227v473h-80v33h80v194h40v-194h185v-33h-185v-147h181zM319 35q64 0 103.5 36.5t39.5 91.5t-39.5 91.5t-103.5 36.5h-179v-256h179z" />
    <glyph glyph-name="uni0472" unicode="&#x472;" horiz-adv-x="840" 
d="M421 710q151 0 255 -104t104 -255t-105 -256t-256 -105t-255 104t-104 255t105 256t256 105zM420 673q-131 0 -222 -87.5t-98 -218.5q67 50 172 50q45 0 86.5 -14t67.5 -31t64 -31t78 -14q85 0 171 55q-12 126 -102.5 208.5t-216.5 82.5zM420 27q134 0 225.5 90.5
t94.5 225.5q-66 -51 -173 -51q-57 0 -105.5 22.5t-94.5 45t-95 22.5q-88 0 -171 -55q8 -129 99 -214.5t220 -85.5z" />
    <glyph glyph-name="uni0473" unicode="&#x473;" horiz-adv-x="626" 
d="M314 516q111 0 186.5 -75.5t75.5 -186.5t-76.5 -187.5t-187.5 -76.5t-186.5 75.5t-75.5 186.5t76.5 187.5t187.5 76.5zM313 479q-91 0 -154 -59.5t-69 -151.5q44 37 121 37q49 0 108 -31t100 -31q66 0 115 39q-10 86 -72 141.5t-149 55.5zM313 27q92 0 155.5 61.5
t67.5 154.5q-42 -35 -118 -35q-49 0 -108 31t-99 31q-68 0 -120 -41q8 -88 71 -145t151 -57z" />
    <glyph glyph-name="uni0474" unicode="&#x474;" horiz-adv-x="730" 
d="M315 0l-305 700h43l283 -654l242 559q45 105 132 105v-35q-33 0 -55 -19t-42 -65l-258 -591h-40z" />
    <glyph glyph-name="uni0475" unicode="&#x475;" horiz-adv-x="564" 
d="M450 404l-178 -404h-39l-223 506h45l198 -461l161 373q23 53 51 75.5t69 22.5v-35q-29 0 -46.5 -16t-37.5 -61z" />
    <glyph glyph-name="uni0490" unicode="&#x490;" horiz-adv-x="590" 
d="M110 0v700h410v120h40v-155h-410v-665h-40z" />
    <glyph glyph-name="uni0491" unicode="&#x491;" horiz-adv-x="450" 
d="M90 0v506h290v120h40v-155h-290v-471h-40z" />
    <glyph glyph-name="uni0492" unicode="&#x492;" horiz-adv-x="590" 
d="M590 665h-410v-297h190v-35h-190v-333h-40v333h-110v35h110v332h450v-35z" />
    <glyph glyph-name="uni0493" unicode="&#x493;" horiz-adv-x="450" 
d="M430 471h-290v-211h155v-33h-155v-227h-40v227h-80v33h80v246h330v-35z" />
    <glyph glyph-name="uni0496" unicode="&#x496;" horiz-adv-x="1090" 
d="M987 35h73v-155h-40v120h-54l-431 356v-356h-40v356l-431 -356h-64l442 361l-422 339h64l411 -336v336h40v-336l411 336h64l-422 -339z" />
    <glyph glyph-name="uni0497" unicode="&#x497;" horiz-adv-x="890" 
d="M796 35h64v-155h-40v120h-46l-334 269v-269h-40v269l-334 -269h-66l346 273l-326 233h67l313 -230v230h40v-230l313 230h67l-326 -233z" />
    <glyph glyph-name="uni0498" unicode="&#x498;" horiz-adv-x="635" 
d="M560 188q0 -81 -69.5 -136.5t-181.5 -60.5v-111h-40v110q-43 2 -82.5 12t-65 23t-45 25.5t-28.5 21.5l-8 9l26 26q3 -3 9 -8.5t27.5 -19.5t45 -24.5t61.5 -19t78 -8.5q106 0 169.5 45.5t63.5 114.5q0 68 -66.5 115.5t-166.5 47.5h-77v35h80q92 0 151 41.5t59 103.5
q0 63 -56 103t-154 40q-36 0 -69.5 -7.5t-56 -18.5t-40 -22.5t-25.5 -18.5l-8 -8l-26 26l9 9t27.5 21t45.5 26t63 20.5t81 9.5q114 0 181.5 -50t67.5 -129q0 -121 -158 -163q83 -21 130.5 -66.5t47.5 -113.5z" />
    <glyph glyph-name="uni0499" unicode="&#x499;" horiz-adv-x="521" 
d="M471 135q0 -58 -53.5 -99t-153.5 -45v-111h-40v110q-50 2 -96 16t-67 27l-21 13l19 29q9 -5 24.5 -13t63 -21.5t94.5 -13.5q94 0 142 29.5t48 77.5q0 51 -51 83t-139 32h-57v35h59q83 0 128 27t45 73q0 44 -42.5 69.5t-130.5 25.5q-42 0 -83.5 -11.5t-61.5 -22.5l-21 -11
l-19 29q9 6 24.5 15t64 23.5t96.5 14.5q106 0 159.5 -37t53.5 -94q0 -45 -32.5 -75t-86.5 -44q60 -14 97 -48t37 -83z" />
    <glyph glyph-name="uni049A" unicode="&#x49a;" horiz-adv-x="705" 
d="M602 35h73v-155h-40v120h-54l-431 356v-356h-40v700h40v-336l411 336h64l-422 -339z" />
    <glyph glyph-name="uni049B" unicode="&#x49b;" horiz-adv-x="580" 
d="M486 35h64v-155h-40v120h-46l-334 269v-269h-40v506h40v-230l313 230h67l-326 -233z" />
    <glyph glyph-name="uni049C" unicode="&#x49c;" horiz-adv-x="745" 
d="M681 0l-377 343h-39v-193h-40v193h-75v-343h-40v700h40v-322h75v192h40v-192h40l356 322h64l-385 -339l405 -361h-64z" />
    <glyph glyph-name="uni049D" unicode="&#x49d;" horiz-adv-x="630" 
d="M564 0l-279 256h-50v-143h-40v143h-65v-256h-40v506h40v-215h65v142h40v-142h52l256 215h67l-289 -233l309 -273h-66z" />
    <glyph glyph-name="uni04A0" unicode="&#x4a0;" horiz-adv-x="725" 
d="M30 665v35h200v-336l411 336h64l-422 -339l442 -361h-64l-431 356v-356h-40v665h-160z" />
    <glyph glyph-name="uni04A1" unicode="&#x4a1;" horiz-adv-x="610" 
d="M30 471v35h180v-230l313 230h67l-326 -233l346 -273h-66l-334 269v-269h-40v471h-140z" />
    <glyph glyph-name="uni04A2" unicode="&#x4a2;" horiz-adv-x="780" 
d="M660 35h90v-155h-40v120h-90v355h-470v-355h-40v700h40v-310h470v310h40v-665z" />
    <glyph glyph-name="uni04A3" unicode="&#x4a3;" horiz-adv-x="640" 
d="M530 35h80v-155h-40v120h-80v252h-360v-252h-40v506h40v-219h360v219h40v-471z" />
    <glyph glyph-name="uni04A4" unicode="&#x4a4;" horiz-adv-x="1100" 
d="M110 0v700h40v-310h470v310h450v-35h-410v-665h-40v355h-470v-355h-40z" />
    <glyph glyph-name="uni04A5" unicode="&#x4a5;" horiz-adv-x="850" 
d="M90 0v506h40v-219h360v219h330v-35h-290v-471h-40v252h-360v-252h-40z" />
    <glyph glyph-name="uni04AA" unicode="&#x4aa;" horiz-adv-x="720" 
d="M680 101q-3 -4 -10 -11t-29.5 -24.5t-48 -31.5t-65.5 -27t-83 -16v-111h-40v110q-147 6 -245.5 109t-98.5 250q0 151 105 256t256 105q45 0 87.5 -10.5t71 -25.5t50.5 -30t32 -26l11 -10l-26 -25q-3 4 -10 10t-29 21.5t-46.5 27.5t-63 21.5t-78.5 9.5q-135 0 -227.5 -93
t-92.5 -230t92.5 -230t227.5 -93q42 0 81.5 10t66 24.5t47 29.5t30.5 24.5t10 10.5z" />
    <glyph glyph-name="uni04AB" unicode="&#x4ab;" horiz-adv-x="550" 
d="M510 80q-2 -3 -7 -8.5t-21.5 -20.5t-36 -26.5t-51 -22t-65.5 -12.5v-110h-40v111q-103 8 -171 82t-68 179q0 111 76.5 187.5t187.5 76.5q35 0 67.5 -8.5t54 -20t37.5 -23.5t23 -20l8 -9l-25 -26q-7 8 -19.5 19.5t-55.5 31t-91 19.5q-95 0 -159 -64.5t-64 -161.5
t64 -161.5t159 -64.5q51 0 93.5 19t59.5 38l17 19z" />
    <glyph glyph-name="uni04AE" unicode="&#x4ae;" horiz-adv-x="650" 
d="M305 0v290l-295 410h49l267 -376l267 376h47l-295 -410v-290h-40z" />
    <glyph glyph-name="uni04AF" unicode="&#x4af;" horiz-adv-x="505" 
d="M452 506h43l-223 -506v-160h-39v160l-223 506h45l198 -461z" />
    <glyph glyph-name="uni04B0" unicode="&#x4b0;" horiz-adv-x="650" 
d="M640 700l-283 -393h218v-33h-230v-274h-40v274h-230v33h218l-283 393h49l267 -376l267 376h47z" />
    <glyph glyph-name="uni04B1" unicode="&#x4b1;" horiz-adv-x="505" 
d="M495 506l-216 -489h161v-33h-168v-144h-39v144h-168v33h161l-216 489h45l198 -461l199 461h43z" />
    <glyph glyph-name="uni04B2" unicode="&#x4b2;" horiz-adv-x="693" 
d="M605 35h58v-155h-40v120h-41l-262 331l-261 -331h-49l287 359l-272 341h51l245 -312l248 312h49l-273 -340z" />
    <glyph glyph-name="uni04B3" unicode="&#x4b3;" horiz-adv-x="565" 
d="M484 35h51v-155h-40v120h-34l-199 231l-200 -231h-52l226 258l-216 248h54l189 -220l190 220h52l-216 -247z" />
    <glyph glyph-name="uni04B6" unicode="&#x4b6;" horiz-adv-x="695" 
d="M575 35h90v-155h-40v120h-90v304q-78 -49 -209 -49q-127 0 -201.5 75.5t-74.5 200.5v169h41v-168q0 -108 65 -174t175 -66q134 0 204 51v357h40v-665z" />
    <glyph glyph-name="uni04B7" unicode="&#x4b7;" horiz-adv-x="568" 
d="M458 35h80v-155h-40v120h-80v204q-61 -35 -158 -35q-100 0 -160 58.5t-60 150.5v128h40v-127q0 -78 49.5 -125.5t134.5 -47.5q97 0 154 37v263h40v-471z" />
    <glyph glyph-name="uni04B8" unicode="&#x4b8;" horiz-adv-x="705" 
d="M555 700h40v-700h-40v314q-82 -56 -212 -59v-155h-40v156q-117 7 -185 81.5t-68 193.5v169h41v-168q0 -101 56.5 -165.5t155.5 -73.5v227h40v-228q133 3 212 60v348z" />
    <glyph glyph-name="uni04B9" unicode="&#x4b9;" horiz-adv-x="568" 
d="M438 506h40v-506h-40v214q-61 -40 -159 -45v-114h-40v115q-91 6 -145 63t-54 145v128h40v-127q0 -72 42.5 -118.5t116.5 -53.5v168h40v-169q95 3 159 46v254z" />
    <glyph glyph-name="uni04BA" unicode="&#x4ba;" horiz-adv-x="685" 
d="M359 445q127 0 201.5 -75.5t74.5 -200.5v-169h-41v168q0 108 -65 174t-175 66q-134 0 -204 -51v-357h-40v700h40v-304q78 49 209 49z" />
    <glyph glyph-name="uni04BB" unicode="&#x4bb;" horiz-adv-x="610" 
d="M90 0v700h40v-302q57 118 198 118q86 0 144 -61.5t58 -180.5v-274h-40v261q0 110 -48 164t-120 54q-83 0 -137.5 -55t-54.5 -170v-254h-40z" />
    <glyph glyph-name="uni04C0" unicode="&#x4c0;" horiz-adv-x="272" 
d="M115 700h42v-700h-42v700z" />
    <glyph glyph-name="uni04C1" unicode="&#x4c1;" horiz-adv-x="1030" 
d="M515 774q-67 0 -111.5 44.5t-44.5 110.5v5h38v-5q0 -53 33 -86.5t86 -33.5t85 33t32 87v5h38v-5q0 -66 -44.5 -110.5t-111.5 -44.5zM0 0l442 361l-422 339h64l411 -336v336h40v-336l411 336h64l-422 -339l442 -361h-64l-431 356v-356h-40v356l-431 -356h-64z" />
    <glyph glyph-name="uni04C2" unicode="&#x4c2;" horiz-adv-x="840" 
d="M420 580q-67 0 -111.5 44.5t-44.5 110.5v5h38v-5q0 -53 33 -86.5t86 -33.5t85 33t32 87v5h38v-5q0 -66 -44.5 -110.5t-111.5 -44.5zM0 0l346 273l-326 233h67l313 -230v230h40v-230l313 230h67l-326 -233l346 -273h-66l-334 269v-269h-40v269l-334 -269h-66z" />
    <glyph glyph-name="uni04CF" unicode="&#x4cf;" horiz-adv-x="232" 
d="M95 506h42v-506h-42v506z" />
    <glyph glyph-name="uni04D0" unicode="&#x4d0;" horiz-adv-x="680" 
d="M340 760q-67 0 -111.5 44.5t-44.5 110.5v5h38v-5q0 -53 33 -86.5t86 -33.5t85 33t32 87v5h38v-5q0 -66 -44.5 -110.5t-111.5 -44.5zM10 0l310 700h40l310 -700h-43l-101 230h-374l-101 -230h-41zM166 263h345l-172 393z" />
    <glyph glyph-name="uni04D1" unicode="&#x4d1;" horiz-adv-x="560" 
d="M271 580q-67 0 -111.5 44.5t-44.5 110.5v5h38v-5q0 -53 33 -86.5t86 -33.5t85 33t32 87v5h38v-5q0 -66 -44.5 -110.5t-111.5 -44.5zM60 146q0 66 55 112.5t147 46.5q118 0 178 -68v53q0 96 -45.5 143.5t-124.5 47.5q-46 0 -85 -14t-55 -28l-15 -14l-25 26q7 7 20 18
t60 29t101 18q100 0 154.5 -58t54.5 -167v-291h-30l-7 61q-59 -71 -181 -71q-92 0 -147 45t-55 111zM100 147q0 -51 45 -85.5t122 -34.5q85 0 131.5 34t46.5 86t-46.5 86.5t-131.5 34.5q-77 0 -122 -35t-45 -86z" />
    <glyph glyph-name="uni04D2" unicode="&#x4d2;" horiz-adv-x="680" 
d="M245 800q-14 0 -24.5 10.5t-10.5 24.5t10.5 24.5t24.5 10.5t24.5 -10.5t10.5 -24.5t-10.5 -24.5t-24.5 -10.5zM435 800q-14 0 -24.5 10.5t-10.5 24.5t10.5 24.5t24.5 10.5t24.5 -10.5t10.5 -24.5t-10.5 -24.5t-24.5 -10.5zM10 0l310 700h40l310 -700h-43l-101 230h-374
l-101 -230h-41zM166 263h345l-172 393z" />
    <glyph glyph-name="uni04D3" unicode="&#x4d3;" horiz-adv-x="560" 
d="M176 620q-14 0 -24.5 10.5t-10.5 24.5t10.5 24.5t24.5 10.5t24.5 -10.5t10.5 -24.5t-10.5 -24.5t-24.5 -10.5zM366 620q-14 0 -24.5 10.5t-10.5 24.5t10.5 24.5t24.5 10.5t24.5 -10.5t10.5 -24.5t-10.5 -24.5t-24.5 -10.5zM60 146q0 66 55 112.5t147 46.5q118 0 178 -68
v53q0 96 -45.5 143.5t-124.5 47.5q-46 0 -85 -14t-55 -28l-15 -14l-25 26q7 7 20 18t60 29t101 18q100 0 154.5 -58t54.5 -167v-291h-30l-7 61q-59 -71 -181 -71q-92 0 -147 45t-55 111zM100 147q0 -51 45 -85.5t122 -34.5q85 0 131.5 34t46.5 86t-46.5 86.5t-131.5 34.5
q-77 0 -122 -35t-45 -86z" />
    <glyph glyph-name="uni04D4" unicode="&#x4d4;" horiz-adv-x="1045" 
d="M0 0l485 700h490v-35h-430v-281h380v-33h-380v-316h440v-35h-480v230h-300l-157 -230h-48zM228 263h277v403z" />
    <glyph glyph-name="uni04D5" unicode="&#x4d5;" horiz-adv-x="996" 
d="M262 -10q-92 0 -147 45t-55 111t55 112.5t147 46.5q118 0 178 -68v53q0 96 -45.5 143.5t-124.5 47.5q-46 0 -85 -13.5t-55 -27.5l-15 -13l-25 26q7 7 20 17.5t60 28t101 17.5q165 0 197 -152q31 69 93.5 110.5t142.5 41.5q99 0 170.5 -73.5t71.5 -178.5v-4h-466
q0 -103 63.5 -168t159.5 -65q39 0 73 11.5t55.5 27.5t37.5 32t23 28l7 11l29 -17q-3 -5 -8 -14t-25.5 -31.5t-44 -39.5t-63.5 -31t-85 -14q-76 0 -136 37t-92 100q-9 -61 -63 -99t-149 -38zM483 293h421q-11 80 -68 133t-133 53q-84 0 -145 -52t-75 -134zM267 27
q85 0 131.5 34t46.5 86t-46.5 86.5t-131.5 34.5q-77 0 -122 -35t-45 -86t45 -85.5t122 -34.5z" />
    <glyph glyph-name="uni04D6" unicode="&#x4d6;" horiz-adv-x="650" 
d="M345 760q-67 0 -111.5 44.5t-44.5 110.5v5h38v-5q0 -53 33 -86.5t86 -33.5t85 33t32 87v5h38v-5q0 -66 -44.5 -110.5t-111.5 -44.5zM110 0v700h470v-35h-430v-281h380v-33h-380v-316h440v-35h-480z" />
    <glyph glyph-name="uni04D7" unicode="&#x4d7;" horiz-adv-x="606" 
d="M314 580q-67 0 -111.5 44.5t-44.5 110.5v5h38v-5q0 -53 33 -86.5t86 -33.5t85 33t32 87v5h38v-5q0 -66 -44.5 -110.5t-111.5 -44.5zM312 -10q-111 0 -186.5 75.5t-75.5 186.5t76.5 187.5t187.5 76.5q99 0 170.5 -73.5t71.5 -178.5v-4h-466q0 -103 63.5 -168t159.5 -65
q39 0 73 11.5t55.5 27.5t37.5 32t23 28l7 11l29 -17q-3 -5 -8 -14t-25.5 -31.5t-44 -39.5t-63.5 -31t-85 -14zM93 295h421q-11 79 -68.5 131.5t-132.5 52.5q-83 0 -144.5 -51.5t-75.5 -132.5z" />
    <glyph glyph-name="uni04D8" unicode="&#x4d8;" horiz-adv-x="817" 
d="M399 710q152 0 255 -103.5t103 -255.5t-104.5 -256.5t-256.5 -104.5q-140 0 -238 100.5t-98 244.5v5h657v11q0 136 -94.5 229t-225.5 93q-53 0 -101 -16.5t-78.5 -39.5t-53.5 -46.5t-33 -40.5l-10 -16l-32 18q4 7 11.5 19t35 43t60 54.5t87.5 42.5t116 19zM397 27
q122 0 211 78t106 198h-612q17 -116 95.5 -196t199.5 -80z" />
    <glyph glyph-name="uni04D9" unicode="&#x4d9;" horiz-adv-x="606" 
d="M294 516q111 0 186.5 -75.5t75.5 -186.5t-76.5 -187.5t-187.5 -76.5q-99 0 -170.5 73.5t-71.5 178.5v4h466q0 103 -63.5 168t-159.5 65q-39 0 -73 -11.5t-55.5 -27.5t-37.5 -32t-23 -28l-7 -11l-29 17q3 5 8 14t25.5 31.5t44 39.5t63.5 31t85 14zM513 211h-421
q11 -79 68.5 -131.5t132.5 -52.5q83 0 144.5 51.5t75.5 132.5z" />
    <glyph glyph-name="uni04DA" unicode="&#x4da;" horiz-adv-x="817" 
d="M304 814q-14 0 -24.5 10.5t-10.5 24.5t10.5 24.5t24.5 10.5t24.5 -10.5t10.5 -24.5t-10.5 -24.5t-24.5 -10.5zM494 814q-14 0 -24.5 10.5t-10.5 24.5t10.5 24.5t24.5 10.5t24.5 -10.5t10.5 -24.5t-10.5 -24.5t-24.5 -10.5zM399 710q152 0 255 -103.5t103 -255.5
t-104.5 -256.5t-256.5 -104.5q-140 0 -238 100.5t-98 244.5v5h657v11q0 136 -94.5 229t-225.5 93q-53 0 -101 -16.5t-78.5 -39.5t-53.5 -46.5t-33 -40.5l-10 -16l-32 18q4 7 11.5 19t35 43t60 54.5t87.5 42.5t116 19zM397 27q122 0 211 78t106 198h-612q17 -116 95.5 -196
t199.5 -80z" />
    <glyph glyph-name="uni04DB" unicode="&#x4db;" horiz-adv-x="606" 
d="M208 620q-14 0 -24.5 10.5t-10.5 24.5t10.5 24.5t24.5 10.5t24.5 -10.5t10.5 -24.5t-10.5 -24.5t-24.5 -10.5zM398 620q-14 0 -24.5 10.5t-10.5 24.5t10.5 24.5t24.5 10.5t24.5 -10.5t10.5 -24.5t-10.5 -24.5t-24.5 -10.5zM294 516q111 0 186.5 -75.5t75.5 -186.5
t-76.5 -187.5t-187.5 -76.5q-99 0 -170.5 73.5t-71.5 178.5v4h466q0 103 -63.5 168t-159.5 65q-39 0 -73 -11.5t-55.5 -27.5t-37.5 -32t-23 -28l-7 -11l-29 17q3 5 8 14t25.5 31.5t44 39.5t63.5 31t85 14zM513 211h-421q11 -79 68.5 -131.5t132.5 -52.5q83 0 144.5 51.5
t75.5 132.5z" />
    <glyph glyph-name="uni04DC" unicode="&#x4dc;" horiz-adv-x="1030" 
d="M420 814q-14 0 -24.5 10.5t-10.5 24.5t10.5 24.5t24.5 10.5t24.5 -10.5t10.5 -24.5t-10.5 -24.5t-24.5 -10.5zM610 814q-14 0 -24.5 10.5t-10.5 24.5t10.5 24.5t24.5 10.5t24.5 -10.5t10.5 -24.5t-10.5 -24.5t-24.5 -10.5zM0 0l442 361l-422 339h64l411 -336v336h40v-336
l411 336h64l-422 -339l442 -361h-64l-431 356v-356h-40v356l-431 -356h-64z" />
    <glyph glyph-name="uni04DD" unicode="&#x4dd;" horiz-adv-x="840" 
d="M325 620q-14 0 -24.5 10.5t-10.5 24.5t10.5 24.5t24.5 10.5t24.5 -10.5t10.5 -24.5t-10.5 -24.5t-24.5 -10.5zM515 620q-14 0 -24.5 10.5t-10.5 24.5t10.5 24.5t24.5 10.5t24.5 -10.5t10.5 -24.5t-10.5 -24.5t-24.5 -10.5zM0 0l346 273l-326 233h67l313 -230v230h40v-230
l313 230h67l-326 -233l346 -273h-66l-334 269v-269h-40v269l-334 -269h-66z" />
    <glyph glyph-name="uni04DE" unicode="&#x4de;" horiz-adv-x="635" 
d="M196 814q-14 0 -24.5 10.5t-10.5 24.5t10.5 24.5t24.5 10.5t24.5 -10.5t10.5 -24.5t-10.5 -24.5t-24.5 -10.5zM386 814q-14 0 -24.5 10.5t-10.5 24.5t10.5 24.5t24.5 10.5t24.5 -10.5t10.5 -24.5t-10.5 -24.5t-24.5 -10.5zM286 -10q-46 0 -88.5 9.5t-70 22.5t-48 26.5
t-29.5 23.5l-10 9l26 26q3 -3 9 -8.5t27.5 -19.5t45 -24.5t61.5 -19t78 -8.5q106 0 169.5 45.5t63.5 114.5q0 68 -66.5 115.5t-166.5 47.5h-77v35h80q92 0 151 41.5t59 103.5q0 63 -56 103t-154 40q-36 0 -69.5 -7.5t-56 -18.5t-40 -22.5t-25.5 -18.5l-8 -8l-26 26l9 9
t27.5 21t45.5 26t63 20.5t81 9.5q114 0 181.5 -50t67.5 -129q0 -121 -158 -163q83 -21 130.5 -66.5t47.5 -113.5q0 -85 -76.5 -141.5t-197.5 -56.5z" />
    <glyph glyph-name="uni04DF" unicode="&#x4df;" horiz-adv-x="521" 
d="M148 620q-14 0 -24.5 10.5t-10.5 24.5t10.5 24.5t24.5 10.5t24.5 -10.5t10.5 -24.5t-10.5 -24.5t-24.5 -10.5zM338 620q-14 0 -24.5 10.5t-10.5 24.5t10.5 24.5t24.5 10.5t24.5 -10.5t10.5 -24.5t-10.5 -24.5t-24.5 -10.5zM240 -10q-54 0 -104 14t-73 28l-23 14l19 29
q9 -5 24.5 -13t63 -21.5t94.5 -13.5q94 0 142 29.5t48 77.5q0 51 -51 83t-139 32h-57v35h59q83 0 128 27t45 73q0 44 -42.5 69.5t-130.5 25.5q-42 0 -83.5 -11.5t-61.5 -22.5l-21 -11l-19 29q9 6 24.5 15t64 23.5t96.5 14.5q106 0 159.5 -37t53.5 -94q0 -45 -32.5 -75
t-86.5 -44q60 -14 97 -48t37 -83q0 -62 -60 -103.5t-171 -41.5z" />
    <glyph glyph-name="uni04E2" unicode="&#x4e2;" horiz-adv-x="790" 
d="M215 824v33h360v-33h-360zM640 644l-490 -644h-40v700h40v-638l485 638h45v-700h-40v644z" />
    <glyph glyph-name="uni04E3" unicode="&#x4e3;" horiz-adv-x="640" 
d="M140 644v33h360v-33h-360zM510 453l-380 -453h-40v506h40v-447l375 447h45v-506h-40v453z" />
    <glyph glyph-name="uni04E4" unicode="&#x4e4;" horiz-adv-x="790" 
d="M300 800q-14 0 -24.5 10.5t-10.5 24.5t10.5 24.5t24.5 10.5t24.5 -10.5t10.5 -24.5t-10.5 -24.5t-24.5 -10.5zM490 800q-14 0 -24.5 10.5t-10.5 24.5t10.5 24.5t24.5 10.5t24.5 -10.5t10.5 -24.5t-10.5 -24.5t-24.5 -10.5zM640 644l-490 -644h-40v700h40v-638l485 638h45
v-700h-40v644z" />
    <glyph glyph-name="uni04E5" unicode="&#x4e5;" horiz-adv-x="640" 
d="M225 620q-14 0 -24.5 10.5t-10.5 24.5t10.5 24.5t24.5 10.5t24.5 -10.5t10.5 -24.5t-10.5 -24.5t-24.5 -10.5zM415 620q-14 0 -24.5 10.5t-10.5 24.5t10.5 24.5t24.5 10.5t24.5 -10.5t10.5 -24.5t-10.5 -24.5t-24.5 -10.5zM510 453l-380 -453h-40v506h40v-447l375 447h45
v-506h-40v453z" />
    <glyph glyph-name="uni04E6" unicode="&#x4e6;" horiz-adv-x="840" 
d="M325 800q-14 0 -24.5 10.5t-10.5 24.5t10.5 24.5t24.5 10.5t24.5 -10.5t10.5 -24.5t-10.5 -24.5t-24.5 -10.5zM515 800q-14 0 -24.5 10.5t-10.5 24.5t10.5 24.5t24.5 10.5t24.5 -10.5t10.5 -24.5t-10.5 -24.5t-24.5 -10.5zM60 349q0 151 105 256t256 105t255 -104
t104 -255t-105 -256t-256 -105t-255 104t-104 255zM100 350q0 -137 92.5 -230t227.5 -93t227.5 93t92.5 230t-92.5 230t-227.5 93t-227.5 -93t-92.5 -230z" />
    <glyph glyph-name="uni04E7" unicode="&#x4e7;" horiz-adv-x="626" 
d="M218 620q-14 0 -24.5 10.5t-10.5 24.5t10.5 24.5t24.5 10.5t24.5 -10.5t10.5 -24.5t-10.5 -24.5t-24.5 -10.5zM408 620q-14 0 -24.5 10.5t-10.5 24.5t10.5 24.5t24.5 10.5t24.5 -10.5t10.5 -24.5t-10.5 -24.5t-24.5 -10.5zM50 252q0 111 76.5 187.5t187.5 76.5
t186.5 -75.5t75.5 -186.5t-76.5 -187.5t-187.5 -76.5t-186.5 75.5t-75.5 186.5zM90 253q0 -97 64 -161.5t159 -64.5t159 64.5t64 161.5t-64 161.5t-159 64.5t-159 -64.5t-64 -161.5z" />
    <glyph glyph-name="uni04E8" unicode="&#x4e8;" horiz-adv-x="840" 
d="M421 710q151 0 255 -104t104 -255t-105 -256t-256 -105t-255 104t-104 255t105 256t256 105zM420 673q-130 0 -220.5 -86t-98.5 -215h638q-8 129 -98.5 215t-220.5 86zM420 27q132 0 223.5 88.5t96.5 221.5h-640q5 -133 96.5 -221.5t223.5 -88.5z" />
    <glyph glyph-name="uni04E9" unicode="&#x4e9;" horiz-adv-x="626" 
d="M314 516q111 0 186.5 -75.5t75.5 -186.5t-76.5 -187.5t-187.5 -76.5t-186.5 75.5t-75.5 186.5t76.5 187.5t187.5 76.5zM313 479q-89 0 -152 -58.5t-70 -147.5h444q-7 89 -70 147.5t-152 58.5zM313 27q91 0 154 60t69 151h-446q6 -91 69 -151t154 -60z" />
    <glyph glyph-name="uni04EA" unicode="&#x4ea;" horiz-adv-x="840" 
d="M325 814q-14 0 -24.5 10.5t-10.5 24.5t10.5 24.5t24.5 10.5t24.5 -10.5t10.5 -24.5t-10.5 -24.5t-24.5 -10.5zM515 814q-14 0 -24.5 10.5t-10.5 24.5t10.5 24.5t24.5 10.5t24.5 -10.5t10.5 -24.5t-10.5 -24.5t-24.5 -10.5zM421 710q151 0 255 -104t104 -255t-105 -256
t-256 -105t-255 104t-104 255t105 256t256 105zM420 673q-130 0 -220.5 -86t-98.5 -215h638q-8 129 -98.5 215t-220.5 86zM420 27q132 0 223.5 88.5t96.5 221.5h-640q5 -133 96.5 -221.5t223.5 -88.5z" />
    <glyph glyph-name="uni04EB" unicode="&#x4eb;" horiz-adv-x="626" 
d="M218 620q-14 0 -24.5 10.5t-10.5 24.5t10.5 24.5t24.5 10.5t24.5 -10.5t10.5 -24.5t-10.5 -24.5t-24.5 -10.5zM408 620q-14 0 -24.5 10.5t-10.5 24.5t10.5 24.5t24.5 10.5t24.5 -10.5t10.5 -24.5t-10.5 -24.5t-24.5 -10.5zM314 516q111 0 186.5 -75.5t75.5 -186.5
t-76.5 -187.5t-187.5 -76.5t-186.5 75.5t-75.5 186.5t76.5 187.5t187.5 76.5zM313 479q-89 0 -152 -58.5t-70 -147.5h444q-7 89 -70 147.5t-152 58.5zM313 27q91 0 154 60t69 151h-446q6 -91 69 -151t154 -60z" />
    <glyph glyph-name="uni04EC" unicode="&#x4ec;" horiz-adv-x="720" 
d="M206 814q-14 0 -24.5 10.5t-10.5 24.5t10.5 24.5t24.5 10.5t24.5 -10.5t10.5 -24.5t-10.5 -24.5t-24.5 -10.5zM396 814q-14 0 -24.5 10.5t-10.5 24.5t10.5 24.5t24.5 10.5t24.5 -10.5t10.5 -24.5t-10.5 -24.5t-24.5 -10.5zM301 710q151 0 255 -104t104 -255t-105 -256
t-256 -105q-47 0 -91 11t-73 27t-51.5 32.5t-33.5 27.5l-10 11l27 26l10.5 -10.5t29.5 -23.5t48 -30t64.5 -23.5t80.5 -10.5q134 0 225.5 90.5t94.5 225.5h-380v35h379q-11 127 -101 211t-218 84q-42 0 -81.5 -10t-66 -24.5t-47 -29.5t-30.5 -24.5t-10 -10.5l-25 25
q4 5 11 12t32.5 26.5t53.5 34t72.5 26.5t91.5 12z" />
    <glyph glyph-name="uni04ED" unicode="&#x4ed;" horiz-adv-x="550" 
d="M143 620q-14 0 -24.5 10.5t-10.5 24.5t10.5 24.5t24.5 10.5t24.5 -10.5t10.5 -24.5t-10.5 -24.5t-24.5 -10.5zM333 620q-14 0 -24.5 10.5t-10.5 24.5t10.5 24.5t24.5 10.5t24.5 -10.5t10.5 -24.5t-10.5 -24.5t-24.5 -10.5zM238 516q111 0 186.5 -75.5t75.5 -186.5
t-76.5 -187.5t-187.5 -76.5q-35 0 -67.5 8.5t-53.5 20t-37.5 23.5t-23.5 20l-8 9l25 26q7 -8 19.5 -19.5t55.5 -31t91 -19.5q92 0 155.5 61t67.5 153h-275v35h274q-8 88 -71 145.5t-151 57.5q-51 0 -93.5 -19t-59.5 -38l-17 -19l-27 23q3 4 8 10t23 21.5t39 27.5t55.5 21.5
t72.5 9.5z" />
    <glyph glyph-name="uni04EE" unicode="&#x4ee;" horiz-adv-x="670" 
d="M516 871v-33h-360v33h360zM617 700h43l-305 -545q-93 -165 -208 -165q-28 0 -51 5.5t-32 10.5l-9 6l14 33q30 -18 78 -18q90 0 168 129l-305 544h45l281 -507z" />
    <glyph glyph-name="uni04EF" unicode="&#x4ef;" horiz-adv-x="505" 
d="M74 644v33h360v-33h-360zM10 506h45l198 -465l199 465h43l-225 -511q-72 -165 -188 -165q-24 0 -42 4t-24 8l-6 4l14 32q19 -11 58 -11q92 0 151 133z" />
    <glyph glyph-name="uni04F0" unicode="&#x4f0;" horiz-adv-x="670" 
d="M241 814q-14 0 -24.5 10.5t-10.5 24.5t10.5 24.5t24.5 10.5t24.5 -10.5t10.5 -24.5t-10.5 -24.5t-24.5 -10.5zM431 814q-14 0 -24.5 10.5t-10.5 24.5t10.5 24.5t24.5 10.5t24.5 -10.5t10.5 -24.5t-10.5 -24.5t-24.5 -10.5zM617 700h43l-305 -545q-93 -165 -208 -165
q-28 0 -51 5.5t-32 10.5l-9 6l14 33q30 -18 78 -18q90 0 168 129l-305 544h45l281 -507z" />
    <glyph glyph-name="uni04F1" unicode="&#x4f1;" horiz-adv-x="505" 
d="M159 620q-14 0 -24.5 10.5t-10.5 24.5t10.5 24.5t24.5 10.5t24.5 -10.5t10.5 -24.5t-10.5 -24.5t-24.5 -10.5zM349 620q-14 0 -24.5 10.5t-10.5 24.5t10.5 24.5t24.5 10.5t24.5 -10.5t10.5 -24.5t-10.5 -24.5t-24.5 -10.5zM10 506h45l198 -465l199 465h43l-225 -511
q-72 -165 -188 -165q-24 0 -42 4t-24 8l-6 4l14 32q19 -11 58 -11q92 0 151 133z" />
    <glyph glyph-name="uni04F2" unicode="&#x4f2;" horiz-adv-x="670" 
d="M343 934l-75 -160h-35l65 160h45zM513 934l-75 -160h-35l65 160h45zM617 700h43l-305 -545q-93 -165 -208 -165q-28 0 -51 5.5t-32 10.5l-9 6l14 33q30 -18 78 -18q90 0 168 129l-305 544h45l281 -507z" />
    <glyph glyph-name="uni04F3" unicode="&#x4f3;" horiz-adv-x="505" 
d="M151 580l65 160h45l-75 -160h-35zM321 580l65 160h45l-75 -160h-35zM10 506h45l198 -465l199 465h43l-225 -511q-72 -165 -188 -165q-24 0 -42 4t-24 8l-6 4l14 32q19 -11 58 -11q92 0 151 133z" />
    <glyph glyph-name="uni04F4" unicode="&#x4f4;" horiz-adv-x="685" 
d="M218 814q-14 0 -24.5 10.5t-10.5 24.5t10.5 24.5t24.5 10.5t24.5 -10.5t10.5 -24.5t-10.5 -24.5t-24.5 -10.5zM408 814q-14 0 -24.5 10.5t-10.5 24.5t10.5 24.5t24.5 10.5t24.5 -10.5t10.5 -24.5t-10.5 -24.5t-24.5 -10.5zM535 700h40v-700h-40v304q-78 -49 -209 -49
q-127 0 -201.5 75.5t-74.5 200.5v169h41v-168q0 -108 65 -174t175 -66q134 0 204 51v357z" />
    <glyph glyph-name="uni04F5" unicode="&#x4f5;" horiz-adv-x="548" 
d="M154 620q-14 0 -24.5 10.5t-10.5 24.5t10.5 24.5t24.5 10.5t24.5 -10.5t10.5 -24.5t-10.5 -24.5t-24.5 -10.5zM344 620q-14 0 -24.5 10.5t-10.5 24.5t10.5 24.5t24.5 10.5t24.5 -10.5t10.5 -24.5t-10.5 -24.5t-24.5 -10.5zM418 506h40v-506h-40v204q-61 -35 -158 -35
q-100 0 -160 58.5t-60 150.5v128h40v-127q0 -78 49.5 -125.5t134.5 -47.5q97 0 154 37v263z" />
    <glyph glyph-name="uni04F8" unicode="&#x4f8;" horiz-adv-x="937" 
d="M374 814q-14 0 -24.5 10.5t-10.5 24.5t10.5 24.5t24.5 10.5t24.5 -10.5t10.5 -24.5t-10.5 -24.5t-24.5 -10.5zM564 814q-14 0 -24.5 10.5t-10.5 24.5t10.5 24.5t24.5 10.5t24.5 -10.5t10.5 -24.5t-10.5 -24.5t-24.5 -10.5zM110 0v700h40v-275h229q103 0 169.5 -60
t66.5 -151q0 -92 -64 -153t-166 -61h-275zM780 700h42v-700h-42v700zM150 35h227q88 0 143 50.5t55 127.5t-55 127t-143 50h-227v-355z" />
    <glyph glyph-name="uni04F9" unicode="&#x4f9;" horiz-adv-x="764" 
d="M287 620q-14 0 -24.5 10.5t-10.5 24.5t10.5 24.5t24.5 10.5t24.5 -10.5t10.5 -24.5t-10.5 -24.5t-24.5 -10.5zM477 620q-14 0 -24.5 10.5t-10.5 24.5t10.5 24.5t24.5 10.5t24.5 -10.5t10.5 -24.5t-10.5 -24.5t-24.5 -10.5zM90 0v506h40v-180h181q78 0 129.5 -46.5
t51.5 -115.5q0 -70 -49 -117t-126 -47h-227zM627 506h42v-506h-42v506zM130 35h179q64 0 103.5 36.5t39.5 91.5t-39.5 91.5t-103.5 36.5h-179v-256z" />
    <glyph glyph-name="Wgrave" unicode="&#x1e80;" horiz-adv-x="965" 
d="M466 760l-95 160h45l85 -160h-35zM10 700h43l217 -640l199 640h29l198 -640l218 640h41l-240 -700h-38l-195 618l-194 -618h-38z" />
    <glyph glyph-name="wgrave" unicode="&#x1e81;" horiz-adv-x="765" 
d="M365 580l-95 160h45l85 -160h-35zM10 506h45l163 -449l150 449h31l150 -449l163 449h43l-188 -506h-38l-147 433l-146 -433h-38z" />
    <glyph glyph-name="Wacute" unicode="&#x1e82;" horiz-adv-x="965" 
d="M466 760l85 160h45l-95 -160h-35zM10 700h43l217 -640l199 640h29l198 -640l218 640h41l-240 -700h-38l-195 618l-194 -618h-38z" />
    <glyph glyph-name="wacute" unicode="&#x1e83;" horiz-adv-x="765" 
d="M365 580l85 160h45l-95 -160h-35zM10 506h45l163 -449l150 449h31l150 -449l163 449h43l-188 -506h-38l-147 433l-146 -433h-38z" />
    <glyph glyph-name="Wdieresis" unicode="&#x1e84;" horiz-adv-x="965" 
d="M389 800q-14 0 -24.5 10.5t-10.5 24.5t10.5 24.5t24.5 10.5t24.5 -10.5t10.5 -24.5t-10.5 -24.5t-24.5 -10.5zM579 800q-14 0 -24.5 10.5t-10.5 24.5t10.5 24.5t24.5 10.5t24.5 -10.5t10.5 -24.5t-10.5 -24.5t-24.5 -10.5zM10 700h43l217 -640l199 640h29l198 -640
l218 640h41l-240 -700h-38l-195 618l-194 -618h-38z" />
    <glyph glyph-name="wdieresis" unicode="&#x1e85;" horiz-adv-x="765" 
d="M288 620q-14 0 -24.5 10.5t-10.5 24.5t10.5 24.5t24.5 10.5t24.5 -10.5t10.5 -24.5t-10.5 -24.5t-24.5 -10.5zM478 620q-14 0 -24.5 10.5t-10.5 24.5t10.5 24.5t24.5 10.5t24.5 -10.5t10.5 -24.5t-10.5 -24.5t-24.5 -10.5zM10 506h45l163 -449l150 449h31l150 -449
l163 449h43l-188 -506h-38l-147 433l-146 -433h-38z" />
    <glyph glyph-name="uni1E9E" unicode="&#x1e9e;" horiz-adv-x="715" 
d="M417 -10q-29 0 -52 3t-31 5l-9 3l10 33q27 -9 77 -9q90 0 149 54t59 134t-59 135t-149 55h-42v25l188 176q-69 69 -188 69q-100 0 -165 -70t-65 -180v-423h-40v419q0 127 77 209t194 82q43 0 84 -11t67.5 -26t47.5 -30.5t30 -26.5l10 -11l-181 -169q99 -4 165 -68
t66 -156q0 -95 -70 -158.5t-173 -63.5z" />
    <glyph glyph-name="Ygrave" unicode="&#x1ef2;" horiz-adv-x="650" 
d="M308 760l-95 160h45l85 -160h-35zM305 0v290l-295 410h49l267 -376l267 376h47l-295 -410v-290h-40z" />
    <glyph glyph-name="ygrave" unicode="&#x1ef3;" horiz-adv-x="505" 
d="M236 580l-95 160h45l85 -160h-35zM10 506h45l198 -465l199 465h43l-225 -511q-72 -165 -188 -165q-24 0 -42 4t-24 8l-6 4l14 32q19 -11 58 -11q92 0 151 133z" />
    <glyph glyph-name="endash" unicode="&#x2013;" horiz-adv-x="570" 
d="M50 340v35h470v-35h-470z" />
    <glyph glyph-name="emdash" unicode="&#x2014;" horiz-adv-x="900" 
d="M50 340v35h800v-35h-800z" />
    <glyph glyph-name="quoteleft" unicode="&#x2018;" horiz-adv-x="150" 
d="M110 700l-25 -210h-45l35 210h35z" />
    <glyph glyph-name="quoteright" unicode="&#x2019;" horiz-adv-x="150" 
d="M40 490l25 210h45l-35 -210h-35z" />
    <glyph glyph-name="quotesinglbase" unicode="&#x201a;" horiz-adv-x="150" 
d="M40 -130l25 210h45l-35 -210h-35z" />
    <glyph glyph-name="quotedblleft" unicode="&#x201c;" horiz-adv-x="280" 
d="M110 700l-25 -210h-45l35 210h35zM240 700l-25 -210h-45l35 210h35z" />
    <glyph glyph-name="quotedblright" unicode="&#x201d;" horiz-adv-x="280" 
d="M40 490l25 210h45l-35 -210h-35zM170 490l25 210h45l-35 -210h-35z" />
    <glyph glyph-name="quotedblbase" unicode="&#x201e;" horiz-adv-x="280" 
d="M40 -130l25 210h45l-35 -210h-35zM170 -130l25 210h45l-35 -210h-35z" />
    <glyph glyph-name="dagger" unicode="&#x2020;" horiz-adv-x="400" 
d="M220 520v-260h-40v260h-140v35h140v145h40v-145h140v-35h-140z" />
    <glyph glyph-name="daggerdbl" unicode="&#x2021;" horiz-adv-x="400" 
d="M180 150v145h-140v35h140v190h-140v35h140v145h40v-145h140v-35h-140v-190h140v-35h-140v-145h-40z" />
    <glyph glyph-name="bullet" unicode="&#x2022;" horiz-adv-x="290" 
d="M144 265q-36 0 -60 24t-24 60q0 37 24.5 61.5t60.5 24.5q37 0 61 -24t24 -61q0 -36 -24.5 -60.5t-61.5 -24.5z" />
    <glyph glyph-name="perthousand" unicode="&#x2030;" horiz-adv-x="1110" 
d="M192 326q-61 0 -101.5 40.5t-40.5 101.5t40.5 101.5t101.5 40.5t101.5 -40.5t40.5 -101.5t-40.5 -101.5t-101.5 -40.5zM152 0l415 600h41l-415 -600h-41zM192 361q45 0 74.5 30.5t29.5 76.5t-29.5 76.5t-74.5 30.5t-74.5 -30.5t-29.5 -76.5t29.5 -76.5t74.5 -30.5z
M568 -10q-61 0 -101.5 40.5t-40.5 101.5t40.5 101.5t101.5 40.5t101.5 -40.5t40.5 -101.5t-40.5 -101.5t-101.5 -40.5zM918 -10q-61 0 -101.5 40.5t-40.5 101.5t40.5 101.5t101.5 40.5t101.5 -40.5t40.5 -101.5t-40.5 -101.5t-101.5 -40.5zM568 25q45 0 74.5 30.5t29.5 76.5
t-29.5 76.5t-74.5 30.5t-74.5 -30.5t-29.5 -76.5t29.5 -76.5t74.5 -30.5zM918 25q45 0 74.5 30.5t29.5 76.5t-29.5 76.5t-74.5 30.5t-74.5 -30.5t-29.5 -76.5t29.5 -76.5t74.5 -30.5z" />
    <glyph glyph-name="guilsinglleft" unicode="&#x2039;" horiz-adv-x="430" 
d="M102 351l248 -224l-25 -27l-275 240v20l275 240l25 -25z" />
    <glyph glyph-name="guilsinglright" unicode="&#x203a;" horiz-adv-x="430" 
d="M327 349l-247 224l25 27l275 -240v-20l-275 -240l-25 25z" />
    <glyph glyph-name="fraction" unicode="&#x2044;" horiz-adv-x="180" 
d="M330 700h40l-520 -700h-40z" />
    <glyph glyph-name="Euro" unicode="&#x20ac;" 
d="M369 -10q-99 0 -159 61t-60 168v32h-100v33h100v132h-100v33h100v30q0 107 61 169t160 62q43 0 78 -11t55 -27t33.5 -32.5t18.5 -27.5l4 -11l-34 -16q-1 4 -4 9.5t-15 21t-28 27t-45 21t-64 9.5q-82 0 -131 -50.5t-49 -137.5v-36h290v-33h-290v-132h270v-33h-270v-36
q0 -87 49 -137.5t131 -50.5q35 0 64 9t45 22t27.5 26t15.5 22l4 9l34 -14q-2 -5 -5 -12t-18 -26.5t-34.5 -34t-55 -26.5t-78.5 -12z" />
    <glyph glyph-name="trademark" unicode="&#x2122;" horiz-adv-x="763" 
d="M207 667v-282h-38v282h-109v33h255v-33h-108zM426 635v-250h-38v315h40l118 -209l119 209h38v-315h-38v250l-110 -193h-19z" />
    <glyph glyph-name="minus" unicode="&#x2212;" 
d="M50 340v35h500v-35h-500z" />
    <glyph glyph-name="uni2713" unicode="&#x2713;" horiz-adv-x="784" 
d="M73 332l25 25l184 -184l404 404l25 -25l-429 -429z" />
    <glyph glyph-name="G.ss01" horiz-adv-x="775" 
d="M419 -10q-151 0 -255 104t-104 255t105 256t256 105q45 0 87.5 -10t70.5 -25t50 -29.5t32 -24.5l10 -10l-27 -27q-3 4 -9.5 10t-28 21t-45.5 27t-62.5 21.5t-78.5 9.5q-135 0 -227.5 -93t-92.5 -230t92.5 -230t227.5 -93q49 0 93.5 11t72.5 27t49 32t31 27l9 11v165h-255
v35h295v-210q-4 -5 -11 -14.5t-34 -32.5t-58 -41t-83.5 -32.5t-109.5 -14.5z" />
    <glyph glyph-name="Gbreve.ss01" horiz-adv-x="775" 
d="M421 774q-67 0 -111.5 44.5t-44.5 110.5v5h38v-5q0 -53 33 -86.5t86 -33.5t85 33t32 87v5h38v-5q0 -66 -44.5 -110.5t-111.5 -44.5zM419 -10q-151 0 -255 104t-104 255t105 256t256 105q45 0 87.5 -10t70.5 -25t50 -29.5t32 -24.5l10 -10l-27 -27q-3 4 -9.5 10t-28 21
t-45.5 27t-62.5 21.5t-78.5 9.5q-135 0 -227.5 -93t-92.5 -230t92.5 -230t227.5 -93q49 0 93.5 11t72.5 27t49 32t31 27l9 11v165h-255v35h295v-210q-4 -5 -11 -14.5t-34 -32.5t-58 -41t-83.5 -32.5t-109.5 -14.5z" />
    <glyph glyph-name="Gcircumflex.ss01" horiz-adv-x="775" 
d="M246 774l155 160h40l155 -160h-42l-135 127l-133 -127h-40zM419 -10q-151 0 -255 104t-104 255t105 256t256 105q45 0 87.5 -10t70.5 -25t50 -29.5t32 -24.5l10 -10l-27 -27q-3 4 -9.5 10t-28 21t-45.5 27t-62.5 21.5t-78.5 9.5q-135 0 -227.5 -93t-92.5 -230t92.5 -230
t227.5 -93q49 0 93.5 11t72.5 27t49 32t31 27l9 11v165h-255v35h295v-210q-4 -5 -11 -14.5t-34 -32.5t-58 -41t-83.5 -32.5t-109.5 -14.5z" />
    <glyph glyph-name="uni0122.ss01" horiz-adv-x="775" 
d="M419 -10q-151 0 -255 104t-104 255t105 256t256 105q45 0 87.5 -10t70.5 -25t50 -29.5t32 -24.5l10 -10l-27 -27q-3 4 -9.5 10t-28 21t-45.5 27t-62.5 21.5t-78.5 9.5q-135 0 -227.5 -93t-92.5 -230t92.5 -230t227.5 -93q49 0 93.5 11t72.5 27t49 32t31 27l9 11v165h-255
v35h295v-210q-4 -5 -11 -14.5t-34 -32.5t-58 -41t-83.5 -32.5t-109.5 -14.5zM280 -210l85 160h45l-95 -160h-35z" />
    <glyph glyph-name="Gdotaccent.ss01" horiz-adv-x="775" 
d="M421 814q-14 0 -24.5 10.5t-10.5 24.5t10.5 24.5t24.5 10.5t24.5 -10.5t10.5 -24.5t-10.5 -24.5t-24.5 -10.5zM419 -10q-151 0 -255 104t-104 255t105 256t256 105q45 0 87.5 -10t70.5 -25t50 -29.5t32 -24.5l10 -10l-27 -27q-3 4 -9.5 10t-28 21t-45.5 27t-62.5 21.5
t-78.5 9.5q-135 0 -227.5 -93t-92.5 -230t92.5 -230t227.5 -93q49 0 93.5 11t72.5 27t49 32t31 27l9 11v165h-255v35h295v-210q-4 -5 -11 -14.5t-34 -32.5t-58 -41t-83.5 -32.5t-109.5 -14.5z" />
    <glyph glyph-name="K.ss01" horiz-adv-x="695" 
d="M301 368l-151 -133v-235h-40v700h40v-420l468 420h57l-347 -307l367 -393h-54z" />
    <glyph glyph-name="uni0136.ss01" horiz-adv-x="695" 
d="M301 368l-151 -133v-235h-40v700h40v-420l468 420h57l-347 -307l367 -393h-54zM270 -210l85 160h45l-95 -160h-35z" />
    <glyph glyph-name="i.loclTRK" horiz-adv-x="232" 
d="M116 620q-14 0 -24.5 10.5t-10.5 24.5t10.5 24.5t24.5 10.5t24.5 -10.5t10.5 -24.5t-10.5 -24.5t-24.5 -10.5zM95 506h42v-506h-42v506z" />
    <glyph glyph-name="a.ss01" horiz-adv-x="660" 
d="M306 -10q-107 0 -181.5 75.5t-74.5 186.5t75.5 187.5t182.5 76.5q71 0 130 -34t92 -93l7 117h33v-506h-33l-7 119q-34 -60 -93 -94.5t-131 -34.5zM312 27q95 0 159 64.5t64 161.5t-64 161.5t-159 64.5t-158.5 -64.5t-63.5 -161.5t63.5 -161.5t158.5 -64.5z" />
    <glyph glyph-name="aacute.ss01" horiz-adv-x="660" 
d="M312 580l85 160h45l-95 -160h-35zM306 -10q-107 0 -181.5 75.5t-74.5 186.5t75.5 187.5t182.5 76.5q71 0 130 -34t92 -93l7 117h33v-506h-33l-7 119q-34 -60 -93 -94.5t-131 -34.5zM312 27q95 0 159 64.5t64 161.5t-64 161.5t-159 64.5t-158.5 -64.5t-63.5 -161.5
t63.5 -161.5t158.5 -64.5z" />
    <glyph glyph-name="abreve.ss01" horiz-adv-x="660" 
d="M330 580q-67 0 -111.5 44.5t-44.5 110.5v5h38v-5q0 -53 33 -86.5t86 -33.5t85 33t32 87v5h38v-5q0 -66 -44.5 -110.5t-111.5 -44.5zM306 -10q-107 0 -181.5 75.5t-74.5 186.5t75.5 187.5t182.5 76.5q71 0 130 -34t92 -93l7 117h33v-506h-33l-7 119q-34 -60 -93 -94.5
t-131 -34.5zM312 27q95 0 159 64.5t64 161.5t-64 161.5t-159 64.5t-158.5 -64.5t-63.5 -161.5t63.5 -161.5t158.5 -64.5z" />
    <glyph glyph-name="acircumflex.ss01" horiz-adv-x="660" 
d="M155 580l155 160h40l155 -160h-42l-135 127l-133 -127h-40zM306 -10q-107 0 -181.5 75.5t-74.5 186.5t75.5 187.5t182.5 76.5q71 0 130 -34t92 -93l7 117h33v-506h-33l-7 119q-34 -60 -93 -94.5t-131 -34.5zM312 27q95 0 159 64.5t64 161.5t-64 161.5t-159 64.5
t-158.5 -64.5t-63.5 -161.5t63.5 -161.5t158.5 -64.5z" />
    <glyph glyph-name="adieresis.ss01" horiz-adv-x="660" 
d="M235 620q-14 0 -24.5 10.5t-10.5 24.5t10.5 24.5t24.5 10.5t24.5 -10.5t10.5 -24.5t-10.5 -24.5t-24.5 -10.5zM425 620q-14 0 -24.5 10.5t-10.5 24.5t10.5 24.5t24.5 10.5t24.5 -10.5t10.5 -24.5t-10.5 -24.5t-24.5 -10.5zM306 -10q-107 0 -181.5 75.5t-74.5 186.5
t75.5 187.5t182.5 76.5q71 0 130 -34t92 -93l7 117h33v-506h-33l-7 119q-34 -60 -93 -94.5t-131 -34.5zM312 27q95 0 159 64.5t64 161.5t-64 161.5t-159 64.5t-158.5 -64.5t-63.5 -161.5t63.5 -161.5t158.5 -64.5z" />
    <glyph glyph-name="agrave.ss01" horiz-adv-x="660" 
d="M312 580l-95 160h45l85 -160h-35zM306 -10q-107 0 -181.5 75.5t-74.5 186.5t75.5 187.5t182.5 76.5q71 0 130 -34t92 -93l7 117h33v-506h-33l-7 119q-34 -60 -93 -94.5t-131 -34.5zM312 27q95 0 159 64.5t64 161.5t-64 161.5t-159 64.5t-158.5 -64.5t-63.5 -161.5
t63.5 -161.5t158.5 -64.5z" />
    <glyph glyph-name="amacron.ss01" horiz-adv-x="660" 
d="M150 644v33h360v-33h-360zM306 -10q-107 0 -181.5 75.5t-74.5 186.5t75.5 187.5t182.5 76.5q71 0 130 -34t92 -93l7 117h33v-506h-33l-7 119q-34 -60 -93 -94.5t-131 -34.5zM312 27q95 0 159 64.5t64 161.5t-64 161.5t-159 64.5t-158.5 -64.5t-63.5 -161.5t63.5 -161.5
t158.5 -64.5z" />
    <glyph glyph-name="aogonek.ss01" horiz-adv-x="660" 
d="M688 -133l16 -27q-28 -25 -83 -25q-58 0 -95 31.5t-37 80.5q0 57 47 91l-6 101q-34 -60 -93 -94.5t-131 -34.5q-107 0 -181.5 75.5t-74.5 186.5t75.5 187.5t182.5 76.5q71 0 130 -34t92 -93l7 117h33v-506h-15q-29 -18 -29 -67q0 -37 27.5 -60t68.5 -23q18 0 34.5 4
t23.5 8zM312 27q95 0 159 64.5t64 161.5t-64 161.5t-159 64.5t-158.5 -64.5t-63.5 -161.5t63.5 -161.5t158.5 -64.5z" />
    <glyph glyph-name="aring.ss01" horiz-adv-x="660" 
d="M330 560q-39 0 -66.5 25.5t-27.5 64.5t27.5 64.5t66.5 25.5q40 0 67.5 -25.5t27.5 -64.5t-27.5 -64.5t-67.5 -25.5zM330 591q25 0 42.5 16.5t17.5 42.5t-17.5 42.5t-42.5 16.5t-42.5 -16.5t-17.5 -42.5t17.5 -42.5t42.5 -16.5zM306 -10q-107 0 -181.5 75.5t-74.5 186.5
t75.5 187.5t182.5 76.5q71 0 130 -34t92 -93l7 117h33v-506h-33l-7 119q-34 -60 -93 -94.5t-131 -34.5zM312 27q95 0 159 64.5t64 161.5t-64 161.5t-159 64.5t-158.5 -64.5t-63.5 -161.5t63.5 -161.5t158.5 -64.5z" />
    <glyph glyph-name="aringacute.ss01" horiz-adv-x="660" 
d="M537 506h33v-506h-33l-7 119q-34 -60 -93 -94.5t-131 -34.5q-107 0 -181.5 75.5t-74.5 186.5q0 102 65.5 176.5t162.5 85.5q-44 27 -44 77q0 39 27.5 64.5t66.5 25.5q6 0 20 -2l31 61h45l-43 -74q42 -25 42 -75q0 -59 -55 -82q109 -25 162 -120zM328 650
q-25 0 -42.5 -16.5t-17.5 -42.5t17.5 -42.5t42.5 -16.5t42.5 16.5t17.5 42.5t-17.5 42.5t-42.5 16.5zM312 27q95 0 159 64.5t64 161.5t-64 161.5t-159 64.5t-158.5 -64.5t-63.5 -161.5t63.5 -161.5t158.5 -64.5z" />
    <glyph glyph-name="atilde.ss01" horiz-adv-x="660" 
d="M407 590q-28 0 -51 15t-36.5 33.5t-32.5 33.5t-39 15t-32.5 -19.5t-15.5 -39.5l-2 -19l-37 4q0 4 1 11.5t6 26t14 32.5t27 25.5t42 11.5q29 0 52.5 -15t36 -33.5t31.5 -33.5t39 -15q21 0 33.5 19.5t14.5 39.5l3 20l37 -4q0 -4 -1 -11.5t-6.5 -26t-14 -33t-27 -26
t-42.5 -11.5zM306 -10q-107 0 -181.5 75.5t-74.5 186.5t75.5 187.5t182.5 76.5q71 0 130 -34t92 -93l7 117h33v-506h-33l-7 119q-34 -60 -93 -94.5t-131 -34.5zM312 27q95 0 159 64.5t64 161.5t-64 161.5t-159 64.5t-158.5 -64.5t-63.5 -161.5t63.5 -161.5t158.5 -64.5z" />
    <glyph glyph-name="k.ss01" horiz-adv-x="580" 
d="M267 280l-137 -102v-178h-40v700h40v-476l376 282h64l-272 -203l282 -303h-55z" />
    <glyph glyph-name="uni0137.ss01" horiz-adv-x="580" 
d="M267 280l-137 -102v-178h-40v700h40v-476l376 282h64l-272 -203l282 -303h-55zM220 -210l85 160h45l-95 -160h-35z" />
    <glyph glyph-name="uni0414.loclBGR" horiz-adv-x="840" 
d="M739 35h71v-155h-40v120h-700v-120h-40v155h71l299 665h40zM419 654l-277 -619h554z" />
    <glyph glyph-name="uni041B.loclBGR" horiz-adv-x="670" 
d="M660 0h-43l-283 654l-283 -654h-41l305 700h40z" />
    <glyph glyph-name="uni0424.loclBGR" horiz-adv-x="930" 
d="M870 351q0 -154 -109 -256.5t-276 -104.5v-80h-40v80q-168 1 -276.5 103t-108.5 256t109 256.5t276 104.5v80h40v-80q168 -1 276.5 -103t108.5 -256zM100 350q0 -138 97 -230t248 -93v646q-151 -1 -248 -93t-97 -230zM485 27q151 1 248 93t97 230t-97 230t-248 93v-646z
" />
    <glyph glyph-name="uni0416.ss01" horiz-adv-x="1130" 
d="M0 0l367 393l-347 307h57l468 -420v420h40v-420l468 420h57l-347 -307l367 -393h-54l-340 368l-151 -133v-235h-40v235l-151 133l-340 -368h-54z" />
    <glyph glyph-name="uni041A.ss01" horiz-adv-x="695" 
d="M301 368l-151 -133v-235h-40v700h40v-420l468 420h57l-347 -307l367 -393h-54z" />
    <glyph glyph-name="uni040C.ss01" horiz-adv-x="695" 
d="M330 774l85 160h45l-95 -160h-35zM301 368l-151 -133v-235h-40v700h40v-420l468 420h57l-347 -307l367 -393h-54z" />
    <glyph glyph-name="uni0496.ss01" horiz-adv-x="1190" 
d="M1097 35h63v-155h-40v120h-44l-340 368l-151 -133v-235h-40v235l-151 133l-340 -368h-54l367 393l-347 307h57l468 -420v420h40v-420l468 420h57l-347 -307z" />
    <glyph glyph-name="uni049A.ss01" horiz-adv-x="755" 
d="M662 35h63v-155h-40v120h-44l-340 368l-151 -133v-235h-40v700h40v-420l468 420h57l-347 -307z" />
    <glyph glyph-name="uni04A0.ss01" horiz-adv-x="775" 
d="M30 665v35h200v-420l468 420h57l-347 -307l367 -393h-54l-340 368l-151 -133v-235h-40v665h-160z" />
    <glyph glyph-name="uni04C1.ss01" horiz-adv-x="1130" 
d="M565 774q-67 0 -111.5 44.5t-44.5 110.5v5h38v-5q0 -53 33 -86.5t86 -33.5t85 33t32 87v5h38v-5q0 -66 -44.5 -110.5t-111.5 -44.5zM0 0l367 393l-347 307h57l468 -420v420h40v-420l468 420h57l-347 -307l367 -393h-54l-340 368l-151 -133v-235h-40v235l-151 133
l-340 -368h-54z" />
    <glyph glyph-name="uni04DC.ss01" horiz-adv-x="1130" 
d="M470 814q-14 0 -24.5 10.5t-10.5 24.5t10.5 24.5t24.5 10.5t24.5 -10.5t10.5 -24.5t-10.5 -24.5t-24.5 -10.5zM660 814q-14 0 -24.5 10.5t-10.5 24.5t10.5 24.5t24.5 10.5t24.5 -10.5t10.5 -24.5t-10.5 -24.5t-24.5 -10.5zM0 0l367 393l-347 307h57l468 -420v420h40v-420
l468 420h57l-347 -307l367 -393h-54l-340 368l-151 -133v-235h-40v235l-151 133l-340 -368h-54z" />
    <glyph glyph-name="uni0432.loclBGR" horiz-adv-x="605" 
d="M411 370q67 -19 105.5 -69t38.5 -116q0 -84 -59.5 -139.5t-158.5 -55.5q-106 0 -176.5 62.5t-70.5 162.5v256q0 107 63 173t160 66q92 0 152 -51t60 -128q0 -54 -30.5 -96.5t-83.5 -64.5zM312 673q-80 0 -131 -54.5t-51 -146.5v-90h182q76 0 124.5 41t48.5 104t-49 104.5
t-124 41.5zM337 27q82 0 130 45t48 115q0 71 -49.5 116t-133.5 45h-202v-131q0 -83 59.5 -136.5t147.5 -53.5z" />
    <glyph glyph-name="uni0433.loclBGR" horiz-adv-x="440" 
d="M355 394q0 33 -33.5 59t-93.5 26q-36 0 -69 -11.5t-47 -22.5l-15 -11l-22 32q7 6 19 14t52.5 22t83.5 14q78 0 121.5 -35.5t43.5 -85.5q0 -55 -44 -92.5t-117 -54.5q-86 -21 -120 -51t-34 -72q0 -41 36 -69.5t99 -28.5q42 0 81.5 13.5t57.5 27.5l19 13l22 -31
q-3 -2 -8 -6.5t-22 -14.5t-36.5 -18t-49.5 -14.5t-62 -6.5q-81 0 -129 39.5t-48 95.5q0 117 176 159q139 34 139 110z" />
    <glyph glyph-name="uni0434.loclBGR" horiz-adv-x="660" 
d="M85 -69q9 -7 26 -17.5t72 -28.5t112 -18q114 0 174.5 64t60.5 179v39q-34 -55 -93 -87t-131 -32q-107 0 -181.5 70t-74.5 172t75.5 173t182.5 71q72 0 130.5 -31.5t91.5 -86.5l7 108h33v-390q0 -131 -73 -208.5t-203 -77.5q-62 0 -119.5 17.5t-83.5 34.5l-26 18zM535 273
q0 88 -64 147t-159 59t-158.5 -59t-63.5 -147t63.5 -147t158.5 -59t159 59t64 147z" />
    <glyph glyph-name="uni0436.loclBGR" horiz-adv-x="840" 
d="M0 0l346 273l-326 233h67l313 -230v424h40v-424l313 230h67l-326 -233l346 -273h-66l-334 269v-269h-40v269l-334 -269h-66z" />
    <glyph glyph-name="uni0438.loclBGR" horiz-adv-x="610" 
d="M480 506h40v-506h-35l-5 108q-57 -118 -198 -118q-86 0 -144 61.5t-58 180.5v274h40v-261q0 -110 48 -164t120 -54q84 0 138 58t54 180v241z" />
    <glyph glyph-name="uni0439.loclBGR" horiz-adv-x="610" 
d="M305 580q-67 0 -111.5 44.5t-44.5 110.5v5h38v-5q0 -53 33 -86.5t86 -33.5t85 33t32 87v5h38v-5q0 -66 -44.5 -110.5t-111.5 -44.5zM480 506h40v-506h-35l-5 108q-57 -118 -198 -118q-86 0 -144 61.5t-58 180.5v274h40v-261q0 -110 48 -164t120 -54q84 0 138 58t54 180
v241z" />
    <glyph glyph-name="uni045D.loclBGR" horiz-adv-x="610" 
d="M287 580l-95 160h45l85 -160h-35zM480 506h40v-506h-35l-5 108q-57 -118 -198 -118q-86 0 -144 61.5t-58 180.5v274h40v-261q0 -110 48 -164t120 -54q84 0 138 58t54 180v241z" />
    <glyph glyph-name="uni043A.loclBGR" horiz-adv-x="530" 
d="M90 0v700h40v-424l313 230h67l-326 -233l346 -273h-66l-334 269v-269h-40z" />
    <glyph glyph-name="uni043B.loclBGR" horiz-adv-x="505" 
d="M272 506l223 -506h-45l-198 461l-199 -461h-43l223 506h39z" />
    <glyph glyph-name="uni043F.loclBGR" horiz-adv-x="610" 
d="M130 0h-40v506h35l5 -108q57 118 198 118q86 0 144 -61.5t58 -180.5v-274h-40v261q0 110 -48 164t-120 54q-84 0 -138 -58t-54 -180v-241z" />
    <glyph glyph-name="uni0442.loclBGR" horiz-adv-x="990" 
d="M90 506h35l5 -105q57 115 193 115q64 0 114 -36t71 -107q25 72 79.5 107.5t125.5 35.5q84 0 140.5 -60.5t56.5 -176.5v-279h-40v266q0 107 -47 160t-116 53q-81 0 -134 -53.5t-53 -167.5v-258h-40v266q0 107 -47 160t-116 53q-81 0 -134 -53.5t-53 -167.5v-258h-40v506z
" />
    <glyph glyph-name="uni0446.loclBGR" horiz-adv-x="630" 
d="M520 35h80v-155h-40v120h-75l-5 108q-57 -118 -198 -118q-86 0 -144 61.5t-58 180.5v274h40v-261q0 -110 48 -164t120 -54q84 0 138 58t54 180v241h40v-471z" />
    <glyph glyph-name="uni0448.loclBGR" horiz-adv-x="990" 
d="M900 0h-35l-5 105q-57 -115 -193 -115q-64 0 -114 36t-71 107q-25 -72 -79.5 -107.5t-125.5 -35.5q-84 0 -140.5 60.5t-56.5 176.5v279h40v-266q0 -107 47 -160t116 -53q81 0 134 53.5t53 167.5v258h40v-266q0 -107 47 -160t116 -53q81 0 134 53.5t53 167.5v258h40v-506z
" />
    <glyph glyph-name="uni0449.loclBGR" horiz-adv-x="1010" 
d="M900 35h80v-155h-40v120h-75l-5 105q-57 -115 -193 -115q-64 0 -114 36t-71 107q-25 -72 -79.5 -107.5t-125.5 -35.5q-84 0 -140.5 60.5t-56.5 176.5v279h40v-266q0 -107 47 -160t116 -53q81 0 134 53.5t53 167.5v258h40v-266q0 -107 47 -160t116 -53q81 0 134 53.5
t53 167.5v258h40v-471z" />
    <glyph glyph-name="uni044C.loclBGR" horiz-adv-x="532" 
d="M90 204v302h40v-160h176q79 0 132.5 -50.5t53.5 -121.5q0 -74 -54 -124t-146 -50q-94 0 -148 55.5t-54 148.5zM130 203q0 -78 42.5 -123t118.5 -45q75 0 118 39.5t43 98.5q0 58 -41.5 98t-106.5 40h-174v-108z" />
    <glyph glyph-name="uni044A.loclBGR" horiz-adv-x="612" 
d="M210 346h176q79 0 132.5 -50.5t53.5 -121.5q0 -74 -54 -124t-146 -50q-94 0 -148 55.5t-54 148.5v267h-140v35h180v-160zM210 203q0 -78 42.5 -123t118.5 -45q75 0 118 39.5t43 98.5q0 58 -41.5 98t-106.5 40h-174v-108z" />
    <glyph glyph-name="uni044E.loclBGR" horiz-adv-x="853" 
d="M541 516q111 0 186.5 -75.5t75.5 -186.5t-76.5 -187.5t-187.5 -76.5q-108 0 -182.5 72t-79.5 179h-145v-241h-42v700h42v-424h146q9 103 84 171.5t179 68.5zM540 27q95 0 159 64.5t64 161.5t-64 161.5t-159 64.5t-159 -64.5t-64 -161.5t64 -161.5t159 -64.5z" />
    <glyph glyph-name="uni0431.loclSRB" horiz-adv-x="626" 
d="M335 505q120 -25 180.5 -95t60.5 -161q0 -108 -76.5 -183.5t-187.5 -75.5t-186.5 74.5t-75.5 182.5q0 90 56.5 156t145.5 85q-95 22 -133.5 53t-38.5 72q0 38 29.5 62.5t80.5 24.5h330v-35h-320q-80 0 -80 -52q0 -32 43 -57t172 -51zM313 27q95 0 159 63.5t64 157.5
q0 92 -64 151.5t-159 59.5t-159 -59.5t-64 -151.5q0 -94 64 -157.5t159 -63.5z" />
    <glyph glyph-name="uni0430.ss01" horiz-adv-x="660" 
d="M306 -10q-107 0 -181.5 75.5t-74.5 186.5t75.5 187.5t182.5 76.5q71 0 130 -34t92 -93l7 117h33v-506h-33l-7 119q-34 -60 -93 -94.5t-131 -34.5zM312 27q95 0 159 64.5t64 161.5t-64 161.5t-159 64.5t-158.5 -64.5t-63.5 -161.5t63.5 -161.5t158.5 -64.5z" />
    <glyph glyph-name="uni0436.ss01" horiz-adv-x="940" 
d="M0 0l282 303l-272 203h64l376 -282v282h40v-282l376 282h64l-272 -203l282 -303h-55l-258 280l-137 -102v-178h-40v178l-137 102l-258 -280h-55z" />
    <glyph glyph-name="uni043A.ss01" horiz-adv-x="580" 
d="M267 280l-137 -102v-178h-40v506h40v-282l376 282h64l-272 -203l282 -303h-55z" />
    <glyph glyph-name="uni045C.ss01" horiz-adv-x="580" 
d="M272 580l85 160h45l-95 -160h-35zM267 280l-137 -102v-178h-40v506h40v-282l376 282h64l-272 -203l282 -303h-55z" />
    <glyph glyph-name="uni0497.ss01" horiz-adv-x="990" 
d="M907 35h53v-155h-40v120h-35l-258 280l-137 -102v-178h-40v178l-137 102l-258 -280h-55l282 303l-272 203h64l376 -282v282h40v-282l376 282h64l-272 -203z" />
    <glyph glyph-name="uni049B.ss01" horiz-adv-x="630" 
d="M547 35h53v-155h-40v120h-35l-258 280l-137 -102v-178h-40v506h40v-282l376 282h64l-272 -203z" />
    <glyph glyph-name="uni04A1.ss01" horiz-adv-x="660" 
d="M30 471v35h180v-282l376 282h64l-272 -203l282 -303h-55l-258 280l-137 -102v-178h-40v471h-140z" />
    <glyph glyph-name="uni04C2.ss01" horiz-adv-x="940" 
d="M470 580q-67 0 -111.5 44.5t-44.5 110.5v5h38v-5q0 -53 33 -86.5t86 -33.5t85 33t32 87v5h38v-5q0 -66 -44.5 -110.5t-111.5 -44.5zM0 0l282 303l-272 203h64l376 -282v282h40v-282l376 282h64l-272 -203l282 -303h-55l-258 280l-137 -102v-178h-40v178l-137 102
l-258 -280h-55z" />
    <glyph glyph-name="uni04D1.ss01" horiz-adv-x="660" 
d="M330 580q-67 0 -111.5 44.5t-44.5 110.5v5h38v-5q0 -53 33 -86.5t86 -33.5t85 33t32 87v5h38v-5q0 -66 -44.5 -110.5t-111.5 -44.5zM306 -10q-107 0 -181.5 75.5t-74.5 186.5t75.5 187.5t182.5 76.5q71 0 130 -34t92 -93l7 117h33v-506h-33l-7 119q-34 -60 -93 -94.5
t-131 -34.5zM312 27q95 0 159 64.5t64 161.5t-64 161.5t-159 64.5t-158.5 -64.5t-63.5 -161.5t63.5 -161.5t158.5 -64.5z" />
    <glyph glyph-name="uni04D3.ss01" horiz-adv-x="660" 
d="M235 620q-14 0 -24.5 10.5t-10.5 24.5t10.5 24.5t24.5 10.5t24.5 -10.5t10.5 -24.5t-10.5 -24.5t-24.5 -10.5zM425 620q-14 0 -24.5 10.5t-10.5 24.5t10.5 24.5t24.5 10.5t24.5 -10.5t10.5 -24.5t-10.5 -24.5t-24.5 -10.5zM306 -10q-107 0 -181.5 75.5t-74.5 186.5
t75.5 187.5t182.5 76.5q71 0 130 -34t92 -93l7 117h33v-506h-33l-7 119q-34 -60 -93 -94.5t-131 -34.5zM312 27q95 0 159 64.5t64 161.5t-64 161.5t-159 64.5t-158.5 -64.5t-63.5 -161.5t63.5 -161.5t158.5 -64.5z" />
    <glyph glyph-name="uni04DD.ss01" horiz-adv-x="940" 
d="M375 620q-14 0 -24.5 10.5t-10.5 24.5t10.5 24.5t24.5 10.5t24.5 -10.5t10.5 -24.5t-10.5 -24.5t-24.5 -10.5zM565 620q-14 0 -24.5 10.5t-10.5 24.5t10.5 24.5t24.5 10.5t24.5 -10.5t10.5 -24.5t-10.5 -24.5t-24.5 -10.5zM0 0l282 303l-272 203h64l376 -282v282h40v-282
l376 282h64l-272 -203l282 -303h-55l-258 280l-137 -102v-178h-40v178l-137 102l-258 -280h-55z" />
    <glyph glyph-name="uni0436.loclBGR.ss01" horiz-adv-x="940" 
d="M0 0l282 303l-272 203h64l376 -282v476h40v-476l376 282h64l-272 -203l282 -303h-55l-258 280l-137 -102v-178h-40v178l-137 102l-258 -280h-55z" />
    <glyph glyph-name="uni043A.loclBGR.ss01" horiz-adv-x="580" 
d="M267 280l-137 -102v-178h-40v700h40v-476l376 282h64l-272 -203l282 -303h-55z" />
    <glyph glyph-name="Kappa.ss01" horiz-adv-x="695" 
d="M301 368l-151 -133v-235h-40v700h40v-420l468 420h57l-347 -307l367 -393h-54z" />
    <glyph glyph-name="kappa.ss01" horiz-adv-x="580" 
d="M267 280l-137 -102v-178h-40v506h40v-282l376 282h64l-272 -203l282 -303h-55z" />
    <glyph glyph-name="zero.osf" horiz-adv-x="560" 
d="M70 429q0 103 58 162t153 59t152 -58t57 -161v-220q0 -103 -58 -162t-153 -59t-152 58t-57 161v220zM110 205q0 -83 46.5 -130.5t123.5 -47.5t123.5 47.5t46.5 130.5v230q0 83 -46.5 130.5t-123.5 47.5t-123.5 -47.5t-46.5 -130.5v-230z" />
    <glyph glyph-name="one.osf" horiz-adv-x="410" 
d="M260 640h30v-640h-40v586l-197 -139l-23 28z" />
    <glyph glyph-name="two.osf" horiz-adv-x="510" 
d="M50 0v25l265 260q54 52 74.5 93t20.5 87q0 65 -45 106.5t-110 41.5q-37 0 -68 -11.5t-49.5 -27.5t-31.5 -32t-18 -28l-5 -11l-33 12q2 5 6 14.5t21 32.5t38 41t59 32.5t83 14.5q81 0 137 -52t56 -131q0 -56 -25 -103.5t-85 -105.5l-228 -223h333v-35h-395z" />
    <glyph glyph-name="three.osf" horiz-adv-x="510" 
d="M231 -10q-39 0 -73.5 10.5t-56 25t-37.5 29.5t-22 25l-7 11l30 20l6 -9t19 -20.5t32.5 -25.5t47 -20t62.5 -9q81 0 132 41t51 104q0 64 -51.5 106t-131.5 42h-67v35h70q73 0 116.5 36.5t43.5 93.5t-43.5 92.5t-116.5 35.5q-30 0 -55.5 -7.5t-41 -18.5t-27 -22.5
t-15.5 -18.5l-5 -8l-31 16q2 4 6 10.5t19.5 23t34 29t50 23t66.5 10.5q88 0 143.5 -45.5t55.5 -118.5q0 -52 -31.5 -91t-85.5 -57q62 -19 99.5 -63t37.5 -102q0 -79 -64 -131t-160 -52z" />
    <glyph glyph-name="four.osf" horiz-adv-x="560" 
d="M375 0v170h-330v35l330 435h40v-435h100v-35h-100v-170h-40zM84 205h291v377z" />
    <glyph glyph-name="five.osf" horiz-adv-x="535" 
d="M80 640h365v-35h-328v-243q54 58 144 58q93 0 156 -59.5t63 -149.5q0 -95 -66.5 -158t-164.5 -63q-37 0 -70.5 9.5t-55 23t-37.5 27t-24 22.5l-7 10l29 23q2 -3 6.5 -8.5t19.5 -19t32.5 -23.5t46.5 -18.5t61 -8.5q82 0 136 51.5t54 131.5q0 76 -53 124.5t-132 48.5
q-30 0 -56 -8t-41.5 -19.5t-27 -23t-16.5 -19.5l-4 -8h-30v335z" />
    <glyph glyph-name="six.osf" horiz-adv-x="560" 
d="M55 204q0 79 54 150l211 286h47l-189 -249q46 29 108 29q92 0 155.5 -61t63.5 -153q0 -93 -65 -154.5t-161 -61.5t-160 60.5t-64 153.5zM95 205q0 -78 53 -128t132 -50t132 50t53 128t-53 128t-132 50t-132 -50t-53 -128z" />
    <glyph glyph-name="seven.osf" horiz-adv-x="480" 
d="M405 605h-375v35h420v-25l-295 -615h-42z" />
    <glyph glyph-name="eight.osf" horiz-adv-x="560" 
d="M85 486q0 69 56 116.5t140 47.5t139 -46.5t55 -115.5q0 -47 -29 -85.5t-77 -58.5q62 -19 99 -63t37 -103q0 -82 -64 -135t-162 -53t-161 52t-63 134q0 58 37 102.5t99 64.5q-49 19 -77.5 57t-28.5 86zM125 487q0 -53 44 -90t111 -37t111 37t44 90t-44 89.5t-111 36.5
t-111 -36.5t-44 -89.5zM95 175q0 -65 52 -106.5t133 -41.5t133 41.5t52 106.5t-52 107.5t-133 42.5t-133 -42.5t-52 -107.5z" />
    <glyph glyph-name="nine.osf" horiz-adv-x="560" 
d="M505 436q0 -79 -54 -150l-211 -286h-47l189 249q-46 -29 -108 -29q-92 0 -155.5 61t-63.5 153q0 93 65 154.5t161 61.5t160 -60.5t64 -153.5zM465 435q0 78 -53 128t-132 50t-132 -50t-53 -128t53 -128t132 -50t132 50t53 128z" />
    </font>
</defs>
</svg>
