<?xml version="1.0" standalone="no"?>
<!DOCTYPE svg PUBLIC "-//W3C//DTD SVG 1.1//EN" "http://www.w3.org/Graphics/SVG/1.1/DTD/svg11.dtd" >
<svg xmlns="http://www.w3.org/2000/svg" xmlns:xlink="http://www.w3.org/1999/xlink" version="1.1">
<metadata>
Created by FontForge 20170731 at Thu Feb  6 18:52:58 2020
 By Aleksey,,,
Copyright (c) 2020 by Richard Miller. All rights reserved.
</metadata>
<defs>
<font id="UniformPro-Reg" horiz-adv-x="605" >
  <font-face 
    font-family="Uniform Pro "
    font-weight="400"
    font-stretch="normal"
    units-per-em="1000"
    panose-1="0 0 5 0 0 0 0 0 0 0"
    ascent="807"
    descent="-193"
    x-height="510"
    cap-height="700"
    bbox="-420 -213 1190 930"
    underline-thickness="50"
    underline-position="-200"
    unicode-range="U+0020-FB02"
  />
<missing-glyph horiz-adv-x="691" 
d="M20 0v700h651v-700h-651zM186 155l159 159l159 -159l36 36l-159 159l159 158l-36 36l-159 -158l-158 159l-36 -36l158 -159l-159 -159z" />
    <glyph glyph-name="ellipsis" unicode="&#x2e;&#x2e;&#x2e;" horiz-adv-x="724" 
d="M50 44q0 22 16 38t38 16t38 -16t16 -38t-16 -38t-38 -16t-38 16t-16 38zM308 44q0 22 16 38t38 16t38 -16t16 -38t-16 -38t-38 -16t-38 16t-16 38zM566 44q0 22 16 38t38 16t38 -16t16 -38t-16 -38t-38 -16t-38 16t-16 38z" />
    <glyph glyph-name="fi" unicode="fi" horiz-adv-x="662" 
d="M125 0v419h-105v61h105v52q0 86 45 132t125 46q33 0 60.5 -5t38.5 -10l11 -5l-11 -60q-32 16 -85 16q-51 0 -80 -30t-29 -87v-49h195v-61h-195v-419h-75zM485 656q0 22 15.5 37t38.5 15t38.5 -15t15.5 -37t-15.5 -36.5t-38.5 -14.5t-38.5 14.5t-15.5 36.5zM500 510h77
v-510h-77v510z" />
    <glyph glyph-name="fl" unicode="fl" horiz-adv-x="662" 
d="M125 0v419h-105v61h105v52q0 86 45 132t125 46q33 0 60.5 -5t38.5 -10l11 -5l-11 -60q-32 16 -85 16q-51 0 -80 -30t-29 -87v-49h195v-61h-195v-419h-75zM500 700h77v-700h-77v700z" />
    <glyph glyph-name="f_f.liga" unicode="ff" horiz-adv-x="760" 
d="M125 0v419h-105v61h105v52q0 86 45 132t125 46q33 0 60.5 -5t38.5 -10l11 -5l-11 -60q-32 16 -85 16q-51 0 -80 -30t-29 -87v-49h195v-61h-195v-419h-75zM470 0v520q0 93 45.5 141.5t127.5 48.5q33 0 59.5 -5t37.5 -10l10 -5l-11 -59q-31 15 -84 15q-52 0 -80.5 -32
t-28.5 -95v-39h194v-61h-194v-419h-76z" />
    <glyph glyph-name="f_t.liga" unicode="ft" horiz-adv-x="775" 
d="M125 0v419h-105v61h105v52q0 86 45 132t125 46q33 0 60.5 -5t38.5 -10l11 -5l-11 -60q-32 16 -85 16q-51 0 -80 -30t-29 -87v-49h195v-61h-195v-419h-75zM626 -10q-73 0 -114.5 41.5t-41.5 119.5v489h76v-130h199v-62h-199v-284q0 -52 24.5 -78.5t68.5 -26.5q22 0 46 3.5
t37 7.5l12 4l11 -63q-43 -21 -119 -21z" />
    <glyph glyph-name="r_f.liga" unicode="rf" horiz-adv-x="735" 
d="M445 0v520q0 93 45.5 141.5t127.5 48.5q33 0 59.5 -5t36.5 -10l11 -5l-11 -59q-31 15 -84 15q-52 0 -80.5 -32t-28.5 -95v-39h194v-61h-194v-419h-76zM80 0v510h67l6 -115q56 125 209 125l-2 -76h-13q-91 0 -141.5 -54.5t-50.5 -164.5v-225h-75z" />
    <glyph glyph-name="r_t.liga" unicode="rt" horiz-adv-x="750" 
d="M601 -10q-73 0 -114.5 41.5t-41.5 119.5v489h76v-130h199v-62h-199v-284q0 -52 24.5 -78.5t68.5 -26.5q22 0 46 3.5t36 7.5l13 4l11 -63q-43 -21 -119 -21zM80 0v510h67l6 -115q56 125 209 125l-2 -76h-13q-91 0 -141.5 -54.5t-50.5 -164.5v-225h-75z" />
    <glyph glyph-name="r_t_f.liga" unicode="rtf" horiz-adv-x="1085" 
d="M795 0v520q0 93 45.5 141.5t127.5 48.5q33 0 59.5 -5t36.5 -10l11 -5l-11 -59q-31 15 -84 15q-52 0 -80.5 -32t-28.5 -95v-39h194v-61h-194v-419h-76zM601 -10q-73 0 -114.5 41.5t-41.5 119.5v489h76v-130h199v-62h-199v-284q0 -52 24.5 -78.5t68.5 -26.5q22 0 46 3.5
t36 7.5l13 4l11 -63q-43 -21 -119 -21zM80 0v510h67l6 -115q56 125 209 125l-2 -76h-13q-91 0 -141.5 -54.5t-50.5 -164.5v-225h-75z" />
    <glyph glyph-name="t_f.liga" unicode="tf" horiz-adv-x="765" 
d="M475 0v520q0 93 45.5 141.5t127.5 48.5q33 0 59.5 -5t36.5 -10l11 -5l-11 -59q-31 15 -84 15q-52 0 -80.5 -32t-28.5 -95v-39h194v-61h-194v-419h-76zM288 -10q-76 0 -119.5 43t-43.5 125v291h-105v61h105v130h75v-130h200v-61h-200v-280q0 -54 27.5 -82t72.5 -28
q21 0 43.5 3.5t34.5 7.5l11 4l11 -63q-39 -21 -112 -21z" />
    <glyph glyph-name="t_t.liga" unicode="tt" horiz-adv-x="780" 
d="M288 -10q-76 0 -119.5 43t-43.5 125v291h-105v61h105v130h75v-130h200v-61h-200v-280q0 -54 27.5 -82t72.5 -28q21 0 43.5 3.5t34.5 7.5l11 4l11 -63q-39 -21 -112 -21zM631 -10q-73 0 -114.5 41.5t-41.5 119.5v489h76v-130h199v-61h-199v-285q0 -52 24.5 -78.5
t68.5 -26.5q22 0 46 3.5t36 7.5l13 4l11 -63q-43 -21 -119 -21z" />
    <glyph glyph-name="checkboxfilled" unicode="[&#x2b;]" horiz-adv-x="940" 
d="M120 700h700v-700h-700v700z" />
    <glyph glyph-name="checkbox" unicode="[]" horiz-adv-x="940" 
d="M120 700h700v-700h-700v700zM194 629v-558h552v558h-552z" />
    <glyph glyph-name="star" unicode="&#x7b;&#x7d;" horiz-adv-x="978" 
d="M489 720l92 -283h297l-240 -174l91 -283l-240 175l-240 -175l91 283l-240 174h297z" />
    <glyph glyph-name="checkcirclefilled" unicode="&#x28;&#x2b;&#x29;" horiz-adv-x="920" 
d="M459 -10q-151 0 -255 104t-104 255t105 256t256 105t255 -104t104 -255t-105 -256t-256 -105z" />
    <glyph glyph-name="checkcircle" unicode="&#x28;&#x29;" horiz-adv-x="920" 
d="M459 -10q-151 0 -255 104t-104 255t105 256t256 105t255 -104t104 -255t-105 -256t-256 -105zM460 61q120 0 203 83.5t83 205.5t-83 205.5t-203 83.5t-203 -83.5t-83 -205.5t83 -205.5t203 -83.5z" />
    <glyph glyph-name="rightarrow" unicode="&#x2d;&#x3e;" horiz-adv-x="576" 
d="M526 350l-183 -125v92h-293v67h293v91z" />
    <glyph glyph-name="leftarrow" unicode="&#x3c;&#x2d;" horiz-adv-x="576" 
d="M526 384v-67h-293v-92l-183 125l183 125v-91h293z" />
    <glyph glyph-name="downarrow" unicode="&#x2b;&#x3e;" horiz-adv-x="351" 
d="M209 295h92l-126 -183l-125 183h93v293h66v-293z" />
    <glyph glyph-name="uparrow" unicode="&#x3c;&#x2b;" horiz-adv-x="351" 
d="M301 405h-92v-293h-66v293h-93l125 183z" />
    <glyph glyph-name="rightarrowcircle" unicode="&#x28;&#x2d;&#x3e;&#x29;" horiz-adv-x="920" 
d="M460 -10q-151 0 -255.5 104.5t-104.5 255.5t104.5 255.5t255.5 104.5t255.5 -104.5t104.5 -255.5t-104.5 -255.5t-255.5 -104.5zM476 241l159 109l-159 109v-81h-166v-55h166v-82z" />
    <glyph glyph-name="leftarrowcircle" unicode="&#x28;&#x3c;&#x2d;&#x29;" horiz-adv-x="920" 
d="M460 -10q-151 0 -255.5 104.5t-104.5 255.5t104.5 255.5t255.5 104.5t255.5 -104.5t104.5 -255.5t-104.5 -255.5t-255.5 -104.5zM444 241v82h166v55h-166v81l-159 -109z" />
    <glyph glyph-name="downarrowcircle" unicode="&#x28;&#x2b;&#x3e;&#x29;" horiz-adv-x="920" 
d="M100 350q0 151 104.5 255.5t255.5 104.5t255.5 -104.5t104.5 -255.5t-104.5 -255.5t-255.5 -104.5t-255.5 104.5t-104.5 255.5zM351 334l109 -159l109 159h-81v166h-55v-166h-82z" />
    <glyph glyph-name="uparrowcircle" unicode="&#x28;&#x3c;&#x2b;&#x29;" horiz-adv-x="920" 
d="M100 350q0 151 104.5 255.5t255.5 104.5t255.5 -104.5t104.5 -255.5t-104.5 -255.5t-255.5 -104.5t-255.5 104.5t-104.5 255.5zM351 366h82v-166h55v166h81l-109 159z" />
    <glyph glyph-name="rightarrowring" unicode="&#x28;&#x28;&#x2d;&#x3e;&#x29;&#x29;" horiz-adv-x="920" 
d="M460 -10q-151 0 -255.5 104.5t-104.5 255.5t104.5 255.5t255.5 104.5t255.5 -104.5t104.5 -255.5t-104.5 -255.5t-255.5 -104.5zM460 43q128 0 216 88.5t88 218.5t-88 218.5t-216 88.5t-216 -88.5t-88 -218.5t88 -218.5t216 -88.5zM474 243l156 107l-156 107v-80h-164
v-54h164v-80z" />
    <glyph glyph-name="leftarrowring" unicode="&#x28;&#x28;&#x3c;&#x2d;&#x29;&#x29;" horiz-adv-x="920" 
d="M460 -10q-151 0 -255.5 104.5t-104.5 255.5t104.5 255.5t255.5 104.5t255.5 -104.5t104.5 -255.5t-104.5 -255.5t-255.5 -104.5zM460 43q128 0 216 88.5t88 218.5t-88 218.5t-216 88.5t-216 -88.5t-88 -218.5t88 -218.5t216 -88.5zM446 243v80h164v54h-164v80l-156 -107z
" />
    <glyph glyph-name="downarrowring" unicode="&#x28;&#x28;&#x2b;&#x3e;&#x29;&#x29;" horiz-adv-x="920" 
d="M460 -10q-151 0 -255.5 104.5t-104.5 255.5t104.5 255.5t255.5 104.5t255.5 -104.5t104.5 -255.5t-104.5 -255.5t-255.5 -104.5zM460 43q128 0 216 88.5t88 218.5t-88 218.5t-216 88.5t-216 -88.5t-88 -218.5t88 -218.5t216 -88.5zM460 180l-107 156h80v164h54v-164h80z
" />
    <glyph glyph-name="uparrowring" unicode="&#x28;&#x28;&#x3c;&#x2b;&#x29;&#x29;" horiz-adv-x="920" 
d="M460 -10q-151 0 -255.5 104.5t-104.5 255.5t104.5 255.5t255.5 104.5t255.5 -104.5t104.5 -255.5t-104.5 -255.5t-255.5 -104.5zM460 43q128 0 216 88.5t88 218.5t-88 218.5t-216 88.5t-216 -88.5t-88 -218.5t88 -218.5t216 -88.5zM433 200v164h-80l107 156l107 -156h-80
v-164h-54z" />
    <glyph glyph-name=".notdef" horiz-adv-x="691" 
d="M20 0v700h651v-700h-651zM186 155l159 159l159 -159l36 36l-159 159l159 158l-36 36l-159 -158l-158 159l-36 -36l158 -159l-159 -159z" />
    <glyph glyph-name=".null" horiz-adv-x="0" 
 />
    <glyph glyph-name="nonmarkingreturn" horiz-adv-x="333" 
 />
    <glyph glyph-name="space" unicode=" " horiz-adv-x="247" 
 />
    <glyph glyph-name="exclam" unicode="!" horiz-adv-x="288" 
d="M116 213l-19 487h93l-19 -487h-55zM144 -10q-22 0 -38 16t-16 38t16 38t38 16t38 -16t16 -38t-16 -38t-38 -16z" />
    <glyph glyph-name="quotedbl" unicode="&#x22;" horiz-adv-x="308" 
d="M50 460v240h62v-240h-62zM197 460v240h61v-240h-61z" />
    <glyph glyph-name="numbersign" unicode="#" 
d="M112 0l34 168h-106v49h115l34 166h-109v49h118l34 168h56l-34 -168h149l34 168h56l-34 -168h106v-49h-116l-33 -166h109v-49h-119l-33 -168h-56l34 168h-150l-33 -168h-56zM211 217h149l34 166h-150z" />
    <glyph glyph-name="dollar" unicode="$" horiz-adv-x="541" 
d="M409 171q0 52 -37 90t-123 76q-172 75 -172 198q0 69 49.5 117t127.5 55v93h53v-93q36 -3 67 -15.5t50.5 -28t34 -30t20.5 -24.5l6 -10l-56 -39q-2 3 -5.5 9t-17 20t-29 25t-41.5 20t-55 9q-59 0 -93.5 -29.5t-34.5 -72.5q0 -46 35 -80t110 -67q187 -79 187 -215
q0 -75 -49.5 -125.5t-128.5 -60.5v-93h-53v92q-42 3 -79 17t-60 32.5t-39.5 36.5t-23.5 30l-7 13l57 38q2 -4 6.5 -11t20.5 -24.5t34.5 -31t49 -24.5t63.5 -11q59 0 96 32.5t37 81.5z" />
    <glyph glyph-name="percent" unicode="%" horiz-adv-x="765" 
d="M194 318q-63 0 -105 41t-42 104t43 105t106 42t105 -41t42 -104t-43 -105t-106 -42zM146 0l413 600h60l-413 -600h-60zM195 371q39 0 65 26.5t26 66.5t-26 66.5t-65 26.5t-65 -26.5t-26 -66.5t26 -66.5t65 -26.5zM569 -10q-63 0 -105 41t-42 104t43 105t106 42t105 -41
t42 -104t-43 -105t-106 -42zM570 43q39 0 65 26.5t26 66.5t-26 66.5t-65 26.5t-65 -26.5t-26 -66.5t26 -66.5t65 -26.5z" />
    <glyph glyph-name="ampersand" unicode="&#x26;" horiz-adv-x="713" 
d="M251 -10q-88 0 -147 55.5t-59 137.5q0 134 164 210q-89 92 -89 165q0 65 50.5 108.5t127.5 43.5t126 -44.5t49 -109.5q0 -111 -154 -181l157 -154l139 179h80l-174 -226l174 -174h-90l-126 124q-58 -73 -110 -103.5t-118 -30.5zM276 420q68 28 98.5 58.5t30.5 73.5
q0 41 -30 69t-77 28t-76.5 -26t-29.5 -66q0 -34 18.5 -62.5t65.5 -74.5zM256 56q52 0 90 25t88 89l-181 178q-135 -60 -135 -160q0 -56 39 -94t99 -38z" />
    <glyph glyph-name="quotesingle" unicode="'" horiz-adv-x="162" 
d="M50 460v240h62v-240h-62z" />
    <glyph glyph-name="parenleft" unicode="(" horiz-adv-x="426" 
d="M139 350q0 -79 26 -149t63 -113t74 -75t63 -45l26 -14l-31 -54q-6 2 -16.5 7t-41.5 23.5t-58.5 40.5t-61.5 60t-58.5 81.5t-41.5 105.5t-17 130q0 94 30.5 175t73.5 130t86.5 84t74.5 49l30 14l31 -54q-5 -2 -14 -7t-35.5 -22.5t-50 -37.5t-53 -54.5t-50 -72.5t-35 -91
t-14.5 -111z" />
    <glyph glyph-name="parenright" unicode=")" horiz-adv-x="426" 
d="M287 350q0 79 -26 149t-63 113t-74 75t-63 45l-26 14l31 54q6 -2 16.5 -7t41.5 -23.5t58.5 -40.5t61.5 -60t58.5 -81.5t41.5 -105.5t17 -130q0 -94 -30.5 -175t-73.5 -130t-86.5 -84t-74.5 -49l-30 -14l-31 54q5 2 14 7t35.5 22.5t50 37.5t53 54.5t50 72.5t35 91
t14.5 111z" />
    <glyph glyph-name="asterisk" unicode="*" horiz-adv-x="489" 
d="M268 537l155 57l19 -60l-158 -44l101 -128l-50 -37l-90 135l-91 -135l-50 37l100 128l-157 44l20 60l153 -57l-8 163h65z" />
    <glyph glyph-name="plus" unicode="+" 
d="M272 97v229h-222v61h222v229h61v-229h222v-61h-222v-229h-61z" />
    <glyph glyph-name="comma" unicode="," horiz-adv-x="188" 
d="M40 -130l26 240h82l-46 -240h-62z" />
    <glyph glyph-name="hyphen" unicode="-" horiz-adv-x="420" 
d="M50 324v66h320v-66h-320z" />
    <glyph glyph-name="period" unicode="." horiz-adv-x="208" 
d="M104 -10q-22 0 -38 16t-16 38t16 38t38 16t38 -16t16 -38t-16 -38t-38 -16z" />
    <glyph glyph-name="slash" unicode="/" horiz-adv-x="478" 
d="M410 780h68l-410 -860h-68z" />
    <glyph glyph-name="zero" unicode="0" 
d="M72 471q0 111 64.5 175t167.5 64t166 -62.5t63 -173.5v-245q0 -111 -64.5 -175t-167.5 -64t-166 62.5t-63 173.5v245zM148 220q0 -74 42.5 -117.5t112.5 -43.5q69 0 111.5 43.5t42.5 117.5v260q0 74 -42.5 117.5t-111.5 43.5q-70 0 -112.5 -43.5t-42.5 -117.5v-260z" />
    <glyph glyph-name="one" unicode="1" horiz-adv-x="450" 
d="M270 700h60v-700h-75v607l-191 -131l-39 51z" />
    <glyph glyph-name="two" unicode="2" horiz-adv-x="555" 
d="M56 0v54l268 276q51 53 71.5 93t20.5 83q0 58 -41 97t-101 39q-33 0 -62 -11t-47 -26t-31 -30.5t-18 -26.5l-6 -11l-58 33q2 6 7 15.5t23.5 33.5t42 42.5t65.5 33.5t90 15q89 0 150 -56.5t61 -140.5q0 -62 -27.5 -113.5t-90.5 -114.5l-212 -220h325v-65h-430z" />
    <glyph glyph-name="three" unicode="3" horiz-adv-x="546" 
d="M246 -10q-44 0 -82.5 11.5t-62 28t-41 33t-24.5 27.5l-7 12l56 36q2 -3 6 -8.5t18 -19.5t31 -24.5t45.5 -19.5t59.5 -9q73 0 119.5 39.5t46.5 98.5t-47 99.5t-123 40.5h-67v60h70q68 0 107.5 35t39.5 90q0 54 -40 88.5t-105 34.5q-28 0 -52.5 -7.5t-39 -17.5t-25.5 -20.5
t-15 -17.5l-4 -8l-56 32q2 4 6.5 11.5t21 25.5t37 32t56 25.5t76.5 11.5q93 0 154 -51.5t61 -130.5q0 -55 -31.5 -97.5t-86.5 -63.5q64 -22 101 -69t37 -108q0 -87 -68.5 -143.5t-171.5 -56.5z" />
    <glyph glyph-name="four" unicode="4" 
d="M385 0v185h-338v63l336 452h75v-454h100v-61h-100v-185h-73zM114 246h271v358z" />
    <glyph glyph-name="five" unicode="5" horiz-adv-x="581" 
d="M86 700h400v-65h-332v-233q57 53 140 53q98 0 162.5 -64.5t64.5 -159.5q0 -103 -70.5 -172t-176.5 -69q-40 0 -77 10.5t-60.5 26t-42 31t-26.5 26.5l-8 10l56 41q2 -3 6.5 -8t19 -18.5t31.5 -23.5t44.5 -18t56.5 -8q75 0 123.5 48t48.5 122q0 68 -47 113.5t-118 45.5
q-27 0 -50.5 -7t-38 -16.5t-25 -20t-15 -17t-4.5 -7.5h-62v380z" />
    <glyph glyph-name="six" unicode="6" 
d="M60 225q0 88 56 170l209 305h87l-193 -273q44 28 99 28q95 0 161 -64.5t66 -161.5q0 -102 -70.5 -170.5t-173.5 -68.5q-102 0 -171.5 67t-69.5 168zM135 226q0 -72 47.5 -119.5t120.5 -47.5q72 0 119.5 48t47.5 119q0 72 -47.5 119.5t-119.5 47.5q-73 0 -120.5 -47.5
t-47.5 -119.5z" />
    <glyph glyph-name="seven" unicode="7" horiz-adv-x="525" 
d="M403 633h-366v67h451v-50l-313 -650h-80z" />
    <glyph glyph-name="eight" unicode="8" 
d="M89 525q0 79 61.5 132t153.5 53t152 -51.5t60 -130.5q0 -50 -28 -90.5t-76 -63.5q60 -22 96.5 -69t36.5 -107q0 -90 -69.5 -149t-174.5 -59t-173 57.5t-68 147.5q0 60 36.5 107t96.5 70q-48 22 -76 62.5t-28 90.5zM163 523q0 -52 40 -87.5t100 -35.5t99.5 35.5t39.5 87.5
q0 51 -39.5 86t-99.5 35t-100 -35t-40 -86zM135 199q0 -63 48 -103t120 -40t119.5 40t47.5 103t-47.5 104t-119.5 41t-120 -41t-48 -104z" />
    <glyph glyph-name="nine" unicode="9" 
d="M545 475q0 -88 -56 -170l-209 -305h-87l193 273q-44 -28 -99 -28q-95 0 -161 64.5t-66 161.5q0 102 70.5 170.5t173.5 68.5q102 0 171.5 -67t69.5 -168zM470 474q0 71 -47.5 119t-119.5 48q-73 0 -120.5 -47.5t-47.5 -119.5t47.5 -119.5t120.5 -47.5q72 0 119.5 47.5
t47.5 119.5z" />
    <glyph glyph-name="colon" unicode=":" horiz-adv-x="208" 
d="M104 412q-22 0 -38 16t-16 38t16 38t38 16t38 -16t16 -38t-16 -38t-38 -16zM104 -10q-22 0 -38 16t-16 38t16 38t38 16t38 -16t16 -38t-16 -38t-38 -16z" />
    <glyph glyph-name="semicolon" unicode=";" horiz-adv-x="208" 
d="M104 412q-22 0 -38 16t-16 38t16 38t38 16t38 -16t16 -38t-16 -38t-38 -16zM40 -130l26 240h82l-46 -240h-62z" />
    <glyph glyph-name="less" unicode="&#x3c;" 
d="M555 102l-505 223v60l505 223v-70l-429 -182l429 -181v-73z" />
    <glyph glyph-name="equal" unicode="=" 
d="M50 415v61h505v-61h-505zM50 214v61h505v-61h-505z" />
    <glyph glyph-name="greater" unicode="&#x3e;" 
d="M50 102v70l428 181l-428 182v73l505 -223v-60z" />
    <glyph glyph-name="question" unicode="?" horiz-adv-x="540" 
d="M225 213q0 40 17.5 74t42 58t49 47.5t42 53.5t17.5 65q0 56 -37 92t-93 36q-30 0 -56 -10.5t-42 -25.5t-27.5 -29.5t-15.5 -25.5l-5 -10l-61 32q2 6 6 15.5t21 33.5t39 42.5t61.5 33.5t85.5 15q87 0 144 -55t57 -133q0 -39 -12.5 -72t-31 -55t-41 -44.5t-41.5 -41
t-33 -43.5t-16 -53h-70zM260 -10q-22 0 -38 16t-16 38t16 38t38 16t38 -16t16 -38t-16 -38t-38 -16z" />
    <glyph glyph-name="at" unicode="@" horiz-adv-x="990" 
d="M494 -145q-184 0 -311.5 122t-127.5 296q0 119 58.5 219.5t160 159t221.5 58.5q184 0 312 -127t128 -309q0 -123 -61.5 -188t-145.5 -65q-61 0 -98 38.5t-33 101.5q-49 -63 -133 -63q-79 0 -126.5 57t-36.5 134q10 74 63 120t125 46q97 0 135 -83l16 72h47l6 -6l-37 -258
q-7 -50 14 -77.5t63 -27.5q56 0 99.5 49.5t43.5 146.5q0 162 -110 272t-271 110q-159 0 -270 -110.5t-111 -268.5q0 -150 111 -256.5t270 -106.5q49 0 86 10l13 -53q-62 -13 -100 -13zM476 154q50 0 88 30.5t45 80.5q7 55 -27 94t-89 39q-50 0 -86 -30.5t-43 -81.5
q-8 -54 24.5 -93t87.5 -39z" />
    <glyph glyph-name="A" unicode="A" horiz-adv-x="695" 
d="M7 0l302 700h78l301 -700h-86l-85 202h-342l-86 -202h-82zM198 265h294l-146 347z" />
    <glyph glyph-name="B" unicode="B" horiz-adv-x="690" 
d="M100 0v700h285q93 0 149.5 -49t56.5 -124q0 -53 -29 -95t-80 -63q65 -17 104 -65.5t39 -112.5q0 -81 -62.5 -136t-161.5 -55h-301zM178 394h195q62 0 101 35t39 86q0 52 -39 87t-101 35h-195v-243zM178 63h214q69 0 112 39t43 97t-43 97.5t-112 39.5h-214v-273z" />
    <glyph glyph-name="C" unicode="C" horiz-adv-x="718" 
d="M416 -10q-153 0 -257 103t-104 255t105.5 257t258.5 105q47 0 91 -11t72.5 -26.5t51 -31t32.5 -26.5l10 -11l-54 -49l-9 9t-25.5 20t-41.5 25t-57 20t-72 9q-121 0 -202.5 -83t-81.5 -205t81.5 -205t202.5 -83q38 0 74.5 9.5t60.5 22.5t42.5 27t27.5 23t9 10l52 -48
q-4 -5 -11 -12.5t-32 -27.5t-54 -35.5t-75 -28t-95 -12.5z" />
    <glyph glyph-name="D" unicode="D" horiz-adv-x="760" 
d="M100 0v700h224q167 0 274 -99t107 -249t-108.5 -251t-275.5 -101h-221zM178 68h150q130 0 214.5 80.5t84.5 201.5t-84.5 201.5t-214.5 80.5h-150v-564z" />
    <glyph glyph-name="E" unicode="E" horiz-adv-x="650" 
d="M100 0v700h485v-68h-407v-235h357v-64h-357v-265h417v-68h-495z" />
    <glyph glyph-name="F" unicode="F" horiz-adv-x="610" 
d="M178 297v-297h-78v700h475v-68h-397v-268h347v-67h-347z" />
    <glyph glyph-name="G" unicode="G" horiz-adv-x="810" 
d="M416 -10q-153 0 -257 103t-104 255t105.5 257t258.5 105q47 0 91 -10.5t72.5 -25.5t50.5 -30t32 -26l10 -10l-54 -54q-3 3 -8.5 9t-25 20.5t-41.5 25.5t-57 20t-72 9q-121 0 -202.5 -83t-81.5 -206t81.5 -205.5t202.5 -82.5q100 0 173.5 63.5t87.5 165.5h-263v60h343
q1 -7 1 -14q-2 -148 -101 -247t-242 -99z" />
    <glyph glyph-name="H" unicode="H" horiz-adv-x="770" 
d="M100 0v700h78v-296h414v296h78v-700h-78v335h-414v-335h-78z" />
    <glyph glyph-name="I" unicode="I" horiz-adv-x="290" 
d="M105 700h81v-700h-81v700z" />
    <glyph glyph-name="J" unicode="J" horiz-adv-x="461" 
d="M136 -10q-37 0 -66.5 6.5t-41.5 13.5l-11 6l24 67q30 -20 92 -20q69 0 114 47t45 130v460h80v-462q0 -114 -67.5 -181t-168.5 -67z" />
    <glyph glyph-name="K" unicode="K" horiz-adv-x="669" 
d="M100 0v700h78v-328l364 328h110l-384 -336l404 -364h-110l-384 348v-348h-78z" />
    <glyph glyph-name="L" unicode="L" horiz-adv-x="590" 
d="M100 0v700h78v-631h387v-69h-465z" />
    <glyph glyph-name="M" unicode="M" horiz-adv-x="890" 
d="M176 562v-562h-76v700h81l266 -485l266 485h77v-700h-76v562l-248 -447h-42z" />
    <glyph glyph-name="N" unicode="N" horiz-adv-x="790" 
d="M177 586v-586h-77v700h83l430 -578v578h77v-700h-77z" />
    <glyph glyph-name="O" unicode="O" horiz-adv-x="835" 
d="M55 348q0 152 105.5 257t258.5 105t257 -103t104 -255t-105.5 -257t-258.5 -105t-257 103t-104 255zM133 350q0 -122 81.5 -205t202.5 -83t203 83t82 205t-82 205t-203 83t-202.5 -83t-81.5 -205z" />
    <glyph glyph-name="P" unicode="P" horiz-adv-x="671" 
d="M100 0v700h283q108 0 175 -62t67 -158t-68.5 -159.5t-176.5 -63.5h-202v-257h-78zM178 323h196q77 0 125 44t48 111t-48 111t-125 44h-196v-310z" />
    <glyph glyph-name="Q" unicode="Q" horiz-adv-x="835" 
d="M55 348q0 152 105.5 257t258.5 105t257 -103t104 -255q0 -108 -56.5 -195.5t-149.5 -130.5l124 -146h-93l-100 121q-46 -11 -89 -11q-153 0 -257 103t-104 255zM133 350q0 -122 81.5 -205t202.5 -83t203 83t82 205t-82 205t-203 83t-202.5 -83t-81.5 -205z" />
    <glyph glyph-name="R" unicode="R" horiz-adv-x="693" 
d="M100 700h292q103 0 168 -60t65 -152q0 -77 -47.5 -133t-126.5 -73l204 -282h-93l-197 274h-187v-274h-78v700zM178 633v-297h203q75 0 120.5 42t45.5 107t-45.5 106.5t-120.5 41.5h-203z" />
    <glyph glyph-name="S" unicode="S" horiz-adv-x="568" 
d="M144 536q0 -46 36.5 -78.5t119.5 -59.5q213 -68 213 -213q0 -84 -63.5 -139.5t-169.5 -55.5q-46 0 -88.5 10t-70.5 23.5t-49 27.5t-30 24l-10 10l49 52q3 -3 9 -8.5t25.5 -19.5t42 -24.5t58 -19.5t72.5 -9q65 0 105 34.5t40 85.5q0 54 -41 91t-144 72q-183 62 -183 190
q0 77 61.5 129t161.5 52q64 0 118 -20t76 -40l23 -20l-49 -52q-2 3 -7 7.5t-21 15.5t-34 20t-46 16t-58 7q-69 0 -107.5 -33t-38.5 -75z" />
    <glyph glyph-name="T" unicode="T" horiz-adv-x="590" 
d="M334 632v-632h-78v632h-231v68h540v-68h-231z" />
    <glyph glyph-name="U" unicode="U" horiz-adv-x="740" 
d="M368 -10q-122 0 -200 81t-78 210v419h79v-418q0 -98 57 -159t146 -61q88 0 145 61t57 159v418h76v-416q0 -129 -79.5 -211.5t-202.5 -82.5z" />
    <glyph glyph-name="V" unicode="V" horiz-adv-x="685" 
d="M7 700h87l251 -603l250 603h83l-296 -700h-78z" />
    <glyph glyph-name="W" unicode="W" horiz-adv-x="980" 
d="M7 700h86l193 -582l178 582h56l178 -582l193 582h82l-239 -700h-70l-174 559l-174 -559h-70z" />
    <glyph glyph-name="X" unicode="X" horiz-adv-x="670" 
d="M7 0l281 358l-267 342h97l218 -284l221 284h92l-268 -341l282 -359h-97l-234 302l-232 -302h-93z" />
    <glyph glyph-name="Y" unicode="Y" horiz-adv-x="665" 
d="M294 0v280l-287 420h93l235 -349l234 349h89l-286 -420v-280h-78z" />
    <glyph glyph-name="Z" unicode="Z" horiz-adv-x="685" 
d="M57 0v54l465 579h-445v67h551v-54l-465 -579h465v-67h-571z" />
    <glyph glyph-name="bracketleft" unicode="[" horiz-adv-x="435" 
d="M100 -80v860h290v-64h-216v-732h216v-64h-290z" />
    <glyph glyph-name="backslash" unicode="\" horiz-adv-x="478" 
d="M478 -80h-68l-410 860h68z" />
    <glyph glyph-name="bracketright" unicode="]" horiz-adv-x="435" 
d="M45 -80v64h216v732h-216v64h290v-860h-290z" />
    <glyph glyph-name="asciicircum" unicode="^" horiz-adv-x="570" 
d="M55 320l201 380h58l201 -380h-76l-154 308l-155 -308h-75z" />
    <glyph glyph-name="underscore" unicode="_" horiz-adv-x="600" 
d="M0 -104v54h600v-54h-600z" />
    <glyph glyph-name="grave" unicode="`" horiz-adv-x="260" 
d="M149 577l-99 163h82l78 -163h-61z" />
    <glyph glyph-name="a" unicode="a" horiz-adv-x="564" 
d="M52 146q0 67 55.5 113.5t147.5 46.5q105 0 162 -57v42q0 81 -41 122t-111 41q-42 0 -78.5 -13t-52.5 -25l-15 -13l-37 52q7 7 21.5 18t64.5 29t106 18q104 0 161.5 -59.5t57.5 -168.5v-292h-58l-9 55q-58 -65 -173 -65q-92 0 -146.5 44.5t-54.5 111.5zM128 149
q0 -44 38.5 -74t104.5 -30q72 0 111.5 30t39.5 74t-39.5 74t-111.5 30q-66 0 -104.5 -30t-38.5 -74z" />
    <glyph glyph-name="b" unicode="b" horiz-adv-x="656" 
d="M80 700h75v-291q32 51 85.5 81t117.5 30q105 0 179 -76.5t74 -187.5t-75 -188.5t-181 -77.5q-66 0 -119 29.5t-85 81.5l-8 -101h-63v700zM150 255q0 -83 55.5 -139.5t137.5 -56.5t137.5 56.5t55.5 139.5t-55.5 139t-137.5 56t-137.5 -56t-55.5 -139z" />
    <glyph glyph-name="c" unicode="c" horiz-adv-x="546" 
d="M312 -10q-114 0 -190.5 75.5t-76.5 187.5t78 189.5t192 77.5q57 0 105.5 -21t68.5 -41l20 -21l-50 -49q-6 7 -17 17.5t-48.5 27.5t-79.5 17q-83 0 -138.5 -56t-55.5 -139t56 -139.5t138 -56.5q44 0 81.5 17t52.5 34l15 17l51 -46q-3 -4 -8 -10t-24 -21.5t-40.5 -27.5
t-56.5 -22t-73 -10z" />
    <glyph glyph-name="d" unicode="d" horiz-adv-x="656" 
d="M299 -10q-106 0 -180 76t-74 187t75.5 189t181.5 78q63 0 115 -29t84 -79v288h75v-700h-62l-9 105q-33 -54 -87 -84.5t-119 -30.5zM313 59q82 0 137.5 56.5t55.5 139.5t-55.5 139t-137.5 56t-137.5 -56t-55.5 -139t55.5 -139.5t137.5 -56.5z" />
    <glyph glyph-name="e" unicode="e" horiz-adv-x="604" 
d="M312 -10q-114 0 -190.5 75.5t-76.5 187.5t77.5 189.5t191.5 77.5q102 0 174.5 -73.5t72.5 -177.5l-2 -19h-438q2 -86 57.5 -139.5t137.5 -53.5q54 0 98 23.5t61 46.5l17 23l48 -39q-3 -5 -8.5 -13t-25.5 -29t-44 -37t-64.5 -29t-85.5 -13zM123 303h363q-10 66 -59.5 111
t-114.5 45q-71 0 -123.5 -44t-65.5 -112z" />
    <glyph glyph-name="f" unicode="f" horiz-adv-x="415" 
d="M125 0v419h-105v61h105v52q0 86 45 132t125 46q33 0 60.5 -5t38.5 -10l11 -5l-11 -60q-32 16 -85 16q-51 0 -80 -30t-29 -87v-49h195v-61h-195v-419h-75z" />
    <glyph glyph-name="g" unicode="g" horiz-adv-x="656" 
d="M88 -41q9 -7 26 -17.5t70 -28t107 -17.5q101 0 155.5 55t54.5 155v29q-31 -47 -83.5 -73.5t-117.5 -26.5q-107 0 -181 70t-74 171q0 102 74.5 173t183.5 71q64 0 117 -27.5t86 -75.5l8 93h62v-390q0 -133 -74 -211.5t-207 -78.5q-41 0 -81 7.5t-67 18t-48.5 21.5
t-32.5 19l-10 7zM506 276q0 76 -55.5 127t-137.5 51t-137.5 -51t-55.5 -127q0 -75 55.5 -126.5t137.5 -51.5t137.5 51.5t55.5 126.5z" />
    <glyph glyph-name="h" unicode="h" horiz-adv-x="611" 
d="M80 0v700h75v-286q57 106 186 106q85 0 142 -60t57 -172v-288h-75v263q0 94 -41.5 140.5t-104.5 46.5q-71 0 -117.5 -47t-46.5 -144v-259h-75z" />
    <glyph glyph-name="i" unicode="i" horiz-adv-x="247" 
d="M70 656q0 22 15.5 37t38.5 15t38.5 -15t15.5 -37t-15.5 -36.5t-38.5 -14.5t-38.5 14.5t-15.5 36.5zM85 510h77v-510h-77v510z" />
    <glyph glyph-name="j" unicode="j" horiz-adv-x="247" 
d="M70 656q0 22 15.5 37t38.5 15t38.5 -15t15.5 -37t-15.5 -36.5t-38.5 -14.5t-38.5 14.5t-15.5 36.5zM162 510v-508q0 -84 -42.5 -128t-114.5 -44q-17 0 -34 3.5t-26 6.5l-9 4l14 61q23 -8 49 -8q86 0 86 96v517h77z" />
    <glyph glyph-name="k" unicode="k" horiz-adv-x="553" 
d="M80 0v700h75v-417l273 227h107l-292 -234l312 -276h-107l-293 263v-263h-75z" />
    <glyph glyph-name="l" unicode="l" horiz-adv-x="247" 
d="M85 700h77v-700h-77v700z" />
    <glyph glyph-name="m" unicode="m" horiz-adv-x="976" 
d="M80 510h67l5 -97q28 53 76 80t108 27q62 0 110 -33.5t69 -98.5q25 65 76.5 98.5t118.5 33.5q84 0 139.5 -59t55.5 -170v-291h-76v267q0 92 -39.5 137.5t-100.5 45.5q-69 0 -114 -45.5t-45 -141.5v-263h-75v267q0 92 -40 137.5t-101 45.5q-69 0 -114 -45.5t-45 -141.5
v-263h-75v510z" />
    <glyph glyph-name="n" unicode="n" horiz-adv-x="611" 
d="M155 0h-75v510h67l5 -99q57 109 189 109q86 0 142.5 -60t56.5 -172v-288h-75v263q0 94 -41.5 140.5t-104.5 46.5q-72 0 -118 -49t-46 -153v-248z" />
    <glyph glyph-name="o" unicode="o" horiz-adv-x="627" 
d="M45 253q0 112 78 189.5t192 77.5t190.5 -76t76.5 -188t-78 -189t-192 -77t-190.5 75.5t-76.5 187.5zM120 255q0 -83 56 -139.5t138 -56.5t137.5 56.5t55.5 139.5t-55.5 139t-137.5 56q-83 0 -138.5 -56t-55.5 -139z" />
    <glyph glyph-name="p" unicode="p" horiz-adv-x="656" 
d="M80 510h63l8 -105q33 53 87.5 84t119.5 31q105 0 179 -76.5t74 -187.5t-75 -188.5t-181 -77.5q-64 0 -116 28t-84 78v-256h-75v670zM150 255q0 -83 55.5 -139.5t137.5 -56.5t137.5 56.5t55.5 139.5t-55.5 139t-137.5 56t-137.5 -56t-55.5 -139z" />
    <glyph glyph-name="q" unicode="q" horiz-adv-x="656" 
d="M501 -160v260q-33 -52 -85.5 -81t-116.5 -29q-106 0 -180 76t-74 187t75.5 189t181.5 78q64 0 117.5 -30t85.5 -83l9 103h62v-670h-75zM313 59q82 0 137.5 56.5t55.5 139.5t-55.5 139t-137.5 56t-137.5 -56t-55.5 -139t55.5 -139.5t137.5 -56.5z" />
    <glyph glyph-name="r" unicode="r" horiz-adv-x="387" 
d="M80 0v510h67l6 -115q56 125 209 125l-2 -76h-13q-91 0 -141.5 -54.5t-50.5 -164.5v-225h-75z" />
    <glyph glyph-name="s" unicode="s" horiz-adv-x="450" 
d="M125 389q0 -31 25.5 -54.5t92.5 -40.5q162 -44 162 -153q0 -64 -50 -107.5t-137 -43.5q-53 0 -100 16.5t-68 32.5l-21 16l35 52q7 -6 20.5 -15.5t54 -25t80.5 -15.5q52 0 81.5 23t29.5 57q0 35 -27.5 61t-105.5 46q-70 19 -108.5 56t-38.5 87q0 58 46.5 98.5t129.5 40.5
q46 0 88 -14t61 -28l19 -14l-35 -53q-6 5 -16.5 13t-44.5 21.5t-69 13.5q-50 0 -77 -21t-27 -49z" />
    <glyph glyph-name="t" unicode="t" horiz-adv-x="430" 
d="M288 -10q-76 0 -119.5 43t-43.5 125v291h-105v61h105v130h75v-130h200v-61h-200v-280q0 -54 27.5 -82t72.5 -28q21 0 43.5 3.5t34.5 7.5l11 4l11 -63q-39 -21 -112 -21z" />
    <glyph glyph-name="u" unicode="u" horiz-adv-x="612" 
d="M456 510h75v-510h-67l-5 99q-57 -109 -189 -109q-86 0 -142.5 60t-56.5 172v288h75v-263q0 -94 41.5 -140.5t104.5 -46.5q72 0 118 49t46 153v248z" />
    <glyph glyph-name="v" unicode="v" horiz-adv-x="518" 
d="M222 0l-217 510h84l171 -416l172 416h81l-217 -510h-74z" />
    <glyph glyph-name="w" unicode="w" horiz-adv-x="775" 
d="M5 510h83l141 -406l132 406h57l132 -405l141 405h79l-183 -510h-72l-128 387l-127 -387h-72z" />
    <glyph glyph-name="x" unicode="x" horiz-adv-x="543" 
d="M318 262l220 -262h-94l-174 209l-176 -209h-89l219 259l-209 251h93l165 -199l165 199h90z" />
    <glyph glyph-name="y" unicode="y" horiz-adv-x="518" 
d="M5 510h84l171 -424l172 424h81l-219 -515q-70 -165 -196 -165q-28 0 -51 5.5t-33 10.5l-9 6l25 59q21 -14 63 -14q80 0 128 106z" />
    <glyph glyph-name="z" unicode="z" horiz-adv-x="510" 
d="M47 0v53l312 391h-297v66h401v-54l-312 -390h312v-66h-416z" />
    <glyph glyph-name="braceleft" unicode="{" horiz-adv-x="475" 
d="M299 -80q-139 0 -139 139v199q0 35 -14.5 49t-48.5 14h-52v58h52q34 0 48.5 14t14.5 49v199q0 139 139 139h131v-63h-116q-41 0 -60.5 -19t-19.5 -61v-192q0 -44 -18.5 -68.5t-50.5 -26.5q32 -2 50.5 -26.5t18.5 -68.5v-192q0 -42 19.5 -61t60.5 -19h116v-63h-131z" />
    <glyph glyph-name="bar" unicode="|" horiz-adv-x="325" 
d="M130 800h65v-900h-65v900z" />
    <glyph glyph-name="braceright" unicode="}" horiz-adv-x="475" 
d="M45 -80v63h116q41 0 60.5 19t19.5 61v192q0 44 18.5 68.5t49.5 26.5q-31 2 -49.5 26.5t-18.5 68.5v192q0 42 -19.5 61t-60.5 19h-116v63h131q139 0 139 -139v-199q0 -35 14.5 -49t48.5 -14h52v-58h-52q-34 0 -48.5 -14t-14.5 -49v-199q0 -139 -139 -139h-131z" />
    <glyph glyph-name="asciitilde" unicode="~" 
d="M421 231q-38 0 -72.5 20.5t-56 44.5t-51 44.5t-58.5 20.5q-36 0 -56 -26.5t-23 -52.5l-2 -27l-62 7q0 7 1 18t9 40t21.5 51t42.5 40t69 18q38 0 72.5 -20.5t56 -44.5t51.5 -44.5t59 -20.5q36 0 56.5 26.5t23.5 52.5l2 27l61 -7q0 -7 -1 -18t-9 -40t-21.5 -51t-43 -40
t-69.5 -18z" />
    <glyph glyph-name="exclamdown" unicode="&#xa1;" horiz-adv-x="288" 
d="M144 602q-22 0 -38 16t-16 38t16 38t38 16t38 -16t16 -38t-16 -38t-38 -16zM97 0l19 487h55l19 -487h-93z" />
    <glyph glyph-name="cent" unicode="&#xa2;" horiz-adv-x="565" 
d="M288 90v93q-102 12 -167.5 85t-65.5 176q0 102 66 175.5t167 86.5v94h52v-92q52 -3 97 -23t63 -39l19 -19l-51 -49q-6 7 -16.5 17.5t-48 28t-79.5 17.5q-82 0 -138 -56.5t-56 -139.5t55.5 -139t138.5 -56q29 0 54.5 7t42 17t28.5 20.5t17 17.5l6 7l52 -47q-2 -3 -7 -8.5
t-22 -20.5t-36.5 -26.5t-51.5 -22t-67 -12.5v-92h-52z" />
    <glyph glyph-name="sterling" unicode="&#xa3;" horiz-adv-x="603" 
d="M140 0v322h-95v51h95v108q0 107 61.5 168t160.5 61q41 0 76.5 -12t56.5 -29t36 -34t21 -29l6 -12l-63 -36q-1 3 -3.5 9t-13 20t-24 25t-39 20t-55.5 9q-66 0 -105.5 -41t-39.5 -110v-117h235v-51h-235v-257h320v-65h-395z" />
    <glyph glyph-name="currency" unicode="&#xa4;" horiz-adv-x="673" 
d="M92 65l-37 37l92 88q-58 67 -58 159q0 90 59 159l-93 90l37 37l94 -91q67 51 152 51q86 0 149 -50l93 90l38 -37l-93 -89q58 -66 58 -158q0 -91 -58 -160l93 -89l-38 -37l-94 91q-65 -51 -151 -51q-87 0 -151 50zM336 169q74 0 126.5 52.5t52.5 128.5t-52.5 128.5
t-126.5 52.5t-126 -52.5t-52 -128.5t52 -128.5t126 -52.5z" />
    <glyph glyph-name="yen" unicode="&#xa5;" horiz-adv-x="630" 
d="M276 0v185h-231v48h231v89l-8 13h-223v48h192l-212 317h92l200 -312l200 312h88l-213 -317h193v-48h-224l-7 -13v-89h231v-48h-231v-185h-78z" />
    <glyph glyph-name="brokenbar" unicode="&#xa6;" horiz-adv-x="325" 
d="M195 465h-65v335h65v-335zM130 235h65v-335h-65v335z" />
    <glyph glyph-name="section" unicode="&#xa7;" horiz-adv-x="630" 
d="M300 -170q-56 0 -102 16.5t-64 33.5l-19 16l47 48q6 -5 16.5 -13.5t46 -22t73.5 -13.5q59 0 88.5 24.5t29.5 58.5q0 77 -137 118q-118 37 -171 84t-53 109q0 55 40 94t111 54q-71 50 -71 119q0 66 52.5 110t143.5 44q35 0 67 -7t52 -16.5t35.5 -19t22.5 -16.5l7 -7
l-47 -48q-6 5 -16.5 13.5t-45.5 22t-73 13.5q-59 0 -89 -24.5t-30 -58.5q0 -77 137 -118q118 -37 171 -84t53 -109q0 -56 -39.5 -94.5t-111.5 -54.5q71 -49 71 -118q0 -66 -52.5 -110t-142.5 -44zM363 141q60 4 97.5 30.5t37.5 68.5q0 45 -40.5 77.5t-148.5 66.5
q-18 5 -42 14q-61 -3 -98 -29.5t-37 -68.5q0 -45 40.5 -77.5t148.5 -66.5q23 -8 42 -15z" />
    <glyph glyph-name="dieresis" unicode="&#xa8;" horiz-adv-x="398" 
d="M99 607q-21 0 -35 14.5t-14 34.5t14.5 34.5t34.5 14.5q21 0 35 -14t14 -34q0 -21 -14.5 -35.5t-34.5 -14.5zM299 607q-21 0 -35 14.5t-14 34.5t14.5 34.5t34.5 14.5q21 0 35 -14t14 -34q0 -21 -14.5 -35.5t-34.5 -14.5z" />
    <glyph glyph-name="copyright" unicode="&#xa9;" horiz-adv-x="826" 
d="M411 -10q-154 0 -257.5 103t-103.5 255t105.5 257t259.5 105t257.5 -103t103.5 -255t-105.5 -257t-259.5 -105zM413 40q130 0 219.5 90t89.5 220t-89.5 220t-219.5 90t-219.5 -90t-89.5 -220t89.5 -220t219.5 -90zM421 152q-88 0 -143.5 56t-55.5 140t57.5 142t144.5 58
q29 0 55.5 -7t43 -17t29 -20t18.5 -17l5 -7l-41 -34q-4 5 -12 13.5t-36 22t-61 13.5q-61 0 -103 -41.5t-42 -103.5t42 -103.5t103 -41.5q22 0 41.5 5.5t32.5 13.5t22.5 16.5t13.5 13.5l4 6l39 -33q-2 -3 -6 -8t-18 -18t-31 -23t-44.5 -18t-57.5 -8z" />
    <glyph glyph-name="ordfeminine" unicode="&#xaa;" horiz-adv-x="399" 
d="M185 380q-57 0 -92.5 27.5t-35.5 68.5q0 42 35.5 70t93.5 28q61 0 96 -29v16q0 46 -24.5 70t-64.5 24q-26 0 -49.5 -7.5t-33.5 -14.5l-11 -7l-26 40q48 38 126 38q66 0 104.5 -38t38.5 -105v-175h-48l-6 29q-37 -35 -103 -35zM197 421q40 0 64 16t24 40t-24.5 40.5
t-63.5 16.5q-36 0 -58 -16.5t-22 -40.5t22 -40t58 -16zM67 277v44h275v-44h-275z" />
    <glyph glyph-name="guillemotleft" unicode="&#xab;" horiz-adv-x="755" 
d="M136 351l223 -208l-43 -46l-266 238v30l266 238l43 -43zM457 351l223 -208l-43 -46l-266 238v30l266 238l43 -43z" />
    <glyph glyph-name="logicalnot" unicode="&#xac;" 
d="M491 160v196h-441v62h505v-258h-64z" />
    <glyph glyph-name="registered" unicode="&#xae;" horiz-adv-x="536" 
d="M50 493q0 91 63.5 154t155.5 63t154.5 -62t62.5 -153t-63.5 -154t-155.5 -63t-154.5 62t-62.5 153zM93 494q0 -76 50 -125.5t125 -49.5t125 49.5t50 125.5t-50 125.5t-125 49.5t-125 -49.5t-50 -125.5zM190 599h93q33 0 54 -19t21 -49q0 -49 -48 -64l57 -78h-48l-52 74
h-37v-74h-40v210zM230 564v-68h48q40 0 40 33q0 35 -40 35h-48z" />
    <glyph glyph-name="macron" unicode="&#xaf;" horiz-adv-x="460" 
d="M50 635v50h360v-50h-360z" />
    <glyph glyph-name="degree" unicode="&#xb0;" horiz-adv-x="407" 
d="M203 387q-70 0 -116.5 46t-46.5 115q0 68 47.5 115t117.5 47t116 -45.5t46 -114.5t-47 -116t-117 -47zM204 440q48 0 77.5 30.5t29.5 78.5q0 47 -30 78t-77 31q-48 0 -78 -31t-30 -78q0 -48 30 -78.5t78 -30.5z" />
    <glyph glyph-name="plusminus" unicode="&#xb1;" 
d="M272 203v197h-222v60h222v198h61v-198h222v-60h-222v-197h-61zM50 42v62h505v-62h-505z" />
    <glyph glyph-name="uni00B2" unicode="&#xb2;" horiz-adv-x="348" 
d="M40 280v43l157 155q56 55 56 105q0 30 -22.5 50.5t-55.5 20.5q-29 0 -52 -14t-31 -28l-9 -15l-46 25q2 3 5 9t15 20.5t27 25.5t40.5 20t54.5 9q56 0 93.5 -33.5t37.5 -85.5q0 -37 -16.5 -68.5t-54.5 -69.5l-122 -119h190v-50h-267z" />
    <glyph glyph-name="uni00B3" unicode="&#xb3;" horiz-adv-x="342" 
d="M155 274q-42 0 -75.5 17t-46.5 34l-13 17l43 27q3 -5 9.5 -12.5t30 -20t52.5 -12.5q41 0 66.5 21t25.5 54t-25.5 55t-69.5 22h-40v46h42q38 0 59.5 18.5t21.5 48.5t-21.5 48.5t-58.5 18.5q-25 0 -44.5 -10t-26.5 -20l-6 -9l-43 24q1 3 4 7t14 15.5t24 20t34.5 15.5
t46.5 7q59 0 96.5 -31t37.5 -78q0 -65 -63 -97q35 -15 55 -43t20 -63q0 -52 -42.5 -86t-106.5 -34z" />
    <glyph glyph-name="acute" unicode="&#xb4;" horiz-adv-x="260" 
d="M50 577l79 163h81l-98 -163h-62z" />
    <glyph glyph-name="paragraph" unicode="&#xb6;" horiz-adv-x="734" 
d="M299 300h-22q-105 0 -167.5 55t-62.5 143t64 145t169 57h334v-700h-70v637h-175v-637h-70v300z" />
    <glyph glyph-name="periodcentered" unicode="&#xb7;" horiz-adv-x="223" 
d="M111 296q-22 0 -38 16t-16 38t16 38t38 16q23 0 38.5 -16t15.5 -38t-15.5 -38t-38.5 -16z" />
    <glyph glyph-name="cedilla" unicode="&#xb8;" horiz-adv-x="340" 
d="M151 -195q-27 0 -52.5 7.5t-36.5 14.5l-12 7l20 48q30 -22 82 -22q36 0 56.5 18.5t20.5 48.5q0 21 -11 39t-19.5 24.5t-13.5 9.5l30 29q3 -1 8 -3.5t18 -12t23 -21t18 -31t8 -41.5q0 -53 -40.5 -84t-98.5 -31z" />
    <glyph glyph-name="uni00B9" unicode="&#xb9;" horiz-adv-x="274" 
d="M170 700h47v-420h-58v348l-101 -71l-31 39z" />
    <glyph glyph-name="ordmasculine" unicode="&#xba;" horiz-adv-x="453" 
d="M224 380q-72 0 -119.5 46t-47.5 114q0 69 49.5 116.5t121.5 47.5t120 -46t48 -114q0 -69 -49.5 -116.5t-122.5 -47.5zM226 433q46 0 78 31t32 78t-32 78t-78 31t-77.5 -31t-31.5 -78t31.5 -78t77.5 -31zM67 277v44h319v-44h-319z" />
    <glyph glyph-name="guillemotright" unicode="&#xbb;" horiz-adv-x="755" 
d="M297 348l-222 209l43 46l266 -238v-30l-266 -238l-43 43zM618 348l-222 209l43 46l266 -238v-30l-266 -238l-43 43z" />
    <glyph glyph-name="onequarter" unicode="&#xbc;" horiz-adv-x="862" 
d="M170 700h47v-420h-58v348l-101 -71l-31 39zM622 700h59l-511 -700h-59zM714 0v106h-196v48l194 266h56v-268h67v-46h-67v-106h-54zM568 152h146v198z" />
    <glyph glyph-name="onehalf" unicode="&#xbd;" horiz-adv-x="839" 
d="M170 700h47v-420h-58v348l-101 -71l-31 39zM622 700h59l-511 -700h-59zM531 0v43l157 155q56 55 56 105q0 30 -22.5 50.5t-55.5 20.5q-29 0 -52 -14t-32 -28l-8 -15l-46 25q2 3 5 9t15 20.5t27 25.5t40.5 20t54.5 9q56 0 93.5 -33.5t37.5 -85.5q0 -37 -16.5 -68.5
t-54.5 -69.5l-122 -119h190v-50h-267z" />
    <glyph glyph-name="threequarters" unicode="&#xbe;" horiz-adv-x="900" 
d="M155 274q-42 0 -75.5 17t-46.5 34l-13 17l43 27q3 -5 9.5 -12.5t30 -20t52.5 -12.5q41 0 66.5 21t25.5 54t-25.5 55t-69.5 22h-40v46h42q38 0 59.5 18.5t21.5 48.5t-21.5 48.5t-58.5 18.5q-25 0 -44.5 -10t-26.5 -20l-6 -9l-43 24q1 3 4 7t14 15.5t24 20t34.5 15.5
t46.5 7q59 0 96.5 -31t37.5 -78q0 -65 -63 -97q35 -15 55 -43t20 -63q0 -52 -42.5 -86t-106.5 -34zM660 700h59l-511 -700h-59zM752 0v106h-196v48l194 266h56v-268h67v-46h-67v-106h-54zM606 152h146v198z" />
    <glyph glyph-name="questiondown" unicode="&#xbf;" horiz-adv-x="540" 
d="M280 710q22 0 38 -16t16 -38t-16 -38t-38 -16t-38 16t-16 38t16 38t38 16zM315 487q0 -40 -17.5 -74t-42 -58t-49 -47.5t-42 -53.5t-17.5 -65q0 -56 37 -92t93 -36q30 0 56 10.5t42 25.5t27.5 29.5t15.5 25.5l5 10l61 -32q-2 -6 -6 -15.5t-21 -33.5t-39 -42.5
t-61.5 -33.5t-85.5 -15q-87 0 -144 55t-57 133q0 39 12.5 72t31 55t41 44.5t41.5 41t33 43.5t16 53h70z" />
    <glyph glyph-name="Agrave" unicode="&#xc0;" horiz-adv-x="695" 
d="M317 757l-99 163h82l78 -163h-61zM7 0l302 700h78l301 -700h-86l-85 202h-342l-86 -202h-82zM198 265h294l-146 347z" />
    <glyph glyph-name="Aacute" unicode="&#xc1;" horiz-adv-x="695" 
d="M316 757l79 163h81l-98 -163h-62zM7 0l302 700h78l301 -700h-86l-85 202h-342l-86 -202h-82zM198 265h294l-146 347z" />
    <glyph glyph-name="Acircumflex" unicode="&#xc2;" horiz-adv-x="695" 
d="M162 757l150 163h70l150 -163h-70l-117 112l-116 -112h-67zM7 0l302 700h78l301 -700h-86l-85 202h-342l-86 -202h-82zM198 265h294l-146 347z" />
    <glyph glyph-name="Atilde" unicode="&#xc3;" horiz-adv-x="695" 
d="M423 765q-27 0 -50 14t-36 30.5t-31 30.5t-37 14q-18 0 -29.5 -18t-13.5 -36l-2 -18l-49 6q0 5 1 13t6.5 28t14.5 35.5t28.5 28t45.5 12.5q28 0 51 -14t36 -30.5t30.5 -30.5t36.5 -14t30.5 18t13.5 36l2 18l49 -5q0 -5 -1 -13t-6.5 -28t-15 -35.5t-29 -28.5t-45.5 -13z
M7 0l302 700h78l301 -700h-86l-85 202h-342l-86 -202h-82zM198 265h294l-146 347z" />
    <glyph glyph-name="Adieresis" unicode="&#xc4;" horiz-adv-x="695" 
d="M248 787q-21 0 -35 14.5t-14 34.5t14.5 34.5t34.5 14.5q21 0 35 -14t14 -34q0 -21 -14.5 -35.5t-34.5 -14.5zM448 787q-21 0 -35 14.5t-14 34.5t14.5 34.5t34.5 14.5q21 0 35 -14t14 -34q0 -21 -14.5 -35.5t-34.5 -14.5zM7 0l302 700h78l301 -700h-86l-85 202h-342
l-86 -202h-82zM198 265h294l-146 347z" />
    <glyph glyph-name="Aring" unicode="&#xc5;" horiz-adv-x="695" 
d="M348 737q-41 0 -68.5 26t-27.5 66q0 39 27.5 65t68.5 26q40 0 68 -26t28 -65t-28 -65.5t-68 -26.5zM348 775q22 0 38 15.5t16 38.5t-16 38t-38 15q-23 0 -39 -15t-16 -38q0 -24 16 -39t39 -15zM7 0l302 700h78l301 -700h-86l-85 202h-342l-86 -202h-82zM198 265h294
l-146 347z" />
    <glyph glyph-name="AE" unicode="&#xc6;" horiz-adv-x="1053" 
d="M-3 0l465 700h526v-68h-408v-235h358v-64h-358v-265h418v-68h-496v202h-282l-133 -202h-90zM258 265h244v370z" />
    <glyph glyph-name="Ccedilla" unicode="&#xc7;" horiz-adv-x="718" 
d="M683 106q-3 -4 -9 -10.5t-26.5 -24t-43.5 -31.5t-61 -28t-78 -19q27 -31 27 -73q0 -53 -40.5 -84t-98.5 -31q-27 0 -52.5 7.5t-36.5 14.5l-12 7l20 48q30 -22 82 -22q36 0 56.5 18.5t20.5 48.5q0 37 -31 63q-147 6 -246 108.5t-99 249.5q0 152 105.5 257t258.5 105
q47 0 91 -11t72.5 -26.5t51 -31t32.5 -26.5l10 -11l-54 -49l-9 9t-25.5 20t-41.5 25t-57 20t-72 9q-121 0 -202.5 -83t-81.5 -205t81.5 -205t202.5 -83q38 0 74.5 9.5t60.5 22.5t42.5 27t27.5 23t9 10z" />
    <glyph glyph-name="Egrave" unicode="&#xc8;" horiz-adv-x="650" 
d="M311 757l-99 163h82l78 -163h-61zM100 0v700h485v-68h-407v-235h357v-64h-357v-265h417v-68h-495z" />
    <glyph glyph-name="Eacute" unicode="&#xc9;" horiz-adv-x="650" 
d="M311 757l79 163h81l-98 -163h-62zM100 0v700h485v-68h-407v-235h357v-64h-357v-265h417v-68h-495z" />
    <glyph glyph-name="Ecircumflex" unicode="&#xca;" horiz-adv-x="650" 
d="M157 757l150 163h70l150 -163h-70l-117 112l-116 -112h-67zM100 0v700h485v-68h-407v-235h357v-64h-357v-265h417v-68h-495z" />
    <glyph glyph-name="Edieresis" unicode="&#xcb;" horiz-adv-x="650" 
d="M242 787q-21 0 -35 14.5t-14 34.5t14.5 34.5t34.5 14.5q21 0 35 -14t14 -34q0 -21 -14.5 -35.5t-34.5 -14.5zM442 787q-21 0 -35 14.5t-14 34.5t14.5 34.5t34.5 14.5q21 0 35 -14t14 -34q0 -21 -14.5 -35.5t-34.5 -14.5zM100 0v700h485v-68h-407v-235h357v-64h-357v-265
h417v-68h-495z" />
    <glyph glyph-name="Igrave" unicode="&#xcc;" horiz-adv-x="290" 
d="M114 757l-99 163h82l78 -163h-61zM105 700h81v-700h-81v700z" />
    <glyph glyph-name="Iacute" unicode="&#xcd;" horiz-adv-x="290" 
d="M114 757l79 163h81l-98 -163h-62zM105 700h81v-700h-81v700z" />
    <glyph glyph-name="Icircumflex" unicode="&#xce;" horiz-adv-x="290" 
d="M-40 757l150 163h70l150 -163h-70l-117 112l-116 -112h-67zM105 700h81v-700h-81v700z" />
    <glyph glyph-name="Idieresis" unicode="&#xcf;" horiz-adv-x="290" 
d="M45 787q-21 0 -35 14.5t-14 34.5t14.5 34.5t34.5 14.5q21 0 35 -14t14 -34q0 -21 -14.5 -35.5t-34.5 -14.5zM245 787q-21 0 -35 14.5t-14 34.5t14.5 34.5t34.5 14.5q21 0 35 -14t14 -34q0 -21 -14.5 -35.5t-34.5 -14.5zM105 700h81v-700h-81v700z" />
    <glyph glyph-name="Eth" unicode="&#xd0;" horiz-adv-x="793" 
d="M357 700q166 0 273.5 -99t107.5 -249t-109 -251t-275 -101h-222v336h-102v50h102v314h225zM360 68q130 0 215 80.5t85 201.5t-85 201.5t-215 80.5h-150v-246h230v-50h-230v-268h150z" />
    <glyph glyph-name="Ntilde" unicode="&#xd1;" horiz-adv-x="790" 
d="M470 765q-27 0 -50 14t-36 30.5t-31 30.5t-37 14q-18 0 -29.5 -18t-13.5 -36l-2 -18l-49 6q0 5 1 13t6.5 28t14.5 35.5t28.5 28t45.5 12.5q28 0 51 -14t36 -30.5t30.5 -30.5t36.5 -14t30.5 18t13.5 36l2 18l49 -5q0 -5 -1 -13t-6.5 -28t-15 -35.5t-29 -28.5t-45.5 -13z
M177 586v-586h-77v700h83l430 -578v578h77v-700h-77z" />
    <glyph glyph-name="Ograve" unicode="&#xd2;" horiz-adv-x="835" 
d="M386 757l-99 163h82l78 -163h-61zM55 348q0 152 105.5 257t258.5 105t257 -103t104 -255t-105.5 -257t-258.5 -105t-257 103t-104 255zM133 350q0 -122 81.5 -205t202.5 -83t203 83t82 205t-82 205t-203 83t-202.5 -83t-81.5 -205z" />
    <glyph glyph-name="Oacute" unicode="&#xd3;" horiz-adv-x="835" 
d="M386 757l79 163h81l-98 -163h-62zM55 348q0 152 105.5 257t258.5 105t257 -103t104 -255t-105.5 -257t-258.5 -105t-257 103t-104 255zM133 350q0 -122 81.5 -205t202.5 -83t203 83t82 205t-82 205t-203 83t-202.5 -83t-81.5 -205z" />
    <glyph glyph-name="Ocircumflex" unicode="&#xd4;" horiz-adv-x="835" 
d="M232 757l150 163h70l150 -163h-70l-117 112l-116 -112h-67zM55 348q0 152 105.5 257t258.5 105t257 -103t104 -255t-105.5 -257t-258.5 -105t-257 103t-104 255zM133 350q0 -122 81.5 -205t202.5 -83t203 83t82 205t-82 205t-203 83t-202.5 -83t-81.5 -205z" />
    <glyph glyph-name="Otilde" unicode="&#xd5;" horiz-adv-x="835" 
d="M493 765q-27 0 -50 14t-36 30.5t-31 30.5t-37 14q-18 0 -29.5 -18t-13.5 -36l-2 -18l-49 6q0 5 1 13t6.5 28t14.5 35.5t28.5 28t45.5 12.5q28 0 51 -14t36 -30.5t30.5 -30.5t36.5 -14t30.5 18t13.5 36l2 18l49 -5q0 -5 -1 -13t-6.5 -28t-15 -35.5t-29 -28.5t-45.5 -13z
M55 348q0 152 105.5 257t258.5 105t257 -103t104 -255t-105.5 -257t-258.5 -105t-257 103t-104 255zM133 350q0 -122 81.5 -205t202.5 -83t203 83t82 205t-82 205t-203 83t-202.5 -83t-81.5 -205z" />
    <glyph glyph-name="Odieresis" unicode="&#xd6;" horiz-adv-x="835" 
d="M317 787q-21 0 -35 14.5t-14 34.5t14.5 34.5t34.5 14.5q21 0 35 -14t14 -34q0 -21 -14.5 -35.5t-34.5 -14.5zM517 787q-21 0 -35 14.5t-14 34.5t14.5 34.5t34.5 14.5q21 0 35 -14t14 -34q0 -21 -14.5 -35.5t-34.5 -14.5zM55 348q0 152 105.5 257t258.5 105t257 -103
t104 -255t-105.5 -257t-258.5 -105t-257 103t-104 255zM133 350q0 -122 81.5 -205t202.5 -83t203 83t82 205t-82 205t-203 83t-202.5 -83t-81.5 -205z" />
    <glyph glyph-name="multiply" unicode="&#xd7;" 
d="M110 114l-44 44l195 192l-195 192l44 44l193 -194l192 194l44 -44l-195 -192l195 -192l-44 -44l-192 194z" />
    <glyph glyph-name="Oslash" unicode="&#xd8;" horiz-adv-x="835" 
d="M675 607q105 -103 105 -255t-105.5 -257t-258.5 -105q-125 0 -220 71l-80 -91h-64l108 123q-105 103 -105 255t105.5 257t258.5 105q125 0 220 -71l80 91h64zM132 350q0 -119 77 -201l381 434q-77 56 -173 56q-121 0 -203 -83t-82 -206zM417 61q122 0 204 83t82 206
q0 118 -77 201l-381 -434q75 -56 172 -56z" />
    <glyph glyph-name="Ugrave" unicode="&#xd9;" horiz-adv-x="740" 
d="M339 757l-99 163h82l78 -163h-61zM368 -10q-122 0 -200 81t-78 210v419h79v-418q0 -98 57 -159t146 -61q88 0 145 61t57 159v418h76v-416q0 -129 -79.5 -211.5t-202.5 -82.5z" />
    <glyph glyph-name="Uacute" unicode="&#xda;" horiz-adv-x="740" 
d="M339 757l79 163h81l-98 -163h-62zM368 -10q-122 0 -200 81t-78 210v419h79v-418q0 -98 57 -159t146 -61q88 0 145 61t57 159v418h76v-416q0 -129 -79.5 -211.5t-202.5 -82.5z" />
    <glyph glyph-name="Ucircumflex" unicode="&#xdb;" horiz-adv-x="740" 
d="M185 757l150 163h70l150 -163h-70l-117 112l-116 -112h-67zM368 -10q-122 0 -200 81t-78 210v419h79v-418q0 -98 57 -159t146 -61q88 0 145 61t57 159v418h76v-416q0 -129 -79.5 -211.5t-202.5 -82.5z" />
    <glyph glyph-name="Udieresis" unicode="&#xdc;" horiz-adv-x="740" 
d="M270 787q-21 0 -35 14.5t-14 34.5t14.5 34.5t34.5 14.5q21 0 35 -14t14 -34q0 -21 -14.5 -35.5t-34.5 -14.5zM470 787q-21 0 -35 14.5t-14 34.5t14.5 34.5t34.5 14.5q21 0 35 -14t14 -34q0 -21 -14.5 -35.5t-34.5 -14.5zM368 -10q-122 0 -200 81t-78 210v419h79v-418
q0 -98 57 -159t146 -61q88 0 145 61t57 159v418h76v-416q0 -129 -79.5 -211.5t-202.5 -82.5z" />
    <glyph glyph-name="Yacute" unicode="&#xdd;" horiz-adv-x="665" 
d="M303 757l79 163h81l-98 -163h-62zM294 0v280l-287 420h93l235 -349l234 349h89l-286 -420v-280h-78z" />
    <glyph glyph-name="Thorn" unicode="&#xde;" horiz-adv-x="670" 
d="M100 0v700h78v-119h201q105 0 170.5 -60.5t65.5 -153.5t-67 -155t-172 -62h-198v-150h-78zM178 215h191q75 0 121.5 42.5t46.5 107.5q0 66 -46.5 108.5t-121.5 42.5h-191v-301z" />
    <glyph glyph-name="germandbls" unicode="&#xdf;" horiz-adv-x="601" 
d="M346 -10q-22 0 -40.5 3t-26.5 5l-8 3l12 63q28 -8 58 -8q67 0 108 39t41 99q0 61 -42 100t-110 39h-43v61h8q65 0 106 35t41 90t-41 90t-106 35q-67 0 -107.5 -45.5t-40.5 -124.5v-474h-75v472q0 108 61.5 173t162.5 65q97 0 159 -52t62 -132q0 -52 -26 -92t-72 -62
q64 -19 101 -67t37 -115q0 -86 -61 -143t-158 -57z" />
    <glyph glyph-name="agrave" unicode="&#xe0;" horiz-adv-x="564" 
d="M244 577l-99 163h82l78 -163h-61zM52 146q0 67 55.5 113.5t147.5 46.5q105 0 162 -57v42q0 81 -41 122t-111 41q-42 0 -78.5 -13t-52.5 -25l-15 -13l-37 52q7 7 21.5 18t64.5 29t106 18q104 0 161.5 -59.5t57.5 -168.5v-292h-58l-9 55q-58 -65 -173 -65
q-92 0 -146.5 44.5t-54.5 111.5zM128 149q0 -44 38.5 -74t104.5 -30q72 0 111.5 30t39.5 74t-39.5 74t-111.5 30q-66 0 -104.5 -30t-38.5 -74z" />
    <glyph glyph-name="aacute" unicode="&#xe1;" horiz-adv-x="564" 
d="M244 577l79 163h81l-98 -163h-62zM52 146q0 67 55.5 113.5t147.5 46.5q105 0 162 -57v42q0 81 -41 122t-111 41q-42 0 -78.5 -13t-52.5 -25l-15 -13l-37 52q7 7 21.5 18t64.5 29t106 18q104 0 161.5 -59.5t57.5 -168.5v-292h-58l-9 55q-58 -65 -173 -65
q-92 0 -146.5 44.5t-54.5 111.5zM128 149q0 -44 38.5 -74t104.5 -30q72 0 111.5 30t39.5 74t-39.5 74t-111.5 30q-66 0 -104.5 -30t-38.5 -74z" />
    <glyph glyph-name="acircumflex" unicode="&#xe2;" horiz-adv-x="564" 
d="M90 577l150 163h70l150 -163h-70l-117 112l-116 -112h-67zM52 146q0 67 55.5 113.5t147.5 46.5q105 0 162 -57v42q0 81 -41 122t-111 41q-42 0 -78.5 -13t-52.5 -25l-15 -13l-37 52q7 7 21.5 18t64.5 29t106 18q104 0 161.5 -59.5t57.5 -168.5v-292h-58l-9 55
q-58 -65 -173 -65q-92 0 -146.5 44.5t-54.5 111.5zM128 149q0 -44 38.5 -74t104.5 -30q72 0 111.5 30t39.5 74t-39.5 74t-111.5 30q-66 0 -104.5 -30t-38.5 -74z" />
    <glyph glyph-name="atilde" unicode="&#xe3;" horiz-adv-x="564" 
d="M351 585q-27 0 -50 14t-36 30.5t-31 30.5t-37 14q-18 0 -29.5 -18t-13.5 -36l-2 -18l-49 6q0 5 1 13t6.5 28t14.5 35.5t28.5 28t45.5 12.5q28 0 51 -14t36 -30.5t30.5 -30.5t36.5 -14t30.5 18t13.5 36l2 18l49 -5q0 -5 -1 -13t-6.5 -28t-15 -35.5t-29 -28.5t-45.5 -13z
M52 146q0 67 55.5 113.5t147.5 46.5q105 0 162 -57v42q0 81 -41 122t-111 41q-42 0 -78.5 -13t-52.5 -25l-15 -13l-37 52q7 7 21.5 18t64.5 29t106 18q104 0 161.5 -59.5t57.5 -168.5v-292h-58l-9 55q-58 -65 -173 -65q-92 0 -146.5 44.5t-54.5 111.5zM128 149
q0 -44 38.5 -74t104.5 -30q72 0 111.5 30t39.5 74t-39.5 74t-111.5 30q-66 0 -104.5 -30t-38.5 -74z" />
    <glyph glyph-name="adieresis" unicode="&#xe4;" horiz-adv-x="564" 
d="M175 607q-21 0 -35 14.5t-14 34.5t14.5 34.5t34.5 14.5q21 0 35 -14t14 -34q0 -21 -14.5 -35.5t-34.5 -14.5zM375 607q-21 0 -35 14.5t-14 34.5t14.5 34.5t34.5 14.5q21 0 35 -14t14 -34q0 -21 -14.5 -35.5t-34.5 -14.5zM52 146q0 67 55.5 113.5t147.5 46.5
q105 0 162 -57v42q0 81 -41 122t-111 41q-42 0 -78.5 -13t-52.5 -25l-15 -13l-37 52q7 7 21.5 18t64.5 29t106 18q104 0 161.5 -59.5t57.5 -168.5v-292h-58l-9 55q-58 -65 -173 -65q-92 0 -146.5 44.5t-54.5 111.5zM128 149q0 -44 38.5 -74t104.5 -30q72 0 111.5 30t39.5 74
t-39.5 74t-111.5 30q-66 0 -104.5 -30t-38.5 -74z" />
    <glyph glyph-name="aring" unicode="&#xe5;" horiz-adv-x="564" 
d="M276 557q-41 0 -68.5 26t-27.5 66q0 39 27.5 65t68.5 26q40 0 68 -26t28 -65t-28 -65.5t-68 -26.5zM276 595q22 0 38 15.5t16 38.5t-16 38t-38 15q-23 0 -39 -15t-16 -38q0 -24 16 -39t39 -15zM52 146q0 67 55.5 113.5t147.5 46.5q105 0 162 -57v42q0 81 -41 122t-111 41
q-42 0 -78.5 -13t-52.5 -25l-15 -13l-37 52q7 7 21.5 18t64.5 29t106 18q104 0 161.5 -59.5t57.5 -168.5v-292h-58l-9 55q-58 -65 -173 -65q-92 0 -146.5 44.5t-54.5 111.5zM128 149q0 -44 38.5 -74t104.5 -30q72 0 111.5 30t39.5 74t-39.5 74t-111.5 30q-66 0 -104.5 -30
t-38.5 -74z" />
    <glyph glyph-name="ae" unicode="&#xe6;" horiz-adv-x="977" 
d="M259 -10q-95 0 -151 44.5t-56 111.5t55.5 113.5t147.5 46.5q105 0 162 -57v42q0 81 -41 122t-111 41q-42 0 -78.5 -12t-52.5 -24l-15 -13l-37 51q3 3 8 7t23 15t38.5 19.5t54 15.5t69.5 7q150 0 190 -132q32 60 90.5 96t130.5 36q102 0 174.5 -73.5t72.5 -177.5l-2 -19
h-437q2 -85 57 -139t137 -54q54 0 98 23.5t61 46.5l17 23l48 -39q-3 -5 -8.5 -13t-25.5 -29t-44 -37t-64.5 -29t-85.5 -13q-70 0 -127 33t-90 89q-15 -56 -68 -89t-140 -33zM495 301h363q-9 67 -58.5 112.5t-114.5 45.5q-72 0 -124.5 -44t-65.5 -114zM271 45q72 0 111.5 30
t39.5 74t-39.5 74t-111.5 30q-66 0 -104.5 -30t-38.5 -74t38.5 -74t104.5 -30z" />
    <glyph glyph-name="ccedilla" unicode="&#xe7;" horiz-adv-x="546" 
d="M514 81q-6 -8 -17 -20t-51.5 -35.5t-86.5 -31.5q28 -34 28 -74q0 -53 -40.5 -84t-98.5 -31q-27 0 -52.5 7.5t-37.5 14.5l-11 7l20 48q30 -22 82 -22q36 0 56.5 18.5t20.5 48.5q0 37 -31 63q-108 7 -179 81.5t-71 181.5q0 112 78 189.5t192 77.5q57 0 105.5 -21t68.5 -41
l20 -21l-50 -49q-6 7 -17 17.5t-48.5 27.5t-79.5 17q-83 0 -138.5 -56t-55.5 -139t56 -139.5t138 -56.5q44 0 81.5 17t52.5 34l15 17z" />
    <glyph glyph-name="egrave" unicode="&#xe8;" horiz-adv-x="604" 
d="M283 577l-99 163h82l78 -163h-61zM312 -10q-114 0 -190.5 75.5t-76.5 187.5t77.5 189.5t191.5 77.5q102 0 174.5 -73.5t72.5 -177.5l-2 -19h-438q2 -86 57.5 -139.5t137.5 -53.5q54 0 98 23.5t61 46.5l17 23l48 -39q-3 -5 -8.5 -13t-25.5 -29t-44 -37t-64.5 -29
t-85.5 -13zM123 303h363q-10 66 -59.5 111t-114.5 45q-71 0 -123.5 -44t-65.5 -112z" />
    <glyph glyph-name="eacute" unicode="&#xe9;" horiz-adv-x="604" 
d="M283 577l79 163h81l-98 -163h-62zM312 -10q-114 0 -190.5 75.5t-76.5 187.5t77.5 189.5t191.5 77.5q102 0 174.5 -73.5t72.5 -177.5l-2 -19h-438q2 -86 57.5 -139.5t137.5 -53.5q54 0 98 23.5t61 46.5l17 23l48 -39q-3 -5 -8.5 -13t-25.5 -29t-44 -37t-64.5 -29
t-85.5 -13zM123 303h363q-10 66 -59.5 111t-114.5 45q-71 0 -123.5 -44t-65.5 -112z" />
    <glyph glyph-name="ecircumflex" unicode="&#xea;" horiz-adv-x="604" 
d="M129 577l150 163h70l150 -163h-70l-117 112l-116 -112h-67zM312 -10q-114 0 -190.5 75.5t-76.5 187.5t77.5 189.5t191.5 77.5q102 0 174.5 -73.5t72.5 -177.5l-2 -19h-438q2 -86 57.5 -139.5t137.5 -53.5q54 0 98 23.5t61 46.5l17 23l48 -39q-3 -5 -8.5 -13t-25.5 -29
t-44 -37t-64.5 -29t-85.5 -13zM123 303h363q-10 66 -59.5 111t-114.5 45q-71 0 -123.5 -44t-65.5 -112z" />
    <glyph glyph-name="edieresis" unicode="&#xeb;" horiz-adv-x="604" 
d="M214 607q-21 0 -35 14.5t-14 34.5t14.5 34.5t34.5 14.5q21 0 35 -14t14 -34q0 -21 -14.5 -35.5t-34.5 -14.5zM414 607q-21 0 -35 14.5t-14 34.5t14.5 34.5t34.5 14.5q21 0 35 -14t14 -34q0 -21 -14.5 -35.5t-34.5 -14.5zM312 -10q-114 0 -190.5 75.5t-76.5 187.5
t77.5 189.5t191.5 77.5q102 0 174.5 -73.5t72.5 -177.5l-2 -19h-438q2 -86 57.5 -139.5t137.5 -53.5q54 0 98 23.5t61 46.5l17 23l48 -39q-3 -5 -8.5 -13t-25.5 -29t-44 -37t-64.5 -29t-85.5 -13zM123 303h363q-10 66 -59.5 111t-114.5 45q-71 0 -123.5 -44t-65.5 -112z" />
    <glyph glyph-name="igrave" unicode="&#xec;" horiz-adv-x="247" 
d="M93 577l-99 163h82l78 -163h-61zM85 510h77v-510h-77v510z" />
    <glyph glyph-name="iacute" unicode="&#xed;" horiz-adv-x="247" 
d="M92 577l79 163h81l-98 -163h-62zM85 510h77v-510h-77v510z" />
    <glyph glyph-name="icircumflex" unicode="&#xee;" horiz-adv-x="247" 
d="M-62 577l150 163h70l150 -163h-70l-117 112l-116 -112h-67zM85 510h77v-510h-77v510z" />
    <glyph glyph-name="idieresis" unicode="&#xef;" horiz-adv-x="247" 
d="M24 607q-21 0 -35 14.5t-14 34.5t14.5 34.5t34.5 14.5q21 0 35 -14t14 -34q0 -21 -14.5 -35.5t-34.5 -14.5zM224 607q-21 0 -35 14.5t-14 34.5t14.5 34.5t34.5 14.5q21 0 35 -14t14 -34q0 -21 -14.5 -35.5t-34.5 -14.5zM85 510h77v-510h-77v510z" />
    <glyph glyph-name="eth" unicode="&#xf0;" horiz-adv-x="627" 
d="M521 428q61 -92 61 -180q0 -108 -79.5 -183t-190.5 -75q-113 0 -190 73.5t-77 182.5q0 104 76.5 177.5t183.5 73.5q58 0 110 -30l-78 115l-183 -39v48l155 33l-51 76h85l39 -60l144 31v-48l-116 -25zM314 59q81 0 137 55t56 133q0 79 -55.5 133.5t-137.5 54.5t-138 -54.5
t-56 -133.5q0 -78 56 -133t138 -55z" />
    <glyph glyph-name="ntilde" unicode="&#xf1;" horiz-adv-x="611" 
d="M381 585q-27 0 -50 14t-36 30.5t-31 30.5t-37 14q-18 0 -29.5 -18t-13.5 -36l-2 -18l-49 6q0 5 1 13t6.5 28t14.5 35.5t28.5 28t45.5 12.5q28 0 51 -14t36 -30.5t30.5 -30.5t36.5 -14t30.5 18t13.5 36l2 18l49 -5q0 -5 -1 -13t-6.5 -28t-15 -35.5t-29 -28.5t-45.5 -13z
M155 0h-75v510h67l5 -99q57 109 189 109q86 0 142.5 -60t56.5 -172v-288h-75v263q0 94 -41.5 140.5t-104.5 46.5q-72 0 -118 -49t-46 -153v-248z" />
    <glyph glyph-name="ograve" unicode="&#xf2;" horiz-adv-x="627" 
d="M283 577l-99 163h82l78 -163h-61zM45 253q0 112 78 189.5t192 77.5t190.5 -76t76.5 -188t-78 -189t-192 -77t-190.5 75.5t-76.5 187.5zM120 255q0 -83 56 -139.5t138 -56.5t137.5 56.5t55.5 139.5t-55.5 139t-137.5 56q-83 0 -138.5 -56t-55.5 -139z" />
    <glyph glyph-name="oacute" unicode="&#xf3;" horiz-adv-x="627" 
d="M282 577l79 163h81l-98 -163h-62zM45 253q0 112 78 189.5t192 77.5t190.5 -76t76.5 -188t-78 -189t-192 -77t-190.5 75.5t-76.5 187.5zM120 255q0 -83 56 -139.5t138 -56.5t137.5 56.5t55.5 139.5t-55.5 139t-137.5 56q-83 0 -138.5 -56t-55.5 -139z" />
    <glyph glyph-name="ocircumflex" unicode="&#xf4;" horiz-adv-x="627" 
d="M128 577l150 163h70l150 -163h-70l-117 112l-116 -112h-67zM45 253q0 112 78 189.5t192 77.5t190.5 -76t76.5 -188t-78 -189t-192 -77t-190.5 75.5t-76.5 187.5zM120 255q0 -83 56 -139.5t138 -56.5t137.5 56.5t55.5 139.5t-55.5 139t-137.5 56q-83 0 -138.5 -56
t-55.5 -139z" />
    <glyph glyph-name="otilde" unicode="&#xf5;" horiz-adv-x="627" 
d="M389 585q-27 0 -50 14t-36 30.5t-31 30.5t-37 14q-18 0 -29.5 -18t-13.5 -36l-2 -18l-49 6q0 5 1 13t6.5 28t14.5 35.5t28.5 28t45.5 12.5q28 0 51 -14t36 -30.5t30.5 -30.5t36.5 -14t30.5 18t13.5 36l2 18l49 -5q0 -5 -1 -13t-6.5 -28t-15 -35.5t-29 -28.5t-45.5 -13z
M45 253q0 112 78 189.5t192 77.5t190.5 -76t76.5 -188t-78 -189t-192 -77t-190.5 75.5t-76.5 187.5zM120 255q0 -83 56 -139.5t138 -56.5t137.5 56.5t55.5 139.5t-55.5 139t-137.5 56q-83 0 -138.5 -56t-55.5 -139z" />
    <glyph glyph-name="odieresis" unicode="&#xf6;" horiz-adv-x="627" 
d="M214 607q-21 0 -35 14.5t-14 34.5t14.5 34.5t34.5 14.5q21 0 35 -14t14 -34q0 -21 -14.5 -35.5t-34.5 -14.5zM414 607q-21 0 -35 14.5t-14 34.5t14.5 34.5t34.5 14.5q21 0 35 -14t14 -34q0 -21 -14.5 -35.5t-34.5 -14.5zM45 253q0 112 78 189.5t192 77.5t190.5 -76
t76.5 -188t-78 -189t-192 -77t-190.5 75.5t-76.5 187.5zM120 255q0 -83 56 -139.5t138 -56.5t137.5 56.5t55.5 139.5t-55.5 139t-137.5 56q-83 0 -138.5 -56t-55.5 -139z" />
    <glyph glyph-name="divide" unicode="&#xf7;" 
d="M303 512q-22 0 -37 15t-15 37q0 21 15 36t37 15q21 0 36 -15t15 -36q0 -22 -15 -37t-36 -15zM50 325v64h505v-64h-505zM303 99q-22 0 -37 15t-15 36t15 36t37 15q21 0 36 -15t15 -36t-15 -36t-36 -15z" />
    <glyph glyph-name="oslash" unicode="&#xf8;" horiz-adv-x="627" 
d="M597 540l-88 -99q73 -76 73 -185q0 -112 -78 -189t-192 -77q-89 0 -159 49l-62 -69h-61l88 99q-73 75 -73 184q0 112 78 189.5t192 77.5q90 0 159 -50l62 70h61zM117 255q0 -77 48 -133l263 297q-51 35 -114 35q-84 0 -140.5 -57t-56.5 -142zM510 255q0 77 -48 133
l-263 -296q50 -36 115 -36q83 0 139.5 57t56.5 142z" />
    <glyph glyph-name="ugrave" unicode="&#xf9;" horiz-adv-x="612" 
d="M275 577l-99 163h82l78 -163h-61zM456 510h75v-510h-67l-5 99q-57 -109 -189 -109q-86 0 -142.5 60t-56.5 172v288h75v-263q0 -94 41.5 -140.5t104.5 -46.5q72 0 118 49t46 153v248z" />
    <glyph glyph-name="uacute" unicode="&#xfa;" horiz-adv-x="612" 
d="M275 577l79 163h81l-98 -163h-62zM456 510h75v-510h-67l-5 99q-57 -109 -189 -109q-86 0 -142.5 60t-56.5 172v288h75v-263q0 -94 41.5 -140.5t104.5 -46.5q72 0 118 49t46 153v248z" />
    <glyph glyph-name="ucircumflex" unicode="&#xfb;" horiz-adv-x="612" 
d="M121 577l150 163h70l150 -163h-70l-117 112l-116 -112h-67zM456 510h75v-510h-67l-5 99q-57 -109 -189 -109q-86 0 -142.5 60t-56.5 172v288h75v-263q0 -94 41.5 -140.5t104.5 -46.5q72 0 118 49t46 153v248z" />
    <glyph glyph-name="udieresis" unicode="&#xfc;" horiz-adv-x="612" 
d="M206 607q-21 0 -35 14.5t-14 34.5t14.5 34.5t34.5 14.5q21 0 35 -14t14 -34q0 -21 -14.5 -35.5t-34.5 -14.5zM406 607q-21 0 -35 14.5t-14 34.5t14.5 34.5t34.5 14.5q21 0 35 -14t14 -34q0 -21 -14.5 -35.5t-34.5 -14.5zM456 510h75v-510h-67l-5 99q-57 -109 -189 -109
q-86 0 -142.5 60t-56.5 172v288h75v-263q0 -94 41.5 -140.5t104.5 -46.5q72 0 118 49t46 153v248z" />
    <glyph glyph-name="yacute" unicode="&#xfd;" horiz-adv-x="518" 
d="M230 577l79 163h81l-98 -163h-62zM5 510h84l171 -424l172 424h81l-219 -515q-70 -165 -196 -165q-28 0 -51 5.5t-33 10.5l-9 6l25 59q21 -14 63 -14q80 0 128 106z" />
    <glyph glyph-name="thorn" unicode="&#xfe;" horiz-adv-x="656" 
d="M80 700h75v-291q32 51 85.5 81t117.5 30q105 0 179 -76.5t74 -187.5t-75 -188.5t-181 -77.5q-64 0 -116 28t-84 78v-256h-75v860zM150 255q0 -83 55.5 -139.5t137.5 -56.5t137.5 56.5t55.5 139.5t-55.5 139t-137.5 56t-137.5 -56t-55.5 -139z" />
    <glyph glyph-name="ydieresis" unicode="&#xff;" horiz-adv-x="518" 
d="M161 607q-21 0 -35 14.5t-14 34.5t14.5 34.5t34.5 14.5q21 0 35 -14t14 -34q0 -21 -14.5 -35.5t-34.5 -14.5zM361 607q-21 0 -35 14.5t-14 34.5t14.5 34.5t34.5 14.5q21 0 35 -14t14 -34q0 -21 -14.5 -35.5t-34.5 -14.5zM5 510h84l171 -424l172 424h81l-219 -515
q-70 -165 -196 -165q-28 0 -51 5.5t-33 10.5l-9 6l25 59q21 -14 63 -14q80 0 128 106z" />
    <glyph glyph-name="Amacron" unicode="&#x100;" horiz-adv-x="695" 
d="M168 815v50h360v-50h-360zM7 0l302 700h78l301 -700h-86l-85 202h-342l-86 -202h-82zM198 265h294l-146 347z" />
    <glyph glyph-name="amacron" unicode="&#x101;" horiz-adv-x="564" 
d="M95 635v50h360v-50h-360zM52 146q0 67 55.5 113.5t147.5 46.5q105 0 162 -57v42q0 81 -41 122t-111 41q-42 0 -78.5 -13t-52.5 -25l-15 -13l-37 52q7 7 21.5 18t64.5 29t106 18q104 0 161.5 -59.5t57.5 -168.5v-292h-58l-9 55q-58 -65 -173 -65q-92 0 -146.5 44.5
t-54.5 111.5zM128 149q0 -44 38.5 -74t104.5 -30q72 0 111.5 30t39.5 74t-39.5 74t-111.5 30q-66 0 -104.5 -30t-38.5 -74z" />
    <glyph glyph-name="Abreve" unicode="&#x102;" horiz-adv-x="695" 
d="M348 757q-70 0 -115.5 45t-45.5 113v5h59v-8q0 -46 28.5 -74.5t74.5 -28.5t73.5 28.5t27.5 74.5v8h59v-5q0 -68 -45.5 -113t-115.5 -45zM7 0l302 700h78l301 -700h-86l-85 202h-342l-86 -202h-82zM198 265h294l-146 347z" />
    <glyph glyph-name="abreve" unicode="&#x103;" horiz-adv-x="564" 
d="M275 577q-70 0 -115.5 45t-45.5 113v5h59v-8q0 -46 28.5 -74.5t74.5 -28.5t73.5 28.5t27.5 74.5v8h59v-5q0 -68 -45.5 -113t-115.5 -45zM52 146q0 67 55.5 113.5t147.5 46.5q105 0 162 -57v42q0 81 -41 122t-111 41q-42 0 -78.5 -13t-52.5 -25l-15 -13l-37 52
q7 7 21.5 18t64.5 29t106 18q104 0 161.5 -59.5t57.5 -168.5v-292h-58l-9 55q-58 -65 -173 -65q-92 0 -146.5 44.5t-54.5 111.5zM128 149q0 -44 38.5 -74t104.5 -30q72 0 111.5 30t39.5 74t-39.5 74t-111.5 30q-66 0 -104.5 -30t-38.5 -74z" />
    <glyph glyph-name="Aogonek" unicode="&#x104;" horiz-adv-x="695" 
d="M750 -114l18 -46q-29 -25 -85 -25q-58 0 -96.5 33t-38.5 85q0 54 44 90l-75 179h-342l-86 -202h-82l302 700h78l301 -700h-57q-26 -16 -26 -58q0 -32 24 -52t60 -20q16 0 31.5 4t22.5 8zM198 265h294l-146 347z" />
    <glyph glyph-name="aogonek" unicode="&#x105;" horiz-adv-x="564" 
d="M602 -114l18 -46q-29 -25 -85 -25q-58 0 -96.5 33t-38.5 85q0 46 33 79l-7 43q-58 -65 -173 -65q-92 0 -146.5 44.5t-54.5 111.5t55.5 113.5t147.5 46.5q105 0 162 -57v42q0 81 -41 122t-111 41q-42 0 -78.5 -13t-52.5 -25l-15 -13l-37 52q7 7 21.5 18t64.5 29t106 18
q104 0 161.5 -59.5t57.5 -168.5v-292h-10q-26 -16 -26 -58q0 -32 24 -52t60 -20q16 0 31.5 4t22.5 8zM271 45q72 0 111.5 30t39.5 74t-39.5 74t-111.5 30q-66 0 -104.5 -30t-38.5 -74t38.5 -74t104.5 -30z" />
    <glyph glyph-name="Cacute" unicode="&#x106;" horiz-adv-x="718" 
d="M386 757l79 163h81l-98 -163h-62zM416 -10q-153 0 -257 103t-104 255t105.5 257t258.5 105q47 0 91 -11t72.5 -26.5t51 -31t32.5 -26.5l10 -11l-54 -49l-9 9t-25.5 20t-41.5 25t-57 20t-72 9q-121 0 -202.5 -83t-81.5 -205t81.5 -205t202.5 -83q38 0 74.5 9.5t60.5 22.5
t42.5 27t27.5 23t9 10l52 -48q-4 -5 -11 -12.5t-32 -27.5t-54 -35.5t-75 -28t-95 -12.5z" />
    <glyph glyph-name="cacute" unicode="&#x107;" horiz-adv-x="546" 
d="M284 577l79 163h81l-98 -163h-62zM312 -10q-114 0 -190.5 75.5t-76.5 187.5t78 189.5t192 77.5q57 0 105.5 -21t68.5 -41l20 -21l-50 -49q-6 7 -17 17.5t-48.5 27.5t-79.5 17q-83 0 -138.5 -56t-55.5 -139t56 -139.5t138 -56.5q44 0 81.5 17t52.5 34l15 17l51 -46
q-3 -4 -8 -10t-24 -21.5t-40.5 -27.5t-56.5 -22t-73 -10z" />
    <glyph glyph-name="Ccircumflex" unicode="&#x108;" horiz-adv-x="718" 
d="M232 757l150 163h70l150 -163h-70l-117 112l-116 -112h-67zM416 -10q-153 0 -257 103t-104 255t105.5 257t258.5 105q47 0 91 -11t72.5 -26.5t51 -31t32.5 -26.5l10 -11l-54 -49l-9 9t-25.5 20t-41.5 25t-57 20t-72 9q-121 0 -202.5 -83t-81.5 -205t81.5 -205t202.5 -83
q38 0 74.5 9.5t60.5 22.5t42.5 27t27.5 23t9 10l52 -48q-4 -5 -11 -12.5t-32 -27.5t-54 -35.5t-75 -28t-95 -12.5z" />
    <glyph glyph-name="ccircumflex" unicode="&#x109;" horiz-adv-x="546" 
d="M130 577l150 163h70l150 -163h-70l-117 112l-116 -112h-67zM312 -10q-114 0 -190.5 75.5t-76.5 187.5t78 189.5t192 77.5q57 0 105.5 -21t68.5 -41l20 -21l-50 -49q-6 7 -17 17.5t-48.5 27.5t-79.5 17q-83 0 -138.5 -56t-55.5 -139t56 -139.5t138 -56.5q44 0 81.5 17
t52.5 34l15 17l51 -46q-3 -4 -8 -10t-24 -21.5t-40.5 -27.5t-56.5 -22t-73 -10z" />
    <glyph glyph-name="Cdotaccent" unicode="&#x10a;" horiz-adv-x="718" 
d="M418 787q-21 0 -35 14.5t-14 34.5t14.5 34.5t34.5 14.5q21 0 35 -14t14 -34q0 -21 -14.5 -35.5t-34.5 -14.5zM416 -10q-153 0 -257 103t-104 255t105.5 257t258.5 105q47 0 91 -11t72.5 -26.5t51 -31t32.5 -26.5l10 -11l-54 -49l-9 9t-25.5 20t-41.5 25t-57 20t-72 9
q-121 0 -202.5 -83t-81.5 -205t81.5 -205t202.5 -83q38 0 74.5 9.5t60.5 22.5t42.5 27t27.5 23t9 10l52 -48q-4 -5 -11 -12.5t-32 -27.5t-54 -35.5t-75 -28t-95 -12.5z" />
    <glyph glyph-name="cdotaccent" unicode="&#x10b;" horiz-adv-x="546" 
d="M315 607q-21 0 -35 14.5t-14 34.5t14.5 34.5t34.5 14.5q21 0 35 -14t14 -34q0 -21 -14.5 -35.5t-34.5 -14.5zM312 -10q-114 0 -190.5 75.5t-76.5 187.5t78 189.5t192 77.5q57 0 105.5 -21t68.5 -41l20 -21l-50 -49q-6 7 -17 17.5t-48.5 27.5t-79.5 17q-83 0 -138.5 -56
t-55.5 -139t56 -139.5t138 -56.5q44 0 81.5 17t52.5 34l15 17l51 -46q-3 -4 -8 -10t-24 -21.5t-40.5 -27.5t-56.5 -22t-73 -10z" />
    <glyph glyph-name="Ccaron" unicode="&#x10c;" horiz-adv-x="718" 
d="M382 757l-150 163h70l117 -112l116 112h67l-150 -163h-70zM416 -10q-153 0 -257 103t-104 255t105.5 257t258.5 105q47 0 91 -11t72.5 -26.5t51 -31t32.5 -26.5l10 -11l-54 -49l-9 9t-25.5 20t-41.5 25t-57 20t-72 9q-121 0 -202.5 -83t-81.5 -205t81.5 -205t202.5 -83
q38 0 74.5 9.5t60.5 22.5t42.5 27t27.5 23t9 10l52 -48q-4 -5 -11 -12.5t-32 -27.5t-54 -35.5t-75 -28t-95 -12.5z" />
    <glyph glyph-name="ccaron" unicode="&#x10d;" horiz-adv-x="546" 
d="M280 577l-150 163h70l117 -112l116 112h67l-150 -163h-70zM312 -10q-114 0 -190.5 75.5t-76.5 187.5t78 189.5t192 77.5q57 0 105.5 -21t68.5 -41l20 -21l-50 -49q-6 7 -17 17.5t-48.5 27.5t-79.5 17q-83 0 -138.5 -56t-55.5 -139t56 -139.5t138 -56.5q44 0 81.5 17
t52.5 34l15 17l51 -46q-3 -4 -8 -10t-24 -21.5t-40.5 -27.5t-56.5 -22t-73 -10z" />
    <glyph glyph-name="Dcaron" unicode="&#x10e;" horiz-adv-x="760" 
d="M345 757l-150 163h70l117 -112l116 112h67l-150 -163h-70zM100 0v700h224q167 0 274 -99t107 -249t-108.5 -251t-275.5 -101h-221zM178 68h150q130 0 214.5 80.5t84.5 201.5t-84.5 201.5t-214.5 80.5h-150v-564z" />
    <glyph glyph-name="dcaron" unicode="&#x10f;" horiz-adv-x="773" 
d="M299 -10q-106 0 -180 76t-74 187t75.5 189t181.5 78q63 0 115 -29t84 -79v288h75v-700h-62l-9 105q-33 -54 -87 -84.5t-119 -30.5zM656 467l38 233h79l-61 -233h-56zM313 59q82 0 137.5 56.5t55.5 139.5t-55.5 139t-137.5 56t-137.5 -56t-55.5 -139t55.5 -139.5
t137.5 -56.5z" />
    <glyph glyph-name="Dcroat" unicode="&#x110;" horiz-adv-x="793" 
d="M357 700q166 0 273.5 -99t107.5 -249t-109 -251t-275 -101h-222v336h-102v50h102v314h225zM360 68q130 0 215 80.5t85 201.5t-85 201.5t-215 80.5h-150v-246h230v-50h-230v-268h150z" />
    <glyph glyph-name="dcroat" unicode="&#x111;" horiz-adv-x="674" 
d="M654 633v-50h-78v-583h-62l-9 105q-33 -54 -87 -84.5t-119 -30.5q-106 0 -180 76t-74 187t75.5 189t181.5 78q63 0 115 -29t84 -79v171h-166v50h166v67h75v-67h78zM313 59q82 0 137.5 56.5t55.5 139.5t-55.5 139t-137.5 56t-137.5 -56t-55.5 -139t55.5 -139.5
t137.5 -56.5z" />
    <glyph glyph-name="Emacron" unicode="&#x112;" horiz-adv-x="650" 
d="M162 815v50h360v-50h-360zM100 0v700h485v-68h-407v-235h357v-64h-357v-265h417v-68h-495z" />
    <glyph glyph-name="emacron" unicode="&#x113;" horiz-adv-x="604" 
d="M134 635v50h360v-50h-360zM312 -10q-114 0 -190.5 75.5t-76.5 187.5t77.5 189.5t191.5 77.5q102 0 174.5 -73.5t72.5 -177.5l-2 -19h-438q2 -86 57.5 -139.5t137.5 -53.5q54 0 98 23.5t61 46.5l17 23l48 -39q-3 -5 -8.5 -13t-25.5 -29t-44 -37t-64.5 -29t-85.5 -13z
M123 303h363q-10 66 -59.5 111t-114.5 45q-71 0 -123.5 -44t-65.5 -112z" />
    <glyph glyph-name="Ebreve" unicode="&#x114;" horiz-adv-x="650" 
d="M342 757q-70 0 -115.5 45t-45.5 113v5h59v-8q0 -46 28.5 -74.5t74.5 -28.5t73.5 28.5t27.5 74.5v8h59v-5q0 -68 -45.5 -113t-115.5 -45zM100 0v700h485v-68h-407v-235h357v-64h-357v-265h417v-68h-495z" />
    <glyph glyph-name="ebreve" unicode="&#x115;" horiz-adv-x="604" 
d="M314 577q-70 0 -115.5 45t-45.5 113v5h59v-8q0 -46 28.5 -74.5t74.5 -28.5t73.5 28.5t27.5 74.5v8h59v-5q0 -68 -45.5 -113t-115.5 -45zM312 -10q-114 0 -190.5 75.5t-76.5 187.5t77.5 189.5t191.5 77.5q102 0 174.5 -73.5t72.5 -177.5l-2 -19h-438q2 -86 57.5 -139.5
t137.5 -53.5q54 0 98 23.5t61 46.5l17 23l48 -39q-3 -5 -8.5 -13t-25.5 -29t-44 -37t-64.5 -29t-85.5 -13zM123 303h363q-10 66 -59.5 111t-114.5 45q-71 0 -123.5 -44t-65.5 -112z" />
    <glyph glyph-name="Edotaccent" unicode="&#x116;" horiz-adv-x="650" 
d="M343 787q-21 0 -35 14.5t-14 34.5t14.5 34.5t34.5 14.5q21 0 35 -14t14 -34q0 -21 -14.5 -35.5t-34.5 -14.5zM100 0v700h485v-68h-407v-235h357v-64h-357v-265h417v-68h-495z" />
    <glyph glyph-name="edotaccent" unicode="&#x117;" horiz-adv-x="604" 
d="M314 607q-21 0 -35 14.5t-14 34.5t14.5 34.5t34.5 14.5q21 0 35 -14t14 -34q0 -21 -14.5 -35.5t-34.5 -14.5zM312 -10q-114 0 -190.5 75.5t-76.5 187.5t77.5 189.5t191.5 77.5q102 0 174.5 -73.5t72.5 -177.5l-2 -19h-438q2 -86 57.5 -139.5t137.5 -53.5q54 0 98 23.5
t61 46.5l17 23l48 -39q-3 -5 -8.5 -13t-25.5 -29t-44 -37t-64.5 -29t-85.5 -13zM123 303h363q-10 66 -59.5 111t-114.5 45q-71 0 -123.5 -44t-65.5 -112z" />
    <glyph glyph-name="Eogonek" unicode="&#x118;" horiz-adv-x="650" 
d="M599 -114l18 -46q-29 -25 -85 -25q-58 0 -96.5 33t-38.5 85q0 38 22 67h-319v700h485v-68h-407v-235h357v-64h-357v-265h417v-68h-115q-26 -16 -26 -58q0 -32 24 -52t60 -20q16 0 31.5 4t22.5 8z" />
    <glyph glyph-name="eogonek" unicode="&#x119;" horiz-adv-x="604" 
d="M561 269l-2 -19h-438q2 -86 57.5 -139.5t137.5 -53.5q54 0 98 23.5t61 46.5l17 23l48 -39l-6 -9t-18 -22.5t-30.5 -30t-44 -28.5t-58.5 -23q-24 -16 -24 -56q0 -32 24 -52t60 -20q16 0 31.5 4t22.5 8l7 4l18 -46q-29 -25 -85 -25q-58 0 -96.5 33t-38.5 85q0 30 16 57h-6
q-114 0 -190.5 75.5t-76.5 187.5t77.5 189.5t191.5 77.5q102 0 174.5 -73.5t72.5 -177.5zM123 303h363q-10 66 -59.5 111t-114.5 45q-71 0 -123.5 -44t-65.5 -112z" />
    <glyph glyph-name="Ecaron" unicode="&#x11a;" horiz-adv-x="650" 
d="M307 757l-150 163h70l117 -112l116 112h67l-150 -163h-70zM100 0v700h485v-68h-407v-235h357v-64h-357v-265h417v-68h-495z" />
    <glyph glyph-name="ecaron" unicode="&#x11b;" horiz-adv-x="604" 
d="M279 577l-150 163h70l117 -112l116 112h67l-150 -163h-70zM312 -10q-114 0 -190.5 75.5t-76.5 187.5t77.5 189.5t191.5 77.5q102 0 174.5 -73.5t72.5 -177.5l-2 -19h-438q2 -86 57.5 -139.5t137.5 -53.5q54 0 98 23.5t61 46.5l17 23l48 -39q-3 -5 -8.5 -13t-25.5 -29
t-44 -37t-64.5 -29t-85.5 -13zM123 303h363q-10 66 -59.5 111t-114.5 45q-71 0 -123.5 -44t-65.5 -112z" />
    <glyph glyph-name="Gcircumflex" unicode="&#x11c;" horiz-adv-x="810" 
d="M230 757l150 163h70l150 -163h-70l-117 112l-116 -112h-67zM416 -10q-153 0 -257 103t-104 255t105.5 257t258.5 105q47 0 91 -10.5t72.5 -25.5t50.5 -30t32 -26l10 -10l-54 -54q-3 3 -8.5 9t-25 20.5t-41.5 25.5t-57 20t-72 9q-121 0 -202.5 -83t-81.5 -206t81.5 -205.5
t202.5 -82.5q100 0 173.5 63.5t87.5 165.5h-263v60h343q1 -7 1 -14q-2 -148 -101 -247t-242 -99z" />
    <glyph glyph-name="gcircumflex" unicode="&#x11d;" horiz-adv-x="656" 
d="M143 577l150 163h70l150 -163h-70l-117 112l-116 -112h-67zM88 -41q9 -7 26 -17.5t70 -28t107 -17.5q101 0 155.5 55t54.5 155v29q-31 -47 -83.5 -73.5t-117.5 -26.5q-107 0 -181 70t-74 171q0 102 74.5 173t183.5 71q64 0 117 -27.5t86 -75.5l8 93h62v-390
q0 -133 -74 -211.5t-207 -78.5q-41 0 -81 7.5t-67 18t-48.5 21.5t-32.5 19l-10 7zM506 276q0 76 -55.5 127t-137.5 51t-137.5 -51t-55.5 -127q0 -75 55.5 -126.5t137.5 -51.5t137.5 51.5t55.5 126.5z" />
    <glyph glyph-name="Gbreve" unicode="&#x11e;" horiz-adv-x="810" 
d="M415 757q-70 0 -115.5 45t-45.5 113v5h59v-8q0 -46 28.5 -74.5t74.5 -28.5t73.5 28.5t27.5 74.5v8h59v-5q0 -68 -45.5 -113t-115.5 -45zM416 -10q-153 0 -257 103t-104 255t105.5 257t258.5 105q47 0 91 -10.5t72.5 -25.5t50.5 -30t32 -26l10 -10l-54 -54q-3 3 -8.5 9
t-25 20.5t-41.5 25.5t-57 20t-72 9q-121 0 -202.5 -83t-81.5 -206t81.5 -205.5t202.5 -82.5q100 0 173.5 63.5t87.5 165.5h-263v60h343q1 -7 1 -14q-2 -148 -101 -247t-242 -99z" />
    <glyph glyph-name="gbreve" unicode="&#x11f;" horiz-adv-x="656" 
d="M328 577q-70 0 -115.5 45t-45.5 113v5h59v-8q0 -46 28.5 -74.5t74.5 -28.5t73.5 28.5t27.5 74.5v8h59v-5q0 -68 -45.5 -113t-115.5 -45zM88 -41q9 -7 26 -17.5t70 -28t107 -17.5q101 0 155.5 55t54.5 155v29q-31 -47 -83.5 -73.5t-117.5 -26.5q-107 0 -181 70t-74 171
q0 102 74.5 173t183.5 71q64 0 117 -27.5t86 -75.5l8 93h62v-390q0 -133 -74 -211.5t-207 -78.5q-41 0 -81 7.5t-67 18t-48.5 21.5t-32.5 19l-10 7zM506 276q0 76 -55.5 127t-137.5 51t-137.5 -51t-55.5 -127q0 -75 55.5 -126.5t137.5 -51.5t137.5 51.5t55.5 126.5z" />
    <glyph glyph-name="Gdotaccent" unicode="&#x120;" horiz-adv-x="810" 
d="M416 787q-21 0 -35 14.5t-14 34.5t14.5 34.5t34.5 14.5q21 0 35 -14t14 -34q0 -21 -14.5 -35.5t-34.5 -14.5zM416 -10q-153 0 -257 103t-104 255t105.5 257t258.5 105q47 0 91 -10.5t72.5 -25.5t50.5 -30t32 -26l10 -10l-54 -54q-3 3 -8.5 9t-25 20.5t-41.5 25.5t-57 20
t-72 9q-121 0 -202.5 -83t-81.5 -206t81.5 -205.5t202.5 -82.5q100 0 173.5 63.5t87.5 165.5h-263v60h343q1 -7 1 -14q-2 -148 -101 -247t-242 -99z" />
    <glyph glyph-name="gdotaccent" unicode="&#x121;" horiz-adv-x="656" 
d="M328 607q-21 0 -35 14.5t-14 34.5t14.5 34.5t34.5 14.5q21 0 35 -14t14 -34q0 -21 -14.5 -35.5t-34.5 -14.5zM88 -41q9 -7 26 -17.5t70 -28t107 -17.5q101 0 155.5 55t54.5 155v29q-31 -47 -83.5 -73.5t-117.5 -26.5q-107 0 -181 70t-74 171q0 102 74.5 173t183.5 71
q64 0 117 -27.5t86 -75.5l8 93h62v-390q0 -133 -74 -211.5t-207 -78.5q-41 0 -81 7.5t-67 18t-48.5 21.5t-32.5 19l-10 7zM506 276q0 76 -55.5 127t-137.5 51t-137.5 -51t-55.5 -127q0 -75 55.5 -126.5t137.5 -51.5t137.5 51.5t55.5 126.5z" />
    <glyph glyph-name="uni0122" unicode="&#x122;" horiz-adv-x="810" 
d="M416 -10q-153 0 -257 103t-104 255t105.5 257t258.5 105q47 0 91 -10.5t72.5 -25.5t50.5 -30t32 -26l10 -10l-54 -54q-3 3 -8.5 9t-25 20.5t-41.5 25.5t-57 20t-72 9q-121 0 -202.5 -83t-81.5 -206t81.5 -205.5t202.5 -82.5q100 0 173.5 63.5t87.5 165.5h-263v60h343
q1 -7 1 -14q-2 -148 -101 -247t-242 -99zM296 -213l79 163h81l-98 -163h-62z" />
    <glyph glyph-name="uni0123" unicode="&#x123;" horiz-adv-x="656" 
d="M448 722l-78 -162h-82l99 162h61zM88 -41q9 -7 26 -17.5t70 -28t107 -17.5q101 0 155.5 55t54.5 155v29q-31 -47 -83.5 -73.5t-117.5 -26.5q-107 0 -181 70t-74 171q0 102 74.5 173t183.5 71q64 0 117 -27.5t86 -75.5l8 93h62v-390q0 -133 -74 -211.5t-207 -78.5
q-41 0 -81 7.5t-67 18t-48.5 21.5t-32.5 19l-10 7zM506 276q0 76 -55.5 127t-137.5 51t-137.5 -51t-55.5 -127q0 -75 55.5 -126.5t137.5 -51.5t137.5 51.5t55.5 126.5z" />
    <glyph glyph-name="Hcircumflex" unicode="&#x124;" horiz-adv-x="770" 
d="M200 757l150 163h70l150 -163h-70l-117 112l-116 -112h-67zM100 0v700h78v-296h414v296h78v-700h-78v335h-414v-335h-78z" />
    <glyph glyph-name="hcircumflex" unicode="&#x125;" horiz-adv-x="611" 
d="M121 757l150 163h70l150 -163h-70l-117 112l-116 -112h-67zM80 0v700h75v-286q57 106 186 106q85 0 142 -60t57 -172v-288h-75v263q0 94 -41.5 140.5t-104.5 46.5q-71 0 -117.5 -47t-46.5 -144v-259h-75z" />
    <glyph glyph-name="Hbar" unicode="&#x126;" horiz-adv-x="835" 
d="M805 574v-50h-102v-524h-78v335h-415v-335h-78v524h-102v50h102v126h78v-126h415v126h78v-126h102zM625 404v120h-415v-120h415z" />
    <glyph glyph-name="hbar" unicode="&#x127;" horiz-adv-x="629" 
d="M358 520q86 0 143 -60t57 -172v-288h-76v263q0 94 -41 140.5t-104 46.5q-71 0 -117.5 -47t-46.5 -144v-259h-76v583h-77v50h77v67h76v-67h166v-50h-166v-169q57 106 185 106z" />
    <glyph glyph-name="Itilde" unicode="&#x128;" horiz-adv-x="290" 
d="M221 765q-27 0 -50 14t-36 30.5t-31 30.5t-37 14q-18 0 -29.5 -18t-13.5 -36l-2 -18l-49 6q0 5 1 13t6.5 28t14.5 35.5t28.5 28t45.5 12.5q28 0 51 -14t36 -30.5t30.5 -30.5t36.5 -14t30.5 18t13.5 36l2 18l49 -5q0 -5 -1 -13t-6.5 -28t-15 -35.5t-29 -28.5t-45.5 -13z
M105 700h81v-700h-81v700z" />
    <glyph glyph-name="itilde" unicode="&#x129;" horiz-adv-x="247" 
d="M199 585q-27 0 -50 14t-36 30.5t-31 30.5t-37 14q-18 0 -29.5 -18t-13.5 -36l-2 -18l-49 6q0 5 1 13t6.5 28t14.5 35.5t28.5 28t45.5 12.5q28 0 51 -14t36 -30.5t30.5 -30.5t36.5 -14t30.5 18t13.5 36l2 18l49 -5q0 -5 -1 -13t-6.5 -28t-15 -35.5t-29 -28.5t-45.5 -13z
M85 510h77v-510h-77v510z" />
    <glyph glyph-name="Imacron" unicode="&#x12a;" horiz-adv-x="290" 
d="M-35 815v50h360v-50h-360zM105 700h81v-700h-81v700z" />
    <glyph glyph-name="imacron" unicode="&#x12b;" horiz-adv-x="247" 
d="M-56 635v50h360v-50h-360zM85 510h77v-510h-77v510z" />
    <glyph glyph-name="Ibreve" unicode="&#x12c;" horiz-adv-x="290" 
d="M145 757q-70 0 -115.5 45t-45.5 113v5h59v-8q0 -46 28.5 -74.5t74.5 -28.5t73.5 28.5t27.5 74.5v8h59v-5q0 -68 -45.5 -113t-115.5 -45zM105 700h81v-700h-81v700z" />
    <glyph glyph-name="ibreve" unicode="&#x12d;" horiz-adv-x="247" 
d="M124 577q-70 0 -115.5 45t-45.5 113v5h59v-8q0 -46 28.5 -74.5t74.5 -28.5t73.5 28.5t27.5 74.5v8h59v-5q0 -68 -45.5 -113t-115.5 -45zM85 510h77v-510h-77v510z" />
    <glyph glyph-name="Iogonek" unicode="&#x12e;" horiz-adv-x="290" 
d="M278 -114l18 -46q-29 -25 -85 -25q-58 0 -96.5 33t-38.5 85q0 44 29 75v692h81v-700h-27q-26 -16 -26 -58q0 -32 24 -52t60 -20q16 0 31.5 4t22.5 8z" />
    <glyph glyph-name="iogonek" unicode="&#x12f;" horiz-adv-x="247" 
d="M124 605q-23 0 -38.5 14.5t-15.5 36.5t15.5 37t38.5 15t38.5 -15t15.5 -37t-15.5 -36.5t-38.5 -14.5zM247 -114l18 -46q-29 -25 -85 -25q-58 0 -96.5 33t-38.5 85q0 51 40 86v491h77v-510h-34q-26 -16 -26 -58q0 -32 24 -52t60 -20q16 0 31.5 4t22.5 8z" />
    <glyph glyph-name="Idotaccent" unicode="&#x130;" horiz-adv-x="290" 
d="M145 787q-21 0 -35 14.5t-14 34.5t14.5 34.5t34.5 14.5q21 0 35 -14t14 -34q0 -21 -14.5 -35.5t-34.5 -14.5zM105 700h81v-700h-81v700z" />
    <glyph glyph-name="dotlessi" unicode="&#x131;" horiz-adv-x="247" 
d="M85 510h77v-510h-77v510z" />
    <glyph glyph-name="IJ" unicode="&#x132;" horiz-adv-x="752" 
d="M105 700h81v-700h-81v700zM426 -10q-37 0 -66.5 6.5t-41.5 13.5l-11 6l24 67q30 -20 92 -20q69 0 114 47t45 130v460h80v-462q0 -114 -67.5 -181t-168.5 -67z" />
    <glyph glyph-name="ij" unicode="&#x133;" horiz-adv-x="494" 
d="M70 656q0 22 15.5 37t38.5 15t38.5 -15t15.5 -37t-15.5 -36.5t-38.5 -14.5t-38.5 14.5t-15.5 36.5zM317 656q0 22 15.5 37t38.5 15t38.5 -15t15.5 -37t-15.5 -36.5t-38.5 -14.5t-38.5 14.5t-15.5 36.5zM85 510h77v-510h-77v510zM409 510v-508q0 -84 -42.5 -128
t-114.5 -44q-17 0 -34 3.5t-26 6.5l-9 4l14 61q23 -8 49 -8q86 0 86 96v517h77z" />
    <glyph glyph-name="Jcircumflex" unicode="&#x134;" horiz-adv-x="461" 
d="M147 757l150 163h70l150 -163h-70l-117 112l-116 -112h-67zM136 -10q-37 0 -66.5 6.5t-41.5 13.5l-11 6l24 67q30 -20 92 -20q69 0 114 47t45 130v460h80v-462q0 -114 -67.5 -181t-168.5 -67z" />
    <glyph glyph-name="jcircumflex" unicode="&#x135;" horiz-adv-x="247" 
d="M-62 577l150 163h71l150 -163h-70l-118 112l-115 -112h-68zM162 510v-508q0 -84 -42.5 -128t-114.5 -44q-17 0 -34 3.5t-26 6.5l-9 4l14 61q23 -8 49 -8q86 0 86 96v517h77z" />
    <glyph glyph-name="uni0136" unicode="&#x136;" horiz-adv-x="669" 
d="M100 0v700h78v-328l364 328h110l-384 -336l404 -364h-110l-384 348v-348h-78zM250 -213l79 163h81l-98 -163h-62z" />
    <glyph glyph-name="uni0137" unicode="&#x137;" horiz-adv-x="553" 
d="M80 0v700h75v-417l273 227h107l-292 -234l312 -276h-107l-293 263v-263h-75zM183 -213l79 163h81l-98 -163h-62z" />
    <glyph glyph-name="Lacute" unicode="&#x139;" horiz-adv-x="590" 
d="M108 757l79 163h81l-98 -163h-62zM100 0v700h78v-631h387v-69h-465z" />
    <glyph glyph-name="lacute" unicode="&#x13a;" horiz-adv-x="247" 
d="M92 757l79 163h81l-98 -163h-62zM85 700h77v-700h-77v700z" />
    <glyph glyph-name="uni013B" unicode="&#x13b;" horiz-adv-x="590" 
d="M100 0v700h78v-631h387v-69h-465zM213 -213l79 163h81l-98 -163h-62z" />
    <glyph glyph-name="uni013C" unicode="&#x13c;" horiz-adv-x="247" 
d="M85 700h77v-700h-77v700zM4 -213l79 163h81l-98 -163h-62z" />
    <glyph glyph-name="Lcaron" unicode="&#x13d;" horiz-adv-x="590" 
d="M100 0v700h78v-631h387v-69h-465zM385 467l38 233h79l-62 -233h-55z" />
    <glyph glyph-name="lcaron" unicode="&#x13e;" horiz-adv-x="359" 
d="M85 700h77v-700h-77v700zM242 467l38 233h79l-61 -233h-56z" />
    <glyph glyph-name="Ldot" unicode="&#x13f;" horiz-adv-x="590" 
d="M100 0v700h78v-631h387v-69h-465zM390 296q-22 0 -38 16t-16 38t16 38t38 16t38 -16t16 -38t-16 -38t-38 -16z" />
    <glyph glyph-name="ldot" unicode="&#x140;" horiz-adv-x="385" 
d="M85 700h77v-700h-77v700zM304 296q-22 0 -38 16t-16 38t16 38t38 16t38 -16t16 -38t-16 -38t-38 -16z" />
    <glyph glyph-name="Lslash" unicode="&#x141;" horiz-adv-x="623" 
d="M210 69h388v-69h-466v327l-102 -18v51l102 18v322h78v-308l273 49v-51l-273 -49v-272z" />
    <glyph glyph-name="lslash" unicode="&#x142;" horiz-adv-x="325" 
d="M295 426v-51l-99 -22v-353h-77v336l-89 -20v52l89 19v313h77v-296z" />
    <glyph glyph-name="Nacute" unicode="&#x143;" horiz-adv-x="790" 
d="M364 757l79 163h81l-98 -163h-62zM177 586v-586h-77v700h83l430 -578v578h77v-700h-77z" />
    <glyph glyph-name="nacute" unicode="&#x144;" horiz-adv-x="611" 
d="M275 577l79 163h81l-98 -163h-62zM155 0h-75v510h67l5 -99q57 109 189 109q86 0 142.5 -60t56.5 -172v-288h-75v263q0 94 -41.5 140.5t-104.5 46.5q-72 0 -118 -49t-46 -153v-248z" />
    <glyph glyph-name="uni0145" unicode="&#x145;" horiz-adv-x="790" 
d="M177 586v-586h-77v700h83l430 -578v578h77v-700h-77zM275 -213l79 163h81l-98 -163h-62z" />
    <glyph glyph-name="uni0146" unicode="&#x146;" horiz-adv-x="611" 
d="M155 0h-75v510h67l5 -99q57 109 189 109q86 0 142.5 -60t56.5 -172v-288h-75v263q0 94 -41.5 140.5t-104.5 46.5q-72 0 -118 -49t-46 -153v-248zM186 -213l79 163h81l-98 -163h-62z" />
    <glyph glyph-name="Ncaron" unicode="&#x147;" horiz-adv-x="790" 
d="M360 757l-150 163h70l117 -112l116 112h67l-150 -163h-70zM177 586v-586h-77v700h83l430 -578v578h77v-700h-77z" />
    <glyph glyph-name="ncaron" unicode="&#x148;" horiz-adv-x="611" 
d="M271 577l-150 163h70l117 -112l116 112h67l-150 -163h-70zM155 0h-75v510h67l5 -99q57 109 189 109q86 0 142.5 -60t56.5 -172v-288h-75v263q0 94 -41.5 140.5t-104.5 46.5q-72 0 -118 -49t-46 -153v-248z" />
    <glyph glyph-name="Eng" unicode="&#x14a;" horiz-adv-x="790" 
d="M613 122v578h77v-675q0 -94 -50 -144.5t-132 -50.5q-28 0 -51 5t-31 10l-9 5l20 59q25 -13 66 -13q45 0 75.5 26.5t34.5 78.5l-436 585v-586h-77v700h83z" />
    <glyph glyph-name="eng" unicode="&#x14b;" horiz-adv-x="611" 
d="M384 -170q-16 0 -32 3t-24 7l-8 3l13 62q21 -8 46 -8q86 0 86 96v270q0 94 -41.5 140.5t-104.5 46.5q-72 0 -118 -49t-46 -153v-248h-75v510h67l5 -99q57 109 189 109q86 0 142.5 -60t56.5 -172v-286q0 -84 -42 -128t-114 -44z" />
    <glyph glyph-name="Omacron" unicode="&#x14c;" horiz-adv-x="835" 
d="M237 815v50h360v-50h-360zM55 348q0 152 105.5 257t258.5 105t257 -103t104 -255t-105.5 -257t-258.5 -105t-257 103t-104 255zM133 350q0 -122 81.5 -205t202.5 -83t203 83t82 205t-82 205t-203 83t-202.5 -83t-81.5 -205z" />
    <glyph glyph-name="omacron" unicode="&#x14d;" horiz-adv-x="627" 
d="M134 635v50h360v-50h-360zM45 253q0 112 78 189.5t192 77.5t190.5 -76t76.5 -188t-78 -189t-192 -77t-190.5 75.5t-76.5 187.5zM120 255q0 -83 56 -139.5t138 -56.5t137.5 56.5t55.5 139.5t-55.5 139t-137.5 56q-83 0 -138.5 -56t-55.5 -139z" />
    <glyph glyph-name="Obreve" unicode="&#x14e;" horiz-adv-x="835" 
d="M417 757q-70 0 -115.5 45t-45.5 113v5h59v-8q0 -46 28.5 -74.5t74.5 -28.5t73.5 28.5t27.5 74.5v8h59v-5q0 -68 -45.5 -113t-115.5 -45zM55 348q0 152 105.5 257t258.5 105t257 -103t104 -255t-105.5 -257t-258.5 -105t-257 103t-104 255zM133 350q0 -122 81.5 -205
t202.5 -83t203 83t82 205t-82 205t-203 83t-202.5 -83t-81.5 -205z" />
    <glyph glyph-name="obreve" unicode="&#x14f;" horiz-adv-x="627" 
d="M313 577q-70 0 -115.5 45t-45.5 113v5h59v-8q0 -46 28.5 -74.5t74.5 -28.5t73.5 28.5t27.5 74.5v8h59v-5q0 -68 -45.5 -113t-115.5 -45zM45 253q0 112 78 189.5t192 77.5t190.5 -76t76.5 -188t-78 -189t-192 -77t-190.5 75.5t-76.5 187.5zM120 255q0 -83 56 -139.5
t138 -56.5t137.5 56.5t55.5 139.5t-55.5 139t-137.5 56q-83 0 -138.5 -56t-55.5 -139z" />
    <glyph glyph-name="Ohungarumlaut" unicode="&#x150;" horiz-adv-x="835" 
d="M295 757l61 163h81l-82 -163h-60zM479 757l61 163h81l-82 -163h-60zM55 348q0 152 105.5 257t258.5 105t257 -103t104 -255t-105.5 -257t-258.5 -105t-257 103t-104 255zM133 350q0 -122 81.5 -205t202.5 -83t203 83t82 205t-82 205t-203 83t-202.5 -83t-81.5 -205z" />
    <glyph glyph-name="ohungarumlaut" unicode="&#x151;" horiz-adv-x="627" 
d="M191 577l61 163h81l-82 -163h-60zM375 577l61 163h81l-82 -163h-60zM45 253q0 112 78 189.5t192 77.5t190.5 -76t76.5 -188t-78 -189t-192 -77t-190.5 75.5t-76.5 187.5zM120 255q0 -83 56 -139.5t138 -56.5t137.5 56.5t55.5 139.5t-55.5 139t-137.5 56q-83 0 -138.5 -56
t-55.5 -139z" />
    <glyph glyph-name="OE" unicode="&#x152;" horiz-adv-x="1112" 
d="M436 0q-167 0 -274 99t-107 249t108.5 251t275.5 101h608v-68h-407v-235h357v-64h-357v-265h417v-68h-621zM432 68h130v564h-130q-130 0 -214.5 -80.5t-84.5 -201.5t84.5 -201.5t214.5 -80.5z" />
    <glyph glyph-name="oe" unicode="&#x153;" horiz-adv-x="1065" 
d="M312 -10q-114 0 -190.5 75.5t-76.5 187.5t78 189.5t192 77.5q78 0 139.5 -41t90.5 -109q29 67 90.5 108.5t138.5 41.5q102 0 174.5 -73.5t72.5 -177.5l-2 -19h-436q2 -86 56.5 -139.5t136.5 -53.5q54 0 98 23.5t61 46.5l17 23l48 -39q-3 -5 -8.5 -13t-25.5 -29t-44 -37
t-64.5 -29t-85.5 -13q-78 0 -139.5 41t-89.5 109q-30 -68 -91.5 -109t-139.5 -41zM585 303h361q-9 66 -58.5 111t-114.5 45q-72 0 -124 -44t-64 -112zM314 59q82 0 137.5 56.5t55.5 139.5t-55.5 139t-137.5 56q-83 0 -138.5 -56t-55.5 -139t56 -139.5t138 -56.5z" />
    <glyph glyph-name="Racute" unicode="&#x154;" horiz-adv-x="693" 
d="M315 757l79 163h81l-98 -163h-62zM100 700h292q103 0 168 -60t65 -152q0 -77 -47.5 -133t-126.5 -73l204 -282h-93l-197 274h-187v-274h-78v700zM178 633v-297h203q75 0 120.5 42t45.5 107t-45.5 106.5t-120.5 41.5h-203z" />
    <glyph glyph-name="racute" unicode="&#x155;" horiz-adv-x="387" 
d="M188 577l79 163h81l-98 -163h-62zM80 0v510h67l6 -115q56 125 209 125l-2 -76h-13q-91 0 -141.5 -54.5t-50.5 -164.5v-225h-75z" />
    <glyph glyph-name="uni0156" unicode="&#x156;" horiz-adv-x="693" 
d="M100 700h292q103 0 168 -60t65 -152q0 -77 -47.5 -133t-126.5 -73l204 -282h-93l-197 274h-187v-274h-78v700zM178 633v-297h203q75 0 120.5 42t45.5 107t-45.5 106.5t-120.5 41.5h-203zM226 -213l79 163h81l-98 -163h-62z" />
    <glyph glyph-name="uni0157" unicode="&#x157;" horiz-adv-x="387" 
d="M80 0v510h67l6 -115q56 125 209 125l-2 -76h-13q-91 0 -141.5 -54.5t-50.5 -164.5v-225h-75zM-2 -213l79 163h81l-98 -163h-62z" />
    <glyph glyph-name="Rcaron" unicode="&#x158;" horiz-adv-x="693" 
d="M311 757l-150 163h70l117 -112l116 112h67l-150 -163h-70zM100 700h292q103 0 168 -60t65 -152q0 -77 -47.5 -133t-126.5 -73l204 -282h-93l-197 274h-187v-274h-78v700zM178 633v-297h203q75 0 120.5 42t45.5 107t-45.5 106.5t-120.5 41.5h-203z" />
    <glyph glyph-name="rcaron" unicode="&#x159;" horiz-adv-x="387" 
d="M184 577l-150 163h70l117 -112l116 112h67l-150 -163h-70zM80 0v510h67l6 -115q56 125 209 125l-2 -76h-13q-91 0 -141.5 -54.5t-50.5 -164.5v-225h-75z" />
    <glyph glyph-name="Sacute" unicode="&#x15a;" horiz-adv-x="568" 
d="M257 757l79 163h81l-98 -163h-62zM144 536q0 -46 36.5 -78.5t119.5 -59.5q213 -68 213 -213q0 -84 -63.5 -139.5t-169.5 -55.5q-46 0 -88.5 10t-70.5 23.5t-49 27.5t-30 24l-10 10l49 52q3 -3 9 -8.5t25.5 -19.5t42 -24.5t58 -19.5t72.5 -9q65 0 105 34.5t40 85.5
q0 54 -41 91t-144 72q-183 62 -183 190q0 77 61.5 129t161.5 52q64 0 118 -20t76 -40l23 -20l-49 -52q-2 3 -7 7.5t-21 15.5t-34 20t-46 16t-58 7q-69 0 -107.5 -33t-38.5 -75z" />
    <glyph glyph-name="sacute" unicode="&#x15b;" horiz-adv-x="450" 
d="M195 577l79 163h81l-98 -163h-62zM125 389q0 -31 25.5 -54.5t92.5 -40.5q162 -44 162 -153q0 -64 -50 -107.5t-137 -43.5q-53 0 -100 16.5t-68 32.5l-21 16l35 52q7 -6 20.5 -15.5t54 -25t80.5 -15.5q52 0 81.5 23t29.5 57q0 35 -27.5 61t-105.5 46q-70 19 -108.5 56
t-38.5 87q0 58 46.5 98.5t129.5 40.5q46 0 88 -14t61 -28l19 -14l-35 -53q-6 5 -16.5 13t-44.5 21.5t-69 13.5q-50 0 -77 -21t-27 -49z" />
    <glyph glyph-name="Scircumflex" unicode="&#x15c;" horiz-adv-x="568" 
d="M103 757l150 163h70l150 -163h-70l-117 112l-116 -112h-67zM144 536q0 -46 36.5 -78.5t119.5 -59.5q213 -68 213 -213q0 -84 -63.5 -139.5t-169.5 -55.5q-46 0 -88.5 10t-70.5 23.5t-49 27.5t-30 24l-10 10l49 52q3 -3 9 -8.5t25.5 -19.5t42 -24.5t58 -19.5t72.5 -9
q65 0 105 34.5t40 85.5q0 54 -41 91t-144 72q-183 62 -183 190q0 77 61.5 129t161.5 52q64 0 118 -20t76 -40l23 -20l-49 -52q-2 3 -7 7.5t-21 15.5t-34 20t-46 16t-58 7q-69 0 -107.5 -33t-38.5 -75z" />
    <glyph glyph-name="scircumflex" unicode="&#x15d;" horiz-adv-x="450" 
d="M41 577l150 163h70l150 -163h-70l-117 112l-116 -112h-67zM125 389q0 -31 25.5 -54.5t92.5 -40.5q162 -44 162 -153q0 -64 -50 -107.5t-137 -43.5q-53 0 -100 16.5t-68 32.5l-21 16l35 52q7 -6 20.5 -15.5t54 -25t80.5 -15.5q52 0 81.5 23t29.5 57q0 35 -27.5 61
t-105.5 46q-70 19 -108.5 56t-38.5 87q0 58 46.5 98.5t129.5 40.5q46 0 88 -14t61 -28l19 -14l-35 -53q-6 5 -16.5 13t-44.5 21.5t-69 13.5q-50 0 -77 -21t-27 -49z" />
    <glyph glyph-name="Scedilla" unicode="&#x15e;" horiz-adv-x="568" 
d="M513 185q0 -74 -50 -126.5t-136 -65.5q27 -33 27 -73q0 -53 -40.5 -84t-98.5 -31q-27 0 -52.5 7.5t-36.5 14.5l-12 7l20 48q30 -22 82 -22q36 0 56.5 18.5t20.5 48.5q0 37 -31 63q-68 3 -125.5 27t-80.5 46l-24 22l49 52q3 -3 9 -8.5t25.5 -19.5t42 -24.5t58 -19.5
t72.5 -9q65 0 105 34.5t40 85.5q0 54 -41 91t-144 72q-183 62 -183 190q0 77 61.5 129t161.5 52q64 0 118 -20t76 -40l23 -20l-49 -52q-2 3 -7 7.5t-21 15.5t-34 20t-46 16t-58 7q-69 0 -107.5 -33t-38.5 -75q0 -46 36.5 -78.5t119.5 -59.5q213 -68 213 -213z" />
    <glyph glyph-name="scedilla" unicode="&#x15f;" horiz-adv-x="450" 
d="M405 141q0 -55 -37 -95.5t-103 -51.5q28 -32 28 -74q0 -53 -40.5 -84t-98.5 -31q-27 0 -52.5 7.5t-37.5 14.5l-11 7l20 48q30 -22 82 -22q36 0 56.5 18.5t20.5 48.5q0 37 -31 63q-48 3 -91 19t-62 31l-19 15l35 52q7 -6 20.5 -15.5t54 -25t80.5 -15.5q52 0 81.5 23
t29.5 57q0 35 -27.5 61t-105.5 46q-70 19 -108.5 56t-38.5 87q0 58 46.5 98.5t129.5 40.5q46 0 88 -14t61 -28l19 -14l-35 -53q-6 5 -16.5 13t-44.5 21.5t-69 13.5q-50 0 -77 -21t-27 -49q0 -31 25.5 -54.5t92.5 -40.5q162 -44 162 -153z" />
    <glyph glyph-name="Scaron" unicode="&#x160;" horiz-adv-x="568" 
d="M253 757l-150 163h70l117 -112l116 112h67l-150 -163h-70zM144 536q0 -46 36.5 -78.5t119.5 -59.5q213 -68 213 -213q0 -84 -63.5 -139.5t-169.5 -55.5q-46 0 -88.5 10t-70.5 23.5t-49 27.5t-30 24l-10 10l49 52q3 -3 9 -8.5t25.5 -19.5t42 -24.5t58 -19.5t72.5 -9
q65 0 105 34.5t40 85.5q0 54 -41 91t-144 72q-183 62 -183 190q0 77 61.5 129t161.5 52q64 0 118 -20t76 -40l23 -20l-49 -52q-2 3 -7 7.5t-21 15.5t-34 20t-46 16t-58 7q-69 0 -107.5 -33t-38.5 -75z" />
    <glyph glyph-name="scaron" unicode="&#x161;" horiz-adv-x="450" 
d="M191 577l-150 163h70l117 -112l116 112h67l-150 -163h-70zM125 389q0 -31 25.5 -54.5t92.5 -40.5q162 -44 162 -153q0 -64 -50 -107.5t-137 -43.5q-53 0 -100 16.5t-68 32.5l-21 16l35 52q7 -6 20.5 -15.5t54 -25t80.5 -15.5q52 0 81.5 23t29.5 57q0 35 -27.5 61
t-105.5 46q-70 19 -108.5 56t-38.5 87q0 58 46.5 98.5t129.5 40.5q46 0 88 -14t61 -28l19 -14l-35 -53q-6 5 -16.5 13t-44.5 21.5t-69 13.5q-50 0 -77 -21t-27 -49z" />
    <glyph glyph-name="uni0162" unicode="&#x162;" horiz-adv-x="590" 
d="M565 632h-231v-630q36 -34 36 -82q0 -53 -40.5 -84t-98.5 -31q-27 0 -52.5 7.5t-36.5 14.5l-12 7l20 48q30 -22 82 -22q36 0 56.5 18.5t20.5 48.5q0 21 -11 39t-19.5 24.5t-13.5 9.5h-9v632h-231v68h540v-68z" />
    <glyph glyph-name="uni0163" unicode="&#x163;" horiz-adv-x="430" 
d="M400 449h-200v-280q0 -54 27.5 -82t72.5 -28q21 0 43.5 3.5t34.5 7.5l11 4l11 -63q-25 -13 -72 -19q26 -32 26 -72q0 -53 -40.5 -84t-98.5 -31q-27 0 -52.5 7.5t-36.5 14.5l-12 7l20 48q30 -22 82 -22q36 0 56.5 18.5t20.5 48.5q0 35 -32 65q-64 7 -100 49.5t-36 116.5
v291h-105v61h105v130h75v-130h200v-61z" />
    <glyph glyph-name="Tcaron" unicode="&#x164;" horiz-adv-x="590" 
d="M260 757l-150 163h70l117 -112l116 112h67l-150 -163h-70zM334 632v-632h-78v632h-231v68h540v-68h-231z" />
    <glyph glyph-name="tcaron" unicode="&#x165;" horiz-adv-x="438" 
d="M290 570l38 220h79l-61 -220h-56zM288 -10q-76 0 -119.5 43t-43.5 125v291h-105v61h105v130h75v-130h200v-61h-200v-280q0 -54 27.5 -82t72.5 -28q21 0 43.5 3.5t34.5 7.5l11 4l11 -63q-39 -21 -112 -21z" />
    <glyph glyph-name="Tbar" unicode="&#x166;" horiz-adv-x="590" 
d="M565 632h-231v-243h204v-50h-204v-339h-78v339h-204v50h204v243h-231v68h540v-68z" />
    <glyph glyph-name="tbar" unicode="&#x167;" horiz-adv-x="430" 
d="M400 449h-200v-157h200v-50h-200v-73q0 -54 27.5 -82t72.5 -28q21 0 43.5 3.5t34.5 7.5l11 4l11 -63q-39 -21 -112 -21q-76 0 -119.5 43t-43.5 125v84h-105v50h105v157h-105v61h105v130h75v-130h200v-61z" />
    <glyph glyph-name="Utilde" unicode="&#x168;" horiz-adv-x="740" 
d="M445 765q-27 0 -50 14t-36 30.5t-31 30.5t-37 14q-18 0 -29.5 -18t-13.5 -36l-2 -18l-49 6q0 5 1 13t6.5 28t14.5 35.5t28.5 28t45.5 12.5q28 0 51 -14t36 -30.5t30.5 -30.5t36.5 -14t30.5 18t13.5 36l2 18l49 -5q0 -5 -1 -13t-6.5 -28t-15 -35.5t-29 -28.5t-45.5 -13z
M368 -10q-122 0 -200 81t-78 210v419h79v-418q0 -98 57 -159t146 -61q88 0 145 61t57 159v418h76v-416q0 -129 -79.5 -211.5t-202.5 -82.5z" />
    <glyph glyph-name="utilde" unicode="&#x169;" horiz-adv-x="612" 
d="M381 585q-27 0 -50 14t-36 30.5t-31 30.5t-37 14q-18 0 -29.5 -18t-13.5 -36l-2 -18l-49 6q0 5 1 13t6.5 28t14.5 35.5t28.5 28t45.5 12.5q28 0 51 -14t36 -30.5t30.5 -30.5t36.5 -14t30.5 18t13.5 36l2 18l49 -5q0 -5 -1 -13t-6.5 -28t-15 -35.5t-29 -28.5t-45.5 -13z
M456 510h75v-510h-67l-5 99q-57 -109 -189 -109q-86 0 -142.5 60t-56.5 172v288h75v-263q0 -94 41.5 -140.5t104.5 -46.5q72 0 118 49t46 153v248z" />
    <glyph glyph-name="Umacron" unicode="&#x16a;" horiz-adv-x="740" 
d="M190 815v50h360v-50h-360zM368 -10q-122 0 -200 81t-78 210v419h79v-418q0 -98 57 -159t146 -61q88 0 145 61t57 159v418h76v-416q0 -129 -79.5 -211.5t-202.5 -82.5z" />
    <glyph glyph-name="umacron" unicode="&#x16b;" horiz-adv-x="612" 
d="M126 635v50h360v-50h-360zM456 510h75v-510h-67l-5 99q-57 -109 -189 -109q-86 0 -142.5 60t-56.5 172v288h75v-263q0 -94 41.5 -140.5t104.5 -46.5q72 0 118 49t46 153v248z" />
    <glyph glyph-name="Ubreve" unicode="&#x16c;" horiz-adv-x="740" 
d="M370 757q-70 0 -115.5 45t-45.5 113v5h59v-8q0 -46 28.5 -74.5t74.5 -28.5t73.5 28.5t27.5 74.5v8h59v-5q0 -68 -45.5 -113t-115.5 -45zM368 -10q-122 0 -200 81t-78 210v419h79v-418q0 -98 57 -159t146 -61q88 0 145 61t57 159v418h76v-416q0 -129 -79.5 -211.5
t-202.5 -82.5z" />
    <glyph glyph-name="ubreve" unicode="&#x16d;" horiz-adv-x="612" 
d="M306 577q-70 0 -115.5 45t-45.5 113v5h59v-8q0 -46 28.5 -74.5t74.5 -28.5t73.5 28.5t27.5 74.5v8h59v-5q0 -68 -45.5 -113t-115.5 -45zM456 510h75v-510h-67l-5 99q-57 -109 -189 -109q-86 0 -142.5 60t-56.5 172v288h75v-263q0 -94 41.5 -140.5t104.5 -46.5
q72 0 118 49t46 153v248z" />
    <glyph glyph-name="Uring" unicode="&#x16e;" horiz-adv-x="740" 
d="M370 737q-41 0 -68.5 26t-27.5 66q0 39 27.5 65t68.5 26q40 0 68 -26t28 -65t-28 -65.5t-68 -26.5zM370 775q22 0 38 15.5t16 38.5t-16 38t-38 15q-23 0 -39 -15t-16 -38q0 -24 16 -39t39 -15zM368 -10q-122 0 -200 81t-78 210v419h79v-418q0 -98 57 -159t146 -61
q88 0 145 61t57 159v418h76v-416q0 -129 -79.5 -211.5t-202.5 -82.5z" />
    <glyph glyph-name="uring" unicode="&#x16f;" horiz-adv-x="612" 
d="M306 557q-41 0 -68.5 26t-27.5 66q0 39 27.5 65t68.5 26q40 0 68 -26t28 -65t-28 -65.5t-68 -26.5zM306 595q22 0 38 15.5t16 38.5t-16 38t-38 15q-23 0 -39 -15t-16 -38q0 -24 16 -39t39 -15zM456 510h75v-510h-67l-5 99q-57 -109 -189 -109q-86 0 -142.5 60t-56.5 172
v288h75v-263q0 -94 41.5 -140.5t104.5 -46.5q72 0 118 49t46 153v248z" />
    <glyph glyph-name="Uhungarumlaut" unicode="&#x170;" horiz-adv-x="740" 
d="M247 757l61 163h81l-82 -163h-60zM431 757l61 163h81l-82 -163h-60zM368 -10q-122 0 -200 81t-78 210v419h79v-418q0 -98 57 -159t146 -61q88 0 145 61t57 159v418h76v-416q0 -129 -79.5 -211.5t-202.5 -82.5z" />
    <glyph glyph-name="uhungarumlaut" unicode="&#x171;" horiz-adv-x="612" 
d="M183 577l61 163h81l-82 -163h-60zM367 577l61 163h81l-82 -163h-60zM456 510h75v-510h-67l-5 99q-57 -109 -189 -109q-86 0 -142.5 60t-56.5 172v288h75v-263q0 -94 41.5 -140.5t104.5 -46.5q72 0 118 49t46 153v248z" />
    <glyph glyph-name="Uogonek" unicode="&#x172;" horiz-adv-x="740" 
d="M434 -3q-22 -19 -22 -55q0 -32 24 -52t60 -20q16 0 31.5 4t22.5 8l7 4l18 -46q-29 -25 -85 -25q-58 0 -96.5 33t-38.5 85q0 30 16 57h-3q-122 0 -200 81t-78 210v419h79v-418q0 -98 57 -159t146 -61q88 0 145 61t57 159v418h76v-416q0 -111 -59.5 -188.5t-156.5 -98.5z
" />
    <glyph glyph-name="uogonek" unicode="&#x173;" horiz-adv-x="612" 
d="M624 -114l18 -46q-29 -25 -85 -25q-58 0 -96.5 33t-38.5 85q0 53 41 87l-4 79q-57 -109 -189 -109q-86 0 -142.5 60t-56.5 172v288h75v-263q0 -94 41.5 -140.5t104.5 -46.5q72 0 118 49t46 153v248h75v-510h-26q-26 -16 -26 -58q0 -32 24 -52t60 -20q16 0 31.5 4t22.5 8z
" />
    <glyph glyph-name="Wcircumflex" unicode="&#x174;" horiz-adv-x="980" 
d="M307 757l150 163h70l150 -163h-70l-117 112l-116 -112h-67zM7 700h86l193 -582l178 582h56l178 -582l193 582h82l-239 -700h-70l-174 559l-174 -559h-70z" />
    <glyph glyph-name="wcircumflex" unicode="&#x175;" horiz-adv-x="775" 
d="M204 577l150 163h70l150 -163h-70l-117 112l-116 -112h-67zM5 510h83l141 -406l132 406h57l132 -405l141 405h79l-183 -510h-72l-128 387l-127 -387h-72z" />
    <glyph glyph-name="Ycircumflex" unicode="&#x176;" horiz-adv-x="665" 
d="M149 757l150 163h70l150 -163h-70l-117 112l-116 -112h-67zM294 0v280l-287 420h93l235 -349l234 349h89l-286 -420v-280h-78z" />
    <glyph glyph-name="ycircumflex" unicode="&#x177;" horiz-adv-x="518" 
d="M76 577l150 163h70l150 -163h-70l-117 112l-116 -112h-67zM5 510h84l171 -424l172 424h81l-219 -515q-70 -165 -196 -165q-28 0 -51 5.5t-33 10.5l-9 6l25 59q21 -14 63 -14q80 0 128 106z" />
    <glyph glyph-name="Ydieresis" unicode="&#x178;" horiz-adv-x="665" 
d="M235 787q-21 0 -35 14.5t-14 34.5t14.5 34.5t34.5 14.5q21 0 35 -14t14 -34q0 -21 -14.5 -35.5t-34.5 -14.5zM435 787q-21 0 -35 14.5t-14 34.5t14.5 34.5t34.5 14.5q21 0 35 -14t14 -34q0 -21 -14.5 -35.5t-34.5 -14.5zM294 0v280l-287 420h93l235 -349l234 349h89
l-286 -420v-280h-78z" />
    <glyph glyph-name="Zacute" unicode="&#x179;" horiz-adv-x="685" 
d="M321 757l79 163h81l-98 -163h-62zM57 0v54l465 579h-445v67h551v-54l-465 -579h465v-67h-571z" />
    <glyph glyph-name="zacute" unicode="&#x17a;" horiz-adv-x="510" 
d="M231 577l79 163h81l-98 -163h-62zM47 0v53l312 391h-297v66h401v-54l-312 -390h312v-66h-416z" />
    <glyph glyph-name="Zdotaccent" unicode="&#x17b;" horiz-adv-x="685" 
d="M353 787q-21 0 -35 14.5t-14 34.5t14.5 34.5t34.5 14.5q21 0 35 -14t14 -34q0 -21 -14.5 -35.5t-34.5 -14.5zM57 0v54l465 579h-445v67h551v-54l-465 -579h465v-67h-571z" />
    <glyph glyph-name="zdotaccent" unicode="&#x17c;" horiz-adv-x="510" 
d="M263 607q-21 0 -35 14.5t-14 34.5t14.5 34.5t34.5 14.5q21 0 35 -14t14 -34q0 -21 -14.5 -35.5t-34.5 -14.5zM47 0v53l312 391h-297v66h401v-54l-312 -390h312v-66h-416z" />
    <glyph glyph-name="Zcaron" unicode="&#x17d;" horiz-adv-x="685" 
d="M317 757l-150 163h70l117 -112l116 112h67l-150 -163h-70zM57 0v54l465 579h-445v67h551v-54l-465 -579h465v-67h-571z" />
    <glyph glyph-name="zcaron" unicode="&#x17e;" horiz-adv-x="510" 
d="M227 577l-150 163h70l117 -112l116 112h67l-150 -163h-70zM47 0v53l312 391h-297v66h401v-54l-312 -390h312v-66h-416z" />
    <glyph glyph-name="florin" unicode="&#x192;" 
d="M140 -160l38 471h-133v52h137l12 146q7 97 60 149t139 52q39 0 71.5 -12t51 -29t32 -34.5t18.5 -29.5l4 -12l-58 -33q-1 3 -3 8.5t-11 19.5t-20.5 24.5t-34 19.5t-49.5 9q-55 0 -87.5 -33t-37.5 -94l-12 -151h213v-52h-217l-38 -471h-75z" />
    <glyph glyph-name="Aringacute" unicode="&#x1fa;" horiz-adv-x="695" 
d="M394 684l294 -684h-86l-85 202h-342l-86 -202h-82l295 683q-51 25 -51 81q0 40 27.5 66t68.5 26h6l28 64h82l-54 -85q34 -28 34 -71q0 -55 -49 -80zM347 818q-23 0 -39 -15t-16 -39q0 -23 16 -38.5t39 -15.5t38.5 15.5t15.5 38.5q0 24 -15.5 39t-38.5 15zM198 265h294
l-146 347z" />
    <glyph glyph-name="aringacute" unicode="&#x1fb;" horiz-adv-x="564" 
d="M345 511q72 -18 110 -74t38 -145v-292h-58l-9 55q-58 -65 -173 -65q-92 0 -146.5 44.5t-54.5 111.5t55.5 113.5t147.5 46.5q105 0 162 -57v42q0 81 -41 122t-111 41q-42 0 -78.5 -13t-52.5 -25l-15 -13l-37 52q6 5 16.5 13.5t48.5 25.5t81 23q-33 26 -33 70q0 39 27.5 65
t67.5 26h5l27 62h82l-52 -82q35 -27 35 -71q0 -50 -42 -76zM290 641q-23 0 -38.5 -15.5t-15.5 -38.5q0 -24 15.5 -39t38.5 -15t39 15t16 39q0 23 -16 38.5t-39 15.5zM271 45q72 0 111.5 30t39.5 74t-39.5 74t-111.5 30q-66 0 -104.5 -30t-38.5 -74t38.5 -74t104.5 -30z" />
    <glyph glyph-name="AEacute" unicode="&#x1fc;" horiz-adv-x="1053" 
d="M659 767l79 163h81l-98 -163h-62zM-3 0l465 700h526v-68h-408v-235h358v-64h-358v-265h418v-68h-496v202h-282l-133 -202h-90zM258 265h244v370z" />
    <glyph glyph-name="aeacute" unicode="&#x1fd;" horiz-adv-x="977" 
d="M457 577l79 163h81l-98 -163h-62zM259 -10q-95 0 -151 44.5t-56 111.5t55.5 113.5t147.5 46.5q105 0 162 -57v42q0 81 -41 122t-111 41q-42 0 -78.5 -12t-52.5 -24l-15 -13l-37 51q3 3 8 7t23 15t38.5 19.5t54 15.5t69.5 7q150 0 190 -132q32 60 90.5 96t130.5 36
q102 0 174.5 -73.5t72.5 -177.5l-2 -19h-437q2 -85 57 -139t137 -54q54 0 98 23.5t61 46.5l17 23l48 -39q-3 -5 -8.5 -13t-25.5 -29t-44 -37t-64.5 -29t-85.5 -13q-70 0 -127 33t-90 89q-15 -56 -68 -89t-140 -33zM495 301h363q-9 67 -58.5 112.5t-114.5 45.5
q-72 0 -124.5 -44t-65.5 -114zM271 45q72 0 111.5 30t39.5 74t-39.5 74t-111.5 30q-66 0 -104.5 -30t-38.5 -74t38.5 -74t104.5 -30z" />
    <glyph glyph-name="Oslashacute" unicode="&#x1fe;" horiz-adv-x="835" 
d="M546 930l-98 -163h-62l79 163h81zM675 607q105 -103 105 -255t-105.5 -257t-258.5 -105q-125 0 -220 71l-80 -91h-64l108 123q-105 103 -105 255t105.5 257t258.5 105q125 0 220 -71l80 91h64zM132 350q0 -119 77 -201l381 434q-77 56 -173 56q-121 0 -203 -83t-82 -206z
M417 61q122 0 204 83t82 206q0 118 -77 201l-381 -434q75 -56 172 -56z" />
    <glyph glyph-name="oslashacute" unicode="&#x1ff;" horiz-adv-x="627" 
d="M442 740l-98 -163h-62l79 163h81zM597 540l-88 -99q73 -76 73 -185q0 -112 -78 -189t-192 -77q-89 0 -159 49l-62 -69h-61l88 99q-73 75 -73 184q0 112 78 189.5t192 77.5q90 0 159 -50l62 70h61zM117 255q0 -77 48 -133l263 297q-51 35 -114 35q-84 0 -140.5 -57
t-56.5 -142zM510 255q0 77 -48 133l-263 -296q50 -36 115 -36q83 0 139.5 57t56.5 142z" />
    <glyph glyph-name="uni0218" unicode="&#x218;" horiz-adv-x="568" 
d="M144 536q0 -46 36.5 -78.5t119.5 -59.5q213 -68 213 -213q0 -84 -63.5 -139.5t-169.5 -55.5q-46 0 -88.5 10t-70.5 23.5t-49 27.5t-30 24l-10 10l49 52q3 -3 9 -8.5t25.5 -19.5t42 -24.5t58 -19.5t72.5 -9q65 0 105 34.5t40 85.5q0 54 -41 91t-144 72q-183 62 -183 190
q0 77 61.5 129t161.5 52q64 0 118 -20t76 -40l23 -20l-49 -52q-2 3 -7 7.5t-21 15.5t-34 20t-46 16t-58 7q-69 0 -107.5 -33t-38.5 -75zM160 -213l79 163h81l-98 -163h-62z" />
    <glyph glyph-name="uni0219" unicode="&#x219;" horiz-adv-x="450" 
d="M125 389q0 -31 25.5 -54.5t92.5 -40.5q162 -44 162 -153q0 -64 -50 -107.5t-137 -43.5q-53 0 -100 16.5t-68 32.5l-21 16l35 52q7 -6 20.5 -15.5t54 -25t80.5 -15.5q52 0 81.5 23t29.5 57q0 35 -27.5 61t-105.5 46q-70 19 -108.5 56t-38.5 87q0 58 46.5 98.5t129.5 40.5
q46 0 88 -14t61 -28l19 -14l-35 -53q-6 5 -16.5 13t-44.5 21.5t-69 13.5q-50 0 -77 -21t-27 -49zM98 -213l79 163h81l-98 -163h-62z" />
    <glyph glyph-name="uni021A" unicode="&#x21a;" horiz-adv-x="590" 
d="M334 632v-632h-78v632h-231v68h540v-68h-231zM175 -213l79 163h81l-98 -163h-62z" />
    <glyph glyph-name="uni021B" unicode="&#x21b;" horiz-adv-x="430" 
d="M288 -10q-76 0 -119.5 43t-43.5 125v291h-105v61h105v130h75v-130h200v-61h-200v-280q0 -54 27.5 -82t72.5 -28q21 0 43.5 3.5t34.5 7.5l11 4l11 -63q-39 -21 -112 -21zM159 -213l79 163h81l-98 -163h-62z" />
    <glyph glyph-name="uni02BC" unicode="&#x2bc;" horiz-adv-x="600" 
 />
    <glyph glyph-name="circumflex" unicode="&#x2c6;" horiz-adv-x="470" 
d="M50 577l150 163h70l150 -163h-70l-117 112l-116 -112h-67z" />
    <glyph glyph-name="caron" unicode="&#x2c7;" horiz-adv-x="470" 
d="M200 577l-150 163h70l117 -112l116 112h67l-150 -163h-70z" />
    <glyph glyph-name="breve" unicode="&#x2d8;" horiz-adv-x="422" 
d="M211 577q-70 0 -115.5 45t-45.5 113v5h59v-8q0 -46 28.5 -74.5t74.5 -28.5t73.5 28.5t27.5 74.5v8h59v-5q0 -68 -45.5 -113t-115.5 -45z" />
    <glyph glyph-name="dotaccent" unicode="&#x2d9;" horiz-adv-x="198" 
d="M99 607q-21 0 -35 14.5t-14 34.5t14.5 34.5t34.5 14.5q21 0 35 -14t14 -34q0 -21 -14.5 -35.5t-34.5 -14.5z" />
    <glyph glyph-name="ring" unicode="&#x2da;" horiz-adv-x="292" 
d="M146 557q-41 0 -68.5 26t-27.5 66q0 39 27.5 65t68.5 26q40 0 68 -26t28 -65t-28 -65.5t-68 -26.5zM146 595q22 0 38 15.5t16 38.5t-16 38t-38 15q-23 0 -39 -15t-16 -38q0 -24 16 -39t39 -15z" />
    <glyph glyph-name="ogonek" unicode="&#x2db;" horiz-adv-x="320" 
d="M185 -185q-58 0 -96.5 33t-38.5 85q0 31 15 56t30 35l15 9l23 -33q-26 -16 -26 -58q0 -32 24 -52t60 -20q16 0 31.5 4t22.5 8l7 4l18 -46q-29 -25 -85 -25z" />
    <glyph glyph-name="tilde" unicode="&#x2dc;" horiz-adv-x="445" 
d="M298 585q-27 0 -50 14t-36 30.5t-31 30.5t-37 14q-18 0 -29.5 -18t-13.5 -36l-2 -18l-49 6q0 5 1 13t6.5 28t14.5 35.5t28.5 28t45.5 12.5q28 0 51 -14t36 -30.5t30.5 -30.5t36.5 -14t30.5 18t13.5 36l2 18l49 -5q0 -5 -1 -13t-6.5 -28t-15 -35.5t-29 -28.5t-45.5 -13z
" />
    <glyph glyph-name="hungarumlaut" unicode="&#x2dd;" horiz-adv-x="426" 
d="M50 577l61 163h81l-82 -163h-60zM234 577l61 163h81l-82 -163h-60z" />
    <glyph glyph-name="gravecomb" unicode="&#x300;" horiz-adv-x="0" 
d="M-111 577l-99 163h82l78 -163h-61z" />
    <glyph glyph-name="acutecomb" unicode="&#x301;" horiz-adv-x="0" 
d="M-210 577l79 163h81l-98 -163h-62z" />
    <glyph glyph-name="uni0302" unicode="&#x302;" horiz-adv-x="0" 
d="M-420 577l150 163h70l150 -163h-70l-117 112l-116 -112h-67z" />
    <glyph glyph-name="tildecomb" unicode="&#x303;" horiz-adv-x="0" 
d="M-147 585q-27 0 -50 14t-36 30.5t-31 30.5t-37 14q-18 0 -29.5 -18t-13.5 -36l-2 -18l-49 6q0 5 1 13t6.5 28t14.5 35.5t28.5 28t45.5 12.5q28 0 51 -14t36 -30.5t30.5 -30.5t36.5 -14t30.5 18t13.5 36l2 18l49 -5q0 -5 -1 -13t-6.5 -28t-15 -35.5t-29 -28.5t-45.5 -13z
" />
    <glyph glyph-name="uni0304" unicode="&#x304;" horiz-adv-x="0" 
d="M-410 635v50h360v-50h-360z" />
    <glyph glyph-name="uni0306" unicode="&#x306;" horiz-adv-x="0" 
d="M-211 577q-70 0 -115.5 45t-45.5 113v5h59v-8q0 -46 28.5 -74.5t74.5 -28.5t73.5 28.5t27.5 74.5v8h59v-5q0 -68 -45.5 -113t-115.5 -45z" />
    <glyph glyph-name="uni0307" unicode="&#x307;" horiz-adv-x="0" 
d="M-99 607q-21 0 -35 14.5t-14 34.5t14.5 34.5t34.5 14.5q21 0 35 -14t14 -34q0 -21 -14.5 -35.5t-34.5 -14.5z" />
    <glyph glyph-name="uni0308" unicode="&#x308;" horiz-adv-x="0" 
d="M-299 607q-21 0 -35 14.5t-14 34.5t14.5 34.5t34.5 14.5q21 0 35 -14t14 -34q0 -21 -14.5 -35.5t-34.5 -14.5zM-99 607q-21 0 -35 14.5t-14 34.5t14.5 34.5t34.5 14.5q21 0 35 -14t14 -34q0 -21 -14.5 -35.5t-34.5 -14.5z" />
    <glyph glyph-name="uni030A" unicode="&#x30a;" horiz-adv-x="0" 
d="M-146 557q-41 0 -68.5 26t-27.5 66q0 39 27.5 65t68.5 26q40 0 68 -26t28 -65t-28 -65.5t-68 -26.5zM-146 595q22 0 38 15.5t16 38.5t-16 38t-38 15q-23 0 -39 -15t-16 -38q0 -24 16 -39t39 -15z" />
    <glyph glyph-name="uni030B" unicode="&#x30b;" horiz-adv-x="0" 
d="M-376 577l61 163h81l-82 -163h-60zM-192 577l61 163h81l-82 -163h-60z" />
    <glyph glyph-name="uni030C" unicode="&#x30c;" horiz-adv-x="0" 
d="M-270 577l-150 163h70l117 -112l116 112h67l-150 -163h-70z" />
    <glyph glyph-name="uni0312" unicode="&#x312;" horiz-adv-x="0" 
d="M-50 725l-78 -162h-82l99 162h61z" />
    <glyph glyph-name="uni0326" unicode="&#x326;" horiz-adv-x="0" 
d="M-210 -213l79 163h81l-98 -163h-62z" />
    <glyph glyph-name="uni0327" unicode="&#x327;" horiz-adv-x="0" 
d="M-189 -195q-27 0 -52.5 7.5t-36.5 14.5l-12 7l20 48q30 -22 82 -22q36 0 56.5 18.5t20.5 48.5q0 21 -11 39t-19.5 24.5t-13.5 9.5l30 29q3 -1 8 -3.5t18 -12t23 -21t18 -31t8 -41.5q0 -53 -40.5 -84t-98.5 -31z" />
    <glyph glyph-name="uni0328" unicode="&#x328;" horiz-adv-x="0" 
d="M-135 -185q-58 0 -96.5 33t-38.5 85q0 31 15 56t30 35l15 9l23 -33q-26 -16 -26 -58q0 -32 24 -52t60 -20q16 0 31.5 4t22.5 8l7 4l18 -46q-29 -25 -85 -25z" />
    <glyph glyph-name="uni0374" unicode="&#x374;" horiz-adv-x="600" 
 />
    <glyph glyph-name="uni0375" unicode="&#x375;" horiz-adv-x="600" 
 />
    <glyph glyph-name="uni037E" unicode="&#x37e;" horiz-adv-x="208" 
d="M104 412q-22 0 -38 16t-16 38t16 38t38 16t38 -16t16 -38t-16 -38t-38 -16zM40 -130l26 240h82l-46 -240h-62z" />
    <glyph glyph-name="tonos" unicode="&#x384;" horiz-adv-x="204" 
d="M50 577l27 163h77l-46 -163h-58z" />
    <glyph glyph-name="dieresistonos" unicode="&#x385;" horiz-adv-x="466" 
d="M188 577l25 163h74l-43 -163h-56zM99 607q-21 0 -35 14.5t-14 34.5t14.5 34.5t34.5 14.5q21 0 35 -14t14 -34q0 -21 -14.5 -35.5t-34.5 -14.5zM367 607q-21 0 -35 14.5t-14 34.5t14.5 34.5t34.5 14.5q21 0 35 -14t14 -34q0 -21 -14.5 -35.5t-34.5 -14.5z" />
    <glyph glyph-name="Alphatonos" unicode="&#x386;" horiz-adv-x="700" 
d="M13 0l301 700h78l301 -700h-86l-85 202h-342l-86 -202h-81zM37 537l28 163h76l-45 -163h-59zM203 265h294l-146 347z" />
    <glyph glyph-name="anoteleia" unicode="&#x387;" horiz-adv-x="223" 
d="M111 296q-22 0 -38 16t-16 38t16 38t38 16q23 0 38.5 -16t15.5 -38t-15.5 -38t-38.5 -16z" />
    <glyph glyph-name="Epsilontonos" unicode="&#x388;" horiz-adv-x="763" 
d="M37 537l28 163h76l-45 -163h-59zM213 0v700h485v-68h-407v-235h357v-64h-357v-265h417v-68h-495z" />
    <glyph glyph-name="Etatonos" unicode="&#x389;" horiz-adv-x="883" 
d="M37 537l28 163h76l-45 -163h-59zM213 0v700h78v-296h414v296h78v-700h-78v335h-414v-335h-78z" />
    <glyph glyph-name="Iotatonos" unicode="&#x38a;" horiz-adv-x="403" 
d="M37 537l28 163h76l-45 -163h-59zM218 700h80v-700h-80v700z" />
    <glyph glyph-name="Omicrontonos" unicode="&#x38c;" horiz-adv-x="917" 
d="M137 348q0 152 105.5 257t259.5 105q153 0 257 -103t104 -255t-105.5 -257t-259.5 -105q-153 0 -257 103t-104 255zM37 537l28 163h76l-45 -163h-59zM215 350q0 -122 82 -205t203 -83t203 83t82 205t-82 205t-203 83t-203 -83t-82 -205z" />
    <glyph glyph-name="Upsilontonos" unicode="&#x38e;" horiz-adv-x="843" 
d="M37 537l28 163h76l-45 -163h-59zM471 0v280l-286 420h92l235 -349l235 349h88l-286 -420v-280h-78z" />
    <glyph glyph-name="Omegatonos" unicode="&#x38f;" horiz-adv-x="930" 
d="M865 365q0 -101 -52.5 -176.5t-136.5 -120.5h172v-68h-291v60q100 39 165 115.5t65 181.5q0 119 -81.5 200t-202.5 81t-203 -81t-82 -200q0 -105 65 -181.5t165 -115.5v-60h-291v68h169q-84 45 -135 119t-51 175q0 146 105.5 247t258.5 101t257 -99.5t104 -245.5zM65 700
h76l-45 -163h-59z" />
    <glyph glyph-name="iotadieresistonos" unicode="&#x390;" horiz-adv-x="330" 
d="M89 577l25 163h74l-43 -163h-56zM0 607q-21 0 -35 14.5t-14 34.5t14.5 34.5t34.5 14.5q21 0 35 -14t14 -34q0 -21 -14.5 -35.5t-34.5 -14.5zM268 607q-21 0 -35 14.5t-14 34.5t14.5 34.5t34.5 14.5q21 0 35 -14t14 -34q0 -21 -14.5 -35.5t-34.5 -14.5zM155 510h-75v-383
q0 -67 36 -102t98 -35q30 0 54 5t33 11l9 5l-14 59q-27 -12 -68 -12q-33 0 -53 20t-20 60v372z" />
    <glyph glyph-name="Alpha" unicode="&#x391;" horiz-adv-x="695" 
d="M7 0l302 700h78l301 -700h-86l-85 202h-342l-86 -202h-82zM198 265h294l-146 347z" />
    <glyph glyph-name="Beta" unicode="&#x392;" horiz-adv-x="690" 
d="M100 0v700h285q93 0 149.5 -49t56.5 -124q0 -53 -29 -95t-80 -63q65 -17 104 -65.5t39 -112.5q0 -81 -62.5 -136t-161.5 -55h-301zM178 394h195q62 0 101 35t39 86q0 52 -39 87t-101 35h-195v-243zM178 63h214q69 0 112 39t43 97t-43 97.5t-112 39.5h-214v-273z" />
    <glyph glyph-name="Gamma" unicode="&#x393;" horiz-adv-x="590" 
d="M100 700h465v-69h-387v-631h-78v700z" />
    <glyph glyph-name="uni0394" unicode="&#x394;" horiz-adv-x="705" 
d="M7 0l307 700h78l306 -700h-691zM115 69h470l-234 544z" />
    <glyph glyph-name="uni0394" unicode="&#x2206;" horiz-adv-x="705" 
d="M7 0l307 700h78l306 -700h-691zM115 69h470l-234 544z" />
    <glyph glyph-name="Epsilon" unicode="&#x395;" horiz-adv-x="650" 
d="M100 0v700h485v-68h-407v-235h357v-64h-357v-265h417v-68h-495z" />
    <glyph glyph-name="Zeta" unicode="&#x396;" horiz-adv-x="685" 
d="M57 0v54l465 579h-445v67h551v-54l-465 -579h465v-67h-571z" />
    <glyph glyph-name="Eta" unicode="&#x397;" horiz-adv-x="770" 
d="M100 0v700h78v-296h414v296h78v-700h-78v335h-414v-335h-78z" />
    <glyph glyph-name="Theta" unicode="&#x398;" horiz-adv-x="835" 
d="M55 348q0 152 105.5 257t258.5 105t257 -103t104 -255t-105.5 -257t-258.5 -105t-257 103t-104 255zM132 350q0 -123 82 -206t203 -83q122 0 204 83t82 206t-82 206t-204 83q-121 0 -203 -83t-82 -206zM229 327v60h377v-60h-377z" />
    <glyph glyph-name="Iota" unicode="&#x399;" horiz-adv-x="290" 
d="M105 700h81v-700h-81v700z" />
    <glyph glyph-name="Kappa" unicode="&#x39a;" horiz-adv-x="669" 
d="M100 0v700h78v-328l364 328h110l-384 -336l404 -364h-110l-384 348v-348h-78z" />
    <glyph glyph-name="Lambda" unicode="&#x39b;" horiz-adv-x="685" 
d="M678 0h-87l-250 603l-251 -603h-83l297 700h78z" />
    <glyph glyph-name="Mu" unicode="&#x39c;" horiz-adv-x="890" 
d="M176 562v-562h-76v700h81l266 -485l266 485h77v-700h-76v562l-248 -447h-42z" />
    <glyph glyph-name="Nu" unicode="&#x39d;" horiz-adv-x="790" 
d="M177 586v-586h-77v700h83l430 -578v578h77v-700h-77z" />
    <glyph glyph-name="Xi" unicode="&#x39e;" horiz-adv-x="670" 
d="M65 632v68h540v-68h-540zM97 332v66h458v-66h-458zM55 0v68h560v-68h-560z" />
    <glyph glyph-name="Omicron" unicode="&#x39f;" horiz-adv-x="835" 
d="M55 348q0 152 105.5 257t258.5 105t257 -103t104 -255t-105.5 -257t-258.5 -105t-257 103t-104 255zM133 350q0 -122 81.5 -205t202.5 -83t203 83t82 205t-82 205t-203 83t-202.5 -83t-81.5 -205z" />
    <glyph glyph-name="Pi" unicode="&#x3a0;" horiz-adv-x="770" 
d="M100 0v700h570v-700h-78v631h-414v-631h-78z" />
    <glyph glyph-name="Rho" unicode="&#x3a1;" horiz-adv-x="671" 
d="M100 0v700h283q108 0 175 -62t67 -158t-68.5 -159.5t-176.5 -63.5h-202v-257h-78zM178 323h196q77 0 125 44t48 111t-48 111t-125 44h-196v-310z" />
    <glyph glyph-name="Sigma" unicode="&#x3a3;" horiz-adv-x="653" 
d="M168 67h430v-67h-541v55l280 303l-280 288v54h531v-67h-412l261 -272z" />
    <glyph glyph-name="Tau" unicode="&#x3a4;" horiz-adv-x="590" 
d="M334 632v-632h-78v632h-231v68h540v-68h-231z" />
    <glyph glyph-name="Upsilon" unicode="&#x3a5;" horiz-adv-x="665" 
d="M294 0v280l-287 420h93l235 -349l234 349h89l-286 -420v-280h-78z" />
    <glyph glyph-name="Phi" unicode="&#x3a6;" horiz-adv-x="940" 
d="M885 352q0 -141 -106.5 -236t-270.5 -99v-67h-76v67q-166 2 -271.5 96t-105.5 235t106.5 236t270.5 99v67h76v-67q165 -2 271 -96t106 -235zM133 350q0 -113 83.5 -186.5t215.5 -76.5v526q-132 -3 -215.5 -76.5t-83.5 -186.5zM508 87q132 3 215.5 76.5t83.5 186.5
t-83.5 186.5t-215.5 76.5v-526z" />
    <glyph glyph-name="Chi" unicode="&#x3a7;" horiz-adv-x="670" 
d="M7 0l281 358l-267 342h97l218 -284l221 284h92l-268 -341l282 -359h-97l-234 302l-232 -302h-93z" />
    <glyph glyph-name="Psi" unicode="&#x3a8;" horiz-adv-x="920" 
d="M787 700h78v-161q0 -151 -102.5 -249.5t-263.5 -102.5v-187h-78v187q-162 3 -264 100.5t-102 248.5v164h78v-161q0 -124 79.5 -201t208.5 -80v442h78v-442q129 3 208.5 80t79.5 201v161z" />
    <glyph glyph-name="uni03A9" unicode="&#x3a9;" horiz-adv-x="855" 
d="M790 365q0 -101 -52.5 -176.5t-136.5 -120.5h172v-68h-291v60q100 39 165 115.5t65 181.5q0 119 -82 200t-203 81t-202.5 -81t-81.5 -200q0 -105 65 -181.5t165 -115.5v-60h-291v68h169q-84 45 -135 119t-51 175q0 146 105.5 247t258.5 101t257 -99.5t104 -245.5z" />
    <glyph glyph-name="Iotadieresis" unicode="&#x3aa;" horiz-adv-x="290" 
d="M45 787q-21 0 -35 14.5t-14 34.5t14.5 34.5t34.5 14.5q21 0 35 -14t14 -34q0 -21 -14.5 -35.5t-34.5 -14.5zM245 787q-21 0 -35 14.5t-14 34.5t14.5 34.5t34.5 14.5q21 0 35 -14t14 -34q0 -21 -14.5 -35.5t-34.5 -14.5zM105 700h81v-700h-81v700z" />
    <glyph glyph-name="Upsilondieresis" unicode="&#x3ab;" horiz-adv-x="665" 
d="M235 787q-21 0 -35 14.5t-14 34.5t14.5 34.5t34.5 14.5q21 0 35 -14t14 -34q0 -21 -14.5 -35.5t-34.5 -14.5zM435 787q-21 0 -35 14.5t-14 34.5t14.5 34.5t34.5 14.5q21 0 35 -14t14 -34q0 -21 -14.5 -35.5t-34.5 -14.5zM294 0v280l-287 420h93l235 -349l234 349h89
l-286 -420v-280h-78z" />
    <glyph glyph-name="alphatonos" unicode="&#x3ac;" horiz-adv-x="751" 
d="M403 740l-46 -163h-58l27 163h77zM717 70l14 -59q-29 -21 -96 -21q-116 0 -132 112q-28 -50 -83.5 -81t-120.5 -31q-106 0 -180 76t-74 187t75.5 189t181.5 78q64 0 117.5 -30t85.5 -83l9 103h62v-372q0 -40 20 -60t53 -20q18 0 35 3t25 6zM313 59q82 0 137.5 56.5
t55.5 139.5t-55.5 139t-137.5 56t-137.5 -56t-55.5 -139t55.5 -139.5t137.5 -56.5z" />
    <glyph glyph-name="epsilontonos" unicode="&#x3ad;" horiz-adv-x="525" 
d="M253 577l27 163h77l-46 -163h-58zM285 -10q-115 0 -177.5 40.5t-62.5 104.5q0 48 34.5 82.5t90.5 49.5q-50 14 -80 43.5t-30 71.5q0 60 57.5 99t165.5 39q52 0 100 -14t70 -28l22 -13l-32 -49q-66 41 -158 41q-150 0 -150 -80q0 -39 39 -61t113 -22h60v-56h-58
q-80 0 -124.5 -26.5t-44.5 -69.5q0 -41 42 -65.5t124 -24.5q45 0 89 12t65 24l21 11l32 -50q-9 -7 -25.5 -16.5t-70.5 -26t-112 -16.5z" />
    <glyph glyph-name="etatonos" unicode="&#x3ae;" horiz-adv-x="611" 
d="M277 577l27 163h77l-46 -163h-58zM155 0h-75v510h67l5 -99q57 109 189 109q86 0 142.5 -60t56.5 -172v-448h-75v423q0 94 -41.5 140.5t-104.5 46.5q-72 0 -118 -49t-46 -153v-248z" />
    <glyph glyph-name="iotatonos" unicode="&#x3af;" horiz-adv-x="330" 
d="M88 577l27 163h77l-46 -163h-58zM155 510h-75v-383q0 -67 36 -102t98 -35q30 0 54 5t33 11l9 5l-14 59q-27 -12 -68 -12q-33 0 -53 20t-20 60v372z" />
    <glyph glyph-name="upsilondieresistonos" unicode="&#x3b0;" horiz-adv-x="603" 
d="M273 577l25 163h74l-43 -163h-56zM184 607q-21 0 -35 14.5t-14 34.5t14.5 34.5t34.5 14.5q21 0 35 -14t14 -34q0 -21 -14.5 -35.5t-34.5 -14.5zM452 607q-21 0 -35 14.5t-14 34.5t14.5 34.5t34.5 14.5q21 0 35 -14t14 -34q0 -21 -14.5 -35.5t-34.5 -14.5zM531 236v274
h-75v-276q0 -79 -44 -127t-111 -48t-110.5 48t-43.5 127v276h-76v-277q0 -108 65 -175.5t164 -67.5t165 69t66 177z" />
    <glyph glyph-name="alpha" unicode="&#x3b1;" horiz-adv-x="751" 
d="M717 70l14 -59q-29 -21 -96 -21q-116 0 -132 112q-28 -50 -83.5 -81t-120.5 -31q-106 0 -180 76t-74 187t75.5 189t181.5 78q64 0 117.5 -30t85.5 -83l9 103h62v-372q0 -40 20 -60t53 -20q18 0 35 3t25 6zM313 59q82 0 137.5 56.5t55.5 139.5t-55.5 139t-137.5 56
t-137.5 -56t-55.5 -139t55.5 -139.5t137.5 -56.5z" />
    <glyph glyph-name="beta" unicode="&#x3b2;" horiz-adv-x="610" 
d="M433 370q62 -22 97 -69.5t35 -110.5q0 -87 -61.5 -143.5t-161.5 -56.5q-122 0 -187 78v-228h-75v629q0 108 65.5 174.5t166.5 66.5q98 0 160.5 -52.5t62.5 -131.5q0 -50 -27 -91t-75 -65zM334 56q71 0 113.5 39t42.5 99q0 61 -43 100t-117 39h-77v61h58q65 0 107 35.5
t42 89.5t-42 89.5t-107 35.5q-68 0 -112 -47t-44 -126v-266q0 -65 52 -107t127 -42z" />
    <glyph glyph-name="gamma" unicode="&#x3b3;" horiz-adv-x="518" 
d="M432 510h81l-217 -510v-160h-74v160l-217 510h84l171 -419z" />
    <glyph glyph-name="delta" unicode="&#x3b4;" horiz-adv-x="627" 
d="M376 533q103 -64 154.5 -125t51.5 -153q0 -111 -78 -188t-192 -77t-190.5 75.5t-76.5 186.5q0 46 16.5 87.5t40 69.5t55.5 52t57.5 37.5t51.5 23.5l-191 126v52h477v-64h-339zM314 58q82 0 137.5 56t55.5 139q0 38 -13 70.5t-40.5 60.5t-52 47t-66.5 46l-5 3
q-29 -10 -58.5 -24.5t-67 -41.5t-61 -68.5t-23.5 -91.5q0 -84 55.5 -140t138.5 -56z" />
    <glyph glyph-name="epsilon" unicode="&#x3b5;" horiz-adv-x="525" 
d="M285 -10q-115 0 -177.5 40.5t-62.5 104.5q0 48 34.5 82.5t90.5 49.5q-50 14 -80 43.5t-30 71.5q0 60 57.5 99t165.5 39q52 0 100 -14t70 -28l22 -13l-32 -49q-66 41 -158 41q-150 0 -150 -80q0 -39 39 -61t113 -22h60v-56h-58q-80 0 -124.5 -26.5t-44.5 -69.5
q0 -41 42 -65.5t124 -24.5q45 0 89 12t65 24l21 11l32 -50q-9 -7 -25.5 -16.5t-70.5 -26t-112 -16.5z" />
    <glyph glyph-name="zeta" unicode="&#x3b6;" horiz-adv-x="487" 
d="M416 -166l-61 21q41 54 41 86q0 56 -87 62q-264 14 -264 223q0 76 42.5 142t133.5 154l117 114h-263v64h374v-52l-177 -170q-75 -73 -113.5 -130t-38.5 -115q0 -79 50 -116t152 -48q75 -8 111 -35.5t36 -78.5q0 -29 -13.5 -59t-26.5 -46z" />
    <glyph glyph-name="eta" unicode="&#x3b7;" horiz-adv-x="611" 
d="M155 0h-75v510h67l5 -99q57 109 189 109q86 0 142.5 -60t56.5 -172v-448h-75v423q0 94 -41.5 140.5t-104.5 46.5q-72 0 -118 -49t-46 -153v-248z" />
    <glyph glyph-name="theta" unicode="&#x3b8;" horiz-adv-x="627" 
d="M315 710q116 0 191.5 -98t75.5 -260t-77 -262t-193 -100t-191.5 98t-75.5 260t77 262t193 100zM314 642q-79 0 -133 -69t-61 -189h387q-7 119 -60.5 188.5t-132.5 69.5zM314 58q80 0 134 72t59 195h-387q5 -123 59 -195t135 -72z" />
    <glyph glyph-name="iota" unicode="&#x3b9;" horiz-adv-x="330" 
d="M155 510h-75v-383q0 -67 36 -102t98 -35q30 0 54 5t33 11l9 5l-14 59q-27 -12 -68 -12q-33 0 -53 20t-20 60v372z" />
    <glyph glyph-name="kappa" unicode="&#x3ba;" horiz-adv-x="553" 
d="M80 0v510h75v-227l273 227h107l-292 -234l312 -276h-107l-293 263v-263h-75z" />
    <glyph glyph-name="lambda" unicode="&#x3bb;" horiz-adv-x="518" 
d="M5 0l216 507q-29 65 -61 98t-76 33q-16 0 -29.5 -4t-18.5 -8l-6 -3l-25 62q28 22 84 22q70 0 116.5 -47t87.5 -143l220 -517h-85l-172 423l-171 -423h-80z" />
    <glyph glyph-name="uni03BC" unicode="&#x3bc;" horiz-adv-x="715" 
d="M681 70l14 -59q-29 -21 -96 -21q-54 0 -89 26.5t-43 78.5q-27 -47 -75 -76t-110 -29q-80 0 -127 56v-206h-75v670h75v-264q0 -94 41.5 -140.5t104.5 -46.5q72 0 118 49.5t46 152.5v249h75v-372q0 -40 19.5 -60t52.5 -20q19 0 36 3t25 6z" />
    <glyph glyph-name="nu" unicode="&#x3bd;" horiz-adv-x="518" 
d="M222 0l-217 510h84l171 -416l172 416h81l-217 -510h-74z" />
    <glyph glyph-name="xi" unicode="&#x3be;" horiz-adv-x="512" 
d="M344 67q150 -14 150 -112q0 -29 -13 -59t-27 -46l-13 -16l-61 21q41 54 41 86q0 56 -89 62q-287 15 -287 199q0 58 40 101t110 64q-130 41 -130 154q0 84 72 136.5t186 52.5q49 0 91.5 -10t59.5 -20l18 -11l-31 -55l-17 8.5t-46.5 13.5t-72.5 7q-83 -2 -134 -35.5
t-51 -87.5q0 -55 51.5 -89t133.5 -34h65v-62h-78q-86 0 -139 -37t-53 -93q0 -67 58 -97.5t166 -40.5z" />
    <glyph glyph-name="omicron" unicode="&#x3bf;" horiz-adv-x="627" 
d="M45 253q0 112 78 189.5t192 77.5t190.5 -76t76.5 -188t-78 -189t-192 -77t-190.5 75.5t-76.5 187.5zM120 255q0 -83 56 -139.5t138 -56.5t137.5 56.5t55.5 139.5t-55.5 139t-137.5 56q-83 0 -138.5 -56t-55.5 -139z" />
    <glyph glyph-name="pi" unicode="&#x3c0;" horiz-adv-x="690" 
d="M20 510h640v-62h-155v-310q0 -40 20 -60t53 -20q18 0 35 3t25 6l8 3l14 -59q-29 -21 -96 -21q-62 0 -98 35t-36 102v321h-220v-448h-75v448h-115v62z" />
    <glyph glyph-name="rho" unicode="&#x3c1;" horiz-adv-x="653" 
d="M71 241q0 123 76.5 201t193.5 78q114 0 190.5 -76t76.5 -188q0 -111 -75 -188.5t-181 -77.5q-66 0 -119.5 30t-85.5 88v-268h-76v401zM147 255q0 -83 55.5 -139.5t137.5 -56.5t137.5 56.5t55.5 139.5t-55.5 139t-137.5 56t-137.5 -56t-55.5 -139z" />
    <glyph glyph-name="uni03C2" unicode="&#x3c2;" horiz-adv-x="546" 
d="M449 -166l-62 21q42 54 42 86q0 56 -90 62q-133 7 -213.5 71t-80.5 183q0 109 78.5 186t191.5 77q57 0 105.5 -21t68.5 -41l20 -21l-50 -49q-6 7 -17 17.5t-49 27.5t-81 17q-81 0 -136.5 -55t-55.5 -134q0 -171 231 -192q151 -14 151 -114q0 -29 -13 -59t-27 -46z" />
    <glyph glyph-name="sigma" unicode="&#x3c3;" horiz-adv-x="640" 
d="M612 510v-65h-135q49 -32 77 -82.5t28 -110.5q0 -110 -78 -186t-192 -76t-190.5 75t-76.5 187q0 109 78 183.5t192 74.5h297zM314 59q82 0 137.5 56t55.5 139q0 80 -55.5 134t-137.5 54q-83 0 -138.5 -54t-55.5 -134q0 -83 55.5 -139t138.5 -56z" />
    <glyph glyph-name="tau" unicode="&#x3c4;" horiz-adv-x="510" 
d="M368 -10q-79 0 -126 46.5t-47 131.5v277h-175v65h460v-65h-210v-266q0 -57 30.5 -88.5t79.5 -31.5q21 0 43.5 3.5t34.5 7.5l11 4l11 -63q-39 -21 -112 -21z" />
    <glyph glyph-name="upsilon" unicode="&#x3c5;" horiz-adv-x="603" 
d="M531 236v274h-75v-276q0 -79 -44 -127t-111 -48t-110.5 48t-43.5 127v276h-76v-277q0 -108 65 -175.5t164 -67.5t165 69t66 177z" />
    <glyph glyph-name="phi" unicode="&#x3c6;" horiz-adv-x="780" 
d="M735 256q0 -111 -85 -186.5t-223 -79.5v-150h-73v150q-139 2 -224 76.5t-85 186.5t85 187.5t224 79.5v180h73v-180q139 -3 223.5 -77.5t84.5 -186.5zM120 255q0 -84 64 -139.5t170 -57.5v393q-106 -2 -170 -57.5t-64 -138.5zM427 58q105 3 169 58.5t64 138.5
q0 82 -64 137.5t-169 58.5v-393z" />
    <glyph glyph-name="chi" unicode="&#x3c7;" horiz-adv-x="543" 
d="M5 -160l221 341l-211 329h93l165 -262l165 262h90l-211 -326l221 -344h-94l-174 277l-176 -277h-89z" />
    <glyph glyph-name="psi" unicode="&#x3c8;" horiz-adv-x="823" 
d="M676 510h75v-250q0 -122 -82.5 -194.5t-219.5 -75.5v-150h-75v150q-139 2 -221 72.5t-82 194.5v253h76v-251q0 -95 60.5 -147t166.5 -54v642h75v-642q105 2 166 54t61 147v251z" />
    <glyph glyph-name="omega" unicode="&#x3c9;" horiz-adv-x="915" 
d="M789 520q9 -12 22.5 -35t36 -94.5t22.5 -144.5q0 -117 -61.5 -186.5t-161.5 -69.5q-68 0 -117 33.5t-73 95.5q-24 -61 -73.5 -95t-117.5 -34q-100 0 -160.5 68.5t-60.5 184.5q0 74 20.5 143t40.5 102l20 32l67 -31q-3 -4 -8 -11.5t-17.5 -32t-22 -51t-17.5 -67t-8 -81.5
q0 -87 42 -137t109 -50q68 0 109 49.5t41 137.5v159h73v-159q0 -88 41 -137.5t109 -49.5q67 0 109 50t42 137q0 65 -18.5 126t-36.5 89l-18 28z" />
    <glyph glyph-name="iotadieresis" unicode="&#x3ca;" horiz-adv-x="330" 
d="M18 607q-21 0 -35 14.5t-14 34.5t14.5 34.5t34.5 14.5q21 0 35 -14t14 -34q0 -21 -14.5 -35.5t-34.5 -14.5zM218 607q-21 0 -35 14.5t-14 34.5t14.5 34.5t34.5 14.5q21 0 35 -14t14 -34q0 -21 -14.5 -35.5t-34.5 -14.5zM155 510h-75v-383q0 -67 36 -102t98 -35q30 0 54 5
t33 11l9 5l-14 59q-27 -12 -68 -12q-33 0 -53 20t-20 60v372z" />
    <glyph glyph-name="upsilondieresis" unicode="&#x3cb;" horiz-adv-x="603" 
d="M201 607q-21 0 -35 14.5t-14 34.5t14.5 34.5t34.5 14.5q21 0 35 -14t14 -34q0 -21 -14.5 -35.5t-34.5 -14.5zM401 607q-21 0 -35 14.5t-14 34.5t14.5 34.5t34.5 14.5q21 0 35 -14t14 -34q0 -21 -14.5 -35.5t-34.5 -14.5zM531 236v274h-75v-276q0 -79 -44 -127t-111 -48
t-110.5 48t-43.5 127v276h-76v-277q0 -108 65 -175.5t164 -67.5t165 69t66 177z" />
    <glyph glyph-name="omicrontonos" unicode="&#x3cc;" horiz-adv-x="627" 
d="M284 577l27 163h77l-46 -163h-58zM45 253q0 112 78 189.5t192 77.5t190.5 -76t76.5 -188t-78 -189t-192 -77t-190.5 75.5t-76.5 187.5zM120 255q0 -83 56 -139.5t138 -56.5t137.5 56.5t55.5 139.5t-55.5 139t-137.5 56q-83 0 -138.5 -56t-55.5 -139z" />
    <glyph glyph-name="upsilontonos" unicode="&#x3cd;" horiz-adv-x="603" 
d="M272 577l27 163h77l-46 -163h-58zM531 236v274h-75v-276q0 -79 -44 -127t-111 -48t-110.5 48t-43.5 127v276h-76v-277q0 -108 65 -175.5t164 -67.5t165 69t66 177z" />
    <glyph glyph-name="omegatonos" unicode="&#x3ce;" horiz-adv-x="915" 
d="M532 740l-46 -163h-58l27 163h77zM789 520q9 -12 22.5 -35t36 -94.5t22.5 -144.5q0 -117 -61.5 -186.5t-161.5 -69.5q-68 0 -117 33.5t-73 95.5q-24 -61 -73.5 -95t-117.5 -34q-100 0 -160.5 68.5t-60.5 184.5q0 74 20.5 143t40.5 102l20 32l67 -31q-3 -4 -8 -11.5
t-17.5 -32t-22 -51t-17.5 -67t-8 -81.5q0 -87 42 -137t109 -50q68 0 109 49.5t41 137.5v159h73v-159q0 -88 41 -137.5t109 -49.5q67 0 109 50t42 137q0 65 -18.5 126t-36.5 89l-18 28z" />
    <glyph glyph-name="uni0400" unicode="&#x400;" horiz-adv-x="650" 
d="M311 757l-99 163h82l78 -163h-61zM100 0v700h485v-68h-407v-235h357v-64h-357v-265h417v-68h-495z" />
    <glyph glyph-name="uni0401" unicode="&#x401;" horiz-adv-x="650" 
d="M242 787q-21 0 -35 14.5t-14 34.5t14.5 34.5t34.5 14.5q21 0 35 -14t14 -34q0 -21 -14.5 -35.5t-34.5 -14.5zM442 787q-21 0 -35 14.5t-14 34.5t14.5 34.5t34.5 14.5q21 0 35 -14t14 -34q0 -21 -14.5 -35.5t-34.5 -14.5zM100 0v700h485v-68h-407v-235h357v-64h-357v-265
h417v-68h-495z" />
    <glyph glyph-name="uni0402" unicode="&#x402;" horiz-adv-x="847" 
d="M520 433q129 0 205 -61t76 -160q0 -101 -78 -161.5t-213 -60.5v68q97 0 155 43t58 111q0 67 -58 109.5t-155 42.5q-110 0 -176 -41v-323h-78v632h-231v68h540v-68h-231v-241q70 42 186 42z" />
    <glyph glyph-name="uni0403" unicode="&#x403;" horiz-adv-x="590" 
d="M301 767l79 163h81l-98 -163h-62zM100 700h465v-69h-387v-631h-78v700z" />
    <glyph glyph-name="uni0404" unicode="&#x404;" horiz-adv-x="718" 
d="M417 62q38 0 74 9.5t60.5 23t43 27.5t27 23t8.5 10l53 -49q-4 -5 -11 -12.5t-32 -27.5t-54 -35.5t-75 -28t-95 -12.5q-153 0 -257 103t-104 255t105.5 257t258.5 105q49 0 94 -11.5t74.5 -28.5t52 -34t32.5 -28l11 -12l-57 -47q-3 4 -9 10t-26.5 21t-43 27t-58 21.5
t-72.5 9.5q-110 0 -188.5 -70t-92.5 -178h342v-63h-344q8 -114 88.5 -189.5t194.5 -75.5z" />
    <glyph glyph-name="uni0405" unicode="&#x405;" horiz-adv-x="568" 
d="M144 536q0 -46 36.5 -78.5t119.5 -59.5q213 -68 213 -213q0 -84 -63.5 -139.5t-169.5 -55.5q-46 0 -88.5 10t-70.5 23.5t-49 27.5t-30 24l-10 10l49 52q3 -3 9 -8.5t25.5 -19.5t42 -24.5t58 -19.5t72.5 -9q65 0 105 34.5t40 85.5q0 54 -41 91t-144 72q-183 62 -183 190
q0 77 61.5 129t161.5 52q64 0 118 -20t76 -40l23 -20l-49 -52q-2 3 -7 7.5t-21 15.5t-34 20t-46 16t-58 7q-69 0 -107.5 -33t-38.5 -75z" />
    <glyph glyph-name="uni0406" unicode="&#x406;" horiz-adv-x="290" 
d="M105 700h81v-700h-81v700z" />
    <glyph glyph-name="uni0407" unicode="&#x407;" horiz-adv-x="290" 
d="M45 787q-21 0 -35 14.5t-14 34.5t14.5 34.5t34.5 14.5q21 0 35 -14t14 -34q0 -21 -14.5 -35.5t-34.5 -14.5zM245 787q-21 0 -35 14.5t-14 34.5t14.5 34.5t34.5 14.5q21 0 35 -14t14 -34q0 -21 -14.5 -35.5t-34.5 -14.5zM105 700h81v-700h-81v700z" />
    <glyph glyph-name="uni0408" unicode="&#x408;" horiz-adv-x="461" 
d="M136 -10q-37 0 -66.5 6.5t-41.5 13.5l-11 6l24 67q30 -20 92 -20q69 0 114 47t45 130v460h80v-462q0 -114 -67.5 -181t-168.5 -67z" />
    <glyph glyph-name="uni0409" unicode="&#x409;" horiz-adv-x="1194" 
d="M25 -6l7 65q8 -1 16 -1q103 0 117 127l50 515h485v-257h202q108 0 176.5 -62t68.5 -158t-67.5 -159.5t-174.5 -63.5h-283v631h-334l-46 -445q-9 -94 -57 -145t-131 -51zM700 67h196q78 0 125.5 44t47.5 111q0 68 -47.5 111.5t-125.5 43.5h-196v-310z" />
    <glyph glyph-name="uni040A" unicode="&#x40a;" horiz-adv-x="1164" 
d="M100 0v700h78v-296h414v296h78v-257h202q108 0 176.5 -62t68.5 -158t-67.5 -159.5t-174.5 -63.5h-283v335h-414v-335h-78zM670 67h196q78 0 125.5 44t47.5 111q0 68 -47.5 111.5t-125.5 43.5h-196v-310z" />
    <glyph glyph-name="uni040B" unicode="&#x40b;" horiz-adv-x="847" 
d="M520 433q129 0 205 -75.5t76 -201.5v-156h-78v151q0 96 -57.5 153.5t-155.5 57.5q-106 0 -176 -41v-321h-78v632h-231v68h540v-68h-231v-241q70 42 186 42z" />
    <glyph glyph-name="uni040C" unicode="&#x40c;" horiz-adv-x="669" 
d="M302 757l79 163h81l-98 -163h-62zM100 0v700h78v-328l364 328h110l-384 -336l404 -364h-110l-384 348v-348h-78z" />
    <glyph glyph-name="uni040D" unicode="&#x40d;" horiz-adv-x="790" 
d="M364 757l-99 163h82l78 -163h-61zM612 586l-435 -586h-77v700h78v-578l429 578h83v-700h-78v586z" />
    <glyph glyph-name="uni040E" unicode="&#x40e;" horiz-adv-x="685" 
d="M345 767q-70 0 -115.5 45t-45.5 113v5h59v-8q0 -46 28.5 -74.5t74.5 -28.5t73.5 28.5t27.5 74.5v8h59v-5q0 -68 -45.5 -113t-115.5 -45zM594 700h84l-295 -543q-90 -167 -218 -167q-31 0 -57.5 6.5t-37.5 13.5l-12 6l24 64q33 -19 83 -19q77 0 138 95l-296 544h89
l250 -471z" />
    <glyph glyph-name="uni040F" unicode="&#x40f;" horiz-adv-x="770" 
d="M100 0v700h78v-631h414v631h78v-700h-247v-120h-76v120h-247z" />
    <glyph glyph-name="uni0410" unicode="&#x410;" horiz-adv-x="695" 
d="M7 0l302 700h78l301 -700h-86l-85 202h-342l-86 -202h-82zM198 265h294l-146 347z" />
    <glyph glyph-name="uni0411" unicode="&#x411;" horiz-adv-x="671" 
d="M100 0v700h465v-67h-387v-210h202q108 0 176.5 -60t68.5 -153t-67 -151.5t-175 -58.5h-283zM178 67h200q76 0 122.5 41.5t46.5 104.5t-46.5 104t-122.5 41h-200v-291z" />
    <glyph glyph-name="uni0412" unicode="&#x412;" horiz-adv-x="690" 
d="M100 0v700h285q93 0 149.5 -49t56.5 -124q0 -53 -29 -95t-80 -63q65 -17 104 -65.5t39 -112.5q0 -81 -62.5 -136t-161.5 -55h-301zM178 394h195q62 0 101 35t39 86q0 52 -39 87t-101 35h-195v-243zM178 63h214q69 0 112 39t43 97t-43 97.5t-112 39.5h-214v-273z" />
    <glyph glyph-name="uni0413" unicode="&#x413;" horiz-adv-x="590" 
d="M100 700h465v-69h-387v-631h-78v700z" />
    <glyph glyph-name="uni0414" unicode="&#x414;" horiz-adv-x="825" 
d="M708 69h92v-189h-75v120h-625v-120h-75v189h30q105 0 117 127l50 504h486v-631zM249 194q-9 -85 -52 -125h433v562h-335z" />
    <glyph glyph-name="uni0415" unicode="&#x415;" horiz-adv-x="650" 
d="M100 0v700h485v-68h-407v-235h357v-64h-357v-265h417v-68h-495z" />
    <glyph glyph-name="uni0416" unicode="&#x416;" horiz-adv-x="1055" 
d="M-3 0l404 363l-384 337h108l364 -328v328h78v-328l364 328h107l-384 -337l404 -363h-107l-384 348v-348h-78v348l-384 -348h-108z" />
    <glyph glyph-name="uni0417" unicode="&#x417;" horiz-adv-x="632" 
d="M285 -10q-48 0 -91.5 9.5t-71.5 23t-49.5 27.5t-30.5 24l-10 9l45 51q3 -3 9 -8t26 -18t42 -23t57.5 -18t72.5 -8q94 0 150 38.5t56 97.5t-58.5 99t-151.5 40h-75v62h77q85 0 136.5 35t51.5 89t-49 87.5t-136 33.5q-52 0 -98 -17t-66 -34l-20 -17l-44 50q3 4 9.5 9.5
t28 20.5t46.5 26.5t65 21t83 9.5q117 0 188 -51t71 -131q0 -59 -39 -100t-107 -61q77 -21 121.5 -66.5t44.5 -110.5q0 -88 -78.5 -144t-204.5 -56z" />
    <glyph glyph-name="uni0418" unicode="&#x418;" horiz-adv-x="790" 
d="M612 586l-435 -586h-77v700h78v-578l429 578h83v-700h-78v586z" />
    <glyph glyph-name="uni0419" unicode="&#x419;" horiz-adv-x="790" 
d="M395 757q-70 0 -115.5 45t-45.5 113v5h59v-8q0 -46 28.5 -74.5t74.5 -28.5t73.5 28.5t27.5 74.5v8h59v-5q0 -68 -45.5 -113t-115.5 -45zM612 586l-435 -586h-77v700h78v-578l429 578h83v-700h-78v586z" />
    <glyph glyph-name="uni041A" unicode="&#x41a;" horiz-adv-x="669" 
d="M100 0v700h78v-328l364 328h110l-384 -336l404 -364h-110l-384 348v-348h-78z" />
    <glyph glyph-name="uni041B" unicode="&#x41b;" horiz-adv-x="800" 
d="M54 -10l-29 4l7 65q8 -1 16 -1q103 0 117 127l50 515h485v-700h-78v631h-334l-46 -445q-9 -94 -57 -145t-131 -51z" />
    <glyph glyph-name="uni041C" unicode="&#x41c;" horiz-adv-x="890" 
d="M176 562v-562h-76v700h81l266 -485l266 485h77v-700h-76v562l-248 -447h-42z" />
    <glyph glyph-name="uni041D" unicode="&#x41d;" horiz-adv-x="770" 
d="M100 0v700h78v-296h414v296h78v-700h-78v335h-414v-335h-78z" />
    <glyph glyph-name="uni041E" unicode="&#x41e;" horiz-adv-x="835" 
d="M55 348q0 152 105.5 257t258.5 105t257 -103t104 -255t-105.5 -257t-258.5 -105t-257 103t-104 255zM133 350q0 -122 81.5 -205t202.5 -83t203 83t82 205t-82 205t-203 83t-202.5 -83t-81.5 -205z" />
    <glyph glyph-name="uni041F" unicode="&#x41f;" horiz-adv-x="770" 
d="M100 0v700h570v-700h-78v631h-414v-631h-78z" />
    <glyph glyph-name="uni0420" unicode="&#x420;" horiz-adv-x="671" 
d="M100 0v700h283q108 0 175 -62t67 -158t-68.5 -159.5t-176.5 -63.5h-202v-257h-78zM178 323h196q77 0 125 44t48 111t-48 111t-125 44h-196v-310z" />
    <glyph glyph-name="uni0421" unicode="&#x421;" horiz-adv-x="718" 
d="M416 -10q-153 0 -257 103t-104 255t105.5 257t258.5 105q47 0 91 -11t72.5 -26.5t51 -31t32.5 -26.5l10 -11l-54 -49l-9 9t-25.5 20t-41.5 25t-57 20t-72 9q-121 0 -202.5 -83t-81.5 -205t81.5 -205t202.5 -83q38 0 74.5 9.5t60.5 22.5t42.5 27t27.5 23t9 10l52 -48
q-4 -5 -11 -12.5t-32 -27.5t-54 -35.5t-75 -28t-95 -12.5z" />
    <glyph glyph-name="uni0422" unicode="&#x422;" horiz-adv-x="590" 
d="M334 632v-632h-78v632h-231v68h540v-68h-231z" />
    <glyph glyph-name="uni0423" unicode="&#x423;" horiz-adv-x="685" 
d="M594 700h84l-295 -543q-90 -167 -218 -167q-31 0 -57.5 6.5t-37.5 13.5l-12 6l24 64q33 -19 83 -19q77 0 138 95l-296 544h89l250 -471z" />
    <glyph glyph-name="uni0424" unicode="&#x424;" horiz-adv-x="940" 
d="M885 352q0 -141 -106.5 -236t-270.5 -99v-67h-76v67q-166 2 -271.5 96t-105.5 235t106.5 236t270.5 99v67h76v-67q165 -2 271 -96t106 -235zM133 350q0 -113 83.5 -186.5t215.5 -76.5v526q-132 -3 -215.5 -76.5t-83.5 -186.5zM508 87q132 3 215.5 76.5t83.5 186.5
t-83.5 186.5t-215.5 76.5v-526z" />
    <glyph glyph-name="uni0425" unicode="&#x425;" horiz-adv-x="670" 
d="M7 0l281 358l-267 342h97l218 -284l221 284h92l-268 -341l282 -359h-97l-234 302l-232 -302h-93z" />
    <glyph glyph-name="uni0426" unicode="&#x426;" horiz-adv-x="788" 
d="M670 69h93v-189h-76v120h-587v700h78v-631h414v631h78v-631z" />
    <glyph glyph-name="uni0427" unicode="&#x427;" horiz-adv-x="691" 
d="M513 700h78v-700h-78v282q-70 -42 -185 -42q-130 0 -206 75t-76 201v184h79v-179q0 -95 57.5 -153t155.5 -58q109 0 175 41v349z" />
    <glyph glyph-name="uni0428" unicode="&#x428;" horiz-adv-x="1170" 
d="M100 0v700h78v-631h368v631h78v-631h368v631h78v-700h-970z" />
    <glyph glyph-name="uni0429" unicode="&#x429;" horiz-adv-x="1188" 
d="M1070 69h93v-189h-76v120h-987v700h78v-631h368v631h78v-631h368v631h78v-631z" />
    <glyph glyph-name="uni042A" unicode="&#x42a;" horiz-adv-x="751" 
d="M25 633v67h233v-257h204q107 0 175 -63t68 -158q0 -96 -68 -159t-176 -63h-281v633h-155zM258 67h196q77 0 125 44t48 111t-48 111t-125 44h-196v-310z" />
    <glyph glyph-name="uni042B" unicode="&#x42b;" horiz-adv-x="962" 
d="M100 0v700h78v-257h202q108 0 176.5 -62t68.5 -158t-67.5 -159.5t-174.5 -63.5h-283zM776 700h81v-700h-81v700zM178 67h196q77 0 125 44t48 111t-48 111t-125 44h-196v-310z" />
    <glyph glyph-name="uni042C" unicode="&#x42c;" horiz-adv-x="671" 
d="M100 0v700h78v-257h202q108 0 176.5 -62t68.5 -158t-67.5 -159.5t-174.5 -63.5h-283zM178 67h196q77 0 125 44t48 111t-48 111t-125 44h-196v-310z" />
    <glyph glyph-name="uni042D" unicode="&#x42d;" horiz-adv-x="717" 
d="M301 710q153 0 257 -103t104 -255t-105.5 -257t-258.5 -105q-49 0 -94 11.5t-74.5 28.5t-52 34t-32.5 28l-10 12l55 47q3 -4 9 -10t26.5 -21t43 -27t58 -21.5t72.5 -9.5q115 0 195.5 76t88.5 190h-344v63h342q-14 107 -93 177t-189 70q-38 0 -74 -9.5t-60 -23t-43 -27.5
t-27.5 -23t-8.5 -10l-51 48q4 5 11 13t32 28t53.5 35.5t74.5 28t95 12.5z" />
    <glyph glyph-name="uni042E" unicode="&#x42e;" horiz-adv-x="1120" 
d="M704 710q154 0 257.5 -103t103.5 -255t-105.5 -257t-258.5 -105q-144 0 -246 93t-114 233h-160v-316h-81v700h81v-315h161q14 139 116.5 232t245.5 93zM703 62q121 0 202.5 83t81.5 205t-81.5 205t-202.5 83t-203 -83t-82 -205t82 -205t203 -83z" />
    <glyph glyph-name="uni042F" unicode="&#x42f;" horiz-adv-x="693" 
d="M593 700v-700h-78v274h-189l-197 -274h-92l205 282q-79 17 -127 72t-48 132q0 94 66 154t171 60h289zM515 633h-204q-75 0 -120.5 -41.5t-45.5 -106.5t45.5 -107t120.5 -42h204v297z" />
    <glyph glyph-name="uni0430" unicode="&#x430;" horiz-adv-x="564" 
d="M52 146q0 67 55.5 113.5t147.5 46.5q105 0 162 -57v42q0 81 -41 122t-111 41q-42 0 -78.5 -13t-52.5 -25l-15 -13l-37 52q7 7 21.5 18t64.5 29t106 18q104 0 161.5 -59.5t57.5 -168.5v-292h-58l-9 55q-58 -65 -173 -65q-92 0 -146.5 44.5t-54.5 111.5zM128 149
q0 -44 38.5 -74t104.5 -30q72 0 111.5 30t39.5 74t-39.5 74t-111.5 30q-66 0 -104.5 -30t-38.5 -74z" />
    <glyph glyph-name="uni0431" unicode="&#x431;" horiz-adv-x="627" 
d="M329 476q110 0 181.5 -68t71.5 -172t-77.5 -175t-189.5 -71q-119 0 -194.5 76.5t-75.5 200.5q0 193 91 302t272 126q23 2 43 5.5t29 6.5l9 3l18 -63q-27 -16 -100 -23q-253 -25 -295 -270q29 57 86.5 89.5t130.5 32.5zM314 57q82 0 137.5 51t55.5 127q0 77 -54 127.5
t-136 50.5q-83 0 -140 -49t-57 -125q0 -77 56 -129.5t138 -52.5z" />
    <glyph glyph-name="uni0432" unicode="&#x432;" horiz-adv-x="578" 
d="M80 0v510h277q68 0 110 -36t42 -90q0 -38 -22 -69t-59 -47q48 -13 76.5 -47.5t28.5 -81.5q0 -59 -46 -99t-118 -40h-289zM155 292h184q42 0 68 22t26 58t-26 58.5t-68 22.5h-184v-161zM155 57h198q47 0 76 25.5t29 65.5t-29 65.5t-76 25.5h-198v-182z" />
    <glyph glyph-name="uni0433" unicode="&#x433;" horiz-adv-x="450" 
d="M80 0v510h345v-67h-270v-443h-75z" />
    <glyph glyph-name="uni0434" unicode="&#x434;" horiz-adv-x="709" 
d="M602 67h82v-187h-73v120h-513v-120h-73v187h48q75 0 85 90l45 353h399v-443zM233 148q-6 -50 -34 -81h327v376h-255z" />
    <glyph glyph-name="uni0435" unicode="&#x435;" horiz-adv-x="604" 
d="M312 -10q-114 0 -190.5 75.5t-76.5 187.5t77.5 189.5t191.5 77.5q102 0 174.5 -73.5t72.5 -177.5l-2 -19h-438q2 -86 57.5 -139.5t137.5 -53.5q54 0 98 23.5t61 46.5l17 23l48 -39q-3 -5 -8.5 -13t-25.5 -29t-44 -37t-64.5 -29t-85.5 -13zM123 303h363q-10 66 -59.5 111
t-114.5 45q-71 0 -123.5 -44t-65.5 -112z" />
    <glyph glyph-name="uni0436" unicode="&#x436;" horiz-adv-x="865" 
d="M-3 0l313 276l-293 234h105l273 -227v227h75v-227l273 227h105l-293 -234l313 -276h-105l-293 263v-263h-75v263l-293 -263h-105z" />
    <glyph glyph-name="uni0437" unicode="&#x437;" horiz-adv-x="525" 
d="M240 -10q-58 0 -110 15t-75 29l-23 15l32 51q8 -5 23 -13t61 -21.5t91 -13.5q82 0 124 25t42 66q0 43 -44.5 69.5t-124.5 26.5h-58v55h60q74 0 113 22.5t39 60.5q0 80 -150 80q-41 0 -80.5 -10.5t-58.5 -20.5l-19 -11l-32 50q8 6 24 15t66 24.5t102 15.5q109 0 166 -38
t57 -97q0 -43 -30.5 -73t-80.5 -45q56 -14 91 -47.5t35 -81.5q0 -64 -62.5 -106t-177.5 -42z" />
    <glyph glyph-name="uni0438" unicode="&#x438;" horiz-adv-x="640" 
d="M485 409l-331 -409h-74v510h75v-402l325 402h80v-510h-75v409z" />
    <glyph glyph-name="uni0439" unicode="&#x439;" horiz-adv-x="640" 
d="M320 577q-70 0 -115.5 45t-45.5 113v5h59v-8q0 -46 28.5 -74.5t74.5 -28.5t73.5 28.5t27.5 74.5v8h59v-5q0 -68 -45.5 -113t-115.5 -45zM485 409l-331 -409h-74v510h75v-402l325 402h80v-510h-75v409z" />
    <glyph glyph-name="uni043A" unicode="&#x43a;" horiz-adv-x="553" 
d="M80 0v510h75v-227l273 227h107l-292 -234l312 -276h-107l-293 263v-263h-75z" />
    <glyph glyph-name="uni043B" unicode="&#x43b;" horiz-adv-x="650" 
d="M49 -10l-24 3l6 64q6 -2 11 -2q73 0 85 90l44 365h399v-510h-75v443h-255l-39 -304q-8 -72 -48 -110.5t-104 -38.5z" />
    <glyph glyph-name="uni043C" unicode="&#x43c;" horiz-adv-x="720" 
d="M153 390v-390h-73v510h77l205 -336l204 336h74v-510h-73v390l-189 -306h-36z" />
    <glyph glyph-name="uni043D" unicode="&#x43d;" horiz-adv-x="620" 
d="M80 0v510h75v-208h310v208h75v-510h-75v236h-310v-236h-75z" />
    <glyph glyph-name="uni043E" unicode="&#x43e;" horiz-adv-x="627" 
d="M45 253q0 112 78 189.5t192 77.5t190.5 -76t76.5 -188t-78 -189t-192 -77t-190.5 75.5t-76.5 187.5zM120 255q0 -83 56 -139.5t138 -56.5t137.5 56.5t55.5 139.5t-55.5 139t-137.5 56q-83 0 -138.5 -56t-55.5 -139z" />
    <glyph glyph-name="uni043F" unicode="&#x43f;" horiz-adv-x="620" 
d="M80 0v510h460v-510h-75v443h-310v-443h-75z" />
    <glyph glyph-name="uni0440" unicode="&#x440;" horiz-adv-x="656" 
d="M80 510h63l8 -105q33 53 87.5 84t119.5 31q105 0 179 -76.5t74 -187.5t-75 -188.5t-181 -77.5q-64 0 -116 28t-84 78v-256h-75v670zM150 255q0 -83 55.5 -139.5t137.5 -56.5t137.5 56.5t55.5 139.5t-55.5 139t-137.5 56t-137.5 -56t-55.5 -139z" />
    <glyph glyph-name="uni0441" unicode="&#x441;" horiz-adv-x="546" 
d="M312 -10q-114 0 -190.5 75.5t-76.5 187.5t78 189.5t192 77.5q57 0 105.5 -21t68.5 -41l20 -21l-50 -49q-6 7 -17 17.5t-48.5 27.5t-79.5 17q-83 0 -138.5 -56t-55.5 -139t56 -139.5t138 -56.5q44 0 81.5 17t52.5 34l15 17l51 -46q-3 -4 -8 -10t-24 -21.5t-40.5 -27.5
t-56.5 -22t-73 -10z" />
    <glyph glyph-name="uni0442" unicode="&#x442;" horiz-adv-x="480" 
d="M278 444v-444h-76v444h-177v66h430v-66h-177z" />
    <glyph glyph-name="uni0443" unicode="&#x443;" horiz-adv-x="518" 
d="M5 510h84l171 -424l172 424h81l-219 -515q-70 -165 -196 -165q-28 0 -51 5.5t-33 10.5l-9 6l25 59q21 -14 63 -14q80 0 128 106z" />
    <glyph glyph-name="uni0444" unicode="&#x444;" horiz-adv-x="780" 
d="M735 256q0 -111 -85 -186.5t-223 -79.5v-150h-73v150q-139 2 -224 76.5t-85 186.5t85 187.5t224 79.5v180h73v-180q139 -3 223.5 -77.5t84.5 -186.5zM120 255q0 -84 64 -139.5t170 -57.5v393q-106 -2 -170 -57.5t-64 -138.5zM427 58q105 3 169 58.5t64 138.5
q0 82 -64 137.5t-169 58.5v-393z" />
    <glyph glyph-name="uni0445" unicode="&#x445;" horiz-adv-x="543" 
d="M318 262l220 -262h-94l-174 209l-176 -209h-89l219 259l-209 251h93l165 -199l165 199h90z" />
    <glyph glyph-name="uni0446" unicode="&#x446;" horiz-adv-x="648" 
d="M540 67h83v-187h-73v120h-470v510h75v-443h310v443h75v-443z" />
    <glyph glyph-name="uni0447" unicode="&#x447;" horiz-adv-x="556" 
d="M400 510h76v-510h-76v186q-58 -30 -141 -30q-101 0 -161.5 58t-60.5 153v143h76v-135q0 -69 42 -110t116 -41q76 0 129 29v257z" />
    <glyph glyph-name="uni0448" unicode="&#x448;" horiz-adv-x="930" 
d="M80 0v510h75v-443h272v443h76v-443h272v443h75v-510h-770z" />
    <glyph glyph-name="uni0449" unicode="&#x449;" horiz-adv-x="958" 
d="M850 67h83v-187h-73v120h-780v510h75v-443h272v443h76v-443h272v443h75v-443z" />
    <glyph glyph-name="uni044A" unicode="&#x44a;" horiz-adv-x="620" 
d="M25 445v65h210v-172h157q83 0 136.5 -48t53.5 -121t-52 -121t-135 -48h-235v445h-135zM235 60h149q55 0 89 31t34 79t-34 78.5t-89 30.5h-149v-219z" />
    <glyph glyph-name="uni044B" unicode="&#x44b;" horiz-adv-x="787" 
d="M80 0v510h75v-172h157q84 0 137 -47.5t53 -119.5q0 -74 -52 -122.5t-135 -48.5h-235zM625 510h77v-510h-77v510zM155 60h149q55 0 89 31t34 79t-34 78.5t-89 30.5h-149v-219z" />
    <glyph glyph-name="uni044C" unicode="&#x44c;" horiz-adv-x="540" 
d="M80 0v510h75v-172h157q84 0 137 -47.5t53 -119.5q0 -74 -52 -122.5t-135 -48.5h-235zM155 60h149q55 0 89 31t34 79t-34 78.5t-89 30.5h-149v-219z" />
    <glyph glyph-name="uni044D" unicode="&#x44d;" horiz-adv-x="545" 
d="M233 520q114 0 191 -76t77 -188t-78.5 -189t-192.5 -77q-57 0 -105 21t-68 42l-20 21l48 47q6 -7 17 -17.5t49.5 -28t80.5 -17.5q76 0 130 49t62 125h-243v55h242q-11 72 -64.5 118.5t-126.5 46.5q-29 0 -55 -7t-42.5 -17t-29.5 -20.5t-19 -17.5l-5 -7l-49 45q3 4 8 10
t24 22t40 28t56 22t73 10z" />
    <glyph glyph-name="uni044E" unicode="&#x44e;" horiz-adv-x="869" 
d="M557 520q114 0 190.5 -76t76.5 -188t-78 -189t-192 -77q-107 0 -181.5 67t-84.5 170h-131v-227h-77v510h77v-217h133q14 98 89 162.5t178 64.5zM556 59q82 0 137.5 56.5t55.5 139.5t-55.5 139t-137.5 56t-137.5 -56t-55.5 -139t55.5 -139.5t137.5 -56.5z" />
    <glyph glyph-name="uni044F" unicode="&#x44f;" horiz-adv-x="553" 
d="M238 510h240v-510h-75v187h-146l-143 -187h-88l150 196q-55 15 -87.5 55.5t-32.5 95.5q0 72 50.5 117.5t131.5 45.5zM403 244v205h-153q-54 0 -86 -28t-32 -74t33 -74.5t85 -28.5h153z" />
    <glyph glyph-name="uni0450" unicode="&#x450;" horiz-adv-x="604" 
d="M283 577l-99 163h82l78 -163h-61zM312 -10q-114 0 -190.5 75.5t-76.5 187.5t77.5 189.5t191.5 77.5q102 0 174.5 -73.5t72.5 -177.5l-2 -19h-438q2 -86 57.5 -139.5t137.5 -53.5q54 0 98 23.5t61 46.5l17 23l48 -39q-3 -5 -8.5 -13t-25.5 -29t-44 -37t-64.5 -29
t-85.5 -13zM123 303h363q-10 66 -59.5 111t-114.5 45q-71 0 -123.5 -44t-65.5 -112z" />
    <glyph glyph-name="uni0451" unicode="&#x451;" horiz-adv-x="604" 
d="M214 607q-21 0 -35 14.5t-14 34.5t14.5 34.5t34.5 14.5q21 0 35 -14t14 -34q0 -21 -14.5 -35.5t-34.5 -14.5zM414 607q-21 0 -35 14.5t-14 34.5t14.5 34.5t34.5 14.5q21 0 35 -14t14 -34q0 -21 -14.5 -35.5t-34.5 -14.5zM312 -10q-114 0 -190.5 75.5t-76.5 187.5
t77.5 189.5t191.5 77.5q102 0 174.5 -73.5t72.5 -177.5l-2 -19h-438q2 -86 57.5 -139.5t137.5 -53.5q54 0 98 23.5t61 46.5l17 23l48 -39q-3 -5 -8.5 -13t-25.5 -29t-44 -37t-64.5 -29t-85.5 -13zM123 303h363q-10 66 -59.5 111t-114.5 45q-71 0 -123.5 -44t-65.5 -112z" />
    <glyph glyph-name="uni0452" unicode="&#x452;" horiz-adv-x="629" 
d="M358 520q86 0 143 -60t57 -172v-271q0 -94 -44 -140.5t-120 -46.5l-63 6l7 64q25 -3 50 -3q47 0 70.5 26t23.5 85v255q0 94 -41 140.5t-104 46.5q-71 0 -117.5 -47t-46.5 -144v-259h-76v583h-77v50h77v67h76v-67h166v-50h-166v-169q57 106 185 106z" />
    <glyph glyph-name="uni0453" unicode="&#x453;" horiz-adv-x="450" 
d="M221 577l79 163h81l-98 -163h-62zM80 0v510h345v-67h-270v-443h-75z" />
    <glyph glyph-name="uni0454" unicode="&#x454;" horiz-adv-x="546" 
d="M465 126l49 -45q-3 -4 -8 -10t-24 -21.5t-40.5 -27.5t-56.5 -22t-73 -10q-114 0 -190.5 75.5t-76.5 187.5t78 189.5t192 77.5q57 0 105.5 -21t68.5 -41l20 -21l-48 -48q-6 7 -17 17.5t-49.5 28t-80.5 17.5q-74 0 -127.5 -46.5t-64.5 -118.5h243v-55h-244q8 -76 62.5 -125
t130.5 -49q45 0 83 17t53 34z" />
    <glyph glyph-name="uni0455" unicode="&#x455;" horiz-adv-x="450" 
d="M125 389q0 -31 25.5 -54.5t92.5 -40.5q162 -44 162 -153q0 -64 -50 -107.5t-137 -43.5q-53 0 -100 16.5t-68 32.5l-21 16l35 52q7 -6 20.5 -15.5t54 -25t80.5 -15.5q52 0 81.5 23t29.5 57q0 35 -27.5 61t-105.5 46q-70 19 -108.5 56t-38.5 87q0 58 46.5 98.5t129.5 40.5
q46 0 88 -14t61 -28l19 -14l-35 -53q-6 5 -16.5 13t-44.5 21.5t-69 13.5q-50 0 -77 -21t-27 -49z" />
    <glyph glyph-name="uni0456" unicode="&#x456;" horiz-adv-x="247" 
d="M70 656q0 22 15.5 37t38.5 15t38.5 -15t15.5 -37t-15.5 -36.5t-38.5 -14.5t-38.5 14.5t-15.5 36.5zM85 510h77v-510h-77v510z" />
    <glyph glyph-name="uni0457" unicode="&#x457;" horiz-adv-x="247" 
d="M24 607q-21 0 -35 14.5t-14 34.5t14.5 34.5t34.5 14.5q21 0 35 -14t14 -34q0 -21 -14.5 -35.5t-34.5 -14.5zM224 607q-21 0 -35 14.5t-14 34.5t14.5 34.5t34.5 14.5q21 0 35 -14t14 -34q0 -21 -14.5 -35.5t-34.5 -14.5zM85 510h77v-510h-77v510z" />
    <glyph glyph-name="uni0458" unicode="&#x458;" horiz-adv-x="247" 
d="M70 656q0 22 15.5 37t38.5 15t38.5 -15t15.5 -37t-15.5 -36.5t-38.5 -14.5t-38.5 14.5t-15.5 36.5zM162 510v-508q0 -84 -42.5 -128t-114.5 -44q-17 0 -34 3.5t-26 6.5l-9 4l14 61q23 -8 49 -8q86 0 86 96v517h77z" />
    <glyph glyph-name="uni0459" unicode="&#x459;" horiz-adv-x="954" 
d="M25 -7l6 64q6 -2 11 -2q73 0 85 90l44 365h399v-172h157q84 0 137 -47.5t53 -119.5q0 -74 -52.5 -122.5t-134.5 -48.5h-235v443h-255l-39 -304q-8 -72 -48 -110.5t-104 -38.5zM570 60h148q55 0 89 31t34 79t-33.5 78.5t-89.5 30.5h-148v-219z" />
    <glyph glyph-name="uni045A" unicode="&#x45a;" horiz-adv-x="924" 
d="M80 0v510h75v-208h310v208h75v-172h157q84 0 137 -47.5t53 -119.5q0 -74 -52.5 -122.5t-134.5 -48.5h-235v236h-310v-236h-75zM540 60h148q55 0 89 31t34 79t-33.5 78.5t-89.5 30.5h-148v-219z" />
    <glyph glyph-name="uni045B" unicode="&#x45b;" horiz-adv-x="629" 
d="M358 520q86 0 143 -60t57 -172v-288h-76v263q0 94 -41 140.5t-104 46.5q-71 0 -117.5 -47t-46.5 -144v-259h-76v583h-77v50h77v67h76v-67h166v-50h-166v-169q57 106 185 106z" />
    <glyph glyph-name="uni045C" unicode="&#x45c;" horiz-adv-x="553" 
d="M244 577l79 163h81l-98 -163h-62zM80 0v510h75v-227l273 227h107l-292 -234l312 -276h-107l-293 263v-263h-75z" />
    <glyph glyph-name="uni045D" unicode="&#x45d;" horiz-adv-x="640" 
d="M289 577l-99 163h82l78 -163h-61zM485 409l-331 -409h-74v510h75v-402l325 402h80v-510h-75v409z" />
    <glyph glyph-name="uni045E" unicode="&#x45e;" horiz-adv-x="518" 
d="M261 577q-70 0 -115.5 45t-45.5 113v5h59v-8q0 -46 28.5 -74.5t74.5 -28.5t73.5 28.5t27.5 74.5v8h59v-5q0 -68 -45.5 -113t-115.5 -45zM5 510h84l171 -424l172 424h81l-219 -515q-70 -165 -196 -165q-28 0 -51 5.5t-33 10.5l-9 6l25 59q21 -14 63 -14q80 0 128 106z" />
    <glyph glyph-name="uni045F" unicode="&#x45f;" horiz-adv-x="620" 
d="M80 0v510h75v-443h310v443h75v-510h-194v-120h-72v120h-194z" />
    <glyph glyph-name="uni0462" unicode="&#x462;" horiz-adv-x="704" 
d="M423 420q104 0 169.5 -58t65.5 -150t-64.5 -152t-167.5 -60h-294v532h-102v50h102v118h78v-118h180v-50h-180v-112h213zM415 65q74 0 119.5 41t45.5 105t-45.5 104.5t-119.5 40.5h-205v-291h205z" />
    <glyph glyph-name="uni0463" unicode="&#x463;" horiz-adv-x="557" 
d="M331 336q83 0 136 -47.5t53 -119.5q0 -73 -52 -121t-134 -48h-237v460h-77v50h77v190h76v-190h166v-50h-166v-124h158zM323 60q54 0 87.5 31t33.5 78t-33.5 77.5t-87.5 30.5h-150v-217h150z" />
    <glyph glyph-name="uni0472" unicode="&#x472;" horiz-adv-x="835" 
d="M419 710q153 0 257 -103t104 -255t-105.5 -257t-258.5 -105t-257 103t-104 255t105.5 257t258.5 105zM417 639q-113 0 -192.5 -73t-90.5 -186q61 43 149 43q53 0 98.5 -19.5t86.5 -39t84 -19.5q81 0 147 48q-14 108 -93 177t-189 69zM417 61q116 0 196.5 76.5t87.5 192.5
q-59 -44 -150 -44q-53 0 -98 19.5t-86 39t-84 19.5q-83 0 -148 -47q11 -111 90.5 -183.5t191.5 -72.5z" />
    <glyph glyph-name="uni0473" unicode="&#x473;" horiz-adv-x="627" 
d="M315 520q114 0 190.5 -76t76.5 -188t-78 -189t-192 -77t-190.5 75.5t-76.5 187.5t78 189.5t192 77.5zM314 456q-78 0 -132 -49t-62 -128q41 31 101 31q46 0 98.5 -26.5t87.5 -26.5q57 0 99 32q-11 74 -64 120.5t-128 46.5zM314 53q79 0 132.5 51t60.5 131
q-39 -29 -99 -29q-46 0 -98 26.5t-87 26.5q-60 0 -102 -34q10 -77 63.5 -124.5t129.5 -47.5z" />
    <glyph glyph-name="uni0474" unicode="&#x474;" horiz-adv-x="735" 
d="M304 0l-297 700h87l251 -603l199 472q30 77 69.5 109t104.5 32l-1 -70q-35 0 -57 -18.5t-42 -67.5l-236 -554h-78z" />
    <glyph glyph-name="uni0475" unicode="&#x475;" horiz-adv-x="567" 
d="M459 382l-163 -382h-74l-217 510h84l171 -416l129 304q26 67 60.5 94.5t92.5 27.5v-65q-29 0 -46.5 -15t-36.5 -58z" />
    <glyph glyph-name="uni0490" unicode="&#x490;" horiz-adv-x="590" 
d="M100 0v700h390v120h75v-189h-387v-631h-78z" />
    <glyph glyph-name="uni0491" unicode="&#x491;" horiz-adv-x="450" 
d="M80 0v510h272v120h73v-187h-270v-443h-75z" />
    <glyph glyph-name="uni0492" unicode="&#x492;" horiz-adv-x="590" 
d="M598 631h-388v-265h180v-51h-180v-315h-78v315h-102v51h102v334h466v-69z" />
    <glyph glyph-name="uni0493" unicode="&#x493;" horiz-adv-x="450" 
d="M443 443h-270v-183h144v-50h-144v-210h-76v210h-77v50h77v250h346v-67z" />
    <glyph glyph-name="uni0496" unicode="&#x496;" horiz-adv-x="1113" 
d="M981 69h107v-189h-76v120h-61l-384 348v-348h-78v348l-384 -348h-108l404 363l-384 337h108l364 -328v328h78v-328l364 328h107l-384 -337z" />
    <glyph glyph-name="uni0497" unicode="&#x497;" horiz-adv-x="913" 
d="M792 67h96v-187h-73v120h-52l-293 263v-263h-75v263l-293 -263h-105l313 276l-293 234h105l273 -227v227h75v-227l273 227h105l-293 -234z" />
    <glyph glyph-name="uni0498" unicode="&#x498;" horiz-adv-x="632" 
d="M568 190q0 -80 -66 -134.5t-175 -63.5v-112h-75v111q-66 5 -121 28t-77 43l-22 21l45 51q3 -3 9 -8t26 -18t42 -23t57.5 -18t72.5 -8q94 0 150 38.5t56 97.5t-58.5 99t-151.5 40h-75v62h77q85 0 136.5 35t51.5 89t-49 87.5t-136 33.5q-52 0 -98 -17t-66 -34l-20 -17
l-44 50q3 4 9.5 9.5t28 20.5t46.5 26.5t65 21t83 9.5q117 0 188 -51t71 -131q0 -59 -39 -100t-107 -61q77 -21 121.5 -66.5t44.5 -110.5z" />
    <glyph glyph-name="uni0499" unicode="&#x499;" horiz-adv-x="525" 
d="M480 138q0 -58 -51.5 -98.5t-147.5 -47.5v-112h-73v111q-49 4 -93 18.5t-63 26.5l-20 13l32 51q8 -5 23 -13t61 -21.5t91 -13.5q82 0 124 25t42 66q0 43 -44.5 69.5t-124.5 26.5h-58v55h60q74 0 113 22.5t39 60.5q0 80 -150 80q-41 0 -80.5 -10.5t-58.5 -20.5l-19 -11
l-32 50q8 6 24 15t66 24.5t102 15.5q109 0 166 -38t57 -97q0 -43 -30.5 -73t-80.5 -45q56 -14 91 -47.5t35 -81.5z" />
    <glyph glyph-name="uni049A" unicode="&#x49a;" horiz-adv-x="724" 
d="M592 69h107v-189h-75v120h-62l-384 348v-348h-78v700h78v-328l364 328h107l-383 -337z" />
    <glyph glyph-name="uni049B" unicode="&#x49b;" horiz-adv-x="598" 
d="M477 67h96v-187h-73v120h-52l-293 263v-263h-75v510h75v-227l273 227h105l-293 -234z" />
    <glyph glyph-name="uni049C" unicode="&#x49c;" horiz-adv-x="767" 
d="M662 0l-332 328h-35v-183h-50v183h-67v-328h-78v700h78v-308h67v183h50v-183h35l312 308h107l-356 -337l376 -363h-107z" />
    <glyph glyph-name="uni049D" unicode="&#x49d;" horiz-adv-x="650" 
d="M548 0l-241 244h-44v-136h-50v136h-58v-244h-75v510h75v-207h58v136h50v-136h45l220 207h105l-265 -234l285 -276h-105z" />
    <glyph glyph-name="uni04A0" unicode="&#x4a0;" horiz-adv-x="747" 
d="M25 633v67h233v-328l364 328h107l-383 -337l403 -363h-107l-384 348v-348h-78v633h-155z" />
    <glyph glyph-name="uni04A1" unicode="&#x4a1;" horiz-adv-x="630" 
d="M25 445v65h210v-227l273 227h105l-293 -234l313 -276h-105l-293 263v-263h-75v445h-135z" />
    <glyph glyph-name="uni04A2" unicode="&#x4a2;" horiz-adv-x="788" 
d="M670 69h93v-189h-76v120h-95v335h-414v-335h-78v700h78v-296h414v296h78v-631z" />
    <glyph glyph-name="uni04A3" unicode="&#x4a3;" horiz-adv-x="648" 
d="M540 67h83v-187h-73v120h-85v236h-310v-236h-75v510h75v-208h310v208h75v-443z" />
    <glyph glyph-name="uni04A4" unicode="&#x4a4;" horiz-adv-x="1082" 
d="M100 0v700h78v-296h414v296h465v-69h-387v-631h-78v335h-414v-335h-78z" />
    <glyph glyph-name="uni04A5" unicode="&#x4a5;" horiz-adv-x="835" 
d="M80 0v510h75v-208h310v208h345v-67h-270v-443h-75v236h-310v-236h-75z" />
    <glyph glyph-name="uni04AA" unicode="&#x4aa;" horiz-adv-x="718" 
d="M683 106q-3 -4 -9 -10.5t-27.5 -24.5t-45.5 -32.5t-63 -28.5t-81 -18v-112h-76v112q-141 12 -233.5 113t-92.5 243q0 152 105.5 257t258.5 105q47 0 91 -11t72.5 -26.5t51 -31t32.5 -26.5l10 -11l-54 -49l-9 9t-25.5 20t-41.5 25t-57 20t-72 9q-121 0 -202.5 -83
t-81.5 -205t81.5 -205t202.5 -83q38 0 74.5 9.5t60.5 22.5t42.5 27t27.5 23t9 10z" />
    <glyph glyph-name="uni04AB" unicode="&#x4ab;" horiz-adv-x="546" 
d="M514 81q-2 -3 -6.5 -8t-20 -19t-33.5 -25.5t-47 -22t-61 -14.5v-112h-73v113q-99 13 -163.5 85.5t-64.5 174.5q0 112 78 189.5t192 77.5q57 0 105.5 -21t68.5 -41l20 -21l-50 -49q-6 7 -17 17.5t-48.5 27.5t-79.5 17q-83 0 -138.5 -56t-55.5 -139t56 -139.5t138 -56.5
q44 0 81.5 17t52.5 34l15 17z" />
    <glyph glyph-name="uni04AE" unicode="&#x4ae;" horiz-adv-x="665" 
d="M294 0v280l-287 420h93l235 -349l234 349h89l-286 -420v-280h-78z" />
    <glyph glyph-name="uni04AF" unicode="&#x4af;" horiz-adv-x="518" 
d="M432 510h81l-217 -510v-160h-74v160l-217 510h84l171 -419z" />
    <glyph glyph-name="uni04B0" unicode="&#x4b0;" horiz-adv-x="665" 
d="M658 700l-267 -392h202v-50h-221v-258h-78v258h-222v50h203l-268 392h93l235 -349l234 349h89z" />
    <glyph glyph-name="uni04B1" unicode="&#x4b1;" horiz-adv-x="518" 
d="M513 510l-205 -482h148v-50h-160v-138h-74v138h-161v50h149l-205 482h84l171 -419l172 419h81z" />
    <glyph glyph-name="uni04B2" unicode="&#x4b2;" horiz-adv-x="718" 
d="M609 69h84v-189h-76v120h-51l-234 302l-232 -302h-93l281 358l-267 342h97l218 -284l221 284h92l-268 -341z" />
    <glyph glyph-name="uni04B3" unicode="&#x4b3;" horiz-adv-x="583" 
d="M482 67h76v-187h-73v120h-41l-174 209l-176 -209h-89l219 259l-209 251h93l165 -199l165 199h90l-210 -248z" />
    <glyph glyph-name="uni04B6" unicode="&#x4b6;" horiz-adv-x="709" 
d="M591 69h93v-189h-75v120h-96v282q-70 -42 -185 -42q-130 0 -206 75t-76 201v184h79v-179q0 -95 57.5 -153t155.5 -58q109 0 175 41v349h78v-631z" />
    <glyph glyph-name="uni04B7" unicode="&#x4b7;" horiz-adv-x="583" 
d="M476 67h82v-187h-73v120h-85v186q-58 -30 -141 -30q-101 0 -161.5 58t-60.5 153v143h76v-135q0 -69 42 -110t116 -41q76 0 129 29v257h76v-443z" />
    <glyph glyph-name="uni04B8" unicode="&#x4b8;" horiz-adv-x="711" 
d="M533 700h78v-700h-78v291q-71 -45 -179 -50v-146h-50v146q-120 7 -189 81t-69 194v184h79v-179q0 -86 48 -142.5t131 -66.5v213h50v-215q107 3 179 52v338z" />
    <glyph glyph-name="uni04B9" unicode="&#x4b9;" horiz-adv-x="576" 
d="M420 510h76v-510h-76v197q-51 -33 -128 -40v-107h-50v106q-94 5 -149.5 63t-55.5 148v143h76v-135q0 -62 34 -101.5t95 -47.5v154h50v-155q75 3 128 38v247z" />
    <glyph glyph-name="uni04BA" unicode="&#x4ba;" horiz-adv-x="692" 
d="M364 460q129 0 205 -75t76 -201v-184h-79v179q0 95 -57.5 153t-155.5 58q-105 0 -175 -41v-349h-78v700h78v-282q70 42 186 42z" />
    <glyph glyph-name="uni04BB" unicode="&#x4bb;" horiz-adv-x="611" 
d="M80 0v700h75v-286q57 106 186 106q85 0 142 -60t57 -172v-288h-75v263q0 94 -41.5 140.5t-104.5 46.5q-71 0 -117.5 -47t-46.5 -144v-259h-75z" />
    <glyph glyph-name="uni04C0" unicode="&#x4c0;" horiz-adv-x="290" 
d="M105 700h81v-700h-81v700z" />
    <glyph glyph-name="uni04C1" unicode="&#x4c1;" horiz-adv-x="1055" 
d="M528 767q-70 0 -115.5 45t-45.5 113v5h59v-8q0 -46 28.5 -74.5t74.5 -28.5t73.5 28.5t27.5 74.5v8h59v-5q0 -68 -45.5 -113t-115.5 -45zM-3 0l404 363l-384 337h108l364 -328v328h78v-328l364 328h107l-384 -337l404 -363h-107l-384 348v-348h-78v348l-384 -348h-108z
" />
    <glyph glyph-name="uni04C2" unicode="&#x4c2;" horiz-adv-x="865" 
d="M433 577q-70 0 -115.5 45t-45.5 113v5h59v-8q0 -46 28.5 -74.5t74.5 -28.5t73.5 28.5t27.5 74.5v8h59v-5q0 -68 -45.5 -113t-115.5 -45zM-3 0l313 276l-293 234h105l273 -227v227h75v-227l273 227h105l-293 -234l313 -276h-105l-293 263v-263h-75v263l-293 -263h-105z
" />
    <glyph glyph-name="uni04CF" unicode="&#x4cf;" horiz-adv-x="247" 
d="M85 510h77v-510h-77v510z" />
    <glyph glyph-name="uni04D0" unicode="&#x4d0;" horiz-adv-x="695" 
d="M348 757q-70 0 -115.5 45t-45.5 113v5h59v-8q0 -46 28.5 -74.5t74.5 -28.5t73.5 28.5t27.5 74.5v8h59v-5q0 -68 -45.5 -113t-115.5 -45zM7 0l302 700h78l301 -700h-86l-85 202h-342l-86 -202h-82zM198 265h294l-146 347z" />
    <glyph glyph-name="uni04D1" unicode="&#x4d1;" horiz-adv-x="564" 
d="M275 577q-70 0 -115.5 45t-45.5 113v5h59v-8q0 -46 28.5 -74.5t74.5 -28.5t73.5 28.5t27.5 74.5v8h59v-5q0 -68 -45.5 -113t-115.5 -45zM52 146q0 67 55.5 113.5t147.5 46.5q105 0 162 -57v42q0 81 -41 122t-111 41q-42 0 -78.5 -13t-52.5 -25l-15 -13l-37 52
q7 7 21.5 18t64.5 29t106 18q104 0 161.5 -59.5t57.5 -168.5v-292h-58l-9 55q-58 -65 -173 -65q-92 0 -146.5 44.5t-54.5 111.5zM128 149q0 -44 38.5 -74t104.5 -30q72 0 111.5 30t39.5 74t-39.5 74t-111.5 30q-66 0 -104.5 -30t-38.5 -74z" />
    <glyph glyph-name="uni04D2" unicode="&#x4d2;" horiz-adv-x="695" 
d="M248 787q-21 0 -35 14.5t-14 34.5t14.5 34.5t34.5 14.5q21 0 35 -14t14 -34q0 -21 -14.5 -35.5t-34.5 -14.5zM448 787q-21 0 -35 14.5t-14 34.5t14.5 34.5t34.5 14.5q21 0 35 -14t14 -34q0 -21 -14.5 -35.5t-34.5 -14.5zM7 0l302 700h78l301 -700h-86l-85 202h-342
l-86 -202h-82zM198 265h294l-146 347z" />
    <glyph glyph-name="uni04D3" unicode="&#x4d3;" horiz-adv-x="564" 
d="M175 607q-21 0 -35 14.5t-14 34.5t14.5 34.5t34.5 14.5q21 0 35 -14t14 -34q0 -21 -14.5 -35.5t-34.5 -14.5zM375 607q-21 0 -35 14.5t-14 34.5t14.5 34.5t34.5 14.5q21 0 35 -14t14 -34q0 -21 -14.5 -35.5t-34.5 -14.5zM52 146q0 67 55.5 113.5t147.5 46.5
q105 0 162 -57v42q0 81 -41 122t-111 41q-42 0 -78.5 -13t-52.5 -25l-15 -13l-37 52q7 7 21.5 18t64.5 29t106 18q104 0 161.5 -59.5t57.5 -168.5v-292h-58l-9 55q-58 -65 -173 -65q-92 0 -146.5 44.5t-54.5 111.5zM128 149q0 -44 38.5 -74t104.5 -30q72 0 111.5 30t39.5 74
t-39.5 74t-111.5 30q-66 0 -104.5 -30t-38.5 -74z" />
    <glyph glyph-name="uni04D4" unicode="&#x4d4;" horiz-adv-x="1053" 
d="M-3 0l465 700h526v-68h-408v-235h358v-64h-358v-265h418v-68h-496v202h-282l-133 -202h-90zM258 265h244v370z" />
    <glyph glyph-name="uni04D5" unicode="&#x4d5;" horiz-adv-x="977" 
d="M259 -10q-95 0 -151 44.5t-56 111.5t55.5 113.5t147.5 46.5q105 0 162 -57v42q0 81 -41 122t-111 41q-42 0 -78.5 -12t-52.5 -24l-15 -13l-37 51q3 3 8 7t23 15t38.5 19.5t54 15.5t69.5 7q150 0 190 -132q32 60 90.5 96t130.5 36q102 0 174.5 -73.5t72.5 -177.5l-2 -19
h-437q2 -85 57 -139t137 -54q54 0 98 23.5t61 46.5l17 23l48 -39q-3 -5 -8.5 -13t-25.5 -29t-44 -37t-64.5 -29t-85.5 -13q-70 0 -127 33t-90 89q-15 -56 -68 -89t-140 -33zM495 301h363q-9 67 -58.5 112.5t-114.5 45.5q-72 0 -124.5 -44t-65.5 -114zM271 45q72 0 111.5 30
t39.5 74t-39.5 74t-111.5 30q-66 0 -104.5 -30t-38.5 -74t38.5 -74t104.5 -30z" />
    <glyph glyph-name="uni04D6" unicode="&#x4d6;" horiz-adv-x="650" 
d="M342 757q-70 0 -115.5 45t-45.5 113v5h59v-8q0 -46 28.5 -74.5t74.5 -28.5t73.5 28.5t27.5 74.5v8h59v-5q0 -68 -45.5 -113t-115.5 -45zM100 0v700h485v-68h-407v-235h357v-64h-357v-265h417v-68h-495z" />
    <glyph glyph-name="uni04D7" unicode="&#x4d7;" horiz-adv-x="604" 
d="M314 577q-70 0 -115.5 45t-45.5 113v5h59v-8q0 -46 28.5 -74.5t74.5 -28.5t73.5 28.5t27.5 74.5v8h59v-5q0 -68 -45.5 -113t-115.5 -45zM312 -10q-114 0 -190.5 75.5t-76.5 187.5t77.5 189.5t191.5 77.5q102 0 174.5 -73.5t72.5 -177.5l-2 -19h-438q2 -86 57.5 -139.5
t137.5 -53.5q54 0 98 23.5t61 46.5l17 23l48 -39q-3 -5 -8.5 -13t-25.5 -29t-44 -37t-64.5 -29t-85.5 -13zM123 303h363q-10 66 -59.5 111t-114.5 45q-71 0 -123.5 -44t-65.5 -112z" />
    <glyph glyph-name="uni04D8" unicode="&#x4d8;" horiz-adv-x="814" 
d="M397 710q154 0 258.5 -103t104.5 -255t-106 -257t-260 -105q-141 0 -240 100t-99 241l3 25h624q-1 120 -85 201t-203 81q-47 0 -90 -14.5t-71 -35t-49 -40.5t-30 -34l-10 -15l-56 45q4 7 11.5 18t35 39.5t59.5 50.5t87 40t116 18zM396 59q107 0 184 65.5t97 168.5h-540
q16 -98 85 -166t174 -68z" />
    <glyph glyph-name="uni04D9" unicode="&#x4d9;" 
d="M292 520q114 0 190.5 -75.5t76.5 -187.5t-77.5 -189.5t-191.5 -77.5q-102 0 -174.5 73.5t-72.5 177.5l2 19h438q-2 86 -57.5 139.5t-137.5 53.5q-54 0 -98 -23.5t-61 -46.5l-17 -23l-48 39q3 5 8.5 13t25.5 29t44 37t64.5 29t85.5 13zM481 207h-363q10 -66 59.5 -111
t114.5 -45q71 0 123.5 44t65.5 112z" />
    <glyph glyph-name="uni04DA" unicode="&#x4da;" horiz-adv-x="814" 
d="M297 797q-21 0 -35 14.5t-14 34.5t14.5 34.5t34.5 14.5q21 0 35 -14t14 -34q0 -21 -14.5 -35.5t-34.5 -14.5zM497 797q-21 0 -35 14.5t-14 34.5t14.5 34.5t34.5 14.5q21 0 35 -14t14 -34q0 -21 -14.5 -35.5t-34.5 -14.5zM397 710q154 0 258.5 -103t104.5 -255t-106 -257
t-260 -105q-141 0 -240 100t-99 241l3 25h624q-1 120 -85 201t-203 81q-47 0 -90 -14.5t-71 -35t-49 -40.5t-30 -34l-10 -15l-56 45q4 7 11.5 18t35 39.5t59.5 50.5t87 40t116 18zM396 59q107 0 184 65.5t97 168.5h-540q16 -98 85 -166t174 -68z" />
    <glyph glyph-name="uni04DB" unicode="&#x4db;" 
d="M202 607q-21 0 -35 14.5t-14 34.5t14.5 34.5t34.5 14.5q21 0 35 -14t14 -34q0 -21 -14.5 -35.5t-34.5 -14.5zM402 607q-21 0 -35 14.5t-14 34.5t14.5 34.5t34.5 14.5q21 0 35 -14t14 -34q0 -21 -14.5 -35.5t-34.5 -14.5zM292 520q114 0 190.5 -75.5t76.5 -187.5
t-77.5 -189.5t-191.5 -77.5q-102 0 -174.5 73.5t-72.5 177.5l2 19h438q-2 86 -57.5 139.5t-137.5 53.5q-54 0 -98 -23.5t-61 -46.5l-17 -23l-48 39q3 5 8.5 13t25.5 29t44 37t64.5 29t85.5 13zM481 207h-363q10 -66 59.5 -111t114.5 -45q71 0 123.5 44t65.5 112z" />
    <glyph glyph-name="uni04DC" unicode="&#x4dc;" horiz-adv-x="1055" 
d="M428 797q-21 0 -35 14.5t-14 34.5t14.5 34.5t34.5 14.5q21 0 35 -14t14 -34q0 -21 -14.5 -35.5t-34.5 -14.5zM628 797q-21 0 -35 14.5t-14 34.5t14.5 34.5t34.5 14.5q21 0 35 -14t14 -34q0 -21 -14.5 -35.5t-34.5 -14.5zM-3 0l404 363l-384 337h108l364 -328v328h78v-328
l364 328h107l-384 -337l404 -363h-107l-384 348v-348h-78v348l-384 -348h-108z" />
    <glyph glyph-name="uni04DD" unicode="&#x4dd;" horiz-adv-x="865" 
d="M333 607q-21 0 -35 14.5t-14 34.5t14.5 34.5t34.5 14.5q21 0 35 -14t14 -34q0 -21 -14.5 -35.5t-34.5 -14.5zM533 607q-21 0 -35 14.5t-14 34.5t14.5 34.5t34.5 14.5q21 0 35 -14t14 -34q0 -21 -14.5 -35.5t-34.5 -14.5zM-3 0l313 276l-293 234h105l273 -227v227h75v-227
l273 227h105l-293 -234l313 -276h-105l-293 263v-263h-75v263l-293 -263h-105z" />
    <glyph glyph-name="uni04DE" unicode="&#x4de;" horiz-adv-x="632" 
d="M189 797q-21 0 -35 14.5t-14 34.5t14.5 34.5t34.5 14.5q21 0 35 -14t14 -34q0 -21 -14.5 -35.5t-34.5 -14.5zM389 797q-21 0 -35 14.5t-14 34.5t14.5 34.5t34.5 14.5q21 0 35 -14t14 -34q0 -21 -14.5 -35.5t-34.5 -14.5zM285 -10q-48 0 -91.5 9.5t-71.5 23t-49.5 27.5
t-30.5 24l-10 9l45 51q3 -3 9 -8t26 -18t42 -23t57.5 -18t72.5 -8q94 0 150 38.5t56 97.5t-58.5 99t-151.5 40h-75v62h77q85 0 136.5 35t51.5 89t-49 87.5t-136 33.5q-52 0 -98 -17t-66 -34l-20 -17l-44 50q3 4 9.5 9.5t28 20.5t46.5 26.5t65 21t83 9.5q117 0 188 -51
t71 -131q0 -59 -39 -100t-107 -61q77 -21 121.5 -66.5t44.5 -110.5q0 -88 -78.5 -144t-204.5 -56z" />
    <glyph glyph-name="uni04DF" unicode="&#x4df;" horiz-adv-x="525" 
d="M142 607q-21 0 -35 14.5t-14 34.5t14.5 34.5t34.5 14.5q21 0 35 -14t14 -34q0 -21 -14.5 -35.5t-34.5 -14.5zM342 607q-21 0 -35 14.5t-14 34.5t14.5 34.5t34.5 14.5q21 0 35 -14t14 -34q0 -21 -14.5 -35.5t-34.5 -14.5zM240 -10q-58 0 -110 15t-75 29l-23 15l32 51
q8 -5 23 -13t61 -21.5t91 -13.5q82 0 124 25t42 66q0 43 -44.5 69.5t-124.5 26.5h-58v55h60q74 0 113 22.5t39 60.5q0 80 -150 80q-41 0 -80.5 -10.5t-58.5 -20.5l-19 -11l-32 50q8 6 24 15t66 24.5t102 15.5q109 0 166 -38t57 -97q0 -43 -30.5 -73t-80.5 -45
q56 -14 91 -47.5t35 -81.5q0 -64 -62.5 -106t-177.5 -42z" />
    <glyph glyph-name="uni04E2" unicode="&#x4e2;" horiz-adv-x="790" 
d="M215 815v50h360v-50h-360zM612 586l-435 -586h-77v700h78v-578l429 578h83v-700h-78v586z" />
    <glyph glyph-name="uni04E3" unicode="&#x4e3;" horiz-adv-x="640" 
d="M140 635v50h360v-50h-360zM485 409l-331 -409h-74v510h75v-402l325 402h80v-510h-75v409z" />
    <glyph glyph-name="uni04E4" unicode="&#x4e4;" horiz-adv-x="790" 
d="M295 787q-21 0 -35 14.5t-14 34.5t14.5 34.5t34.5 14.5q21 0 35 -14t14 -34q0 -21 -14.5 -35.5t-34.5 -14.5zM495 787q-21 0 -35 14.5t-14 34.5t14.5 34.5t34.5 14.5q21 0 35 -14t14 -34q0 -21 -14.5 -35.5t-34.5 -14.5zM612 586l-435 -586h-77v700h78v-578l429 578h83
v-700h-78v586z" />
    <glyph glyph-name="uni04E5" unicode="&#x4e5;" horiz-adv-x="640" 
d="M220 607q-21 0 -35 14.5t-14 34.5t14.5 34.5t34.5 14.5q21 0 35 -14t14 -34q0 -21 -14.5 -35.5t-34.5 -14.5zM420 607q-21 0 -35 14.5t-14 34.5t14.5 34.5t34.5 14.5q21 0 35 -14t14 -34q0 -21 -14.5 -35.5t-34.5 -14.5zM485 409l-331 -409h-74v510h75v-402l325 402h80
v-510h-75v409z" />
    <glyph glyph-name="uni04E6" unicode="&#x4e6;" horiz-adv-x="835" 
d="M317 787q-21 0 -35 14.5t-14 34.5t14.5 34.5t34.5 14.5q21 0 35 -14t14 -34q0 -21 -14.5 -35.5t-34.5 -14.5zM517 787q-21 0 -35 14.5t-14 34.5t14.5 34.5t34.5 14.5q21 0 35 -14t14 -34q0 -21 -14.5 -35.5t-34.5 -14.5zM55 348q0 152 105.5 257t258.5 105t257 -103
t104 -255t-105.5 -257t-258.5 -105t-257 103t-104 255zM133 350q0 -122 81.5 -205t202.5 -83t203 83t82 205t-82 205t-203 83t-202.5 -83t-81.5 -205z" />
    <glyph glyph-name="uni04E7" unicode="&#x4e7;" horiz-adv-x="627" 
d="M214 607q-21 0 -35 14.5t-14 34.5t14.5 34.5t34.5 14.5q21 0 35 -14t14 -34q0 -21 -14.5 -35.5t-34.5 -14.5zM414 607q-21 0 -35 14.5t-14 34.5t14.5 34.5t34.5 14.5q21 0 35 -14t14 -34q0 -21 -14.5 -35.5t-34.5 -14.5zM45 253q0 112 78 189.5t192 77.5t190.5 -76
t76.5 -188t-78 -189t-192 -77t-190.5 75.5t-76.5 187.5zM120 255q0 -83 56 -139.5t138 -56.5t137.5 56.5t55.5 139.5t-55.5 139t-137.5 56q-83 0 -138.5 -56t-55.5 -139z" />
    <glyph glyph-name="uni04E8" unicode="&#x4e8;" horiz-adv-x="835" 
d="M419 710q153 0 257 -103t104 -255t-105.5 -257t-258.5 -105t-257 103t-104 255t105.5 257t258.5 105zM417 639q-112 0 -191.5 -72t-90.5 -183h565q-12 111 -91.5 183t-191.5 72zM417 61q114 0 194.5 75t89.5 189h-567q9 -114 89 -189t194 -75z" />
    <glyph glyph-name="uni04E9" unicode="&#x4e9;" horiz-adv-x="627" 
d="M315 520q114 0 190.5 -76t76.5 -188t-78 -189t-192 -77t-190.5 75.5t-76.5 187.5t78 189.5t192 77.5zM314 456q-77 0 -130.5 -48t-62.5 -125h385q-9 77 -62.5 125t-129.5 48zM314 53q77 0 131 49.5t62 128.5h-387q8 -79 62 -128.5t132 -49.5z" />
    <glyph glyph-name="uni04EA" unicode="&#x4ea;" horiz-adv-x="835" 
d="M317 797q-21 0 -35 14.5t-14 34.5t14.5 34.5t34.5 14.5q21 0 35 -14t14 -34q0 -21 -14.5 -35.5t-34.5 -14.5zM517 797q-21 0 -35 14.5t-14 34.5t14.5 34.5t34.5 14.5q21 0 35 -14t14 -34q0 -21 -14.5 -35.5t-34.5 -14.5zM419 710q153 0 257 -103t104 -255t-105.5 -257
t-258.5 -105t-257 103t-104 255t105.5 257t258.5 105zM417 639q-112 0 -191.5 -72t-90.5 -183h565q-12 111 -91.5 183t-191.5 72zM417 61q114 0 194.5 75t89.5 189h-567q9 -114 89 -189t194 -75z" />
    <glyph glyph-name="uni04EB" unicode="&#x4eb;" horiz-adv-x="627" 
d="M214 607q-21 0 -35 14.5t-14 34.5t14.5 34.5t34.5 14.5q21 0 35 -14t14 -34q0 -21 -14.5 -35.5t-34.5 -14.5zM414 607q-21 0 -35 14.5t-14 34.5t14.5 34.5t34.5 14.5q21 0 35 -14t14 -34q0 -21 -14.5 -35.5t-34.5 -14.5zM315 520q114 0 190.5 -76t76.5 -188t-78 -189
t-192 -77t-190.5 75.5t-76.5 187.5t78 189.5t192 77.5zM314 456q-77 0 -130.5 -48t-62.5 -125h385q-9 77 -62.5 125t-129.5 48zM314 53q77 0 131 49.5t62 128.5h-387q8 -79 62 -128.5t132 -49.5z" />
    <glyph glyph-name="uni04EC" unicode="&#x4ec;" horiz-adv-x="717" 
d="M201 797q-21 0 -35 14.5t-14 34.5t14.5 34.5t34.5 14.5q21 0 35 -14t14 -34q0 -21 -14.5 -35.5t-34.5 -14.5zM401 797q-21 0 -35 14.5t-14 34.5t14.5 34.5t34.5 14.5q21 0 35 -14t14 -34q0 -21 -14.5 -35.5t-34.5 -14.5zM301 710q153 0 257 -103t104 -255t-105.5 -257
t-258.5 -105q-49 0 -94 11.5t-74.5 28.5t-52 34t-32.5 28l-10 12l55 47q3 -4 9 -10t26.5 -21t43 -27t58 -21.5t72.5 -9.5q115 0 195.5 76t88.5 190h-344v63h342q-14 107 -93 177t-189 70q-38 0 -74 -9.5t-60 -23t-43 -27.5t-27.5 -23t-8.5 -10l-51 48q4 5 11 13t32 28
t53.5 35.5t74.5 28t95 12.5z" />
    <glyph glyph-name="uni04ED" unicode="&#x4ed;" horiz-adv-x="545" 
d="M133 607q-21 0 -35 14.5t-14 34.5t14.5 34.5t34.5 14.5q21 0 35 -14t14 -34q0 -21 -14.5 -35.5t-34.5 -14.5zM333 607q-21 0 -35 14.5t-14 34.5t14.5 34.5t34.5 14.5q21 0 35 -14t14 -34q0 -21 -14.5 -35.5t-34.5 -14.5zM233 520q114 0 191 -76t77 -188t-78.5 -189
t-192.5 -77q-57 0 -105 21t-68 42l-20 21l48 47q6 -7 17 -17.5t49.5 -28t80.5 -17.5q76 0 130 49t62 125h-243v55h242q-11 72 -64.5 118.5t-126.5 46.5q-29 0 -55 -7t-42.5 -17t-29.5 -20.5t-19 -17.5l-5 -7l-49 45q3 4 8 10t24 22t40 28t56 22t73 10z" />
    <glyph glyph-name="uni04EE" unicode="&#x4ee;" horiz-adv-x="685" 
d="M525 875v-50h-360v50h360zM594 700h84l-295 -543q-90 -167 -218 -167q-31 0 -57.5 6.5t-37.5 13.5l-12 6l24 64q33 -19 83 -19q77 0 138 95l-296 544h89l250 -471z" />
    <glyph glyph-name="uni04EF" unicode="&#x4ef;" horiz-adv-x="518" 
d="M81 635v50h360v-50h-360zM5 510h84l171 -424l172 424h81l-219 -515q-70 -165 -196 -165q-28 0 -51 5.5t-33 10.5l-9 6l25 59q21 -14 63 -14q80 0 128 106z" />
    <glyph glyph-name="uni04F0" unicode="&#x4f0;" horiz-adv-x="685" 
d="M245 797q-21 0 -35 14.5t-14 34.5t14.5 34.5t34.5 14.5q21 0 35 -14t14 -34q0 -21 -14.5 -35.5t-34.5 -14.5zM445 797q-21 0 -35 14.5t-14 34.5t14.5 34.5t34.5 14.5q21 0 35 -14t14 -34q0 -21 -14.5 -35.5t-34.5 -14.5zM594 700h84l-295 -543q-90 -167 -218 -167
q-31 0 -57.5 6.5t-37.5 13.5l-12 6l24 64q33 -19 83 -19q77 0 138 95l-296 544h89l250 -471z" />
    <glyph glyph-name="uni04F1" unicode="&#x4f1;" horiz-adv-x="518" 
d="M161 607q-21 0 -35 14.5t-14 34.5t14.5 34.5t34.5 14.5q21 0 35 -14t14 -34q0 -21 -14.5 -35.5t-34.5 -14.5zM361 607q-21 0 -35 14.5t-14 34.5t14.5 34.5t34.5 14.5q21 0 35 -14t14 -34q0 -21 -14.5 -35.5t-34.5 -14.5zM5 510h84l171 -424l172 424h81l-219 -515
q-70 -165 -196 -165q-28 0 -51 5.5t-33 10.5l-9 6l25 59q21 -14 63 -14q80 0 128 106z" />
    <glyph glyph-name="uni04F2" unicode="&#x4f2;" horiz-adv-x="685" 
d="M364 930l-82 -163h-60l61 163h81zM548 930l-82 -163h-60l61 163h81zM594 700h84l-295 -543q-90 -167 -218 -167q-31 0 -57.5 6.5t-37.5 13.5l-12 6l24 64q33 -19 83 -19q77 0 138 95l-296 544h89l250 -471z" />
    <glyph glyph-name="uni04F3" unicode="&#x4f3;" horiz-adv-x="518" 
d="M139 577l61 163h81l-82 -163h-60zM323 577l61 163h81l-82 -163h-60zM5 510h84l171 -424l172 424h81l-219 -515q-70 -165 -196 -165q-28 0 -51 5.5t-33 10.5l-9 6l25 59q21 -14 63 -14q80 0 128 106z" />
    <glyph glyph-name="uni04F4" unicode="&#x4f4;" horiz-adv-x="691" 
d="M219 797q-21 0 -35 14.5t-14 34.5t14.5 34.5t34.5 14.5q21 0 35 -14t14 -34q0 -21 -14.5 -35.5t-34.5 -14.5zM419 797q-21 0 -35 14.5t-14 34.5t14.5 34.5t34.5 14.5q21 0 35 -14t14 -34q0 -21 -14.5 -35.5t-34.5 -14.5zM513 700h78v-700h-78v282q-70 -42 -185 -42
q-130 0 -206 75t-76 201v184h79v-179q0 -95 57.5 -153t155.5 -58q109 0 175 41v349z" />
    <glyph glyph-name="uni04F5" unicode="&#x4f5;" horiz-adv-x="556" 
d="M157 607q-21 0 -35 14.5t-14 34.5t14.5 34.5t34.5 14.5q21 0 35 -14t14 -34q0 -21 -14.5 -35.5t-34.5 -14.5zM357 607q-21 0 -35 14.5t-14 34.5t14.5 34.5t34.5 14.5q21 0 35 -14t14 -34q0 -21 -14.5 -35.5t-34.5 -14.5zM400 510h76v-510h-76v186q-58 -30 -141 -30
q-101 0 -161.5 58t-60.5 153v143h76v-135q0 -69 42 -110t116 -41q76 0 129 29v257z" />
    <glyph glyph-name="uni04F8" unicode="&#x4f8;" horiz-adv-x="962" 
d="M381 797q-21 0 -35 14.5t-14 34.5t14.5 34.5t34.5 14.5q21 0 35 -14t14 -34q0 -21 -14.5 -35.5t-34.5 -14.5zM581 797q-21 0 -35 14.5t-14 34.5t14.5 34.5t34.5 14.5q21 0 35 -14t14 -34q0 -21 -14.5 -35.5t-34.5 -14.5zM100 0v700h78v-257h202q108 0 176.5 -62
t68.5 -158t-67.5 -159.5t-174.5 -63.5h-283zM776 700h81v-700h-81v700zM178 67h196q77 0 125 44t48 111t-48 111t-125 44h-196v-310z" />
    <glyph glyph-name="uni04F9" unicode="&#x4f9;" horiz-adv-x="787" 
d="M293 607q-21 0 -35 14.5t-14 34.5t14.5 34.5t34.5 14.5q21 0 35 -14t14 -34q0 -21 -14.5 -35.5t-34.5 -14.5zM493 607q-21 0 -35 14.5t-14 34.5t14.5 34.5t34.5 14.5q21 0 35 -14t14 -34q0 -21 -14.5 -35.5t-34.5 -14.5zM80 0v510h75v-172h157q84 0 137 -47.5t53 -119.5
q0 -74 -52 -122.5t-135 -48.5h-235zM625 510h77v-510h-77v510zM155 60h149q55 0 89 31t34 79t-34 78.5t-89 30.5h-149v-219z" />
    <glyph glyph-name="Wgrave" unicode="&#x1e80;" horiz-adv-x="980" 
d="M462 757l-99 163h82l78 -163h-61zM7 700h86l193 -582l178 582h56l178 -582l193 582h82l-239 -700h-70l-174 559l-174 -559h-70z" />
    <glyph glyph-name="wgrave" unicode="&#x1e81;" horiz-adv-x="775" 
d="M358 577l-99 163h82l78 -163h-61zM5 510h83l141 -406l132 406h57l132 -405l141 405h79l-183 -510h-72l-128 387l-127 -387h-72z" />
    <glyph glyph-name="Wacute" unicode="&#x1e82;" horiz-adv-x="980" 
d="M461 757l79 163h81l-98 -163h-62zM7 700h86l193 -582l178 582h56l178 -582l193 582h82l-239 -700h-70l-174 559l-174 -559h-70z" />
    <glyph glyph-name="wacute" unicode="&#x1e83;" horiz-adv-x="775" 
d="M358 577l79 163h81l-98 -163h-62zM5 510h83l141 -406l132 406h57l132 -405l141 405h79l-183 -510h-72l-128 387l-127 -387h-72z" />
    <glyph glyph-name="Wdieresis" unicode="&#x1e84;" horiz-adv-x="980" 
d="M393 787q-21 0 -35 14.5t-14 34.5t14.5 34.5t34.5 14.5q21 0 35 -14t14 -34q0 -21 -14.5 -35.5t-34.5 -14.5zM593 787q-21 0 -35 14.5t-14 34.5t14.5 34.5t34.5 14.5q21 0 35 -14t14 -34q0 -21 -14.5 -35.5t-34.5 -14.5zM7 700h86l193 -582l178 582h56l178 -582l193 582
h82l-239 -700h-70l-174 559l-174 -559h-70z" />
    <glyph glyph-name="wdieresis" unicode="&#x1e85;" horiz-adv-x="775" 
d="M289 607q-21 0 -35 14.5t-14 34.5t14.5 34.5t34.5 14.5q21 0 35 -14t14 -34q0 -21 -14.5 -35.5t-34.5 -14.5zM489 607q-21 0 -35 14.5t-14 34.5t14.5 34.5t34.5 14.5q21 0 35 -14t14 -34q0 -21 -14.5 -35.5t-34.5 -14.5zM5 510h83l141 -406l132 406h57l132 -405l141 405
h79l-183 -510h-72l-128 387l-127 -387h-72z" />
    <glyph glyph-name="uni1E9E" unicode="&#x1e9e;" horiz-adv-x="715" 
d="M415 -10q-28 0 -51.5 3t-33.5 5l-9 3l14 65q28 -8 72 -8q79 0 129.5 46t50.5 115q0 68 -51 114t-130 46h-44v50l162 158q-62 54 -154 54q-89 0 -145.5 -61.5t-56.5 -161.5v-418h-78v413q0 131 79.5 214t202.5 83q45 0 87 -11t70 -26t49.5 -30.5t31.5 -26.5l10 -11
l-168 -169q93 -10 153 -71.5t60 -148.5q0 -97 -71 -161.5t-179 -64.5z" />
    <glyph glyph-name="Ygrave" unicode="&#x1ef2;" horiz-adv-x="665" 
d="M304 757l-99 163h82l78 -163h-61zM294 0v280l-287 420h93l235 -349l234 349h89l-286 -420v-280h-78z" />
    <glyph glyph-name="ygrave" unicode="&#x1ef3;" horiz-adv-x="518" 
d="M230 577l-99 163h82l78 -163h-61zM5 510h84l171 -424l172 424h81l-219 -515q-70 -165 -196 -165q-28 0 -51 5.5t-33 10.5l-9 6l25 59q21 -14 63 -14q80 0 128 106z" />
    <glyph glyph-name="endash" unicode="&#x2013;" horiz-adv-x="570" 
d="M50 324v66h470v-66h-470z" />
    <glyph glyph-name="emdash" unicode="&#x2014;" horiz-adv-x="900" 
d="M50 324v66h800v-66h-800z" />
    <glyph glyph-name="quoteleft" unicode="&#x2018;" horiz-adv-x="188" 
d="M148 700l-26 -240h-82l46 240h62z" />
    <glyph glyph-name="quoteright" unicode="&#x2019;" horiz-adv-x="188" 
d="M40 460l26 240h82l-46 -240h-62z" />
    <glyph glyph-name="quotesinglbase" unicode="&#x201a;" horiz-adv-x="188" 
d="M40 -130l26 240h82l-46 -240h-62z" />
    <glyph glyph-name="quotedblleft" unicode="&#x201c;" horiz-adv-x="348" 
d="M148 700l-26 -240h-82l46 240h62zM308 700l-26 -240h-82l47 240h61z" />
    <glyph glyph-name="quotedblright" unicode="&#x201d;" horiz-adv-x="348" 
d="M40 460l26 240h82l-46 -240h-62zM200 460l27 240h81l-46 -240h-62z" />
    <glyph glyph-name="quotedblbase" unicode="&#x201e;" horiz-adv-x="348" 
d="M40 -130l26 240h82l-46 -240h-62zM200 -130l27 240h81l-46 -240h-62z" />
    <glyph glyph-name="dagger" unicode="&#x2020;" horiz-adv-x="405" 
d="M233 510v-250h-61v250h-132v54h132v136h61v-136h132v-54h-132z" />
    <glyph glyph-name="daggerdbl" unicode="&#x2021;" horiz-adv-x="405" 
d="M172 150v136h-132v54h132v170h-132v54h132v136h61v-136h132v-54h-132v-170h132v-54h-132v-136h-61z" />
    <glyph glyph-name="bullet" unicode="&#x2022;" horiz-adv-x="328" 
d="M163 243q-45 0 -75.5 30.5t-30.5 75.5q0 46 31 77t76 31q46 0 76.5 -30.5t30.5 -76.5q0 -45 -31 -76t-77 -31z" />
    <glyph glyph-name="perthousand" unicode="&#x2030;" horiz-adv-x="1115" 
d="M194 318q-63 0 -105 41.5t-42 104.5t42.5 104.5t105.5 41.5t105 -41.5t42 -104.5q0 -62 -42.5 -104t-105.5 -42zM146 0l413 600h60l-413 -600h-60zM195 371q39 0 64.5 26.5t25.5 66.5t-25.5 66.5t-64.5 26.5q-40 0 -65.5 -26t-25.5 -67t25.5 -67t65.5 -26zM570 -10
q-63 0 -105 41.5t-42 104.5q0 62 42.5 104t105.5 42t105 -41.5t42 -104.5t-42.5 -104.5t-105.5 -41.5zM920 -10q-63 0 -105 41.5t-42 104.5q0 62 42.5 104t105.5 42t105 -41.5t42 -104.5t-42.5 -104.5t-105.5 -41.5zM571 43q39 0 64.5 26.5t25.5 66.5t-25.5 66.5t-64.5 26.5
q-40 0 -65.5 -26t-25.5 -67t25.5 -67t65.5 -26zM921 43q39 0 64.5 26.5t25.5 66.5t-25.5 66.5t-64.5 26.5q-40 0 -65.5 -26t-25.5 -67t25.5 -67t65.5 -26z" />
    <glyph glyph-name="guilsinglleft" unicode="&#x2039;" horiz-adv-x="434" 
d="M136 351l223 -208l-43 -46l-266 238v30l266 238l43 -43z" />
    <glyph glyph-name="guilsinglright" unicode="&#x203a;" horiz-adv-x="434" 
d="M297 348l-222 209l43 46l266 -238v-30l-266 -238l-43 43z" />
    <glyph glyph-name="fraction" unicode="&#x2044;" horiz-adv-x="195" 
d="M326 700h59l-511 -700h-59z" />
    <glyph glyph-name="Euro" unicode="&#x20ac;" 
d="M370 -10q-103 0 -166.5 62t-63.5 171v24h-95v47h95v112h-95v47h95v23q1 108 65.5 171t167.5 63q44 0 80.5 -11.5t57 -28.5t35 -34t19.5 -28l5 -12l-62 -33q-1 3 -3.5 8.5t-13.5 19t-25 24t-39.5 19t-56.5 8.5q-70 0 -113 -44t-43 -118v-27h276v-47h-276v-112h256v-47
h-256v-27q0 -74 43 -118t113 -44q48 0 82.5 20t45.5 40l10 19l62 -31q-2 -5 -5.5 -12.5t-19.5 -27.5t-36.5 -35.5t-57.5 -28t-81 -12.5z" />
    <glyph glyph-name="trademark" unicode="&#x2122;" horiz-adv-x="771" 
d="M215 653v-268h-54v268h-104v47h261v-47h-103zM436 613v-228h-52v315h55l110 -195l111 195h53v-315h-53v228l-98 -174h-27z" />
    <glyph glyph-name="minus" unicode="&#x2212;" 
d="M50 324v66h505v-66h-505z" />
    <glyph glyph-name="uni2713" unicode="&#x2713;" horiz-adv-x="775" 
d="M66 327l44 44l170 -169l385 384l44 -44l-429 -428z" />
    <glyph glyph-name="G.ss01" horiz-adv-x="775" 
d="M416 -10q-153 0 -257 103t-104 255t105.5 257t258.5 105q47 0 91 -10.5t72.5 -25.5t50.5 -30t32 -26l10 -10l-54 -54q-3 3 -8.5 9t-25 20.5t-41.5 25.5t-57 20t-72 9q-121 0 -202.5 -83t-81.5 -206t81.5 -205.5t202.5 -82.5q43 0 82 9.5t64 22.5t43.5 26t26.5 23l8 9v139
h-226v60h300v-229q-4 -5 -11.5 -14t-35 -31.5t-59 -40t-84 -31.5t-109.5 -14z" />
    <glyph glyph-name="Gbreve.ss01" horiz-adv-x="775" 
d="M419 767q-70 0 -115.5 45t-45.5 113v5h59v-8q0 -46 28.5 -74.5t74.5 -28.5t73.5 28.5t27.5 74.5v8h59v-5q0 -68 -45.5 -113t-115.5 -45zM416 -10q-153 0 -257 103t-104 255t105.5 257t258.5 105q47 0 91 -10.5t72.5 -25.5t50.5 -30t32 -26l10 -10l-54 -54q-3 3 -8.5 9
t-25 20.5t-41.5 25.5t-57 20t-72 9q-121 0 -202.5 -83t-81.5 -206t81.5 -205.5t202.5 -82.5q43 0 82 9.5t64 22.5t43.5 26t26.5 23l8 9v139h-226v60h300v-229q-4 -5 -11.5 -14t-35 -31.5t-59 -40t-84 -31.5t-109.5 -14z" />
    <glyph glyph-name="Gcircumflex.ss01" horiz-adv-x="775" 
d="M234 767l150 163h70l150 -163h-70l-117 112l-116 -112h-67zM416 -10q-153 0 -257 103t-104 255t105.5 257t258.5 105q47 0 91 -10.5t72.5 -25.5t50.5 -30t32 -26l10 -10l-54 -54q-3 3 -8.5 9t-25 20.5t-41.5 25.5t-57 20t-72 9q-121 0 -202.5 -83t-81.5 -206t81.5 -205.5
t202.5 -82.5q43 0 82 9.5t64 22.5t43.5 26t26.5 23l8 9v139h-226v60h300v-229q-4 -5 -11.5 -14t-35 -31.5t-59 -40t-84 -31.5t-109.5 -14z" />
    <glyph glyph-name="uni0122.ss01" horiz-adv-x="775" 
d="M416 -10q-153 0 -257 103t-104 255t105.5 257t258.5 105q47 0 91 -10.5t72.5 -25.5t50.5 -30t32 -26l10 -10l-54 -54q-3 3 -8.5 9t-25 20.5t-41.5 25.5t-57 20t-72 9q-121 0 -202.5 -83t-81.5 -206t81.5 -205.5t202.5 -82.5q43 0 82 9.5t64 22.5t43.5 26t26.5 23l8 9v139
h-226v60h300v-229q-4 -5 -11.5 -14t-35 -31.5t-59 -40t-84 -31.5t-109.5 -14zM268 -213l79 163h81l-98 -163h-62z" />
    <glyph glyph-name="Gdotaccent.ss01" horiz-adv-x="775" 
d="M419 797q-21 0 -35 14.5t-14 34.5t14.5 34.5t34.5 14.5q21 0 35 -14t14 -34q0 -21 -14.5 -35.5t-34.5 -14.5zM416 -10q-153 0 -257 103t-104 255t105.5 257t258.5 105q47 0 91 -10.5t72.5 -25.5t50.5 -30t32 -26l10 -10l-54 -54q-3 3 -8.5 9t-25 20.5t-41.5 25.5t-57 20
t-72 9q-121 0 -202.5 -83t-81.5 -206t81.5 -205.5t202.5 -82.5q43 0 82 9.5t64 22.5t43.5 26t26.5 23l8 9v139h-226v60h300v-229q-4 -5 -11.5 -14t-35 -31.5t-59 -40t-84 -31.5t-109.5 -14z" />
    <glyph glyph-name="K.ss01" horiz-adv-x="703" 
d="M305 344l-127 -117v-227h-78v700h78v-386l406 386h101l-324 -307l344 -393h-100z" />
    <glyph glyph-name="uni0136.ss01" horiz-adv-x="703" 
d="M305 344l-127 -117v-227h-78v700h78v-386l406 386h101l-324 -307l344 -393h-100zM259 -213l79 163h81l-98 -163h-62z" />
    <glyph glyph-name="i.loclTRK" horiz-adv-x="247" 
d="M124 607q-21 0 -35 14.5t-14 34.5t14.5 34.5t34.5 14.5q21 0 35 -14t14 -34q0 -21 -14.5 -35.5t-34.5 -14.5zM85 510h77v-510h-77v510z" />
    <glyph glyph-name="a.ss01" horiz-adv-x="656" 
d="M299 -10q-106 0 -180 76t-74 187t75.5 189t181.5 78q64 0 117.5 -30t85.5 -83l9 103h62v-510h-62l-9 105q-33 -54 -87 -84.5t-119 -30.5zM313 59q82 0 137.5 56.5t55.5 139.5t-55.5 139t-137.5 56t-137.5 -56t-55.5 -139t55.5 -139.5t137.5 -56.5z" />
    <glyph glyph-name="aacute.ss01" horiz-adv-x="656" 
d="M297 577l79 163h81l-98 -163h-62zM299 -10q-106 0 -180 76t-74 187t75.5 189t181.5 78q64 0 117.5 -30t85.5 -83l9 103h62v-510h-62l-9 105q-33 -54 -87 -84.5t-119 -30.5zM313 59q82 0 137.5 56.5t55.5 139.5t-55.5 139t-137.5 56t-137.5 -56t-55.5 -139t55.5 -139.5
t137.5 -56.5z" />
    <glyph glyph-name="abreve.ss01" horiz-adv-x="656" 
d="M328 577q-70 0 -115.5 45t-45.5 113v5h59v-8q0 -46 28.5 -74.5t74.5 -28.5t73.5 28.5t27.5 74.5v8h59v-5q0 -68 -45.5 -113t-115.5 -45zM299 -10q-106 0 -180 76t-74 187t75.5 189t181.5 78q64 0 117.5 -30t85.5 -83l9 103h62v-510h-62l-9 105q-33 -54 -87 -84.5
t-119 -30.5zM313 59q82 0 137.5 56.5t55.5 139.5t-55.5 139t-137.5 56t-137.5 -56t-55.5 -139t55.5 -139.5t137.5 -56.5z" />
    <glyph glyph-name="acircumflex.ss01" horiz-adv-x="656" 
d="M143 577l150 163h70l150 -163h-70l-117 112l-116 -112h-67zM299 -10q-106 0 -180 76t-74 187t75.5 189t181.5 78q64 0 117.5 -30t85.5 -83l9 103h62v-510h-62l-9 105q-33 -54 -87 -84.5t-119 -30.5zM313 59q82 0 137.5 56.5t55.5 139.5t-55.5 139t-137.5 56t-137.5 -56
t-55.5 -139t55.5 -139.5t137.5 -56.5z" />
    <glyph glyph-name="adieresis.ss01" horiz-adv-x="656" 
d="M228 607q-21 0 -35 14.5t-14 34.5t14.5 34.5t34.5 14.5q21 0 35 -14t14 -34q0 -21 -14.5 -35.5t-34.5 -14.5zM428 607q-21 0 -35 14.5t-14 34.5t14.5 34.5t34.5 14.5q21 0 35 -14t14 -34q0 -21 -14.5 -35.5t-34.5 -14.5zM299 -10q-106 0 -180 76t-74 187t75.5 189
t181.5 78q64 0 117.5 -30t85.5 -83l9 103h62v-510h-62l-9 105q-33 -54 -87 -84.5t-119 -30.5zM313 59q82 0 137.5 56.5t55.5 139.5t-55.5 139t-137.5 56t-137.5 -56t-55.5 -139t55.5 -139.5t137.5 -56.5z" />
    <glyph glyph-name="agrave.ss01" horiz-adv-x="656" 
d="M297 577l-99 163h82l78 -163h-61zM299 -10q-106 0 -180 76t-74 187t75.5 189t181.5 78q64 0 117.5 -30t85.5 -83l9 103h62v-510h-62l-9 105q-33 -54 -87 -84.5t-119 -30.5zM313 59q82 0 137.5 56.5t55.5 139.5t-55.5 139t-137.5 56t-137.5 -56t-55.5 -139t55.5 -139.5
t137.5 -56.5z" />
    <glyph glyph-name="amacron.ss01" horiz-adv-x="656" 
d="M148 635v50h360v-50h-360zM299 -10q-106 0 -180 76t-74 187t75.5 189t181.5 78q64 0 117.5 -30t85.5 -83l9 103h62v-510h-62l-9 105q-33 -54 -87 -84.5t-119 -30.5zM313 59q82 0 137.5 56.5t55.5 139.5t-55.5 139t-137.5 56t-137.5 -56t-55.5 -139t55.5 -139.5
t137.5 -56.5z" />
    <glyph glyph-name="aogonek.ss01" horiz-adv-x="656" 
d="M667 -114l18 -46q-29 -25 -85 -25q-58 0 -96.5 33t-38.5 85q0 55 47 92l-7 80q-33 -54 -87 -84.5t-119 -30.5q-106 0 -180 76t-74 187t75.5 189t181.5 78q64 0 117.5 -30t85.5 -83l9 103h62v-510h-28q-26 -16 -26 -58q0 -32 24 -52t60 -20q16 0 31.5 4t22.5 8zM313 59
q82 0 137.5 56.5t55.5 139.5t-55.5 139t-137.5 56t-137.5 -56t-55.5 -139t55.5 -139.5t137.5 -56.5z" />
    <glyph glyph-name="aring.ss01" horiz-adv-x="656" 
d="M329 557q-41 0 -68.5 26t-27.5 66q0 39 27.5 65t68.5 26q40 0 68 -26t28 -65t-28 -65.5t-68 -26.5zM329 595q22 0 38 15.5t16 38.5t-16 38t-38 15q-23 0 -39 -15t-16 -38q0 -24 16 -39t39 -15zM299 -10q-106 0 -180 76t-74 187t75.5 189t181.5 78q64 0 117.5 -30
t85.5 -83l9 103h62v-510h-62l-9 105q-33 -54 -87 -84.5t-119 -30.5zM313 59q82 0 137.5 56.5t55.5 139.5t-55.5 139t-137.5 56t-137.5 -56t-55.5 -139t55.5 -139.5t137.5 -56.5z" />
    <glyph glyph-name="aringacute.ss01" horiz-adv-x="656" 
d="M514 510h62v-510h-62l-9 105q-33 -54 -87 -84.5t-119 -30.5q-106 0 -180 76t-74 187q0 99 62 173.5t154 90.5q-34 26 -34 70q0 39 27.5 65t68.5 26h4l27 62h82l-51 -83q34 -26 34 -70q0 -51 -45 -78q85 -26 131 -102zM323 641q-23 0 -39 -15.5t-16 -38.5q0 -24 16 -39
t39 -15t38.5 15t15.5 39q0 23 -15.5 38.5t-38.5 15.5zM313 59q82 0 137.5 56.5t55.5 139.5t-55.5 139t-137.5 56t-137.5 -56t-55.5 -139t55.5 -139.5t137.5 -56.5z" />
    <glyph glyph-name="atilde.ss01" horiz-adv-x="656" 
d="M403 585q-27 0 -50 14t-36 30.5t-31 30.5t-37 14q-18 0 -29.5 -18t-13.5 -36l-2 -18l-49 6q0 5 1 13t6.5 28t14.5 35.5t28.5 28t45.5 12.5q28 0 51 -14t36 -30.5t30.5 -30.5t36.5 -14t30.5 18t13.5 36l2 18l49 -5q0 -5 -1 -13t-6.5 -28t-15 -35.5t-29 -28.5t-45.5 -13z
M299 -10q-106 0 -180 76t-74 187t75.5 189t181.5 78q64 0 117.5 -30t85.5 -83l9 103h62v-510h-62l-9 105q-33 -54 -87 -84.5t-119 -30.5zM313 59q82 0 137.5 56.5t55.5 139.5t-55.5 139t-137.5 56t-137.5 -56t-55.5 -139t55.5 -139.5t137.5 -56.5z" />
    <glyph glyph-name="k.ss01" horiz-adv-x="588" 
d="M270 257l-115 -90v-167h-75v700h75v-449l320 259h105l-254 -207l264 -303h-97z" />
    <glyph glyph-name="uni0137.ss01" horiz-adv-x="588" 
d="M270 257l-115 -90v-167h-75v700h75v-449l320 259h105l-254 -207l264 -303h-97zM205 -213l79 163h81l-98 -163h-62z" />
    <glyph glyph-name="uni0414.loclBGR" horiz-adv-x="830" 
d="M729 69h76v-189h-76v120h-629v-120h-75v189h76l275 631h78zM413 608l-232 -539h464z" />
    <glyph glyph-name="uni041B.loclBGR" horiz-adv-x="685" 
d="M678 0h-87l-250 603l-251 -603h-83l297 700h78z" />
    <glyph glyph-name="uni0424.loclBGR" horiz-adv-x="940" 
d="M885 352q0 -152 -106.5 -255t-270.5 -107v-80h-76v80q-166 3 -271.5 104.5t-105.5 253.5t106.5 255t270.5 107v80h76v-80q165 -2 271 -104t106 -254zM133 350q0 -122 83.5 -204t215.5 -85v578q-132 -3 -215.5 -85t-83.5 -204zM508 61q132 3 215.5 85t83.5 204t-83.5 204
t-215.5 85v-578z" />
    <glyph glyph-name="uni0416.ss01" horiz-adv-x="1127" 
d="M-3 0l345 393l-325 307h101l407 -386v386h78v-386l406 386h101l-324 -307l344 -393h-100l-300 344l-127 -117v-227h-78v227l-128 117l-300 -344h-100z" />
    <glyph glyph-name="uni041A.ss01" horiz-adv-x="703" 
d="M305 344l-127 -117v-227h-78v700h78v-386l406 386h101l-324 -307l344 -393h-100z" />
    <glyph glyph-name="uni040C.ss01" horiz-adv-x="703" 
d="M321 767l79 163h81l-98 -163h-62zM305 344l-127 -117v-227h-78v700h78v-386l406 386h101l-324 -307l344 -393h-100z" />
    <glyph glyph-name="uni0496.ss01" horiz-adv-x="1185" 
d="M1070 69h90v-189h-75v120h-55l-300 344l-127 -117v-227h-78v227l-128 117l-300 -344h-100l345 393l-325 307h101l407 -386v386h78v-386l406 386h101l-324 -307z" />
    <glyph glyph-name="uni049A.ss01" horiz-adv-x="760" 
d="M645 69h90v-189h-75v120h-55l-300 344l-127 -117v-227h-78v700h78v-386l406 386h101l-324 -307z" />
    <glyph glyph-name="uni04A0.ss01" horiz-adv-x="783" 
d="M25 633v67h233v-386l406 386h101l-324 -307l344 -393h-100l-300 344l-127 -117v-227h-78v633h-155z" />
    <glyph glyph-name="uni04C1.ss01" horiz-adv-x="1127" 
d="M564 767q-70 0 -115.5 45t-45.5 113v5h59v-8q0 -46 28.5 -74.5t74.5 -28.5t73.5 28.5t27.5 74.5v8h59v-5q0 -68 -45.5 -113t-115.5 -45zM-3 0l345 393l-325 307h101l407 -386v386h78v-386l406 386h101l-324 -307l344 -393h-100l-300 344l-127 -117v-227h-78v227l-128 117
l-300 -344h-100z" />
    <glyph glyph-name="uni04DC.ss01" horiz-adv-x="1127" 
d="M464 797q-21 0 -35 14.5t-14 34.5t14.5 34.5t34.5 14.5q21 0 35 -14t14 -34q0 -21 -14.5 -35.5t-34.5 -14.5zM664 797q-21 0 -35 14.5t-14 34.5t14.5 34.5t34.5 14.5q21 0 35 -14t14 -34q0 -21 -14.5 -35.5t-34.5 -14.5zM-3 0l345 393l-325 307h101l407 -386v386h78v-386
l406 386h101l-324 -307l344 -393h-100l-300 344l-127 -117v-227h-78v227l-128 117l-300 -344h-100z" />
    <glyph glyph-name="uni0432.loclBGR" horiz-adv-x="610" 
d="M432 370q63 -21 98 -68.5t35 -111.5q0 -86 -65 -143t-167 -57q-112 0 -182.5 64.5t-70.5 173.5v236q0 111 65 178.5t167 67.5q98 0 160.5 -52.5t62.5 -131.5q0 -51 -27 -91.5t-76 -64.5zM311 644q-68 0 -112 -46t-44 -125v-80h156q65 0 107 35.5t42 89.5q0 55 -42 90.5
t-107 35.5zM334 56q71 0 113.5 39t42.5 100t-43.5 100t-116.5 39h-175v-112q0 -73 51 -119.5t128 -46.5z" />
    <glyph glyph-name="uni0433.loclBGR" horiz-adv-x="450" 
d="M335 389q0 27 -27 47.5t-77 20.5q-34 0 -67 -11.5t-49 -23.5l-16 -11l-33 53q7 6 21 15.5t58 25t89 15.5q83 0 129.5 -38t46.5 -92t-43 -92.5t-115 -57.5q-80 -21 -111 -47t-31 -61q0 -34 29.5 -57t81.5 -23q40 0 79 14t58 28l19 13l34 -52q-8 -7 -23 -18t-64 -29
t-102 -18q-87 0 -137 41t-50 101q0 115 173 161q127 33 127 96z" />
    <glyph glyph-name="uni0434.loclBGR" horiz-adv-x="656" 
d="M88 -41q9 -7 26 -17.5t70 -28t107 -17.5q101 0 155.5 55t54.5 155v29q-31 -47 -83.5 -73.5t-117.5 -26.5q-107 0 -181 70t-74 171q0 102 74.5 173t183.5 71q64 0 117 -27.5t86 -75.5l8 93h62v-390q0 -133 -74 -211.5t-207 -78.5q-41 0 -81 7.5t-67 18t-48.5 21.5
t-32.5 19l-10 7zM506 276q0 76 -55.5 127t-137.5 51t-137.5 -51t-55.5 -127q0 -75 55.5 -126.5t137.5 -51.5t137.5 51.5t55.5 126.5z" />
    <glyph glyph-name="uni0436.loclBGR" horiz-adv-x="865" 
d="M-3 0l313 276l-293 234h105l273 -227v417h75v-417l273 227h105l-293 -234l313 -276h-105l-293 263v-263h-75v263l-293 -263h-105z" />
    <glyph glyph-name="uni0438.loclBGR" horiz-adv-x="612" 
d="M456 510h75v-510h-67l-5 99q-57 -109 -189 -109q-86 0 -142.5 60t-56.5 172v288h75v-263q0 -94 41.5 -140.5t104.5 -46.5q72 0 118 49t46 153v248z" />
    <glyph glyph-name="uni0439.loclBGR" horiz-adv-x="612" 
d="M306 577q-70 0 -115.5 45t-45.5 113v5h59v-8q0 -46 28.5 -74.5t74.5 -28.5t73.5 28.5t27.5 74.5v8h59v-5q0 -68 -45.5 -113t-115.5 -45zM456 510h75v-510h-67l-5 99q-57 -109 -189 -109q-86 0 -142.5 60t-56.5 172v288h75v-263q0 -94 41.5 -140.5t104.5 -46.5
q72 0 118 49t46 153v248z" />
    <glyph glyph-name="uni045D.loclBGR" horiz-adv-x="612" 
d="M275 577l-99 163h82l78 -163h-61zM456 510h75v-510h-67l-5 99q-57 -109 -189 -109q-86 0 -142.5 60t-56.5 172v288h75v-263q0 -94 41.5 -140.5t104.5 -46.5q72 0 118 49t46 153v248z" />
    <glyph glyph-name="uni043A.loclBGR" horiz-adv-x="553" 
d="M80 0v700h75v-417l273 227h107l-292 -234l312 -276h-107l-293 263v-263h-75z" />
    <glyph glyph-name="uni043B.loclBGR" horiz-adv-x="518" 
d="M296 510l217 -510h-84l-171 416l-172 -416h-81l217 510h74z" />
    <glyph glyph-name="uni043F.loclBGR" horiz-adv-x="611" 
d="M155 0h-75v510h67l5 -99q57 109 189 109q86 0 142.5 -60t56.5 -172v-288h-75v263q0 94 -41.5 140.5t-104.5 46.5q-72 0 -118 -49t-46 -153v-248z" />
    <glyph glyph-name="uni0442.loclBGR" horiz-adv-x="976" 
d="M80 510h67l5 -97q28 53 76 80t108 27q62 0 110 -33.5t69 -98.5q25 65 76.5 98.5t118.5 33.5q84 0 139.5 -59t55.5 -170v-291h-76v267q0 92 -39.5 137.5t-100.5 45.5q-69 0 -114 -45.5t-45 -141.5v-263h-75v267q0 92 -40 137.5t-101 45.5q-69 0 -114 -45.5t-45 -141.5
v-263h-75v510z" />
    <glyph glyph-name="uni0446.loclBGR" horiz-adv-x="639" 
d="M531 67h83v-187h-73v120h-77l-5 99q-57 -109 -189 -109q-86 0 -142.5 60t-56.5 172v288h75v-263q0 -94 41.5 -140.5t104.5 -46.5q72 0 118 49t46 153v248h75v-443z" />
    <glyph glyph-name="uni0448.loclBGR" horiz-adv-x="976" 
d="M896 0h-67l-5 97q-28 -53 -76 -80t-108 -27q-62 0 -110 33.5t-69 98.5q-25 -65 -76.5 -98.5t-118.5 -33.5q-84 0 -139.5 59t-55.5 170v291h76v-267q0 -92 39.5 -137.5t100.5 -45.5q69 0 114 45.5t45 141.5v263h75v-267q0 -92 40 -137.5t101 -45.5q69 0 114 45.5t45 141.5
v263h75v-510z" />
    <glyph glyph-name="uni0449.loclBGR" horiz-adv-x="1009" 
d="M896 67h83v-187h-73v120h-76l-6 96q-56 -106 -184 -106q-62 0 -110 33.5t-69 97.5q-25 -65 -76.5 -98t-118.5 -33q-84 0 -139.5 59t-55.5 169v292h76v-267q0 -93 40 -138.5t100 -45.5q69 0 114 45.5t45 141.5v264h75v-267q0 -92 40 -138t101 -46q69 0 114 45.5t45 141.5
v264h75v-443z" />
    <glyph glyph-name="uni044C.loclBGR" horiz-adv-x="540" 
d="M80 212v298h75v-152h152q84 0 139.5 -51.5t55.5 -125.5q0 -78 -57 -129.5t-153 -51.5q-98 0 -155 57.5t-57 154.5zM155 205q0 -66 36 -104t100 -38q63 0 99.5 33.5t36.5 84.5q0 50 -36.5 84t-93.5 34h-142v-94z" />
    <glyph glyph-name="uni044A.loclBGR" horiz-adv-x="620" 
d="M235 358h152q84 0 139.5 -51.5t55.5 -125.5q0 -78 -57 -129.5t-153 -51.5q-98 0 -155 57.5t-57 154.5v233h-135v65h210v-152zM235 205q0 -66 36 -104t100 -38q63 0 99.5 33.5t36.5 84.5q0 50 -36.5 84t-93.5 34h-142v-94z" />
    <glyph glyph-name="uni044E.loclBGR" horiz-adv-x="869" 
d="M557 520q114 0 190.5 -76t76.5 -188t-78 -189t-192 -77q-107 0 -181.5 67t-84.5 170h-131v-227h-77v700h77v-407h133q14 98 89 162.5t178 64.5zM556 59q82 0 137.5 56.5t55.5 139.5t-55.5 139t-137.5 56t-137.5 -56t-55.5 -139t55.5 -139.5t137.5 -56.5z" />
    <glyph glyph-name="uni0431.loclSRB" horiz-adv-x="627" 
d="M325 509q124 -23 190.5 -91.5t66.5 -166.5q0 -109 -78 -185t-192 -76t-190.5 74.5t-76.5 182.5q0 82 48 142.5t128 84.5q-144 42 -144 128q0 43 32.5 70.5t87.5 27.5h326v-63h-301q-67 0 -67 -43q0 -25 35 -45t135 -40zM314 58q82 0 137.5 55t55.5 136q0 79 -55.5 130.5
t-137.5 51.5q-83 0 -138.5 -51.5t-55.5 -130.5q0 -81 56 -136t138 -55z" />
    <glyph glyph-name="uni0430.ss01" horiz-adv-x="656" 
d="M299 -10q-106 0 -180 76t-74 187t75.5 189t181.5 78q64 0 117.5 -30t85.5 -83l9 103h62v-510h-62l-9 105q-33 -54 -87 -84.5t-119 -30.5zM313 59q82 0 137.5 56.5t55.5 139.5t-55.5 139t-137.5 56t-137.5 -56t-55.5 -139t55.5 -139.5t137.5 -56.5z" />
    <glyph glyph-name="uni0436.ss01" horiz-adv-x="940" 
d="M-3 0l264 303l-254 207h106l319 -259v259h76v-259l319 259h106l-254 -207l264 -303h-97l-223 257l-115 -90v-167h-76v167l-115 90l-223 -257h-97z" />
    <glyph glyph-name="uni043A.ss01" horiz-adv-x="588" 
d="M270 257l-115 -90v-167h-75v510h75v-259l320 259h105l-254 -207l264 -303h-97z" />
    <glyph glyph-name="uni045C.ss01" horiz-adv-x="588" 
d="M263 577l79 163h81l-98 -163h-62zM270 257l-115 -90v-167h-75v510h75v-259l320 259h105l-254 -207l264 -303h-97z" />
    <glyph glyph-name="uni0497.ss01" horiz-adv-x="987" 
d="M885 67h78v-187h-73v120h-44l-223 257l-115 -90v-167h-76v167l-115 90l-223 -257h-97l264 303l-254 207h106l319 -259v259h76v-259l319 259h106l-254 -207z" />
    <glyph glyph-name="uni049B.ss01" horiz-adv-x="635" 
d="M532 67h78v-187h-73v120h-44l-223 257l-115 -90v-167h-75v510h75v-259l320 259h105l-254 -207z" />
    <glyph glyph-name="uni04A1.ss01" horiz-adv-x="668" 
d="M25 445v65h210v-259l320 259h105l-254 -207l264 -303h-97l-223 257l-115 -90v-167h-75v445h-135z" />
    <glyph glyph-name="uni04C2.ss01" horiz-adv-x="940" 
d="M470 577q-70 0 -115.5 45t-45.5 113v5h59v-8q0 -46 28.5 -74.5t74.5 -28.5t73.5 28.5t27.5 74.5v8h59v-5q0 -68 -45.5 -113t-115.5 -45zM-3 0l264 303l-254 207h106l319 -259v259h76v-259l319 259h106l-254 -207l264 -303h-97l-223 257l-115 -90v-167h-76v167l-115 90
l-223 -257h-97z" />
    <glyph glyph-name="uni04D1.ss01" horiz-adv-x="656" 
d="M328 577q-70 0 -115.5 45t-45.5 113v5h59v-8q0 -46 28.5 -74.5t74.5 -28.5t73.5 28.5t27.5 74.5v8h59v-5q0 -68 -45.5 -113t-115.5 -45zM299 -10q-106 0 -180 76t-74 187t75.5 189t181.5 78q64 0 117.5 -30t85.5 -83l9 103h62v-510h-62l-9 105q-33 -54 -87 -84.5
t-119 -30.5zM313 59q82 0 137.5 56.5t55.5 139.5t-55.5 139t-137.5 56t-137.5 -56t-55.5 -139t55.5 -139.5t137.5 -56.5z" />
    <glyph glyph-name="uni04D3.ss01" horiz-adv-x="656" 
d="M228 607q-21 0 -35 14.5t-14 34.5t14.5 34.5t34.5 14.5q21 0 35 -14t14 -34q0 -21 -14.5 -35.5t-34.5 -14.5zM428 607q-21 0 -35 14.5t-14 34.5t14.5 34.5t34.5 14.5q21 0 35 -14t14 -34q0 -21 -14.5 -35.5t-34.5 -14.5zM299 -10q-106 0 -180 76t-74 187t75.5 189
t181.5 78q64 0 117.5 -30t85.5 -83l9 103h62v-510h-62l-9 105q-33 -54 -87 -84.5t-119 -30.5zM313 59q82 0 137.5 56.5t55.5 139.5t-55.5 139t-137.5 56t-137.5 -56t-55.5 -139t55.5 -139.5t137.5 -56.5z" />
    <glyph glyph-name="uni04DD.ss01" horiz-adv-x="940" 
d="M370 607q-21 0 -35 14.5t-14 34.5t14.5 34.5t34.5 14.5q21 0 35 -14t14 -34q0 -21 -14.5 -35.5t-34.5 -14.5zM570 607q-21 0 -35 14.5t-14 34.5t14.5 34.5t34.5 14.5q21 0 35 -14t14 -34q0 -21 -14.5 -35.5t-34.5 -14.5zM-3 0l264 303l-254 207h106l319 -259v259h76v-259
l319 259h106l-254 -207l264 -303h-97l-223 257l-115 -90v-167h-76v167l-115 90l-223 -257h-97z" />
    <glyph glyph-name="uni0436.loclBGR.ss01" horiz-adv-x="940" 
d="M-3 0l264 303l-254 207h106l319 -259v449h76v-449l319 259h106l-254 -207l264 -303h-97l-223 257l-115 -90v-167h-76v167l-115 90l-223 -257h-97z" />
    <glyph glyph-name="uni043A.loclBGR.ss01" horiz-adv-x="588" 
d="M270 257l-115 -90v-167h-75v700h75v-449l320 259h105l-254 -207l264 -303h-97z" />
    <glyph glyph-name="Kappa.ss01" horiz-adv-x="703" 
d="M305 344l-127 -117v-227h-78v700h78v-386l406 386h101l-324 -307l344 -393h-100z" />
    <glyph glyph-name="kappa.ss01" horiz-adv-x="588" 
d="M270 257l-115 -90v-167h-75v510h75v-259l320 259h105l-254 -207l264 -303h-97z" />
    <glyph glyph-name="zero.osf" horiz-adv-x="565" 
d="M62 421q0 106 62 167.5t160 61.5t158.5 -60t60.5 -166v-205q0 -106 -62 -167.5t-160 -61.5t-158.5 60t-60.5 166v205zM137 210q0 -70 40 -111t106 -41t105.5 41t39.5 111v220q0 70 -39.5 111t-105.5 41t-106 -41t-40 -111v-220z" />
    <glyph glyph-name="one.osf" horiz-adv-x="430" 
d="M261 640h59v-640h-74v547l-182 -126l-39 51z" />
    <glyph glyph-name="two.osf" horiz-adv-x="515" 
d="M46 0v53l256 246q47 45 66 81t19 76q0 55 -38.5 91t-94.5 36q-32 0 -60 -10.5t-44.5 -25t-28.5 -29t-17 -24.5l-4 -11l-58 27q2 6 6.5 15.5t22 33.5t39.5 42.5t62.5 33.5t87.5 15q85 0 143 -53t58 -134q0 -57 -26.5 -105t-86.5 -105l-197 -189h305v-64h-410z" />
    <glyph glyph-name="three.osf" horiz-adv-x="518" 
d="M237 -10q-43 0 -80 12t-59.5 28.5t-39 33.5t-22.5 29l-7 12l60 30q2 -3 5.5 -8.5t16.5 -19.5t28.5 -24.5t42 -19.5t56.5 -9q69 0 112 35t43 90t-43.5 91t-114.5 36h-65v56h65q64 0 101 31.5t37 81.5t-36.5 80.5t-97.5 30.5q-42 0 -73 -17.5t-42 -34.5l-10 -18l-61 26
q2 4 6 11.5t20 26t36 33t54 26t73 11.5q90 0 148 -46.5t58 -121.5q0 -50 -29 -88t-79 -58q59 -19 93.5 -61t34.5 -98q0 -81 -65.5 -134t-165.5 -53z" />
    <glyph glyph-name="four.osf" horiz-adv-x="565" 
d="M356 0v159h-319v59l318 422h73v-424h100v-57h-100v-159h-72zM102 216h254v332z" />
    <glyph glyph-name="five.osf" horiz-adv-x="541" 
d="M76 640h380v-64h-313v-204q51 49 131 49q94 0 155.5 -58.5t61.5 -147.5q0 -98 -67.5 -161.5t-169.5 -63.5q-39 0 -74.5 10.5t-58 26t-39.5 31t-24 26.5l-8 10l56 39q2 -3 6 -8.5t17.5 -18.5t29.5 -23t42 -18.5t55 -8.5q70 0 115.5 43.5t45.5 112.5q0 63 -44.5 104.5
t-111.5 41.5q-41 0 -72 -17.5t-42 -31.5t-11 -18h-60v349z" />
    <glyph glyph-name="six.osf" horiz-adv-x="565" 
d="M50 210q0 83 59 162l196 268h84l-181 -238q40 23 91 23q90 0 153 -60t63 -151q0 -96 -68 -160t-166 -64q-97 0 -164 62.5t-67 157.5zM124 211q0 -66 45 -109t114 -43q68 0 113 43t45 109q0 67 -45 110t-113 43q-69 0 -114 -43t-45 -110z" />
    <glyph glyph-name="seven.osf" horiz-adv-x="485" 
d="M374 575h-347v65h431v-49l-279 -591h-79z" />
    <glyph glyph-name="eight.osf" horiz-adv-x="565" 
d="M79 480q0 73 58.5 121.5t146.5 48.5t145 -47t57 -120q0 -44 -25.5 -81t-69.5 -58q57 -21 90.5 -63.5t33.5 -97.5q0 -84 -66.5 -138.5t-167.5 -54.5t-166 53t-65 137q0 54 33.5 97t90.5 65q-44 20 -69.5 56.5t-25.5 81.5zM152 478q0 -46 37 -77.5t94 -31.5t93.5 31.5
t36.5 77.5t-36.5 77.5t-93.5 31.5q-58 0 -94.5 -31.5t-36.5 -77.5zM124 183q0 -57 44.5 -93.5t114.5 -36.5q69 0 113.5 36.5t44.5 93.5t-44.5 94.5t-113.5 37.5t-114 -37.5t-45 -94.5z" />
    <glyph glyph-name="nine.osf" horiz-adv-x="565" 
d="M515 430q0 -83 -59 -162l-196 -268h-84l181 238q-40 -23 -91 -23q-90 0 -153 60t-63 151q0 96 68 160t166 64q97 0 164 -62.5t67 -157.5zM441 429q0 66 -45 109t-113 43q-69 0 -114 -43t-45 -109q0 -67 45 -110t114 -43q68 0 113 43t45 110z" />
    <glyph glyph-name="zero.tf" 
d="M72 471q0 111 64.5 175t167.5 64t166 -62.5t63 -173.5v-245q0 -111 -64.5 -175t-167.5 -64t-166 62.5t-63 173.5v245zM148 220q0 -74 42.5 -117.5t112.5 -43.5q69 0 111.5 43.5t42.5 117.5v260q0 74 -42.5 117.5t-111.5 43.5q-70 0 -112.5 -43.5t-42.5 -117.5v-260z" />
    <glyph glyph-name="one.tf" 
d="M86 0v63h211v544l-186 -128l-39 51l240 170h61v-637h181v-63h-468z" />
    <glyph glyph-name="two.tf" 
d="M72 0v54l268 261q56 56 79 98t23 88q0 60 -43 100.5t-109 40.5q-33 0 -62 -11t-47 -26t-31 -30.5t-18 -26.5l-6 -11l-57 33q2 6 7 15.5t23.5 33.5t42 42.5t65 33.5t89.5 15q96 0 159 -58t63 -144q0 -64 -30 -118.5t-100 -121.5l-207 -203h332v-65h-441z" />
    <glyph glyph-name="three.tf" 
d="M281 -10q-45 0 -85 12.5t-65 30.5t-43.5 36t-25.5 31l-8 12l56 36q2 -4 6.5 -10t20 -21.5t33.5 -27.5t47.5 -22t62.5 -10q79 0 127.5 39.5t48.5 98.5q0 60 -49 100t-131 40h-65v60h68q74 0 115.5 35t41.5 90q0 54 -42 88.5t-113 34.5q-47 0 -83.5 -20.5t-49.5 -40.5
l-13 -20l-56 32q2 5 7 12.5t23 27.5t39.5 35.5t58.5 28t79 12.5q99 0 162 -51t63 -131q0 -55 -32.5 -97.5t-89.5 -63.5q65 -22 103.5 -69t38.5 -108q0 -87 -70.5 -143.5t-179.5 -56.5z" />
    <glyph glyph-name="four.tf" 
d="M385 0v185h-338v63l336 452h75v-454h100v-61h-100v-185h-73zM114 246h271v358z" />
    <glyph glyph-name="five.tf" 
d="M95 700h410v-65h-342v-234q60 54 145 54q100 0 166 -64.5t66 -159.5q0 -103 -72 -172t-180 -69q-41 0 -78.5 10.5t-62 26t-43 31t-26.5 26.5l-9 10l56 41q2 -3 6.5 -8t20 -18.5t33 -23.5t45.5 -18t58 -8q77 0 127 48.5t50 121.5q0 68 -48.5 113.5t-121.5 45.5
q-27 0 -51 -7t-39 -16.5t-26.5 -20t-16.5 -17t-5 -7.5h-62v380z" />
    </font>
</defs>
</svg>
