<?xml version="1.0" standalone="no"?>
<!DOCTYPE svg PUBLIC "-//W3C//DTD SVG 1.1//EN" "http://www.w3.org/Graphics/SVG/1.1/DTD/svg11.dtd" >
<svg xmlns="http://www.w3.org/2000/svg" xmlns:xlink="http://www.w3.org/1999/xlink" version="1.1">
<metadata>
Created by FontForge 20170731 at Thu Feb  6 18:54:04 2020
 By Aleksey,,,
Copyright (c) 2020 by Richard Miller. All rights reserved.
</metadata>
<defs>
<font id="UniformPro-Ult" horiz-adv-x="625" >
  <font-face 
    font-family="Uniform Pro Ultra"
    font-weight="400"
    font-stretch="normal"
    units-per-em="1000"
    panose-1="0 0 10 0 0 0 0 0 0 0"
    ascent="821"
    descent="-179"
    x-height="524"
    cap-height="700"
    bbox="-556 -223 1230 945"
    underline-thickness="50"
    underline-position="-200"
    unicode-range="U+0020-FB02"
  />
<missing-glyph horiz-adv-x="691" 
d="M20 0v700h651v-700h-651zM186 155l159 159l159 -159l36 36l-159 159l159 158l-36 36l-159 -158l-158 159l-36 -36l158 -159l-159 -159z" />
    <glyph glyph-name="ellipsis" unicode="&#x2e;&#x2e;&#x2e;" horiz-adv-x="1174" 
d="M50 119q0 54 37.5 91.5t91.5 37.5t91.5 -37.5t37.5 -91.5t-37.5 -91.5t-91.5 -37.5t-91.5 37.5t-37.5 91.5zM458 119q0 54 37.5 91.5t91.5 37.5t91.5 -37.5t37.5 -91.5t-37.5 -91.5t-91.5 -37.5t-91.5 37.5t-37.5 91.5zM866 119q0 54 37.5 91.5t91.5 37.5t91.5 -37.5
t37.5 -91.5t-37.5 -91.5t-91.5 -37.5t-91.5 37.5t-37.5 91.5z" />
    <glyph glyph-name="fi" unicode="fi" horiz-adv-x="762" 
d="M480 661q0 51 36 84t93 33q56 0 92.5 -33t36.5 -84t-36.5 -83.5t-92.5 -32.5q-57 0 -93 32.5t-36 83.5zM105 0v320h-85v174h85v28q0 87 50.5 137.5t139.5 50.5q44 0 81.5 -5t53.5 -11l15 -5l-23 -161q-25 10 -58 10q-44 0 -44 -34v-10h115v-174h-115v-320h-215zM500 524
h217v-524h-217v524z" />
    <glyph glyph-name="fl" unicode="fl" horiz-adv-x="762" 
d="M105 0v320h-85v174h85v28q0 87 50.5 137.5t139.5 50.5q44 0 81.5 -5t53.5 -11l15 -5l-23 -161q-25 10 -58 10q-44 0 -44 -34v-10h115v-174h-115v-320h-215zM500 700h217v-700h-217v700z" />
    <glyph glyph-name="f_f.liga" unicode="ff" horiz-adv-x="840" 
d="M105 0v320h-85v174h85v28q0 87 50.5 137.5t139.5 50.5q44 0 81.5 -5t53.5 -11l15 -5l-23 -161q-25 10 -58 10q-44 0 -44 -34v-10h115v-174h-115v-320h-215zM490 0v500q0 99 53 154.5t150 55.5q42 0 76 -5t47 -11l14 -5l-23 -158q-20 7 -52 7q-49 0 -49 -44h114v-174h-114
v-320h-216z" />
    <glyph glyph-name="f_t.liga" unicode="ft" horiz-adv-x="855" 
d="M105 0v320h-85v174h85v28q0 87 50.5 137.5t139.5 50.5q44 0 81.5 -5t53.5 -11l15 -5l-23 -161q-25 10 -58 10q-44 0 -44 -34v-10h115v-174h-115v-320h-215zM671 -10q-83 0 -132 44t-49 122v484h216v-116h119v-180h-119v-125q0 -32 28 -32q15 0 32 2.5t26 4.5l10 2
l23 -180q-65 -26 -154 -26z" />
    <glyph glyph-name="r_f.liga" unicode="rf" horiz-adv-x="815" 
d="M465 0v500q0 99 53 154.5t150 55.5q42 0 76 -5t48 -11l13 -5l-23 -158q-20 7 -52 7q-49 0 -49 -44h114v-174h-114v-320h-216zM40 0v524h192l10 -86q54 96 175 96l-4 -222h-46q-56 0 -84 -26t-28 -85v-201h-215z" />
    <glyph glyph-name="r_t.liga" unicode="rt" horiz-adv-x="830" 
d="M646 -10q-83 0 -132 44t-49 122v484h216v-116h119v-180h-119v-125q0 -32 28 -32q15 0 32 2.5t27 4.5l9 2l23 -180q-65 -26 -154 -26zM40 0v524h192l10 -86q54 96 175 96l-4 -222h-46q-56 0 -84 -26t-28 -85v-201h-215z" />
    <glyph glyph-name="r_t_f.liga" unicode="rtf" horiz-adv-x="1205" 
d="M855 0v500q0 99 53 154.5t150 55.5q42 0 76 -5t48 -11l13 -5l-23 -158q-20 7 -52 7q-49 0 -49 -44h114v-174h-114v-320h-216zM646 -10q-83 0 -132 44t-49 122v484h216v-116h119v-180h-119v-125q0 -32 28 -32q15 0 32 2.5t27 4.5l9 2l23 -180q-65 -26 -154 -26zM40 0v524
h192l10 -86q54 96 175 96l-4 -222h-46q-56 0 -84 -26t-28 -85v-201h-215z" />
    <glyph glyph-name="t_f.liga" unicode="tf" horiz-adv-x="845" 
d="M495 0v500q0 99 53 154.5t150 55.5q42 0 76 -5t48 -11l13 -5l-23 -158q-20 7 -52 7q-49 0 -49 -44h114v-174h-114v-320h-216zM291 -10q-87 0 -136.5 47t-49.5 131v182h-85v174h85v116h215v-116h120v-174h-120v-126q0 -37 33 -37q14 0 30 2.5t25 4.5l9 2l23 -180
q-63 -26 -149 -26z" />
    <glyph glyph-name="t_t.liga" unicode="tt" horiz-adv-x="860" 
d="M291 -10q-87 0 -136.5 47t-49.5 131v182h-85v174h85v116h215v-116h120v-174h-120v-126q0 -37 33 -37q14 0 30 2.5t25 4.5l9 2l23 -180q-63 -26 -149 -26zM676 -10q-83 0 -132 44t-49 122v484h216v-116h119v-174h-119v-131q0 -32 28 -32q15 0 32 2.5t27 4.5l9 2l23 -180
q-65 -26 -154 -26z" />
    <glyph glyph-name="checkboxfilled" unicode="[&#x2b;]" horiz-adv-x="940" 
d="M120 700h700v-700h-700v700z" />
    <glyph glyph-name="checkbox" unicode="[]" horiz-adv-x="940" 
d="M120 700h700v-700h-700v700zM251 574v-448h438v448h-438z" />
    <glyph glyph-name="star" unicode="&#x7b;&#x7d;" horiz-adv-x="978" 
d="M489 720l92 -283h297l-240 -174l91 -283l-240 175l-240 -175l91 283l-240 174h297z" />
    <glyph glyph-name="checkcirclefilled" unicode="&#x28;&#x2b;&#x29;" horiz-adv-x="920" 
d="M460 -10q-150 0 -255 105t-105 255q0 151 104.5 255.5t255.5 104.5q150 0 255 -105t105 -255q0 -151 -104.5 -255.5t-255.5 -104.5z" />
    <glyph glyph-name="checkcircle" unicode="&#x28;&#x29;" horiz-adv-x="920" 
d="M460 -10q-151 0 -255.5 104.5t-104.5 255.5t104.5 255.5t255.5 104.5t255.5 -104.5t104.5 -255.5t-104.5 -255.5t-255.5 -104.5zM460 118q96 0 162.5 67.5t66.5 164.5t-66.5 164.5t-162.5 67.5t-162.5 -67.5t-66.5 -164.5t66.5 -164.5t162.5 -67.5z" />
    <glyph glyph-name="rightarrow" unicode="&#x2d;&#x3e;" horiz-adv-x="876" 
d="M826 350l-393 -265v169h-383v192h383v169z" />
    <glyph glyph-name="leftarrow" unicode="&#x3c;&#x2d;" horiz-adv-x="876" 
d="M826 446v-192h-383v-169l-393 265l393 265v-169h383z" />
    <glyph glyph-name="downarrow" unicode="&#x2b;&#x3e;" horiz-adv-x="631" 
d="M411 355h170l-266 -393l-265 393h170v383h191v-383z" />
    <glyph glyph-name="uparrow" unicode="&#x3c;&#x2b;" horiz-adv-x="631" 
d="M581 345h-170v-383h-191v383h-170l265 393z" />
    <glyph glyph-name="rightarrowcircle" unicode="&#x28;&#x2d;&#x3e;&#x29;" horiz-adv-x="920" 
d="M460 -10q-151 0 -255.5 104.5t-104.5 255.5t104.5 255.5t255.5 104.5t255.5 -104.5t104.5 -255.5t-104.5 -255.5t-255.5 -104.5zM421 165l274 185l-274 185v-117h-151v-136h151v-117z" />
    <glyph glyph-name="leftarrowcircle" unicode="&#x28;&#x3c;&#x2d;&#x29;" horiz-adv-x="920" 
d="M460 -10q-151 0 -255.5 104.5t-104.5 255.5t104.5 255.5t255.5 104.5t255.5 -104.5t104.5 -255.5t-104.5 -255.5t-255.5 -104.5zM499 165v117h151v136h-151v117l-274 -185z" />
    <glyph glyph-name="downarrowcircle" unicode="&#x28;&#x2b;&#x3e;&#x29;" horiz-adv-x="920" 
d="M100 350q0 151 104.5 255.5t255.5 104.5t255.5 -104.5t104.5 -255.5t-104.5 -255.5t-255.5 -104.5t-255.5 104.5t-104.5 255.5zM275 389l185 -274l185 274h-117v151h-136v-151h-117z" />
    <glyph glyph-name="uparrowcircle" unicode="&#x28;&#x3c;&#x2b;&#x29;" horiz-adv-x="920" 
d="M100 350q0 151 104.5 255.5t255.5 104.5t255.5 -104.5t104.5 -255.5t-104.5 -255.5t-255.5 -104.5t-255.5 104.5t-104.5 255.5zM275 311h117v-151h136v151h117l-185 274z" />
    <glyph glyph-name="rightarrowring" unicode="&#x28;&#x28;&#x2d;&#x3e;&#x29;&#x29;" horiz-adv-x="920" 
d="M460 -10q-151 0 -255.5 104.5t-104.5 255.5t104.5 255.5t255.5 104.5t255.5 -104.5t104.5 -255.5t-104.5 -255.5t-255.5 -104.5zM460 108q101 0 170 70t69 172t-69 172t-170 70t-170 -70t-69 -172t69 -172t170 -70zM411 175l259 175l-259 175v-111h-141v-129h141v-110z
" />
    <glyph glyph-name="leftarrowring" unicode="&#x28;&#x28;&#x3c;&#x2d;&#x29;&#x29;" horiz-adv-x="920" 
d="M460 -10q-151 0 -255.5 104.5t-104.5 255.5t104.5 255.5t255.5 104.5t255.5 -104.5t104.5 -255.5t-104.5 -255.5t-255.5 -104.5zM460 108q101 0 170 70t69 172t-69 172t-170 70t-170 -70t-69 -172t69 -172t170 -70zM509 175v110h141v129h-141v111l-259 -175z" />
    <glyph glyph-name="downarrowring" unicode="&#x28;&#x28;&#x2b;&#x3e;&#x29;&#x29;" horiz-adv-x="920" 
d="M460 -10q-151 0 -255.5 104.5t-104.5 255.5t104.5 255.5t255.5 104.5t255.5 -104.5t104.5 -255.5t-104.5 -255.5t-255.5 -104.5zM460 108q101 0 170 70t69 172t-69 172t-170 70t-170 -70t-69 -172t69 -172t170 -70zM460 140l-175 259h110v141h129v-141h111z" />
    <glyph glyph-name="uparrowring" unicode="&#x28;&#x28;&#x3c;&#x2b;&#x29;&#x29;" horiz-adv-x="920" 
d="M460 -10q-151 0 -255.5 104.5t-104.5 255.5t104.5 255.5t255.5 104.5t255.5 -104.5t104.5 -255.5t-104.5 -255.5t-255.5 -104.5zM460 108q101 0 170 70t69 172t-69 172t-170 70t-170 -70t-69 -172t69 -172t170 -70zM395 160v141h-110l175 259l175 -259h-111v-141h-129z
" />
    <glyph glyph-name=".notdef" horiz-adv-x="691" 
d="M20 0v700h651v-700h-651zM186 155l159 159l159 -159l36 36l-159 159l159 158l-36 36l-159 -158l-158 159l-36 -36l158 -159l-159 -159z" />
    <glyph glyph-name=".null" horiz-adv-x="0" 
 />
    <glyph glyph-name="nonmarkingreturn" horiz-adv-x="333" 
 />
    <glyph glyph-name="space" unicode=" " horiz-adv-x="307" 
 />
    <glyph glyph-name="exclam" unicode="!" horiz-adv-x="358" 
d="M94 263l-47 437h263l-47 -437h-169zM179 -10q-54 0 -91.5 37.5t-37.5 91.5t37.5 91.5t91.5 37.5t91.5 -37.5t37.5 -91.5t-37.5 -91.5t-91.5 -37.5z" />
    <glyph glyph-name="quotedbl" unicode="&#x22;" horiz-adv-x="498" 
d="M50 340v360h167v-360h-167zM282 340v360h166v-360h-166z" />
    <glyph glyph-name="numbersign" unicode="#" 
d="M82 0l27 131h-69v123h93l19 92h-72v123h96l26 131h136l-26 -131h69l26 131h136l-26 -131h68v-123h-93l-18 -92h71v-123h-96l-26 -131h-136l27 131h-70l-26 -131h-136zM269 254h69l19 92h-70z" />
    <glyph glyph-name="dollar" unicode="$" horiz-adv-x="586" 
d="M325 193q0 31 -116 92q-145 79 -145 214q0 77 49 130t131 69v102h117v-101q38 -6 72 -20.5t55 -31t36 -32.5t22 -27l6 -10l-152 -107q-4 7 -12 16.5t-31 26t-46 16.5q-26 0 -26 -24q0 -15 17 -29.5t68 -43.5q78 -43 127 -95t49 -128q0 -81 -50.5 -135.5t-134.5 -72.5
v-102h-117v99q-44 6 -82.5 22.5t-62.5 36t-41.5 38t-25.5 30.5l-7 13l154 105q7 -9 18 -21.5t42 -34t58 -21.5q28 0 28 26z" />
    <glyph glyph-name="percent" unicode="%" horiz-adv-x="785" 
d="M203 288q-71 0 -118.5 45t-47.5 115t48.5 116t119.5 46t118.5 -45t47.5 -115t-48.5 -116t-119.5 -46zM121 0l408 600h135l-408 -600h-135zM204 411q16 0 26 10.5t10 27.5t-10 27.5t-26 10.5t-26 -10.5t-10 -27.5t10 -27.5t26 -10.5zM580 -10q-71 0 -118.5 45t-47.5 115
t48.5 116t119.5 46t118.5 -45t47.5 -115t-48.5 -116t-119.5 -46zM581 113q16 0 26 10.5t10 27.5t-10 27.5t-26 10.5t-26 -10.5t-10 -27.5t10 -27.5t26 -10.5z" />
    <glyph glyph-name="ampersand" unicode="&#x26;" horiz-adv-x="763" 
d="M261 -10q-94 0 -165 59.5t-71 147.5q0 58 28 106.5t99 95.5q-52 66 -52 135q0 73 61 124.5t164 51.5q105 0 161.5 -52t56.5 -121q0 -99 -114 -177l35 -42l77 82h214l-175 -209l175 -191h-231l-58 63q-49 -42 -94.5 -57.5t-110.5 -15.5zM327 471q39 26 39 53q0 37 -36 37
q-15 0 -24 -10t-9 -23q0 -22 30 -57zM290 168q33 0 58 19l-91 98q-31 -27 -31 -61q0 -24 18 -40t46 -16z" />
    <glyph glyph-name="quotesingle" unicode="'" horiz-adv-x="267" 
d="M50 340v360h167v-360h-167z" />
    <glyph glyph-name="parenleft" unicode="(" horiz-adv-x="438" 
d="M254 350q0 -61 17.5 -114t42 -86t49.5 -57t43 -34l17 -10l-98 -149q-6 2 -16 6.5t-39 22.5t-55.5 40t-59 59.5t-55.5 81t-39 105.5t-16 131t15.5 131.5t40 107t54.5 82t60 61.5t54.5 41t40.5 24l15 7l98 -149q-7 -3 -18.5 -10t-40.5 -33.5t-51 -58t-40.5 -85
t-18.5 -114.5z" />
    <glyph glyph-name="parenright" unicode=")" horiz-adv-x="438" 
d="M184 350q0 61 -17.5 114t-42.5 86t-49.5 57t-42.5 34l-17 10l98 149q6 -2 16 -6.5t39 -22.5t55.5 -40t59 -59.5t55.5 -81t39 -105.5t16 -131t-15.5 -131.5t-40 -107t-54.5 -82t-60 -61.5t-54.5 -41t-40.5 -24l-15 -7l-98 149q7 3 18.5 10t40.5 33.5t51 58t40.5 85
t18.5 114.5z" />
    <glyph glyph-name="asterisk" unicode="*" horiz-adv-x="517" 
d="M319 575l114 54l47 -144l-125 -24l87 -92l-123 -89l-60 110l-61 -110l-123 89l86 92l-124 24l48 144l112 -54l-15 125h153z" />
    <glyph glyph-name="plus" unicode="+" 
d="M227 88v183h-177v167h177v183h171v-183h177v-167h-177v-183h-171z" />
    <glyph glyph-name="comma" unicode="," horiz-adv-x="338" 
d="M40 -130l31 360h227l-91 -360h-167z" />
    <glyph glyph-name="hyphen" unicode="-" horiz-adv-x="420" 
d="M50 259v191h320v-191h-320z" />
    <glyph glyph-name="period" unicode="." horiz-adv-x="358" 
d="M179 -10q-54 0 -91.5 37.5t-37.5 91.5t37.5 91.5t91.5 37.5t91.5 -37.5t37.5 -91.5t-37.5 -91.5t-91.5 -37.5z" />
    <glyph glyph-name="slash" unicode="/" horiz-adv-x="588" 
d="M410 780h178l-410 -860h-178z" />
    <glyph glyph-name="zero" unicode="0" 
d="M42 439q0 126 78 198.5t196 72.5t192.5 -69t74.5 -195v-185q0 -126 -78 -198.5t-196 -72.5t-192.5 69t-74.5 195v185zM258 240q0 -22 15.5 -37.5t39.5 -15.5q23 0 38.5 15.5t15.5 37.5v220q0 22 -15.5 37.5t-38.5 15.5q-24 0 -39.5 -15.5t-15.5 -37.5v-220z" />
    <glyph glyph-name="one" unicode="1" horiz-adv-x="530" 
d="M270 700h180v-700h-215v453l-129 -79l-101 143z" />
    <glyph glyph-name="two" unicode="2" horiz-adv-x="575" 
d="M41 0v169l218 201q36 34 49 53.5t13 47.5q0 20 -13.5 34t-38.5 14q-24 0 -47 -18t-34 -36l-11 -18l-155 103q1 3 3.5 9t13 22.5t23 31.5t35 33.5t49 32t64.5 22.5t81 9q107 0 176 -60.5t69 -150.5q0 -75 -30.5 -129t-102.5 -118l-82 -67h210v-185h-490z" />
    <glyph glyph-name="three" unicode="3" horiz-adv-x="571" 
d="M264 -10q-56 0 -103.5 16t-75 39t-47 46t-26.5 39l-8 16l156 94q1 -3 3.5 -7.5t11 -15.5t19 -20t27.5 -16t37 -7q27 0 42.5 15t15.5 37q0 54 -77 54h-70v148h67q29 0 44.5 14.5t15.5 38.5q0 21 -15 33t-33 12q-25 0 -42.5 -12t-23.5 -24l-5 -12l-148 87q1 3 3.5 8
t11.5 20.5t20.5 29t32 30t44 29t57.5 20.5t72 8q99 0 170 -54t71 -141q0 -89 -79 -152q99 -56 99 -165q0 -96 -74.5 -152t-192.5 -56z" />
    <glyph glyph-name="four" unicode="4" 
d="M305 0v125h-288v173l281 402h210v-409h100v-166h-100v-125h-203zM193 291h112v165z" />
    <glyph glyph-name="five" unicode="5" horiz-adv-x="606" 
d="M71 700h460v-185h-269v-60q35 20 84 20q101 0 160.5 -65t59.5 -160q0 -116 -74.5 -188t-196.5 -72q-52 0 -97 15.5t-73 38t-48 45t-29 37.5l-8 16l152 109q1 -3 3.5 -7t11.5 -15t19.5 -19.5t27.5 -15.5t35 -7q31 0 47.5 16t16.5 42q0 21 -15 37.5t-42 16.5
q-18 0 -32 -7.5t-18 -15.5l-5 -8h-170v432z" />
    <glyph glyph-name="six" unicode="6" 
d="M265 700h238l-159 -233q11 2 21 2q90 0 155 -61.5t65 -152.5q0 -118 -80.5 -191.5t-195.5 -73.5q-110 0 -189.5 72.5t-79.5 185.5q0 112 68 214zM250 250q0 -28 17 -45.5t45 -17.5t45.5 17.5t17.5 45.5t-17.5 46t-45.5 18t-45 -18t-17 -46z" />
    <glyph glyph-name="seven" unicode="7" horiz-adv-x="545" 
d="M276 508h-249v192h491v-150l-243 -550h-233z" />
    <glyph glyph-name="eight" unicode="8" 
d="M316 710q110 0 177 -55t67 -147q0 -68 -58 -131q83 -72 83 -159q0 -99 -78.5 -163.5t-197.5 -64.5q-121 0 -195 61t-74 160q0 86 79 160q-55 58 -55 130q0 91 71 150t181 59zM312 438q22 0 35.5 13t13.5 36t-13.5 36t-35.5 13t-35.5 -13t-13.5 -36t13.5 -36t35.5 -13z
M312 164q27 0 45.5 18.5t18.5 45.5q0 29 -18.5 47t-45.5 18t-45.5 -18t-18.5 -47q0 -27 18.5 -45.5t45.5 -18.5z" />
    <glyph glyph-name="nine" unicode="9" 
d="M360 0h-238l159 233q-11 -2 -21 -2q-90 0 -155 61.5t-65 152.5q0 118 80.5 191.5t195.5 73.5q110 0 189.5 -72.5t79.5 -185.5q0 -112 -68 -214zM375 450q0 28 -17 45.5t-45 17.5t-45.5 -17.5t-17.5 -45.5t17.5 -46t45.5 -18t45 18t17 46z" />
    <glyph glyph-name="colon" unicode=":" horiz-adv-x="358" 
d="M179 276q-54 0 -91.5 37.5t-37.5 91.5q0 53 37.5 91t91.5 38t91.5 -38t37.5 -91q0 -54 -37.5 -91.5t-91.5 -37.5zM179 -10q-54 0 -91.5 37.5t-37.5 91.5t37.5 91.5t91.5 37.5t91.5 -37.5t37.5 -91.5t-37.5 -91.5t-91.5 -37.5z" />
    <glyph glyph-name="semicolon" unicode=";" horiz-adv-x="358" 
d="M179 276q-54 0 -91.5 37.5t-37.5 91.5q0 53 37.5 91t91.5 38t91.5 -38t37.5 -91q0 -54 -37.5 -91.5t-91.5 -37.5zM40 -130l31 360h227l-91 -360h-167z" />
    <glyph glyph-name="less" unicode="&#x3c;" 
d="M575 52l-525 213v180l525 213v-184l-341 -117l341 -115v-190z" />
    <glyph glyph-name="equal" unicode="=" 
d="M50 375v166h525v-166h-525zM50 149v166h525v-166h-525z" />
    <glyph glyph-name="greater" unicode="&#x3e;" 
d="M50 52v184l339 115l-339 117v190l525 -213v-180z" />
    <glyph glyph-name="question" unicode="?" horiz-adv-x="540" 
d="M286 474q0 14 -9.5 24t-26.5 10q-23 0 -41 -15t-25 -29l-6 -15l-160 101q2 7 6.5 17.5t23.5 38t45 48.5t74 38.5t106 17.5q98 0 167.5 -59.5t69.5 -140.5q0 -40 -13 -72t-33.5 -53t-41.5 -38t-40 -36.5t-27 -39.5h-190q0 41 19 75t41.5 51.5t41.5 38t19 38.5zM257 246
q53 0 90 -37.5t37 -91.5t-37 -90.5t-90 -36.5q-55 0 -92 36t-37 91q0 54 37 91.5t92 37.5z" />
    <glyph glyph-name="at" unicode="@" horiz-adv-x="971" 
d="M488 710q195 0 321.5 -122.5t126.5 -305.5q0 -123 -69 -202.5t-180 -79.5q-63 0 -109 32.5t-55 81.5q-34 -17 -82 -17q-80 0 -126.5 56t-34.5 142q10 75 64 117.5t126 42.5q50 0 84 -20l10 15h109l19 -22l-35 -252q-2 -21 10.5 -37.5t36.5 -16.5q40 0 68.5 36.5
t28.5 109.5q0 151 -85 234t-230 83q-136 0 -226 -87.5t-90 -217.5t89.5 -217.5t226.5 -87.5q30 0 65 7l38 -109l-36 -10q-35 -7 -70 -7q-195 0 -321.5 120.5t-126.5 300.5q0 182 130 307.5t323 125.5zM519 272q2 20 -9 34t-30 14q-41 0 -46 -40q-2 -19 9.5 -33t31.5 -14
q37 0 44 39zM551 -17q2 0 0 -1v1z" />
    <glyph glyph-name="A" unicode="A" horiz-adv-x="755" 
d="M-3 0l267 700h228l266 -700h-253l-29 96h-209l-29 -96h-241zM318 267h108l-54 180z" />
    <glyph glyph-name="B" unicode="B" horiz-adv-x="690" 
d="M60 0v700h342q107 0 170.5 -50.5t63.5 -134.5q0 -94 -85 -151q55 -23 84.5 -66.5t29.5 -99.5q0 -86 -68 -142t-175 -56h-362zM288 433h61q29 0 44 14t15 34t-15 34t-44 14h-61v-96zM288 171h88q31 0 46 15.5t15 37.5q0 23 -15 38t-46 15h-88v-106z" />
    <glyph glyph-name="C" unicode="C" horiz-adv-x="709" 
d="M404 -10q-159 0 -264 102t-105 254t108.5 258t267.5 106q56 0 105.5 -12.5t79.5 -31t52.5 -36.5t31.5 -30l9 -13l-165 -142q-4 6 -11.5 15t-38 24.5t-67.5 15.5q-64 0 -104 -42.5t-40 -107.5t40 -107.5t104 -42.5q25 0 47.5 6.5t36.5 16t25 19.5t16 16l5 7l157 -138
q-3 -6 -10 -15t-32 -32.5t-55.5 -41.5t-82 -33t-110.5 -15z" />
    <glyph glyph-name="D" unicode="D" horiz-adv-x="760" 
d="M60 0v700h276q170 0 279.5 -98t109.5 -248t-113.5 -252t-282.5 -102h-269zM288 198h50q70 0 114.5 42t44.5 110t-44.5 110t-114.5 42h-50v-304z" />
    <glyph glyph-name="E" unicode="E" horiz-adv-x="650" 
d="M60 0v700h545v-193h-317v-74h267v-164h-267v-76h327v-193h-555z" />
    <glyph glyph-name="F" unicode="F" horiz-adv-x="610" 
d="M288 227v-227h-228v700h535v-198h-307v-83h257v-192h-257z" />
    <glyph glyph-name="G" unicode="G" horiz-adv-x="790" 
d="M404 -10q-159 0 -264 102t-105 254t108.5 258t267.5 106q56 0 106 -12t80.5 -29t53 -33.5t31.5 -28.5l10 -12l-155 -155l-16 16t-43.5 26t-69.5 16q-64 0 -104.5 -42.5t-40.5 -109.5t40 -111t104 -44q89 0 118 66h-130v150h354q5 -30 5 -62q0 -152 -94.5 -253.5
t-255.5 -101.5z" />
    <glyph glyph-name="H" unicode="H" horiz-adv-x="770" 
d="M60 0v700h228v-241h194v241h228v-700h-228v255h-194v-255h-228z" />
    <glyph glyph-name="I" unicode="I" horiz-adv-x="363" 
d="M65 700h234v-700h-234v700z" />
    <glyph glyph-name="J" unicode="J" horiz-adv-x="526" 
d="M184 -10q-51 0 -95.5 8.5t-62.5 17.5l-19 9l59 201q38 -20 97 -20q37 0 58.5 26t21.5 68v400h234v-415q0 -134 -81 -214.5t-212 -80.5z" />
    <glyph glyph-name="K" unicode="K" horiz-adv-x="750" 
d="M60 0v700h228v-298l178 298h277l-232 -328l252 -372h-277l-198 318v-318h-228z" />
    <glyph glyph-name="L" unicode="L" horiz-adv-x="590" 
d="M60 0v700h228v-496h297v-204h-525z" />
    <glyph glyph-name="M" unicode="M" horiz-adv-x="890" 
d="M279 320v-320h-219v700h234l157 -325l157 325h222v-700h-219v320l-106 -225h-120z" />
    <glyph glyph-name="N" unicode="N" horiz-adv-x="790" 
d="M282 357v-357h-222v700h233l215 -341v341h222v-700h-222z" />
    <glyph glyph-name="O" unicode="O" horiz-adv-x="815" 
d="M35 346q0 152 108.5 258t267.5 106t264 -102t105 -254t-108.5 -258t-267.5 -106t-264 102t-105 254zM263 350q0 -65 40 -107.5t104 -42.5t104.5 43t40.5 107t-40.5 107t-104.5 43t-104 -42.5t-40 -107.5z" />
    <glyph glyph-name="P" unicode="P" horiz-adv-x="696" 
d="M60 0v700h323q129 0 205.5 -69t76.5 -184q0 -116 -80 -188t-209 -72h-88v-187h-228zM288 373h74q34 0 54.5 19t20.5 49t-20.5 48.5t-54.5 18.5h-74v-135z" />
    <glyph glyph-name="Q" unicode="Q" horiz-adv-x="815" 
d="M35 346q0 152 108.5 258t267.5 106t264 -102t105 -254q0 -87 -38 -163t-105 -128l124 -183h-256l-69 110h-32q-159 0 -264 102t-105 254zM263 350q0 -65 40 -107.5t104 -42.5t104.5 43t40.5 107t-40.5 107t-104.5 43t-104 -42.5t-40 -107.5z" />
    <glyph glyph-name="R" unicode="R" horiz-adv-x="703" 
d="M60 700h334q121 0 196 -66.5t75 -176.5q0 -143 -120 -215l150 -242h-263l-117 209h-27v-209h-228v700zM288 508v-127h78q71 0 71 64q0 63 -71 63h-78z" />
    <glyph glyph-name="S" unicode="S" horiz-adv-x="598" 
d="M277 504q0 -14 18 -28t76 -41q37 -17 65 -34t60 -44t49.5 -63t17.5 -78q0 -96 -77 -161t-196 -65q-52 0 -100.5 12t-80.5 29.5t-56.5 35t-36.5 29.5l-11 12l129 141q9 -9 25 -21.5t59.5 -33.5t79.5 -21q33 0 33 26q0 15 -25 32t-104 55q-157 74 -157 207q0 96 73 156.5
t190 60.5q45 0 88 -10.5t72 -25t52 -29t34 -25.5l11 -10l-131 -142q-7 7 -18.5 17t-44.5 26.5t-63 16.5q-31 0 -31 -24z" />
    <glyph glyph-name="T" unicode="T" horiz-adv-x="590" 
d="M409 502v-502h-228v502h-176v198h580v-198h-176z" />
    <glyph glyph-name="U" unicode="U" horiz-adv-x="740" 
d="M366 -10q-145 0 -230.5 80t-85.5 219v411h231v-400q0 -48 25 -74t68 -26t67.5 26.5t24.5 73.5v400h224v-404q0 -139 -89 -222.5t-235 -83.5z" />
    <glyph glyph-name="V" unicode="V" horiz-adv-x="745" 
d="M-3 700h259l123 -401l122 401h247l-261 -700h-228z" />
    <glyph glyph-name="W" unicode="W" horiz-adv-x="1040" 
d="M-3 700h253l99 -352l96 352h162l97 -352l98 352h241l-234 -700h-197l-92 325l-92 -325h-197z" />
    <glyph glyph-name="X" unicode="X" horiz-adv-x="777" 
d="M-3 0l257 354l-248 346h276l113 -173l113 173h263l-249 -343l258 -357h-276l-123 186l-120 -186h-264z" />
    <glyph glyph-name="Y" unicode="Y" horiz-adv-x="725" 
d="M249 0v240l-252 460h264l108 -241l107 241h252l-251 -460v-240h-228z" />
    <glyph glyph-name="Z" unicode="Z" horiz-adv-x="705" 
d="M47 0v169l305 339h-285v192h591v-169l-305 -339h305v-192h-611z" />
    <glyph glyph-name="bracketleft" unicode="[" horiz-adv-x="435" 
d="M60 -80v860h350v-179h-141v-502h141v-179h-350z" />
    <glyph glyph-name="backslash" unicode="\" horiz-adv-x="588" 
d="M588 -80h-178l-410 860h178z" />
    <glyph glyph-name="bracketright" unicode="]" horiz-adv-x="435" 
d="M25 -80v179h141v502h-141v179h350v-860h-350z" />
    <glyph glyph-name="asciicircum" unicode="^" horiz-adv-x="610" 
d="M35 320l186 380h168l186 -380h-198l-70 196l-70 -196h-202z" />
    <glyph glyph-name="underscore" unicode="_" horiz-adv-x="600" 
d="M0 -179v129h600v-129h-600z" />
    <glyph glyph-name="grave" unicode="`" horiz-adv-x="380" 
d="M164 567l-114 173h227l53 -173h-166z" />
    <glyph glyph-name="a" unicode="a" horiz-adv-x="579" 
d="M22 147q0 72 56.5 118t147.5 46q59 0 101 -15q0 22 -23.5 37t-58.5 15q-27 0 -55 -7.5t-42 -14.5l-14 -8l-82 152q10 7 28 17.5t79 28.5t127 18q118 0 187.5 -64.5t69.5 -175.5v-294h-168l-15 33q-55 -43 -142 -43q-91 0 -143.5 42.5t-52.5 114.5zM238 157
q0 -16 14 -27.5t34 -11.5q18 0 32 11.5t14 27.5t-14 27t-32 11q-20 0 -34 -11t-14 -27z" />
    <glyph glyph-name="b" unicode="b" horiz-adv-x="641" 
d="M40 700h215v-204q54 38 117 38q100 0 172 -78t72 -191q0 -114 -74.5 -194.5t-176.5 -80.5q-78 0 -131 53l-14 -43h-180v700zM250 262q0 -31 21.5 -53t53.5 -22q33 0 54.5 22t21.5 53t-21.5 52.5t-54.5 21.5q-32 0 -53.5 -21.5t-21.5 -52.5z" />
    <glyph glyph-name="c" unicode="c" horiz-adv-x="530" 
d="M312 -10q-125 0 -206 76.5t-81 191.5q0 116 84.5 196t209.5 80q39 0 75 -9t59 -22t40.5 -26.5t25.5 -22.5l8 -9l-146 -140q-25 31 -65 31q-33 0 -54.5 -21.5t-21.5 -52.5t21.5 -53t54.5 -22q19 0 36.5 9t25.5 18l7 9l143 -137q-3 -4 -9 -10.5t-26 -23t-43 -29t-60.5 -23
t-77.5 -10.5z" />
    <glyph glyph-name="d" unicode="d" horiz-adv-x="641" 
d="M270 -10q-100 0 -172.5 77.5t-72.5 190.5q0 114 74.5 195t177.5 81q59 0 109 -31v197h215v-700h-179l-16 49q-56 -59 -136 -59zM316 187q32 0 53.5 22t21.5 53t-21.5 52.5t-53.5 21.5q-33 0 -54.5 -21.5t-21.5 -52.5t21.5 -53t54.5 -22z" />
    <glyph glyph-name="e" unicode="e" horiz-adv-x="598" 
d="M312 -10q-125 0 -206 76.5t-81 191.5q0 116 82.5 196t205.5 80q113 0 190 -73t77 -173q0 -22 -3 -39.5t-7 -24.5l-3 -6h-326q9 -21 33.5 -35t57.5 -14q27 0 51 9t35 18l10 9l118 -125q-3 -4 -8.5 -10t-26.5 -21.5t-45.5 -27.5t-66 -21.5t-87.5 -9.5zM242 324h133
q-2 24 -20.5 42t-45.5 18t-44.5 -17t-22.5 -43z" />
    <glyph glyph-name="f" unicode="f" horiz-adv-x="455" 
d="M105 0v320h-85v174h85v28q0 87 50.5 137.5t139.5 50.5q44 0 81.5 -5t53.5 -11l15 -5l-23 -161q-25 10 -58 10q-44 0 -44 -34v-10h115v-174h-115v-320h-215z" />
    <glyph glyph-name="g" unicode="g" horiz-adv-x="641" 
d="M422 524h179v-387q0 -141 -79.5 -224t-223.5 -83q-77 0 -146.5 21t-99.5 41l-31 21l77 155q10 -7 26.5 -16.5t63.5 -26t88 -16.5q103 0 110 72q-46 -26 -110 -26q-106 0 -178.5 69t-72.5 167q0 105 71 174t187 69q69 0 127 -41zM316 221q32 0 53.5 20t21.5 47
q0 28 -21.5 47.5t-53.5 19.5q-33 0 -54.5 -19.5t-21.5 -47.5q0 -27 21.5 -47t54.5 -20z" />
    <glyph glyph-name="h" unicode="h" horiz-adv-x="616" 
d="M40 0v700h215v-224q58 58 136 58q82 0 135.5 -53.5t53.5 -138.5v-342h-215v272q0 64 -56 64q-24 0 -39 -15t-15 -41v-280h-215z" />
    <glyph glyph-name="i" unicode="i" horiz-adv-x="307" 
d="M25 661q0 51 36 84t93 33q56 0 92.5 -33t36.5 -84t-36.5 -83.5t-92.5 -32.5q-57 0 -93 32.5t-36 83.5zM45 524h217v-524h-217v524z" />
    <glyph glyph-name="j" unicode="j" horiz-adv-x="307" 
d="M25 661q0 51 36 84t93 33q56 0 92.5 -33t36.5 -84t-36.5 -83.5t-92.5 -32.5q-57 0 -93 32.5t-36 83.5zM262 524v-440q0 -126 -59 -190t-173 -64q-19 0 -41.5 2t-34.5 4l-13 3l22 177q15 -1 33 -1q25 0 37 11.5t12 39.5v458h217z" />
    <glyph glyph-name="k" unicode="k" horiz-adv-x="629" 
d="M40 0v700h215v-390l115 214h252l-162 -236l182 -288h-258l-129 240v-240h-215z" />
    <glyph glyph-name="l" unicode="l" horiz-adv-x="307" 
d="M45 700h217v-700h-217v700z" />
    <glyph glyph-name="m" unicode="m" horiz-adv-x="921" 
d="M40 524h192l7 -62q56 72 147 72q108 0 158 -86q55 86 156 86q82 0 133.5 -53.5t51.5 -140.5v-340h-216v271q0 65 -50 65q-22 0 -35.5 -14t-13.5 -38v-284h-215v271q0 65 -51 65q-22 0 -35.5 -14t-13.5 -38v-284h-215v524z" />
    <glyph glyph-name="n" unicode="n" horiz-adv-x="616" 
d="M255 0h-215v524h192l8 -61q57 71 151 71q84 0 136.5 -53t52.5 -139v-342h-215v272q0 64 -56 64q-25 0 -39.5 -15.5t-14.5 -43.5v-277z" />
    <glyph glyph-name="o" unicode="o" horiz-adv-x="631" 
d="M25 258q0 116 84.5 196t209.5 80t206 -76.5t81 -192.5q0 -115 -84.5 -195t-209.5 -80t-206 76.5t-81 191.5zM240 262q0 -31 21.5 -53t54.5 -22q32 0 53.5 22t21.5 53t-21.5 52.5t-53.5 21.5q-33 0 -54.5 -21.5t-21.5 -52.5z" />
    <glyph glyph-name="p" unicode="p" horiz-adv-x="641" 
d="M40 524h180l15 -49q59 59 137 59q100 0 172 -78t72 -191q0 -114 -74.5 -194.5t-176.5 -80.5q-61 0 -110 29v-179h-215v684zM250 262q0 -31 21.5 -53t53.5 -22q33 0 54.5 22t21.5 53t-21.5 52.5t-54.5 21.5q-32 0 -53.5 -21.5t-21.5 -52.5z" />
    <glyph glyph-name="q" unicode="q" horiz-adv-x="641" 
d="M386 -160v186q-51 -36 -116 -36q-100 0 -172.5 77.5t-72.5 190.5q0 114 74.5 195t177.5 81q74 0 130 -54l15 44h179v-684h-215zM316 187q32 0 53.5 22t21.5 53t-21.5 52.5t-53.5 21.5q-33 0 -54.5 -21.5t-21.5 -52.5t21.5 -53t54.5 -22z" />
    <glyph glyph-name="r" unicode="r" horiz-adv-x="442" 
d="M40 0v524h192l10 -86q54 96 175 96l-4 -222h-46q-56 0 -84 -26t-28 -85v-201h-215z" />
    <glyph glyph-name="s" unicode="s" horiz-adv-x="490" 
d="M238 371q0 -14 75 -41q72 -25 112 -67.5t40 -97.5q0 -81 -59 -128t-168 -47q-64 0 -122.5 21.5t-85.5 42.5l-26 21l83 126q8 -7 22 -17.5t53 -27.5t72 -17q18 0 18 13q0 5 -4.5 9.5t-23.5 13t-57 23.5q-137 50 -137 167q0 71 59 120t162 49q56 0 110.5 -19t80.5 -38
l27 -19l-85 -129q-68 54 -127 54q-19 0 -19 -12z" />
    <glyph glyph-name="t" unicode="t" horiz-adv-x="470" 
d="M291 -10q-87 0 -136.5 47t-49.5 131v182h-85v174h85v116h215v-116h120v-174h-120v-126q0 -37 33 -37q14 0 30 2.5t25 4.5l9 2l23 -180q-63 -26 -149 -26z" />
    <glyph glyph-name="u" unicode="u" horiz-adv-x="617" 
d="M361 524h215v-524h-192l-8 61q-57 -71 -151 -71q-84 0 -136.5 53t-52.5 139v342h215v-272q0 -64 56 -64q25 0 39.5 15.5t14.5 43.5v277z" />
    <glyph glyph-name="v" unicode="v" horiz-adv-x="568" 
d="M179 0l-194 524h239l65 -238l66 238h228l-194 -524h-210z" />
    <glyph glyph-name="w" unicode="w" horiz-adv-x="815" 
d="M-15 524h233l55 -236l60 236h161l58 -229l57 229h221l-165 -524h-204l-54 205l-53 -205h-204z" />
    <glyph glyph-name="x" unicode="x" horiz-adv-x="613" 
d="M434 273l194 -273h-250l-76 124l-80 -124h-237l193 264l-183 260h249l67 -113l69 113h238z" />
    <glyph glyph-name="y" unicode="y" horiz-adv-x="568" 
d="M355 524h228l-194 -529q-32 -86 -86.5 -125.5t-141.5 -39.5q-46 0 -90 11.5t-65 22.5l-21 12l67 167q32 -26 85 -26q18 0 33 5l-185 502h239l65 -260z" />
    <glyph glyph-name="z" unicode="z" horiz-adv-x="570" 
d="M37 0v156l203 189h-188v179h481v-157l-203 -188h203v-179h-496z" />
    <glyph glyph-name="braceleft" unicode="{" horiz-adv-x="475" 
d="M314 -80q-103 0 -148.5 46t-45.5 148v126q0 14 -9 23.5t-24 9.5h-62v154h62q15 0 24 9t9 24v126q0 102 45.5 148t148.5 46h136v-173h-81q-40 0 -40 -40v-89q0 -125 -105 -128q105 -3 105 -128v-89q0 -40 40 -40h81v-173h-136z" />
    <glyph glyph-name="bar" unicode="|" horiz-adv-x="345" 
d="M90 800h165v-900h-165v900z" />
    <glyph glyph-name="braceright" unicode="}" horiz-adv-x="475" 
d="M25 -80v173h81q40 0 40 40v89q0 125 104 128q-104 3 -104 128v89q0 40 -40 40h-81v173h136q103 0 148.5 -46t45.5 -148v-126q0 -14 9 -23.5t24 -9.5h62v-154h-62q-15 0 -24 -9t-9 -24v-126q0 -102 -45.5 -148t-148.5 -46h-136z" />
    <glyph glyph-name="asciitilde" unicode="~" 
d="M411 196q-46 0 -81 21t-59 41.5t-43 20.5q-15 0 -23.5 -17.5t-8.5 -35.5l-1 -17l-155 20q0 5 0.5 13.5t4 33t9.5 46.5t19 49t30.5 46.5t46 33t63.5 13.5q36 0 66.5 -13t47 -28.5t35.5 -28.5t35 -13q15 0 23.5 17.5t9.5 35.5l1 17l154 -20q0 -5 -0.5 -13.5t-4 -33
t-9.5 -46.5t-19 -49t-30.5 -46.5t-46.5 -33t-64 -13.5z" />
    <glyph glyph-name="exclamdown" unicode="&#xa1;" horiz-adv-x="358" 
d="M179 452q-54 0 -91.5 37.5t-37.5 91.5t37.5 91.5t91.5 37.5t91.5 -37.5t37.5 -91.5t-37.5 -91.5t-91.5 -37.5zM47 0l47 437h169l47 -437h-263z" />
    <glyph glyph-name="cent" unicode="&#xa2;" horiz-adv-x="564" 
d="M259 76v101q-101 19 -162.5 89t-61.5 169q0 97 62 169t162 93v103h116v-100q48 -7 88.5 -27t56.5 -36l17 -16l-150 -143q-2 4 -6 10t-19.5 15.5t-35.5 9.5q-33 0 -54.5 -22t-21.5 -53t21.5 -52.5t54.5 -21.5q23 0 39 10t21 20l5 10l147 -141q-6 -8 -18.5 -19.5t-54.5 -35
t-90 -32.5v-100h-116z" />
    <glyph glyph-name="sterling" unicode="&#xa3;" horiz-adv-x="613" 
d="M100 0v279h-75v117h75v53q0 122 75 191.5t189 69.5q43 0 82 -12t64 -29.5t43.5 -35t26.5 -29.5l8 -12l-174 -119q-1 4 -4 11t-17 18t-33 11t-32 -12.5t-13 -30.5v-74h175v-117h-175v-94h260v-185h-475z" />
    <glyph glyph-name="currency" unicode="&#xa4;" horiz-adv-x="683" 
d="M112 45l-77 77l95 91q-43 62 -43 135q0 72 45 136l-97 94l77 77l99 -96q61 36 133 36q71 0 128 -34l98 94l78 -77l-95 -92q42 -61 42 -134q0 -72 -44 -137l97 -93l-78 -77l-99 96q-61 -36 -132 -36q-73 0 -130 34zM341 277q33 0 53.5 20.5t20.5 52.5t-20.5 52.5
t-53.5 20.5t-53 -20.5t-20 -52.5t20 -52.5t53 -20.5z" />
    <glyph glyph-name="yen" unicode="&#xa5;" horiz-adv-x="670" 
d="M221 0v172h-196v104h196v16l-16 30h-180v104h122l-142 274h263l73 -208l73 208h251l-143 -274h123v-104h-180l-16 -30v-16h196v-104h-196v-172h-228z" />
    <glyph glyph-name="brokenbar" unicode="&#xa6;" horiz-adv-x="345" 
d="M255 445h-165v355h165v-355zM90 255h165v-355h-165v355z" />
    <glyph glyph-name="section" unicode="&#xa7;" horiz-adv-x="670" 
d="M635 267q0 -95 -99 -148q18 -45 18 -91q0 -90 -68 -144t-176 -54q-42 0 -80.5 10.5t-64 25t-44.5 29t-28 25.5l-9 10l121 122q46 -50 93 -50q27 0 27 18q0 23 -86 53q-112 40 -158 89t-46 111q0 96 98 148q-18 45 -18 91q0 90 68 144t176 54q42 0 80.5 -10.5t64 -25
t44.5 -29t28 -25.5l9 -10l-121 -122q-46 50 -93 50q-27 0 -27 -18q0 -23 86 -53q112 -40 158.5 -89t46.5 -111zM420 213q7 7 7 19q0 19 -27 37t-99 39q-29 8 -49 20q-7 -6 -7 -19q0 -40 126 -76q28 -7 49 -20z" />
    <glyph glyph-name="dieresis" unicode="&#xa8;" horiz-adv-x="548" 
d="M153 557q-46 0 -74.5 29t-28.5 74t30 75t75 30q46 0 74.5 -28.5t28.5 -73.5q0 -46 -30 -76t-75 -30zM393 557q-46 0 -74.5 29t-28.5 74t30 75t75 30q46 0 74.5 -28.5t28.5 -73.5q0 -46 -30 -76t-75 -30z" />
    <glyph glyph-name="copyright" unicode="&#xa9;" horiz-adv-x="826" 
d="M411 -10q-154 0 -257.5 103t-103.5 255t105.5 257t259.5 105t257.5 -103t103.5 -255t-105.5 -257t-259.5 -105zM413 93q106 0 179.5 74.5t73.5 182.5t-73.5 182.5t-179.5 74.5t-179.5 -74.5t-73.5 -182.5t73.5 -182.5t179.5 -74.5zM418 152q-86 0 -141 56t-55 140t57 142
t142 58q48 0 86.5 -17t53.5 -33l15 -17l-89 -81q-2 3 -6 8.5t-20 14t-36 8.5q-33 0 -54 -23.5t-21 -57.5t21 -57.5t54 -23.5q21 0 38 9t23 18l7 9l86 -79q-6 -8 -17 -20.5t-52.5 -33t-91.5 -20.5z" />
    <glyph glyph-name="ordfeminine" unicode="&#xaa;" horiz-adv-x="411" 
d="M167 380q-56 0 -88 25t-32 68t34 69.5t91 26.5q30 0 55 -9v6q0 36 -43 36q-16 0 -33.5 -5t-26.5 -10l-10 -5l-48 84q55 38 143 38q72 0 113.5 -37.5t41.5 -104.5v-176h-102l-11 19q-37 -25 -84 -25zM176 480q0 -12 8 -18.5t20 -6.5t20 6.5t8 18.5t-8 18.5t-20 6.5
t-20 -6.5t-8 -18.5zM57 267v79h307v-79h-307z" />
    <glyph glyph-name="guillemotleft" unicode="&#xab;" horiz-adv-x="775" 
d="M270 352l124 -146l-113 -119l-231 228v70l231 228l113 -113zM596 352l124 -146l-113 -119l-231 228v70l231 228l113 -113z" />
    <glyph glyph-name="logicalnot" unicode="&#xac;" 
d="M396 160v141h-346v167h525v-308h-179z" />
    <glyph glyph-name="registered" unicode="&#xae;" horiz-adv-x="536" 
d="M50 493q0 91 63.5 154t155.5 63t154.5 -62t62.5 -153t-63.5 -154t-155.5 -63t-154.5 62t-62.5 153zM113 494q0 -65 45.5 -111t109.5 -46t109.5 46t45.5 111t-45.5 111t-109.5 46t-109.5 -46t-45.5 -111zM185 599h98q36 0 58 -20t22 -52q0 -45 -38 -64l47 -74h-72l-38 65
h-14v-65h-63v210zM248 546v-44h27q25 0 25 21q0 23 -25 23h-27z" />
    <glyph glyph-name="macron" unicode="&#xaf;" horiz-adv-x="460" 
d="M50 601v117h360v-117h-360z" />
    <glyph glyph-name="degree" unicode="&#xb0;" horiz-adv-x="459" 
d="M229 337q-80 0 -134.5 53.5t-54.5 132.5t55.5 133t135.5 54t134 -53t54 -132t-55 -133.5t-135 -54.5zM230 450q31 0 50.5 20.5t19.5 53.5q0 32 -19.5 53t-50.5 21t-51 -21t-20 -53q0 -33 19.5 -53.5t51.5 -20.5z" />
    <glyph glyph-name="plusminus" unicode="&#xb1;" 
d="M227 213v154h-177v166h177v155h171v-155h177v-166h-177v-154h-171zM50 12v167h525v-167h-525z" />
    <glyph glyph-name="uni00B2" unicode="&#xb2;" horiz-adv-x="371" 
d="M39 280v107l128 115q22 20 30 31.5t8 25.5q0 10 -7 17.5t-19 7.5q-15 0 -28 -10t-19 -20l-5 -11l-100 67q2 4 5 10.5t16.5 23t30.5 29t47.5 23t66.5 10.5q68 0 109 -37t41 -92q0 -42 -20.5 -74.5t-65.5 -71.5l-45 -33h128v-118h-301z" />
    <glyph glyph-name="uni00B3" unicode="&#xb3;" horiz-adv-x="372" 
d="M179 274q-33 0 -62 10t-46 24t-29 28.5t-17 24.5l-5 10l99 55q2 -4 6 -10t19 -16.5t33 -10.5q33 0 33 29t-45 29h-42v90h40q35 0 35 28q0 12 -8 19t-19 7q-14 0 -24 -6.5t-13 -13.5l-3 -7l-96 51q1 4 4.5 10t15.5 21.5t27.5 27.5t42.5 22t58 10q64 0 106.5 -32t42.5 -85
q0 -54 -53 -92q65 -33 65 -98q0 -58 -44.5 -91.5t-120.5 -33.5z" />
    <glyph glyph-name="acute" unicode="&#xb4;" horiz-adv-x="380" 
d="M50 567l54 173h226l-113 -173h-167z" />
    <glyph glyph-name="paragraph" unicode="&#xb6;" horiz-adv-x="849" 
d="M314 240h-24q-111 0 -182 63.5t-71 163.5t74.5 166.5t185.5 66.5h472v-700h-190v527h-75v-527h-190v240z" />
    <glyph glyph-name="periodcentered" unicode="&#xb7;" horiz-adv-x="353" 
d="M176 221q-53 0 -91 37.5t-38 91.5t38 91.5t91 37.5q54 0 91.5 -37.5t37.5 -91.5t-37.5 -91.5t-91.5 -37.5z" />
    <glyph glyph-name="cedilla" unicode="&#xb8;" horiz-adv-x="380" 
d="M235 84q4 -1 10.5 -3.5t22.5 -13t28.5 -23t23 -35.5t10.5 -49q0 -70 -52.5 -112.5t-121.5 -42.5q-28 0 -54.5 6.5t-39.5 12.5l-12 6l40 120q15 -10 42 -10q52 0 52 42q0 5 -2 9.5t-4 6.5t-3 2z" />
    <glyph glyph-name="uni00B9" unicode="&#xb9;" horiz-adv-x="338" 
d="M173 700h118v-420h-139v262l-69 -42l-66 90z" />
    <glyph glyph-name="ordmasculine" unicode="&#xba;" horiz-adv-x="449" 
d="M222 380q-76 0 -125.5 45.5t-49.5 114.5t51 116.5t128 47.5t126.5 -45.5t49.5 -114.5t-51.5 -116.5t-128.5 -47.5zM224 503q18 0 29 11t11 28t-11 28t-29 11q-17 0 -28 -11t-11 -28t11 -28t28 -11zM57 267v79h335v-79h-335z" />
    <glyph glyph-name="guillemotright" unicode="&#xbb;" horiz-adv-x="775" 
d="M179 346l-124 148l113 119l231 -228v-70l-231 -228l-113 113zM505 346l-124 148l113 119l231 -228v-70l-231 -228l-113 113z" />
    <glyph glyph-name="onequarter" unicode="&#xbc;" horiz-adv-x="981" 
d="M173 700h118v-420h-139v262l-69 -42l-66 90zM641 700h134l-476 -700h-134zM781 0v72h-179v113l168 235h136v-243h58v-105h-58v-72h-125zM710 177h71v101z" />
    <glyph glyph-name="onehalf" unicode="&#xbd;" horiz-adv-x="956" 
d="M173 700h118v-420h-139v262l-69 -42l-66 90zM641 700h134l-476 -700h-134zM624 0v107l128 115q22 20 30 31.5t8 25.5q0 10 -7 17.5t-19 7.5q-15 0 -28 -10t-18 -20l-6 -11l-100 67q2 4 5 10.5t16.5 23t30.5 29t47.5 23t66.5 10.5q68 0 109 -37t41 -92q0 -42 -20.5 -74.5
t-65.5 -71.5l-45 -33h128v-118h-301z" />
    <glyph glyph-name="threequarters" unicode="&#xbe;" horiz-adv-x="985" 
d="M179 274q-33 0 -62 10t-46 24t-29 28.5t-17 24.5l-5 10l99 55q2 -4 6 -10t19 -16.5t33 -10.5q33 0 33 29t-45 29h-42v90h40q35 0 35 28q0 12 -8 19t-19 7q-14 0 -24 -6.5t-13 -13.5l-3 -7l-96 51q1 4 4.5 10t15.5 21.5t27.5 27.5t42.5 22t58 10q64 0 106.5 -32t42.5 -85
q0 -54 -53 -92q65 -33 65 -98q0 -58 -44.5 -91.5t-120.5 -33.5zM645 700h134l-476 -700h-134zM785 0v72h-179v113l168 235h136v-243h58v-105h-58v-72h-125zM714 177h71v101z" />
    <glyph glyph-name="questiondown" unicode="&#xbf;" horiz-adv-x="540" 
d="M283 454q-53 0 -90 37.5t-37 91.5t37 90.5t90 36.5q55 0 92 -36t37 -91q0 -54 -37 -91.5t-92 -37.5zM254 226q0 -14 9.5 -24t26.5 -10q23 0 41 15t25 29l6 15l160 -101q-2 -7 -6.5 -17.5t-23.5 -38t-45 -48.5t-74 -38.5t-106 -17.5q-98 0 -167.5 59.5t-69.5 140.5
q0 40 13 72t33.5 53t41.5 38t40 36.5t27 39.5h190q0 -41 -19 -75t-41.5 -51.5t-41.5 -38t-19 -38.5z" />
    <glyph glyph-name="Agrave" unicode="&#xc0;" horiz-adv-x="755" 
d="M294 747l-113 173h226l54 -173h-167zM-3 0l267 700h228l266 -700h-253l-29 96h-209l-29 -96h-241zM318 267h108l-54 180z" />
    <glyph glyph-name="Aacute" unicode="&#xc1;" horiz-adv-x="755" 
d="M294 747l54 173h227l-114 -173h-167zM-3 0l267 700h228l266 -700h-253l-29 96h-209l-29 -96h-241zM318 267h108l-54 180z" />
    <glyph glyph-name="Acircumflex" unicode="&#xc2;" horiz-adv-x="755" 
d="M152 747l130 173h191l130 -173h-181l-48 52l-47 -52h-175zM-3 0l267 700h228l266 -700h-253l-29 96h-209l-29 -96h-241zM318 267h108l-54 180z" />
    <glyph glyph-name="Atilde" unicode="&#xc3;" horiz-adv-x="755" 
d="M445 745q-41 0 -79.5 28t-53.5 28q-10 0 -16.5 -11.5t-7.5 -22.5l-2 -11l-96 11q0 6 1 17t8 38t18.5 48t35.5 38t56 17q31 0 56 -14t43.5 -28t32.5 -14q10 0 17 11t8 22l2 11l96 -10q0 -6 -1 -17t-8 -38t-18.5 -48t-35.5 -38t-56 -17zM-3 0l267 700h228l266 -700h-253
l-29 96h-209l-29 -96h-241zM318 267h108l-54 180z" />
    <glyph glyph-name="Adieresis" unicode="&#xc4;" horiz-adv-x="755" 
d="M256 737q-45 0 -73.5 29t-28.5 74t29.5 75t75.5 30q45 0 73.5 -28.5t28.5 -73.5q0 -46 -29.5 -76t-75.5 -30zM496 737q-45 0 -73.5 29t-28.5 74t30 75t75 30t74 -28.5t29 -73.5q0 -46 -30 -76t-76 -30zM-3 0l267 700h228l266 -700h-253l-29 96h-209l-29 -96h-241z
M318 267h108l-54 180z" />
    <glyph glyph-name="Aring" unicode="&#xc5;" horiz-adv-x="755" 
d="M378 727q-45 0 -73.5 27.5t-28.5 69.5t28.5 69t73.5 27q44 0 72.5 -27.5t28.5 -68.5q0 -42 -28.5 -69.5t-72.5 -27.5zM378 790q32 0 32 34q0 32 -32 32q-16 0 -25 -9.5t-9 -22.5q0 -14 9 -24t25 -10zM-3 0l267 700h228l266 -700h-253l-29 96h-209l-29 -96h-241zM318 267
h108l-54 180z" />
    <glyph glyph-name="AE" unicode="&#xc6;" horiz-adv-x="1083" 
d="M-13 0l385 700h666v-193h-318v-74h268v-164h-268v-76h328v-193h-556v96h-210l-43 -96h-252zM374 267h118v245z" />
    <glyph glyph-name="Ccedilla" unicode="&#xc7;" horiz-adv-x="709" 
d="M694 127q-3 -4 -8 -11.5t-24 -27t-41.5 -35.5t-61.5 -33t-82 -24q5 -18 5 -36q0 -70 -52.5 -112.5t-121.5 -42.5q-28 0 -54.5 6.5t-39.5 12.5l-12 6l40 120q15 -10 42 -10q52 0 52 42q0 9 -5 14q-131 23 -213.5 120t-82.5 230q0 152 108.5 258t267.5 106
q56 0 105.5 -12.5t79.5 -31t52.5 -36.5t31.5 -30l9 -13l-165 -142q-4 6 -11.5 15t-38 24.5t-67.5 15.5q-64 0 -104 -42.5t-40 -107.5t40 -107.5t104 -42.5q25 0 47.5 6.5t36.5 16t25 19.5t16 16l5 7z" />
    <glyph glyph-name="Egrave" unicode="&#xc8;" horiz-adv-x="650" 
d="M249 747l-114 173h227l54 -173h-167zM60 0v700h545v-193h-317v-74h267v-164h-267v-76h327v-193h-555z" />
    <glyph glyph-name="Eacute" unicode="&#xc9;" horiz-adv-x="650" 
d="M249 747l54 173h227l-114 -173h-167zM60 0v700h545v-193h-317v-74h267v-164h-267v-76h327v-193h-555z" />
    <glyph glyph-name="Ecircumflex" unicode="&#xca;" horiz-adv-x="650" 
d="M107 747l130 173h191l130 -173h-182l-47 52l-48 -52h-174zM60 0v700h545v-193h-317v-74h267v-164h-267v-76h327v-193h-555z" />
    <glyph glyph-name="Edieresis" unicode="&#xcb;" horiz-adv-x="650" 
d="M211 737q-45 0 -74 29t-29 74t30 75t76 30q45 0 73.5 -28.5t28.5 -73.5q0 -46 -29.5 -76t-75.5 -30zM451 737q-45 0 -73.5 29t-28.5 74t29.5 75t75.5 30q45 0 73.5 -28.5t28.5 -73.5q0 -46 -29.5 -76t-75.5 -30zM60 0v700h545v-193h-317v-74h267v-164h-267v-76h327v-193
h-555z" />
    <glyph glyph-name="Igrave" unicode="&#xcc;" horiz-adv-x="363" 
d="M99 747l-114 173h227l53 -173h-166zM65 700h234v-700h-234v700z" />
    <glyph glyph-name="Iacute" unicode="&#xcd;" horiz-adv-x="363" 
d="M99 747l54 173h226l-113 -173h-167zM65 700h234v-700h-234v700z" />
    <glyph glyph-name="Icircumflex" unicode="&#xce;" horiz-adv-x="363" 
d="M-43 747l130 173h190l130 -173h-181l-47 52l-48 -52h-174zM65 700h234v-700h-234v700z" />
    <glyph glyph-name="Idieresis" unicode="&#xcf;" horiz-adv-x="363" 
d="M61 737q-46 0 -74.5 29t-28.5 74t30 75t75 30q46 0 74.5 -28.5t28.5 -73.5q0 -46 -30 -76t-75 -30zM301 737q-46 0 -74.5 29t-28.5 74t30 75t75 30q46 0 74.5 -28.5t28.5 -73.5q0 -46 -30 -76t-75 -30zM65 700h234v-700h-234v700z" />
    <glyph glyph-name="Eth" unicode="&#xd0;" horiz-adv-x="803" 
d="M379 700q169 0 279 -98t110 -248t-113.5 -252t-282.5 -102h-270v295h-72v117h72v288h277zM380 198q71 0 115.5 42t44.5 110t-44.5 110t-115.5 42h-50v-90h110v-117h-110v-97h50z" />
    <glyph glyph-name="Ntilde" unicode="&#xd1;" horiz-adv-x="790" 
d="M462 745q-41 0 -79.5 28t-53.5 28q-10 0 -16.5 -11.5t-8.5 -22.5l-1 -11l-96 11q0 6 1 17t8 38t18.5 48t35.5 38t56 17q31 0 56.5 -14t44 -28t32.5 -14q10 0 17 11t8 22l2 11l96 -10q0 -6 -1 -17t-8 -38t-18.5 -48t-36 -38t-56.5 -17zM282 357v-357h-222v700h233
l215 -341v341h222v-700h-222z" />
    <glyph glyph-name="Ograve" unicode="&#xd2;" horiz-adv-x="815" 
d="M324 747l-114 173h227l53 -173h-166zM35 346q0 152 108.5 258t267.5 106t264 -102t105 -254t-108.5 -258t-267.5 -106t-264 102t-105 254zM263 350q0 -65 40 -107.5t104 -42.5t104.5 43t40.5 107t-40.5 107t-104.5 43t-104 -42.5t-40 -107.5z" />
    <glyph glyph-name="Oacute" unicode="&#xd3;" horiz-adv-x="815" 
d="M324 747l54 173h226l-113 -173h-167zM35 346q0 152 108.5 258t267.5 106t264 -102t105 -254t-108.5 -258t-267.5 -106t-264 102t-105 254zM263 350q0 -65 40 -107.5t104 -42.5t104.5 43t40.5 107t-40.5 107t-104.5 43t-104 -42.5t-40 -107.5z" />
    <glyph glyph-name="Ocircumflex" unicode="&#xd4;" horiz-adv-x="815" 
d="M182 747l130 173h190l130 -173h-181l-47 52l-48 -52h-174zM35 346q0 152 108.5 258t267.5 106t264 -102t105 -254t-108.5 -258t-267.5 -106t-264 102t-105 254zM263 350q0 -65 40 -107.5t104 -42.5t104.5 43t40.5 107t-40.5 107t-104.5 43t-104 -42.5t-40 -107.5z" />
    <glyph glyph-name="Otilde" unicode="&#xd5;" horiz-adv-x="815" 
d="M475 745q-41 0 -79.5 28t-53.5 28q-10 0 -16.5 -11.5t-7.5 -22.5l-2 -11l-96 11q0 6 1 17t8 38t18.5 48t35.5 38t56 17q31 0 56.5 -14t44 -28t32.5 -14q10 0 17 11t9 22l1 11l96 -10q0 -6 -1 -17t-8 -38t-18.5 -48t-36 -38t-56.5 -17zM35 346q0 152 108.5 258t267.5 106
t264 -102t105 -254t-108.5 -258t-267.5 -106t-264 102t-105 254zM263 350q0 -65 40 -107.5t104 -42.5t104.5 43t40.5 107t-40.5 107t-104.5 43t-104 -42.5t-40 -107.5z" />
    <glyph glyph-name="Odieresis" unicode="&#xd6;" horiz-adv-x="815" 
d="M286 737q-46 0 -74.5 29t-28.5 74t30 75t75 30q46 0 74.5 -28.5t28.5 -73.5q0 -46 -30 -76t-75 -30zM526 737q-46 0 -74.5 29t-28.5 74t30 75t75 30q46 0 74.5 -28.5t28.5 -73.5q0 -46 -30 -76t-75 -30zM35 346q0 152 108.5 258t267.5 106t264 -102t105 -254t-108.5 -258
t-267.5 -106t-264 102t-105 254zM263 350q0 -65 40 -107.5t104 -42.5t104.5 43t40.5 107t-40.5 107t-104.5 43t-104 -42.5t-40 -107.5z" />
    <glyph glyph-name="multiply" unicode="&#xd7;" 
d="M157 77l-119 119l158 154l-158 154l119 119l156 -157l155 157l119 -119l-159 -154l159 -154l-119 -119l-155 157z" />
    <glyph glyph-name="Oslash" unicode="&#xd8;" horiz-adv-x="815" 
d="M793 730l-109 -131q96 -101 96 -245q0 -152 -108.5 -258t-267.5 -106q-102 0 -188 46l-55 -66h-139l109 131q-96 101 -96 245q0 152 108.5 258t267.5 106q102 0 188 -46l55 66h139zM257 350q0 -41 17 -77l186 224q-24 9 -53 9q-66 0 -108 -44.5t-42 -111.5zM558 350
q0 41 -17 77l-187 -224q24 -9 53 -9q67 0 109 44.5t42 111.5z" />
    <glyph glyph-name="Ugrave" unicode="&#xd9;" horiz-adv-x="740" 
d="M287 747l-114 173h227l53 -173h-166zM366 -10q-145 0 -230.5 80t-85.5 219v411h231v-400q0 -48 25 -74t68 -26t67.5 26.5t24.5 73.5v400h224v-404q0 -139 -89 -222.5t-235 -83.5z" />
    <glyph glyph-name="Uacute" unicode="&#xda;" horiz-adv-x="740" 
d="M287 747l54 173h226l-113 -173h-167zM366 -10q-145 0 -230.5 80t-85.5 219v411h231v-400q0 -48 25 -74t68 -26t67.5 26.5t24.5 73.5v400h224v-404q0 -139 -89 -222.5t-235 -83.5z" />
    <glyph glyph-name="Ucircumflex" unicode="&#xdb;" horiz-adv-x="740" 
d="M145 747l130 173h190l130 -173h-181l-47 52l-48 -52h-174zM366 -10q-145 0 -230.5 80t-85.5 219v411h231v-400q0 -48 25 -74t68 -26t67.5 26.5t24.5 73.5v400h224v-404q0 -139 -89 -222.5t-235 -83.5z" />
    <glyph glyph-name="Udieresis" unicode="&#xdc;" horiz-adv-x="740" 
d="M249 737q-46 0 -74.5 29t-28.5 74t30 75t75 30q46 0 74.5 -28.5t28.5 -73.5q0 -46 -30 -76t-75 -30zM489 737q-46 0 -74.5 29t-28.5 74t30 75t75 30q46 0 74.5 -28.5t28.5 -73.5q0 -46 -30 -76t-75 -30zM366 -10q-145 0 -230.5 80t-85.5 219v411h231v-400q0 -48 25 -74
t68 -26t67.5 26.5t24.5 73.5v400h224v-404q0 -139 -89 -222.5t-235 -83.5z" />
    <glyph glyph-name="Yacute" unicode="&#xdd;" horiz-adv-x="725" 
d="M285 747l54 173h226l-113 -173h-167zM249 0v240l-252 460h264l108 -241l107 241h252l-251 -460v-240h-228z" />
    <glyph glyph-name="Thorn" unicode="&#xde;" horiz-adv-x="690" 
d="M60 0v700h228v-94h96q123 0 197 -66.5t74 -177.5t-77.5 -181.5t-200.5 -70.5h-89v-110h-228zM288 295h69q33 0 51.5 16.5t18.5 46.5t-18.5 46.5t-51.5 16.5h-69v-126z" />
    <glyph glyph-name="germandbls" unicode="&#xdf;" horiz-adv-x="626" 
d="M344 -10q-19 0 -36 1.5t-24 2.5l-8 2l17 175q15 -2 26 -2q33 0 52 15t19 38q0 24 -18.5 38.5t-50.5 14.5h-26v167h11q20 0 32 12.5t12 32.5t-12 32t-32 12q-23 0 -37 -13.5t-14 -37.5v-480h-215v476q0 105 73 169.5t193 64.5q116 0 187.5 -57t71.5 -148q0 -79 -52 -129
q92 -60 92 -166q0 -97 -73.5 -158.5t-187.5 -61.5z" />
    <glyph glyph-name="agrave" unicode="&#xe0;" horiz-adv-x="579" 
d="M209 567l-114 173h227l53 -173h-166zM22 147q0 72 56.5 118t147.5 46q59 0 101 -15q0 22 -23.5 37t-58.5 15q-27 0 -55 -7.5t-42 -14.5l-14 -8l-82 152q10 7 28 17.5t79 28.5t127 18q118 0 187.5 -64.5t69.5 -175.5v-294h-168l-15 33q-55 -43 -142 -43q-91 0 -143.5 42.5
t-52.5 114.5zM238 157q0 -16 14 -27.5t34 -11.5q18 0 32 11.5t14 27.5t-14 27t-32 11q-20 0 -34 -11t-14 -27z" />
    <glyph glyph-name="aacute" unicode="&#xe1;" horiz-adv-x="579" 
d="M209 567l54 173h226l-113 -173h-167zM22 147q0 72 56.5 118t147.5 46q59 0 101 -15q0 22 -23.5 37t-58.5 15q-27 0 -55 -7.5t-42 -14.5l-14 -8l-82 152q10 7 28 17.5t79 28.5t127 18q118 0 187.5 -64.5t69.5 -175.5v-294h-168l-15 33q-55 -43 -142 -43q-91 0 -143.5 42.5
t-52.5 114.5zM238 157q0 -16 14 -27.5t34 -11.5q18 0 32 11.5t14 27.5t-14 27t-32 11q-20 0 -34 -11t-14 -27z" />
    <glyph glyph-name="acircumflex" unicode="&#xe2;" horiz-adv-x="579" 
d="M67 567l130 173h190l130 -173h-181l-47 52l-48 -52h-174zM22 147q0 72 56.5 118t147.5 46q59 0 101 -15q0 22 -23.5 37t-58.5 15q-27 0 -55 -7.5t-42 -14.5l-14 -8l-82 152q10 7 28 17.5t79 28.5t127 18q118 0 187.5 -64.5t69.5 -175.5v-294h-168l-15 33
q-55 -43 -142 -43q-91 0 -143.5 42.5t-52.5 114.5zM238 157q0 -16 14 -27.5t34 -11.5q18 0 32 11.5t14 27.5t-14 27t-32 11q-20 0 -34 -11t-14 -27z" />
    <glyph glyph-name="atilde" unicode="&#xe3;" horiz-adv-x="579" 
d="M360 565q-41 0 -79.5 28t-53.5 28q-10 0 -16.5 -11.5t-8.5 -22.5l-1 -11l-96 11q0 6 1 17t8 38t18.5 48t35.5 38t56 17q31 0 56.5 -14t44 -28t32.5 -14q10 0 17 11t8 22l2 11l96 -10q0 -6 -1 -17t-8 -38t-18.5 -48t-36 -38t-56.5 -17zM22 147q0 72 56.5 118t147.5 46
q59 0 101 -15q0 22 -23.5 37t-58.5 15q-27 0 -55 -7.5t-42 -14.5l-14 -8l-82 152q10 7 28 17.5t79 28.5t127 18q118 0 187.5 -64.5t69.5 -175.5v-294h-168l-15 33q-55 -43 -142 -43q-91 0 -143.5 42.5t-52.5 114.5zM238 157q0 -16 14 -27.5t34 -11.5q18 0 32 11.5t14 27.5
t-14 27t-32 11q-20 0 -34 -11t-14 -27z" />
    <glyph glyph-name="adieresis" unicode="&#xe4;" horiz-adv-x="579" 
d="M171 557q-46 0 -74.5 29t-28.5 74t30 75t75 30q46 0 74.5 -28.5t28.5 -73.5q0 -46 -30 -76t-75 -30zM411 557q-46 0 -74.5 29t-28.5 74t30 75t75 30q46 0 74.5 -28.5t28.5 -73.5q0 -46 -30 -76t-75 -30zM22 147q0 72 56.5 118t147.5 46q59 0 101 -15q0 22 -23.5 37
t-58.5 15q-27 0 -55 -7.5t-42 -14.5l-14 -8l-82 152q10 7 28 17.5t79 28.5t127 18q118 0 187.5 -64.5t69.5 -175.5v-294h-168l-15 33q-55 -43 -142 -43q-91 0 -143.5 42.5t-52.5 114.5zM238 157q0 -16 14 -27.5t34 -11.5q18 0 32 11.5t14 27.5t-14 27t-32 11q-20 0 -34 -11
t-14 -27z" />
    <glyph glyph-name="aring" unicode="&#xe5;" horiz-adv-x="579" 
d="M293 547q-45 0 -73.5 27.5t-28.5 69.5t28.5 69t73.5 27q44 0 72.5 -27.5t28.5 -68.5q0 -42 -28.5 -69.5t-72.5 -27.5zM293 610q15 0 23.5 10t8.5 24q0 13 -8.5 22.5t-23.5 9.5q-16 0 -25 -9.5t-9 -22.5q0 -14 9 -24t25 -10zM22 147q0 72 56.5 118t147.5 46q59 0 101 -15
q0 22 -23.5 37t-58.5 15q-27 0 -55 -7.5t-42 -14.5l-14 -8l-82 152q10 7 28 17.5t79 28.5t127 18q118 0 187.5 -64.5t69.5 -175.5v-294h-168l-15 33q-55 -43 -142 -43q-91 0 -143.5 42.5t-52.5 114.5zM238 157q0 -16 14 -27.5t34 -11.5q18 0 32 11.5t14 27.5t-14 27t-32 11
q-20 0 -34 -11t-14 -27z" />
    <glyph glyph-name="ae" unicode="&#xe6;" horiz-adv-x="901" 
d="M249 -10q-107 0 -167 42.5t-60 114.5t56.5 118t147.5 46q53 0 101 -17q0 25 -23 39.5t-59 14.5q-27 0 -55 -7.5t-42 -14.5l-14 -8l-82 152q10 7 29 17.5t81.5 28.5t129.5 18q89 0 161 -52q80 52 162 52q113 0 190 -73t77 -173q0 -22 -3 -39.5t-7 -24.5l-3 -6h-326
q24 -49 92 -49q26 0 50 9t35 18l10 9l118 -125q-3 -4 -8.5 -10t-26.5 -21.5t-45.5 -27.5t-66 -21.5t-87.5 -9.5q-100 0 -176 63q-72 -63 -189 -63zM544 324h133q-3 22 -19.5 41t-45.5 19t-46.5 -18.5t-21.5 -41.5zM286 118q18 0 32 11.5t14 27.5t-14 27t-32 11
q-20 0 -34 -11t-14 -27t14 -27.5t34 -11.5z" />
    <glyph glyph-name="ccedilla" unicode="&#xe7;" horiz-adv-x="530" 
d="M528 86q-6 -7 -16.5 -18.5t-48.5 -35.5t-82 -34q6 -17 6 -38q0 -70 -52.5 -112.5t-121.5 -42.5q-28 0 -54.5 6.5t-38.5 12.5l-13 6l40 120q15 -10 42 -10q52 0 52 42q0 12 -7 17q-95 23 -152 93t-57 166q0 116 84.5 196t209.5 80q39 0 75 -9t59 -22t40.5 -26.5
t25.5 -22.5l8 -9l-146 -140q-25 31 -65 31q-33 0 -54.5 -21.5t-21.5 -52.5t21.5 -53t54.5 -22q19 0 36.5 9t25.5 18l7 9z" />
    <glyph glyph-name="egrave" unicode="&#xe8;" horiz-adv-x="598" 
d="M230 567l-114 173h227l53 -173h-166zM312 -10q-125 0 -206 76.5t-81 191.5q0 116 82.5 196t205.5 80q113 0 190 -73t77 -173q0 -22 -3 -39.5t-7 -24.5l-3 -6h-326q9 -21 33.5 -35t57.5 -14q27 0 51 9t35 18l10 9l118 -125q-3 -4 -8.5 -10t-26.5 -21.5t-45.5 -27.5
t-66 -21.5t-87.5 -9.5zM242 324h133q-2 24 -20.5 42t-45.5 18t-44.5 -17t-22.5 -43z" />
    <glyph glyph-name="eacute" unicode="&#xe9;" horiz-adv-x="598" 
d="M230 567l53 173h227l-114 -173h-166zM312 -10q-125 0 -206 76.5t-81 191.5q0 116 82.5 196t205.5 80q113 0 190 -73t77 -173q0 -22 -3 -39.5t-7 -24.5l-3 -6h-326q9 -21 33.5 -35t57.5 -14q27 0 51 9t35 18l10 9l118 -125q-3 -4 -8.5 -10t-26.5 -21.5t-45.5 -27.5
t-66 -21.5t-87.5 -9.5zM242 324h133q-2 24 -20.5 42t-45.5 18t-44.5 -17t-22.5 -43z" />
    <glyph glyph-name="ecircumflex" unicode="&#xea;" horiz-adv-x="598" 
d="M88 567l130 173h190l130 -173h-181l-48 52l-47 -52h-174zM312 -10q-125 0 -206 76.5t-81 191.5q0 116 82.5 196t205.5 80q113 0 190 -73t77 -173q0 -22 -3 -39.5t-7 -24.5l-3 -6h-326q9 -21 33.5 -35t57.5 -14q27 0 51 9t35 18l10 9l118 -125q-3 -4 -8.5 -10t-26.5 -21.5
t-45.5 -27.5t-66 -21.5t-87.5 -9.5zM242 324h133q-2 24 -20.5 42t-45.5 18t-44.5 -17t-22.5 -43z" />
    <glyph glyph-name="edieresis" unicode="&#xeb;" horiz-adv-x="598" 
d="M191 557q-45 0 -73.5 29t-28.5 74t30 75t75 30t74 -28.5t29 -73.5q0 -46 -30 -76t-76 -30zM432 557q-46 0 -74.5 29t-28.5 74t30 75t75 30t74 -28.5t29 -73.5q0 -46 -30 -76t-75 -30zM312 -10q-125 0 -206 76.5t-81 191.5q0 116 82.5 196t205.5 80q113 0 190 -73t77 -173
q0 -22 -3 -39.5t-7 -24.5l-3 -6h-326q9 -21 33.5 -35t57.5 -14q27 0 51 9t35 18l10 9l118 -125q-3 -4 -8.5 -10t-26.5 -21.5t-45.5 -27.5t-66 -21.5t-87.5 -9.5zM242 324h133q-2 24 -20.5 42t-45.5 18t-44.5 -17t-22.5 -43z" />
    <glyph glyph-name="igrave" unicode="&#xec;" horiz-adv-x="307" 
d="M71 567l-114 173h227l53 -173h-166zM45 524h217v-524h-217v524z" />
    <glyph glyph-name="iacute" unicode="&#xed;" horiz-adv-x="307" 
d="M70 567l54 173h226l-113 -173h-167zM45 524h217v-524h-217v524z" />
    <glyph glyph-name="icircumflex" unicode="&#xee;" horiz-adv-x="307" 
d="M-72 567l130 173h190l130 -173h-181l-47 52l-48 -52h-174zM45 524h217v-524h-217v524z" />
    <glyph glyph-name="idieresis" unicode="&#xef;" horiz-adv-x="307" 
d="M33 557q-46 0 -74.5 29t-28.5 74t30 75t75 30q46 0 74.5 -28.5t28.5 -73.5q0 -46 -30 -76t-75 -30zM273 557q-46 0 -74.5 29t-28.5 74t30 75t75 30q46 0 74.5 -28.5t28.5 -73.5q0 -46 -30 -76t-75 -30zM45 524h217v-524h-217v524z" />
    <glyph glyph-name="eth" unicode="&#xf0;" horiz-adv-x="631" 
d="M531 482q75 -104 75 -218q0 -118 -89 -196t-205 -78q-123 0 -205 72.5t-82 198.5q0 102 74 171t170 69q3 0 9.5 -0.5t9.5 -0.5l-33 43l-141 -31v105l72 16l-52 67h239l16 -22l177 39v-105l-111 -25zM316 187q32 0 53.5 22.5t21.5 54.5q0 33 -21 55t-54 22t-54.5 -22
t-21.5 -55q0 -32 21.5 -54.5t54.5 -22.5z" />
    <glyph glyph-name="ntilde" unicode="&#xf1;" horiz-adv-x="616" 
d="M376 565q-41 0 -79.5 28t-53.5 28q-10 0 -16.5 -11.5t-8.5 -22.5l-1 -11l-96 11q0 6 1 17t8 38t18.5 48t35.5 38t56 17q31 0 56.5 -14t44 -28t32.5 -14q10 0 17 11t8 22l2 11l96 -10q0 -6 -1 -17t-8 -38t-18.5 -48t-36 -38t-56.5 -17zM255 0h-215v524h192l8 -61
q57 71 151 71q84 0 136.5 -53t52.5 -139v-342h-215v272q0 64 -56 64q-25 0 -39.5 -15.5t-14.5 -43.5v-277z" />
    <glyph glyph-name="ograve" unicode="&#xf2;" horiz-adv-x="631" 
d="M233 567l-114 173h227l53 -173h-166zM25 258q0 116 84.5 196t209.5 80t206 -76.5t81 -192.5q0 -115 -84.5 -195t-209.5 -80t-206 76.5t-81 191.5zM240 262q0 -31 21.5 -53t54.5 -22q32 0 53.5 22t21.5 53t-21.5 52.5t-53.5 21.5q-33 0 -54.5 -21.5t-21.5 -52.5z" />
    <glyph glyph-name="oacute" unicode="&#xf3;" horiz-adv-x="631" 
d="M232 567l54 173h226l-113 -173h-167zM25 258q0 116 84.5 196t209.5 80t206 -76.5t81 -192.5q0 -115 -84.5 -195t-209.5 -80t-206 76.5t-81 191.5zM240 262q0 -31 21.5 -53t54.5 -22q32 0 53.5 22t21.5 53t-21.5 52.5t-53.5 21.5q-33 0 -54.5 -21.5t-21.5 -52.5z" />
    <glyph glyph-name="ocircumflex" unicode="&#xf4;" horiz-adv-x="631" 
d="M90 567l130 173h190l130 -173h-181l-47 52l-48 -52h-174zM25 258q0 116 84.5 196t209.5 80t206 -76.5t81 -192.5q0 -115 -84.5 -195t-209.5 -80t-206 76.5t-81 191.5zM240 262q0 -31 21.5 -53t54.5 -22q32 0 53.5 22t21.5 53t-21.5 52.5t-53.5 21.5q-33 0 -54.5 -21.5
t-21.5 -52.5z" />
    <glyph glyph-name="otilde" unicode="&#xf5;" horiz-adv-x="631" 
d="M383 565q-41 0 -79.5 28t-53.5 28q-10 0 -16.5 -11.5t-7.5 -22.5l-2 -11l-96 11q0 6 1 17t8 38t18.5 48t35.5 38t56 17q31 0 56.5 -14t44 -28t32.5 -14q10 0 17 11t9 22l1 11l96 -10q0 -6 -1 -17t-8 -38t-18.5 -48t-36 -38t-56.5 -17zM25 258q0 116 84.5 196t209.5 80
t206 -76.5t81 -192.5q0 -115 -84.5 -195t-209.5 -80t-206 76.5t-81 191.5zM240 262q0 -31 21.5 -53t54.5 -22q32 0 53.5 22t21.5 53t-21.5 52.5t-53.5 21.5q-33 0 -54.5 -21.5t-21.5 -52.5z" />
    <glyph glyph-name="odieresis" unicode="&#xf6;" horiz-adv-x="631" 
d="M195 557q-46 0 -74.5 29t-28.5 74t30 75t75 30q46 0 74.5 -28.5t28.5 -73.5q0 -46 -30 -76t-75 -30zM435 557q-46 0 -74.5 29t-28.5 74t30 75t75 30q46 0 74.5 -28.5t28.5 -73.5q0 -46 -30 -76t-75 -30zM25 258q0 116 84.5 196t209.5 80t206 -76.5t81 -192.5
q0 -115 -84.5 -195t-209.5 -80t-206 76.5t-81 191.5zM240 262q0 -31 21.5 -53t54.5 -22q32 0 53.5 22t21.5 53t-21.5 52.5t-53.5 21.5q-33 0 -54.5 -21.5t-21.5 -52.5z" />
    <glyph glyph-name="divide" unicode="&#xf7;" 
d="M313 462q-49 0 -82.5 33.5t-33.5 82.5q0 48 33.5 81.5t82.5 33.5q48 0 81.5 -33.5t33.5 -81.5q0 -49 -33.5 -82.5t-81.5 -33.5zM50 265v179h525v-179h-525zM313 16q-49 0 -82.5 33.5t-33.5 81.5t33.5 81.5t82.5 33.5q48 0 81.5 -33.5t33.5 -81.5t-33.5 -81.5t-81.5 -33.5
z" />
    <glyph glyph-name="oslash" unicode="&#xf8;" horiz-adv-x="631" 
d="M526 456q80 -75 80 -191q0 -115 -84.5 -195t-209.5 -80q-66 0 -123 23l-33 -43h-126l74 98q-79 74 -79 190t84.5 196t209.5 80q66 0 123 -23l33 43h126zM222 262q0 -17 6 -32l95 125h-7q-40 0 -67 -27.5t-27 -65.5zM316 169q40 0 66.5 27.5t26.5 65.5q0 16 -6 33
l-95 -126h8z" />
    <glyph glyph-name="ugrave" unicode="&#xf9;" horiz-adv-x="617" 
d="M226 567l-114 173h227l53 -173h-166zM361 524h215v-524h-192l-8 61q-57 -71 -151 -71q-84 0 -136.5 53t-52.5 139v342h215v-272q0 -64 56 -64q25 0 39.5 15.5t14.5 43.5v277z" />
    <glyph glyph-name="uacute" unicode="&#xfa;" horiz-adv-x="617" 
d="M226 567l54 173h226l-113 -173h-167zM361 524h215v-524h-192l-8 61q-57 -71 -151 -71q-84 0 -136.5 53t-52.5 139v342h215v-272q0 -64 56 -64q25 0 39.5 15.5t14.5 43.5v277z" />
    <glyph glyph-name="ucircumflex" unicode="&#xfb;" horiz-adv-x="617" 
d="M84 567l130 173h190l130 -173h-181l-47 52l-48 -52h-174zM361 524h215v-524h-192l-8 61q-57 -71 -151 -71q-84 0 -136.5 53t-52.5 139v342h215v-272q0 -64 56 -64q25 0 39.5 15.5t14.5 43.5v277z" />
    <glyph glyph-name="udieresis" unicode="&#xfc;" horiz-adv-x="617" 
d="M188 557q-46 0 -74.5 29t-28.5 74t30 75t75 30q46 0 74.5 -28.5t28.5 -73.5q0 -46 -30 -76t-75 -30zM428 557q-46 0 -74.5 29t-28.5 74t30 75t75 30q46 0 74.5 -28.5t28.5 -73.5q0 -46 -30 -76t-75 -30zM361 524h215v-524h-192l-8 61q-57 -71 -151 -71q-84 0 -136.5 53
t-52.5 139v342h215v-272q0 -64 56 -64q25 0 39.5 15.5t14.5 43.5v277z" />
    <glyph glyph-name="yacute" unicode="&#xfd;" horiz-adv-x="568" 
d="M487 740l-113 -173h-167l54 173h226zM355 524h228l-194 -529q-32 -86 -86.5 -125.5t-141.5 -39.5q-46 0 -90 11.5t-65 22.5l-21 12l67 167q32 -26 85 -26q18 0 33 5l-185 502h239l65 -260z" />
    <glyph glyph-name="thorn" unicode="&#xfe;" horiz-adv-x="641" 
d="M40 700h215v-204q54 38 117 38q100 0 172 -78t72 -191q0 -114 -74.5 -194.5t-176.5 -80.5q-61 0 -110 29v-179h-215v860zM250 262q0 -31 21.5 -53t53.5 -22q33 0 54.5 22t21.5 53t-21.5 52.5t-54.5 21.5q-32 0 -53.5 -21.5t-21.5 -52.5z" />
    <glyph glyph-name="ydieresis" unicode="&#xff;" horiz-adv-x="568" 
d="M169 557q-46 0 -74.5 29t-28.5 74t30 75t75 30q46 0 74.5 -28.5t28.5 -73.5q0 -46 -30 -76t-75 -30zM409 557q-46 0 -74.5 29t-28.5 74t30 75t75 30q46 0 74.5 -28.5t28.5 -73.5q0 -46 -30 -76t-75 -30zM355 524h228l-194 -529q-32 -86 -86.5 -125.5t-141.5 -39.5
q-46 0 -90 11.5t-65 22.5l-21 12l67 167q32 -26 85 -26q18 0 33 5l-185 502h239l65 -260z" />
    <glyph glyph-name="Amacron" unicode="&#x100;" horiz-adv-x="755" 
d="M198 781v117h360v-117h-360zM-3 0l267 700h228l266 -700h-253l-29 96h-209l-29 -96h-241zM318 267h108l-54 180z" />
    <glyph glyph-name="amacron" unicode="&#x101;" horiz-adv-x="579" 
d="M112 601v117h360v-117h-360zM22 147q0 72 56.5 118t147.5 46q59 0 101 -15q0 22 -23.5 37t-58.5 15q-27 0 -55 -7.5t-42 -14.5l-14 -8l-82 152q10 7 28 17.5t79 28.5t127 18q118 0 187.5 -64.5t69.5 -175.5v-294h-168l-15 33q-55 -43 -142 -43q-91 0 -143.5 42.5
t-52.5 114.5zM238 157q0 -16 14 -27.5t34 -11.5q18 0 32 11.5t14 27.5t-14 27t-32 11q-20 0 -34 -11t-14 -27z" />
    <glyph glyph-name="Abreve" unicode="&#x102;" horiz-adv-x="755" 
d="M378 747q-80 0 -130.5 46t-50.5 122v5h140v-18q0 -37 42 -37q39 0 39 37v18h141v-5q0 -76 -50.5 -122t-130.5 -46zM-3 0l267 700h228l266 -700h-253l-29 96h-209l-29 -96h-241zM318 267h108l-54 180z" />
    <glyph glyph-name="abreve" unicode="&#x103;" horiz-adv-x="579" 
d="M292 567q-80 0 -130.5 46t-50.5 122v5h141v-18q0 -37 41 -37q39 0 39 37v18h141v-5q0 -76 -50.5 -122t-130.5 -46zM22 147q0 72 56.5 118t147.5 46q59 0 101 -15q0 22 -23.5 37t-58.5 15q-27 0 -55 -7.5t-42 -14.5l-14 -8l-82 152q10 7 28 17.5t79 28.5t127 18
q118 0 187.5 -64.5t69.5 -175.5v-294h-168l-15 33q-55 -43 -142 -43q-91 0 -143.5 42.5t-52.5 114.5zM238 157q0 -16 14 -27.5t34 -11.5q18 0 32 11.5t14 27.5t-14 27t-32 11q-20 0 -34 -11t-14 -27z" />
    <glyph glyph-name="Aogonek" unicode="&#x104;" horiz-adv-x="755" 
d="M602 -50q12 0 22.5 2.5t15.5 5.5l4 2l28 -119q-33 -26 -92 -26q-61 0 -104.5 38t-43.5 103q0 63 55 103l-11 37h-209l-29 -96h-241l267 700h228l266 -700h-178q-14 -8 -14 -23q0 -11 9.5 -19t26.5 -8zM318 267h108l-54 180z" />
    <glyph glyph-name="aogonek" unicode="&#x105;" horiz-adv-x="579" 
d="M577 -40l27 -119q-33 -26 -92 -26q-61 0 -104.5 38t-43.5 103q0 23 9 48l-13 29q-55 -43 -142 -43q-91 0 -143.5 42.5t-52.5 114.5t56.5 118t147.5 46q59 0 101 -15q0 22 -23.5 37t-58.5 15q-27 0 -55 -7.5t-42 -14.5l-14 -8l-82 152q10 7 28 17.5t79 28.5t127 18
q118 0 187.5 -64.5t69.5 -175.5v-294h-30q-14 -8 -14 -23q0 -11 9.5 -19t26.5 -8q12 0 22.5 2.5t14.5 5.5zM286 118q18 0 32 11.5t14 27.5t-14 27t-32 11q-20 0 -34 -11t-14 -27t14 -27.5t34 -11.5z" />
    <glyph glyph-name="Cacute" unicode="&#x106;" horiz-adv-x="709" 
d="M324 747l54 173h226l-113 -173h-167zM404 -10q-159 0 -264 102t-105 254t108.5 258t267.5 106q56 0 105.5 -12.5t79.5 -31t52.5 -36.5t31.5 -30l9 -13l-165 -142q-4 6 -11.5 15t-38 24.5t-67.5 15.5q-64 0 -104 -42.5t-40 -107.5t40 -107.5t104 -42.5q25 0 47.5 6.5
t36.5 16t25 19.5t16 16l5 7l157 -138q-3 -6 -10 -15t-32 -32.5t-55.5 -41.5t-82 -33t-110.5 -15z" />
    <glyph glyph-name="cacute" unicode="&#x107;" horiz-adv-x="530" 
d="M236 567l54 173h226l-113 -173h-167zM312 -10q-125 0 -206 76.5t-81 191.5q0 116 84.5 196t209.5 80q39 0 75 -9t59 -22t40.5 -26.5t25.5 -22.5l8 -9l-146 -140q-25 31 -65 31q-33 0 -54.5 -21.5t-21.5 -52.5t21.5 -53t54.5 -22q19 0 36.5 9t25.5 18l7 9l143 -137
q-3 -4 -9 -10.5t-26 -23t-43 -29t-60.5 -23t-77.5 -10.5z" />
    <glyph glyph-name="Ccircumflex" unicode="&#x108;" horiz-adv-x="709" 
d="M182 747l130 173h190l130 -173h-181l-47 52l-48 -52h-174zM404 -10q-159 0 -264 102t-105 254t108.5 258t267.5 106q56 0 105.5 -12.5t79.5 -31t52.5 -36.5t31.5 -30l9 -13l-165 -142q-4 6 -11.5 15t-38 24.5t-67.5 15.5q-64 0 -104 -42.5t-40 -107.5t40 -107.5
t104 -42.5q25 0 47.5 6.5t36.5 16t25 19.5t16 16l5 7l157 -138q-3 -6 -10 -15t-32 -32.5t-55.5 -41.5t-82 -33t-110.5 -15z" />
    <glyph glyph-name="ccircumflex" unicode="&#x109;" horiz-adv-x="530" 
d="M94 567l130 173h190l130 -173h-181l-47 52l-48 -52h-174zM312 -10q-125 0 -206 76.5t-81 191.5q0 116 84.5 196t209.5 80q39 0 75 -9t59 -22t40.5 -26.5t25.5 -22.5l8 -9l-146 -140q-25 31 -65 31q-33 0 -54.5 -21.5t-21.5 -52.5t21.5 -53t54.5 -22q19 0 36.5 9t25.5 18
l7 9l143 -137q-3 -4 -9 -10.5t-26 -23t-43 -29t-60.5 -23t-77.5 -10.5z" />
    <glyph glyph-name="Cdotaccent" unicode="&#x10a;" horiz-adv-x="709" 
d="M407 737q-46 0 -74.5 29t-28.5 74t30 75t75 30q46 0 74.5 -28.5t28.5 -73.5q0 -46 -30 -76t-75 -30zM404 -10q-159 0 -264 102t-105 254t108.5 258t267.5 106q56 0 105.5 -12.5t79.5 -31t52.5 -36.5t31.5 -30l9 -13l-165 -142q-4 6 -11.5 15t-38 24.5t-67.5 15.5
q-64 0 -104 -42.5t-40 -107.5t40 -107.5t104 -42.5q25 0 47.5 6.5t36.5 16t25 19.5t16 16l5 7l157 -138q-3 -6 -10 -15t-32 -32.5t-55.5 -41.5t-82 -33t-110.5 -15z" />
    <glyph glyph-name="cdotaccent" unicode="&#x10b;" horiz-adv-x="530" 
d="M318 557q-46 0 -74.5 29t-28.5 74t30 75t75 30q46 0 74.5 -28.5t28.5 -73.5q0 -46 -30 -76t-75 -30zM312 -10q-125 0 -206 76.5t-81 191.5q0 116 84.5 196t209.5 80q39 0 75 -9t59 -22t40.5 -26.5t25.5 -22.5l8 -9l-146 -140q-25 31 -65 31q-33 0 -54.5 -21.5
t-21.5 -52.5t21.5 -53t54.5 -22q19 0 36.5 9t25.5 18l7 9l143 -137q-3 -4 -9 -10.5t-26 -23t-43 -29t-60.5 -23t-77.5 -10.5z" />
    <glyph glyph-name="Ccaron" unicode="&#x10c;" horiz-adv-x="709" 
d="M312 747l-130 173h181l48 -53l47 53h174l-130 -173h-190zM404 -10q-159 0 -264 102t-105 254t108.5 258t267.5 106q56 0 105.5 -12.5t79.5 -31t52.5 -36.5t31.5 -30l9 -13l-165 -142q-4 6 -11.5 15t-38 24.5t-67.5 15.5q-64 0 -104 -42.5t-40 -107.5t40 -107.5t104 -42.5
q25 0 47.5 6.5t36.5 16t25 19.5t16 16l5 7l157 -138q-3 -6 -10 -15t-32 -32.5t-55.5 -41.5t-82 -33t-110.5 -15z" />
    <glyph glyph-name="ccaron" unicode="&#x10d;" horiz-adv-x="530" 
d="M224 567l-130 173h181l48 -53l47 53h174l-130 -173h-190zM312 -10q-125 0 -206 76.5t-81 191.5q0 116 84.5 196t209.5 80q39 0 75 -9t59 -22t40.5 -26.5t25.5 -22.5l8 -9l-146 -140q-25 31 -65 31q-33 0 -54.5 -21.5t-21.5 -52.5t21.5 -53t54.5 -22q19 0 36.5 9t25.5 18
l7 9l143 -137q-3 -4 -9 -10.5t-26 -23t-43 -29t-60.5 -23t-77.5 -10.5z" />
    <glyph glyph-name="Dcaron" unicode="&#x10e;" horiz-adv-x="760" 
d="M285 747l-130 173h181l48 -53l47 53h174l-130 -173h-190zM60 0v700h276q170 0 279.5 -98t109.5 -248t-113.5 -252t-282.5 -102h-269zM288 198h50q70 0 114.5 42t44.5 110t-44.5 110t-114.5 42h-50v-304z" />
    <glyph glyph-name="dcaron" unicode="&#x10f;" horiz-adv-x="883" 
d="M270 -10q-100 0 -172.5 77.5t-72.5 190.5q0 114 74.5 195t177.5 81q59 0 109 -31v197h215v-700h-179l-16 49q-56 -59 -136 -59zM641 417l28 283h214l-86 -283h-156zM316 187q32 0 53.5 22t21.5 53t-21.5 52.5t-53.5 21.5q-33 0 -54.5 -21.5t-21.5 -52.5t21.5 -53
t54.5 -22z" />
    <glyph glyph-name="Dcroat" unicode="&#x110;" horiz-adv-x="803" 
d="M379 700q169 0 279 -98t110 -248t-113.5 -252t-282.5 -102h-270v295h-72v117h72v288h277zM380 198q71 0 115.5 42t44.5 110t-44.5 110t-115.5 42h-50v-90h110v-117h-110v-97h50z" />
    <glyph glyph-name="dcroat" unicode="&#x111;" horiz-adv-x="689" 
d="M669 669v-117h-68v-552h-179l-16 49q-56 -59 -136 -59q-100 0 -172.5 77.5t-72.5 190.5q0 114 74.5 195t177.5 81q59 0 109 -31v49h-91v117h91v31h215v-31h68zM316 187q32 0 53.5 22t21.5 53t-21.5 52.5t-53.5 21.5q-33 0 -54.5 -21.5t-21.5 -52.5t21.5 -53t54.5 -22z
" />
    <glyph glyph-name="Emacron" unicode="&#x112;" horiz-adv-x="650" 
d="M152 781v117h360v-117h-360zM60 0v700h545v-193h-317v-74h267v-164h-267v-76h327v-193h-555z" />
    <glyph glyph-name="emacron" unicode="&#x113;" horiz-adv-x="598" 
d="M133 601v117h360v-117h-360zM312 -10q-125 0 -206 76.5t-81 191.5q0 116 82.5 196t205.5 80q113 0 190 -73t77 -173q0 -22 -3 -39.5t-7 -24.5l-3 -6h-326q9 -21 33.5 -35t57.5 -14q27 0 51 9t35 18l10 9l118 -125q-3 -4 -8.5 -10t-26.5 -21.5t-45.5 -27.5t-66 -21.5
t-87.5 -9.5zM242 324h133q-2 24 -20.5 42t-45.5 18t-44.5 -17t-22.5 -43z" />
    <glyph glyph-name="Ebreve" unicode="&#x114;" horiz-adv-x="650" 
d="M332 747q-80 0 -130.5 46t-50.5 122v5h141v-18q0 -37 41 -37q40 0 40 37v18h141v-5q0 -76 -50.5 -122t-131.5 -46zM60 0v700h545v-193h-317v-74h267v-164h-267v-76h327v-193h-555z" />
    <glyph glyph-name="ebreve" unicode="&#x115;" horiz-adv-x="598" 
d="M313 567q-80 0 -130.5 46t-50.5 122v5h140v-18q0 -17 11 -27t31 -10q39 0 39 37v18h141v-5q0 -76 -50.5 -122t-130.5 -46zM312 -10q-125 0 -206 76.5t-81 191.5q0 116 82.5 196t205.5 80q113 0 190 -73t77 -173q0 -22 -3 -39.5t-7 -24.5l-3 -6h-326q9 -21 33.5 -35
t57.5 -14q27 0 51 9t35 18l10 9l118 -125q-3 -4 -8.5 -10t-26.5 -21.5t-45.5 -27.5t-66 -21.5t-87.5 -9.5zM242 324h133q-2 24 -20.5 42t-45.5 18t-44.5 -17t-22.5 -43z" />
    <glyph glyph-name="Edotaccent" unicode="&#x116;" horiz-adv-x="650" 
d="M331 737q-45 0 -73.5 29t-28.5 74t29.5 75t75.5 30q45 0 73.5 -28.5t28.5 -73.5q0 -46 -29.5 -76t-75.5 -30zM60 0v700h545v-193h-317v-74h267v-164h-267v-76h327v-193h-555z" />
    <glyph glyph-name="edotaccent" unicode="&#x117;" horiz-adv-x="598" 
d="M311 557q-45 0 -73.5 29t-28.5 74t30 75t75 30t74 -28.5t29 -73.5q0 -46 -30 -76t-76 -30zM312 -10q-125 0 -206 76.5t-81 191.5q0 116 82.5 196t205.5 80q113 0 190 -73t77 -173q0 -22 -3 -39.5t-7 -24.5l-3 -6h-326q9 -21 33.5 -35t57.5 -14q27 0 51 9t35 18l10 9
l118 -125q-3 -4 -8.5 -10t-26.5 -21.5t-45.5 -27.5t-66 -21.5t-87.5 -9.5zM242 324h133q-2 24 -20.5 42t-45.5 18t-44.5 -17t-22.5 -43z" />
    <glyph glyph-name="Eogonek" unicode="&#x118;" horiz-adv-x="650" 
d="M600 -40l28 -119q-33 -26 -92 -26q-61 0 -105 38t-44 103q0 23 8 44h-335v700h545v-193h-317v-74h267v-164h-267v-76h327v-193h-79q-14 -8 -14 -23q0 -11 9.5 -19t26.5 -8q12 0 22.5 2.5t15.5 5.5z" />
    <glyph glyph-name="eogonek" unicode="&#x119;" horiz-adv-x="598" 
d="M580 288q0 -22 -3 -39.5t-7 -24.5l-3 -6h-326q9 -21 33.5 -35t57.5 -14q27 0 51 9t35 18l10 9l118 -125q-5 -6 -15 -16.5t-48 -32t-83 -31.5q-13 -13 -13 -23q0 -11 9.5 -19t26.5 -8q12 0 22.5 2.5t14.5 5.5l5 2l27 -119q-33 -26 -91 -26q-61 0 -105 38t-44 103
q0 22 6 38q-104 17 -168.5 89.5t-64.5 174.5q0 116 82.5 196t205.5 80q113 0 190 -73t77 -173zM242 324h133q-2 24 -20.5 42t-45.5 18t-44.5 -17t-22.5 -43z" />
    <glyph glyph-name="Ecaron" unicode="&#x11a;" horiz-adv-x="650" 
d="M237 747l-130 173h181l48 -53l47 53h175l-130 -173h-191zM60 0v700h545v-193h-317v-74h267v-164h-267v-76h327v-193h-555z" />
    <glyph glyph-name="ecaron" unicode="&#x11b;" horiz-adv-x="598" 
d="M218 567l-130 173h181l47 -53l48 53h174l-130 -173h-190zM312 -10q-125 0 -206 76.5t-81 191.5q0 116 82.5 196t205.5 80q113 0 190 -73t77 -173q0 -22 -3 -39.5t-7 -24.5l-3 -6h-326q9 -21 33.5 -35t57.5 -14q27 0 51 9t35 18l10 9l118 -125q-3 -4 -8.5 -10t-26.5 -21.5
t-45.5 -27.5t-66 -21.5t-87.5 -9.5zM242 324h133q-2 24 -20.5 42t-45.5 18t-44.5 -17t-22.5 -43z" />
    <glyph glyph-name="Gcircumflex" unicode="&#x11c;" horiz-adv-x="790" 
d="M180 747l130 173h191l130 -173h-182l-47 52l-48 -52h-174zM404 -10q-159 0 -264 102t-105 254t108.5 258t267.5 106q56 0 106 -12t80.5 -29t53 -33.5t31.5 -28.5l10 -12l-155 -155l-16 16t-43.5 26t-69.5 16q-64 0 -104.5 -42.5t-40.5 -109.5t40 -111t104 -44
q89 0 118 66h-130v150h354q5 -30 5 -62q0 -152 -94.5 -253.5t-255.5 -101.5z" />
    <glyph glyph-name="gcircumflex" unicode="&#x11d;" horiz-adv-x="641" 
d="M318 619l-48 -52h-174l130 173h190l130 -173h-181zM422 524h179v-387q0 -141 -79.5 -224t-223.5 -83q-77 0 -146.5 21t-99.5 41l-31 21l77 155q10 -7 26.5 -16.5t63.5 -26t88 -16.5q103 0 110 72q-46 -26 -110 -26q-106 0 -178.5 69t-72.5 167q0 105 71 174t187 69
q69 0 127 -41zM316 221q32 0 53.5 20t21.5 47q0 28 -21.5 47.5t-53.5 19.5q-33 0 -54.5 -19.5t-21.5 -47.5q0 -27 21.5 -47t54.5 -20z" />
    <glyph glyph-name="Gbreve" unicode="&#x11e;" horiz-adv-x="790" 
d="M405 747q-80 0 -130.5 46t-50.5 122v5h141v-18q0 -37 41 -37q40 0 40 37v18h141v-5q0 -76 -50.5 -122t-131.5 -46zM404 -10q-159 0 -264 102t-105 254t108.5 258t267.5 106q56 0 106 -12t80.5 -29t53 -33.5t31.5 -28.5l10 -12l-155 -155l-16 16t-43.5 26t-69.5 16
q-64 0 -104.5 -42.5t-40.5 -109.5t40 -111t104 -44q89 0 118 66h-130v150h354q5 -30 5 -62q0 -152 -94.5 -253.5t-255.5 -101.5z" />
    <glyph glyph-name="gbreve" unicode="&#x11f;" horiz-adv-x="641" 
d="M321 567q-80 0 -130.5 46t-50.5 122v5h141v-18q0 -37 41 -37q39 0 39 37v18h141v-5q0 -76 -50.5 -122t-130.5 -46zM422 524h179v-387q0 -141 -79.5 -224t-223.5 -83q-77 0 -146.5 21t-99.5 41l-31 21l77 155q10 -7 26.5 -16.5t63.5 -26t88 -16.5q103 0 110 72
q-46 -26 -110 -26q-106 0 -178.5 69t-72.5 167q0 105 71 174t187 69q69 0 127 -41zM316 221q32 0 53.5 20t21.5 47q0 28 -21.5 47.5t-53.5 19.5q-33 0 -54.5 -19.5t-21.5 -47.5q0 -27 21.5 -47t54.5 -20z" />
    <glyph glyph-name="Gdotaccent" unicode="&#x120;" horiz-adv-x="790" 
d="M404 737q-45 0 -73.5 29t-28.5 74t29.5 75t75.5 30q45 0 73.5 -28.5t28.5 -73.5q0 -46 -29.5 -76t-75.5 -30zM404 -10q-159 0 -264 102t-105 254t108.5 258t267.5 106q56 0 106 -12t80.5 -29t53 -33.5t31.5 -28.5l10 -12l-155 -155l-16 16t-43.5 26t-69.5 16
q-64 0 -104.5 -42.5t-40.5 -109.5t40 -111t104 -44q89 0 118 66h-130v150h354q5 -30 5 -62q0 -152 -94.5 -253.5t-255.5 -101.5z" />
    <glyph glyph-name="gdotaccent" unicode="&#x121;" horiz-adv-x="641" 
d="M320 557q-46 0 -74.5 29t-28.5 74t30 75t75 30q46 0 74.5 -28.5t28.5 -73.5q0 -46 -30 -76t-75 -30zM422 524h179v-387q0 -141 -79.5 -224t-223.5 -83q-77 0 -146.5 21t-99.5 41l-31 21l77 155q10 -7 26.5 -16.5t63.5 -26t88 -16.5q103 0 110 72q-46 -26 -110 -26
q-106 0 -178.5 69t-72.5 167q0 105 71 174t187 69q69 0 127 -41zM316 221q32 0 53.5 20t21.5 47q0 28 -21.5 47.5t-53.5 19.5q-33 0 -54.5 -19.5t-21.5 -47.5q0 -27 21.5 -47t54.5 -20z" />
    <glyph glyph-name="uni0122" unicode="&#x122;" horiz-adv-x="790" 
d="M404 -10q-159 0 -264 102t-105 254t108.5 258t267.5 106q56 0 106 -12t80.5 -29t53 -33.5t31.5 -28.5l10 -12l-155 -155l-16 16t-43.5 26t-69.5 16q-64 0 -104.5 -42.5t-40.5 -109.5t40 -111t104 -44q89 0 118 66h-130v150h354q5 -30 5 -62q0 -152 -94.5 -253.5
t-255.5 -101.5zM239 -223l53 173h227l-114 -173h-166z" />
    <glyph glyph-name="uni0123" unicode="&#x123;" horiz-adv-x="641" 
d="M488 746l-53 -172h-227l114 172h166zM422 524h179v-387q0 -141 -79.5 -224t-223.5 -83q-77 0 -146.5 21t-99.5 41l-31 21l77 155q10 -7 26.5 -16.5t63.5 -26t88 -16.5q103 0 110 72q-46 -26 -110 -26q-106 0 -178.5 69t-72.5 167q0 105 71 174t187 69q69 0 127 -41z
M316 221q32 0 53.5 20t21.5 47q0 28 -21.5 47.5t-53.5 19.5q-33 0 -54.5 -19.5t-21.5 -47.5q0 -27 21.5 -47t54.5 -20z" />
    <glyph glyph-name="Hcircumflex" unicode="&#x124;" horiz-adv-x="770" 
d="M160 747l130 173h190l130 -173h-181l-47 52l-48 -52h-174zM60 0v700h228v-241h194v241h228v-700h-228v255h-194v-255h-228z" />
    <glyph glyph-name="hcircumflex" unicode="&#x125;" horiz-adv-x="616" 
d="M84 747l130 173h190l130 -173h-181l-47 52l-48 -52h-174zM40 0v700h215v-224q58 58 136 58q82 0 135.5 -53.5t53.5 -138.5v-342h-215v272q0 64 -56 64q-24 0 -39 -15t-15 -41v-280h-215z" />
    <glyph glyph-name="Hbar" unicode="&#x126;" horiz-adv-x="855" 
d="M825 635v-117h-72v-518h-228v255h-195v-255h-228v518h-72v117h72v65h228v-65h195v65h228v-65h72zM525 459v59h-195v-59h195z" />
    <glyph glyph-name="hbar" unicode="&#x127;" horiz-adv-x="664" 
d="M438 534q83 0 136.5 -53.5t53.5 -138.5v-342h-216v272q0 64 -55 64q-24 0 -39 -15t-15 -41v-280h-216v552h-67v117h67v31h216v-31h91v-117h-91v-76q58 58 135 58z" />
    <glyph glyph-name="Itilde" unicode="&#x128;" horiz-adv-x="363" 
d="M250 745q-41 0 -79.5 28t-53.5 28q-10 0 -16.5 -11.5t-8.5 -22.5l-1 -11l-96 11q0 6 1 17t8 38t18.5 48t35.5 38t56 17q31 0 56.5 -14t44 -28t32.5 -14q10 0 17 11t8 22l2 11l96 -10q0 -6 -1 -17t-8 -38t-18.5 -48t-36 -38t-56.5 -17zM65 700h234v-700h-234v700z" />
    <glyph glyph-name="itilde" unicode="&#x129;" horiz-adv-x="307" 
d="M221 565q-41 0 -79.5 28t-53.5 28q-10 0 -16.5 -11.5t-7.5 -22.5l-2 -11l-96 11q0 6 1 17t8 38t18.5 48t35.5 38t56 17q31 0 56.5 -14t44 -28t32.5 -14q10 0 17 11t9 22l1 11l96 -10q0 -6 -1 -17t-8 -38t-18.5 -48t-36 -38t-56.5 -17zM45 524h217v-524h-217v524z" />
    <glyph glyph-name="Imacron" unicode="&#x12a;" horiz-adv-x="363" 
d="M2 781v117h360v-117h-360zM65 700h234v-700h-234v700z" />
    <glyph glyph-name="imacron" unicode="&#x12b;" horiz-adv-x="307" 
d="M-26 601v117h360v-117h-360zM45 524h217v-524h-217v524z" />
    <glyph glyph-name="Ibreve" unicode="&#x12c;" horiz-adv-x="363" 
d="M182 747q-80 0 -130.5 46t-50.5 122v5h141v-18q0 -37 41 -37q39 0 39 37v18h141v-5q0 -76 -50.5 -122t-130.5 -46zM65 700h234v-700h-234v700z" />
    <glyph glyph-name="ibreve" unicode="&#x12d;" horiz-adv-x="307" 
d="M154 567q-80 0 -130.5 46t-50.5 122v5h141v-18q0 -37 41 -37q39 0 39 37v18h141v-5q0 -76 -50.5 -122t-130.5 -46zM45 524h217v-524h-217v524z" />
    <glyph glyph-name="Iogonek" unicode="&#x12e;" horiz-adv-x="363" 
d="M183 0q-14 -8 -14 -23q0 -11 9.5 -19t26.5 -8q12 0 22.5 2.5t14.5 5.5l5 2l27 -119q-33 -26 -92 -26q-61 0 -104.5 38t-43.5 103q0 46 31 82v662h234v-700h-116z" />
    <glyph glyph-name="iogonek" unicode="&#x12f;" horiz-adv-x="307" 
d="M154 545q-57 0 -93 32.5t-36 83.5t36 84t93 33q56 0 92.5 -33t36.5 -84t-36.5 -83.5t-92.5 -32.5zM196 -50q12 0 22.5 2.5t15.5 5.5l4 2l27 -119q-33 -26 -92 -26q-61 0 -104.5 38t-43.5 103q0 39 20 67v501h217v-524h-88q-14 -8 -14 -23q0 -11 9.5 -19t26.5 -8z" />
    <glyph glyph-name="Idotaccent" unicode="&#x130;" horiz-adv-x="363" 
d="M181 737q-46 0 -74.5 29t-28.5 74t30 75t75 30q46 0 74.5 -28.5t28.5 -73.5q0 -46 -30 -76t-75 -30zM65 700h234v-700h-234v700z" />
    <glyph glyph-name="dotlessi" unicode="&#x131;" horiz-adv-x="307" 
d="M45 524h217v-524h-217v524z" />
    <glyph glyph-name="IJ" unicode="&#x132;" horiz-adv-x="890" 
d="M65 700h234v-700h-234v700zM547 -10q-51 0 -95.5 8.5t-63.5 17.5l-18 9l59 201q38 -20 97 -20q37 0 58.5 26t21.5 68v400h234v-415q0 -134 -81 -214.5t-212 -80.5z" />
    <glyph glyph-name="ij" unicode="&#x133;" horiz-adv-x="614" 
d="M25 661q0 51 36 84t93 33q56 0 92.5 -33t36.5 -84t-36.5 -83.5t-92.5 -32.5q-57 0 -93 32.5t-36 83.5zM332 661q0 51 36 84t93 33q56 0 92.5 -33t36.5 -84t-36.5 -83.5t-92.5 -32.5q-57 0 -93 32.5t-36 83.5zM45 524h217v-524h-217v524zM569 524v-440q0 -126 -59 -190
t-173 -64q-19 0 -41.5 2t-35.5 4l-12 3l22 177q15 -1 33 -1q25 0 37 11.5t12 39.5v458h217z" />
    <glyph glyph-name="Jcircumflex" unicode="&#x134;" horiz-adv-x="526" 
d="M135 747l130 173h190l130 -173h-181l-47 52l-48 -52h-174zM184 -10q-51 0 -95.5 8.5t-62.5 17.5l-19 9l59 201q38 -20 97 -20q37 0 58.5 26t21.5 68v400h234v-415q0 -134 -81 -214.5t-212 -80.5z" />
    <glyph glyph-name="jcircumflex" unicode="&#x135;" horiz-adv-x="307" 
d="M-72 567l130 173h191l130 -173h-181l-48 52l-47 -52h-175zM262 524v-440q0 -126 -59 -190t-173 -64q-19 0 -41.5 2t-34.5 4l-13 3l22 177q15 -1 33 -1q25 0 37 11.5t12 39.5v458h217z" />
    <glyph glyph-name="uni0136" unicode="&#x136;" horiz-adv-x="750" 
d="M60 0v700h228v-298l178 298h277l-232 -328l252 -372h-277l-198 318v-318h-228zM223 -223l54 173h226l-113 -173h-167z" />
    <glyph glyph-name="uni0137" unicode="&#x137;" horiz-adv-x="629" 
d="M40 0v700h215v-390l115 214h252l-162 -236l182 -288h-258l-129 240v-240h-215zM156 -223l54 173h226l-113 -173h-167z" />
    <glyph glyph-name="Lacute" unicode="&#x139;" horiz-adv-x="590" 
d="M91 747l54 173h226l-113 -173h-167zM60 0v700h228v-496h297v-204h-525z" />
    <glyph glyph-name="lacute" unicode="&#x13a;" horiz-adv-x="307" 
d="M70 747l54 173h226l-113 -173h-167zM45 700h217v-700h-217v700z" />
    <glyph glyph-name="uni013B" unicode="&#x13b;" horiz-adv-x="590" 
d="M60 0v700h228v-496h297v-204h-525zM156 -223l54 173h226l-113 -173h-167z" />
    <glyph glyph-name="uni013C" unicode="&#x13c;" horiz-adv-x="307" 
d="M45 700h217v-700h-217v700zM-13 -223l54 173h226l-113 -173h-167z" />
    <glyph glyph-name="Lcaron" unicode="&#x13d;" horiz-adv-x="590" 
d="M60 0v700h228v-496h297v-204h-525zM338 417l28 283h214l-87 -283h-155z" />
    <glyph glyph-name="lcaron" unicode="&#x13e;" horiz-adv-x="544" 
d="M45 700h217v-700h-217v700zM302 417l28 283h214l-86 -283h-156z" />
    <glyph glyph-name="Ldot" unicode="&#x13f;" horiz-adv-x="590" 
d="M60 0v700h228v-496h297v-204h-525zM455 221q-53 0 -91 37.5t-38 91.5t38 91.5t91 37.5q54 0 91.5 -37.5t37.5 -91.5t-37.5 -91.5t-91.5 -37.5z" />
    <glyph glyph-name="ldot" unicode="&#x140;" horiz-adv-x="575" 
d="M45 700h217v-700h-217v700zM429 221q-54 0 -91.5 37.5t-37.5 91.5t37.5 91.5t91.5 37.5q53 0 91 -37.5t38 -91.5t-38 -91.5t-91 -37.5z" />
    <glyph glyph-name="Lslash" unicode="&#x141;" horiz-adv-x="633" 
d="M330 204h298v-204h-526v293l-72 -9v116l72 9v291h228v-261l203 27v-116l-203 -27v-119z" />
    <glyph glyph-name="lslash" unicode="&#x142;" horiz-adv-x="415" 
d="M385 471v-116l-74 -15v-340h-217v294l-64 -13v117l64 13v289h217v-244z" />
    <glyph glyph-name="Nacute" unicode="&#x143;" horiz-adv-x="790" 
d="M312 747l54 173h226l-113 -173h-167zM282 357v-357h-222v700h233l215 -341v341h222v-700h-222z" />
    <glyph glyph-name="nacute" unicode="&#x144;" horiz-adv-x="616" 
d="M226 567l54 173h226l-113 -173h-167zM255 0h-215v524h192l8 -61q57 71 151 71q84 0 136.5 -53t52.5 -139v-342h-215v272q0 64 -56 64q-25 0 -39.5 -15.5t-14.5 -43.5v-277z" />
    <glyph glyph-name="uni0145" unicode="&#x145;" horiz-adv-x="790" 
d="M282 357v-357h-222v700h233l215 -341v341h222v-700h-222zM228 -223l54 173h226l-113 -173h-167z" />
    <glyph glyph-name="uni0146" unicode="&#x146;" horiz-adv-x="616" 
d="M255 0h-215v524h192l8 -61q57 71 151 71q84 0 136.5 -53t52.5 -139v-342h-215v272q0 64 -56 64q-25 0 -39.5 -15.5t-14.5 -43.5v-277zM142 -223l54 173h226l-113 -173h-167z" />
    <glyph glyph-name="Ncaron" unicode="&#x147;" horiz-adv-x="790" 
d="M300 747l-130 173h181l48 -53l47 53h174l-130 -173h-190zM282 357v-357h-222v700h233l215 -341v341h222v-700h-222z" />
    <glyph glyph-name="ncaron" unicode="&#x148;" horiz-adv-x="616" 
d="M214 567l-130 173h181l48 -53l47 53h174l-130 -173h-190zM255 0h-215v524h192l8 -61q57 71 151 71q84 0 136.5 -53t52.5 -139v-342h-215v272q0 64 -56 64q-25 0 -39.5 -15.5t-14.5 -43.5v-277z" />
    <glyph glyph-name="Eng" unicode="&#x14a;" horiz-adv-x="790" 
d="M508 359v341h222v-628q0 -114 -59 -178t-163 -64q-36 0 -66.5 6t-42.5 12l-12 6l40 163q24 -8 50 -8l25 2l-220 346v-357h-222v700h233z" />
    <glyph glyph-name="eng" unicode="&#x14b;" horiz-adv-x="616" 
d="M344 -170q-17 0 -33 1.5t-23 2.5l-8 2l16 180q6 -1 20 -1q25 0 37 11.5t12 39.5v206q0 64 -56 64q-25 0 -39.5 -15.5t-14.5 -43.5v-277h-215v524h192l8 -61q57 71 151 71q84 0 136.5 -53t52.5 -139v-258q0 -126 -60 -190t-176 -64z" />
    <glyph glyph-name="Omacron" unicode="&#x14c;" horiz-adv-x="815" 
d="M227 781v117h360v-117h-360zM35 346q0 152 108.5 258t267.5 106t264 -102t105 -254t-108.5 -258t-267.5 -106t-264 102t-105 254zM263 350q0 -65 40 -107.5t104 -42.5t104.5 43t40.5 107t-40.5 107t-104.5 43t-104 -42.5t-40 -107.5z" />
    <glyph glyph-name="omacron" unicode="&#x14d;" horiz-adv-x="631" 
d="M136 601v117h360v-117h-360zM25 258q0 116 84.5 196t209.5 80t206 -76.5t81 -192.5q0 -115 -84.5 -195t-209.5 -80t-206 76.5t-81 191.5zM240 262q0 -31 21.5 -53t54.5 -22q32 0 53.5 22t21.5 53t-21.5 52.5t-53.5 21.5q-33 0 -54.5 -21.5t-21.5 -52.5z" />
    <glyph glyph-name="Obreve" unicode="&#x14e;" horiz-adv-x="815" 
d="M407 747q-80 0 -130.5 46t-50.5 122v5h141v-18q0 -37 41 -37q39 0 39 37v18h141v-5q0 -76 -50.5 -122t-130.5 -46zM35 346q0 152 108.5 258t267.5 106t264 -102t105 -254t-108.5 -258t-267.5 -106t-264 102t-105 254zM263 350q0 -65 40 -107.5t104 -42.5t104.5 43
t40.5 107t-40.5 107t-104.5 43t-104 -42.5t-40 -107.5z" />
    <glyph glyph-name="obreve" unicode="&#x14f;" horiz-adv-x="631" 
d="M315 567q-80 0 -130.5 46t-50.5 122v5h141v-18q0 -37 41 -37q39 0 39 37v18h141v-5q0 -76 -50.5 -122t-130.5 -46zM25 258q0 116 84.5 196t209.5 80t206 -76.5t81 -192.5q0 -115 -84.5 -195t-209.5 -80t-206 76.5t-81 191.5zM240 262q0 -31 21.5 -53t54.5 -22
q32 0 53.5 22t21.5 53t-21.5 52.5t-53.5 21.5q-33 0 -54.5 -21.5t-21.5 -52.5z" />
    <glyph glyph-name="Ohungarumlaut" unicode="&#x150;" horiz-adv-x="815" 
d="M208 747l46 173h221l-107 -173h-160zM447 747l46 173h221l-107 -173h-160zM35 346q0 152 108.5 258t267.5 106t264 -102t105 -254t-108.5 -258t-267.5 -106t-264 102t-105 254zM263 350q0 -65 40 -107.5t104 -42.5t104.5 43t40.5 107t-40.5 107t-104.5 43t-104 -42.5
t-40 -107.5z" />
    <glyph glyph-name="ohungarumlaut" unicode="&#x151;" horiz-adv-x="631" 
d="M116 567l46 173h221l-107 -173h-160zM355 567l46 173h221l-107 -173h-160zM25 258q0 116 84.5 196t209.5 80t206 -76.5t81 -192.5q0 -115 -84.5 -195t-209.5 -80t-206 76.5t-81 191.5zM240 262q0 -31 21.5 -53t54.5 -22q32 0 53.5 22t21.5 53t-21.5 52.5t-53.5 21.5
q-33 0 -54.5 -21.5t-21.5 -52.5z" />
    <glyph glyph-name="OE" unicode="&#x152;" horiz-adv-x="1042" 
d="M424 0q-170 0 -279.5 98t-109.5 248t113.5 252t282.5 102h566v-193h-317v-74h267v-163h-267v-77h327v-193h-583zM422 193h30v314h-30q-70 0 -114.5 -43.5t-44.5 -113.5t44.5 -113.5t114.5 -43.5z" />
    <glyph glyph-name="oe" unicode="&#x153;" horiz-adv-x="957" 
d="M312 -10q-125 0 -206 76.5t-81 191.5q0 116 84.5 196t209.5 80q100 0 181 -62q78 62 172 62q114 0 190.5 -72t76.5 -174q0 -22 -3.5 -39.5t-6.5 -24.5l-3 -6h-326q10 -22 35 -35.5t55 -13.5q28 0 52 9t34 18l11 9l118 -125q-3 -4 -8.5 -10t-26.5 -21.5t-45.5 -27.5
t-66 -21.5t-87.5 -9.5q-99 0 -177 62q-81 -62 -182 -62zM601 324h133q-2 24 -20.5 42t-45.5 18t-44.5 -17t-22.5 -43zM316 187q32 0 53.5 22t21.5 53t-21.5 52.5t-53.5 21.5q-33 0 -54.5 -21.5t-21.5 -52.5t21.5 -53t54.5 -22z" />
    <glyph glyph-name="Racute" unicode="&#x154;" horiz-adv-x="703" 
d="M268 747l54 173h226l-113 -173h-167zM60 700h334q121 0 196 -66.5t75 -176.5q0 -143 -120 -215l150 -242h-263l-117 209h-27v-209h-228v700zM288 508v-127h78q71 0 71 64q0 63 -71 63h-78z" />
    <glyph glyph-name="racute" unicode="&#x155;" horiz-adv-x="442" 
d="M143 567l54 173h226l-113 -173h-167zM40 0v524h192l10 -86q54 96 175 96l-4 -222h-46q-56 0 -84 -26t-28 -85v-201h-215z" />
    <glyph glyph-name="uni0156" unicode="&#x156;" horiz-adv-x="703" 
d="M60 700h334q121 0 196 -66.5t75 -176.5q0 -143 -120 -215l150 -242h-263l-117 209h-27v-209h-228v700zM288 508v-127h78q71 0 71 64q0 63 -71 63h-78zM184 -223l54 173h226l-113 -173h-167z" />
    <glyph glyph-name="uni0157" unicode="&#x157;" horiz-adv-x="442" 
d="M40 0v524h192l10 -86q54 96 175 96l-4 -222h-46q-56 0 -84 -26t-28 -85v-201h-215zM-19 -223l54 173h226l-113 -173h-167z" />
    <glyph glyph-name="Rcaron" unicode="&#x158;" horiz-adv-x="703" 
d="M256 747l-130 173h181l48 -53l47 53h174l-130 -173h-190zM60 700h334q121 0 196 -66.5t75 -176.5q0 -143 -120 -215l150 -242h-263l-117 209h-27v-209h-228v700zM288 508v-127h78q71 0 71 64q0 63 -71 63h-78z" />
    <glyph glyph-name="rcaron" unicode="&#x159;" horiz-adv-x="442" 
d="M131 567l-130 173h181l48 -53l47 53h174l-130 -173h-190zM40 0v524h192l10 -86q54 96 175 96l-4 -222h-46q-56 0 -84 -26t-28 -85v-201h-215z" />
    <glyph glyph-name="Sacute" unicode="&#x15a;" horiz-adv-x="598" 
d="M225 747l54 173h226l-113 -173h-167zM277 504q0 -14 18 -28t76 -41q37 -17 65 -34t60 -44t49.5 -63t17.5 -78q0 -96 -77 -161t-196 -65q-52 0 -100.5 12t-80.5 29.5t-56.5 35t-36.5 29.5l-11 12l129 141q9 -9 25 -21.5t59.5 -33.5t79.5 -21q33 0 33 26q0 15 -25 32
t-104 55q-157 74 -157 207q0 96 73 156.5t190 60.5q45 0 88 -10.5t72 -25t52 -29t34 -25.5l11 -10l-131 -142q-7 7 -18.5 17t-44.5 26.5t-63 16.5q-31 0 -31 -24z" />
    <glyph glyph-name="sacute" unicode="&#x15b;" horiz-adv-x="490" 
d="M168 567l54 173h227l-114 -173h-167zM238 371q0 -14 75 -41q72 -25 112 -67.5t40 -97.5q0 -81 -59 -128t-168 -47q-64 0 -122.5 21.5t-85.5 42.5l-26 21l83 126q8 -7 22 -17.5t53 -27.5t72 -17q18 0 18 13q0 5 -4.5 9.5t-23.5 13t-57 23.5q-137 50 -137 167q0 71 59 120
t162 49q56 0 110.5 -19t80.5 -38l27 -19l-85 -129q-68 54 -127 54q-19 0 -19 -12z" />
    <glyph glyph-name="Scircumflex" unicode="&#x15c;" horiz-adv-x="598" 
d="M83 747l130 173h190l130 -173h-181l-47 52l-48 -52h-174zM277 504q0 -14 18 -28t76 -41q37 -17 65 -34t60 -44t49.5 -63t17.5 -78q0 -96 -77 -161t-196 -65q-52 0 -100.5 12t-80.5 29.5t-56.5 35t-36.5 29.5l-11 12l129 141q9 -9 25 -21.5t59.5 -33.5t79.5 -21
q33 0 33 26q0 15 -25 32t-104 55q-157 74 -157 207q0 96 73 156.5t190 60.5q45 0 88 -10.5t72 -25t52 -29t34 -25.5l11 -10l-131 -142q-7 7 -18.5 17t-44.5 26.5t-63 16.5q-31 0 -31 -24z" />
    <glyph glyph-name="scircumflex" unicode="&#x15d;" horiz-adv-x="490" 
d="M26 567l130 173h191l129 -173h-181l-47 52l-48 -52h-174zM238 371q0 -14 75 -41q72 -25 112 -67.5t40 -97.5q0 -81 -59 -128t-168 -47q-64 0 -122.5 21.5t-85.5 42.5l-26 21l83 126q8 -7 22 -17.5t53 -27.5t72 -17q18 0 18 13q0 5 -4.5 9.5t-23.5 13t-57 23.5
q-137 50 -137 167q0 71 59 120t162 49q56 0 110.5 -19t80.5 -38l27 -19l-85 -129q-68 54 -127 54q-19 0 -19 -12z" />
    <glyph glyph-name="Scedilla" unicode="&#x15e;" horiz-adv-x="598" 
d="M371 435q37 -17 65 -34t60 -44t49.5 -63t17.5 -78q0 -81 -55.5 -141t-147.5 -78q5 -18 5 -37q0 -70 -52.5 -112.5t-121.5 -42.5q-28 0 -54.5 6.5t-38.5 12.5l-13 6l40 120q15 -10 42 -10q52 0 52 42q0 8 -5 15q-61 11 -113 39t-74 50l-22 22l129 141q9 -9 25 -21.5
t59.5 -33.5t79.5 -21q33 0 33 26q0 15 -25 32t-104 55q-157 74 -157 207q0 96 73 156.5t190 60.5q45 0 88 -10.5t72 -25t52 -29t34 -25.5l11 -10l-131 -142q-7 7 -18.5 17t-44.5 26.5t-63 16.5q-31 0 -31 -24q0 -14 18 -28t76 -41z" />
    <glyph glyph-name="scedilla" unicode="&#x15f;" horiz-adv-x="490" 
d="M313 330q72 -25 112 -67.5t40 -97.5q0 -67 -40.5 -111t-116.5 -58q5 -18 5 -36q0 -70 -52.5 -112.5t-121.5 -42.5q-28 0 -54.5 6.5t-38.5 12.5l-13 6l40 120q15 -10 42 -10q52 0 52 42q0 11 -7 16q-44 10 -83 29t-56 33l-17 15l83 126q8 -7 22 -17.5t53 -27.5t72 -17
q18 0 18 13q0 5 -4.5 9.5t-23.5 13t-57 23.5q-137 50 -137 167q0 71 59 120t162 49q56 0 110.5 -19t80.5 -38l27 -19l-85 -129q-68 54 -127 54q-19 0 -19 -12q0 -14 75 -41z" />
    <glyph glyph-name="Scaron" unicode="&#x160;" horiz-adv-x="598" 
d="M213 747l-130 173h181l48 -53l47 53h174l-130 -173h-190zM277 504q0 -14 18 -28t76 -41q37 -17 65 -34t60 -44t49.5 -63t17.5 -78q0 -96 -77 -161t-196 -65q-52 0 -100.5 12t-80.5 29.5t-56.5 35t-36.5 29.5l-11 12l129 141q9 -9 25 -21.5t59.5 -33.5t79.5 -21
q33 0 33 26q0 15 -25 32t-104 55q-157 74 -157 207q0 96 73 156.5t190 60.5q45 0 88 -10.5t72 -25t52 -29t34 -25.5l11 -10l-131 -142q-7 7 -18.5 17t-44.5 26.5t-63 16.5q-31 0 -31 -24z" />
    <glyph glyph-name="scaron" unicode="&#x161;" horiz-adv-x="490" 
d="M156 567l-130 173h181l48 -53l47 53h174l-129 -173h-191zM238 371q0 -14 75 -41q72 -25 112 -67.5t40 -97.5q0 -81 -59 -128t-168 -47q-64 0 -122.5 21.5t-85.5 42.5l-26 21l83 126q8 -7 22 -17.5t53 -27.5t72 -17q18 0 18 13q0 5 -4.5 9.5t-23.5 13t-57 23.5
q-137 50 -137 167q0 71 59 120t162 49q56 0 110.5 -19t80.5 -38l27 -19l-85 -129q-68 54 -127 54q-19 0 -19 -12z" />
    <glyph glyph-name="uni0162" unicode="&#x162;" horiz-adv-x="590" 
d="M5 700h580v-198h-176v-502h-45q6 -18 6 -40q0 -70 -52.5 -112.5t-121.5 -42.5q-28 0 -54.5 6.5t-39.5 12.5l-12 6l40 120q15 -10 42 -10q52 0 52 42q0 14 -9 18h-34v502h-176v198z" />
    <glyph glyph-name="uni0163" unicode="&#x163;" horiz-adv-x="470" 
d="M440 350h-120v-126q0 -37 33 -37q14 0 30 2.5t25 4.5l9 2l23 -180q-30 -12 -76 -20q5 -18 5 -36q0 -70 -52.5 -112.5t-121.5 -42.5q-28 0 -54.5 6.5t-38.5 12.5l-13 6l40 120q15 -10 42 -10q52 0 52 42q0 5 -2 9.5t-4 6.5t-3 2l1 1q-110 38 -110 167v182h-85v174h85v116
h215v-116h120v-174z" />
    <glyph glyph-name="Tcaron" unicode="&#x164;" horiz-adv-x="590" 
d="M200 747l-130 173h181l48 -53l47 53h174l-130 -173h-190zM409 502v-502h-228v502h-176v198h580v-198h-176z" />
    <glyph glyph-name="tcaron" unicode="&#x165;" horiz-adv-x="508" 
d="M350 570l28 220h214l-86 -220h-156zM291 -10q-87 0 -136.5 47t-49.5 131v182h-85v174h85v116h215v-116h120v-174h-120v-126q0 -37 33 -37q14 0 30 2.5t25 4.5l9 2l23 -180q-63 -26 -149 -26z" />
    <glyph glyph-name="Tbar" unicode="&#x166;" horiz-adv-x="590" 
d="M585 502h-176v-111h159v-117h-159v-274h-228v274h-159v117h159v111h-176v198h580v-198z" />
    <glyph glyph-name="tbar" unicode="&#x167;" horiz-adv-x="470" 
d="M440 350h-120v-23h120v-117h-118q5 -23 31 -23q14 0 30 2.5t25 4.5l9 2l23 -180q-63 -26 -149 -26q-87 0 -136.5 47t-49.5 131v42h-85v117h85v23h-85v174h85v116h215v-116h120v-174z" />
    <glyph glyph-name="Utilde" unicode="&#x168;" horiz-adv-x="740" 
d="M437 745q-41 0 -79.5 28t-53.5 28q-10 0 -16.5 -11.5t-7.5 -22.5l-2 -11l-96 11q0 6 1 17t8 38t18.5 48t35.5 38t56 17q31 0 56.5 -14t44 -28t32.5 -14q10 0 17 11t9 22l1 11l96 -10q0 -6 -1 -17t-8 -38t-18.5 -48t-36 -38t-56.5 -17zM366 -10q-145 0 -230.5 80
t-85.5 219v411h231v-400q0 -48 25 -74t68 -26t67.5 26.5t24.5 73.5v400h224v-404q0 -139 -89 -222.5t-235 -83.5z" />
    <glyph glyph-name="utilde" unicode="&#x169;" horiz-adv-x="617" 
d="M376 565q-41 0 -79.5 28t-53.5 28q-10 0 -16.5 -11.5t-8.5 -22.5l-1 -11l-96 11q0 6 1 17t8 38t18.5 48t35.5 38t56 17q31 0 56.5 -14t44 -28t32.5 -14q10 0 17 11t8 22l2 11l96 -10q0 -6 -1 -17t-8 -38t-18.5 -48t-36 -38t-56.5 -17zM361 524h215v-524h-192l-8 61
q-57 -71 -151 -71q-84 0 -136.5 53t-52.5 139v342h215v-272q0 -64 56 -64q25 0 39.5 15.5t14.5 43.5v277z" />
    <glyph glyph-name="Umacron" unicode="&#x16a;" horiz-adv-x="740" 
d="M190 781v117h360v-117h-360zM366 -10q-145 0 -230.5 80t-85.5 219v411h231v-400q0 -48 25 -74t68 -26t67.5 26.5t24.5 73.5v400h224v-404q0 -139 -89 -222.5t-235 -83.5z" />
    <glyph glyph-name="umacron" unicode="&#x16b;" horiz-adv-x="617" 
d="M129 601v117h360v-117h-360zM361 524h215v-524h-192l-8 61q-57 -71 -151 -71q-84 0 -136.5 53t-52.5 139v342h215v-272q0 -64 56 -64q25 0 39.5 15.5t14.5 43.5v277z" />
    <glyph glyph-name="Ubreve" unicode="&#x16c;" horiz-adv-x="740" 
d="M370 747q-80 0 -130.5 46t-50.5 122v5h141v-18q0 -37 41 -37q39 0 39 37v18h141v-5q0 -76 -50.5 -122t-130.5 -46zM366 -10q-145 0 -230.5 80t-85.5 219v411h231v-400q0 -48 25 -74t68 -26t67.5 26.5t24.5 73.5v400h224v-404q0 -139 -89 -222.5t-235 -83.5z" />
    <glyph glyph-name="ubreve" unicode="&#x16d;" horiz-adv-x="617" 
d="M309 567q-80 0 -130.5 46t-50.5 122v5h141v-18q0 -37 41 -37q39 0 39 37v18h141v-5q0 -76 -50.5 -122t-130.5 -46zM361 524h215v-524h-192l-8 61q-57 -71 -151 -71q-84 0 -136.5 53t-52.5 139v342h215v-272q0 -64 56 -64q25 0 39.5 15.5t14.5 43.5v277z" />
    <glyph glyph-name="Uring" unicode="&#x16e;" horiz-adv-x="740" 
d="M370 727q-45 0 -73.5 27.5t-28.5 69.5t28.5 69t73.5 27q44 0 72.5 -27.5t28.5 -68.5q0 -42 -28.5 -69.5t-72.5 -27.5zM370 790q15 0 23.5 10t8.5 24q0 13 -8.5 22.5t-23.5 9.5q-16 0 -25 -9.5t-9 -22.5q0 -14 9 -24t25 -10zM366 -10q-145 0 -230.5 80t-85.5 219v411h231
v-400q0 -48 25 -74t68 -26t67.5 26.5t24.5 73.5v400h224v-404q0 -139 -89 -222.5t-235 -83.5z" />
    <glyph glyph-name="uring" unicode="&#x16f;" horiz-adv-x="617" 
d="M309 547q-45 0 -73.5 27.5t-28.5 69.5t28.5 69t73.5 27q44 0 72.5 -27.5t28.5 -68.5q0 -42 -28.5 -69.5t-72.5 -27.5zM309 610q15 0 23.5 10t8.5 24q0 13 -8.5 22.5t-23.5 9.5q-16 0 -25 -9.5t-9 -22.5q0 -14 9 -24t25 -10zM361 524h215v-524h-192l-8 61
q-57 -71 -151 -71q-84 0 -136.5 53t-52.5 139v342h215v-272q0 -64 56 -64q25 0 39.5 15.5t14.5 43.5v277z" />
    <glyph glyph-name="Uhungarumlaut" unicode="&#x170;" horiz-adv-x="740" 
d="M170 747l46 173h221l-107 -173h-160zM409 747l46 173h221l-107 -173h-160zM366 -10q-145 0 -230.5 80t-85.5 219v411h231v-400q0 -48 25 -74t68 -26t67.5 26.5t24.5 73.5v400h224v-404q0 -139 -89 -222.5t-235 -83.5z" />
    <glyph glyph-name="uhungarumlaut" unicode="&#x171;" horiz-adv-x="617" 
d="M109 567l46 173h221l-107 -173h-160zM348 567l46 173h221l-107 -173h-160zM361 524h215v-524h-192l-8 61q-57 -71 -151 -71q-84 0 -136.5 53t-52.5 139v342h215v-272q0 -64 56 -64q25 0 39.5 15.5t14.5 43.5v277z" />
    <glyph glyph-name="Uogonek" unicode="&#x172;" horiz-adv-x="740" 
d="M466 700h224v-404q0 -120 -67.5 -200t-182.5 -100q-9 -7 -9 -19q0 -11 9.5 -19t26.5 -8q12 0 22.5 2.5t14.5 5.5l5 2l27 -119q-33 -26 -92 -26q-61 0 -104.5 38t-43.5 103q0 22 6 38q-118 17 -185 95t-67 200v411h231v-400q0 -48 25 -74t68 -26t67.5 26.5t24.5 73.5v400z
" />
    <glyph glyph-name="uogonek" unicode="&#x173;" horiz-adv-x="617" 
d="M550 -40l27 -119q-33 -26 -92 -26q-61 0 -104.5 38t-43.5 103q0 55 41 92l-2 13q-57 -71 -151 -71q-84 0 -136.5 53t-52.5 139v342h215v-272q0 -64 56 -64q25 0 39.5 15.5t14.5 43.5v277h215v-524h-90q-14 -8 -14 -23q0 -11 9.5 -19t26.5 -8q12 0 22.5 2.5t15.5 5.5z" />
    <glyph glyph-name="Wcircumflex" unicode="&#x174;" horiz-adv-x="1040" 
d="M301 747l130 173h190l130 -173h-181l-47 52l-48 -52h-174zM-3 700h253l99 -352l96 352h162l97 -352l98 352h241l-234 -700h-197l-92 325l-92 -325h-197z" />
    <glyph glyph-name="wcircumflex" unicode="&#x175;" horiz-adv-x="815" 
d="M189 567l130 173h190l130 -173h-181l-47 52l-48 -52h-174zM-15 524h233l55 -236l60 236h161l58 -229l57 229h221l-165 -524h-204l-54 205l-53 -205h-204z" />
    <glyph glyph-name="Ycircumflex" unicode="&#x176;" horiz-adv-x="725" 
d="M143 747l130 173h190l130 -173h-181l-47 52l-48 -52h-174zM249 0v240l-252 460h264l108 -241l107 241h252l-251 -460v-240h-228z" />
    <glyph glyph-name="ycircumflex" unicode="&#x177;" horiz-adv-x="568" 
d="M287 619l-48 -52h-174l130 173h190l130 -173h-181zM355 524h228l-194 -529q-32 -86 -86.5 -125.5t-141.5 -39.5q-46 0 -90 11.5t-65 22.5l-21 12l67 167q32 -26 85 -26q18 0 33 5l-185 502h239l65 -260z" />
    <glyph glyph-name="Ydieresis" unicode="&#x178;" horiz-adv-x="725" 
d="M248 737q-46 0 -74.5 29t-28.5 74t30 75t75 30q46 0 74.5 -28.5t28.5 -73.5q0 -46 -30 -76t-75 -30zM488 737q-46 0 -74.5 29t-28.5 74t30 75t75 30q46 0 74.5 -28.5t28.5 -73.5q0 -46 -30 -76t-75 -30zM249 0v240l-252 460h264l108 -241l107 241h252l-251 -460v-240
h-228z" />
    <glyph glyph-name="Zacute" unicode="&#x179;" horiz-adv-x="705" 
d="M279 747l54 173h226l-113 -173h-167zM47 0v169l305 339h-285v192h591v-169l-305 -339h305v-192h-611z" />
    <glyph glyph-name="zacute" unicode="&#x17a;" horiz-adv-x="570" 
d="M209 567l54 173h226l-113 -173h-167zM37 0v156l203 189h-188v179h481v-157l-203 -188h203v-179h-496z" />
    <glyph glyph-name="Zdotaccent" unicode="&#x17b;" horiz-adv-x="705" 
d="M362 737q-46 0 -74.5 29t-28.5 74t30 75t75 30q46 0 74.5 -28.5t28.5 -73.5q0 -46 -30 -76t-75 -30zM47 0v169l305 339h-285v192h591v-169l-305 -339h305v-192h-611z" />
    <glyph glyph-name="zdotaccent" unicode="&#x17c;" horiz-adv-x="570" 
d="M292 557q-46 0 -74.5 29t-28.5 74t30 75t75 30q46 0 74.5 -28.5t28.5 -73.5q0 -46 -30 -76t-75 -30zM37 0v156l203 189h-188v179h481v-157l-203 -188h203v-179h-496z" />
    <glyph glyph-name="Zcaron" unicode="&#x17d;" horiz-adv-x="705" 
d="M267 747l-130 173h181l48 -53l47 53h174l-130 -173h-190zM47 0v169l305 339h-285v192h591v-169l-305 -339h305v-192h-611z" />
    <glyph glyph-name="zcaron" unicode="&#x17e;" horiz-adv-x="570" 
d="M197 567l-130 173h181l48 -53l47 53h174l-130 -173h-190zM37 0v156l203 189h-188v179h481v-157l-203 -188h203v-179h-496z" />
    <glyph glyph-name="florin" unicode="&#x192;" 
d="M100 -160l33 423h-108v123h117l7 84q9 115 75.5 177.5t175.5 62.5q43 0 80 -13t60 -31t39.5 -36t23.5 -31l7 -13l-154 -106q-1 4 -4.5 9.5t-15.5 14.5t-27 9q-41 0 -45 -44l-6 -83h152v-123h-162l-33 -423h-215z" />
    <glyph glyph-name="Aringacute" unicode="&#x1fa;" horiz-adv-x="755" 
d="M492 700l266 -700h-253l-29 96h-209l-29 -96h-241l267 700h19q-7 21 -7 38q0 52 41 80l29 102h227l-102 -143q8 -19 8 -39q0 -17 -7 -38h20zM378 771q-16 0 -25 -9.5t-9 -23.5t9 -24t25 -10t24 10t8 24q0 33 -32 33zM318 267h108l-54 180z" />
    <glyph glyph-name="aringacute" unicode="&#x1fb;" horiz-adv-x="579" 
d="M387 519q73 -23 114.5 -82t41.5 -143v-294h-168l-15 33q-55 -43 -142 -43q-91 0 -143.5 42.5t-52.5 114.5t56.5 118t147.5 46q59 0 101 -15q0 22 -23.5 37t-58.5 15q-27 0 -55 -7.5t-42 -14.5l-14 -8l-82 152q56 42 156 58q-10 19 -10 43q0 43 29 70l28 99h227l-90 -127
q9 -18 9 -42q0 -29 -14 -52zM299 604q-16 0 -24.5 -9.5t-8.5 -23.5t8.5 -24t24.5 -10t24.5 10t8.5 24t-8.5 23.5t-24.5 9.5zM286 118q18 0 32 11.5t14 27.5t-14 27t-32 11q-20 0 -34 -11t-14 -27t14 -27.5t34 -11.5z" />
    <glyph glyph-name="AEacute" unicode="&#x1fc;" horiz-adv-x="1083" 
d="M594 744l53 172h227l-114 -172h-166zM-13 0l385 700h666v-193h-318v-74h268v-164h-268v-76h328v-193h-556v96h-210l-43 -96h-252zM374 267h118v245z" />
    <glyph glyph-name="aeacute" unicode="&#x1fd;" horiz-adv-x="901" 
d="M367 567l54 173h227l-114 -173h-167zM249 -10q-107 0 -167 42.5t-60 114.5t56.5 118t147.5 46q53 0 101 -17q0 25 -23 39.5t-59 14.5q-27 0 -55 -7.5t-42 -14.5l-14 -8l-82 152q10 7 29 17.5t81.5 28.5t129.5 18q89 0 161 -52q80 52 162 52q113 0 190 -73t77 -173
q0 -22 -3 -39.5t-7 -24.5l-3 -6h-326q24 -49 92 -49q26 0 50 9t35 18l10 9l118 -125q-3 -4 -8.5 -10t-26.5 -21.5t-45.5 -27.5t-66 -21.5t-87.5 -9.5q-100 0 -176 63q-72 -63 -189 -63zM544 324h133q-3 22 -19.5 41t-45.5 19t-46.5 -18.5t-21.5 -41.5zM286 118q18 0 32 11.5
t14 27.5t-14 27t-32 11q-20 0 -34 -11t-14 -27t14 -27.5t34 -11.5z" />
    <glyph glyph-name="Oslashacute" unicode="&#x1fe;" horiz-adv-x="815" 
d="M604 916l-113 -173h-167l54 173h226zM793 730l-109 -131q96 -101 96 -245q0 -152 -108.5 -258t-267.5 -106q-102 0 -188 46l-55 -66h-139l109 131q-96 101 -96 245q0 152 108.5 258t267.5 106q102 0 188 -46l55 66h139zM257 350q0 -41 17 -77l186 224q-24 9 -53 9
q-66 0 -108 -44.5t-42 -111.5zM558 350q0 41 -17 77l-187 -224q24 -9 53 -9q67 0 109 44.5t42 111.5z" />
    <glyph glyph-name="oslashacute" unicode="&#x1ff;" horiz-adv-x="631" 
d="M512 740l-113 -173h-167l54 173h226zM526 456q80 -75 80 -191q0 -115 -84.5 -195t-209.5 -80q-66 0 -123 23l-33 -43h-126l74 98q-79 74 -79 190t84.5 196t209.5 80q66 0 123 -23l33 43h126zM222 262q0 -17 6 -32l95 125h-7q-40 0 -67 -27.5t-27 -65.5zM316 169
q40 0 66.5 27.5t26.5 65.5q0 16 -6 33l-95 -126h8z" />
    <glyph glyph-name="uni0218" unicode="&#x218;" horiz-adv-x="598" 
d="M277 504q0 -14 18 -28t76 -41q37 -17 65 -34t60 -44t49.5 -63t17.5 -78q0 -96 -77 -161t-196 -65q-52 0 -100.5 12t-80.5 29.5t-56.5 35t-36.5 29.5l-11 12l129 141q9 -9 25 -21.5t59.5 -33.5t79.5 -21q33 0 33 26q0 15 -25 32t-104 55q-157 74 -157 207q0 96 73 156.5
t190 60.5q45 0 88 -10.5t72 -25t52 -29t34 -25.5l11 -10l-131 -142q-7 7 -18.5 17t-44.5 26.5t-63 16.5q-31 0 -31 -24zM123 -223l54 173h226l-113 -173h-167z" />
    <glyph glyph-name="uni0219" unicode="&#x219;" horiz-adv-x="490" 
d="M238 371q0 -14 75 -41q72 -25 112 -67.5t40 -97.5q0 -81 -59 -128t-168 -47q-64 0 -122.5 21.5t-85.5 42.5l-26 21l83 126q8 -7 22 -17.5t53 -27.5t72 -17q18 0 18 13q0 5 -4.5 9.5t-23.5 13t-57 23.5q-137 50 -137 167q0 71 59 120t162 49q56 0 110.5 -19t80.5 -38
l27 -19l-85 -129q-68 54 -127 54q-19 0 -19 -12zM71 -223l54 173h227l-114 -173h-167z" />
    <glyph glyph-name="uni021A" unicode="&#x21a;" horiz-adv-x="590" 
d="M409 502v-502h-228v502h-176v198h580v-198h-176zM128 -223l54 173h226l-113 -173h-167z" />
    <glyph glyph-name="uni021B" unicode="&#x21b;" horiz-adv-x="470" 
d="M291 -10q-87 0 -136.5 47t-49.5 131v182h-85v174h85v116h215v-116h120v-174h-120v-126q0 -37 33 -37q14 0 30 2.5t25 4.5l9 2l23 -180q-63 -26 -149 -26zM127 -223l54 173h226l-113 -173h-167z" />
    <glyph glyph-name="uni02BC" unicode="&#x2bc;" horiz-adv-x="600" 
 />
    <glyph glyph-name="circumflex" unicode="&#x2c6;" horiz-adv-x="550" 
d="M50 567l130 173h190l130 -173h-181l-47 52l-48 -52h-174z" />
    <glyph glyph-name="caron" unicode="&#x2c7;" horiz-adv-x="550" 
d="M180 567l-130 173h181l48 -53l47 53h174l-130 -173h-190z" />
    <glyph glyph-name="breve" unicode="&#x2d8;" horiz-adv-x="462" 
d="M231 567q-80 0 -130.5 46t-50.5 122v5h141v-18q0 -37 41 -37q39 0 39 37v18h141v-5q0 -76 -50.5 -122t-130.5 -46z" />
    <glyph glyph-name="dotaccent" unicode="&#x2d9;" horiz-adv-x="308" 
d="M153 557q-46 0 -74.5 29t-28.5 74t30 75t75 30q46 0 74.5 -28.5t28.5 -73.5q0 -46 -30 -76t-75 -30z" />
    <glyph glyph-name="ring" unicode="&#x2da;" horiz-adv-x="303" 
d="M152 547q-45 0 -73.5 27.5t-28.5 69.5t28.5 69t73.5 27q44 0 72.5 -27.5t28.5 -68.5q0 -42 -28.5 -69.5t-72.5 -27.5zM152 610q15 0 23.5 10t8.5 24q0 13 -8.5 22.5t-23.5 9.5q-16 0 -25 -9.5t-9 -22.5q0 -14 9 -24t25 -10z" />
    <glyph glyph-name="ogonek" unicode="&#x2db;" horiz-adv-x="340" 
d="M198 -185q-61 0 -104.5 38t-43.5 103q0 27 10.5 50t25 36.5t29 23t25.5 13.5l10 4l49 -83q-14 -8 -14 -23q0 -11 9.5 -19t26.5 -8q12 0 22.5 2.5t14.5 5.5l5 2l27 -119q-33 -26 -92 -26z" />
    <glyph glyph-name="tilde" unicode="&#x2dc;" horiz-adv-x="475" 
d="M305 565q-41 0 -79.5 28t-53.5 28q-10 0 -16.5 -11.5t-7.5 -22.5l-2 -11l-96 11q0 6 1 17t8 38t18.5 48t35.5 38t56 17q31 0 56.5 -14t44 -28t32.5 -14q10 0 17 11t9 22l1 11l96 -10q0 -6 -1 -17t-8 -38t-18.5 -48t-36 -38t-56.5 -17z" />
    <glyph glyph-name="hungarumlaut" unicode="&#x2dd;" horiz-adv-x="606" 
d="M50 567l46 173h221l-107 -173h-160zM289 567l46 173h221l-107 -173h-160z" />
    <glyph glyph-name="gravecomb" unicode="&#x300;" horiz-adv-x="0" 
d="M-216 567l-114 173h227l53 -173h-166z" />
    <glyph glyph-name="acutecomb" unicode="&#x301;" horiz-adv-x="0" 
d="M-330 567l54 173h226l-113 -173h-167z" />
    <glyph glyph-name="uni0302" unicode="&#x302;" horiz-adv-x="0" 
d="M-500 567l130 173h190l130 -173h-181l-47 52l-48 -52h-174z" />
    <glyph glyph-name="tildecomb" unicode="&#x303;" horiz-adv-x="0" 
d="M-170 565q-41 0 -79.5 28t-53.5 28q-10 0 -16.5 -11.5t-8.5 -22.5l-1 -11l-96 11q0 6 1 17t8 38t18.5 48t35.5 38t56 17q31 0 56.5 -14t44 -28t32.5 -14q10 0 17 11t8 22l2 11l96 -10q0 -6 -1 -17t-8 -38t-18.5 -48t-36 -38t-56.5 -17z" />
    <glyph glyph-name="uni0304" unicode="&#x304;" horiz-adv-x="0" 
d="M-410 601v117h360v-117h-360z" />
    <glyph glyph-name="uni0306" unicode="&#x306;" horiz-adv-x="0" 
d="M-231 567q-80 0 -130.5 46t-50.5 122v5h141v-18q0 -37 41 -37q39 0 39 37v18h141v-5q0 -76 -50.5 -122t-130.5 -46z" />
    <glyph glyph-name="uni0307" unicode="&#x307;" horiz-adv-x="0" 
d="M-155 557q-46 0 -74.5 29t-28.5 74t30 75t75 30q46 0 74.5 -28.5t28.5 -73.5q0 -46 -30 -76t-75 -30z" />
    <glyph glyph-name="uni0308" unicode="&#x308;" horiz-adv-x="0" 
d="M-395 557q-46 0 -74.5 29t-28.5 74t30 75t75 30q46 0 74.5 -28.5t28.5 -73.5q0 -46 -30 -76t-75 -30zM-155 557q-46 0 -74.5 29t-28.5 74t30 75t75 30q46 0 74.5 -28.5t28.5 -73.5q0 -46 -30 -76t-75 -30z" />
    <glyph glyph-name="uni030A" unicode="&#x30a;" horiz-adv-x="0" 
d="M-151 547q-45 0 -73.5 27.5t-28.5 69.5t28.5 69t73.5 27q44 0 72.5 -27.5t28.5 -68.5q0 -42 -28.5 -69.5t-72.5 -27.5zM-151 610q15 0 23.5 10t8.5 24q0 13 -8.5 22.5t-23.5 9.5q-16 0 -25 -9.5t-9 -22.5q0 -14 9 -24t25 -10z" />
    <glyph glyph-name="uni030B" unicode="&#x30b;" horiz-adv-x="0" 
d="M-556 567l46 173h221l-107 -173h-160zM-317 567l46 173h221l-107 -173h-160z" />
    <glyph glyph-name="uni030C" unicode="&#x30c;" horiz-adv-x="0" 
d="M-370 567l-130 173h181l48 -53l47 53h174l-130 -173h-190z" />
    <glyph glyph-name="uni0312" unicode="&#x312;" horiz-adv-x="0" 
d="M-50 745l-53 -172h-227l114 172h166z" />
    <glyph glyph-name="uni0326" unicode="&#x326;" horiz-adv-x="0" 
d="M-330 -223l54 173h226l-113 -173h-167z" />
    <glyph glyph-name="uni0327" unicode="&#x327;" horiz-adv-x="0" 
d="M-145 84q4 -1 10.5 -3.5t22.5 -13t28.5 -23t23 -35.5t10.5 -49q0 -70 -52.5 -112.5t-121.5 -42.5q-28 0 -54.5 6.5t-39.5 12.5l-12 6l40 120q15 -10 42 -10q52 0 52 42q0 5 -2 9.5t-4 6.5t-3 2z" />
    <glyph glyph-name="uni0328" unicode="&#x328;" horiz-adv-x="0" 
d="M-142 -185q-61 0 -104.5 38t-43.5 103q0 27 10.5 50t25 36.5t29 23t25.5 13.5l10 4l49 -83q-14 -8 -14 -23q0 -11 9.5 -19t26.5 -8q12 0 22.5 2.5t14.5 5.5l5 2l27 -119q-33 -26 -92 -26z" />
    <glyph glyph-name="uni0374" unicode="&#x374;" horiz-adv-x="600" 
 />
    <glyph glyph-name="uni0375" unicode="&#x375;" horiz-adv-x="600" 
 />
    <glyph glyph-name="uni037E" unicode="&#x37e;" horiz-adv-x="358" 
d="M179 276q-54 0 -91.5 37.5t-37.5 91.5q0 53 37.5 91t91.5 38t91.5 -38t37.5 -91q0 -54 -37.5 -91.5t-91.5 -37.5zM40 -130l31 360h227l-91 -360h-167z" />
    <glyph glyph-name="tonos" unicode="&#x384;" horiz-adv-x="319" 
d="M50 567l4 173h215l-65 -173h-154z" />
    <glyph glyph-name="dieresistonos" unicode="&#x385;" horiz-adv-x="726" 
d="M153 557q-46 0 -74.5 29t-28.5 74t30 75t75 30q46 0 74.5 -28.5t28.5 -73.5q0 -46 -30 -76t-75 -30zM571 557q-46 0 -74.5 29t-28.5 74t30 75t75 30q46 0 74.5 -28.5t28.5 -73.5q0 -46 -30 -76t-75 -30zM280 567l-8 173h202l-52 -173h-142z" />
    <glyph glyph-name="Alphatonos" unicode="&#x386;" horiz-adv-x="780" 
d="M-13 527l5 173h214l-64 -173h-155zM22 0l267 700h228l266 -700h-253l-29 96h-209l-29 -96h-241zM343 267h108l-54 180z" />
    <glyph glyph-name="anoteleia" unicode="&#x387;" horiz-adv-x="353" 
d="M176 221q-53 0 -91 37.5t-38 91.5t38 91.5t91 37.5q54 0 91.5 -37.5t37.5 -91.5t-37.5 -91.5t-91.5 -37.5z" />
    <glyph glyph-name="Epsilontonos" unicode="&#x388;" horiz-adv-x="813" 
d="M-13 527l5 173h214l-64 -173h-155zM223 0v700h545v-193h-317v-74h267v-164h-267v-76h327v-193h-555z" />
    <glyph glyph-name="Etatonos" unicode="&#x389;" horiz-adv-x="933" 
d="M-13 527l5 173h214l-64 -173h-155zM223 0v700h228v-241h194v241h228v-700h-228v255h-194v-255h-228z" />
    <glyph glyph-name="Iotatonos" unicode="&#x38a;" horiz-adv-x="526" 
d="M-13 527l5 173h214l-64 -173h-155zM228 700h233v-700h-233v700z" />
    <glyph glyph-name="Omicrontonos" unicode="&#x38c;" horiz-adv-x="907" 
d="M127 346q0 152 108.5 258t268.5 106q159 0 264 -102t105 -254t-108.5 -258t-268.5 -106q-159 0 -264 102t-105 254zM-13 527l5 173h214l-64 -173h-155zM355 350q0 -64 40.5 -107t104.5 -43t104.5 43t40.5 107t-40.5 107t-104.5 43t-104.5 -43t-40.5 -107z" />
    <glyph glyph-name="Upsilontonos" unicode="&#x38e;" horiz-adv-x="933" 
d="M684 700h251l-251 -460v-240h-228v240l-250 459l-64 -172h-155l5 173h476l108 -241z" />
    <glyph glyph-name="Omegatonos" unicode="&#x38f;" horiz-adv-x="930" 
d="M885 382q0 -112 -80 -184h73v-198h-331v180q110 72 110 167q0 66 -40 109.5t-104 43.5t-104.5 -43.5t-40.5 -109.5q0 -95 110 -167v-180h-331v198h65q-72 69 -72 177q0 141 108 238t268 97t264.5 -93.5t104.5 -234.5zM206 700l-64 -173h-155l5 173h214z" />
    <glyph glyph-name="iotadieresistonos" unicode="&#x390;" horiz-adv-x="370" 
d="M-51 557q-46 0 -74.5 29t-28.5 74t30 75t75 30q46 0 74.5 -28.5t28.5 -73.5q0 -46 -30 -76t-75 -30zM367 557q-46 0 -74.5 29t-28.5 74t30 75t75 30q46 0 74.5 -28.5t28.5 -73.5q0 -46 -30 -76t-75 -30zM76 567l-8 173h202l-52 -173h-142zM255 524h-215v-370
q0 -77 48 -120.5t129 -43.5q40 0 73.5 7t46.5 13l13 7l-30 169q-14 -5 -34 -5q-31 0 -31 28v315z" />
    <glyph glyph-name="Alpha" unicode="&#x391;" horiz-adv-x="755" 
d="M-3 0l267 700h228l266 -700h-253l-29 96h-209l-29 -96h-241zM318 267h108l-54 180z" />
    <glyph glyph-name="Beta" unicode="&#x392;" horiz-adv-x="690" 
d="M60 0v700h342q107 0 170.5 -50.5t63.5 -134.5q0 -94 -85 -151q55 -23 84.5 -66.5t29.5 -99.5q0 -86 -68 -142t-175 -56h-362zM288 433h61q29 0 44 14t15 34t-15 34t-44 14h-61v-96zM288 171h88q31 0 46 15.5t15 37.5q0 23 -15 38t-46 15h-88v-106z" />
    <glyph glyph-name="Gamma" unicode="&#x393;" horiz-adv-x="590" 
d="M60 700h525v-204h-297v-496h-228v700z" />
    <glyph glyph-name="uni0394" unicode="&#x394;" horiz-adv-x="765" 
d="M-3 0l272 700h228l271 -700h-771zM308 204h136l-67 237z" />
    <glyph glyph-name="uni0394" unicode="&#x2206;" horiz-adv-x="765" 
d="M-3 0l272 700h228l271 -700h-771zM308 204h136l-67 237z" />
    <glyph glyph-name="Epsilon" unicode="&#x395;" horiz-adv-x="650" 
d="M60 0v700h545v-193h-317v-74h267v-164h-267v-76h327v-193h-555z" />
    <glyph glyph-name="Zeta" unicode="&#x396;" horiz-adv-x="705" 
d="M47 0v169l305 339h-285v192h591v-169l-305 -339h305v-192h-611z" />
    <glyph glyph-name="Eta" unicode="&#x397;" horiz-adv-x="770" 
d="M60 0v700h228v-241h194v241h228v-700h-228v255h-194v-255h-228z" />
    <glyph glyph-name="Theta" unicode="&#x398;" horiz-adv-x="815" 
d="M35 346q0 152 108.5 258t267.5 106t264 -102t105 -254t-108.5 -258t-267.5 -106t-264 102t-105 254zM250 350q0 -68 43.5 -112t113.5 -44t114 44t44 112t-44 112t-114 44t-113.5 -44t-43.5 -112zM312 279v150h190v-150h-190z" />
    <glyph glyph-name="Iota" unicode="&#x399;" horiz-adv-x="363" 
d="M65 700h234v-700h-234v700z" />
    <glyph glyph-name="Kappa" unicode="&#x39a;" horiz-adv-x="750" 
d="M60 0v700h228v-298l178 298h277l-232 -328l252 -372h-277l-198 318v-318h-228z" />
    <glyph glyph-name="Lambda" unicode="&#x39b;" horiz-adv-x="745" 
d="M748 0h-259l-122 401l-123 -401h-247l262 700h228z" />
    <glyph glyph-name="Mu" unicode="&#x39c;" horiz-adv-x="890" 
d="M279 320v-320h-219v700h234l157 -325l157 325h222v-700h-219v320l-106 -225h-120z" />
    <glyph glyph-name="Nu" unicode="&#x39d;" horiz-adv-x="790" 
d="M282 357v-357h-222v700h233l215 -341v341h222v-700h-222z" />
    <glyph glyph-name="Xi" unicode="&#x39e;" horiz-adv-x="670" 
d="M45 502v198h580v-198h-580zM87 262v186h488v-186h-488zM35 0v198h600v-198h-600z" />
    <glyph glyph-name="Omicron" unicode="&#x39f;" horiz-adv-x="815" 
d="M35 346q0 152 108.5 258t267.5 106t264 -102t105 -254t-108.5 -258t-267.5 -106t-264 102t-105 254zM263 350q0 -65 40 -107.5t104 -42.5t104.5 43t40.5 107t-40.5 107t-104.5 43t-104 -42.5t-40 -107.5z" />
    <glyph glyph-name="Pi" unicode="&#x3a0;" horiz-adv-x="770" 
d="M60 0v700h650v-700h-228v496h-194v-496h-228z" />
    <glyph glyph-name="Rho" unicode="&#x3a1;" horiz-adv-x="696" 
d="M60 0v700h323q129 0 205.5 -69t76.5 -184q0 -116 -80 -188t-209 -72h-88v-187h-228zM288 373h74q34 0 54.5 19t20.5 49t-20.5 48.5t-54.5 18.5h-74v-135z" />
    <glyph glyph-name="Sigma" unicode="&#x3a3;" horiz-adv-x="663" 
d="M357 192h271v-192h-581v175l210 176l-210 180v169h571v-192h-235l164 -149z" />
    <glyph glyph-name="Tau" unicode="&#x3a4;" horiz-adv-x="590" 
d="M409 502v-502h-228v502h-176v198h580v-198h-176z" />
    <glyph glyph-name="Upsilon" unicode="&#x3a5;" horiz-adv-x="725" 
d="M249 0v240l-252 460h264l108 -241l107 241h252l-251 -460v-240h-228z" />
    <glyph glyph-name="Phi" unicode="&#x3a6;" horiz-adv-x="980" 
d="M945 354q0 -140 -97.5 -238.5t-249.5 -107.5v-58h-216v57q-155 7 -251 102.5t-96 236.5q0 140 97.5 238.5t249.5 107.5v58h216v-57q154 -7 250.5 -102.5t96.5 -236.5zM263 350q0 -58 31 -97.5t88 -46.5v288q-57 -7 -88 -46.5t-31 -97.5zM598 206q57 7 88 46.5t31 97.5
t-31 97.5t-88 46.5v-288z" />
    <glyph glyph-name="Chi" unicode="&#x3a7;" horiz-adv-x="777" 
d="M-3 0l257 354l-248 346h276l113 -173l113 173h263l-249 -343l258 -357h-276l-123 186l-120 -186h-264z" />
    <glyph glyph-name="Psi" unicode="&#x3a8;" horiz-adv-x="960" 
d="M697 700h228v-209q0 -149 -91 -245.5t-240 -107.5v-138h-228v138q-151 8 -241 101.5t-90 244.5v216h228v-206q0 -134 103 -151v357h228v-357q103 17 103 151v206z" />
    <glyph glyph-name="uni03A9" unicode="&#x3a9;" horiz-adv-x="835" 
d="M790 382q0 -112 -80 -184h73v-198h-331v180q110 72 110 167q0 66 -40.5 109.5t-104.5 43.5t-104 -43.5t-40 -109.5q0 -95 110 -167v-180h-331v198h65q-72 69 -72 177q0 141 108 238t268 97t264.5 -93.5t104.5 -234.5z" />
    <glyph glyph-name="Iotadieresis" unicode="&#x3aa;" horiz-adv-x="363" 
d="M61 737q-46 0 -74.5 29t-28.5 74t30 75t75 30q46 0 74.5 -28.5t28.5 -73.5q0 -46 -30 -76t-75 -30zM301 737q-46 0 -74.5 29t-28.5 74t30 75t75 30q46 0 74.5 -28.5t28.5 -73.5q0 -46 -30 -76t-75 -30zM65 700h234v-700h-234v700z" />
    <glyph glyph-name="Upsilondieresis" unicode="&#x3ab;" horiz-adv-x="725" 
d="M248 737q-46 0 -74.5 29t-28.5 74t30 75t75 30q46 0 74.5 -28.5t28.5 -73.5q0 -46 -30 -76t-75 -30zM488 737q-46 0 -74.5 29t-28.5 74t30 75t75 30q46 0 74.5 -28.5t28.5 -73.5q0 -46 -30 -76t-75 -30zM249 0v240l-252 460h264l108 -241l107 241h252l-251 -460v-240
h-228z" />
    <glyph glyph-name="alphatonos" unicode="&#x3ac;" horiz-adv-x="716" 
d="M463 740l-65 -173h-154l4 173h215zM666 186l30 -169q-42 -27 -133 -27q-104 0 -150 70q-49 -70 -143 -70q-100 0 -172.5 77.5t-72.5 190.5q0 114 74.5 195t177.5 81q74 0 130 -54l15 44h179v-315q0 -28 31 -28zM316 187q32 0 53.5 22t21.5 53t-21.5 52.5t-53.5 21.5
q-33 0 -54.5 -21.5t-21.5 -52.5t21.5 -53t54.5 -22z" />
    <glyph glyph-name="epsilontonos" unicode="&#x3ad;" horiz-adv-x="541" 
d="M223 567l5 173h215l-65 -173h-155zM301 -10q-132 0 -204 39t-72 113q0 44 24 78t67 50q-76 40 -76 111q0 69 72 111t189 42q43 0 81.5 -6.5t62.5 -15t42 -17.5t26 -15l8 -7l-80 -128q-46 31 -127 31q-59 0 -59 -24q0 -14 16 -19t53 -5h63v-128h-63q-48 0 -66 -5.5
t-18 -18.5q0 -28 70 -28q40 0 76.5 11t53.5 22l16 11l83 -132q-3 -3 -8.5 -7.5t-27 -16.5t-46.5 -21.5t-67 -17t-89 -7.5z" />
    <glyph glyph-name="etatonos" unicode="&#x3ae;" horiz-adv-x="616" 
d="M232 567l4 173h215l-65 -173h-154zM255 0h-215v524h192l8 -61q57 71 151 71q84 0 136.5 -53t52.5 -139v-502h-215v432q0 64 -56 64q-25 0 -39.5 -15.5t-14.5 -43.5v-277z" />
    <glyph glyph-name="iotatonos" unicode="&#x3af;" horiz-adv-x="370" 
d="M70 567l4 173h215l-65 -173h-154zM255 524h-215v-370q0 -77 48 -120.5t129 -43.5q40 0 73.5 7t46.5 13l13 7l-30 169q-14 -5 -34 -5q-31 0 -31 28v315z" />
    <glyph glyph-name="upsilondieresistonos" unicode="&#x3b0;" horiz-adv-x="613" 
d="M108 557q-46 0 -74.5 29t-28.5 74t30 75t75 30q46 0 74.5 -28.5t28.5 -73.5q0 -46 -30 -76t-75 -30zM526 557q-46 0 -74.5 29t-28.5 74t30 75t75 30q46 0 74.5 -28.5t28.5 -73.5q0 -46 -30 -76t-75 -30zM235 567l-8 173h202l-52 -173h-142zM576 254v270h-215v-275
q0 -27 -15 -44.5t-40 -17.5q-24 0 -39 17.5t-15 44.5v275h-216v-277q0 -112 75 -184.5t192 -72.5t195 75.5t78 188.5z" />
    <glyph glyph-name="alpha" unicode="&#x3b1;" horiz-adv-x="716" 
d="M666 186l30 -169q-42 -27 -133 -27q-104 0 -150 70q-49 -70 -143 -70q-100 0 -172.5 77.5t-72.5 190.5q0 114 74.5 195t177.5 81q74 0 130 -54l15 44h179v-315q0 -28 31 -28zM316 187q32 0 53.5 22t21.5 53t-21.5 52.5t-53.5 21.5q-33 0 -54.5 -21.5t-21.5 -52.5
t21.5 -53t54.5 -22z" />
    <glyph glyph-name="beta" unicode="&#x3b2;" horiz-adv-x="630" 
d="M508 370q97 -55 97 -160q0 -96 -70.5 -158t-177.5 -62q-55 0 -102 22v-172h-215v623q0 109 74 178t195 69q119 0 192.5 -57.5t73.5 -147.5q0 -81 -67 -135zM322 169q31 0 49.5 16t18.5 40q0 25 -18 40.5t-49 15.5h-40v155h26q22 0 36.5 13.5t14.5 34.5t-14 34t-37 13
q-24 0 -39 -17.5t-15 -46.5v-232q0 -29 18 -47.5t49 -18.5z" />
    <glyph glyph-name="gamma" unicode="&#x3b3;" horiz-adv-x="568" 
d="M355 524h228l-192 -524v-160h-214v160l-192 524h239l65 -251z" />
    <glyph glyph-name="delta" unicode="&#x3b4;" horiz-adv-x="631" 
d="M465 478q69 -40 105 -98.5t36 -120.5q0 -111 -84.5 -190t-209.5 -79t-206 75.5t-81 186.5q0 140 134 213l-104 78v157h521v-179h-186zM316 181q32 0 53.5 21t21.5 50q0 37 -42 71l-35 26q-74 -27 -74 -93q0 -31 21.5 -53t54.5 -22z" />
    <glyph glyph-name="epsilon" unicode="&#x3b5;" horiz-adv-x="541" 
d="M301 -10q-132 0 -204 39t-72 113q0 44 24 78t67 50q-76 40 -76 111q0 69 72 111t189 42q43 0 81.5 -6.5t62.5 -15t42 -17.5t26 -15l8 -7l-80 -128q-46 31 -127 31q-59 0 -59 -24q0 -14 16 -19t53 -5h63v-128h-63q-48 0 -66 -5.5t-18 -18.5q0 -28 70 -28q40 0 76.5 11
t53.5 22l16 11l83 -132q-3 -3 -8.5 -7.5t-27 -16.5t-46.5 -21.5t-67 -17t-89 -7.5z" />
    <glyph glyph-name="zeta" unicode="&#x3b6;" horiz-adv-x="537" 
d="M441 -171l-166 46q51 72 51 102q0 33 -40 36q-121 4 -191 62t-70 146q0 68 35.5 124t117.5 133l47 43h-170v179h454v-157l-176 -168q-37 -35 -51.5 -49.5t-28 -35.5t-13.5 -38q0 -36 104 -55q185 -28 185 -169q0 -32 -9 -64.5t-22 -55.5t-26 -41.5t-22 -28.5z" />
    <glyph glyph-name="eta" unicode="&#x3b7;" horiz-adv-x="616" 
d="M255 0h-215v524h192l8 -61q57 71 151 71q84 0 136.5 -53t52.5 -139v-502h-215v432q0 64 -56 64q-25 0 -39.5 -15.5t-14.5 -43.5v-277z" />
    <glyph glyph-name="theta" unicode="&#x3b8;" horiz-adv-x="631" 
d="M319 710q128 0 207.5 -95.5t79.5 -260.5t-83 -264.5t-211 -99.5t-207.5 95.5t-79.5 260.5t83 264.5t211 99.5zM316 519q-57 0 -75 -88h149q-18 88 -74 88zM316 181q58 0 76 96h-152q16 -96 76 -96z" />
    <glyph glyph-name="iota" unicode="&#x3b9;" horiz-adv-x="370" 
d="M255 524h-215v-370q0 -77 48 -120.5t129 -43.5q40 0 73.5 7t46.5 13l13 7l-30 169q-14 -5 -34 -5q-31 0 -31 28v315z" />
    <glyph glyph-name="kappa" unicode="&#x3ba;" horiz-adv-x="629" 
d="M40 0v524h215v-214l115 214h252l-162 -236l182 -288h-258l-129 240v-240h-215z" />
    <glyph glyph-name="lambda" unicode="&#x3bb;" horiz-adv-x="568" 
d="M384 541l199 -541h-240l-66 259l-65 -259h-227l186 504q-18 10 -41 10q-24 0 -43.5 -7t-26.5 -15l-8 -7l-67 180q7 5 21 12.5t57 20.5t87 13q89 0 145 -40.5t89 -129.5z" />
    <glyph glyph-name="uni03BC" unicode="&#x3bc;" horiz-adv-x="695" 
d="M645 186l30 -169q-42 -27 -133 -27q-112 0 -156 78q-56 -71 -131 -77v-151h-215v684h215v-273q0 -64 56 -64q25 0 39.5 15.5t14.5 43.5v278h215v-315q0 -28 30 -28z" />
    <glyph glyph-name="nu" unicode="&#x3bd;" horiz-adv-x="568" 
d="M179 0l-194 524h239l65 -238l66 238h228l-194 -524h-210z" />
    <glyph glyph-name="xi" unicode="&#x3be;" horiz-adv-x="542" 
d="M346 187q55 -7 93.5 -21.5t66.5 -49.5t28 -88q0 -32 -9 -64.5t-22 -55.5t-26 -41.5t-22 -28.5l-9 -9l-166 46q51 72 51 102q0 18 -9 26t-30 10q-127 5 -197 54.5t-70 146.5q0 96 101 144q-81 47 -81 143q0 98 77 153.5t197 55.5q59 0 112 -16t77 -32l24 -15l-85 -150
q-53 28 -115 28q-72 2 -72 -45t72 -47h98v-152h-121q-69 0 -69 -40q0 -13 8 -22t26.5 -15.5t31.5 -9t40 -7.5z" />
    <glyph glyph-name="omicron" unicode="&#x3bf;" horiz-adv-x="631" 
d="M25 258q0 116 84.5 196t209.5 80t206 -76.5t81 -192.5q0 -115 -84.5 -195t-209.5 -80t-206 76.5t-81 191.5zM240 262q0 -31 21.5 -53t54.5 -22q32 0 53.5 22t21.5 53t-21.5 52.5t-53.5 21.5q-33 0 -54.5 -21.5t-21.5 -52.5z" />
    <glyph glyph-name="pi" unicode="&#x3c0;" horiz-adv-x="730" 
d="M20 524h680v-180h-95v-135q0 -28 31 -28l34 5l30 -169q-42 -27 -133 -27q-81 0 -129 43.5t-48 120.5v190h-60v-344h-215v344h-95v180z" />
    <glyph glyph-name="rho" unicode="&#x3c1;" horiz-adv-x="642" 
d="M36 236q0 132 81 215t213 83q125 0 206 -76.5t81 -192.5q0 -114 -74.5 -194.5t-176.5 -80.5q-65 0 -114 33v-183h-216v396zM251 262q0 -31 21.5 -53t53.5 -22q33 0 54.5 22t21.5 53t-21.5 52.5t-54.5 21.5q-32 0 -53.5 -21.5t-21.5 -52.5z" />
    <glyph glyph-name="uni03C2" unicode="&#x3c2;" horiz-adv-x="530" 
d="M444 -171l-167 46q52 72 52 102q0 33 -40 36q-122 5 -193 69.5t-71 174.5q0 117 84.5 197t209.5 80q39 0 75 -9t59 -22t40.5 -26.5t25.5 -22.5l8 -9l-146 -140q-25 31 -72 31q-30 0 -49.5 -18.5t-19.5 -44.5q0 -35 27.5 -51.5t75.5 -24.5q189 -25 189 -169
q0 -32 -9 -64.5t-22 -55.5t-26 -41.5t-22 -28.5z" />
    <glyph glyph-name="sigma" unicode="&#x3c3;" horiz-adv-x="654" 
d="M636 524v-173h-66q36 -46 36 -105q0 -106 -84.5 -181t-209.5 -75q-126 0 -206.5 73.5t-80.5 188.5q0 116 84 194t210 78h317zM316 184q32 0 53.5 21.5t21.5 52.5t-21.5 54t-53.5 23q-33 0 -54.5 -22.5t-21.5 -54.5q0 -31 21.5 -52.5t54.5 -21.5z" />
    <glyph glyph-name="tau" unicode="&#x3c4;" horiz-adv-x="510" 
d="M331 -10q-89 0 -142.5 51t-53.5 137v166h-115v180h460v-180h-130v-110q0 -22 11.5 -34.5t31.5 -12.5q14 0 30 2.5t25 4.5l9 2l23 -180q-63 -26 -149 -26z" />
    <glyph glyph-name="upsilon" unicode="&#x3c5;" horiz-adv-x="613" 
d="M576 254v270h-215v-275q0 -27 -15 -44.5t-40 -17.5q-24 0 -39 17.5t-15 44.5v275h-216v-277q0 -112 75 -184.5t192 -72.5t195 75.5t78 188.5z" />
    <glyph glyph-name="phi" unicode="&#x3c6;" horiz-adv-x="820" 
d="M795 265q0 -110 -81 -188.5t-202 -85.5v-151h-203v150q-124 4 -204 80t-80 188q0 111 81 189.5t203 85.5v167h203v-166q124 -4 203.5 -80.5t79.5 -188.5zM240 262q0 -29 19.5 -52t49.5 -28v159q-30 -5 -49.5 -28t-19.5 -51zM512 183q30 5 49 27.5t19 51.5q0 28 -19 50.5
t-49 27.5v-157z" />
    <glyph glyph-name="chi" unicode="&#x3c7;" horiz-adv-x="613" 
d="M-15 -160l200 345l-190 339h249l67 -155l69 155h238l-190 -328l200 -356h-250l-76 172l-80 -172h-237z" />
    <glyph glyph-name="psi" unicode="&#x3c8;" horiz-adv-x="833" 
d="M581 524h215v-266q0 -111 -76.5 -187t-195.5 -81v-150h-215v150q-120 2 -196.5 75.5t-76.5 185.5v273h216v-270q0 -29 15 -49t42 -23v518h215v-518q26 3 41.5 23t15.5 49v270z" />
    <glyph glyph-name="omega" unicode="&#x3c9;" horiz-adv-x="895" 
d="M784 547l9 -12t21 -35t26 -57.5t20.5 -79t9.5 -99.5q0 -121 -70.5 -197.5t-186.5 -76.5q-108 0 -169 66q-64 -66 -170 -66q-115 0 -182 73t-67 194q0 52 9 100.5t21.5 81.5t25 58.5t21.5 37.5l9 12l195 -84q-7 -8 -18 -22.5t-29.5 -64.5t-18.5 -105q0 -41 14.5 -62.5
t38.5 -21.5q23 0 37.5 21.5t14.5 62.5v154h205v-154q0 -41 14.5 -62.5t37.5 -21.5q24 0 38.5 21.5t14.5 62.5q0 55 -16.5 103t-32.5 68l-17 21z" />
    <glyph glyph-name="iotadieresis" unicode="&#x3ca;" horiz-adv-x="370" 
d="M27 557q-46 0 -74.5 29t-28.5 74t30 75t75 30q46 0 74.5 -28.5t28.5 -73.5q0 -46 -30 -76t-75 -30zM267 557q-46 0 -74.5 29t-28.5 74t30 75t75 30q46 0 74.5 -28.5t28.5 -73.5q0 -46 -30 -76t-75 -30zM255 524h-215v-370q0 -77 48 -120.5t129 -43.5q40 0 73.5 7t46.5 13
l13 7l-30 169q-14 -5 -34 -5q-31 0 -31 28v315z" />
    <glyph glyph-name="upsilondieresis" unicode="&#x3cb;" horiz-adv-x="613" 
d="M185 557q-46 0 -74.5 29t-28.5 74t30 75t75 30q46 0 74.5 -28.5t28.5 -73.5q0 -46 -30 -76t-75 -30zM425 557q-46 0 -74.5 29t-28.5 74t30 75t75 30q46 0 74.5 -28.5t28.5 -73.5q0 -46 -30 -76t-75 -30zM576 254v270h-215v-275q0 -27 -15 -44.5t-40 -17.5q-24 0 -39 17.5
t-15 44.5v275h-216v-277q0 -112 75 -184.5t192 -72.5t195 75.5t78 188.5z" />
    <glyph glyph-name="omicrontonos" unicode="&#x3cc;" horiz-adv-x="631" 
d="M238 567l4 173h215l-65 -173h-154zM25 258q0 116 84.5 196t209.5 80t206 -76.5t81 -192.5q0 -115 -84.5 -195t-209.5 -80t-206 76.5t-81 191.5zM240 262q0 -31 21.5 -53t54.5 -22q32 0 53.5 22t21.5 53t-21.5 52.5t-53.5 21.5q-33 0 -54.5 -21.5t-21.5 -52.5z" />
    <glyph glyph-name="upsilontonos" unicode="&#x3cd;" horiz-adv-x="613" 
d="M229 567l4 173h215l-65 -173h-154zM576 254v270h-215v-275q0 -27 -15 -44.5t-40 -17.5q-24 0 -39 17.5t-15 44.5v275h-216v-277q0 -112 75 -184.5t192 -72.5t195 75.5t78 188.5z" />
    <glyph glyph-name="omegatonos" unicode="&#x3ce;" horiz-adv-x="895" 
d="M589 740l-65 -173h-154l4 173h215zM784 547l9 -12t21 -35t26 -57.5t20.5 -79t9.5 -99.5q0 -121 -70.5 -197.5t-186.5 -76.5q-108 0 -169 66q-64 -66 -170 -66q-115 0 -182 73t-67 194q0 52 9 100.5t21.5 81.5t25 58.5t21.5 37.5l9 12l195 -84q-7 -8 -18 -22.5
t-29.5 -64.5t-18.5 -105q0 -41 14.5 -62.5t38.5 -21.5q23 0 37.5 21.5t14.5 62.5v154h205v-154q0 -41 14.5 -62.5t37.5 -21.5q24 0 38.5 21.5t14.5 62.5q0 55 -16.5 103t-32.5 68l-17 21z" />
    <glyph glyph-name="uni0400" unicode="&#x400;" horiz-adv-x="650" 
d="M249 747l-114 173h227l54 -173h-167zM60 0v700h545v-193h-317v-74h267v-164h-267v-76h327v-193h-555z" />
    <glyph glyph-name="uni0401" unicode="&#x401;" horiz-adv-x="650" 
d="M211 737q-45 0 -74 29t-29 74t30 75t76 30q45 0 73.5 -28.5t28.5 -73.5q0 -46 -29.5 -76t-75.5 -30zM451 737q-45 0 -73.5 29t-28.5 74t29.5 75t75.5 30q45 0 73.5 -28.5t28.5 -73.5q0 -46 -29.5 -76t-75.5 -30zM60 0v700h545v-193h-317v-74h267v-164h-267v-76h327v-193
h-555z" />
    <glyph glyph-name="uni0402" unicode="&#x402;" horiz-adv-x="837" 
d="M504 463q142 0 222 -61t80 -175q0 -237 -336 -237v191q109 0 109 46q0 44 -106 44q-34 0 -64 -10v-261h-228v502h-176v198h580v-198h-176v-55q43 16 95 16z" />
    <glyph glyph-name="uni0403" unicode="&#x403;" horiz-adv-x="590" 
d="M239 743l54 173h226l-113 -173h-167zM60 700h525v-204h-297v-496h-228v700z" />
    <glyph glyph-name="uni0404" unicode="&#x404;" horiz-adv-x="709" 
d="M407 200q25 0 47 7t36 17t24 20.5t14 17.5l5 7l161 -142q-3 -6 -10 -15t-32 -32.5t-55.5 -41.5t-82 -33t-110.5 -15q-159 0 -264 102t-105 254t108.5 258t267.5 106q56 0 105.5 -13.5t80.5 -33t54 -39t33 -32.5l10 -14l-173 -132q-4 6 -12 15t-37.5 24t-64.5 15
q-85 0 -124 -70h188v-153h-192q38 -77 128 -77z" />
    <glyph glyph-name="uni0405" unicode="&#x405;" horiz-adv-x="598" 
d="M277 504q0 -14 18 -28t76 -41q37 -17 65 -34t60 -44t49.5 -63t17.5 -78q0 -96 -77 -161t-196 -65q-52 0 -100.5 12t-80.5 29.5t-56.5 35t-36.5 29.5l-11 12l129 141q9 -9 25 -21.5t59.5 -33.5t79.5 -21q33 0 33 26q0 15 -25 32t-104 55q-157 74 -157 207q0 96 73 156.5
t190 60.5q45 0 88 -10.5t72 -25t52 -29t34 -25.5l11 -10l-131 -142q-7 7 -18.5 17t-44.5 26.5t-63 16.5q-31 0 -31 -24z" />
    <glyph glyph-name="uni0406" unicode="&#x406;" horiz-adv-x="363" 
d="M65 700h234v-700h-234v700z" />
    <glyph glyph-name="uni0407" unicode="&#x407;" horiz-adv-x="363" 
d="M61 737q-46 0 -74.5 29t-28.5 74t30 75t75 30q46 0 74.5 -28.5t28.5 -73.5q0 -46 -30 -76t-75 -30zM301 737q-46 0 -74.5 29t-28.5 74t30 75t75 30q46 0 74.5 -28.5t28.5 -73.5q0 -46 -30 -76t-75 -30zM65 700h234v-700h-234v700z" />
    <glyph glyph-name="uni0408" unicode="&#x408;" horiz-adv-x="526" 
d="M184 -10q-51 0 -95.5 8.5t-62.5 17.5l-19 9l59 201q38 -20 97 -20q37 0 58.5 26t21.5 68v400h234v-415q0 -134 -81 -214.5t-212 -80.5z" />
    <glyph glyph-name="uni0409" unicode="&#x409;" horiz-adv-x="1149" 
d="M5 -2l17 192q15 -2 29 -2q41 0 60 21t21 63l23 428h585v-187h96q129 0 205 -69t76 -185q0 -115 -80.5 -187t-209.5 -72h-315v496h-145l-8 -201q-9 -151 -84 -228t-215 -77q-13 0 -27 2t-21 4zM740 192h74q35 0 55 18.5t20 48.5t-20 49t-55 19h-74v-135z" />
    <glyph glyph-name="uni040A" unicode="&#x40a;" horiz-adv-x="1119" 
d="M60 0v700h228v-241h194v241h228v-187h96q129 0 205 -69t76 -185q0 -115 -80.5 -187t-209.5 -72h-315v255h-194v-255h-228zM710 192h74q35 0 55 18.5t20 48.5t-20 49t-55 19h-74v-135z" />
    <glyph glyph-name="uni040B" unicode="&#x40b;" horiz-adv-x="837" 
d="M504 463q141 0 221.5 -73.5t80.5 -204.5v-185h-227v163q0 46 -28.5 71t-77.5 25q-34 0 -64 -10v-249h-228v502h-176v198h580v-198h-176v-55q43 16 95 16z" />
    <glyph glyph-name="uni040C" unicode="&#x40c;" horiz-adv-x="750" 
d="M290 747l54 173h226l-113 -173h-167zM60 0v700h228v-298l178 298h277l-232 -328l252 -372h-277l-198 318v-318h-228z" />
    <glyph glyph-name="uni040D" unicode="&#x40d;" horiz-adv-x="790" 
d="M312 747l-114 173h227l53 -173h-166zM502 357l-220 -357h-222v700h228v-341l209 341h233v-700h-228v357z" />
    <glyph glyph-name="uni040E" unicode="&#x40e;" horiz-adv-x="745" 
d="M379 743q-80 0 -130.5 46t-50.5 122v5h141v-18q0 -37 41 -37q39 0 39 37v18h141v-5q0 -76 -50.5 -122t-130.5 -46zM502 700h246l-254 -534q-83 -176 -256 -176q-44 0 -86.5 10t-63.5 20l-20 11l66 189q46 -26 103 -26h3l-243 506h259l127 -307z" />
    <glyph glyph-name="uni040F" unicode="&#x40f;" horiz-adv-x="770" 
d="M60 0v700h228v-496h194v496h228v-700h-217v-120h-216v120h-217z" />
    <glyph glyph-name="uni0410" unicode="&#x410;" horiz-adv-x="755" 
d="M-3 0l267 700h228l266 -700h-253l-29 96h-209l-29 -96h-241zM318 267h108l-54 180z" />
    <glyph glyph-name="uni0411" unicode="&#x411;" horiz-adv-x="696" 
d="M60 0v700h545v-192h-317v-55h88q131 0 210 -61.5t79 -168.5t-75.5 -165t-206.5 -58h-323zM288 184h88q31 0 46 15.5t15 37.5q0 23 -15 38t-46 15h-88v-106z" />
    <glyph glyph-name="uni0412" unicode="&#x412;" horiz-adv-x="690" 
d="M60 0v700h342q107 0 170.5 -50.5t63.5 -134.5q0 -94 -85 -151q55 -23 84.5 -66.5t29.5 -99.5q0 -86 -68 -142t-175 -56h-362zM288 433h61q29 0 44 14t15 34t-15 34t-44 14h-61v-96zM288 171h88q31 0 46 15.5t15 37.5q0 23 -15 38t-46 15h-88v-106z" />
    <glyph glyph-name="uni0413" unicode="&#x413;" horiz-adv-x="590" 
d="M60 700h525v-204h-297v-496h-228v700z" />
    <glyph glyph-name="uni0414" unicode="&#x414;" horiz-adv-x="845" 
d="M738 204h102v-324h-215v120h-405v-120h-215v324h43q78 0 81 84l23 412h586v-496zM356 298q-3 -54 -19 -94h173v292h-146z" />
    <glyph glyph-name="uni0415" unicode="&#x415;" horiz-adv-x="650" 
d="M60 0v700h545v-193h-317v-74h267v-164h-267v-76h327v-193h-555z" />
    <glyph glyph-name="uni0416" unicode="&#x416;" horiz-adv-x="1155" 
d="M-13 0l252 372l-232 328h279l178 -298v298h228v-298l178 298h278l-232 -328l252 -372h-278l-198 318v-318h-228v318l-198 -318h-279z" />
    <glyph glyph-name="uni0417" unicode="&#x417;" 
d="M286 -10q-55 0 -104 10.5t-80 25.5t-54 30t-33 26l-10 10l119 144q7 -6 20 -16t52 -26t78 -16q48 0 73 14t25 34q0 51 -116 51h-69v156h68q53 0 75 10.5t22 34.5q0 44 -85 44q-32 0 -63 -10.5t-46 -21.5l-16 -10l-112 139q3 4 9.5 10t29.5 21.5t50 27.5t72 22t95 10
q129 0 211.5 -53t82.5 -142q0 -47 -26.5 -89t-67.5 -63q51 -19 82.5 -64t31.5 -101q0 -97 -84.5 -152.5t-229.5 -55.5z" />
    <glyph glyph-name="uni0418" unicode="&#x418;" horiz-adv-x="790" 
d="M502 357l-220 -357h-222v700h228v-341l209 341h233v-700h-228v357z" />
    <glyph glyph-name="uni0419" unicode="&#x419;" horiz-adv-x="790" 
d="M395 747q-80 0 -130.5 46t-50.5 122v5h141v-18q0 -37 41 -37q39 0 39 37v18h141v-5q0 -76 -50.5 -122t-130.5 -46zM502 357l-220 -357h-222v700h228v-341l209 341h233v-700h-228v357z" />
    <glyph glyph-name="uni041A" unicode="&#x41a;" horiz-adv-x="750" 
d="M60 0v700h228v-298l178 298h277l-232 -328l252 -372h-277l-198 318v-318h-228z" />
    <glyph glyph-name="uni041B" unicode="&#x41b;" horiz-adv-x="800" 
d="M60 -10q-13 0 -27 2t-21 4l-7 2l17 192q15 -2 29 -2q41 0 60 21t21 63l23 428h585v-700h-228v496h-145l-8 -201q-9 -151 -84 -228t-215 -77z" />
    <glyph glyph-name="uni041C" unicode="&#x41c;" horiz-adv-x="890" 
d="M279 320v-320h-219v700h234l157 -325l157 325h222v-700h-219v320l-106 -225h-120z" />
    <glyph glyph-name="uni041D" unicode="&#x41d;" horiz-adv-x="770" 
d="M60 0v700h228v-241h194v241h228v-700h-228v255h-194v-255h-228z" />
    <glyph glyph-name="uni041E" unicode="&#x41e;" horiz-adv-x="815" 
d="M35 346q0 152 108.5 258t267.5 106t264 -102t105 -254t-108.5 -258t-267.5 -106t-264 102t-105 254zM263 350q0 -65 40 -107.5t104 -42.5t104.5 43t40.5 107t-40.5 107t-104.5 43t-104 -42.5t-40 -107.5z" />
    <glyph glyph-name="uni041F" unicode="&#x41f;" horiz-adv-x="770" 
d="M60 0v700h650v-700h-228v496h-194v-496h-228z" />
    <glyph glyph-name="uni0420" unicode="&#x420;" horiz-adv-x="696" 
d="M60 0v700h323q129 0 205.5 -69t76.5 -184q0 -116 -80 -188t-209 -72h-88v-187h-228zM288 373h74q34 0 54.5 19t20.5 49t-20.5 48.5t-54.5 18.5h-74v-135z" />
    <glyph glyph-name="uni0421" unicode="&#x421;" horiz-adv-x="709" 
d="M404 -10q-159 0 -264 102t-105 254t108.5 258t267.5 106q56 0 105.5 -12.5t79.5 -31t52.5 -36.5t31.5 -30l9 -13l-165 -142q-4 6 -11.5 15t-38 24.5t-67.5 15.5q-64 0 -104 -42.5t-40 -107.5t40 -107.5t104 -42.5q25 0 47.5 6.5t36.5 16t25 19.5t16 16l5 7l157 -138
q-3 -6 -10 -15t-32 -32.5t-55.5 -41.5t-82 -33t-110.5 -15z" />
    <glyph glyph-name="uni0422" unicode="&#x422;" horiz-adv-x="590" 
d="M409 502v-502h-228v502h-176v198h580v-198h-176z" />
    <glyph glyph-name="uni0423" unicode="&#x423;" horiz-adv-x="745" 
d="M502 700h246l-254 -534q-83 -176 -256 -176q-44 0 -86.5 10t-63.5 20l-20 11l66 189q46 -26 103 -26h3l-243 506h259l127 -307z" />
    <glyph glyph-name="uni0424" unicode="&#x424;" horiz-adv-x="980" 
d="M945 354q0 -140 -97.5 -238.5t-249.5 -107.5v-58h-216v57q-155 7 -251 102.5t-96 236.5q0 140 97.5 238.5t249.5 107.5v58h216v-57q154 -7 250.5 -102.5t96.5 -236.5zM263 350q0 -58 31 -97.5t88 -46.5v288q-57 -7 -88 -46.5t-31 -97.5zM598 206q57 7 88 46.5t31 97.5
t-31 97.5t-88 46.5v-288z" />
    <glyph glyph-name="uni0425" unicode="&#x425;" horiz-adv-x="777" 
d="M-3 0l257 354l-248 346h276l113 -173l113 173h263l-249 -343l258 -357h-276l-123 186l-120 -186h-264z" />
    <glyph glyph-name="uni0426" unicode="&#x426;" horiz-adv-x="818" 
d="M710 204h103v-324h-216v120h-537v700h228v-496h194v496h228v-496z" />
    <glyph glyph-name="uni0427" unicode="&#x427;" horiz-adv-x="716" 
d="M428 700h228v-700h-228v196q-43 -16 -94 -16q-142 0 -222.5 73t-80.5 204v243h228v-221q0 -45 28.5 -70.5t77.5 -25.5q35 0 63 10v307z" />
    <glyph glyph-name="uni0428" unicode="&#x428;" horiz-adv-x="1170" 
d="M60 0v700h228v-496h183v496h228v-496h183v496h228v-700h-1050z" />
    <glyph glyph-name="uni0429" unicode="&#x429;" horiz-adv-x="1218" 
d="M1110 204h103v-324h-216v120h-937v700h228v-496h183v496h228v-496h183v496h228v-496z" />
    <glyph glyph-name="uni042A" unicode="&#x42a;" horiz-adv-x="776" 
d="M5 508v192h363v-187h96q128 0 204.5 -69t76.5 -184q0 -116 -80.5 -188t-209.5 -72h-315v508h-135zM368 192h74q34 0 54.5 18.5t20.5 48.5t-20.5 49t-54.5 19h-74v-135z" />
    <glyph glyph-name="uni042B" unicode="&#x42b;" horiz-adv-x="1060" 
d="M60 0v700h228v-187h96q129 0 205 -69t76 -185q0 -115 -80.5 -187t-209.5 -72h-315zM761 700h234v-700h-234v700zM288 192h74q34 0 54.5 18.5t20.5 48.5t-20.5 49t-54.5 19h-74v-135z" />
    <glyph glyph-name="uni042C" unicode="&#x42c;" horiz-adv-x="696" 
d="M60 0v700h228v-187h96q129 0 205 -69t76 -185q0 -115 -80.5 -187t-209.5 -72h-315zM288 192h74q34 0 54.5 18.5t20.5 48.5t-20.5 49t-54.5 19h-74v-135z" />
    <glyph glyph-name="uni042D" unicode="&#x42d;" horiz-adv-x="707" 
d="M303 710q160 0 264.5 -102t104.5 -254t-108 -258t-268 -106q-56 0 -105.5 13.5t-80 33t-53.5 39.5t-33 34l-9 13l170 130q2 -2 5 -5.5t13.5 -13t23 -16.5t32 -12.5t41.5 -5.5q87 0 127 75h-191v155h188q-39 70 -124 70q-40 0 -71.5 -17t-43.5 -34l-12 -17l-158 139
q3 6 9.5 15t31.5 33t55 42.5t81.5 33.5t110.5 15z" />
    <glyph glyph-name="uni042E" unicode="&#x42e;" horiz-adv-x="1173" 
d="M769 710q160 0 264.5 -102t104.5 -254t-108 -258t-268 -106q-131 0 -228 71.5t-128 186.5h-112v-248h-234v700h234v-248h115q34 114 132.5 186t227.5 72zM766 200q64 0 104 42.5t40 107.5t-40 107.5t-104 42.5t-104.5 -43t-40.5 -107t40.5 -107t104.5 -43z" />
    <glyph glyph-name="uni042F" unicode="&#x42f;" horiz-adv-x="703" 
d="M643 700v-700h-228v209h-33l-117 -209h-258l152 243q-122 75 -122 213q0 112 77 178t202 66h327zM415 508h-79q-35 0 -53 -17t-18 -46t18 -46.5t53 -17.5h79v127z" />
    <glyph glyph-name="uni0430" unicode="&#x430;" horiz-adv-x="579" 
d="M22 147q0 72 56.5 118t147.5 46q59 0 101 -15q0 22 -23.5 37t-58.5 15q-27 0 -55 -7.5t-42 -14.5l-14 -8l-82 152q10 7 28 17.5t79 28.5t127 18q118 0 187.5 -64.5t69.5 -175.5v-294h-168l-15 33q-55 -43 -142 -43q-91 0 -143.5 42.5t-52.5 114.5zM238 157
q0 -16 14 -27.5t34 -11.5q18 0 32 11.5t14 27.5t-14 27t-32 11q-20 0 -34 -11t-14 -27z" />
    <glyph glyph-name="uni0431" unicode="&#x431;" horiz-adv-x="631" 
d="M372 465q105 0 169.5 -62t64.5 -158q0 -106 -81 -180.5t-200 -74.5q-134 0 -217 83t-83 232q0 179 107.5 280.5t275.5 109.5q27 1 50 4.5t32 6.5l9 4l53 -168q-4 -4 -12.5 -9.5t-46 -17t-89.5 -14.5q-96 -5 -143 -39t-61 -101q61 104 172 104zM316 175q32 0 53.5 20
t21.5 47t-22 47t-55 20q-32 0 -53 -20.5t-21 -47.5q0 -28 21.5 -47t54.5 -19z" />
    <glyph glyph-name="uni0432" unicode="&#x432;" horiz-adv-x="598" 
d="M40 0v524h330q83 0 132.5 -38t49.5 -100q0 -69 -70 -114q43 -18 67 -50t24 -74q0 -64 -52 -106t-136 -42h-345zM255 323h42q39 0 39 31q0 32 -39 32h-42v-63zM255 138h61q20 0 31 10t11 25t-11 24.5t-31 9.5h-61v-69z" />
    <glyph glyph-name="uni0433" unicode="&#x433;" horiz-adv-x="450" 
d="M40 0v524h405v-192h-190v-332h-215z" />
    <glyph glyph-name="uni0434" unicode="&#x434;" horiz-adv-x="729" 
d="M632 192h92v-312h-203v120h-313v-120h-203v312h58q54 0 57 58l19 274h493v-332zM334 241q-3 -28 -10 -49h92v140h-78z" />
    <glyph glyph-name="uni0435" unicode="&#x435;" horiz-adv-x="598" 
d="M312 -10q-125 0 -206 76.5t-81 191.5q0 116 82.5 196t205.5 80q113 0 190 -73t77 -173q0 -22 -3 -39.5t-7 -24.5l-3 -6h-326q9 -21 33.5 -35t57.5 -14q27 0 51 9t35 18l10 9l118 -125q-3 -4 -8.5 -10t-26.5 -21.5t-45.5 -27.5t-66 -21.5t-87.5 -9.5zM242 324h133
q-2 24 -20.5 42t-45.5 18t-44.5 -17t-22.5 -43z" />
    <glyph glyph-name="uni0436" unicode="&#x436;" horiz-adv-x="965" 
d="M-13 0l182 288l-162 236h253l115 -214v214h215v-214l115 214h253l-162 -236l182 -288h-259l-129 240v-240h-215v240l-129 -240h-259z" />
    <glyph glyph-name="uni0437" unicode="&#x437;" horiz-adv-x="541" 
d="M240 -10q-74 0 -133.5 17.5t-82.5 34.5l-22 18l83 134q6 -5 17.5 -12.5t50 -19.5t78.5 -12q33 0 51.5 8t18.5 21q0 25 -84 25h-63v124h63q38 0 53.5 4.5t15.5 18.5q0 23 -59 23q-36 0 -67.5 -8t-45.5 -16l-14 -7l-80 130q8 7 23 17t72.5 27t125.5 17q118 0 189 -39.5
t71 -108.5q0 -35 -22 -65.5t-59 -48.5q44 -16 70 -48.5t26 -75.5q0 -75 -72.5 -116.5t-203.5 -41.5z" />
    <glyph glyph-name="uni0438" unicode="&#x438;" horiz-adv-x="640" 
d="M385 234l-136 -234h-209v524h215v-223l125 223h220v-524h-215v234z" />
    <glyph glyph-name="uni0439" unicode="&#x439;" horiz-adv-x="640" 
d="M320 567q-80 0 -130.5 46t-50.5 122v5h141v-18q0 -37 41 -37q39 0 39 37v18h141v-5q0 -76 -50.5 -122t-130.5 -46zM385 234l-136 -234h-209v524h215v-223l125 223h220v-524h-215v234z" />
    <glyph glyph-name="uni043A" unicode="&#x43a;" horiz-adv-x="629" 
d="M40 0v524h215v-214l115 214h252l-162 -236l182 -288h-258l-129 240v-240h-215z" />
    <glyph glyph-name="uni043B" unicode="&#x43b;" horiz-adv-x="650" 
d="M62 -10l-57 7l15 181q12 -3 22 -3q54 0 57 58l18 291h493v-524h-215v332h-78l-5 -95q-11 -129 -73 -188t-177 -59z" />
    <glyph glyph-name="uni043C" unicode="&#x43c;" horiz-adv-x="720" 
d="M245 211v-211h-205v524h217l108 -218l108 218h207v-524h-205v211l-62 -140h-106z" />
    <glyph glyph-name="uni043D" unicode="&#x43d;" horiz-adv-x="620" 
d="M40 0v524h215v-161h110v161h215v-524h-215v172h-110v-172h-215z" />
    <glyph glyph-name="uni043E" unicode="&#x43e;" horiz-adv-x="631" 
d="M25 258q0 116 84.5 196t209.5 80t206 -76.5t81 -192.5q0 -115 -84.5 -195t-209.5 -80t-206 76.5t-81 191.5zM240 262q0 -31 21.5 -53t54.5 -22q32 0 53.5 22t21.5 53t-21.5 52.5t-53.5 21.5q-33 0 -54.5 -21.5t-21.5 -52.5z" />
    <glyph glyph-name="uni043F" unicode="&#x43f;" horiz-adv-x="620" 
d="M40 0v524h540v-524h-215v332h-110v-332h-215z" />
    <glyph glyph-name="uni0440" unicode="&#x440;" horiz-adv-x="641" 
d="M40 524h180l15 -49q59 59 137 59q100 0 172 -78t72 -191q0 -114 -74.5 -194.5t-176.5 -80.5q-61 0 -110 29v-179h-215v684zM250 262q0 -31 21.5 -53t53.5 -22q33 0 54.5 22t21.5 53t-21.5 52.5t-54.5 21.5q-32 0 -53.5 -21.5t-21.5 -52.5z" />
    <glyph glyph-name="uni0441" unicode="&#x441;" horiz-adv-x="530" 
d="M312 -10q-125 0 -206 76.5t-81 191.5q0 116 84.5 196t209.5 80q39 0 75 -9t59 -22t40.5 -26.5t25.5 -22.5l8 -9l-146 -140q-25 31 -65 31q-33 0 -54.5 -21.5t-21.5 -52.5t21.5 -53t54.5 -22q19 0 36.5 9t25.5 18l7 9l143 -137q-3 -4 -9 -10.5t-26 -23t-43 -29t-60.5 -23
t-77.5 -10.5z" />
    <glyph glyph-name="uni0442" unicode="&#x442;" horiz-adv-x="480" 
d="M348 338v-338h-216v338h-127v186h470v-186h-127z" />
    <glyph glyph-name="uni0443" unicode="&#x443;" horiz-adv-x="568" 
d="M355 524h228l-194 -529q-32 -86 -86.5 -125.5t-141.5 -39.5q-46 0 -90 11.5t-65 22.5l-21 12l67 167q32 -26 85 -26q18 0 33 5l-185 502h239l65 -260z" />
    <glyph glyph-name="uni0444" unicode="&#x444;" horiz-adv-x="820" 
d="M795 265q0 -110 -81 -188.5t-202 -85.5v-151h-203v150q-124 4 -204 80t-80 188q0 111 81 189.5t203 85.5v167h203v-166q124 -4 203.5 -80.5t79.5 -188.5zM240 262q0 -29 19.5 -52t49.5 -28v159q-30 -5 -49.5 -28t-19.5 -51zM512 183q30 5 49 27.5t19 51.5q0 28 -19 50.5
t-49 27.5v-157z" />
    <glyph glyph-name="uni0445" unicode="&#x445;" horiz-adv-x="613" 
d="M434 273l194 -273h-250l-76 124l-80 -124h-237l193 264l-183 260h249l67 -113l69 113h238z" />
    <glyph glyph-name="uni0446" unicode="&#x446;" horiz-adv-x="678" 
d="M580 192h93v-312h-203v120h-430v524h215v-332h110v332h215v-332z" />
    <glyph glyph-name="uni0447" unicode="&#x447;" horiz-adv-x="586" 
d="M330 524h216v-524h-216v117q-35 -13 -76 -13q-106 0 -166.5 58t-60.5 160v202h216v-164q0 -65 54 -65q16 0 33 5v224z" />
    <glyph glyph-name="uni0448" unicode="&#x448;" horiz-adv-x="930" 
d="M40 0v524h215v-332h102v332h216v-332h102v332h215v-524h-850z" />
    <glyph glyph-name="uni0449" unicode="&#x449;" horiz-adv-x="988" 
d="M890 192h93v-312h-203v120h-740v524h215v-332h102v332h216v-332h102v332h215v-332z" />
    <glyph glyph-name="uni044A" unicode="&#x44a;" horiz-adv-x="650" 
d="M5 344v180h330v-136h54q105 0 169 -54t64 -143q0 -88 -61.5 -139.5t-165.5 -51.5h-275v344h-115zM335 243v-93h21q23 0 37 13t14 34q0 20 -14.5 33t-36.5 13h-21z" />
    <glyph glyph-name="uni044B" unicode="&#x44b;" horiz-adv-x="877" 
d="M40 0v524h215v-136h61q104 0 165 -52t61 -140t-64 -142t-170 -54h-268zM615 524h217v-524h-217v524zM255 243v-93h21q23 0 37 13t14 34q0 20 -14.5 33t-36.5 13h-21z" />
    <glyph glyph-name="uni044C" unicode="&#x44c;" horiz-adv-x="570" 
d="M40 0v524h215v-136h61q104 0 165 -52t61 -140t-64 -142t-170 -54h-268zM255 243v-93h21q23 0 37 13t14 34q0 20 -14.5 33t-36.5 13h-21z" />
    <glyph glyph-name="uni044D" unicode="&#x44d;" horiz-adv-x="527" 
d="M215 534q125 0 206 -76.5t81 -192.5q0 -115 -84.5 -195t-209.5 -80q-39 0 -75 9.5t-59 23.5t-40.5 28t-25.5 23l-7 10l129 124q3 -4 9 -10.5t25.5 -17.5t39.5 -11q57 0 79 36h-115v115h114q-22 35 -78 35q-23 0 -42.5 -11t-27.5 -22l-8 -11l-124 123q3 4 8.5 11t25.5 24
t42.5 30t59.5 24t77 11z" />
    <glyph glyph-name="uni044E" unicode="&#x44e;" horiz-adv-x="933" 
d="M621 534q125 0 206 -76.5t81 -192.5q0 -115 -84.5 -195t-209.5 -80q-99 0 -172.5 49.5t-100.5 131.5h-84v-171h-217v524h217v-162h91q32 77 105.5 124.5t167.5 47.5zM618 187q32 0 53.5 22t21.5 53t-21.5 52.5t-53.5 21.5q-33 0 -54 -21.5t-21 -52.5t21 -53t54 -22z" />
    <glyph glyph-name="uni044F" unicode="&#x44f;" horiz-adv-x="570" 
d="M269 524h273v-524h-215v152h-22l-61 -152h-234l99 199q-69 51 -69 134q0 87 62.5 139t166.5 52zM298 373q-19 0 -31 -11.5t-12 -29.5t12 -30t31 -12h29v83h-29z" />
    <glyph glyph-name="uni0450" unicode="&#x450;" horiz-adv-x="598" 
d="M230 567l-114 173h227l53 -173h-166zM312 -10q-125 0 -206 76.5t-81 191.5q0 116 82.5 196t205.5 80q113 0 190 -73t77 -173q0 -22 -3 -39.5t-7 -24.5l-3 -6h-326q9 -21 33.5 -35t57.5 -14q27 0 51 9t35 18l10 9l118 -125q-3 -4 -8.5 -10t-26.5 -21.5t-45.5 -27.5
t-66 -21.5t-87.5 -9.5zM242 324h133q-2 24 -20.5 42t-45.5 18t-44.5 -17t-22.5 -43z" />
    <glyph glyph-name="uni0451" unicode="&#x451;" horiz-adv-x="598" 
d="M191 557q-45 0 -73.5 29t-28.5 74t30 75t75 30t74 -28.5t29 -73.5q0 -46 -30 -76t-76 -30zM432 557q-46 0 -74.5 29t-28.5 74t30 75t75 30t74 -28.5t29 -73.5q0 -46 -30 -76t-75 -30zM312 -10q-125 0 -206 76.5t-81 191.5q0 116 82.5 196t205.5 80q113 0 190 -73t77 -173
q0 -22 -3 -39.5t-7 -24.5l-3 -6h-326q9 -21 33.5 -35t57.5 -14q27 0 51 9t35 18l10 9l118 -125q-3 -4 -8.5 -10t-26.5 -21.5t-45.5 -27.5t-66 -21.5t-87.5 -9.5zM242 324h133q-2 24 -20.5 42t-45.5 18t-44.5 -17t-22.5 -43z" />
    <glyph glyph-name="uni0452" unicode="&#x452;" horiz-adv-x="664" 
d="M438 534q83 0 136.5 -53.5t53.5 -138.5v-263q0 -122 -58 -185.5t-169 -63.5l-65 6l12 179h19q45 0 45 46v211q0 64 -55 64q-24 0 -39 -15t-15 -41v-280h-216v552h-67v117h67v31h216v-31h91v-117h-91v-76q58 58 135 58z" />
    <glyph glyph-name="uni0453" unicode="&#x453;" horiz-adv-x="450" 
d="M159 567l54 173h226l-113 -173h-167zM40 0v524h405v-192h-190v-332h-215z" />
    <glyph glyph-name="uni0454" unicode="&#x454;" horiz-adv-x="530" 
d="M316 179q23 0 41.5 9.5t25.5 19.5l7 10l138 -132q-3 -4 -9 -10.5t-26 -23t-43 -29t-60.5 -23t-77.5 -10.5q-125 0 -206 76.5t-81 191.5q0 116 84.5 196t209.5 80q62 0 114.5 -23t74.5 -45l21 -23l-143 -133q-25 35 -70 35q-33 0 -56 -25h94v-115h-95q23 -26 57 -26z" />
    <glyph glyph-name="uni0455" unicode="&#x455;" horiz-adv-x="490" 
d="M238 371q0 -14 75 -41q72 -25 112 -67.5t40 -97.5q0 -81 -59 -128t-168 -47q-64 0 -122.5 21.5t-85.5 42.5l-26 21l83 126q8 -7 22 -17.5t53 -27.5t72 -17q18 0 18 13q0 5 -4.5 9.5t-23.5 13t-57 23.5q-137 50 -137 167q0 71 59 120t162 49q56 0 110.5 -19t80.5 -38
l27 -19l-85 -129q-68 54 -127 54q-19 0 -19 -12z" />
    <glyph glyph-name="uni0456" unicode="&#x456;" horiz-adv-x="307" 
d="M25 661q0 51 36 84t93 33q56 0 92.5 -33t36.5 -84t-36.5 -83.5t-92.5 -32.5q-57 0 -93 32.5t-36 83.5zM45 524h217v-524h-217v524z" />
    <glyph glyph-name="uni0457" unicode="&#x457;" horiz-adv-x="307" 
d="M33 557q-46 0 -74.5 29t-28.5 74t30 75t75 30q46 0 74.5 -28.5t28.5 -73.5q0 -46 -30 -76t-75 -30zM273 557q-46 0 -74.5 29t-28.5 74t30 75t75 30q46 0 74.5 -28.5t28.5 -73.5q0 -46 -30 -76t-75 -30zM45 524h217v-524h-217v524z" />
    <glyph glyph-name="uni0458" unicode="&#x458;" horiz-adv-x="307" 
d="M25 661q0 51 36 84t93 33q56 0 92.5 -33t36.5 -84t-36.5 -83.5t-92.5 -32.5q-57 0 -93 32.5t-36 83.5zM262 524v-440q0 -126 -59 -190t-173 -64q-19 0 -41.5 2t-34.5 4l-13 3l22 177q15 -1 33 -1q25 0 37 11.5t12 39.5v458h217z" />
    <glyph glyph-name="uni0459" unicode="&#x459;" horiz-adv-x="924" 
d="M5 -3l15 181q12 -3 22 -3q54 0 57 58l18 291h493v-137h61q104 0 165 -51t61 -139t-64.5 -142.5t-169.5 -54.5h-268v332h-78l-5 -95q-11 -129 -73 -188t-177 -59zM610 243v-93h21q23 0 37 13t14 34q0 20 -14.5 33t-36.5 13h-21z" />
    <glyph glyph-name="uni045A" unicode="&#x45a;" horiz-adv-x="894" 
d="M40 0v524h215v-161h110v161h215v-137h61q104 0 165 -51t61 -139t-64.5 -142.5t-169.5 -54.5h-268v172h-110v-172h-215zM580 243v-93h21q23 0 37 13t14 34q0 20 -14.5 33t-36.5 13h-21z" />
    <glyph glyph-name="uni045B" unicode="&#x45b;" horiz-adv-x="664" 
d="M438 534q83 0 136.5 -53.5t53.5 -138.5v-342h-216v272q0 64 -55 64q-24 0 -39 -15t-15 -41v-280h-216v552h-67v117h67v31h216v-31h91v-117h-91v-76q58 58 135 58z" />
    <glyph glyph-name="uni045C" unicode="&#x45c;" horiz-adv-x="629" 
d="M232 567l54 173h226l-113 -173h-167zM40 0v524h215v-214l115 214h252l-162 -236l182 -288h-258l-129 240v-240h-215z" />
    <glyph glyph-name="uni045D" unicode="&#x45d;" horiz-adv-x="640" 
d="M237 567l-114 173h227l53 -173h-166zM385 234l-136 -234h-209v524h215v-223l125 223h220v-524h-215v234z" />
    <glyph glyph-name="uni045E" unicode="&#x45e;" horiz-adv-x="568" 
d="M290 567q-80 0 -130.5 46t-50.5 122v5h141v-18q0 -37 41 -37q39 0 39 37v18h141v-5q0 -76 -50.5 -122t-130.5 -46zM355 524h228l-194 -529q-32 -86 -86.5 -125.5t-141.5 -39.5q-46 0 -90 11.5t-65 22.5l-21 12l67 167q32 -26 85 -26q18 0 33 5l-185 502h239l65 -260z" />
    <glyph glyph-name="uni045F" unicode="&#x45f;" horiz-adv-x="620" 
d="M40 0v524h215v-332h110v332h215v-524h-169v-120h-202v120h-169z" />
    <glyph glyph-name="uni0462" unicode="&#x462;" horiz-adv-x="739" 
d="M437 480q125 0 198 -64.5t73 -172.5t-77.5 -175.5t-202.5 -67.5h-326v516h-72v117h72v67h228v-67h140v-117h-140v-36h107zM408 185q31 0 51.5 16.5t20.5 41.5t-20.5 41.5t-51.5 16.5h-78v-116h78z" />
    <glyph glyph-name="uni0463" unicode="&#x463;" horiz-adv-x="617" 
d="M372 371q101 0 159.5 -49t58.5 -134t-62 -136.5t-164 -51.5h-277v407h-67v117h67v176h216v-176h91v-117h-91v-36h69zM323 147q23 0 37 11.5t14 32.5q0 19 -14 31t-37 12h-21v-87h21z" />
    <glyph glyph-name="uni0472" unicode="&#x472;" horiz-adv-x="815" 
d="M411 710q159 0 264 -102t105 -254t-108.5 -258t-267.5 -106t-264 102t-105 254t108.5 258t267.5 106zM407 513q-88 0 -126 -77q21 8 43 8q50 0 97.5 -14t66.5 -14q35 0 49 14q-37 83 -130 83zM407 187q46 0 80.5 23.5t51.5 65.5q-23 -10 -49 -10q-50 0 -97 14t-66 14
q-36 0 -52 -16q17 -43 51 -67t81 -24z" />
    <glyph glyph-name="uni0473" unicode="&#x473;" horiz-adv-x="631" 
d="M319 534q125 0 206 -76.5t81 -192.5q0 -115 -84.5 -195t-209.5 -80t-206 76.5t-81 191.5q0 116 84.5 196t209.5 80zM316 377q-57 0 -74 -53q10 3 22 3q30 0 55.5 -8.5t38.5 -8.5q21 0 33 7q-16 60 -75 60zM316 146q58 0 74 58q-9 -4 -24 -4q-31 0 -56 8.5t-38 8.5
q-21 0 -33 -7q16 -64 77 -64z" />
    <glyph glyph-name="uni0474" unicode="&#x474;" horiz-adv-x="755" 
d="M259 0l-262 700h259l123 -401l31 129q37 111 76 169t100 85.5t162 27.5l-4 -210q-45 0 -65.5 -16.5t-41.5 -74.5l-150 -409h-228z" />
    <glyph glyph-name="uni0475" unicode="&#x475;" horiz-adv-x="578" 
d="M495 294l-106 -294h-210l-194 524h239l65 -238l1 32q39 124 97.5 170t185.5 46v-182q-32 0 -48.5 -12t-29.5 -46z" />
    <glyph glyph-name="uni0490" unicode="&#x490;" horiz-adv-x="590" 
d="M60 0v700h310v120h215v-324h-297v-496h-228z" />
    <glyph glyph-name="uni0491" unicode="&#x491;" horiz-adv-x="450" 
d="M40 0v524h202v120h203v-312h-190v-332h-215z" />
    <glyph glyph-name="uni0492" unicode="&#x492;" horiz-adv-x="590" 
d="M628 496h-298v-138h140v-116h-140v-242h-228v242h-72v116h72v342h526v-204z" />
    <glyph glyph-name="uni0493" unicode="&#x493;" horiz-adv-x="450" 
d="M493 332h-190v-72h99v-117h-99v-143h-216v143h-67v117h67v264h406v-192z" />
    <glyph glyph-name="uni0496" unicode="&#x496;" horiz-adv-x="1203" 
d="M1030 204h168v-324h-216v120h-92l-198 318v-318h-228v318l-198 -318h-279l252 372l-232 328h279l178 -298v298h228v-298l178 298h278l-232 -328z" />
    <glyph glyph-name="uni0497" unicode="&#x497;" horiz-adv-x="1003" 
d="M857 192h141v-312h-203v120h-76l-129 240v-240h-215v240l-129 -240h-259l182 288l-162 236h253l115 -214v214h215v-214l115 214h253l-162 -236z" />
    <glyph glyph-name="uni0498" unicode="&#x498;" horiz-adv-x="622" 
d="M600 198q0 -77 -53 -128t-149 -70v-120h-215v120q-55 12 -99.5 35t-61.5 40l-17 17l119 144q7 -6 20 -16t52 -26t78 -16q48 0 73 14t25 34q0 51 -116 51h-69v156h68q53 0 75 10.5t22 34.5q0 44 -85 44q-32 0 -63 -10.5t-46 -21.5l-16 -10l-112 139q3 4 9.5 10t29.5 21.5
t50 27.5t72 22t95 10q129 0 211.5 -53t82.5 -142q0 -47 -26.5 -89t-67.5 -63q51 -19 82.5 -64t31.5 -101z" />
    <glyph glyph-name="uni0499" unicode="&#x499;" horiz-adv-x="541" 
d="M516 148q0 -58 -44 -96.5t-125 -52.5v-119h-203v119q-44 8 -79.5 23t-48.5 26l-14 12l83 134q6 -5 17.5 -12.5t50 -19.5t78.5 -12q33 0 51.5 8t18.5 21q0 25 -84 25h-63v124h63q38 0 53.5 4.5t15.5 18.5q0 23 -59 23q-36 0 -67.5 -8t-45.5 -16l-14 -7l-80 130q8 7 23 17
t72.5 27t125.5 17q118 0 189 -39.5t71 -108.5q0 -35 -22 -65.5t-59 -48.5q44 -16 70 -48.5t26 -75.5z" />
    <glyph glyph-name="uni049A" unicode="&#x49a;" horiz-adv-x="799" 
d="M626 204h168v-324h-215v120h-93l-198 318v-318h-228v700h228v-298l178 298h278l-231 -328z" />
    <glyph glyph-name="uni049B" unicode="&#x49b;" horiz-adv-x="668" 
d="M522 192h141v-312h-203v120h-76l-129 240v-240h-215v524h215v-214l115 214h253l-162 -236z" />
    <glyph glyph-name="uni049C" unicode="&#x49c;" horiz-adv-x="852" 
d="M864 0h-278l-171 259v-134h-90v145h-37v-270h-228v700h228v-251h37v146h90v-131l151 236h278l-241 -328z" />
    <glyph glyph-name="uni049D" unicode="&#x49d;" horiz-adv-x="730" 
d="M743 0h-259l-111 188v-98h-90v108h-28v-198h-215v524h215v-172h28v109h90v-98l97 161h253l-171 -236z" />
    <glyph glyph-name="uni04A0" unicode="&#x4a0;" horiz-adv-x="832" 
d="M5 508v192h363v-298l178 298h278l-231 -328l251 -372h-278l-198 318v-318h-228v508h-135z" />
    <glyph glyph-name="uni04A1" unicode="&#x4a1;" horiz-adv-x="710" 
d="M5 344v180h330v-214l115 214h253l-162 -236l182 -288h-259l-129 240v-240h-215v344h-115z" />
    <glyph glyph-name="uni04A2" unicode="&#x4a2;" horiz-adv-x="818" 
d="M710 204h103v-324h-216v120h-115v255h-194v-255h-228v700h228v-241h194v241h228v-496z" />
    <glyph glyph-name="uni04A3" unicode="&#x4a3;" horiz-adv-x="678" 
d="M580 192h93v-312h-203v120h-105v172h-110v-172h-215v524h215v-161h110v161h215v-332z" />
    <glyph glyph-name="uni04A4" unicode="&#x4a4;" horiz-adv-x="1012" 
d="M60 0v700h228v-241h194v241h525v-204h-297v-496h-228v255h-194v-255h-228z" />
    <glyph glyph-name="uni04A5" unicode="&#x4a5;" horiz-adv-x="775" 
d="M40 0v524h215v-161h110v161h405v-192h-190v-332h-215v172h-110v-172h-215z" />
    <glyph glyph-name="uni04AA" unicode="&#x4aa;" horiz-adv-x="709" 
d="M694 127q-2 -4 -6.5 -10t-21 -23.5t-36 -32.5t-52.5 -32t-70 -26v-123h-216v125q-116 33 -186.5 125.5t-70.5 215.5q0 152 108.5 258t267.5 106q56 0 105.5 -12.5t79.5 -31t52.5 -36.5t31.5 -30l9 -13l-165 -142q-4 6 -11.5 15t-38 24.5t-67.5 15.5q-64 0 -104 -42.5
t-40 -107.5t40 -107.5t104 -42.5q25 0 47.5 6.5t36.5 16t25 19.5t16 16l5 7z" />
    <glyph glyph-name="uni04AB" unicode="&#x4ab;" horiz-adv-x="530" 
d="M528 86q-4 -6 -13 -15t-39 -30.5t-64 -33.5v-127h-203v126q-84 27 -134 95t-50 157q0 116 84.5 196t209.5 80q39 0 75 -9t59 -22t40.5 -26.5t25.5 -22.5l8 -9l-146 -140q-25 31 -65 31q-33 0 -54.5 -21.5t-21.5 -52.5t21.5 -53t54.5 -22q19 0 36.5 9t25.5 18l7 9z" />
    <glyph glyph-name="uni04AE" unicode="&#x4ae;" horiz-adv-x="725" 
d="M249 0v240l-252 460h264l108 -241l107 241h252l-251 -460v-240h-228z" />
    <glyph glyph-name="uni04AF" unicode="&#x4af;" horiz-adv-x="568" 
d="M355 524h228l-192 -524v-160h-214v160l-192 524h239l65 -251z" />
    <glyph glyph-name="uni04B0" unicode="&#x4b0;" horiz-adv-x="725" 
d="M728 700l-212 -389h147v-117h-186v-194h-228v194h-187v117h148l-213 389h264l108 -241l107 241h252z" />
    <glyph glyph-name="uni04B1" unicode="&#x4b1;" horiz-adv-x="568" 
d="M583 524l-166 -453h104v-117h-130v-114h-214v114h-131v117h105l-166 453h239l65 -251l66 251h228z" />
    <glyph glyph-name="uni04B2" unicode="&#x4b2;" horiz-adv-x="815" 
d="M633 204h177v-324h-216v120h-90l-123 186l-120 -186h-264l257 354l-248 346h276l113 -173l113 173h263l-249 -343z" />
    <glyph glyph-name="uni04B3" unicode="&#x4b3;" horiz-adv-x="653" 
d="M492 192h156v-312h-203v120h-67l-76 124l-80 -124h-237l193 264l-183 260h249l67 -113l69 113h238l-184 -251z" />
    <glyph glyph-name="uni04B6" unicode="&#x4b6;" horiz-adv-x="764" 
d="M656 204h103v-324h-215v120h-116v196q-43 -16 -94 -16q-142 0 -222.5 73t-80.5 204v243h228v-221q0 -45 28.5 -70.5t77.5 -25.5q35 0 63 10v307h228v-496z" />
    <glyph glyph-name="uni04B7" unicode="&#x4b7;" horiz-adv-x="643" 
d="M546 192h92v-312h-203v120h-105v117q-35 -13 -76 -13q-106 0 -166.5 58t-60.5 160v202h216v-164q0 -65 54 -65q16 0 33 5v224h216v-332z" />
    <glyph glyph-name="uni04B8" unicode="&#x4b8;" horiz-adv-x="736" 
d="M448 700h228v-700h-228v204q-27 -12 -50 -17v-112h-90v106q-130 7 -203.5 79t-73.5 197v243h228v-221q0 -60 49 -84v150h90v-159q26 4 50 15v299z" />
    <glyph glyph-name="uni04B9" unicode="&#x4b9;" horiz-adv-x="606" 
d="M354 524h212v-524h-212v130q-10 -7 -22 -12v-88h-70v74h-8q-106 0 -166.5 58t-60.5 160v202h212v-164q0 -43 23 -57v97h70v-99q11 4 22 11v212z" />
    <glyph glyph-name="uni04BA" unicode="&#x4ba;" horiz-adv-x="717" 
d="M383 520q141 0 221.5 -73t80.5 -204v-243h-228v221q0 46 -28 71t-78 25q-35 0 -63 -10v-307h-228v700h228v-196q43 16 95 16z" />
    <glyph glyph-name="uni04BB" unicode="&#x4bb;" horiz-adv-x="616" 
d="M40 0v700h215v-224q58 58 136 58q82 0 135.5 -53.5t53.5 -138.5v-342h-215v272q0 64 -56 64q-24 0 -39 -15t-15 -41v-280h-215z" />
    <glyph glyph-name="uni04C0" unicode="&#x4c0;" horiz-adv-x="363" 
d="M65 700h234v-700h-234v700z" />
    <glyph glyph-name="uni04C1" unicode="&#x4c1;" horiz-adv-x="1155" 
d="M578 743q-80 0 -130.5 46t-50.5 122v5h141v-18q0 -37 41 -37q39 0 39 37v18h141v-5q0 -76 -50.5 -122t-130.5 -46zM-13 0l252 372l-232 328h279l178 -298v298h228v-298l178 298h278l-232 -328l252 -372h-278l-198 318v-318h-228v318l-198 -318h-279z" />
    <glyph glyph-name="uni04C2" unicode="&#x4c2;" horiz-adv-x="965" 
d="M483 567q-80 0 -130.5 46t-50.5 122v5h141v-18q0 -37 41 -37q39 0 39 37v18h141v-5q0 -76 -50.5 -122t-130.5 -46zM-13 0l182 288l-162 236h253l115 -214v214h215v-214l115 214h253l-162 -236l182 -288h-259l-129 240v-240h-215v240l-129 -240h-259z" />
    <glyph glyph-name="uni04CF" unicode="&#x4cf;" horiz-adv-x="307" 
d="M45 524h217v-524h-217v524z" />
    <glyph glyph-name="uni04D0" unicode="&#x4d0;" horiz-adv-x="755" 
d="M378 747q-80 0 -130.5 46t-50.5 122v5h140v-18q0 -37 42 -37q39 0 39 37v18h141v-5q0 -76 -50.5 -122t-130.5 -46zM-3 0l267 700h228l266 -700h-253l-29 96h-209l-29 -96h-241zM318 267h108l-54 180z" />
    <glyph glyph-name="uni04D1" unicode="&#x4d1;" horiz-adv-x="579" 
d="M292 567q-80 0 -130.5 46t-50.5 122v5h141v-18q0 -37 41 -37q39 0 39 37v18h141v-5q0 -76 -50.5 -122t-130.5 -46zM22 147q0 72 56.5 118t147.5 46q59 0 101 -15q0 22 -23.5 37t-58.5 15q-27 0 -55 -7.5t-42 -14.5l-14 -8l-82 152q10 7 28 17.5t79 28.5t127 18
q118 0 187.5 -64.5t69.5 -175.5v-294h-168l-15 33q-55 -43 -142 -43q-91 0 -143.5 42.5t-52.5 114.5zM238 157q0 -16 14 -27.5t34 -11.5q18 0 32 11.5t14 27.5t-14 27t-32 11q-20 0 -34 -11t-14 -27z" />
    <glyph glyph-name="uni04D2" unicode="&#x4d2;" horiz-adv-x="755" 
d="M256 737q-45 0 -73.5 29t-28.5 74t29.5 75t75.5 30q45 0 73.5 -28.5t28.5 -73.5q0 -46 -29.5 -76t-75.5 -30zM496 737q-45 0 -73.5 29t-28.5 74t30 75t75 30t74 -28.5t29 -73.5q0 -46 -30 -76t-76 -30zM-3 0l267 700h228l266 -700h-253l-29 96h-209l-29 -96h-241z
M318 267h108l-54 180z" />
    <glyph glyph-name="uni04D3" unicode="&#x4d3;" horiz-adv-x="579" 
d="M171 557q-46 0 -74.5 29t-28.5 74t30 75t75 30q46 0 74.5 -28.5t28.5 -73.5q0 -46 -30 -76t-75 -30zM411 557q-46 0 -74.5 29t-28.5 74t30 75t75 30q46 0 74.5 -28.5t28.5 -73.5q0 -46 -30 -76t-75 -30zM22 147q0 72 56.5 118t147.5 46q59 0 101 -15q0 22 -23.5 37
t-58.5 15q-27 0 -55 -7.5t-42 -14.5l-14 -8l-82 152q10 7 28 17.5t79 28.5t127 18q118 0 187.5 -64.5t69.5 -175.5v-294h-168l-15 33q-55 -43 -142 -43q-91 0 -143.5 42.5t-52.5 114.5zM238 157q0 -16 14 -27.5t34 -11.5q18 0 32 11.5t14 27.5t-14 27t-32 11q-20 0 -34 -11
t-14 -27z" />
    <glyph glyph-name="uni04D4" unicode="&#x4d4;" horiz-adv-x="1083" 
d="M-13 0l385 700h666v-193h-318v-74h268v-164h-268v-76h328v-193h-556v96h-210l-43 -96h-252zM374 267h118v245z" />
    <glyph glyph-name="uni04D5" unicode="&#x4d5;" horiz-adv-x="901" 
d="M249 -10q-107 0 -167 42.5t-60 114.5t56.5 118t147.5 46q53 0 101 -17q0 25 -23 39.5t-59 14.5q-27 0 -55 -7.5t-42 -14.5l-14 -8l-82 152q10 7 29 17.5t81.5 28.5t129.5 18q89 0 161 -52q80 52 162 52q113 0 190 -73t77 -173q0 -22 -3 -39.5t-7 -24.5l-3 -6h-326
q24 -49 92 -49q26 0 50 9t35 18l10 9l118 -125q-3 -4 -8.5 -10t-26.5 -21.5t-45.5 -27.5t-66 -21.5t-87.5 -9.5q-100 0 -176 63q-72 -63 -189 -63zM544 324h133q-3 22 -19.5 41t-45.5 19t-46.5 -18.5t-21.5 -41.5zM286 118q18 0 32 11.5t14 27.5t-14 27t-32 11
q-20 0 -34 -11t-14 -27t14 -27.5t34 -11.5z" />
    <glyph glyph-name="uni04D6" unicode="&#x4d6;" horiz-adv-x="650" 
d="M332 747q-80 0 -130.5 46t-50.5 122v5h141v-18q0 -37 41 -37q40 0 40 37v18h141v-5q0 -76 -50.5 -122t-131.5 -46zM60 0v700h545v-193h-317v-74h267v-164h-267v-76h327v-193h-555z" />
    <glyph glyph-name="uni04D7" unicode="&#x4d7;" horiz-adv-x="598" 
d="M313 567q-80 0 -130.5 46t-50.5 122v5h140v-18q0 -17 11 -27t31 -10q39 0 39 37v18h141v-5q0 -76 -50.5 -122t-130.5 -46zM312 -10q-125 0 -206 76.5t-81 191.5q0 116 82.5 196t205.5 80q113 0 190 -73t77 -173q0 -22 -3 -39.5t-7 -24.5l-3 -6h-326q9 -21 33.5 -35
t57.5 -14q27 0 51 9t35 18l10 9l118 -125q-3 -4 -8.5 -10t-26.5 -21.5t-45.5 -27.5t-66 -21.5t-87.5 -9.5zM242 324h133q-2 24 -20.5 42t-45.5 18t-44.5 -17t-22.5 -43z" />
    <glyph glyph-name="uni04D8" unicode="&#x4d8;" horiz-adv-x="804" 
d="M389 710q166 0 273.5 -101t107.5 -254t-110 -259t-272 -106q-149 0 -251 96.5t-102 228.5q0 28 3.5 53t7.5 36l3 10h482q-16 42 -54.5 66t-92.5 24q-41 0 -79 -16.5t-55 -33.5l-17 -16l-145 148q4 5 11 13.5t33.5 30t58 37.5t85 29.5t113.5 13.5zM393 187q85 0 125 70
h-244q14 -29 46 -49.5t73 -20.5z" />
    <glyph glyph-name="uni04D9" unicode="&#x4d9;" horiz-adv-x="598" 
d="M286 534q125 0 206 -76.5t81 -191.5q0 -116 -82.5 -196t-205.5 -80q-113 0 -190 73t-77 173q0 22 3 39.5t7 24.5l3 6h326q-9 21 -33.5 35t-57.5 14q-27 0 -51 -9t-35 -18l-10 -9l-118 125q3 4 8.5 10t26.5 21.5t45.5 27.5t66 21.5t87.5 9.5zM356 200h-133q2 -24 20.5 -42
t45.5 -18t44.5 17t22.5 43z" />
    <glyph glyph-name="uni04DA" unicode="&#x4da;" horiz-adv-x="804" 
d="M268 733q-46 0 -74.5 29t-28.5 74t30 75t75 30q46 0 74.5 -28.5t28.5 -73.5q0 -46 -30 -76t-75 -30zM508 733q-46 0 -74.5 29t-28.5 74t30 75t75 30q46 0 74.5 -28.5t28.5 -73.5q0 -46 -30 -76t-75 -30zM389 710q166 0 273.5 -101t107.5 -254t-110 -259t-272 -106
q-149 0 -251 96.5t-102 228.5q0 28 3.5 53t7.5 36l3 10h482q-16 42 -54.5 66t-92.5 24q-41 0 -79 -16.5t-55 -33.5l-17 -16l-145 148q4 5 11 13.5t33.5 30t58 37.5t85 29.5t113.5 13.5zM393 187q85 0 125 70h-244q14 -29 46 -49.5t73 -20.5z" />
    <glyph glyph-name="uni04DB" unicode="&#x4db;" horiz-adv-x="598" 
d="M178 557q-45 0 -74 29t-29 74t30 75t75 30q46 0 74.5 -28.5t28.5 -73.5q0 -46 -30 -76t-75 -30zM418 557q-45 0 -74 29t-29 74t30 75t76 30q45 0 73.5 -28.5t28.5 -73.5q0 -46 -30 -76t-75 -30zM286 534q125 0 206 -76.5t81 -191.5q0 -116 -82.5 -196t-205.5 -80
q-113 0 -190 73t-77 173q0 22 3 39.5t7 24.5l3 6h326q-9 21 -33.5 35t-57.5 14q-27 0 -51 -9t-35 -18l-10 -9l-118 125q3 4 8.5 10t26.5 21.5t45.5 27.5t66 21.5t87.5 9.5zM356 200h-133q2 -24 20.5 -42t45.5 -18t44.5 17t22.5 43z" />
    <glyph glyph-name="uni04DC" unicode="&#x4dc;" horiz-adv-x="1155" 
d="M457 733q-46 0 -74.5 29t-28.5 74t30 75t75 30q46 0 74.5 -28.5t28.5 -73.5q0 -46 -30 -76t-75 -30zM697 733q-46 0 -74.5 29t-28.5 74t30 75t75 30q46 0 74.5 -28.5t28.5 -73.5q0 -46 -30 -76t-75 -30zM-13 0l252 372l-232 328h279l178 -298v298h228v-298l178 298h278
l-232 -328l252 -372h-278l-198 318v-318h-228v318l-198 -318h-279z" />
    <glyph glyph-name="uni04DD" unicode="&#x4dd;" horiz-adv-x="965" 
d="M362 557q-46 0 -74.5 29t-28.5 74t30 75t75 30q46 0 74.5 -28.5t28.5 -73.5q0 -46 -30 -76t-75 -30zM602 557q-46 0 -74.5 29t-28.5 74t30 75t75 30q46 0 74.5 -28.5t28.5 -73.5q0 -46 -30 -76t-75 -30zM-13 0l182 288l-162 236h253l115 -214v214h215v-214l115 214h253
l-162 -236l182 -288h-259l-129 240v-240h-215v240l-129 -240h-259z" />
    <glyph glyph-name="uni04DE" unicode="&#x4de;" 
d="M162 734q-45 0 -74 28.5t-29 73.5q0 46 30 76t76 30q45 0 73.5 -29t28.5 -74t-29.5 -75t-75.5 -30zM402 734q-45 0 -73.5 28.5t-28.5 73.5q0 46 29.5 76t75.5 30q45 0 73.5 -29t28.5 -74t-29.5 -75t-75.5 -30zM286 -10q-55 0 -104 10.5t-80 25.5t-54 30t-33 26l-10 10
l119 144q7 -6 20 -16t52 -26t78 -16q48 0 73 14t25 34q0 51 -116 51h-69v156h68q53 0 75 10.5t22 34.5q0 44 -85 44q-32 0 -63 -10.5t-46 -21.5l-16 -10l-112 139q3 4 9.5 10t29.5 21.5t50 27.5t72 22t95 10q129 0 211.5 -53t82.5 -142q0 -47 -26.5 -89t-67.5 -63
q51 -19 82.5 -64t31.5 -101q0 -97 -84.5 -152.5t-229.5 -55.5z" />
    <glyph glyph-name="uni04DF" unicode="&#x4df;" horiz-adv-x="541" 
d="M119 557q-45 0 -74 29t-29 74t30 75t76 30q45 0 73.5 -28.5t28.5 -73.5q0 -46 -29.5 -76t-75.5 -30zM359 557q-45 0 -73.5 29t-28.5 74t29.5 75t75.5 30q45 0 73.5 -28.5t28.5 -73.5q0 -46 -29.5 -76t-75.5 -30zM240 -10q-74 0 -133.5 17.5t-82.5 34.5l-22 18l83 134
q6 -5 17.5 -12.5t50 -19.5t78.5 -12q33 0 51.5 8t18.5 21q0 25 -84 25h-63v124h63q38 0 53.5 4.5t15.5 18.5q0 23 -59 23q-36 0 -67.5 -8t-45.5 -16l-14 -7l-80 130q8 7 23 17t72.5 27t125.5 17q118 0 189 -39.5t71 -108.5q0 -35 -22 -65.5t-59 -48.5q44 -16 70 -48.5
t26 -75.5q0 -75 -72.5 -116.5t-203.5 -41.5z" />
    <glyph glyph-name="uni04E2" unicode="&#x4e2;" horiz-adv-x="790" 
d="M215 781v117h360v-117h-360zM502 357l-220 -357h-222v700h228v-341l209 341h233v-700h-228v357z" />
    <glyph glyph-name="uni04E3" unicode="&#x4e3;" horiz-adv-x="640" 
d="M140 601v117h360v-117h-360zM385 234l-136 -234h-209v524h215v-223l125 223h220v-524h-215v234z" />
    <glyph glyph-name="uni04E4" unicode="&#x4e4;" horiz-adv-x="790" 
d="M274 737q-46 0 -74.5 29t-28.5 74t30 75t75 30q46 0 74.5 -28.5t28.5 -73.5q0 -46 -30 -76t-75 -30zM514 737q-46 0 -74.5 29t-28.5 74t30 75t75 30q46 0 74.5 -28.5t28.5 -73.5q0 -46 -30 -76t-75 -30zM502 357l-220 -357h-222v700h228v-341l209 341h233v-700h-228v357z
" />
    <glyph glyph-name="uni04E5" unicode="&#x4e5;" horiz-adv-x="640" 
d="M199 557q-46 0 -74.5 29t-28.5 74t30 75t75 30q46 0 74.5 -28.5t28.5 -73.5q0 -46 -30 -76t-75 -30zM439 557q-46 0 -74.5 29t-28.5 74t30 75t75 30q46 0 74.5 -28.5t28.5 -73.5q0 -46 -30 -76t-75 -30zM385 234l-136 -234h-209v524h215v-223l125 223h220v-524h-215v234z
" />
    <glyph glyph-name="uni04E6" unicode="&#x4e6;" horiz-adv-x="815" 
d="M286 737q-46 0 -74.5 29t-28.5 74t30 75t75 30q46 0 74.5 -28.5t28.5 -73.5q0 -46 -30 -76t-75 -30zM526 737q-46 0 -74.5 29t-28.5 74t30 75t75 30q46 0 74.5 -28.5t28.5 -73.5q0 -46 -30 -76t-75 -30zM35 346q0 152 108.5 258t267.5 106t264 -102t105 -254t-108.5 -258
t-267.5 -106t-264 102t-105 254zM263 350q0 -65 40 -107.5t104 -42.5t104.5 43t40.5 107t-40.5 107t-104.5 43t-104 -42.5t-40 -107.5z" />
    <glyph glyph-name="uni04E7" unicode="&#x4e7;" horiz-adv-x="631" 
d="M195 557q-46 0 -74.5 29t-28.5 74t30 75t75 30q46 0 74.5 -28.5t28.5 -73.5q0 -46 -30 -76t-75 -30zM435 557q-46 0 -74.5 29t-28.5 74t30 75t75 30q46 0 74.5 -28.5t28.5 -73.5q0 -46 -30 -76t-75 -30zM25 258q0 116 84.5 196t209.5 80t206 -76.5t81 -192.5
q0 -115 -84.5 -195t-209.5 -80t-206 76.5t-81 191.5zM240 262q0 -31 21.5 -53t54.5 -22q32 0 53.5 22t21.5 53t-21.5 52.5t-53.5 21.5q-33 0 -54.5 -21.5t-21.5 -52.5z" />
    <glyph glyph-name="uni04E8" unicode="&#x4e8;" horiz-adv-x="815" 
d="M411 710q159 0 264 -102t105 -254t-108.5 -258t-267.5 -106t-264 102t-105 254t108.5 258t267.5 106zM407 513q-92 0 -129 -83h258q-37 83 -129 83zM407 187q47 0 82 24.5t51 68.5h-266q16 -44 51 -68.5t82 -24.5z" />
    <glyph glyph-name="uni04E9" unicode="&#x4e9;" horiz-adv-x="631" 
d="M319 534q125 0 206 -76.5t81 -192.5q0 -115 -84.5 -195t-209.5 -80t-206 76.5t-81 191.5q0 116 84.5 196t209.5 80zM316 377q-59 0 -75 -58h150q-17 58 -75 58zM316 146q60 0 76 63h-153q16 -63 77 -63z" />
    <glyph glyph-name="uni04EA" unicode="&#x4ea;" horiz-adv-x="815" 
d="M286 733q-46 0 -74.5 29t-28.5 74t30 75t75 30q46 0 74.5 -28.5t28.5 -73.5q0 -46 -30 -76t-75 -30zM526 733q-46 0 -74.5 29t-28.5 74t30 75t75 30q46 0 74.5 -28.5t28.5 -73.5q0 -46 -30 -76t-75 -30zM411 710q159 0 264 -102t105 -254t-108.5 -258t-267.5 -106
t-264 102t-105 254t108.5 258t267.5 106zM407 513q-92 0 -129 -83h258q-37 83 -129 83zM407 187q47 0 82 24.5t51 68.5h-266q16 -44 51 -68.5t82 -24.5z" />
    <glyph glyph-name="uni04EB" unicode="&#x4eb;" horiz-adv-x="631" 
d="M195 557q-46 0 -74.5 29t-28.5 74t30 75t75 30q46 0 74.5 -28.5t28.5 -73.5q0 -46 -30 -76t-75 -30zM435 557q-46 0 -74.5 29t-28.5 74t30 75t75 30q46 0 74.5 -28.5t28.5 -73.5q0 -46 -30 -76t-75 -30zM319 534q125 0 206 -76.5t81 -192.5q0 -115 -84.5 -195t-209.5 -80
t-206 76.5t-81 191.5q0 116 84.5 196t209.5 80zM316 377q-59 0 -75 -58h150q-17 58 -75 58zM316 146q60 0 76 63h-153q16 -63 77 -63z" />
    <glyph glyph-name="uni04EC" unicode="&#x4ec;" horiz-adv-x="707" 
d="M182 733q-46 0 -74.5 29t-28.5 74t30 75t75 30q46 0 74.5 -28.5t28.5 -73.5q0 -46 -30 -76t-75 -30zM422 733q-46 0 -74.5 29t-28.5 74t30 75t75 30q46 0 74.5 -28.5t28.5 -73.5q0 -46 -30 -76t-75 -30zM303 710q160 0 264.5 -102t104.5 -254t-108 -258t-268 -106
q-56 0 -105.5 13.5t-80 33t-53.5 39.5t-33 34l-9 13l170 130q2 -2 5 -5.5t13.5 -13t23 -16.5t32 -12.5t41.5 -5.5q87 0 127 75h-191v155h188q-39 70 -124 70q-40 0 -71.5 -17t-43.5 -34l-12 -17l-158 139q3 6 9.5 15t31.5 33t55 42.5t81.5 33.5t110.5 15z" />
    <glyph glyph-name="uni04ED" unicode="&#x4ed;" horiz-adv-x="527" 
d="M94 557q-46 0 -74.5 29t-28.5 74t30 75t75 30q46 0 74.5 -28.5t28.5 -73.5q0 -46 -30 -76t-75 -30zM334 557q-46 0 -74.5 29t-28.5 74t30 75t75 30q46 0 74.5 -28.5t28.5 -73.5q0 -46 -30 -76t-75 -30zM215 534q125 0 206 -76.5t81 -192.5q0 -115 -84.5 -195t-209.5 -80
q-39 0 -75 9.5t-59 23.5t-40.5 28t-25.5 23l-7 10l129 124q3 -4 9 -10.5t25.5 -17.5t39.5 -11q57 0 79 36h-115v115h114q-22 35 -78 35q-23 0 -42.5 -11t-27.5 -22l-8 -11l-124 123q3 4 8.5 11t25.5 24t42.5 30t59.5 24t77 11z" />
    <glyph glyph-name="uni04EE" unicode="&#x4ee;" horiz-adv-x="745" 
d="M559 894v-117h-360v117h360zM502 700h246l-254 -534q-83 -176 -256 -176q-44 0 -86.5 10t-63.5 20l-20 11l66 189q46 -26 103 -26h3l-243 506h259l127 -307z" />
    <glyph glyph-name="uni04EF" unicode="&#x4ef;" horiz-adv-x="568" 
d="M470 718v-117h-360v117h360zM355 524h228l-194 -529q-32 -86 -86.5 -125.5t-141.5 -39.5q-46 0 -90 11.5t-65 22.5l-21 12l67 167q32 -26 85 -26q18 0 33 5l-185 502h239l65 -260z" />
    <glyph glyph-name="uni04F0" unicode="&#x4f0;" horiz-adv-x="745" 
d="M258 733q-46 0 -74.5 29t-28.5 74t30 75t75 30q46 0 74.5 -28.5t28.5 -73.5q0 -46 -30 -76t-75 -30zM498 733q-46 0 -74.5 29t-28.5 74t30 75t75 30q46 0 74.5 -28.5t28.5 -73.5q0 -46 -30 -76t-75 -30zM502 700h246l-254 -534q-83 -176 -256 -176q-44 0 -86.5 10
t-63.5 20l-20 11l66 189q46 -26 103 -26h3l-243 506h259l127 -307z" />
    <glyph glyph-name="uni04F1" unicode="&#x4f1;" horiz-adv-x="568" 
d="M169 557q-46 0 -74.5 29t-28.5 74t30 75t75 30q46 0 74.5 -28.5t28.5 -73.5q0 -46 -30 -76t-75 -30zM409 557q-46 0 -74.5 29t-28.5 74t30 75t75 30q46 0 74.5 -28.5t28.5 -73.5q0 -46 -30 -76t-75 -30zM355 524h228l-194 -529q-32 -86 -86.5 -125.5t-141.5 -39.5
q-46 0 -90 11.5t-65 22.5l-21 12l67 167q32 -26 85 -26q18 0 33 5l-185 502h239l65 -260z" />
    <glyph glyph-name="uni04F2" unicode="&#x4f2;" horiz-adv-x="745" 
d="M446 916l-107 -173h-160l46 173h221zM578 743h-160l46 173h221zM502 700h246l-254 -534q-83 -176 -256 -176q-44 0 -86.5 10t-63.5 20l-20 11l66 189q46 -26 103 -26h3l-243 506h259l127 -307z" />
    <glyph glyph-name="uni04F3" unicode="&#x4f3;" horiz-adv-x="568" 
d="M358 740l-107 -173h-160l46 173h221zM490 567h-160l46 173h221zM289 264l66 260h228l-194 -529q-32 -86 -86.5 -125.5t-141.5 -39.5q-46 0 -90 11.5t-65 22.5l-21 12l67 167q32 -26 85 -26q18 0 33 5l-185 502h239z" />
    <glyph glyph-name="uni04F4" unicode="&#x4f4;" horiz-adv-x="716" 
d="M223 733q-46 0 -74.5 29t-28.5 74t30 75t75 30q46 0 74.5 -28.5t28.5 -73.5q0 -46 -30 -76t-75 -30zM463 733q-46 0 -74.5 29t-28.5 74t30 75t75 30q46 0 74.5 -28.5t28.5 -73.5q0 -46 -30 -76t-75 -30zM428 700h228v-700h-228v196q-43 -16 -94 -16q-142 0 -222.5 73
t-80.5 204v243h228v-221q0 -45 28.5 -70.5t77.5 -25.5q35 0 63 10v307z" />
    <glyph glyph-name="uni04F5" unicode="&#x4f5;" horiz-adv-x="586" 
d="M166 557q-46 0 -74.5 29t-28.5 74t30 75t75 30q46 0 74.5 -28.5t28.5 -73.5q0 -46 -30 -76t-75 -30zM406 557q-46 0 -74.5 29t-28.5 74t30 75t75 30q46 0 74.5 -28.5t28.5 -73.5q0 -46 -30 -76t-75 -30zM330 524h216v-524h-216v117q-35 -13 -76 -13q-106 0 -166.5 58
t-60.5 160v202h216v-164q0 -65 54 -65q16 0 33 5v224z" />
    <glyph glyph-name="uni04F8" unicode="&#x4f8;" horiz-adv-x="1060" 
d="M409 733q-46 0 -74.5 29t-28.5 74t30 75t75 30q46 0 74.5 -28.5t28.5 -73.5q0 -46 -30 -76t-75 -30zM649 733q-46 0 -74.5 29t-28.5 74t30 75t75 30q46 0 74.5 -28.5t28.5 -73.5q0 -46 -30 -76t-75 -30zM60 0v700h228v-187h96q129 0 205 -69t76 -185q0 -115 -80.5 -187
t-209.5 -72h-315zM761 700h234v-700h-234v700zM288 192h74q34 0 54.5 18.5t20.5 48.5t-20.5 49t-54.5 19h-74v-135z" />
    <glyph glyph-name="uni04F9" unicode="&#x4f9;" horiz-adv-x="877" 
d="M317 557q-46 0 -74.5 29t-28.5 74t30 75t75 30q46 0 74.5 -28.5t28.5 -73.5q0 -46 -30 -76t-75 -30zM557 557q-46 0 -74.5 29t-28.5 74t30 75t75 30q46 0 74.5 -28.5t28.5 -73.5q0 -46 -30 -76t-75 -30zM40 0v524h215v-136h61q104 0 165 -52t61 -140t-64 -142t-170 -54
h-268zM615 524h217v-524h-217v524zM255 243v-93h21q23 0 37 13t14 34q0 20 -14.5 33t-36.5 13h-21z" />
    <glyph glyph-name="Wgrave" unicode="&#x1e80;" horiz-adv-x="1040" 
d="M444 747l-114 173h227l53 -173h-166zM-3 700h253l99 -352l96 352h162l97 -352l98 352h241l-234 -700h-197l-92 325l-92 -325h-197z" />
    <glyph glyph-name="wgrave" unicode="&#x1e81;" horiz-adv-x="815" 
d="M331 567l-114 173h227l53 -173h-166zM-15 524h233l55 -236l60 236h161l58 -229l57 229h221l-165 -524h-204l-54 205l-53 -205h-204z" />
    <glyph glyph-name="Wacute" unicode="&#x1e82;" horiz-adv-x="1040" 
d="M443 747l54 173h226l-113 -173h-167zM-3 700h253l99 -352l96 352h162l97 -352l98 352h241l-234 -700h-197l-92 325l-92 -325h-197z" />
    <glyph glyph-name="wacute" unicode="&#x1e83;" horiz-adv-x="815" 
d="M331 567l54 173h226l-113 -173h-167zM-15 524h233l55 -236l60 236h161l58 -229l57 229h221l-165 -524h-204l-54 205l-53 -205h-204z" />
    <glyph glyph-name="Wdieresis" unicode="&#x1e84;" horiz-adv-x="1040" 
d="M406 737q-46 0 -74.5 29t-28.5 74t30 75t75 30q46 0 74.5 -28.5t28.5 -73.5q0 -46 -30 -76t-75 -30zM646 737q-46 0 -74.5 29t-28.5 74t30 75t75 30q46 0 74.5 -28.5t28.5 -73.5q0 -46 -30 -76t-75 -30zM-3 700h253l99 -352l96 352h162l97 -352l98 352h241l-234 -700
h-197l-92 325l-92 -325h-197z" />
    <glyph glyph-name="wdieresis" unicode="&#x1e85;" horiz-adv-x="815" 
d="M293 557q-46 0 -74.5 29t-28.5 74t30 75t75 30q46 0 74.5 -28.5t28.5 -73.5q0 -46 -30 -76t-75 -30zM533 557q-46 0 -74.5 29t-28.5 74t30 75t75 30q46 0 74.5 -28.5t28.5 -73.5q0 -46 -30 -76t-75 -30zM-15 524h233l55 -236l60 236h161l58 -229l57 229h221l-165 -524
h-204l-54 205l-53 -205h-204z" />
    <glyph glyph-name="uni1E9E" unicode="&#x1e9e;" horiz-adv-x="715" 
d="M408 -10q-22 0 -47.5 2.5t-40.5 5.5l-14 2l29 194q30 -6 52 -6q70 0 70 53q0 19 -18.5 32t-54.5 13h-52v135l58 94q-9 3 -20 3q-43 0 -67.5 -31t-24.5 -87v-400h-228v391q0 147 88.5 233t235.5 86q80 0 151 -26t102 -52l31 -25l-115 -170q142 -63 142 -205
q0 -104 -75.5 -173t-201.5 -69z" />
    <glyph glyph-name="Ygrave" unicode="&#x1ef2;" horiz-adv-x="725" 
d="M286 747l-114 173h227l53 -173h-166zM249 0v240l-252 460h264l108 -241l107 241h252l-251 -460v-240h-228z" />
    <glyph glyph-name="ygrave" unicode="&#x1ef3;" horiz-adv-x="568" 
d="M373 567h-166l-114 173h227zM355 524h228l-194 -529q-32 -86 -86.5 -125.5t-141.5 -39.5q-46 0 -90 11.5t-65 22.5l-21 12l67 167q32 -26 85 -26q18 0 33 5l-185 502h239l65 -260z" />
    <glyph glyph-name="endash" unicode="&#x2013;" horiz-adv-x="570" 
d="M50 259v191h470v-191h-470z" />
    <glyph glyph-name="emdash" unicode="&#x2014;" horiz-adv-x="900" 
d="M50 259v191h800v-191h-800z" />
    <glyph glyph-name="quoteleft" unicode="&#x2018;" horiz-adv-x="338" 
d="M298 700l-31 -360h-227l91 360h167z" />
    <glyph glyph-name="quoteright" unicode="&#x2019;" horiz-adv-x="338" 
d="M40 340l31 360h227l-91 -360h-167z" />
    <glyph glyph-name="quotesinglbase" unicode="&#x201a;" horiz-adv-x="338" 
d="M40 -130l31 360h227l-91 -360h-167z" />
    <glyph glyph-name="quotedblleft" unicode="&#x201c;" horiz-adv-x="618" 
d="M298 700l-31 -360h-227l91 360h167zM578 700l-31 -360h-227l92 360h166z" />
    <glyph glyph-name="quotedblright" unicode="&#x201d;" horiz-adv-x="618" 
d="M40 340l31 360h227l-91 -360h-167zM320 340l32 360h226l-91 -360h-167z" />
    <glyph glyph-name="quotedblbase" unicode="&#x201e;" horiz-adv-x="618" 
d="M40 -130l31 360h227l-91 -360h-167zM320 -130l32 360h226l-91 -360h-167z" />
    <glyph glyph-name="dagger" unicode="&#x2020;" horiz-adv-x="425" 
d="M283 470v-210h-141v210h-102v129h102v101h141v-101h102v-129h-102z" />
    <glyph glyph-name="daggerdbl" unicode="&#x2021;" horiz-adv-x="425" 
d="M142 150v101h-102v129h102v90h-102v129h102v101h141v-101h102v-129h-102v-90h102v-129h-102v-101h-141z" />
    <glyph glyph-name="bullet" unicode="&#x2022;" horiz-adv-x="478" 
d="M238 158q-82 0 -136.5 54.5t-54.5 136.5t55.5 137.5t137.5 55.5t136.5 -54.5t54.5 -136.5t-55.5 -137.5t-137.5 -55.5z" />
    <glyph glyph-name="perthousand" unicode="&#x2030;" horiz-adv-x="1135" 
d="M203 288q-71 0 -118.5 45t-47.5 115t49 116t120 46t118.5 -45t47.5 -115t-49 -116t-120 -46zM121 0l408 600h135l-408 -600h-135zM205 411q16 0 26 10.5t10 27.5t-10 27.5t-26 10.5t-26.5 -10.5t-10.5 -27.5t10.5 -27.5t26.5 -10.5zM579 -10q-71 0 -118.5 45t-47.5 115
t49 116t120 46t118.5 -45t47.5 -115t-49 -116t-120 -46zM929 -10q-71 0 -118.5 45t-47.5 115t49 116t120 46t118.5 -45t47.5 -115t-49 -116t-120 -46zM581 113q16 0 26 10.5t10 27.5t-10 27.5t-26 10.5t-26.5 -10.5t-10.5 -27.5t10.5 -27.5t26.5 -10.5zM931 113
q16 0 26 10.5t10 27.5t-10 27.5t-26 10.5t-26.5 -10.5t-10.5 -27.5t10.5 -27.5t26.5 -10.5z" />
    <glyph glyph-name="guilsinglleft" unicode="&#x2039;" horiz-adv-x="449" 
d="M270 352l124 -146l-113 -119l-231 228v70l231 228l113 -113z" />
    <glyph glyph-name="guilsinglright" unicode="&#x203a;" horiz-adv-x="449" 
d="M179 346l-124 148l113 119l231 -228v-70l-231 -228l-113 113z" />
    <glyph glyph-name="fraction" unicode="&#x2044;" horiz-adv-x="255" 
d="M311 700h134l-476 -700h-134z" />
    <glyph glyph-name="Euro" unicode="&#x20ac;" 
d="M370 181q20 0 36.5 10.5t23.5 20.5l7 10l173 -97q-3 -5 -8 -14.5t-25 -32.5t-44.5 -41t-67.5 -32.5t-92 -14.5q-120 0 -196 65.5t-77 182.5v-7h-75v104h75v30h-75v104h75v-6q4 113 83 180t197 67q49 0 90.5 -14t66.5 -34t42.5 -39.5t24.5 -33.5l6 -14l-173 -97
q-2 5 -6.5 11.5t-22 18t-38.5 11.5q-24 0 -41 -14.5t-19 -35.5h220v-104h-221v-30h201v-104h-200q2 -21 19 -35.5t41 -14.5z" />
    <glyph glyph-name="trademark" unicode="&#x2122;" horiz-adv-x="801" 
d="M246 597v-212h-116v212h-83v103h281v-103h-82zM476 527v-142h-109v315h116l78 -140l79 140h113v-315h-112v140l-53 -96h-57z" />
    <glyph glyph-name="minus" unicode="&#x2212;" 
d="M50 259v191h525v-191h-525z" />
    <glyph glyph-name="uni2713" unicode="&#x2713;" horiz-adv-x="741" 
d="M38 309l119 119l116 -113l311 308l119 -119l-430 -427z" />
    <glyph glyph-name="G.ss01" horiz-adv-x="775" 
d="M404 -10q-159 0 -264 102t-105 254t108.5 258t267.5 106q56 0 105.5 -12t80 -29t53.5 -33.5t32 -28.5l10 -12l-155 -155l-16 16t-44 26t-70 16q-64 0 -104 -43t-40 -110t40 -110.5t104 -43.5q32 0 56.5 6t33.5 12l9 6v42h-111v150h320v-301q-4 -5 -13 -12.5t-38.5 -27.5
t-63 -35.5t-86.5 -28t-110 -12.5z" />
    <glyph glyph-name="Gbreve.ss01" horiz-adv-x="775" 
d="M411 743q-80 0 -130.5 46t-50.5 122v5h141v-18q0 -37 41 -37q39 0 39 37v18h141v-5q0 -76 -50.5 -122t-130.5 -46zM404 -10q-159 0 -264 102t-105 254t108.5 258t267.5 106q56 0 105.5 -12t80 -29t53.5 -33.5t32 -28.5l10 -12l-155 -155l-16 16t-44 26t-70 16
q-64 0 -104 -43t-40 -110t40 -110.5t104 -43.5q32 0 56.5 6t33.5 12l9 6v42h-111v150h320v-301q-4 -5 -13 -12.5t-38.5 -27.5t-63 -35.5t-86.5 -28t-110 -12.5z" />
    <glyph glyph-name="Gcircumflex.ss01" horiz-adv-x="775" 
d="M186 743l130 173h190l130 -173h-181l-47 52l-48 -52h-174zM404 -10q-159 0 -264 102t-105 254t108.5 258t267.5 106q56 0 105.5 -12t80 -29t53.5 -33.5t32 -28.5l10 -12l-155 -155l-16 16t-44 26t-70 16q-64 0 -104 -43t-40 -110t40 -110.5t104 -43.5q32 0 56.5 6
t33.5 12l9 6v42h-111v150h320v-301q-4 -5 -13 -12.5t-38.5 -27.5t-63 -35.5t-86.5 -28t-110 -12.5z" />
    <glyph glyph-name="uni0122.ss01" horiz-adv-x="775" 
d="M404 -10q-159 0 -264 102t-105 254t108.5 258t267.5 106q56 0 105.5 -12t80 -29t53.5 -33.5t32 -28.5l10 -12l-155 -155l-16 16t-44 26t-70 16q-64 0 -104 -43t-40 -110t40 -110.5t104 -43.5q32 0 56.5 6t33.5 12l9 6v42h-111v150h320v-301q-4 -5 -13 -12.5t-38.5 -27.5
t-63 -35.5t-86.5 -28t-110 -12.5zM221 -223l54 173h226l-113 -173h-167z" />
    <glyph glyph-name="Gdotaccent.ss01" horiz-adv-x="775" 
d="M410 733q-46 0 -74.5 29t-28.5 74t30 75t75 30q46 0 74.5 -28.5t28.5 -73.5q0 -46 -30 -76t-75 -30zM404 -10q-159 0 -264 102t-105 254t108.5 258t267.5 106q56 0 105.5 -12t80 -29t53.5 -33.5t32 -28.5l10 -12l-155 -155l-16 16t-44 26t-70 16q-64 0 -104 -43t-40 -110
t40 -110.5t104 -43.5q32 0 56.5 6t33.5 12l9 6v42h-111v150h320v-301q-4 -5 -13 -12.5t-38.5 -27.5t-63 -35.5t-86.5 -28t-110 -12.5z" />
    <glyph glyph-name="K.ss01" horiz-adv-x="742" 
d="M322 234l-34 -49v-185h-228v700h228v-257l172 257h275l-243 -314l262 -386h-281z" />
    <glyph glyph-name="uni0136.ss01" horiz-adv-x="742" 
d="M322 234l-34 -49v-185h-228v700h228v-257l172 257h275l-243 -314l262 -386h-281zM214 -223l54 173h226l-113 -173h-167z" />
    <glyph glyph-name="i.loclTRK" horiz-adv-x="307" 
d="M153 557q-46 0 -74.5 29t-28.5 74t30 75t75 30q46 0 74.5 -28.5t28.5 -73.5q0 -46 -30 -76t-75 -30zM45 524h217v-524h-217v524z" />
    <glyph glyph-name="a.ss01" horiz-adv-x="641" 
d="M270 -10q-100 0 -172.5 77.5t-72.5 190.5q0 114 74.5 195t177.5 81q74 0 130 -54l15 44h179v-524h-179l-16 49q-56 -59 -136 -59zM316 187q32 0 53.5 22t21.5 53t-21.5 52.5t-53.5 21.5q-33 0 -54.5 -21.5t-21.5 -52.5t21.5 -53t54.5 -22z" />
    <glyph glyph-name="aacute.ss01" horiz-adv-x="641" 
d="M238 567l54 173h226l-113 -173h-167zM270 -10q-100 0 -172.5 77.5t-72.5 190.5q0 114 74.5 195t177.5 81q74 0 130 -54l15 44h179v-524h-179l-16 49q-56 -59 -136 -59zM316 187q32 0 53.5 22t21.5 53t-21.5 52.5t-53.5 21.5q-33 0 -54.5 -21.5t-21.5 -52.5t21.5 -53
t54.5 -22z" />
    <glyph glyph-name="abreve.ss01" horiz-adv-x="641" 
d="M321 567q-80 0 -130.5 46t-50.5 122v5h141v-18q0 -37 41 -37q39 0 39 37v18h141v-5q0 -76 -50.5 -122t-130.5 -46zM270 -10q-100 0 -172.5 77.5t-72.5 190.5q0 114 74.5 195t177.5 81q74 0 130 -54l15 44h179v-524h-179l-16 49q-56 -59 -136 -59zM316 187q32 0 53.5 22
t21.5 53t-21.5 52.5t-53.5 21.5q-33 0 -54.5 -21.5t-21.5 -52.5t21.5 -53t54.5 -22z" />
    <glyph glyph-name="acircumflex.ss01" horiz-adv-x="641" 
d="M96 567l130 173h190l130 -173h-181l-47 52l-48 -52h-174zM270 -10q-100 0 -172.5 77.5t-72.5 190.5q0 114 74.5 195t177.5 81q74 0 130 -54l15 44h179v-524h-179l-16 49q-56 -59 -136 -59zM316 187q32 0 53.5 22t21.5 53t-21.5 52.5t-53.5 21.5q-33 0 -54.5 -21.5
t-21.5 -52.5t21.5 -53t54.5 -22z" />
    <glyph glyph-name="adieresis.ss01" horiz-adv-x="641" 
d="M200 557q-46 0 -74.5 29t-28.5 74t30 75t75 30q46 0 74.5 -28.5t28.5 -73.5q0 -46 -30 -76t-75 -30zM440 557q-46 0 -74.5 29t-28.5 74t30 75t75 30q46 0 74.5 -28.5t28.5 -73.5q0 -46 -30 -76t-75 -30zM270 -10q-100 0 -172.5 77.5t-72.5 190.5q0 114 74.5 195t177.5 81
q74 0 130 -54l15 44h179v-524h-179l-16 49q-56 -59 -136 -59zM316 187q32 0 53.5 22t21.5 53t-21.5 52.5t-53.5 21.5q-33 0 -54.5 -21.5t-21.5 -52.5t21.5 -53t54.5 -22z" />
    <glyph glyph-name="agrave.ss01" horiz-adv-x="641" 
d="M238 567l-114 173h227l53 -173h-166zM270 -10q-100 0 -172.5 77.5t-72.5 190.5q0 114 74.5 195t177.5 81q74 0 130 -54l15 44h179v-524h-179l-16 49q-56 -59 -136 -59zM316 187q32 0 53.5 22t21.5 53t-21.5 52.5t-53.5 21.5q-33 0 -54.5 -21.5t-21.5 -52.5t21.5 -53
t54.5 -22z" />
    <glyph glyph-name="amacron.ss01" horiz-adv-x="641" 
d="M141 601v117h360v-117h-360zM270 -10q-100 0 -172.5 77.5t-72.5 190.5q0 114 74.5 195t177.5 81q74 0 130 -54l15 44h179v-524h-179l-16 49q-56 -59 -136 -59zM316 187q32 0 53.5 22t21.5 53t-21.5 52.5t-53.5 21.5q-33 0 -54.5 -21.5t-21.5 -52.5t21.5 -53t54.5 -22z
" />
    <glyph glyph-name="aogonek.ss01" horiz-adv-x="641" 
d="M585 -40l27 -119q-33 -26 -92 -26q-61 0 -104.5 38t-43.5 103q0 51 36 87l-2 6q-56 -59 -136 -59q-100 0 -172.5 77.5t-72.5 190.5q0 114 74.5 195t177.5 81q74 0 130 -54l15 44h179v-524h-80q-14 -8 -14 -23q0 -11 9.5 -19t26.5 -8q12 0 22.5 2.5t14.5 5.5zM316 187
q32 0 53.5 22t21.5 53t-21.5 52.5t-53.5 21.5q-33 0 -54.5 -21.5t-21.5 -52.5t21.5 -53t54.5 -22z" />
    <glyph glyph-name="aring.ss01" horiz-adv-x="641" 
d="M322 547q-45 0 -73.5 27.5t-28.5 69.5t28.5 69t73.5 27q44 0 72.5 -27.5t28.5 -68.5q0 -42 -28.5 -69.5t-72.5 -27.5zM322 610q15 0 23.5 10t8.5 24q0 13 -8.5 22.5t-23.5 9.5q-16 0 -25 -9.5t-9 -22.5q0 -14 9 -24t25 -10zM270 -10q-100 0 -172.5 77.5t-72.5 190.5
q0 114 74.5 195t177.5 81q74 0 130 -54l15 44h179v-524h-179l-16 49q-56 -59 -136 -59zM316 187q32 0 53.5 22t21.5 53t-21.5 52.5t-53.5 21.5q-33 0 -54.5 -21.5t-21.5 -52.5t21.5 -53t54.5 -22z" />
    <glyph glyph-name="aringacute.ss01" horiz-adv-x="641" 
d="M422 524h179v-524h-179l-16 49q-56 -59 -136 -59q-100 0 -172.5 77.5t-72.5 190.5q0 94 53 168t133 98q-11 22 -11 47q0 43 29 70l28 99h227l-90 -128q9 -18 9 -41q0 -39 -26 -67q17 -10 30 -24zM302 604q-16 0 -25 -9.5t-9 -23.5t9 -24t25 -10q32 0 32 34q0 14 -8 23.5
t-24 9.5zM316 187q32 0 53.5 22t21.5 53t-21.5 52.5t-53.5 21.5q-33 0 -54.5 -21.5t-21.5 -52.5t21.5 -53t54.5 -22z" />
    <glyph glyph-name="atilde.ss01" horiz-adv-x="641" 
d="M388 565q-41 0 -79.5 28t-53.5 28q-10 0 -16.5 -11.5t-8.5 -22.5l-1 -11l-96 11q0 6 1 17t8 38t18.5 48t35.5 38t56 17q31 0 56.5 -14t44 -28t32.5 -14q10 0 17 11t8 22l2 11l96 -10q0 -6 -1 -17t-8 -38t-18.5 -48t-36 -38t-56.5 -17zM270 -10q-100 0 -172.5 77.5
t-72.5 190.5q0 114 74.5 195t177.5 81q74 0 130 -54l15 44h179v-524h-179l-16 49q-56 -59 -136 -59zM316 187q32 0 53.5 22t21.5 53t-21.5 52.5t-53.5 21.5q-33 0 -54.5 -21.5t-21.5 -52.5t21.5 -53t54.5 -22z" />
    <glyph glyph-name="k.ss01" horiz-adv-x="628" 
d="M283 156l-28 -32v-124h-215v700h215v-345l114 167h261l-190 -229l200 -293h-261z" />
    <glyph glyph-name="uni0137.ss01" horiz-adv-x="628" 
d="M283 156l-28 -32v-124h-215v700h215v-345l114 167h261l-190 -229l200 -293h-261zM145 -223l54 173h226l-113 -173h-167z" />
    <glyph glyph-name="uni0414.loclBGR" horiz-adv-x="790" 
d="M700 204h85v-324h-216v120h-349v-120h-215v324h85l191 496h228zM389 426l-72 -222h144z" />
    <glyph glyph-name="uni041B.loclBGR" horiz-adv-x="745" 
d="M748 0h-259l-122 401l-123 -401h-247l262 700h228z" />
    <glyph glyph-name="uni0424.loclBGR" horiz-adv-x="980" 
d="M945 354q0 -144 -97.5 -248.5t-249.5 -114.5v-81h-216v80q-154 7 -250.5 109t-96.5 247q0 144 97.5 248.5t249.5 114.5v81h216v-80q154 -7 250.5 -109t96.5 -247zM263 350q0 -61 31.5 -103.5t87.5 -50.5v308q-56 -8 -87.5 -50.5t-31.5 -103.5zM598 196q56 8 87.5 50.5
t31.5 103.5t-31.5 103.5t-87.5 50.5v-308z" />
    <glyph glyph-name="uni0416.ss01" horiz-adv-x="1117" 
d="M-21 0l262 386l-243 314h275l172 -257v257h228v-257l172 257h275l-243 -314l262 -386h-281l-151 234l-34 -49v-185h-228v185l-34 49l-151 -234h-281z" />
    <glyph glyph-name="uni041A.ss01" horiz-adv-x="742" 
d="M322 234l-34 -49v-185h-228v700h228v-257l172 257h275l-243 -314l262 -386h-281z" />
    <glyph glyph-name="uni040C.ss01" horiz-adv-x="742" 
d="M284 743l54 173h226l-113 -173h-167zM322 234l-34 -49v-185h-228v700h228v-257l172 257h275l-243 -314l262 -386h-281z" />
    <glyph glyph-name="uni0496.ss01" horiz-adv-x="1165" 
d="M1001 204h159v-324h-215v120h-87l-151 234l-34 -49v-185h-228v185l-34 49l-151 -234h-281l262 386l-243 314h275l172 -257v257h228v-257l172 257h275l-243 -314z" />
    <glyph glyph-name="uni049A.ss01" horiz-adv-x="780" 
d="M616 204h159v-324h-215v120h-87l-151 234l-34 -49v-185h-228v700h228v-257l172 257h275l-243 -314z" />
    <glyph glyph-name="uni04A0.ss01" horiz-adv-x="823" 
d="M5 508v192h363v-257l173 257h274l-243 -314l262 -386h-281l-151 235l-34 -50v-185h-228v508h-135z" />
    <glyph glyph-name="uni04C1.ss01" horiz-adv-x="1117" 
d="M559 743q-80 0 -130.5 46t-50.5 122v5h141v-18q0 -37 41 -37q39 0 39 37v18h141v-5q0 -76 -50.5 -122t-130.5 -46zM-21 0l262 386l-243 314h275l172 -257v257h228v-257l172 257h275l-243 -314l262 -386h-281l-151 234l-34 -49v-185h-228v185l-34 49l-151 -234h-281z" />
    <glyph glyph-name="uni04DC.ss01" horiz-adv-x="1117" 
d="M438 733q-46 0 -74.5 29t-28.5 74t30 75t75 30q46 0 74.5 -28.5t28.5 -73.5q0 -46 -30 -76t-75 -30zM678 733q-46 0 -74.5 29t-28.5 74t30 75t75 30q46 0 74.5 -28.5t28.5 -73.5q0 -46 -30 -76t-75 -30zM-21 0l262 386l-243 314h275l172 -257v257h228v-257l172 257h275
l-243 -314l262 -386h-281l-151 234l-34 -49v-185h-228v185l-34 49l-151 -234h-281z" />
    <glyph glyph-name="uni0432.loclBGR" horiz-adv-x="630" 
d="M507 369q98 -51 98 -159q0 -94 -85.5 -157t-200.5 -63q-137 0 -208 72.5t-71 215.5v160q0 126 73 199t196 73q119 0 192.5 -57.5t73.5 -147.5q0 -85 -68 -136zM309 531q-24 0 -39 -14.5t-15 -38.5v-41h54q22 0 36.5 13.5t14.5 33.5q0 21 -14 34t-37 13zM322 169
q31 0 49.5 16t18.5 40t-18 39.5t-49 15.5h-68v-38q0 -33 18.5 -53t48.5 -20z" />
    <glyph glyph-name="uni0433.loclBGR" horiz-adv-x="490" 
d="M262 366q0 12 -19 12q-26 0 -61 -13t-57 -25l-22 -13l-72 133q10 8 28.5 20.5t76 33t113.5 20.5q103 0 162 -49t59 -120q0 -104 -147 -160q-58 -22 -76.5 -31.5t-18.5 -17.5q0 -12 18 -12q29 0 67 15t61 30l24 15l78 -129q-4 -3 -11 -9t-30 -20.5t-48.5 -26t-65 -20.5
t-79.5 -9q-109 0 -168 47t-59 128q0 101 162 158q85 30 85 43z" />
    <glyph glyph-name="uni0434.loclBGR" horiz-adv-x="641" 
d="M422 524h179v-387q0 -141 -79.5 -224t-223.5 -83q-77 0 -146.5 21t-99.5 41l-31 21l77 155q10 -7 26.5 -16.5t63.5 -26t88 -16.5q103 0 110 72q-46 -26 -110 -26q-106 0 -178.5 69t-72.5 167q0 105 71 174t187 69q69 0 127 -41zM316 221q32 0 53.5 20t21.5 47
q0 28 -21.5 47.5t-53.5 19.5q-33 0 -54.5 -19.5t-21.5 -47.5q0 -27 21.5 -47t54.5 -20z" />
    <glyph glyph-name="uni0436.loclBGR" horiz-adv-x="965" 
d="M-13 0l182 288l-162 236h253l115 -214v390h215v-390l115 214h253l-162 -236l182 -288h-259l-129 240v-240h-215v240l-129 -240h-259z" />
    <glyph glyph-name="uni0438.loclBGR" horiz-adv-x="617" 
d="M361 524h215v-524h-192l-8 61q-57 -71 -151 -71q-84 0 -136.5 53t-52.5 139v342h215v-272q0 -64 56 -64q25 0 39.5 15.5t14.5 43.5v277z" />
    <glyph glyph-name="uni0439.loclBGR" horiz-adv-x="617" 
d="M309 567q-80 0 -130.5 46t-50.5 122v5h141v-18q0 -37 41 -37q39 0 39 37v18h141v-5q0 -76 -50.5 -122t-130.5 -46zM361 524h215v-524h-192l-8 61q-57 -71 -151 -71q-84 0 -136.5 53t-52.5 139v342h215v-272q0 -64 56 -64q25 0 39.5 15.5t14.5 43.5v277z" />
    <glyph glyph-name="uni045D.loclBGR" horiz-adv-x="617" 
d="M226 567l-114 173h227l53 -173h-166zM361 524h215v-524h-192l-8 61q-57 -71 -151 -71q-84 0 -136.5 53t-52.5 139v342h215v-272q0 -64 56 -64q25 0 39.5 15.5t14.5 43.5v277z" />
    <glyph glyph-name="uni043A.loclBGR" horiz-adv-x="629" 
d="M40 0v700h215v-390l115 214h252l-162 -236l182 -288h-258l-129 240v-240h-215z" />
    <glyph glyph-name="uni043B.loclBGR" horiz-adv-x="568" 
d="M389 524l194 -524h-239l-65 238l-66 -238h-228l194 524h210z" />
    <glyph glyph-name="uni043F.loclBGR" horiz-adv-x="616" 
d="M255 0h-215v524h192l8 -61q57 71 151 71q84 0 136.5 -53t52.5 -139v-342h-215v272q0 64 -56 64q-25 0 -39.5 -15.5t-14.5 -43.5v-277z" />
    <glyph glyph-name="uni0442.loclBGR" horiz-adv-x="921" 
d="M40 524h192l7 -62q56 72 147 72q108 0 158 -86q55 86 156 86q82 0 133.5 -53.5t51.5 -140.5v-340h-216v271q0 65 -50 65q-22 0 -35.5 -14t-13.5 -38v-284h-215v271q0 65 -51 65q-22 0 -35.5 -14t-13.5 -38v-284h-215v524z" />
    <glyph glyph-name="uni0446.loclBGR" horiz-adv-x="674" 
d="M576 192h93v-312h-203v120h-82l-8 61q-57 -71 -151 -71q-84 0 -136.5 53t-52.5 139v342h215v-272q0 -64 56 -64q25 0 39.5 15.5t14.5 43.5v277h215v-332z" />
    <glyph glyph-name="uni0448.loclBGR" horiz-adv-x="921" 
d="M881 0h-192l-7 62q-56 -72 -147 -72q-108 0 -158 86q-55 -86 -156 -86q-82 0 -133.5 53.5t-51.5 140.5v340h216v-271q0 -65 50 -65q22 0 35.5 14t13.5 38v284h215v-271q0 -65 51 -65q22 0 35.5 14t13.5 38v284h215v-524z" />
    <glyph glyph-name="uni0449.loclBGR" horiz-adv-x="1004" 
d="M881 192h93v-312h-203v120h-81l-8 61q-55 -71 -147 -71q-108 0 -158 85q-55 -85 -156 -85q-82 0 -133.5 53t-51.5 140v341h216v-271q0 -66 50 -66q22 0 35.5 14t13.5 38v285h215v-271q0 -66 51 -66q22 0 35.5 14t13.5 38v285h215v-332z" />
    <glyph glyph-name="uni044C.loclBGR" horiz-adv-x="580" 
d="M40 244v280h215v-117h66q106 0 168.5 -54.5t62.5 -145.5q0 -92 -68.5 -149.5t-187.5 -57.5q-120 0 -188 65.5t-68 178.5zM255 212q0 -23 11.5 -35.5t29.5 -12.5q17 0 29 12.5t12 35.5q0 22 -14.5 34.5t-38.5 12.5h-29v-47z" />
    <glyph glyph-name="uni044A.loclBGR" horiz-adv-x="660" 
d="M335 407h66q106 0 168.5 -54.5t62.5 -145.5q0 -92 -68.5 -149.5t-187.5 -57.5q-120 0 -188 65t-68 179v100h-115v180h330v-117zM335 212q0 -23 11.5 -35.5t29.5 -12.5q17 0 29 12.5t12 35.5q0 22 -14.5 34.5t-38.5 12.5h-29v-47z" />
    <glyph glyph-name="uni044E.loclBGR" horiz-adv-x="933" 
d="M621 534q125 0 206 -76.5t81 -192.5q0 -115 -84.5 -195t-209.5 -80q-99 0 -172.5 49.5t-100.5 131.5h-84v-171h-217v700h217v-338h91q32 77 105.5 124.5t167.5 47.5zM618 187q32 0 53.5 22t21.5 53t-21.5 52.5t-53.5 21.5q-33 0 -54 -21.5t-21 -52.5t21 -53t54 -22z" />
    <glyph glyph-name="uni0431.loclSRB" horiz-adv-x="631" 
d="M314 508q132 -12 212 -78t80 -175q0 -113 -84 -189t-210 -76q-125 0 -206 73.5t-81 183.5q0 122 116 185q-74 46 -74 125q0 66 44 104.5t113 38.5h339v-169h-254q-14 0 -14 -11t19 -12zM316 181q32 0 53.5 20.5t21.5 49.5t-21.5 50t-53.5 21q-33 0 -54.5 -21t-21.5 -50
t21.5 -49.5t54.5 -20.5z" />
    <glyph glyph-name="uni0430.ss01" horiz-adv-x="641" 
d="M270 -10q-100 0 -172.5 77.5t-72.5 190.5q0 114 74.5 195t177.5 81q74 0 130 -54l15 44h179v-524h-179l-16 49q-56 -59 -136 -59zM316 187q32 0 53.5 22t21.5 53t-21.5 52.5t-53.5 21.5q-33 0 -54.5 -21.5t-21.5 -52.5t21.5 -53t54.5 -22z" />
    <glyph glyph-name="uni0436.ss01" horiz-adv-x="961" 
d="M-12 0l200 293l-190 229h261l114 -167v169h215v-169l114 167h261l-190 -229l200 -293h-261l-96 156l-28 -32v-124h-215v124l-28 32l-96 -156h-261z" />
    <glyph glyph-name="uni043A.ss01" horiz-adv-x="628" 
d="M283 156l-28 -32v-124h-215v524h215v-169l114 167h261l-190 -229l200 -293h-261z" />
    <glyph glyph-name="uni045C.ss01" horiz-adv-x="628" 
d="M226 567l54 173h226l-113 -173h-167zM283 156l-28 -32v-124h-215v524h215v-169l114 167h261l-190 -229l200 -293h-261z" />
    <glyph glyph-name="uni0497.ss01" horiz-adv-x="977" 
d="M842 192h131v-312h-203v120h-58l-96 156l-28 -32v-124h-215v124l-28 32l-96 -156h-261l200 293l-190 229h261l114 -167v169h215v-169l114 167h261l-190 -229z" />
    <glyph glyph-name="uni049B.ss01" horiz-adv-x="655" 
d="M509 192h141v-312h-203v120h-68l-96 156l-28 -32v-124h-215v524h215v-169l114 167h261l-190 -229z" />
    <glyph glyph-name="uni04A1.ss01" horiz-adv-x="708" 
d="M5 344v180h330v-169l114 167h261l-190 -229l200 -293h-261l-96 156l-28 -32v-124h-215v344h-115z" />
    <glyph glyph-name="uni04C2.ss01" horiz-adv-x="961" 
d="M470 567q-80 0 -130.5 46t-50.5 122v5h141v-18q0 -37 41 -37q39 0 39 37v18h141v-5q0 -76 -50.5 -122t-130.5 -46zM-12 0l200 293l-190 229h261l114 -167v169h215v-169l114 167h261l-190 -229l200 -293h-261l-96 156l-28 -32v-124h-215v124l-28 32l-96 -156h-261z" />
    <glyph glyph-name="uni04D1.ss01" horiz-adv-x="641" 
d="M321 567q-80 0 -130.5 46t-50.5 122v5h141v-18q0 -37 41 -37q39 0 39 37v18h141v-5q0 -76 -50.5 -122t-130.5 -46zM270 -10q-100 0 -172.5 77.5t-72.5 190.5q0 114 74.5 195t177.5 81q74 0 130 -54l15 44h179v-524h-179l-16 49q-56 -59 -136 -59zM316 187q32 0 53.5 22
t21.5 53t-21.5 52.5t-53.5 21.5q-33 0 -54.5 -21.5t-21.5 -52.5t21.5 -53t54.5 -22z" />
    <glyph glyph-name="uni04D3.ss01" horiz-adv-x="641" 
d="M200 557q-46 0 -74.5 29t-28.5 74t30 75t75 30q46 0 74.5 -28.5t28.5 -73.5q0 -46 -30 -76t-75 -30zM440 557q-46 0 -74.5 29t-28.5 74t30 75t75 30q46 0 74.5 -28.5t28.5 -73.5q0 -46 -30 -76t-75 -30zM270 -10q-100 0 -172.5 77.5t-72.5 190.5q0 114 74.5 195t177.5 81
q74 0 130 -54l15 44h179v-524h-179l-16 49q-56 -59 -136 -59zM316 187q32 0 53.5 22t21.5 53t-21.5 52.5t-53.5 21.5q-33 0 -54.5 -21.5t-21.5 -52.5t21.5 -53t54.5 -22z" />
    <glyph glyph-name="uni04DD.ss01" horiz-adv-x="961" 
d="M349 557q-46 0 -74.5 29t-28.5 74t30 75t75 30q46 0 74.5 -28.5t28.5 -73.5q0 -46 -30 -76t-75 -30zM589 557q-46 0 -74.5 29t-28.5 74t30 75t75 30q46 0 74.5 -28.5t28.5 -73.5q0 -46 -30 -76t-75 -30zM-12 0l200 293l-190 229h261l114 -167v169h215v-169l114 167h261
l-190 -229l200 -293h-261l-96 156l-28 -32v-124h-215v124l-28 32l-96 -156h-261z" />
    <glyph glyph-name="uni0436.loclBGR.ss01" horiz-adv-x="960" 
d="M-12 0l200 293l-190 229h261l114 -167v345h215v-345l114 167h261l-190 -229l199 -293h-260l-96 156l-28 -32v-124h-215v124l-28 32l-96 -156h-261z" />
    <glyph glyph-name="uni043A.loclBGR.ss01" horiz-adv-x="628" 
d="M283 156l-28 -32v-124h-215v700h215v-345l114 167h261l-190 -229l200 -293h-261z" />
    <glyph glyph-name="Kappa.ss01" horiz-adv-x="742" 
d="M322 234l-34 -49v-185h-228v700h228v-257l172 257h275l-243 -314l262 -386h-281z" />
    <glyph glyph-name="kappa.ss01" horiz-adv-x="628" 
d="M283 156l-28 -32v-124h-215v524h215v-169l114 167h261l-190 -229l200 -293h-261z" />
    <glyph glyph-name="zero.osf" horiz-adv-x="585" 
d="M32 389q0 122 75.5 191.5t188.5 69.5t185 -66t72 -188v-145q0 -122 -75.5 -191.5t-188.5 -69.5t-185 66t-72 188v145zM242 230q0 -21 14.5 -35t36.5 -14q21 0 35.5 14.5t14.5 34.5v180q0 20 -14.5 34.5t-35.5 14.5q-22 0 -36.5 -14t-14.5 -35v-180z" />
    <glyph glyph-name="one.osf" horiz-adv-x="510" 
d="M266 640h174v-640h-209v394l-125 -75l-101 143z" />
    <glyph glyph-name="two.osf" horiz-adv-x="535" 
d="M31 0v163l221 191q45 35 45 66q0 20 -12 32.5t-36 12.5q-22 0 -42.5 -15t-30.5 -30l-9 -15l-155 85q2 7 7 17.5t25.5 38t46.5 48.5t74.5 38.5t105.5 17.5q102 0 168.5 -58.5t66.5 -143.5q0 -60 -31.5 -110t-96.5 -103l-75 -56h198v-179h-470z" />
    <glyph glyph-name="three.osf" horiz-adv-x="549" 
d="M264 -10q-61 0 -109.5 17.5t-74.5 42.5t-43 49.5t-22 42.5l-5 17l170 64q1 -3 2 -7.5t6.5 -15.5t13 -20t21.5 -16t31 -7q27 0 41.5 15t14.5 35q0 49 -60 49h-58v134h45q27 0 42.5 13.5t15.5 34.5q0 22 -13 33.5t-32 11.5q-20 0 -34.5 -13t-19.5 -26l-5 -13l-161 62
q2 6 6 17t22.5 38t42.5 47.5t69 37.5t100 17q98 0 163.5 -50t65.5 -133t-73 -139q93 -46 93 -135q0 -88 -71 -145.5t-184 -57.5z" />
    <glyph glyph-name="four.osf" horiz-adv-x="585" 
d="M281 0v114h-274v154l268 372h203v-379h100v-147h-100v-114h-197zM175 261h106v151z" />
    <glyph glyph-name="five.osf" horiz-adv-x="566" 
d="M61 640h440v-179h-255v-51q32 16 80 16q94 0 152 -56t58 -139q0 -109 -72.5 -175t-188.5 -66q-50 0 -93.5 15.5t-70 38t-46 45t-27.5 37.5l-8 16l150 91q1 -3 3.5 -7t11 -15.5t18.5 -20t26 -15.5t33 -7q27 0 42.5 14.5t15.5 37.5q0 20 -14.5 34.5t-36.5 14.5
q-17 0 -29 -6.5t-16 -12.5l-4 -6h-169v396z" />
    <glyph glyph-name="six.osf" horiz-adv-x="585" 
d="M245 640h232l-156 -204q14 3 30 3q84 0 144 -56.5t60 -144.5q0 -111 -78 -179.5t-188 -68.5q-104 0 -181.5 68t-77.5 173q0 57 19 105t60 108zM235 238q0 -25 16 -40.5t41 -15.5q26 0 42 15.5t16 40.5t-16 40.5t-42 15.5q-25 0 -41 -15.5t-16 -40.5z" />
    <glyph glyph-name="seven.osf" horiz-adv-x="505" 
d="M253 455h-236v185h471v-144l-214 -496h-227z" />
    <glyph glyph-name="eight.osf" horiz-adv-x="585" 
d="M296 650q105 0 171 -51t66 -135q0 -68 -55 -117q77 -66 77 -147q0 -90 -75.5 -150t-189.5 -60t-187 57t-73 147q0 80 80 147q-56 42 -56 119q0 84 68.5 137t173.5 53zM247 446q0 -20 13 -32t32 -12t33 12t14 32q0 19 -14 31.5t-33 12.5t-32 -12.5t-13 -31.5zM231 211
q0 -27 17 -44t44 -17t44.5 17t17.5 44t-17.5 44.5t-44.5 17.5t-44 -17.5t-17 -44.5z" />
    <glyph glyph-name="nine.osf" horiz-adv-x="585" 
d="M340 0h-232l156 204q-14 -3 -30 -3q-84 0 -144 56.5t-60 144.5q0 111 78 179.5t188 68.5q104 0 181.5 -68t77.5 -173q0 -57 -19 -105t-60 -108zM350 402q0 25 -16 40.5t-41 15.5q-26 0 -42 -15.5t-16 -40.5t16 -40.5t42 -15.5q25 0 41 15.5t16 40.5z" />
    <glyph glyph-name="zero.tf" 
d="M42 439q0 126 78 198.5t196 72.5t192.5 -69t74.5 -195v-185q0 -126 -78 -198.5t-196 -72.5t-192.5 69t-74.5 195v185zM258 240q0 -22 15.5 -37.5t39.5 -15.5q23 0 38.5 15.5t15.5 37.5v220q0 22 -15.5 37.5t-38.5 15.5q-24 0 -39.5 -15.5t-15.5 -37.5v-220z" />
    <glyph glyph-name="one.tf" 
d="M71 0v173h176v279l-104 -65l-101 143l240 170h181v-527h146v-173h-538z" />
    <glyph glyph-name="two.tf" 
d="M62 0v169l218 186q41 35 56.5 58t15.5 53q0 21 -15.5 37t-46.5 16q-24 0 -47 -18t-34 -36l-11 -18l-154 103q2 7 7.5 17.5t26.5 38t48.5 48.5t77 38.5t108.5 17.5q112 0 184 -63.5t72 -152.5q0 -79 -35 -138.5t-115 -125.5l-64 -45h209v-185h-501z" />
    <glyph glyph-name="three.tf" 
d="M299 -10q-58 0 -107 16t-77.5 38t-49 44.5t-27.5 38.5l-8 16l155 94q4 -7 12.5 -17.5t36.5 -28t59 -17.5q33 0 50.5 15.5t17.5 36.5q0 54 -87 54h-78v148h78q67 0 67 53q0 20 -17.5 32.5t-41.5 12.5t-44 -12t-28 -24l-8 -12l-151 89q2 6 7.5 15.5t26.5 34t47 43.5
t72.5 34.5t100.5 15.5q103 0 177 -54t74 -141q0 -88 -82 -152q102 -58 102 -165q0 -96 -77.5 -152t-199.5 -56z" />
    <glyph glyph-name="four.tf" 
d="M305 0v125h-288v173l281 402h210v-409h100v-166h-100v-125h-203zM193 291h112v165z" />
    <glyph glyph-name="five.tf" 
d="M75 700h470v-185h-279v-62q37 22 89 22q101 0 163 -65.5t62 -159.5q0 -116 -76 -188t-200 -72q-52 0 -98 15.5t-74.5 38t-49.5 45t-30 37.5l-8 16l156 109q4 -7 11.5 -17.5t33.5 -28.5t55 -18q32 0 49.5 16t17.5 42q0 22 -15 38t-42 16q-20 0 -35.5 -7.5t-20.5 -15.5
l-5 -8h-174v432z" />
    <glyph glyph-name="six.tf" 
d="M265 700h238l-159 -233q11 2 21 2q90 0 155 -61.5t65 -152.5q0 -118 -80.5 -191.5t-195.5 -73.5q-110 0 -189.5 72.5t-79.5 185.5q0 112 68 214zM250 250q0 -28 17 -45.5t45 -17.5t45.5 17.5t17.5 45.5t-17.5 46t-45.5 18t-45 -18t-17 -46z" />
    <glyph glyph-name="seven.tf" 
d="M344 508h-297v192h541v-150l-273 -550h-233z" />
    <glyph glyph-name="eight.tf" 
d="M316 710q110 0 177 -55t67 -147q0 -68 -58 -131q83 -72 83 -159q0 -99 -78.5 -163.5t-197.5 -64.5q-121 0 -195 61t-74 160q0 86 79 160q-55 58 -55 130q0 91 71 150t181 59zM312 438q22 0 35.5 13t13.5 36t-13.5 36t-35.5 13t-35.5 -13t-13.5 -36t13.5 -36t35.5 -13z
M312 164q27 0 45.5 18.5t18.5 45.5q0 29 -18.5 47t-45.5 18t-45.5 -18t-18.5 -47q0 -27 18.5 -45.5t45.5 -18.5z" />
    <glyph glyph-name="nine.tf" 
d="M360 0h-238l159 233q-11 -2 -21 -2q-90 0 -155 61.5t-65 152.5q0 118 80.5 191.5t195.5 73.5q110 0 189.5 -72.5t79.5 -185.5q0 -112 -68 -214zM375 450q0 28 -17 45.5t-45 17.5t-45.5 -17.5t-17.5 -45.5t17.5 -46t45.5 -18t45 18t17 46z" />
    <glyph glyph-name="zero.dnom" horiz-adv-x="407" 
d="M37 259q0 78 48 122.5t121 44.5t118 -42t45 -121v-102q0 -78 -47.5 -122.5t-120.5 -44.5t-118.5 42t-45.5 121v102zM176 151q0 -14 8 -23t19 -9q12 0 20 9t8 23v118q0 14 -8 23t-20 9q-11 0 -19 -9t-8 -23v-118z" />
    <glyph glyph-name="one.dnom" horiz-adv-x="338" 
d="M173 420h118v-420h-139v262l-69 -42l-66 90z" />
    <glyph glyph-name="two.dnom" horiz-adv-x="371" 
d="M39 0v107l128 115q22 20 30 31.5t8 25.5q0 10 -7 17.5t-19 7.5q-15 0 -28 -10t-19 -20l-5 -11l-100 67q2 4 5 10.5t16.5 23t30.5 29t47.5 23t66.5 10.5q68 0 109 -37t41 -92q0 -42 -20.5 -74.5t-65.5 -71.5l-45 -33h128v-118h-301z" />
    <glyph glyph-name="three.dnom" horiz-adv-x="372" 
d="M179 -6q-33 0 -62 10t-46 24.5t-29 28.5t-17 24l-5 10l99 55q2 -4 6 -10t19 -16.5t33 -10.5q33 0 33 29t-45 29h-42v90h40q35 0 35 28q0 12 -8 19t-19 7q-14 0 -24 -6.5t-13 -13.5l-3 -7l-96 51q1 4 4.5 10t15.5 21.5t27.5 27.5t42.5 22t58 10q64 0 106.5 -32t42.5 -85
q0 -54 -53 -92q65 -33 65 -98q0 -58 -44.5 -91.5t-120.5 -33.5z" />
    <glyph glyph-name="four.dnom" horiz-adv-x="396" 
d="M196 0v72h-179v113l168 235h136v-243h58v-105h-58v-72h-125zM125 177h71v101z" />
    <glyph glyph-name="five.dnom" horiz-adv-x="378" 
d="M46 420h284v-116h-162v-36q22 14 53 14q58 0 94 -38.5t36 -93.5q0 -71 -45 -113.5t-121 -42.5q-32 0 -60 9.5t-45 22.5t-30 26.5t-18 23.5l-5 9l100 67q2 -4 6 -10.5t18.5 -17t30.5 -10.5q17 0 27 9.5t10 24.5q0 12 -8 20.5t-21 8.5q-10 0 -18 -4.5t-11 -9.5l-3 -5h-112
v262z" />
    <glyph glyph-name="six.dnom" horiz-adv-x="390" 
d="M193 -6q-68 0 -117 44t-49 111q0 60 42 127l93 144h150l-97 -140q7 3 16 3q54 0 92.5 -35t38.5 -91q0 -73 -49 -118t-120 -45zM160 151q0 -15 9.5 -24.5t24.5 -9.5t24.5 9.5t9.5 24.5t-9.5 24.5t-24.5 9.5t-24.5 -9.5t-9.5 -24.5z" />
    <glyph glyph-name="seven.dnom" horiz-adv-x="343" 
d="M166 298h-144v122h298v-97l-145 -323h-150z" />
    <glyph glyph-name="eight.dnom" horiz-adv-x="390" 
d="M42 301q0 56 43 90.5t112 34.5q68 0 109.5 -33t41.5 -88q0 -45 -37 -80q52 -41 52 -94q0 -60 -47.5 -98.5t-122.5 -38.5t-120.5 36.5t-45.5 95.5q0 55 50 95q-35 33 -35 80zM164 291q0 -13 9 -21.5t22 -8.5t22 8.5t9 21.5t-9 21.5t-22 8.5t-22 -8.5t-9 -21.5zM157 136
q0 -16 10.5 -26.5t27.5 -10.5t27.5 10.5t10.5 26.5t-10.5 26.5t-27.5 10.5t-27.5 -10.5t-10.5 -26.5z" />
    <glyph glyph-name="nine.dnom" horiz-adv-x="390" 
d="M197 426q68 0 117 -44t49 -111q0 -60 -42 -127l-93 -144h-150l97 140q-7 -3 -16 -3q-54 0 -92.5 35t-38.5 91q0 73 49 118t120 45zM230 269q0 15 -9.5 24.5t-24.5 9.5t-24.5 -9.5t-9.5 -24.5t9.5 -24.5t24.5 -9.5t24.5 9.5t9.5 24.5z" />
    <glyph glyph-name="zero.numr" horiz-adv-x="407" 
d="M37 539q0 78 48 122.5t121 44.5t118 -42t45 -121v-102q0 -78 -47.5 -122.5t-120.5 -44.5t-118.5 42t-45.5 121v102zM176 431q0 -14 8 -23t19 -9q12 0 20 9t8 23v118q0 14 -8 23t-20 9q-11 0 -19 -9t-8 -23v-118z" />
    <glyph glyph-name="one.numr" horiz-adv-x="338" 
d="M173 700h118v-420h-139v262l-69 -42l-66 90z" />
    <glyph glyph-name="two.numr" horiz-adv-x="371" 
d="M39 280v107l128 115q22 20 30 31.5t8 25.5q0 10 -7 17.5t-19 7.5q-15 0 -28 -10t-19 -20l-5 -11l-100 67q2 4 5 10.5t16.5 23t30.5 29t47.5 23t66.5 10.5q68 0 109 -37t41 -92q0 -42 -20.5 -74.5t-65.5 -71.5l-45 -33h128v-118h-301z" />
    <glyph glyph-name="three.numr" horiz-adv-x="372" 
d="M179 274q-33 0 -62 10t-46 24t-29 28.5t-17 24.5l-5 10l99 55q2 -4 6 -10t19 -16.5t33 -10.5q33 0 33 29t-45 29h-42v90h40q35 0 35 28q0 12 -8 19t-19 7q-14 0 -24 -6.5t-13 -13.5l-3 -7l-96 51q1 4 4.5 10t15.5 21.5t27.5 27.5t42.5 22t58 10q64 0 106.5 -32t42.5 -85
q0 -54 -53 -92q65 -33 65 -98q0 -58 -44.5 -91.5t-120.5 -33.5z" />
    <glyph glyph-name="four.numr" horiz-adv-x="396" 
d="M196 280v72h-179v113l168 235h136v-243h58v-105h-58v-72h-125zM125 457h71v101z" />
    </font>
</defs>
</svg>
