<svg 
 xmlns="http://www.w3.org/2000/svg"
 xmlns:xlink="http://www.w3.org/1999/xlink"
 width="20px" height="10px">
<path fill-rule="evenodd"  fill="rgb(0, 124, 227)"
 d="M13.836,0.247 C13.529,0.551 13.531,1.43 13.839,1.346 L16.601,4.59 L1.730,4.59 C1.296,4.59 0.943,4.406 0.943,4.836 C0.943,5.265 1.296,5.613 1.730,5.613 L16.601,5.613 L13.839,8.325 C13.531,8.628 13.529,9.120 13.836,9.424 C14.143,9.728 14.642,9.729 14.950,9.427 L19.64,5.386 C19.64,5.386 19.65,5.386 19.65,5.386 C19.372,5.83 19.373,4.589 19.65,4.286 C19.65,4.285 19.64,4.285 19.64,4.285 L14.950,0.244 C14.642,0.57 14.143,0.56 13.836,0.247 Z"/>
</svg>