<svg xmlns="http://www.w3.org/2000/svg" width="100" height="100" viewBox="0 0 100 100">
  <defs>
    <style>
      .cls-1 {
        fill-rule: evenodd;
      }
    </style>
  </defs>
  <path id="1" data-name="1" class="cls-1" d="M95.793,49.443a2.654,2.654,0,0,0-1.932-.715,2.517,2.517,0,0,0-2.7,2.787v5.8H88.48V46.32l2.481,0,0.2,1.27a3.178,3.178,0,0,1,3.054-1.561A4.071,4.071,0,0,1,97,47.08ZM86.966,52.79H78.511c0.175,1.36,1.34,2.342,3.228,2.342a4.433,4.433,0,0,0,2.9-1.026l1.712,1.718a6.6,6.6,0,0,1-4.657,1.784c-3.733,0-5.953-2.342-5.953-5.864A5.46,5.46,0,0,1,81.5,45.99C85.12,45.99,87.383,48.265,86.966,52.79ZM81.585,48.4a2.921,2.921,0,0,0-3.031,2.142H84.4C84.221,49.111,83.122,48.4,81.585,48.4Zm-7.07,8.919H71.836V51.541c0-2.008-1.033-2.854-2.461-2.854A2.8,2.8,0,0,0,66.7,51.7v5.62H64.017V41.709l2.679,0v6.108a3.979,3.979,0,0,1,3.383-1.65c3.074,0,4.436,2.118,4.436,5.353v5.8ZM62.568,48.687H59.56v4.749A1.356,1.356,0,0,0,60.965,55a3.029,3.029,0,0,0,1.3-.334l0.747,2.319a5.929,5.929,0,0,1-2.218.468c-2.35.09-3.887-1.273-3.887-4.013V48.687H54.883V46.345H56.9V43.514l2.677-.29v3.121h2.988v2.342ZM36.776,43.64l2.677-.29v3.121h2.988v2.342H39.432v4.748a1.355,1.355,0,0,0,1.405,1.561,3.024,3.024,0,0,0,1.3-.334l0.747,2.319a5.929,5.929,0,0,1-2.218.468c-2.35.09-3.887-1.27-3.887-4.013V48.813H34.755V46.471h2.021V43.64ZM15.783,61.991a13,13,0,0,1,0-25.989A13,13,0,0,1,15.783,61.991Zm7.982-12.941c0-.9-2.779-1.647-6.475-1.821l0,0V45.194h4.556v-3.1H9.442v3.1H14v2.034c-3.7.174-6.486,0.922-6.486,1.82S10.3,50.7,14,50.871v6.52H17.29v-6.52C20.987,50.7,23.765,49.949,23.765,49.051Zm-6.477,1.263v0c-0.093.007-.571,0.035-1.635,0.035-0.851,0-1.447-.024-1.658-0.035v0c-3.272-.147-5.712-0.729-5.712-1.426S10.725,47.609,14,47.461v2.274c0.213,0.015.827,0.052,1.674,0.052,1.017,0,1.525-.044,1.62-0.052V47.463c3.265,0.15,5.7.731,5.7,1.427s-2.436,1.277-5.7,1.426v0Zm31.99-4.324c3.624,0,5.885,2.275,5.469,6.8H46.294c0.175,1.36,1.339,2.342,3.228,2.342a4.434,4.434,0,0,0,2.9-1.026l1.712,1.718a6.6,6.6,0,0,1-4.657,1.784c-3.735,0-5.953-2.342-5.953-5.864A5.46,5.46,0,0,1,49.278,45.99Zm2.9,4.548C52,49.111,50.906,48.4,49.368,48.4a2.921,2.921,0,0,0-3.031,2.142h5.841Z" fill="#8cabd9"/>
</svg>
