<svg xmlns="http://www.w3.org/2000/svg" width="100" height="100" viewBox="0 0 100 100">
  <defs>
    <style>
      .cls-1 {
        fill-rule: evenodd;
      }
    </style>
  </defs>
  <path id="_3" data-name="3" class="cls-1" d="M30.417,53.251A12.072,12.072,0,0,1,15.768,62.2a12.3,12.3,0,0,1-8.8-14.888,12.072,12.072,0,0,1,14.647-8.947,12.3,12.3,0,0,1,8.8,14.89h0Zm-6.4-4.723c0.241-1.635-.984-2.514-2.658-3.1L21.9,43.215l-1.327-.337L20.05,45.035c-0.349-.089-0.707-0.172-1.062-0.255l0.532-2.17-1.326-.336-0.544,2.214c-0.289-.066-0.572-0.132-0.847-0.2l0-.007-1.829-.464-0.353,1.44s0.984,0.229.963,0.243a0.716,0.716,0,0,1,.618.785L15.586,48.8a1.1,1.1,0,0,1,.138.047c-0.044-.013-0.092-0.025-0.14-0.036l-0.867,3.534a0.483,0.483,0,0,1-.608.32c0.013,0.02-.964-0.245-0.964-0.245l-0.658,1.543L14.212,54.4c0.321,0.082.636,0.167,0.946,0.247l-0.549,2.24,1.325,0.336,0.543-2.215c0.362,0.1.713,0.191,1.057,0.278L16.992,57.5l1.326,0.336L18.867,55.6c2.262,0.434,3.962.259,4.678-1.821a2.379,2.379,0,0,0-1.219-3.269,2.138,2.138,0,0,0,1.694-1.979h0Zm-3.03,4.318c-0.41,1.674-3.183.769-4.082,0.542l0.728-2.966c0.9,0.228,3.782.679,3.354,2.424h0ZM21.4,48.5c-0.374,1.522-2.682.75-3.431,0.559l0.66-2.691c0.749,0.19,3.16.543,2.77,2.132h0Zm21.745-2.275a3.763,3.763,0,0,1,1.684.352,3.4,3.4,0,0,1,1.179.954,4.041,4.041,0,0,1,.689,1.409,6.575,6.575,0,0,1,.222,1.742,7.107,7.107,0,0,1-.517,2.705,7.032,7.032,0,0,1-1.411,2.219,6.629,6.629,0,0,1-2.11,1.491,6.341,6.341,0,0,1-2.636.55c-0.122,0-.337,0-0.641-0.011a8.921,8.921,0,0,1-1.043-.092,12.124,12.124,0,0,1-1.248-.25,6.21,6.21,0,0,1-1.249-.456l3.511-15.069,3.144-.5-1.257,5.348a4.811,4.811,0,0,1,.811-0.291,3.549,3.549,0,0,1,.872-0.1h0ZM40.508,55.1a2.712,2.712,0,0,0,1.339-.353,3.545,3.545,0,0,0,1.087-.943,4.778,4.778,0,0,0,.72-1.338,4.645,4.645,0,0,0,.264-1.556,3.117,3.117,0,0,0-.325-1.554,1.265,1.265,0,0,0-1.2-.559,3.616,3.616,0,0,0-.74.1,1.813,1.813,0,0,0-.823.437l-1.338,5.678c0.081,0.015.152,0.028,0.213,0.041a1.577,1.577,0,0,0,.191.031,2.137,2.137,0,0,0,.245.012h0.364Zm9.159,2.259h-3L49.2,46.46h3.024l-2.557,10.9h0ZM51.128,45.13a1.837,1.837,0,0,1-1.137-.383,1.367,1.367,0,0,1-.508-1.172,1.989,1.989,0,0,1,.172-0.818,2.193,2.193,0,0,1,.457-0.663,2.236,2.236,0,0,1,.659-0.446,1.971,1.971,0,0,1,.8-0.165,1.839,1.839,0,0,1,1.136.382,1.38,1.38,0,0,1,.507,1.171,1.967,1.967,0,0,1-.173.82,2.15,2.15,0,0,1-.456.664,2.2,2.2,0,0,1-.659.445,1.938,1.938,0,0,1-.8.165h0Zm3.212-1.387,3.146-.5L56.714,46.46h3.369l-0.608,2.528H56.126L55.234,52.8a4.413,4.413,0,0,0-.142.891,1.659,1.659,0,0,0,.1.716,0.888,0.888,0,0,0,.436.465,1.958,1.958,0,0,0,.9.168,4.763,4.763,0,0,0,.945-0.093,6.85,6.85,0,0,0,.922-0.259l0.224,2.364a10.588,10.588,0,0,1-1.319.393,7.483,7.483,0,0,1-1.685.165,4.586,4.586,0,0,1-2.172-.423,2.443,2.443,0,0,1-1.1-1.162,3.771,3.771,0,0,1-.284-1.688,11.161,11.161,0,0,1,.284-2.011Zm5.609,9.266a7.8,7.8,0,0,1,.446-2.654,6.557,6.557,0,0,1,1.279-2.178,6,6,0,0,1,2.02-1.471,6.331,6.331,0,0,1,2.647-.539,6.855,6.855,0,0,1,1.633.177,6.5,6.5,0,0,1,1.31.466L68.25,49.216c-0.27-.112-0.552-0.211-0.842-0.3a3.6,3.6,0,0,0-1.065-.135,2.948,2.948,0,0,0-2.385,1.056,4.3,4.3,0,0,0-.883,2.841,2.965,2.965,0,0,0,.447,1.709,1.851,1.851,0,0,0,1.643.653,5.136,5.136,0,0,0,1.136-.124,5.52,5.52,0,0,0,.975-0.31L67.5,57.071a10.7,10.7,0,0,1-1.258.407,6.869,6.869,0,0,1-1.644.174,5.446,5.446,0,0,1-2.131-.373,4.051,4.051,0,0,1-1.44-1,3.814,3.814,0,0,1-.822-1.484,6.2,6.2,0,0,1-.255-1.781h0Zm12.827,4.643a4.818,4.818,0,0,1-1.867-.334,3.452,3.452,0,0,1-1.308-.932,4.05,4.05,0,0,1-.781-1.419,5.857,5.857,0,0,1-.262-1.812,8.156,8.156,0,0,1,.394-2.489,7.1,7.1,0,0,1,1.168-2.238,6.273,6.273,0,0,1,1.886-1.63,5.1,5.1,0,0,1,2.555-.631,4.837,4.837,0,0,1,1.859.332,3.475,3.475,0,0,1,1.319.933,4.068,4.068,0,0,1,.779,1.42,5.862,5.862,0,0,1,.264,1.813,8.431,8.431,0,0,1-.384,2.489,7.258,7.258,0,0,1-1.137,2.238,5.975,5.975,0,0,1-1.877,1.625,5.235,5.235,0,0,1-2.608.634h0Zm1.5-8.872a1.866,1.866,0,0,0-1.176.393,3.351,3.351,0,0,0-.851,1,4.981,4.981,0,0,0-.519,1.316,5.787,5.787,0,0,0-.171,1.358,3.364,3.364,0,0,0,.324,1.618,1.233,1.233,0,0,0,1.177.58,1.862,1.862,0,0,0,1.177-.394,3.391,3.391,0,0,0,.851-1,5,5,0,0,0,.519-1.316,5.86,5.86,0,0,0,.172-1.358,3.345,3.345,0,0,0-.326-1.617,1.234,1.234,0,0,0-1.177-.579h0Zm7.263,8.581H78.536l2.536-10.9H84.1l-2.556,10.9h0ZM83,45.13a1.833,1.833,0,0,1-1.135-.383,1.372,1.372,0,0,1-.508-1.172,1.987,1.987,0,0,1,.173-0.818,2.16,2.16,0,0,1,.457-0.663,2.232,2.232,0,0,1,.659-0.446,1.957,1.957,0,0,1,.8-0.165,1.839,1.839,0,0,1,1.137.382,1.378,1.378,0,0,1,.508,1.171,2,2,0,0,1-.174.82,2.151,2.151,0,0,1-.455.664,2.215,2.215,0,0,1-.659.445,1.945,1.945,0,0,1-.8.165h0Zm2.231,1.825c0.228-.068.483-0.15,0.76-0.239s0.588-.172.935-0.246a10.877,10.877,0,0,1,1.156-.189,12.7,12.7,0,0,1,1.45-.073,3.592,3.592,0,0,1,3.278,1.411,4.9,4.9,0,0,1,.316,3.855l-1.382,5.887H88.721L90.06,51.6c0.082-.36.146-0.707,0.193-1.047a2.535,2.535,0,0,0-.011-0.891,1.068,1.068,0,0,0-.374-0.623,1.426,1.426,0,0,0-.9-0.238,5.966,5.966,0,0,0-1.2.126L85.8,57.361H82.775l2.457-10.405h0Z" fill="#8cabd9"/>
</svg>
