<svg xmlns="http://www.w3.org/2000/svg" width="100" height="100" viewBox="0 0 100 100">
  <defs>
    <style>
      .cls-1 {
        fill-rule: evenodd;
      }
    </style>
  </defs>
  <path id="1" data-name="1" class="cls-1" d="M40.728,50.6h1.365v8.915H40.728V50.6Zm-3.647-3.776H48.21v1.365H37.082V46.826ZM43.195,50.6H44.56v8.915H43.195V50.6Zm39.081,8.925h1.378v-5.37l-1.378-1.531v6.9Zm7.254-12.7V56.78L79.785,45.949V59.526h1.374V49.569L90.909,60.4V46.826H89.529Zm-18.664-.006a6.35,6.35,0,1,0,6.35,6.35A6.356,6.356,0,0,0,70.865,46.819Zm0,11.332a4.982,4.982,0,1,1,4.981-4.982A4.986,4.986,0,0,1,70.865,58.152Zm0-5.9a0.914,0.914,0,1,0,.913.913A0.913,0.913,0,0,0,70.865,52.256Zm-8.739-1.534a3.884,3.884,0,0,0-3.865-3.893H51v12.7h1.356V48.206h5.907a2.518,2.518,0,0,1,.028,5.034l-4.818,0v6.292h1.356V54.615H58l2.6,4.911h1.578l-2.709-5.1A3.931,3.931,0,0,0,62.126,50.722ZM27.694,44.31l-18.5-3.4,9.738,24.5L32.494,48.876Zm-0.3,1.5L30.231,48.5l-7.742,1.4Zm-6.592,3.813-8.161-6.769,13.336,2.454Zm-0.584,1.2-1.328,11L11.721,43.766Zm1.23,0.581,8.572-1.553-9.83,11.981Z" fill="#8cabd9"/>
</svg>
