<svg xmlns="http://www.w3.org/2000/svg" width="100" height="100" viewBox="0 0 100 100">
  <defs>
    <style>
      .cls-1 {
        fill-rule: evenodd;
      }
    </style>
  </defs>
  <path id="_5" data-name="5" class="cls-1" d="M28.96,51.6a0.318,0.318,0,0,1-.316.315H22.551a3.059,3.059,0,0,0,2.879,2.913,2.841,2.841,0,0,0,2.506-1.3,0.3,0.3,0,0,1,.388-0.127,0.3,0.3,0,0,1,.172.223,0.317,0.317,0,0,1-.04.215,3.425,3.425,0,0,1-3.031,1.613,3.857,3.857,0,0,1,0-7.683A3.711,3.711,0,0,1,28.96,51.6m-0.652-.3a3.045,3.045,0,0,0-2.879-2.913A3.06,3.06,0,0,0,22.551,51.3h5.757Zm8.047-3.379a0.311,0.311,0,0,1,.3.309,0.3,0.3,0,0,1-.3.307H34.722v6.487a0.3,0.3,0,1,1-.608,0V48.538h-1.57a0.3,0.3,0,0,1-.3-0.307,0.314,0.314,0,0,1,.3-0.309h1.57V45.549a0.309,0.309,0,0,1,.244-0.312,0.3,0.3,0,0,1,.364.3v2.383h1.633Zm9.965,3.136v3.931a0.311,0.311,0,0,1-.3.307,0.3,0.3,0,0,1-.3-0.307V51.058a2.377,2.377,0,0,0-2.2-2.65c-1.873,0-2.682,1.658-2.574,3.355,0,0.045.02,0.242,0.02,0.263v2.95a0.31,0.31,0,0,1-.244.312,0.3,0.3,0,0,1-.364-0.3V42.076a0.3,0.3,0,1,1,.609,0v7.3a2.933,2.933,0,0,1,2.55-1.588,2.987,2.987,0,0,1,2.814,3.266M57.246,51.6a0.318,0.318,0,0,1-.316.315h-6.1a3.059,3.059,0,0,0,2.879,2.913,2.841,2.841,0,0,0,2.506-1.3,0.3,0.3,0,0,1,.388-0.127,0.3,0.3,0,0,1,.172.223,0.317,0.317,0,0,1-.04.215,3.425,3.425,0,0,1-3.031,1.613A3.854,3.854,0,1,1,57.246,51.6m-0.656-.3a2.879,2.879,0,1,0-5.757,0h5.757Zm8.135-3.091a0.3,0.3,0,0,1-.284.332c-1.79.264-2.594,1.742-2.594,3.464v2.95a0.311,0.311,0,0,1-.244.312,0.3,0.3,0,0,1-.364-0.3V48.243a0.309,0.309,0,0,1,.244-0.312,0.3,0.3,0,0,1,.364.3V49.6a3.245,3.245,0,0,1,2.55-1.678,0.312,0.312,0,0,1,.328.284M74.733,51.6a0.318,0.318,0,0,1-.316.315H68.324A3.059,3.059,0,0,0,71.2,54.83a2.841,2.841,0,0,0,2.506-1.3A0.3,0.3,0,0,1,74.1,53.4a0.3,0.3,0,0,1,.172.223,0.316,0.316,0,0,1-.04.215A3.424,3.424,0,0,1,71.2,55.455,3.855,3.855,0,1,1,74.733,51.6m-0.652-.3a2.879,2.879,0,1,0-5.757,0h5.757ZM84.57,48.287v6.737a0.311,0.311,0,0,1-.3.308,0.3,0.3,0,0,1-.3-0.308v-1.28a2.853,2.853,0,0,1-2.53,1.743c-1.809,0-2.814-1.588-2.814-3.266v-3.95a0.3,0.3,0,1,1,.609,0v3.95a2.377,2.377,0,0,0,2.2,2.65c2.05,0,2.53-1.94,2.53-4.084V48.271a0.309,0.309,0,0,1,.392-0.3,0.331,0.331,0,0,1,.22.312m15.414,2.747v3.95a0.311,0.311,0,0,1-.3.308,0.3,0.3,0,0,1-.3-0.308v-3.95a2.355,2.355,0,0,0-2.2-2.626c-1.834,0-2.53,1.986-2.53,3.529v3.047a0.311,0.311,0,0,1-.3.308,0.3,0.3,0,0,1-.3-0.308v-3.95a2.355,2.355,0,0,0-2.2-2.626c-1.854,0-2.619,1.479-2.55,3.444a0.391,0.391,0,0,1,0,.153v2.971a0.31,0.31,0,0,1-.248.312,0.3,0.3,0,0,1-.364-0.3V48.243a0.309,0.309,0,0,1,.244-0.312,0.3,0.3,0,0,1,.364.3v1.126a2.916,2.916,0,0,1,2.55-1.568,2.713,2.713,0,0,1,2.594,1.965,3.017,3.017,0,0,1,2.746-1.965,2.966,2.966,0,0,1,2.815,3.242M8.38,36.167h0L0.052,50.026l8.327-3.8V36.167m0,10.061h0l-8.327,3.8L8.38,54.961V46.227m0-10.061h0V46.227l8.324,3.8L8.38,36.167m0,10.061h0v8.733L16.7,50.026l-8.324-3.8M0.052,51.609h0L8.38,63.376V56.543L0.052,51.609m16.658,0L8.38,56.543v6.833l8.331-11.767m0,0h0" fill="#8cabd9"/>
</svg>
