<svg xmlns="http://www.w3.org/2000/svg" width="100" height="100" viewBox="0 0 100 100">
  <defs>
    <style>
      .cls-1 {
        fill-rule: evenodd;
      }
    </style>
  </defs>
  <path id="1" data-name="1" class="cls-1" d="M15.609,45.29H13.84v3.576h2.783v1.5H13.84V53.94H15.7c0.477,0,3.914.055,3.909-4.161S16.271,45.29,15.609,45.29Zm-0.3-8.366a12.7,12.7,0,0,0,0,25.392A12.7,12.7,0,0,0,15.312,36.924ZM15.8,56.476H11.315V50.364H9.734v-1.5h1.58V42.754h3.848c0.91,0,6.94-.194,6.94,6.976,0,7.288-6.3,6.746-6.3,6.746h0ZM94.94,54.961V50.4a1.615,1.615,0,0,0-.349-1.115,1.229,1.229,0,0,0-.974-0.4A1.328,1.328,0,0,0,92.6,49.3a1.665,1.665,0,0,0-.395,1.171v4.492H90.145V47.193h1.966v1.37H92.2a2.194,2.194,0,0,1,.831-1.074,2.423,2.423,0,0,1,1.407-.4,2.387,2.387,0,0,1,1.865.781,3.092,3.092,0,0,1,.7,2.142v4.947H94.94ZM87.471,46.19a1.086,1.086,0,0,1-.785-0.321,1.065,1.065,0,0,1,0-1.54,1.132,1.132,0,0,1,1.574,0,1.065,1.065,0,0,1,0,1.54A1.091,1.091,0,0,1,87.471,46.19Zm-4.1,8.419a4.027,4.027,0,0,1-3.9,0A3.349,3.349,0,0,1,78.21,53.2a5.18,5.18,0,0,1,0-4.2,3.344,3.344,0,0,1,1.267-1.406,4.027,4.027,0,0,1,3.9,0A3.345,3.345,0,0,1,84.642,49a5.181,5.181,0,0,1,0,4.2A3.35,3.35,0,0,1,83.376,54.609ZM82.6,49.4a1.27,1.27,0,0,0-1.16-.67,1.287,1.287,0,0,0-1.177.67,3.776,3.776,0,0,0,0,3.372,1.286,1.286,0,0,0,1.177.668,1.269,1.269,0,0,0,1.16-.668A3.795,3.795,0,0,0,82.6,49.4Zm-9.157,4a1.27,1.27,0,0,0,.9-0.337,1.569,1.569,0,0,0,.455-0.959h1.947a3.3,3.3,0,0,1-.463,1.569,2.846,2.846,0,0,1-1.141,1.054A4.076,4.076,0,0,1,71.45,54.6,3.327,3.327,0,0,1,70.19,53.19a5.175,5.175,0,0,1,0-4.18A3.365,3.365,0,0,1,71.457,47.6a3.614,3.614,0,0,1,1.947-.508,3.752,3.752,0,0,1,1.707.369A2.873,2.873,0,0,1,76.27,48.5a3.156,3.156,0,0,1,.467,1.568H74.79a1.62,1.62,0,0,0-.433-0.938,1.232,1.232,0,0,0-.918-0.356,1.356,1.356,0,0,0-1.153.6,2.869,2.869,0,0,0-.436,1.7,2.94,2.94,0,0,0,.434,1.722A1.35,1.35,0,0,0,73.438,53.408Zm-9.8-1.776A1.959,1.959,0,0,0,64.094,53a1.579,1.579,0,0,0,1.23.5,1.7,1.7,0,0,0,.9-0.227,1.227,1.227,0,0,0,.533-0.673l1.908,0.132a2.736,2.736,0,0,1-1.1,1.73,3.743,3.743,0,0,1-2.267.648,3.813,3.813,0,0,1-1.971-.488,3.242,3.242,0,0,1-1.274-1.386,5.245,5.245,0,0,1,0-4.231A3.38,3.38,0,0,1,63.3,47.6a3.528,3.528,0,0,1,1.906-.506,3.62,3.62,0,0,1,1.775.435,3.111,3.111,0,0,1,1.257,1.312,4.661,4.661,0,0,1,.465,2.2v0.592H63.639v0Zm3.124-1.34a1.623,1.623,0,0,0-.426-1.142,1.433,1.433,0,0,0-1.095-.45,1.486,1.486,0,0,0-1.129.465,1.713,1.713,0,0,0-.475,1.127h3.124ZM58.5,57.651a4.952,4.952,0,0,1-1.884.334,3.972,3.972,0,0,1-2.359-.617,2.449,2.449,0,0,1-1.041-1.5l1.909-.268a1.33,1.33,0,0,0,.492.574,2.119,2.119,0,0,0,2.16-.073,1.292,1.292,0,0,0,.438-1.1V53.585H58.127a2.181,2.181,0,0,1-.717.872,2.263,2.263,0,0,1-1.4.392,2.908,2.908,0,0,1-1.523-.41,2.832,2.832,0,0,1-1.09-1.249,4.9,4.9,0,0,1-.4-2.129,5.174,5.174,0,0,1,.414-2.206,3.084,3.084,0,0,1,1.1-1.322,2.71,2.71,0,0,1,1.5-.443,2.242,2.242,0,0,1,1.046.22,2.124,2.124,0,0,1,.683.543,2.746,2.746,0,0,1,.4.642H58.2v-1.3h2.049v7.844a2.732,2.732,0,0,1-.467,1.624A2.853,2.853,0,0,1,58.5,57.651Zm-0.683-8.234a1.4,1.4,0,0,0-2.323.015,2.966,2.966,0,0,0-.4,1.618,2.779,2.779,0,0,0,.4,1.593,1.445,1.445,0,0,0,2.318.01,2.733,2.733,0,0,0,.409-1.6A2.909,2.909,0,0,0,57.816,49.417ZM50.2,54.609a4.028,4.028,0,0,1-3.9,0A3.35,3.35,0,0,1,45.038,53.2a5.179,5.179,0,0,1,0-4.2A3.345,3.345,0,0,1,46.3,47.594a4.028,4.028,0,0,1,3.9,0A3.346,3.346,0,0,1,51.471,49a5.179,5.179,0,0,1,0,4.2A3.35,3.35,0,0,1,50.2,54.609ZM49.425,49.4a1.27,1.27,0,0,0-1.16-.67,1.287,1.287,0,0,0-1.177.67,3.777,3.777,0,0,0,0,3.372,1.286,1.286,0,0,0,1.177.668,1.269,1.269,0,0,0,1.16-.668A3.8,3.8,0,0,0,49.425,49.4Zm-8.3,4.934a5.14,5.14,0,0,1-2.6.623H35.011V44.6h3.546a5.111,5.111,0,0,1,2.579.619A4.13,4.13,0,0,1,42.8,47a6.91,6.91,0,0,1,0,5.553A4.142,4.142,0,0,1,41.127,54.338Zm-0.562-7.075a2.743,2.743,0,0,0-2.119-.783H37.109v6.6h1.332a2.741,2.741,0,0,0,2.124-.788,3.663,3.663,0,0,0,.724-2.524A3.624,3.624,0,0,0,40.565,47.263Zm47.933,7.7H86.435V47.193H88.5v7.768Z" fill="#8cabd9"/>
</svg>
