<?xml version="1.0" encoding="utf-8"?>
<svg viewBox="0 0 145 62" xmlns="http://www.w3.org/2000/svg">
  <defs>
    <style>
      .cls-1 {
        fill: #007be4;
      }

      .cls-1, .cls-2 {
        fill-rule: evenodd;
      }

      .cls-2 {
        fill: #0b274a;
      }
    </style>
  </defs>
  <path id="Фигура_753_1" data-name="Фигура 753 1" class="cls-1" d="M64.594,28.178a10.278,10.278,0,0,0-1.716,1,11,11,0,0,0-1.9,2.067,0.953,0.953,0,0,1-1.149.45c-1.168-.227-2.33-0.486-3.492-0.738a3.463,3.463,0,0,1-1.635-.437,3.657,3.657,0,0,1-.24-1.616,22.229,22.229,0,0,0-4.45-10.386A20.878,20.878,0,0,0,39.6,11.4a20.461,20.461,0,0,0-4.192-.816v5.023a6.818,6.818,0,0,1,3.858,1.483,5.01,5.01,0,0,1,1.829,4,5.233,5.233,0,0,1-.777,2.809,5.575,5.575,0,0,1-2.179,2,5.692,5.692,0,0,1,2.865,2.049,5.331,5.331,0,0,1,.735,1.434c-1.59-.121-3.2-0.209-4.829-0.274a2.864,2.864,0,0,0-.418-0.492,3.4,3.4,0,0,0-2.408-.823h-4.6v1.223c-1.568.023-3.126,0.063-4.664,0.138V15.54h3.712V11.187a21.161,21.161,0,0,0-15,14.6,30.186,30.186,0,0,0-.745,4.178,0.88,0.88,0,0,1-.836.976c-1.6.26-3.173,0.66-4.759,1a1.034,1.034,0,0,1-1.34-.586A6.616,6.616,0,0,0,2,28.233a7.027,7.027,0,0,0,6.028-5A7.449,7.449,0,0,0,6.26,15.608c3.017,0.574,5.433-.069,7.361-2.264s2.059-4.711,1.335-7.573c2.487,1.737,5,2.2,7.648.925A7.1,7.1,0,0,0,26.783.129C28.245,2.908,30.4,4.366,33.3,4.4A7.064,7.064,0,0,0,39.864.334C40.5,6.547,47.039,9.4,51.883,5.688a7.216,7.216,0,0,0,1.268,7.606c1.867,2.227,4.331,2.851,7.415,2.278-2.1,2.408-2.706,4.928-1.77,7.689A7.052,7.052,0,0,0,64.594,28.178ZM32.464,10.537c-0.328.02-.655,0.054-0.983,0.091V15.54h0.983v-5ZM29.485,24.385h3.9a3.194,3.194,0,0,0,2.225-.745,2.375,2.375,0,0,0,.823-1.831,2.407,2.407,0,0,0-.823-1.863,3.194,3.194,0,0,0-2.225-.744h-3.9v5.183Zm113.572,3.34a5.5,5.5,0,0,1-3.91,1.485,5.415,5.415,0,0,1-3.853-1.428,4.705,4.705,0,0,1-1.526-3.589,4.8,4.8,0,0,1,1.583-3.645,5.5,5.5,0,0,1,3.91-1.485,5.418,5.418,0,0,1,3.853,1.428,4.71,4.71,0,0,1,1.526,3.589A4.8,4.8,0,0,1,143.057,27.726Zm-2.422-4.989a2.073,2.073,0,0,0-2.862,0,2,2,0,0,0,0,2.8,2.073,2.073,0,0,0,2.862,0A2,2,0,0,0,140.635,22.737ZM130.621,26.11a4.587,4.587,0,0,0,.639-0.047c0.222-.031.391-0.059,0.5-0.084l0.191-.056,0.381,2.819a6.732,6.732,0,0,1-2.67.47,3.521,3.521,0,0,1-2.518-.864,3.173,3.173,0,0,1-.915-2.424V21.976h-1.717V19.251h1.717V17h3.433v2.255h2.67v2.725h-2.67v3.1A0.88,0.88,0,0,0,130.621,26.11Zm-11.979,3.1a3.643,3.643,0,0,1-2.518-.921v3.739h-3.433V19.251h2.861l0.267,1.184a3.654,3.654,0,0,1,2.938-1.372,4.439,4.439,0,0,1,3.328,1.447,4.969,4.969,0,0,1,1.383,3.57,5.07,5.07,0,0,1-1.431,3.627A4.529,4.529,0,0,1,118.642,29.21Zm0.82-6.474a2.072,2.072,0,0,0-2.861,0,2,2,0,0,0,0,2.8,2.072,2.072,0,0,0,2.861,0A2,2,0,0,0,119.462,22.737Zm-13.456,8.728a4.214,4.214,0,0,1-2.566.752,6.218,6.218,0,0,1-1.526-.188,4.945,4.945,0,0,1-1.087-.376l-0.343-.188,1.068-2.631a2.47,2.47,0,0,0,1.526.432,1.753,1.753,0,0,0,.648-0.113,1.223,1.223,0,0,0,.382-0.207l0.114-.113-3.738-9.583H104.3l1.754,5.656,1.774-5.656h3.624l-3.814,9.865A5.074,5.074,0,0,1,106.006,31.465Zm-7.258-8.926q-2.518,0-2.518,2.593v3.89H92.8V19.251h3.052L96.021,21a3.673,3.673,0,0,1,3.51-1.936l-0.057,3.476H98.748ZM85.625,25.922a3.654,3.654,0,0,0,1.564-.338,3.261,3.261,0,0,0,1.03-.676l0.286-.338,2.48,2.161a2.93,2.93,0,0,1-.191.263,6.475,6.475,0,0,1-.61.6,5.663,5.663,0,0,1-1.049.752,7.26,7.26,0,0,1-1.535.592,7.436,7.436,0,0,1-2.031.273,6.915,6.915,0,0,1-5.007-1.926A6.381,6.381,0,0,1,78.568,22.5a6.474,6.474,0,0,1,2.05-4.839,7,7,0,0,1,5.064-1.982,7.809,7.809,0,0,1,1.946.235,6.035,6.035,0,0,1,1.488.564,9.33,9.33,0,0,1,.992.648,3.22,3.22,0,0,1,.591.545l0.191,0.244-2.613,2.217a3.341,3.341,0,0,0-.286-0.329,3.366,3.366,0,0,0-.877-0.517,3.484,3.484,0,0,0-1.488-.319,3.3,3.3,0,0,0-2.461,1,3.649,3.649,0,0,0,0,4.961A3.294,3.294,0,0,0,85.625,25.922Z"/>
  <path id="Фигура_753_1_копия" data-name="Фигура 753 1 копия" class="cls-2" d="M99.454,40.271a4.71,4.71,0,0,1,1.526,3.589A4.8,4.8,0,0,1,99.4,47.506a5.5,5.5,0,0,1-3.91,1.484,5.416,5.416,0,0,1-3.853-1.428,4.707,4.707,0,0,1-1.526-3.589,4.8,4.8,0,0,1,1.583-3.646,5.5,5.5,0,0,1,3.91-1.484A5.418,5.418,0,0,1,99.454,40.271Zm-5.341,2.246a2,2,0,0,0,0,2.8,2.072,2.072,0,0,0,2.861,0,2,2,0,0,0,0-2.8A2.072,2.072,0,0,0,94.113,42.517ZM80.561,45.072a6.525,6.525,0,0,0,1.173.639,4.044,4.044,0,0,0,1.7.4,1.362,1.362,0,0,0,.82-0.235,0.706,0.706,0,0,0,.324-0.592,1.18,1.18,0,0,0-.572-0.9,11.778,11.778,0,0,0-2.213-1.127q-3.033-1.3-3.033-3.89a3.479,3.479,0,0,1,1.335-2.809,5.314,5.314,0,0,1,3.491-1.1,6.954,6.954,0,0,1,2.5.451,5.806,5.806,0,0,1,1.7.9L88.3,37.246,86.2,39.5a3.526,3.526,0,0,0-.343-0.329,4.538,4.538,0,0,0-.9-0.517,3.073,3.073,0,0,0-1.335-.319,1.431,1.431,0,0,0-.839.216,0.639,0.639,0,0,0-.305.536,0.968,0.968,0,0,0,.42.78,8.624,8.624,0,0,0,1.7.874q3.7,1.578,3.7,4.153a3.662,3.662,0,0,1-1.4,2.922,5.437,5.437,0,0,1-3.614,1.174,8,8,0,0,1-1.86-.216,6.827,6.827,0,0,1-1.5-.517,10.929,10.929,0,0,1-1.049-.6,4.539,4.539,0,0,1-.668-0.507L78,46.923l2.1-2.255A5.96,5.96,0,0,0,80.561,45.072Zm25.988,3.73h-3.471V35.649h3.471V48.8Zm7.5-9.959a4.969,4.969,0,0,1,3.548,1.372,4.351,4.351,0,0,1,1.45,3.27,5,5,0,0,1-.038.62,3.128,3.128,0,0,1-.077.432l-0.038.132h-6.733a1.76,1.76,0,0,0,.734,1.024,2.389,2.389,0,0,0,1.383.385,3.348,3.348,0,0,0,1.183-.207,2.541,2.541,0,0,0,.782-0.413l0.229-.225,2,1.973c-0.039.05-.093,0.116-0.163,0.2a3.805,3.805,0,0,1-.505.423,5.73,5.73,0,0,1-.868.536,6.263,6.263,0,0,1-1.249.432,6.767,6.767,0,0,1-1.66.2,5.417,5.417,0,0,1-3.853-1.428,4.709,4.709,0,0,1-1.526-3.589,4.843,4.843,0,0,1,1.555-3.646A5.35,5.35,0,0,1,114.045,38.843Zm1.717,3.852a1.684,1.684,0,0,0-.62-1,1.774,1.774,0,0,0-1.154-.413,1.922,1.922,0,0,0-1.2.395,1.779,1.779,0,0,0-.667,1.015h3.643Zm3.471-3.664h4.006l1.736,2.518,1.793-2.518h3.814l-3.624,4.7,3.815,5.074h-4l-1.927-2.743L122.857,48.8h-3.814l3.814-4.942Z" style="fill: rgb(255, 255, 255);"/>
  <path id="Фигура_755_1" data-name="Фигура 755 1" class="cls-2" d="M60.872,35.664c-0.04.425-.068,0.63-0.078,0.836-0.073,1.452-.07,1.446-1.456,1.145-1.628-.355-3.26-0.69-4.885-1.056a1.4,1.4,0,0,1-.6-0.348q-2.274-2.1-4.528-4.228a3.225,3.225,0,0,1-.3-0.456,125.253,125.253,0,0,1,18.095,3.771Zm-9.569.282c-0.7-.068-1.406-0.114-2.1-0.206-1.093-.145-2.178-0.352-3.273-0.478-1.245-.142-2.5-0.184-3.744-0.355a1.423,1.423,0,0,1-.974-0.622C40.676,33.171,40.26,32,39.73,30.674c1.934,0.148,3.691.366,5.452,0.393,1.634,0.026,2.611.983,3.6,2.065,0.819,0.9,1.724,1.713,2.59,2.566ZM33.533,34.557c0-1.3-.027-2.46.032-3.614a0.869,0.869,0,0,1,.679-0.425c1.49,0.024,2.98.11,4.537,0.179l1.485,3.86H33.533Zm-1.361-.109c-1.867.132-3.739,0.207-5.836,0.309a16.1,16.1,0,0,0,.943-2.479c0.3-1.548,1.367-1.783,2.652-1.773,0.659,0,1.32.019,1.978-.014a0.6,0.6,0,0,1,.726.742c-0.03.868,0.016,1.739-.036,2.606A0.8,0.8,0,0,1,32.173,34.448Zm-7.843.427c-2.226.244-4.458,0.444-6.685,0.676-0.811.085-1.617,0.22-2.458,0.336,1.483-1.547,2.83-3.035,4.283-4.413a2.806,2.806,0,0,1,1.581-.406c1.908-.16,3.82-0.267,5.879-0.4-0.581,1.368-1.072,2.624-1.662,3.831A1.346,1.346,0,0,1,24.329,34.875ZM10.816,36.742c-1.721.328-3.429,0.727-5.308,1.132-0.057-.72-0.129-1.281-0.139-1.843a0.694,0.694,0,0,0-.836-0.784A44.3,44.3,0,0,1,.01,35.12a93.029,93.029,0,0,1,17.859-3.431c-1.364,1.263-2.771,2.484-4.077,3.8A5.134,5.134,0,0,1,10.816,36.742Zm-0.867,2.2L6.556,42.093l-0.714-2.61,3.953-.82Zm2.184-.331a3.479,3.479,0,0,1,1.841-.714c1.768-.283,3.553-0.466,5.331-0.683,1.333-.162,2.666-0.325,4-0.467a6.392,6.392,0,0,1,.985.056c-0.949,2.21-1.823,4.278-2.736,6.328a0.981,0.981,0,0,1-.635.5c-2.683.4-5.376,0.72-8.055,1.134-1.582.245-3.144,0.617-4.827,0.954l-0.97-2.228,0.3,0.24C8.947,42.01,10.483,40.251,12.133,38.607Zm4.6,15.534a1.425,1.425,0,0,1-1.934.325,27.439,27.439,0,0,1-5.926-7.216A101.536,101.536,0,0,1,20.559,45.5C19.225,48.527,18,51.341,16.736,54.141Zm15.533,1.368v5.766a27.094,27.094,0,0,1-14.9-4.815C19.106,55.761,30.606,55.082,32.269,55.509ZM20.054,50.153c0.534-1.351,1.116-2.685,1.608-4.051a1.482,1.482,0,0,1,1.519-.96c3.021-.168,6.045-0.288,9.148-0.429v8.631l-13.83.8C19.049,52.731,19.545,51.44,20.054,50.153Zm11.7-7.2c-1.8.1-3.6,0.1-5.4,0.178-1.093.047-2.183,0.173-3.532,0.285,0.618-1.57,1.133-2.885,1.654-4.2,0.241-.606.531-1.2,0.731-1.814a1.3,1.3,0,0,1,1.388-.942c1.741-.021,3.482-0.025,5.222-0.064a0.652,0.652,0,0,1,.8.788c-0.072,1.731-.1,3.465-0.209,5.193A0.9,0.9,0,0,1,31.755,42.955Zm2.6-6.552c2.06,0.1,4.121.158,6.18,0.262a0.86,0.86,0,0,1,.651.321c0.856,2.074,1.671,4.165,2.536,6.353-0.8,0-1.459.024-2.111,0-2.363-.1-4.724-0.248-7.088-0.325a0.745,0.745,0,0,1-.894-0.89q0.03-2.475-.053-4.951A0.618,0.618,0,0,1,34.353,36.4Zm0,8.383c1.222,0.048,2.448,0,3.668.079,2,0.123,4,.293,5.992.491a1.007,1.007,0,0,1,.686.539c1.13,2.839,2.223,5.693,3.32,8.545-4.491-.276-8.921-0.551-13.351-0.82a0.727,0.727,0,0,1-.85-0.785q-0.053-3.647-.164-7.293C33.642,45.022,33.776,44.763,34.356,44.786Zm13.673,9.685a0.044,0.044,0,0,0,0-.013l-0.007-.017h0.017A0.3,0.3,0,0,0,48.029,54.471Zm-13.515.954c2.662,0.118,5.325.263,7.982,0.465,1.966,0.15,3.925.391,5.888,0.591L48.5,56.756c-1.268.685-2.511,1.421-3.808,2.045a29.181,29.181,0,0,1-8.3,2.384,8.058,8.058,0,0,1-1.979.036,0.834,0.834,0,0,1-.528-0.61c-0.05-1.532-.058-3.068-0.006-4.6A0.884,0.884,0,0,1,34.514,55.425ZM46.2,45.454l11.115,1.738a26.649,26.649,0,0,1-6.384,7.635,0.643,0.643,0,0,1-1.135-.261q-1.855-4.381-3.7-8.764Zm5.295-1c-1.971-.305-3.956-0.522-5.929-0.812a0.9,0.9,0,0,1-.589-0.453c-0.841-1.927-1.651-3.868-2.456-5.811a2.587,2.587,0,0,1-.042-0.675c2.1,0.224,4.084.407,6.063,0.657,1.478,0.186,2.954.413,4.412,0.714a3.366,3.366,0,0,1,1.537.754c1.382,1.268,2.665,2.644,4.045,3.914a1.116,1.116,0,0,1,.322,1.451c-0.693,1.689-.68,1.637-2.536,1.172C54.733,44.973,53.109,44.709,51.491,44.459ZM56.926,38.8l3.389,0.716L59.7,41.771l-2.867-2.7Z" style="fill: rgb(255, 255, 255);"/>
</svg>