<?xml version="1.0" encoding="UTF-8"?>
<!DOCTYPE svg PUBLIC "-//W3C//DTD SVG 1.1//EN" "http://www.w3.org/Graphics/SVG/1.1/DTD/svg11.dtd">
<!-- Creator: CorelDRAW 2019 (64-Bit) -->
<svg xmlns="http://www.w3.org/2000/svg" xml:space="preserve" width="452px" height="198px" version="1.1" shape-rendering="geometricPrecision" text-rendering="geometricPrecision" image-rendering="optimizeQuality" fill-rule="evenodd" clip-rule="evenodd"
viewBox="0 0 399 174.52"
 xmlns:xlink="http://www.w3.org/1999/xlink"
 xmlns:xodm="http://www.corel.com/coreldraw/odm/2003">
 <defs>
   <clipPath id="id0">
    <path d="M90.93 0c49.73,0 90.04,40.32 90.04,90.05 0,2.74 -0.13,5.46 -0.37,8.14 -24.56,-9.77 -54.21,-15.48 -86.14,-15.48 -34.92,0 -67.11,6.84 -92.91,18.34 -0.44,-3.61 -0.67,-7.28 -0.67,-11 0,-49.73 40.32,-90.05 90.05,-90.05z"/>
   </clipPath>
 </defs>
 <g id="Слой_x0020_1">
  <metadata id="CorelCorpID_0Corel-Layer"/>
  <path fill="#0B274A" d="M167.9 103.84c-0.1,1.18 -0.19,1.74 -0.22,2.32 -0.2,4.01 -0.19,3.99 -4.01,3.16 -4.5,-0.98 -8.99,-1.91 -13.48,-2.92 -0.61,-0.17 -1.19,-0.5 -1.65,-0.96 -4.18,-3.87 -8.35,-7.75 -12.5,-11.67 -0.3,-0.39 -0.59,-0.8 -0.82,-1.25 16.87,2.23 33.55,5.71 49.92,10.4l-17.24 0.92zm-26.4 0.8c-1.92,-0.19 -3.88,-0.32 -5.79,-0.58 -3.02,-0.4 -6,-0.98 -9.02,-1.32 -3.44,-0.39 -6.9,-0.5 -10.33,-0.98 -1.11,-0.16 -2.09,-0.79 -2.69,-1.71 -1.48,-3.07 -2.63,-6.31 -4.1,-9.97 5.33,0.42 10.19,1.02 15.05,1.09 4.51,0.07 7.2,2.72 9.93,5.69 2.25,2.49 4.75,4.73 7.14,7.08l-0.19 0.7zm-49.03 -3.84c0,-3.6 -0.07,-6.78 0.09,-9.97 0.4,-0.68 1.11,-1.11 1.88,-1.18 4.11,0.07 8.22,0.32 12.52,0.5l4.09 10.65 -18.58 0zm-3.74 -0.3c-5.15,0.36 -10.32,0.57 -16.1,0.84 1.05,-2.19 1.91,-4.48 2.6,-6.84 0.82,-4.26 3.77,-4.91 7.32,-4.88 1.81,0 3.63,0.06 5.46,-0.04 1.22,-0.32 2.34,0.82 2,2.05 -0.09,2.39 0.04,4.8 -0.11,7.19 -0.08,0.71 -0.53,1.35 -1.17,1.68zm-21.64 1.17c-6.14,0.68 -12.3,1.22 -18.44,1.87 -2.24,0.23 -4.46,0.61 -6.78,0.92 4.08,-4.26 7.8,-8.36 11.81,-12.17 1.31,-0.79 2.83,-1.19 4.37,-1.12 5.26,-0.44 10.53,-0.73 16.21,-1.11 -1.6,3.78 -2.95,7.25 -4.59,10.58 -0.69,0.66 -1.62,1.03 -2.58,1.03zm-37.28 5.15c-4.75,0.9 -9.47,2.01 -14.64,3.13 -0.15,-1.98 -0.36,-3.54 -0.39,-5.09 0.21,-1.33 -0.99,-2.45 -2.31,-2.16 -4.15,0.1 -8.32,-0.02 -12.47,-0.35 16.08,-4.76 32.57,-7.93 49.27,-9.47 -3.76,3.49 -7.64,6.86 -11.25,10.49 -2.3,2 -5.17,3.22 -8.21,3.45zm-2.39 6.08l-9.36 8.69 -1.97 -7.2 10.91 -2.27 0.42 0.78zm6.03 -0.92c1.47,-1.14 3.22,-1.81 5.07,-1.97 4.87,-0.78 9.8,-1.28 14.71,-1.88 3.67,-0.45 7.35,-0.89 11.04,-1.3 0.91,-0.01 1.81,0.04 2.72,0.16 -2.63,6.09 -5.03,11.81 -7.56,17.46 -0.36,0.69 -0.99,1.19 -1.75,1.38 -7.4,1.1 -14.83,1.98 -22.22,3.13 -4.37,0.68 -8.68,1.7 -13.32,2.63l-2.67 -6.15 0.82 0.66c4.37,-4.74 8.6,-9.59 13.16,-14.12zm12.69 42.86c-1.27,1.66 -3.61,2.05 -5.35,0.89 -6.54,-5.65 -12.07,-12.39 -16.34,-19.9 10.64,-2.24 21.42,-3.85 32.23,-4.84 -3.67,8.35 -7.05,16.1 -10.54,23.83l0 0.02zm42.84 3.76l0 15.92c-14.71,-0.28 -29.01,-4.91 -41.11,-13.29 4.8,-1.94 36.53,-3.81 41.13,-2.63l-0.02 0zm-33.69 -14.78c1.48,-3.72 3.09,-7.4 4.44,-11.17 0.65,-1.74 2.36,-2.81 4.2,-2.66 8.33,-0.46 16.66,-0.78 25.23,-1.17l0 23.81 -38.15 2.21c1.51,-3.91 2.89,-7.47 4.28,-11.02zm32.28 -19.86c-4.96,0.27 -9.92,0.27 -14.89,0.49 -3.02,0.13 -6.02,0.47 -9.75,0.79 1.7,-4.34 3.12,-7.96 4.56,-11.6 0.67,-1.66 1.47,-3.3 2.02,-5 0.48,-1.68 2.09,-2.77 3.83,-2.6 4.81,-0.06 9.61,-0.06 14.41,-0.17 1.32,-0.35 2.54,0.85 2.2,2.17 -0.19,4.79 -0.28,9.57 -0.58,14.32 -0.28,0.82 -0.96,1.41 -1.8,1.6zm7.18 -18.07c5.67,0.27 11.36,0.43 17.05,0.71 0.69,0.02 1.35,0.35 1.8,0.89 2.35,5.72 4.6,11.5 6.98,17.53 -2.2,0 -4.02,0.06 -5.82,0 -6.52,-0.27 -13.03,-0.69 -19.55,-0.9 -1.47,0.34 -2.81,-0.98 -2.46,-2.46 0.04,-4.54 0,-9.09 -0.16,-13.65 -0.4,-1.32 0.83,-2.54 2.16,-2.12zm0 23.13c3.37,0.13 6.75,0 10.11,0.21 5.52,0.33 11.04,0.81 16.54,1.36 0.82,0.18 1.51,0.73 1.88,1.47 3.12,7.85 6.14,15.72 9.17,23.58 -12.39,-0.76 -24.61,-1.52 -36.84,-2.25 -1.3,0.23 -2.47,-0.85 -2.35,-2.17 -0.09,-6.71 -0.24,-13.42 -0.44,-20.12 -0.04,-1.43 0.33,-2.15 1.93,-2.08zm37.72 26.71c0,-0.01 0,-0.03 0,-0.03l-0.02 -0.06 0.04 0c-0.01,0.03 -0.01,0.06 -0.01,0.09l-0.01 0zm-37.29 2.63c7.34,0.33 14.7,0.73 22.02,1.28 5.42,0.41 10.82,1.09 16.24,1.63l0.33 0.77c-3.49,1.89 -6.93,3.92 -10.5,5.65 -7.27,3.31 -14.99,5.52 -22.91,6.58 -1.81,0.24 -3.63,0.28 -5.46,0.08 -0.73,-0.27 -1.29,-0.9 -1.45,-1.68 -0.14,-4.22 -0.16,-8.46 -0.01,-12.69 0.26,-0.8 0.92,-1.42 1.75,-1.61l-0.01 -0.01zm32.24 -27.5l30.66 4.8c-4.48,8.06 -10.46,15.2 -17.6,21.06 -0.93,1.18 -2.81,0.75 -3.13,-0.72 -3.42,-8.06 -6.81,-16.12 -10.22,-24.18l0.29 -0.96zm14.61 -2.76c-5.43,-0.84 -10.92,-1.44 -16.35,-2.24 -0.7,-0.16 -1.29,-0.62 -1.62,-1.25 -2.33,-5.32 -4.56,-10.66 -6.78,-16.02 -0.12,-0.62 -0.16,-1.26 -0.12,-1.87 5.79,0.61 11.27,1.12 16.72,1.81 4.09,0.52 8.15,1.13 12.18,1.97 1.56,0.31 3.03,1.03 4.23,2.08 3.83,3.49 7.36,7.3 11.17,10.79 1.26,0.92 1.65,2.64 0.89,4.01 -1.91,4.65 -1.88,4.51 -7,3.23 -4.38,-1.08 -8.86,-1.81 -13.33,-2.5l0.01 -0.01zm14.99 -15.59l9.34 1.97 -1.7 6.22 -7.9 -7.44 0.26 -0.75zm0 0z"/>
  <path fill="#0B274A" d="M274.34 116.56c2.77,2.55 4.31,6.15 4.21,9.9 0.07,3.82 -1.53,7.5 -4.35,10.06 -2.92,2.73 -6.8,4.21 -10.8,4.09 -3.92,0.13 -7.74,-1.27 -10.63,-3.93 -2.75,-2.55 -4.29,-6.15 -4.21,-9.91 -0.06,-3.82 1.54,-7.5 4.37,-10.05 2.91,-2.73 6.79,-4.21 10.79,-4.1 3.92,-0.12 7.73,1.28 10.62,3.94zm-14.73 6.19c-2.11,2.16 -2.11,5.59 0,7.73 2.2,2.11 5.68,2.11 7.89,0 2.1,-2.14 2.1,-5.57 0,-7.73 -2.21,-2.1 -5.69,-2.1 -7.89,0zm-37.39 7.06c1.01,0.69 2.1,1.28 3.24,1.77 1.46,0.7 3.06,1.07 4.68,1.09 0.81,0.04 1.6,-0.19 2.27,-0.65 0.55,-0.36 0.89,-0.96 0.89,-1.62 -0.1,-1.04 -0.69,-1.96 -1.58,-2.49 -1.91,-1.25 -3.96,-2.3 -6.1,-3.12 -5.58,-2.38 -8.37,-5.96 -8.37,-10.73 -0.05,-3.02 1.31,-5.88 3.68,-7.74 2.76,-2.12 6.16,-3.19 9.64,-3.04 2.34,-0.01 4.69,0.41 6.9,1.26 1.68,0.55 3.26,1.39 4.68,2.46l1.43 1.21 -5.81 6.22c-0.29,-0.33 -0.6,-0.63 -0.93,-0.9 -0.78,-0.57 -1.61,-1.05 -2.49,-1.42 -1.15,-0.58 -2.41,-0.88 -3.69,-0.89 -0.81,-0.05 -1.63,0.17 -2.31,0.6 -0.52,0.32 -0.84,0.87 -0.84,1.48 0.02,0.86 0.45,1.65 1.15,2.14 1.48,0.98 3.05,1.8 4.7,2.42 6.8,2.9 10.2,6.72 10.2,11.46 0.04,3.13 -1.39,6.12 -3.86,8.06 -2.82,2.24 -6.37,3.39 -9.96,3.23 -1.74,0 -3.47,-0.2 -5.15,-0.59 -1.42,-0.31 -2.81,-0.79 -4.13,-1.43 -0.99,-0.49 -1.96,-1.05 -2.89,-1.66 -0.66,-0.4 -1.28,-0.87 -1.84,-1.39l-0.58 -0.63 5.8 -6.22c0.4,0.4 0.83,0.77 1.27,1.12zm71.69 10.29l-9.57 0 0 -36.29 9.57 0 0 36.29zm20.69 -27.48c3.63,-0.08 7.15,1.28 9.8,3.78 2.56,2.3 4.02,5.59 3.99,9.03 0,0.57 -0.03,1.15 -0.1,1.71 -0.04,0.4 -0.11,0.8 -0.21,1.19l-0.1 0.36 -18.58 0c0.3,1.16 1.02,2.17 2.02,2.83 1.14,0.73 2.46,1.1 3.81,1.06 1.12,0.01 2.23,-0.18 3.28,-0.57 0.78,-0.25 1.51,-0.64 2.15,-1.14l0.63 -0.62 5.52 5.45c-0.11,0.13 -0.26,0.31 -0.46,0.55 -0.43,0.43 -0.89,0.81 -1.39,1.16 -0.75,0.56 -1.55,1.06 -2.39,1.48 -1.1,0.52 -2.25,0.92 -3.44,1.19 -1.5,0.37 -3.04,0.56 -4.59,0.55 -3.92,0.14 -7.74,-1.28 -10.63,-3.94 -2.76,-2.53 -4.3,-6.15 -4.21,-9.9 -0.06,-3.81 1.49,-7.47 4.29,-10.06 2.85,-2.73 6.66,-4.21 10.61,-4.11zm4.74 10.62c-0.21,-1.09 -0.82,-2.07 -1.71,-2.76 -0.89,-0.73 -2.02,-1.15 -3.19,-1.13 -1.19,-0.02 -2.35,0.36 -3.3,1.09 -0.92,0.69 -1.57,1.68 -1.84,2.8l10.04 0zm9.59 -10.1l11.05 0 4.78 6.94 4.94 -6.94 10.53 0 -9.99 12.96 10.51 14.01 -11.03 0 -5.32 -7.57 -5.49 7.56 -10.53 0 10.53 -13.64 -9.98 -13.32zm0 0z"/>
  <g>
  </g>
  <g clip-path="url(#id0)">
   <g>
    <path fill="#007BE4" d="M108.03 4.94l0.08 0.02c-0.28,7.35 3.96,14.44 11.16,17.42 7.2,2.99 15.23,0.98 20.23,-4.44l0.12 0.08c-3.11,6.69 -1.9,14.89 3.62,20.41 5.53,5.52 13.73,6.73 20.43,3.62l0.07 0.11c-5.42,5 -7.44,13.03 -4.45,20.24 2.99,7.21 10.1,11.46 17.47,11.16l0.03 0.12c-6.95,2.53 -11.9,9.19 -11.9,17.01 0,7.81 4.95,14.47 11.9,17.01l-0.03 0.12c-7.37,-0.31 -14.48,3.94 -17.47,11.15 -2.99,7.21 -0.98,15.25 4.45,20.25l-0.07 0.11c-6.7,-3.12 -14.9,-1.91 -20.43,3.62 -5.52,5.52 -6.73,13.71 -3.62,20.41l-0.12 0.07c-5,-5.41 -13.03,-7.43 -20.23,-4.44 -7.2,2.99 -11.44,10.07 -11.16,17.43l-0.14 0.02c-2.54,-6.91 -9.19,-11.85 -16.99,-11.85 -7.79,0 -14.43,4.93 -16.98,11.83l-0.14 -0.03c0.27,-7.34 -3.97,-14.42 -11.16,-17.4 -7.18,-2.98 -15.18,-0.98 -20.19,4.39l-0.13 -0.09c3.07,-6.68 1.85,-14.84 -3.66,-20.34 -5.49,-5.5 -13.65,-6.72 -20.33,-3.67l-0.09 -0.13c5.37,-5.01 7.36,-13 4.38,-20.18 -2.97,-7.17 -10.03,-11.41 -17.35,-11.16l-0.03 -0.16c6.88,-2.56 11.78,-9.19 11.78,-16.96 0,-7.78 -4.9,-14.41 -11.78,-16.97l0.03 -0.16c7.32,0.26 14.38,-3.99 17.35,-11.16 2.98,-7.17 0.99,-15.17 -4.38,-20.17l0.09 -0.14c6.68,3.06 14.84,1.84 20.33,-3.66 5.51,-5.5 6.72,-13.67 3.66,-20.35l0.13 -0.09c5.01,5.38 13.01,7.37 20.19,4.39 7.19,-2.98 11.43,-10.05 11.15,-17.4l0.21 -0.04c2.55,6.91 9.19,11.84 16.98,11.84 7.8,0 14.44,-4.93 16.99,-11.84zm-16.99 28.37c31.7,0 57.39,25.69 57.39,57.38 0,31.69 -25.69,57.38 -57.39,57.38 -31.69,0 -57.38,-25.69 -57.38,-57.38 0,-31.69 25.69,-57.38 57.38,-57.38z"/>
    <animateTransform attributeType="xml" attributeName="transform" type="rotate" 
from="0 91 91" to="360 91 91" dur="30s" additive="sum" repeatCount="indefinite" />
   </g>
  </g>
  <path fill="none" d="M90.93 0c49.73,0 90.04,40.32 90.04,90.05 0,2.74 -0.13,5.46 -0.37,8.14 -24.56,-9.77 -54.21,-15.48 -86.14,-15.48 -34.92,0 -67.11,6.84 -92.91,18.34 -0.44,-3.61 -0.67,-7.28 -0.67,-11 0,-49.73 40.32,-90.05 90.05,-90.05z"/>
  <path fill="#007BE4" d="M101.48 28.86c-1.27,-1.41 -2.55,-2.47 -3.83,-2.58l0 22.25c8.23,0.48 15.93,6.29 15.69,15.11 0.09,5.66 -3.16,10.71 -8.15,13.28 4.64,1.45 8.38,4.99 9.93,9.6 -4.38,-0.34 -8.84,-0.58 -13.32,-0.75 -1.64,-2.5 -4.88,-3.79 -7.8,-3.64l-12.69 0 0 3.38c-4.32,0.06 -8.62,0.18 -12.87,0.39l0 -37.56 10.24 0 0 -20.39c-0.46,0.12 -0.92,0.25 -1.38,0.39 1.32,-3.23 1.29,-0.55 3.45,-2.72 2.14,0 3.89,-1.75 15.9,-1.75 3.1,0 5.82,1.03 4.97,4.66 -0.01,0.02 -0.06,0.14 -0.14,0.33zm-11.95 -3.15c-0.9,0.06 -1.81,0.14 -2.72,0.26l0 22.37 2.72 0 0 -22.63zm-8.22 47.03l10.76 0c4.19,0.21 8.48,-2.61 8.41,-7.12 0.1,-4.51 -4.19,-7.42 -8.41,-7.18l-10.76 0 0 14.3z"/>
  <path fill="#007BE4" d="M394.63 81.95c-2.91,2.73 -6.79,4.21 -10.79,4.09 -3.92,0.14 -7.74,-1.27 -10.63,-3.93 -2.76,-2.54 -4.3,-6.15 -4.21,-9.9 -0.06,-3.83 1.54,-7.49 4.37,-10.06 2.92,-2.73 6.79,-4.2 10.79,-4.1 3.92,-0.13 7.74,1.28 10.63,3.94 2.78,2.54 4.3,6.15 4.21,9.9 0.06,3.84 -1.52,7.5 -4.37,10.06zm-6.68 -13.77c-2.21,-2.1 -5.69,-2.1 -7.9,0 -2.1,2.16 -2.1,5.59 0,7.73 2.21,2.12 5.69,2.12 7.9,0 2.1,-2.14 2.1,-5.57 0,-7.71l0 -0.02zm-27.63 9.31c0.59,0 1.18,-0.04 1.77,-0.13 0.62,-0.08 1.07,-0.15 1.38,-0.23l0.53 -0.16 1.05 7.78c-2.34,0.94 -4.86,1.38 -7.37,1.31 -2.54,0.14 -5.03,-0.72 -6.95,-2.39 -1.75,-1.77 -2.67,-4.21 -2.52,-6.7l0 -10.89 -4.74 0 0 -7.51 4.74 0 0 -6.21 9.47 0 0 6.22 7.37 0 0 7.52 -7.37 0 0 8.55c-0.29,1.59 1.03,3.02 2.64,2.84zm-33.05 8.55c-2.56,0.07 -5.03,-0.83 -6.94,-2.54l0 10.32 -9.46 0 0 -35.25 7.88 0 0.73 3.28c1.97,-2.46 4.98,-3.87 8.11,-3.8 3.49,-0.04 6.84,1.43 9.18,4 2.54,2.64 3.91,6.19 3.82,9.84 0.07,3.73 -1.35,7.34 -3.95,10.01 -2.38,2.66 -5.79,4.17 -9.37,4.14zm2.27 -17.86c-2.21,-2.1 -5.69,-2.1 -7.9,0 -2.1,2.16 -2.1,5.59 0,7.73 2.21,2.12 5.69,2.12 7.9,0 2.1,-2.14 2.1,-5.57 0,-7.71l0 -0.02zm-37.13 24.08c-2.07,1.44 -4.55,2.17 -7.08,2.07 -1.41,0.02 -2.83,-0.17 -4.21,-0.51 -1.04,-0.22 -2.04,-0.58 -2.99,-1.04l-0.95 -0.52 2.95 -7.25c1.23,0.84 2.71,1.26 4.21,1.19 0.6,0.01 1.22,-0.1 1.78,-0.32 0.39,-0.12 0.75,-0.31 1.06,-0.57l0.32 -0.3 -10.32 -26.44 10.54 0 4.82 15.6 4.9 -15.6 10 0 -10.53 27.21c-0.83,2.55 -2.4,4.8 -4.5,6.48zm-20.01 -24.62c-4.64,0 -6.96,2.38 -6.96,7.15l0 10.74 -9.45 0 0 -26.96 8.42 0 0.46 4.83c1.88,-3.54 5.69,-5.63 9.68,-5.35l-0.16 9.6 -1.99 0 0 -0.01zm-36.21 9.33c1.5,0.02 2.96,-0.3 4.31,-0.93 1.07,-0.43 2.03,-1.06 2.85,-1.87l0.79 -0.93 6.84 5.96c-0.16,0.26 -0.34,0.51 -0.54,0.74 -0.51,0.58 -1.07,1.13 -1.68,1.65 -0.87,0.8 -1.85,1.49 -2.88,2.07 -1.36,0.7 -2.78,1.25 -4.24,1.64 -1.83,0.5 -3.71,0.76 -5.61,0.76 -5.13,0.15 -10.1,-1.77 -13.81,-5.32 -3.61,-3.43 -5.61,-8.22 -5.5,-13.2 -0.09,-5.05 1.97,-9.9 5.66,-13.35 3.73,-3.64 8.77,-5.61 13.97,-5.48 1.81,0 3.6,0.22 5.37,0.65 1.42,0.34 2.8,0.86 4.1,1.56 0.95,0.54 1.87,1.14 2.74,1.79 0.61,0.43 1.15,0.93 1.62,1.51l0.54 0.67 -7.22 6.11c-0.24,-0.32 -0.5,-0.62 -0.79,-0.91 -0.71,-0.59 -1.53,-1.07 -2.41,-1.42 -1.29,-0.59 -2.69,-0.89 -4.11,-0.87 -2.54,-0.08 -5.02,0.91 -6.78,2.75 -3.58,3.85 -3.58,9.83 0,13.68 1.76,1.82 4.24,2.82 6.78,2.74z"/>
 </g>
</svg>
