<?xml version="1.0" encoding="utf-8"?>
<svg viewBox="0 0 67.472 62" xmlns="http://www.w3.org/2000/svg">
  <defs>
    <style>
      .cls-1 {
        fill: #007be4;
      }

      .cls-1, .cls-2 {
        fill-rule: evenodd;
      }

      .cls-2 {
        fill: #0b274a;
      }
    </style>
  </defs>
  <path id="Фигура_753_1" data-name="Фигура 753 1" class="cls-1" d="M 64.594 28.178 C 63.991 28.455 63.416 28.79 62.878 29.178 C 62.159 29.783 61.52 30.478 60.978 31.245 C 60.757 31.656 60.271 31.847 59.829 31.695 C 58.661 31.468 57.499 31.209 56.337 30.957 C 55.764 30.949 55.202 30.799 54.702 30.52 C 54.501 30.006 54.419 29.454 54.462 28.904 C 53.898 25.117 52.365 21.539 50.012 18.518 C 47.358 15.129 43.721 12.643 39.6 11.4 C 38.235 10.983 36.83 10.709 35.408 10.584 L 35.408 15.607 C 36.816 15.69 38.164 16.208 39.266 17.09 C 40.46 18.07 41.134 19.546 41.095 21.09 C 41.107 22.081 40.838 23.055 40.318 23.899 C 39.785 24.75 39.032 25.441 38.139 25.899 C 39.287 26.262 40.29 26.979 41.004 27.948 C 41.32 28.386 41.568 28.87 41.739 29.382 C 40.149 29.261 38.539 29.173 36.91 29.108 C 36.79 28.929 36.649 28.764 36.492 28.616 C 35.826 28.04 34.963 27.745 34.084 27.793 L 29.484 27.793 L 29.484 29.016 C 27.916 29.039 26.358 29.079 24.82 29.154 L 24.82 15.54 L 28.532 15.54 L 28.532 11.187 C 21.307 13.067 15.606 18.615 13.532 25.787 C 13.186 27.16 12.937 28.557 12.787 29.965 C 12.843 30.471 12.459 30.919 11.951 30.941 C 10.351 31.201 8.778 31.601 7.192 31.941 C 6.66 32.149 6.06 31.887 5.852 31.355 C 5.021 29.854 3.64 28.735 2 28.233 C 4.838 27.944 7.22 25.969 8.028 23.233 C 8.929 20.562 8.245 17.61 6.26 15.608 C 9.277 16.182 11.693 15.539 13.621 13.344 C 15.549 11.149 15.68 8.633 14.956 5.771 C 17.443 7.508 19.956 7.971 22.604 6.696 C 25.18 5.534 26.821 2.955 26.783 0.129 C 28.245 2.908 30.4 4.366 33.3 4.4 C 36.101 4.466 38.676 2.871 39.864 0.334 C 40.5 6.547 47.039 9.4 51.883 5.688 C 50.802 8.256 51.296 11.216 53.151 13.294 C 55.018 15.521 57.482 16.145 60.566 15.572 C 58.466 17.98 57.86 20.5 58.796 23.261 C 59.604 25.891 61.868 27.81 64.594 28.178 Z M 32.464 10.537 C 32.136 10.557 31.809 10.591 31.481 10.628 L 31.481 15.54 L 32.464 15.54 L 32.464 10.54 L 32.464 10.537 Z M 29.485 24.385 L 33.385 24.385 C 34.194 24.428 34.99 24.162 35.61 23.64 C 36.141 23.181 36.443 22.511 36.433 21.809 C 36.448 21.097 36.146 20.415 35.61 19.946 C 34.99 19.425 34.194 19.159 33.385 19.202 L 29.485 19.202 L 29.485 24.385 Z" transform="matrix(1, 0, 0, 1, 7.105427357601002e-15, 0)"/>
  <path id="Фигура_755_1" data-name="Фигура 755 1" class="cls-2" d="M60.872,35.664c-0.04.425-.068,0.63-0.078,0.836-0.073,1.452-.07,1.446-1.456,1.145-1.628-.355-3.26-0.69-4.885-1.056a1.4,1.4,0,0,1-.6-0.348q-2.274-2.1-4.528-4.228a3.225,3.225,0,0,1-.3-0.456,125.253,125.253,0,0,1,18.095,3.771Zm-9.569.282c-0.7-.068-1.406-0.114-2.1-0.206-1.093-.145-2.178-0.352-3.273-0.478-1.245-.142-2.5-0.184-3.744-0.355a1.423,1.423,0,0,1-.974-0.622C40.676,33.171,40.26,32,39.73,30.674c1.934,0.148,3.691.366,5.452,0.393,1.634,0.026,2.611.983,3.6,2.065,0.819,0.9,1.724,1.713,2.59,2.566ZM33.533,34.557c0-1.3-.027-2.46.032-3.614a0.869,0.869,0,0,1,.679-0.425c1.49,0.024,2.98.11,4.537,0.179l1.485,3.86H33.533Zm-1.361-.109c-1.867.132-3.739,0.207-5.836,0.309a16.1,16.1,0,0,0,.943-2.479c0.3-1.548,1.367-1.783,2.652-1.773,0.659,0,1.32.019,1.978-.014a0.6,0.6,0,0,1,.726.742c-0.03.868,0.016,1.739-.036,2.606A0.8,0.8,0,0,1,32.173,34.448Zm-7.843.427c-2.226.244-4.458,0.444-6.685,0.676-0.811.085-1.617,0.22-2.458,0.336,1.483-1.547,2.83-3.035,4.283-4.413a2.806,2.806,0,0,1,1.581-.406c1.908-.16,3.82-0.267,5.879-0.4-0.581,1.368-1.072,2.624-1.662,3.831A1.346,1.346,0,0,1,24.329,34.875ZM10.816,36.742c-1.721.328-3.429,0.727-5.308,1.132-0.057-.72-0.129-1.281-0.139-1.843a0.694,0.694,0,0,0-.836-0.784A44.3,44.3,0,0,1,.01,35.12a93.029,93.029,0,0,1,17.859-3.431c-1.364,1.263-2.771,2.484-4.077,3.8A5.134,5.134,0,0,1,10.816,36.742Zm-0.867,2.2L6.556,42.093l-0.714-2.61,3.953-.82Zm2.184-.331a3.479,3.479,0,0,1,1.841-.714c1.768-.283,3.553-0.466,5.331-0.683,1.333-.162,2.666-0.325,4-0.467a6.392,6.392,0,0,1,.985.056c-0.949,2.21-1.823,4.278-2.736,6.328a0.981,0.981,0,0,1-.635.5c-2.683.4-5.376,0.72-8.055,1.134-1.582.245-3.144,0.617-4.827,0.954l-0.97-2.228,0.3,0.24C8.947,42.01,10.483,40.251,12.133,38.607Zm4.6,15.534a1.425,1.425,0,0,1-1.934.325,27.439,27.439,0,0,1-5.926-7.216A101.536,101.536,0,0,1,20.559,45.5C19.225,48.527,18,51.341,16.736,54.141Zm15.533,1.368v5.766a27.094,27.094,0,0,1-14.9-4.815C19.106,55.761,30.606,55.082,32.269,55.509ZM20.054,50.153c0.534-1.351,1.116-2.685,1.608-4.051a1.482,1.482,0,0,1,1.519-.96c3.021-.168,6.045-0.288,9.148-0.429v8.631l-13.83.8C19.049,52.731,19.545,51.44,20.054,50.153Zm11.7-7.2c-1.8.1-3.6,0.1-5.4,0.178-1.093.047-2.183,0.173-3.532,0.285,0.618-1.57,1.133-2.885,1.654-4.2,0.241-.606.531-1.2,0.731-1.814a1.3,1.3,0,0,1,1.388-.942c1.741-.021,3.482-0.025,5.222-0.064a0.652,0.652,0,0,1,.8.788c-0.072,1.731-.1,3.465-0.209,5.193A0.9,0.9,0,0,1,31.755,42.955Zm2.6-6.552c2.06,0.1,4.121.158,6.18,0.262a0.86,0.86,0,0,1,.651.321c0.856,2.074,1.671,4.165,2.536,6.353-0.8,0-1.459.024-2.111,0-2.363-.1-4.724-0.248-7.088-0.325a0.745,0.745,0,0,1-.894-0.89q0.03-2.475-.053-4.951A0.618,0.618,0,0,1,34.353,36.4Zm0,8.383c1.222,0.048,2.448,0,3.668.079,2,0.123,4,.293,5.992.491a1.007,1.007,0,0,1,.686.539c1.13,2.839,2.223,5.693,3.32,8.545-4.491-.276-8.921-0.551-13.351-0.82a0.727,0.727,0,0,1-.85-0.785q-0.053-3.647-.164-7.293C33.642,45.022,33.776,44.763,34.356,44.786Zm13.673,9.685a0.044,0.044,0,0,0,0-.013l-0.007-.017h0.017A0.3,0.3,0,0,0,48.029,54.471Zm-13.515.954c2.662,0.118,5.325.263,7.982,0.465,1.966,0.15,3.925.391,5.888,0.591L48.5,56.756c-1.268.685-2.511,1.421-3.808,2.045a29.181,29.181,0,0,1-8.3,2.384,8.058,8.058,0,0,1-1.979.036,0.834,0.834,0,0,1-.528-0.61c-0.05-1.532-.058-3.068-0.006-4.6A0.884,0.884,0,0,1,34.514,55.425ZM46.2,45.454l11.115,1.738a26.649,26.649,0,0,1-6.384,7.635,0.643,0.643,0,0,1-1.135-.261q-1.855-4.381-3.7-8.764Zm5.295-1c-1.971-.305-3.956-0.522-5.929-0.812a0.9,0.9,0,0,1-.589-0.453c-0.841-1.927-1.651-3.868-2.456-5.811a2.587,2.587,0,0,1-.042-0.675c2.1,0.224,4.084.407,6.063,0.657,1.478,0.186,2.954.413,4.412,0.714a3.366,3.366,0,0,1,1.537.754c1.382,1.268,2.665,2.644,4.045,3.914a1.116,1.116,0,0,1,.322,1.451c-0.693,1.689-.68,1.637-2.536,1.172C54.733,44.973,53.109,44.709,51.491,44.459ZM56.926,38.8l3.389,0.716L59.7,41.771l-2.867-2.7Z" transform="matrix(1, 0, 0, 1, 7.105427357601002e-15, 0)"/>
</svg>