<svg xmlns="http://www.w3.org/2000/svg" width="20" height="20" viewBox="0 0 20 20">
  <defs>
    <style>
      .cls-1 {
        fill-rule: evenodd;
      }
    </style>
  </defs>
  <path id="_784" data-name="784" class="cls-1" d="M18.662,9.7A9.043,9.043,0,0,0,3.138,3.722,8.929,8.929,0,0,0,.6,10.284,9.035,9.035,0,0,0,9.334,19c0.1,0,.2,0,0.3,0A9.023,9.023,0,0,0,18.662,9.7Zm-3.908,5.242A7.086,7.086,0,0,1,9.629,17.1c-0.078,0-.156,0-0.234,0a7.131,7.131,0,0,1-6.9-6.875,7.123,7.123,0,0,1,7.13-7.346c0.078,0,.156,0,0.234,0a7.13,7.13,0,0,1,6.9,6.875A7.05,7.05,0,0,1,14.754,14.938ZM12.593,9.467L8.586,6.6a0.646,0.646,0,0,0-1.023.523v5.73a0.646,0.646,0,0,0,1.023.524l4.007-2.865A0.643,0.643,0,0,0,12.593,9.467Z" fill="#fff"/>
</svg>
