<?xml version="1.0" encoding="utf-8"?>
<!-- Generator: Adobe Illustrator 24.3.0, SVG Export Plug-In . SVG Version: 6.00 Build 0)  -->
<!DOCTYPE svg PUBLIC "-//W3C//DTD SVG 1.1//EN" "http://www.w3.org/Graphics/SVG/1.1/DTD/svg11.dtd" [
	<!ENTITY ns_extend "http://ns.adobe.com/Extensibility/1.0/">
	<!ENTITY ns_ai "http://ns.adobe.com/AdobeIllustrator/10.0/">
	<!ENTITY ns_graphs "http://ns.adobe.com/Graphs/1.0/">
	<!ENTITY ns_vars "http://ns.adobe.com/Variables/1.0/">
	<!ENTITY ns_imrep "http://ns.adobe.com/ImageReplacement/1.0/">
	<!ENTITY ns_sfw "http://ns.adobe.com/SaveForWeb/1.0/">
	<!ENTITY ns_custom "http://ns.adobe.com/GenericCustomNamespace/1.0/">
	<!ENTITY ns_adobe_xpath "http://ns.adobe.com/XPath/1.0/">
]>
<svg version="1.1" id="wallet" xmlns:x="&ns_extend;" xmlns:i="&ns_ai;" xmlns:graph="&ns_graphs;"
	 xmlns="http://www.w3.org/2000/svg" xmlns:xlink="http://www.w3.org/1999/xlink" x="0px" y="0px" viewBox="0 0 12.3 12.3"
	 style="enable-background:new 0 0 12.3 12.3;" xml:space="preserve">
<style type="text/css">
	.st0{fill-rule:evenodd;clip-rule:evenodd;fill:#E6F1FB;}
	.st1{fill:#DC0201;}
	.st2{fill:#FECD17;}
</style>
<metadata>
	<sfw  xmlns="&ns_sfw;">
		<slices></slices>
		<sliceSourceBounds  bottomLeftOrigin="true" height="12.3" width="12.3" x="16.8" y="16.8"></sliceSourceBounds>
	</sfw>
</metadata>
<g id="Слой_2">
	<path class="st0" d="M6.2,0c3.4,0,6.2,2.8,6.2,6.2s-2.8,6.2-6.2,6.2C2.8,12.3,0,9.6,0,6.2S2.8,0,6.2,0z"/>
	<g id="XMLID_2406_">
		<path id="XMLID_2409_" d="M6.2,1.7c-2,0-3.6,1.3-4.2,3h8.5C9.8,2.9,8.1,1.7,6.2,1.7z"/>
		<path id="XMLID_2408_" class="st1" d="M10.7,6.2c0-0.5-0.1-1-0.3-1.5H1.9c-0.2,0.5-0.3,1-0.3,1.5c0,0.5,0.1,1,0.3,1.5h8.5
			C10.6,7.2,10.7,6.7,10.7,6.2z"/>
		<path id="XMLID_2407_" class="st2" d="M1.9,7.7c0.6,1.7,2.3,3,4.2,3c2,0,3.6-1.3,4.2-3H1.9z"/>
	</g>
</g>
</svg>
