<?xml version="1.0" encoding="utf-8"?>
<!-- Generator: Adobe Illustrator 24.3.0, SVG Export Plug-In . SVG Version: 6.00 Build 0)  -->
<!DOCTYPE svg PUBLIC "-//W3C//DTD SVG 1.1//EN" "http://www.w3.org/Graphics/SVG/1.1/DTD/svg11.dtd" [
	<!ENTITY ns_extend "http://ns.adobe.com/Extensibility/1.0/">
	<!ENTITY ns_ai "http://ns.adobe.com/AdobeIllustrator/10.0/">
	<!ENTITY ns_graphs "http://ns.adobe.com/Graphs/1.0/">
	<!ENTITY ns_vars "http://ns.adobe.com/Variables/1.0/">
	<!ENTITY ns_imrep "http://ns.adobe.com/ImageReplacement/1.0/">
	<!ENTITY ns_sfw "http://ns.adobe.com/SaveForWeb/1.0/">
	<!ENTITY ns_custom "http://ns.adobe.com/GenericCustomNamespace/1.0/">
	<!ENTITY ns_adobe_xpath "http://ns.adobe.com/XPath/1.0/">
]>
<svg version="1.1" id="wallet" xmlns:x="&ns_extend;" xmlns:i="&ns_ai;" xmlns:graph="&ns_graphs;"
	 xmlns="http://www.w3.org/2000/svg" xmlns:xlink="http://www.w3.org/1999/xlink" x="0px" y="0px" viewBox="0 0 12.3 12.3"
	 style="enable-background:new 0 0 12.3 12.3;" xml:space="preserve">
<style type="text/css">
	.st0{fill-rule:evenodd;clip-rule:evenodd;fill:#E6F1FB;}
	.st1{fill:#04247B;}
	.st2{fill:#FFFFFF;}
	.st3{fill:#CE152A;}
</style>
<metadata>
	<sfw  xmlns="&ns_sfw;">
		<slices></slices>
		<sliceSourceBounds  bottomLeftOrigin="true" height="12.3" width="12.3" x="16.8" y="16.8"></sliceSourceBounds>
	</sfw>
</metadata>
<g id="Слой_2">
	<path class="st0" d="M6.2,0c3.4,0,6.2,2.8,6.2,6.2s-2.8,6.2-6.2,6.2C2.8,12.3,0,9.6,0,6.2S2.8,0,6.2,0z"/>
	<g id="XMLID_6562_">
		<path id="XMLID_6572_" class="st1" d="M4.7,1.9v2.5l-2-1C3.1,2.7,3.8,2.2,4.7,1.9z"/>
		<path id="XMLID_6571_" class="st1" d="M9.7,3.4l-2,1V1.9C8.5,2.2,9.2,2.7,9.7,3.4z"/>
		<path id="XMLID_6570_" class="st1" d="M4.7,7.9v2.5c-0.8-0.3-1.5-0.8-2-1.5L4.7,7.9z"/>
		<path id="XMLID_6569_" class="st1" d="M9.7,8.9c-0.5,0.7-1.2,1.2-2,1.5V7.9L9.7,8.9z"/>
		<path id="XMLID_6568_" class="st2" d="M10.7,6.2c0,0.3,0,0.6-0.1,0.9c0,0.2-0.1,0.4-0.2,0.6H9.1l1,0.5C10,8.4,9.9,8.7,9.7,8.9
			l-2-1v2.5c-0.2,0.1-0.4,0.1-0.6,0.2c-0.3,0.1-0.6,0.1-0.9,0.1c-0.3,0-0.6,0-0.9-0.1c-0.2,0-0.4-0.1-0.6-0.2V7.9l-2,1
			C2.6,8.9,2.5,8.8,2.4,8.7l2.1-1H3.2l-1,0.5C2,7.8,1.8,7.4,1.7,7.1C1.7,6.8,1.7,6.5,1.7,6.2c0-0.3,0-0.6,0.1-0.9
			c0-0.2,0.1-0.4,0.2-0.6h1.3l-1-0.5c0.1-0.3,0.3-0.5,0.5-0.8l2,1V1.9c0.2-0.1,0.4-0.1,0.6-0.2c0.3-0.1,0.6-0.1,0.9-0.1
			c0.3,0,0.6,0,0.9,0.1c0.2,0,0.4,0.1,0.6,0.2v2.5l2-1c0.1,0.1,0.1,0.2,0.2,0.2l-2.1,1h1.3l1-0.5c0.2,0.3,0.3,0.7,0.4,1.1
			C10.6,5.5,10.7,5.8,10.7,6.2z"/>
		<path id="XMLID_6567_" class="st3" d="M3.2,4.7H1.9C2,4.5,2,4.3,2.1,4.1L3.2,4.7z"/>
		<path id="XMLID_6566_" class="st3" d="M10.4,7.7c-0.1,0.2-0.1,0.4-0.2,0.5l-1-0.5H10.4z"/>
		<path id="XMLID_6565_" class="st3" d="M10.2,4.1l-1,0.5H7.8l2.1-1C10,3.8,10.1,4,10.2,4.1z"/>
		<path id="XMLID_6564_" class="st3" d="M4.5,7.7l-2.1,1C2.3,8.5,2.2,8.3,2.1,8.2l1-0.5H4.5z"/>
		<path id="XMLID_6563_" class="st3" d="M10.7,6.2c0,0.3,0,0.6-0.1,0.9H7.1v3.5c-0.3,0.1-0.6,0.1-0.9,0.1c-0.3,0-0.6,0-0.9-0.1V7.1
			H1.7C1.7,6.8,1.7,6.5,1.7,6.2c0-0.3,0-0.6,0.1-0.9h3.5V1.7c0.3-0.1,0.6-0.1,0.9-0.1c0.3,0,0.6,0,0.9,0.1v3.5h3.5
			C10.6,5.5,10.7,5.8,10.7,6.2z"/>
	</g>
</g>
</svg>
