<?xml version="1.0" encoding="utf-8"?>
<!-- Generator: Adobe Illustrator 24.3.0, SVG Export Plug-In . SVG Version: 6.00 Build 0)  -->
<!DOCTYPE svg PUBLIC "-//W3C//DTD SVG 1.1//EN" "http://www.w3.org/Graphics/SVG/1.1/DTD/svg11.dtd" [
	<!ENTITY ns_extend "http://ns.adobe.com/Extensibility/1.0/">
	<!ENTITY ns_ai "http://ns.adobe.com/AdobeIllustrator/10.0/">
	<!ENTITY ns_graphs "http://ns.adobe.com/Graphs/1.0/">
	<!ENTITY ns_vars "http://ns.adobe.com/Variables/1.0/">
	<!ENTITY ns_imrep "http://ns.adobe.com/ImageReplacement/1.0/">
	<!ENTITY ns_sfw "http://ns.adobe.com/SaveForWeb/1.0/">
	<!ENTITY ns_custom "http://ns.adobe.com/GenericCustomNamespace/1.0/">
	<!ENTITY ns_adobe_xpath "http://ns.adobe.com/XPath/1.0/">
]>
<svg version="1.1" id="wallet" xmlns:x="&ns_extend;" xmlns:i="&ns_ai;" xmlns:graph="&ns_graphs;"
	 xmlns="http://www.w3.org/2000/svg" xmlns:xlink="http://www.w3.org/1999/xlink" x="0px" y="0px" viewBox="0 0 12.3 12.3"
	 style="enable-background:new 0 0 12.3 12.3;" xml:space="preserve">
<style type="text/css">
	.st0{fill-rule:evenodd;clip-rule:evenodd;fill:#E6F1FB;}
	.st1{fill:#FFFFFF;}
	.st2{fill:#FF9933;}
	.st3{fill:#128807;}
	.st4{fill:#000088;}
</style>
<metadata>
	<sfw  xmlns="&ns_sfw;">
		<slices></slices>
		<sliceSourceBounds  bottomLeftOrigin="true" height="12.3" width="12.3" x="16.8" y="16.8"></sliceSourceBounds>
	</sfw>
</metadata>
<g id="Слой_2">
	<path class="st0" d="M6.2,0c3.4,0,6.2,2.8,6.2,6.2s-2.8,6.2-6.2,6.2C2.8,12.3,0,9.6,0,6.2S2.8,0,6.2,0z"/>
	<g id="XMLID_6849_">
		<g id="XMLID_6856_">
			<path id="XMLID_6859_" class="st1" d="M10.7,6.2c0,0.5-0.1,1-0.3,1.5c-0.6,1.7-2.3,3-4.2,3s-3.6-1.3-4.2-3
				c-0.2-0.5-0.3-1-0.3-1.5c0-0.5,0.1-1,0.3-1.5c0.6-1.7,2.3-3,4.2-3s3.6,1.3,4.2,3C10.6,5.1,10.7,5.6,10.7,6.2z"/>
			<path id="XMLID_6858_" class="st2" d="M10.4,4.7H1.9c0.6-1.7,2.3-3,4.2-3S9.8,2.9,10.4,4.7z"/>
			<path id="XMLID_6857_" class="st3" d="M10.4,7.7c-0.6,1.7-2.3,3-4.2,3s-3.6-1.3-4.2-3H10.4z"/>
		</g>
		<g id="XMLID_6850_">
			<polygon id="XMLID_6855_" class="st4" points="6.3,6.3 6.3,6.3 6.3,6.3 6.3,6.3 6.3,6.3 6.3,6.3 6.3,6.3 6.3,6.3 6.3,6.3 
				6.5,6.4 7.1,6.7 6.5,6.3 6.3,6.3 6.3,6.2 6.3,6.2 6.3,6.2 6.3,6.2 6.4,6.2 6.4,6.2 6.4,6.2 6.4,6.2 6.4,6.2 6.4,6.2 6.5,6.3 
				7.2,6.4 6.6,6.2 6.4,6.2 6.4,6.2 6.4,6.2 6.4,6.2 6.4,6.2 6.4,6.2 6.4,6.2 6.4,6.2 6.4,6.2 6.4,6.2 6.4,6.2 6.6,6.2 7.2,6.2 
				6.6,6.1 6.4,6.1 6.4,6.1 6.4,6.1 6.4,6.1 6.4,6.1 6.4,6.1 6.4,6.1 6.4,6.1 6.4,6.1 6.4,6.1 6.4,6.1 6.6,6.1 7.2,5.9 6.5,6 
				6.4,6.1 6.4,6.1 6.4,6.1 6.4,6.1 6.4,6.1 6.4,6.1 6.3,6.1 6.3,6.1 6.3,6.1 6.3,6.1 6.3,6.1 6.5,6 7.1,5.6 6.5,5.9 6.3,6 6.3,6 
				6.3,6 6.3,6 6.3,6 6.3,6 6.3,6 6.3,6 6.3,6 6.3,6 6.3,6 6.5,5.9 6.9,5.4 6.4,5.8 6.3,6 6.3,6 6.3,6 6.3,6 6.3,6 6.3,6 6.3,6 
				6.3,6 6.3,6 6.3,6 6.3,6 6.4,5.8 6.7,5.3 6.3,5.8 6.3,6 6.2,6 6.2,6 6.2,6 6.2,6 6.2,6 6.2,6 6.2,6 6.2,6 6.2,6 6.2,6 6.3,5.8 
				6.4,5.1 6.2,5.7 6.2,6 6.2,6 6.2,6 6.2,5.9 6.2,5.9 6.2,5.9 6.2,5.9 6.2,5.9 6.2,5.9 6.2,5.9 6.2,5.9 6.2,5.7 6.2,5.1 6.1,5.7 
				6.1,5.9 6.1,5.9 6.1,5.9 6.1,5.9 6.1,5.9 6.1,5.9 6.1,5.9 6.1,5.9 6.1,6 6.1,6 6.1,6 6.1,5.7 5.9,5.1 6,5.8 6.1,6 6.1,6 6.1,6 
				6.1,6 6.1,6 6.1,6 6.1,6 6.1,6 6.1,6 6.1,6 6.1,6 6,5.8 5.6,5.3 5.9,5.8 6,6 6,6 6,6 6,6 6,6 6,6 6,6 6,6 6,6 6,6 6,6 5.9,5.8 
				5.4,5.4 5.8,5.9 6,6 6,6 6,6 6,6 6,6 6,6 6,6 6,6 6,6 6,6 6,6 5.8,5.9 5.3,5.6 5.8,6 6,6.1 6,6.1 6,6.1 6,6.1 6,6.1 6,6.1 6,6.1 
				6,6.1 6,6.1 6,6.1 6,6.1 5.8,6 5.1,5.9 5.7,6.1 6,6.1 6,6.1 6,6.1 5.9,6.1 5.9,6.1 5.9,6.1 5.9,6.1 5.9,6.1 5.9,6.1 5.9,6.1 
				5.9,6.1 5.7,6.1 5.1,6.2 5.7,6.2 5.9,6.2 5.9,6.2 5.9,6.2 5.9,6.2 5.9,6.2 5.9,6.2 5.9,6.2 5.9,6.2 6,6.2 6,6.2 6,6.2 5.7,6.2 
				5.1,6.4 5.8,6.3 6,6.2 6,6.2 6,6.2 6,6.2 6,6.2 6,6.2 6,6.2 6,6.2 6,6.2 6,6.2 6,6.3 5.8,6.3 5.3,6.7 5.8,6.4 6,6.3 6,6.3 6,6.3 
				6,6.3 6,6.3 6,6.3 6,6.3 6,6.3 6,6.3 6,6.3 6,6.3 5.8,6.4 5.4,6.9 5.9,6.5 6,6.3 6,6.3 6,6.3 6,6.3 6,6.3 6,6.3 6,6.3 6,6.3 
				6,6.3 6,6.3 6,6.3 5.9,6.5 5.6,7.1 6,6.5 6.1,6.3 6.1,6.3 6.1,6.3 6.1,6.3 6.1,6.3 6.1,6.4 6.1,6.4 6.1,6.4 6.1,6.4 6.1,6.4 
				6.1,6.4 6,6.5 5.9,7.2 6.1,6.6 6.1,6.4 6.1,6.4 6.1,6.4 6.1,6.4 6.1,6.4 6.1,6.4 6.1,6.4 6.1,6.4 6.1,6.4 6.1,6.4 6.1,6.4 
				6.1,6.6 6.2,7.2 6.2,6.6 6.2,6.4 6.2,6.4 6.2,6.4 6.2,6.4 6.2,6.4 6.2,6.4 6.2,6.4 6.2,6.4 6.2,6.4 6.2,6.4 6.2,6.4 6.2,6.6 
				6.4,7.2 6.3,6.5 6.2,6.4 6.2,6.4 6.2,6.4 6.2,6.4 6.2,6.4 6.2,6.4 6.2,6.3 6.2,6.3 6.2,6.3 6.2,6.3 6.3,6.3 6.3,6.5 6.7,7.1 
				6.4,6.5 6.3,6.3 6.3,6.3 6.3,6.3 6.3,6.3 6.3,6.3 6.3,6.3 6.3,6.3 6.3,6.3 6.3,6.3 6.3,6.3 6.3,6.3 6.4,6.5 6.9,6.9 6.5,6.4 
				6.3,6.3 6.3,6.3 			"/>
			<path id="XMLID_6851_" class="st4" d="M6.2,5C5.5,5,5,5.5,5,6.2s0.5,1.2,1.2,1.2s1.2-0.5,1.2-1.2S6.8,5,6.2,5z M7.2,6.3
				C7.2,6.3,7.2,6.4,7.2,6.3c0,0.1,0,0.1,0,0.2c0,0-0.1,0-0.1,0c0,0,0,0.1,0,0.1c0,0,0,0,0,0c0,0.1-0.1,0.1-0.1,0.1c0,0-0.1,0-0.1,0
				c0,0,0,0.1,0,0.1c0,0,0,0,0,0c0,0-0.1,0.1-0.1,0.1c0,0,0,0-0.1,0c0,0,0,0,0,0.1c0,0,0,0,0,0c0,0-0.1,0.1-0.1,0.1c0,0,0,0-0.1,0
				c0,0,0,0,0,0.1c0,0,0,0,0,0c-0.1,0-0.1,0-0.2,0c0,0,0,0-0.1,0c0,0-0.1,0-0.1,0.1c0,0,0,0,0,0c0,0-0.1,0-0.1,0c0,0-0.1,0-0.1,0
				c0,0,0-0.1,0-0.1c0,0-0.1,0-0.1,0c0,0,0,0,0,0c-0.1,0-0.1,0-0.2,0c0,0,0-0.1,0-0.1c0,0-0.1,0-0.1,0c0,0,0,0,0,0
				C5.7,7.1,5.6,7.1,5.6,7c0,0,0-0.1,0-0.1c0,0-0.1,0-0.1,0c0,0,0,0,0,0c0,0-0.1-0.1-0.1-0.1c0,0,0,0,0-0.1c0,0,0,0-0.1,0
				c0,0,0,0,0,0c0,0-0.1-0.1-0.1-0.1c0,0,0,0,0-0.1c0,0,0,0-0.1,0c0,0,0,0,0,0c0-0.1,0-0.1,0-0.2c0,0,0,0,0-0.1c0,0,0-0.1-0.1-0.1
				c0,0,0,0,0,0c0,0,0-0.1,0-0.1c0,0,0-0.1,0-0.1c0,0,0.1,0,0.1,0c0,0,0-0.1,0-0.1c0,0,0,0,0,0c0-0.1,0-0.1,0-0.2c0,0,0.1,0,0.1,0
				c0,0,0-0.1,0-0.1c0,0,0,0,0,0c0-0.1,0.1-0.1,0.1-0.1c0,0,0.1,0,0.1,0c0,0,0-0.1,0-0.1c0,0,0,0,0,0c0,0,0.1-0.1,0.1-0.1
				c0,0,0,0,0.1,0c0,0,0,0,0-0.1c0,0,0,0,0,0c0,0,0.1-0.1,0.1-0.1c0,0,0,0,0.1,0c0,0,0,0,0-0.1c0,0,0,0,0,0c0.1,0,0.1,0,0.2,0
				c0,0,0,0,0.1,0c0,0,0.1,0,0.1-0.1c0,0,0,0,0,0c0,0,0.1,0,0.1,0c0,0,0.1,0,0.1,0c0,0,0,0.1,0,0.1c0,0,0.1,0,0.1,0c0,0,0,0,0,0
				c0.1,0,0.1,0,0.2,0c0,0,0,0.1,0,0.1c0,0,0.1,0,0.1,0c0,0,0,0,0,0c0.1,0,0.1,0.1,0.1,0.1c0,0,0,0.1,0,0.1c0,0,0.1,0,0.1,0
				c0,0,0,0,0,0c0,0,0.1,0.1,0.1,0.1c0,0,0,0,0,0.1c0,0,0,0,0.1,0c0,0,0,0,0,0c0,0,0.1,0.1,0.1,0.1c0,0,0,0,0,0.1c0,0,0,0,0.1,0
				c0,0,0,0,0,0c0,0.1,0,0.1,0,0.2c0,0,0,0,0,0.1c0,0,0,0.1,0.1,0.1c0,0,0,0,0,0c0,0,0,0.1,0,0.1c0,0,0,0.1,0,0.1
				C7.2,6.2,7.2,6.3,7.2,6.3C7.1,6.3,7.2,6.3,7.2,6.3z"/>
		</g>
	</g>
</g>
</svg>
