<?xml version="1.0" encoding="utf-8"?>
<!-- Generator: Adobe Illustrator 24.3.0, SVG Export Plug-In . SVG Version: 6.00 Build 0)  -->
<!DOCTYPE svg PUBLIC "-//W3C//DTD SVG 1.1//EN" "http://www.w3.org/Graphics/SVG/1.1/DTD/svg11.dtd" [
	<!ENTITY ns_extend "http://ns.adobe.com/Extensibility/1.0/">
	<!ENTITY ns_ai "http://ns.adobe.com/AdobeIllustrator/10.0/">
	<!ENTITY ns_graphs "http://ns.adobe.com/Graphs/1.0/">
	<!ENTITY ns_vars "http://ns.adobe.com/Variables/1.0/">
	<!ENTITY ns_imrep "http://ns.adobe.com/ImageReplacement/1.0/">
	<!ENTITY ns_sfw "http://ns.adobe.com/SaveForWeb/1.0/">
	<!ENTITY ns_custom "http://ns.adobe.com/GenericCustomNamespace/1.0/">
	<!ENTITY ns_adobe_xpath "http://ns.adobe.com/XPath/1.0/">
]>
<svg version="1.1" id="wallet" xmlns:x="&ns_extend;" xmlns:i="&ns_ai;" xmlns:graph="&ns_graphs;"
	 xmlns="http://www.w3.org/2000/svg" xmlns:xlink="http://www.w3.org/1999/xlink" x="0px" y="0px" viewBox="0 0 12.3 12.3"
	 style="enable-background:new 0 0 12.3 12.3;" xml:space="preserve">
<style type="text/css">
	.st0{fill-rule:evenodd;clip-rule:evenodd;fill:#E6F1FB;}
	.st1{fill:#DD2911;}
	.st2{fill:#FEDD19;}
</style>
<metadata>
	<sfw  xmlns="&ns_sfw;">
		<slices></slices>
		<sliceSourceBounds  bottomLeftOrigin="true" height="12.3" width="12.3" x="16.8" y="16.8"></sliceSourceBounds>
	</sfw>
</metadata>
<g id="Слой_2">
	<path class="st0" d="M6.2,0c3.4,0,6.2,2.8,6.2,6.2s-2.8,6.2-6.2,6.2C2.8,12.3,0,9.6,0,6.2S2.8,0,6.2,0z"/>
	<g id="XMLID_3773_">
		<g id="XMLID_3780_">
			<circle id="XMLID_3781_" class="st1" cx="6.2" cy="6.2" r="4.5"/>
		</g>
		<g id="XMLID_3774_">
			<polygon id="XMLID_3779_" class="st2" points="4.2,3.3 4.5,4.1 5.3,4.1 4.7,4.6 4.9,5.4 4.2,4.9 3.6,5.4 3.8,4.6 3.1,4.1 4,4.1 
							"/>
			<polygon id="XMLID_3778_" class="st2" points="6.3,2.9 6.3,3.2 6.5,3.3 6.3,3.4 6.2,3.7 6.1,3.4 5.8,3.5 6,3.3 5.9,3 6.1,3.1 			
				"/>
			<polygon id="XMLID_3777_" class="st2" points="7.2,3.8 7.1,4 7.2,4.2 7,4.2 6.8,4.4 6.8,4.2 6.5,4.1 6.8,4 6.7,3.7 6.9,3.9 			
				"/>
			<polygon id="XMLID_3776_" class="st2" points="7.3,5.1 7.1,5.2 7.1,5.5 6.9,5.3 6.7,5.5 6.8,5.2 6.5,5.1 6.8,5.1 6.9,4.8 7,5.1 
							"/>
			<polygon id="XMLID_3775_" class="st2" points="6.5,6 6.3,6.1 6.2,6.3 6.1,6.1 5.8,6.2 6,6 5.8,5.7 6.1,5.8 6.3,5.6 6.3,5.9 			
				"/>
		</g>
	</g>
</g>
</svg>
