<?xml version="1.0" encoding="utf-8"?>
<!-- Generator: Adobe Illustrator 24.3.0, SVG Export Plug-In . SVG Version: 6.00 Build 0)  -->
<!DOCTYPE svg PUBLIC "-//W3C//DTD SVG 1.1//EN" "http://www.w3.org/Graphics/SVG/1.1/DTD/svg11.dtd" [
	<!ENTITY ns_extend "http://ns.adobe.com/Extensibility/1.0/">
	<!ENTITY ns_ai "http://ns.adobe.com/AdobeIllustrator/10.0/">
	<!ENTITY ns_graphs "http://ns.adobe.com/Graphs/1.0/">
	<!ENTITY ns_vars "http://ns.adobe.com/Variables/1.0/">
	<!ENTITY ns_imrep "http://ns.adobe.com/ImageReplacement/1.0/">
	<!ENTITY ns_sfw "http://ns.adobe.com/SaveForWeb/1.0/">
	<!ENTITY ns_custom "http://ns.adobe.com/GenericCustomNamespace/1.0/">
	<!ENTITY ns_adobe_xpath "http://ns.adobe.com/XPath/1.0/">
]>
<svg version="1.1" id="wallet" xmlns:x="&ns_extend;" xmlns:i="&ns_ai;" xmlns:graph="&ns_graphs;"
	 xmlns="http://www.w3.org/2000/svg" xmlns:xlink="http://www.w3.org/1999/xlink" x="0px" y="0px" viewBox="0 0 46 46"
	 style="enable-background:new 0 0 46 46;" xml:space="preserve">
<style type="text/css">
	.st0{fill-rule:evenodd;clip-rule:evenodd;fill:#FFFFFF;}
	.st1{fill-rule:evenodd;clip-rule:evenodd;fill:#007BE4;}
</style>
<metadata>
	<sfw  xmlns="&ns_sfw;">
		<slices></slices>
		<sliceSourceBounds  bottomLeftOrigin="true" height="42.9" width="42.9" x="-9.5" y="-11"></sliceSourceBounds>
	</sfw>
</metadata>
<path class="st0" d="M23,3.1c11.8,0,21.5,9.6,21.5,21.5C44.5,36.4,34.9,46,23,46C11.2,46,1.6,36.4,1.6,24.6
	C1.6,12.7,11.2,3.1,23,3.1z"/>
<path id="_3_копия_2" class="st1" d="M35,27.6c-1.6,6.6-8.2,10.7-14.9,9.2H20c-6.6-1.8-10.7-8.6-9-15.3
	c1.6-6.6,8.2-10.7,14.9-9.2H26C32.7,14.1,36.7,20.9,35,27.6L35,27.6L35,27.6z M28.5,22.8c0.2-1.7-1-2.6-2.7-3.2l0.6-2.3L24.9,17
	l-0.5,2.2c-0.4-0.1-0.7-0.2-1.1-0.3l0.5-2.2l-1.4-0.3l-0.6,2.3c-0.3-0.1-0.6-0.1-0.9-0.2l0,0l-1.7-0.6l-0.4,1.5l1,0.2
	c0.4,0.1,0.7,0.4,0.6,0.8L19.8,23h0.1h-0.1l-0.9,3.6c0,0.3-0.3,0.5-0.6,0.4l0,0l-1-0.2l-0.7,1.6l1.8,0.4c0.3,0.1,0.6,0.2,1,0.3
	l-0.6,2.3l1.4,0.3l0.6-2.3c0.4,0.1,0.7,0.2,1.1,0.3L21.3,32l1.4,0.3l0.6-2.3c2.3,0.4,4.1,0.3,4.8-1.9c0.6-1.2,0.1-2.7-1.1-3.3
	c-0.1,0-0.1-0.1-0.2-0.1C27.7,24.6,28.4,23.8,28.5,22.8L28.5,22.8L28.5,22.8z M25.4,27.2c-0.4,1.7-3.3,0.8-4.2,0.6l0.7-3
	C22.8,24.9,25.8,25.4,25.4,27.2L25.4,27.2z M25.8,22.7c-0.4,1.6-2.7,0.8-3.5,0.6l0.7-2.8C23.7,20.8,26.2,21.1,25.8,22.7L25.8,22.7
	L25.8,22.7z"/>
</svg>
