<?xml version="1.0" encoding="utf-8"?>
<!-- Generator: Adobe Illustrator 24.3.0, SVG Export Plug-In . SVG Version: 6.00 Build 0)  -->
<!DOCTYPE svg PUBLIC "-//W3C//DTD SVG 1.1//EN" "http://www.w3.org/Graphics/SVG/1.1/DTD/svg11.dtd" [
	<!ENTITY ns_extend "http://ns.adobe.com/Extensibility/1.0/">
	<!ENTITY ns_ai "http://ns.adobe.com/AdobeIllustrator/10.0/">
	<!ENTITY ns_graphs "http://ns.adobe.com/Graphs/1.0/">
	<!ENTITY ns_vars "http://ns.adobe.com/Variables/1.0/">
	<!ENTITY ns_imrep "http://ns.adobe.com/ImageReplacement/1.0/">
	<!ENTITY ns_sfw "http://ns.adobe.com/SaveForWeb/1.0/">
	<!ENTITY ns_custom "http://ns.adobe.com/GenericCustomNamespace/1.0/">
	<!ENTITY ns_adobe_xpath "http://ns.adobe.com/XPath/1.0/">
]>
<svg version="1.1" id="wallet" xmlns:x="&ns_extend;" xmlns:i="&ns_ai;" xmlns:graph="&ns_graphs;"
	 xmlns="http://www.w3.org/2000/svg" xmlns:xlink="http://www.w3.org/1999/xlink" x="0px" y="0px" viewBox="0 0 46 46"
	 style="enable-background:new 0 0 46 46;" xml:space="preserve">
<style type="text/css">
	.st0{fill-rule:evenodd;clip-rule:evenodd;fill:#FFFFFF;}
	.st1{fill-rule:evenodd;clip-rule:evenodd;fill:#007BE4;}
</style>
<metadata>
	<sfw  xmlns="&ns_sfw;">
		<slices></slices>
		<sliceSourceBounds  bottomLeftOrigin="true" height="42.9" width="42.9" x="-9.5" y="-11"></sliceSourceBounds>
	</sfw>
</metadata>
<path class="st0" d="M23,3.1c11.8,0,21.5,9.6,21.5,21.5C44.5,36.4,34.9,46,23,46C11.2,46,1.6,36.4,1.6,24.6
	C1.6,12.7,11.2,3.1,23,3.1z"/>
<path id="_6_копия_2" class="st1" d="M24.3,12c0.5,0.1,1.1,0.2,1.6,0.3c6.7,1.5,10.9,8.2,9.4,15c-1.2,5.1-5.4,8.9-10.6,9.6
	c-0.1,0-0.2,0.1-0.4,0.1h-2.5c-0.1,0-0.2-0.1-0.3-0.1c-5.3-0.7-9.6-4.6-10.7-9.8c-0.1-0.5-0.2-0.9-0.3-1.4v-2.5
	c0-0.1,0.1-0.2,0.1-0.3c0.7-5.2,4.5-9.5,9.7-10.6c0.5-0.1,1-0.2,1.5-0.3H24.3L24.3,12z M16.9,30.9h12.4c0.3-1.1,0.6-2.1,0.9-3.2
	h-7.5c0.2-0.9,0.5-1.6,0.6-2.4c0.1-0.5,0.4-0.9,0.9-1c0.3,0,0.5-0.2,0.7-0.4c0.3-0.7,0.4-1.5,0.6-2.3L24.2,22l1.5-5.6
	c-1.5,0-3,0-4.4,0c-0.3-0.1-0.6,0.2-0.7,0.5c0,0,0,0,0,0.1c-0.6,2-1.2,4.1-1.7,6.2c-0.1,0.5-0.5,0.9-1,1.1c-0.3,0-0.5,0.2-0.7,0.4
	c-0.3,0.7-0.4,1.5-0.6,2.3l1.4-0.5L16.9,30.9z"/>
</svg>
