<?xml version="1.0" encoding="utf-8"?>
<!-- Generator: Adobe Illustrator 24.3.0, SVG Export Plug-In . SVG Version: 6.00 Build 0)  -->
<!DOCTYPE svg PUBLIC "-//W3C//DTD SVG 1.1//EN" "http://www.w3.org/Graphics/SVG/1.1/DTD/svg11.dtd" [
	<!ENTITY ns_extend "http://ns.adobe.com/Extensibility/1.0/">
	<!ENTITY ns_ai "http://ns.adobe.com/AdobeIllustrator/10.0/">
	<!ENTITY ns_graphs "http://ns.adobe.com/Graphs/1.0/">
	<!ENTITY ns_vars "http://ns.adobe.com/Variables/1.0/">
	<!ENTITY ns_imrep "http://ns.adobe.com/ImageReplacement/1.0/">
	<!ENTITY ns_sfw "http://ns.adobe.com/SaveForWeb/1.0/">
	<!ENTITY ns_custom "http://ns.adobe.com/GenericCustomNamespace/1.0/">
	<!ENTITY ns_adobe_xpath "http://ns.adobe.com/XPath/1.0/">
]>
<svg version="1.1" id="wallet" xmlns:x="&ns_extend;" xmlns:i="&ns_ai;" xmlns:graph="&ns_graphs;"
	 xmlns="http://www.w3.org/2000/svg" xmlns:xlink="http://www.w3.org/1999/xlink" x="0px" y="0px" viewBox="0 0 46 46"
	 style="enable-background:new 0 0 46 46;" xml:space="preserve">
<style type="text/css">
	.st0{fill-rule:evenodd;clip-rule:evenodd;fill:#FFFFFF;}
	.st1{fill-rule:evenodd;clip-rule:evenodd;fill:#007BE4;}
</style>
<metadata>
	<sfw  xmlns="&ns_sfw;">
		<slices></slices>
		<sliceSourceBounds  bottomLeftOrigin="true" height="46.1" width="42.9" x="-9.5" y="-11"></sliceSourceBounds>
	</sfw>
</metadata>
<path class="st0" d="M23,3.1c11.8,0,21.5,9.6,21.5,21.5C44.5,36.4,34.9,46,23,46C11.2,46,1.6,36.4,1.6,24.6
	C1.6,12.7,11.2,3.1,23,3.1z"/>
<path id="Фигура_774_1" class="st1" d="M34.1,9.8H11.9C9.2,9.8,7,7.6,7,4.9S9.2,0,11.9,0h22.2C36.8,0,39,2.2,39,4.9
	S36.8,9.8,34.1,9.8z M13.9,2H9v1.1h1.9v4.6H12V3.1h1.9V2z M19.6,4c0-0.6-0.2-1.1-0.6-1.5C18.5,2.2,17.9,2,17.2,2h-2.4v5.6H16V6h1.2
	l1.2,1.6h1.4l-1.4-1.8C19.2,5.6,19.6,4.8,19.6,4L19.6,4z M22.2,3.5c0.9-0.7,2.2-0.6,3,0.3L26.1,3c-0.6-0.7-1.6-1.1-2.6-1.1
	c-0.8,0-1.6,0.2-2.2,0.8S20.4,4,20.5,4.8c0,0.8,0.3,1.6,0.8,2.1c0.6,0.5,1.4,0.8,2.2,0.8c1,0.1,1.9-0.3,2.6-1.1l-0.9-0.7
	c-0.4,0.5-1,0.8-1.6,0.7c-0.5,0-1-0.2-1.4-0.5c-0.4-0.4-0.5-0.9-0.5-1.4C21.7,4.3,21.8,3.8,22.2,3.5L22.2,3.5z M31.3,6.6H28
	c0-0.1,0.1-0.1,0.1-0.1l0.2-0.1c0.1-0.1,0.1-0.1,0.2-0.1l0.2-0.1L29,6l0.3-0.2c0.3-0.2,0.5-0.3,0.6-0.4c0.2-0.1,0.3-0.2,0.5-0.4
	c0.2-0.1,0.3-0.3,0.4-0.4S31,4.3,31,4.1c0.1-0.2,0.1-0.4,0.1-0.6c0-0.5-0.2-0.9-0.6-1.2c-0.5-0.3-1-0.4-1.6-0.4S27.7,2,27.2,2.4
	c-0.4,0.4-0.6,0.9-0.6,1.4V4h1.1V3.9c0-0.3,0.1-0.5,0.3-0.7c0.5-0.3,1.1-0.4,1.6-0.1C29.9,3.2,30,3.4,30,3.6c0,0.3-0.1,0.5-0.3,0.7
	c-0.4,0.3-0.7,0.6-1.2,0.8c-0.5,0.3-0.9,0.6-1.3,1c-0.3,0.3-0.4,0.7-0.4,1.1v0.3h4.5L31.3,6.6L31.3,6.6z M36.7,2.7c-1.1-1-2.8-1-4,0
	c-0.5,0.6-0.8,1.4-0.7,2.1c0,0.8,0.2,1.5,0.7,2.1c1.1,1,2.8,1,4,0c0.5-0.6,0.8-1.4,0.7-2.1C37.5,4.1,37.2,3.3,36.7,2.7L36.7,2.7z
	 M34.8,6.7c-0.4,0-0.8-0.2-1.1-0.5c-0.3-0.4-0.4-0.9-0.4-1.4s0.1-1,0.4-1.4c0.3-0.3,0.7-0.5,1.1-0.5c0.4,0,0.8,0.2,1.1,0.5
	c0.3,0.4,0.4,0.9,0.4,1.4s-0.1,1-0.4,1.4C35.6,6.6,35.2,6.7,34.8,6.7L34.8,6.7z M17,5.1h-1V3h1.1c0.6-0.1,1.1,0.2,1.2,0.8
	c0,0.1,0,0.2,0,0.3c0,0.3-0.1,0.6-0.3,0.7C17.7,5,17.4,5.1,17,5.1z M23.2,12.6c6.7,0.1,12.1,5.5,12.1,12.3C35.2,31.6,29.8,37,23,37
	c-6.7-0.1-12.1-5.5-12.1-12.2C11,18.1,16.5,12.6,23.2,12.6z M21.5,26.6v6.1h3.2v-6.1c3.5-0.2,6.2-0.9,6.2-1.7s-2.7-1.5-6.2-1.7l0,0
	v-1.9H29v-2.9H17.1v2.9h4.4v1.9c-3.6,0.2-6.2,0.9-6.2,1.7S18,26.4,21.5,26.6z M21.5,23.4v2.1c0.2,0,0.8,0,1.6,0c1,0,1.5,0,1.6,0
	v-2.1c3.1,0.1,5.5,0.7,5.5,1.3s-2.3,1.2-5.5,1.3l0,0c-0.1,0-0.5,0-1.6,0c-0.8,0-1.4,0-1.6,0l0,0c-3.1-0.1-5.5-0.7-5.5-1.3
	S18.4,23.5,21.5,23.4L21.5,23.4z"/>
</svg>
