<?xml version="1.0" encoding="utf-8"?>
<!-- Generator: Adobe Illustrator 24.3.0, SVG Export Plug-In . SVG Version: 6.00 Build 0)  -->
<!DOCTYPE svg PUBLIC "-//W3C//DTD SVG 1.1//EN" "http://www.w3.org/Graphics/SVG/1.1/DTD/svg11.dtd" [
	<!ENTITY ns_extend "http://ns.adobe.com/Extensibility/1.0/">
	<!ENTITY ns_ai "http://ns.adobe.com/AdobeIllustrator/10.0/">
	<!ENTITY ns_graphs "http://ns.adobe.com/Graphs/1.0/">
	<!ENTITY ns_vars "http://ns.adobe.com/Variables/1.0/">
	<!ENTITY ns_imrep "http://ns.adobe.com/ImageReplacement/1.0/">
	<!ENTITY ns_sfw "http://ns.adobe.com/SaveForWeb/1.0/">
	<!ENTITY ns_custom "http://ns.adobe.com/GenericCustomNamespace/1.0/">
	<!ENTITY ns_adobe_xpath "http://ns.adobe.com/XPath/1.0/">
]>
<svg version="1.1" id="wallet" xmlns:x="&ns_extend;" xmlns:i="&ns_ai;" xmlns:graph="&ns_graphs;"
	 xmlns="http://www.w3.org/2000/svg" xmlns:xlink="http://www.w3.org/1999/xlink" x="0px" y="0px" viewBox="0 0 46 46"
	 style="enable-background:new 0 0 46 46;" xml:space="preserve">
<style type="text/css">
	.st0{fill-rule:evenodd;clip-rule:evenodd;fill:#FFFFFF;}
	.st1{fill-rule:evenodd;clip-rule:evenodd;fill:#007BE4;}
</style>
<metadata>
	<sfw  xmlns="&ns_sfw;">
		<slices></slices>
		<sliceSourceBounds  bottomLeftOrigin="true" height="46" width="42.9" x="-9.5" y="-11"></sliceSourceBounds>
	</sfw>
</metadata>
<path class="st0" d="M23,3.1c11.8,0,21.5,9.6,21.5,21.5C44.5,36.4,34.9,46,23,46C11.2,46,1.6,36.4,1.6,24.6
	C1.6,12.7,11.2,3.1,23,3.1z"/>
<path id="Фигура_771_1" class="st1" d="M33.6,9.7H12.3C9.6,9.6,7.5,7.5,7.5,4.8C7.5,2.2,9.6,0,12.3,0h21.4
	c2.6,0,4.8,2.2,4.8,4.8C38.4,7.5,36.3,9.6,33.6,9.7z M14.9,5.1c-0.3-0.3-0.6-0.5-0.9-0.5c0.5-0.2,0.8-0.7,0.8-1.2
	c0-0.4-0.2-0.8-0.5-1C13.9,2.1,13.4,2,12.9,2h-2.5v5.5h2.7c1.4,0,2.1-0.5,2.1-1.6C15.2,5.6,15.1,5.3,14.9,5.1z M20.4,6.6h-3.1V5.3
	h2.5V4.4h-2.5V3h3V2h-4.1v5.5h4.2L20.4,6.6L20.4,6.6z M25.3,2.5c-0.5-0.4-1.1-0.6-1.7-0.5h-2.3v5.5h1.2V6.1h1c1.6,0,2.4-0.7,2.4-2
	C26,3.5,25.8,2.9,25.3,2.5L25.3,2.5z M30.9,6.6h-3.1c0-0.1,0.1-0.1,0.1-0.1L28,6.4c0.1-0.1,0.1-0.1,0.2-0.1c0.1-0.1,0.2-0.1,0.2-0.1
	L28.7,6L29,5.8c0.3-0.2,0.5-0.3,0.6-0.4c0.2-0.1,0.3-0.2,0.5-0.4c0.2-0.2,0.4-0.3,0.5-0.5c0.1-0.1,0.2-0.3,0.2-0.5
	c0.1-0.2,0.1-0.4,0.1-0.6c0-0.5-0.2-0.9-0.6-1.2c-0.5-0.3-1-0.4-1.5-0.4c-0.6,0-1.2,0.1-1.6,0.5c-0.5,0.5-0.7,1-0.7,1.5V4h1.1V3.9
	c0-0.3,0.1-0.5,0.3-0.7c0.4-0.3,1-0.4,1.5-0.1c0.2,0.1,0.3,0.3,0.3,0.5c0,0.3-0.1,0.5-0.3,0.7c-0.3,0.3-0.7,0.6-1.1,0.8
	c-0.5,0.3-0.9,0.6-1.3,1c-0.3,0.3-0.4,0.7-0.4,1.1v0.3H31V6.6H30.9z M36.2,2.7c-1.1-1-2.8-1-3.8,0c-0.5,0.6-0.7,1.3-0.7,2.1
	s0.2,1.5,0.7,2.1c1.1,1,2.8,1,3.8,0c0.5-0.6,0.7-1.3,0.7-2.1C37,4,36.7,3.3,36.2,2.7L36.2,2.7z M34.3,6.6c-0.4,0-0.8-0.2-1.1-0.5
	s-0.4-0.8-0.4-1.3s0.1-1,0.4-1.4c0.3-0.3,0.7-0.5,1.1-0.5c0.4,0,0.8,0.2,1.1,0.5c0.2,0.4,0.4,0.9,0.4,1.4s-0.1,1-0.4,1.4
	C35.1,6.5,34.7,6.7,34.3,6.6z M23.5,5.1h-1V3h1.1c0.5-0.1,1.1,0.2,1.2,0.8c0,0.1,0,0.2,0,0.3c0,0.6-0.4,1.1-1,1.1
	C23.7,5.1,23.6,5.1,23.5,5.1z M13.1,6.6h-1.6V5.2H13c0.7,0,1.1,0.2,1.1,0.7C14,6.4,13.7,6.6,13.1,6.6z M12.8,4.3h-1.3V3h1.4
	c0.2,0,0.4,0,0.6,0.2c0.1,0.1,0.2,0.3,0.2,0.5c0,0.4-0.3,0.7-0.7,0.7C12.9,4.3,12.8,4.3,12.8,4.3z M23.2,12.5
	c6.6-0.1,12.1,5.2,12.2,11.8c0.1,6.6-5.3,12.1-11.9,12.2c-6.6,0.1-12.1-5.2-12.2-11.8c0-0.1,0-0.1,0-0.2
	C11.3,17.9,16.6,12.5,23.2,12.5z M21.5,26.2v6h3v-6c3.4-0.2,6-0.9,6-1.7s-2.6-1.5-6-1.7l0,0v-1.9h4.2V18H17.3v2.9h4.2v1.9
	c-3.4,0.2-6,0.9-6,1.7S18.1,26.1,21.5,26.2z M21.5,23.1v2.1c0.2,0,0.8,0,1.5,0c0.9,0,1.4,0,1.5,0v-2.1c3,0.1,5.3,0.7,5.3,1.3
	s-2.3,1.2-5.3,1.3l0,0c-0.1,0-0.5,0-1.5,0c-0.8,0-1.3,0-1.5,0l0,0c-3-0.1-5.3-0.7-5.3-1.3S18.5,23.2,21.5,23.1L21.5,23.1z"/>
</svg>
