<?xml version="1.0" standalone="no"?>
<!DOCTYPE svg PUBLIC "-//W3C//DTD SVG 1.1//EN" "http://www.w3.org/Graphics/SVG/1.1/DTD/svg11.dtd" >
<svg xmlns="http://www.w3.org/2000/svg">
<metadata>Generated by IcoMoon</metadata>
<defs>
<font id="icomoon" horiz-adv-x="1024">
<font-face units-per-em="1024" ascent="960" descent="-64" />
<missing-glyph horiz-adv-x="1024" />
<glyph unicode="&#x20;" horiz-adv-x="512" d="" />
<glyph unicode="&#xe900;" glyph-name="add-2" d="M512 960c-282.334 0-512-229.666-512-512s229.666-512 512-512 512 229.706 512 512-229.666 512-512 512zM512 15.318c-238.55 0-432.682 194.092-432.682 432.682s194.132 432.682 432.682 432.682 432.682-194.092 432.682-432.682-194.092-432.682-432.682-432.682zM710.296 491.228h-158.636v158.636c0 21.892-17.728 39.66-39.66 39.66s-39.66-17.768-39.66-39.66v-158.636h-158.636c-21.932 0-39.66-17.768-39.66-39.66s17.728-39.66 39.66-39.66h158.636v-158.636c0-21.892 17.728-39.66 39.66-39.66s39.66 17.768 39.66 39.66v158.636h158.636c21.932 0 39.66 17.768 39.66 39.66s-17.728 39.66-39.66 39.66z" />
<glyph unicode="&#xe901;" glyph-name="antivirus-1" d="M903.937 603.398c8.284 0 15.001 6.714 15.001 15.001v144.907c0 29.627-23.095 54.016-52.58 55.522-177.898 9.058-273.512 81.812-314.67 124.372-10.476 10.834-24.571 16.801-39.688 16.801s-29.211-5.966-39.684-16.799c-41.162-42.56-136.776-115.313-314.678-124.374-29.481-1.506-52.576-25.893-52.576-55.522v-418.221c0-120.447 64.805-232.688 169.13-292.923l169.706-97.962c21.007-12.135 44.552-18.201 68.105-18.201 23.547 0 47.1 6.066 68.101 18.199l169.71 97.962c104.321 60.235 169.128 172.476 169.128 292.923v203.309c0 8.286-6.716 15.001-15.001 15.001s-15.001-6.714-15.001-15.001v-203.309c0-109.763-59.059-212.050-154.127-266.942l-169.712-97.964c-32.751-18.919-73.447-18.917-106.203 0.002l-169.708 97.962c-95.068 54.892-154.127 157.179-154.127 266.942v418.223c0 13.641 10.588 24.869 24.103 25.559 188.178 9.582 290.481 87.742 334.717 133.48 4.77 4.934 11.205 7.652 18.117 7.652s13.347-2.718 18.119-7.654c44.232-45.736 146.535-123.896 334.711-133.478 13.519-0.692 24.107-11.919 24.107-25.559v-144.907c0-8.286 6.716-15.001 15.001-15.001zM200.885 563.396c-8.284 0-15.001-6.714-15.001-15.001v-203.309c0-91.66 49.316-177.086 128.706-222.94l169.714-97.966c8.424-4.858 18.001-7.426 27.695-7.426s19.271 2.568 27.701 7.43l169.712 97.964c79.388 45.852 128.704 131.278 128.704 222.938v362.936c0 17.709-13.215 32.715-30.729 34.906-134.544 16.923-223.052 68.037-273.628 107.951-12.811 10.078-30.705 10.078-43.532-0.014-50.558-39.9-139.068-91.014-273.598-107.935-17.525-2.192-30.741-17.199-30.741-34.908v-89.624c0-8.286 6.716-15.001 15.001-15.001s15.001 6.714 15.001 15.001v89.624c0 2.612 1.916 4.82 4.472 5.138 141.39 17.785 234.903 71.891 288.435 114.137 1.884 1.486 4.52 1.488 6.394 0.014 53.548-42.26 147.061-96.368 288.465-114.153 2.542-0.316 4.46-2.526 4.46-5.136v-362.936c0-80.98-43.57-156.451-113.703-196.959l-169.702-97.96c-7.746-4.468-17.675-4.464-25.409-0.004l-169.706 97.962c-70.135 40.51-113.707 115.979-113.707 196.961v203.309c-0.002 8.286-6.716 15.001-15.003 15.001zM330.161 483.199c12.183 0 23.633-4.742 32.245-13.355l78.384-78.364c5.86-5.86 15.355-5.856 21.213 0l85.864 85.864c5.858 5.86 5.858 15.357 0 21.215-5.858 5.856-15.357 5.856-21.213 0l-75.257-75.259-67.775 67.757c-14.277 14.279-33.261 22.141-53.458 22.141s-39.182-7.864-53.458-22.139c-14.287-14.289-22.155-33.279-22.155-53.476 0-20.203 7.87-39.19 22.155-53.462l121.215-121.215c14.269-14.293 33.259-22.163 53.478-22.163 20.205 0 39.19 7.872 53.448 22.153l242.445 242.449c14.291 14.279 22.161 33.265 22.161 53.464s-7.868 39.19-22.155 53.476c-14.277 14.277-33.261 22.137-53.458 22.137s-39.182-7.862-53.458-22.137l-64.223-64.221c-5.858-5.86-5.858-15.357 0-21.215 5.858-5.856 15.357-5.856 21.213 0l64.223 64.223c8.61 8.61 20.061 13.351 32.245 13.351s23.633-4.74 32.245-13.353c8.62-8.62 13.369-20.077 13.369-32.261 0-12.183-4.746-23.631-13.369-32.245l-242.461-242.463c-8.6-8.614-20.045-13.359-32.225-13.359-12.195 0-23.647 4.744-32.255 13.369l-121.229 121.229c-8.616 8.61-13.363 20.061-13.363 32.243 0 12.185 4.748 23.641 13.369 32.261 8.608 8.612 20.059 13.355 32.241 13.355z" />
<glyph unicode="&#xe902;" glyph-name="arrow-down-sign-to-navigate-5" d="M511.999 156.146c-18.352 0-36.702 7.007-50.694 20.992l-440.297 440.301c-28.009 28.009-28.009 73.42 0 101.417 27.997 27.997 73.399 27.997 101.41 0l389.58-389.603 389.583 389.589c28.009 27.997 73.406 27.997 101.401 0 28.022-27.997 28.022-73.408 0-101.417l-440.29-440.301c-13.999-13.987-32.349-20.979-50.694-20.979z" />
<glyph unicode="&#xe903;" glyph-name="bell" d="M936 176h-40c-20.768 0-37.418 7.218-49.49 21.456-14.726 17.368-22.51 44.772-22.51 79.252v275.292c0 157.636-119.086 289.554-272 309.398v98.602h-80v-98.602c-152.914-19.844-272-151.76-272-309.398v-288c0-28.35-7.468-51.55-21.598-67.092-12.434-13.678-29.862-20.908-50.402-20.908h-40v-112h322.826c-1.83-7.71-2.826-15.738-2.826-24 0-57.346 46.654-104 104-104s104 46.654 104 104c0 8.262-0.998 16.29-2.826 24h322.826v112zM512 16c-13.234 0-24 10.766-24 24s10.766 24 24 24 24-10.766 24-24-10.766-24-24-24zM238.416 144c27.21 30.432 41.584 71.896 41.584 120v288c0 126.134 102.526 230.144 228.604 231.974h6.792c126.078-1.83 228.604-105.84 228.604-231.974v-275.292c0-53.68 14.348-98.976 41.49-130.988 0.49-0.578 0.984-1.152 1.482-1.72h-548.556z" />
<glyph unicode="&#xe904;" glyph-name="big-skype-logo" d="M991.986 351.499c5.813 30.268 8.758 61.033 8.758 91.541 0 266.685-217.023 483.649-483.782 483.649-22.994 0-46.257-1.666-69.248-4.956-44.274 25.050-94.392 38.266-145.361 38.266-163.040 0-295.684-132.661-295.684-295.726 0-47.707 11.696-95.068 33.878-137.387-4.837-27.601-7.287-55.774-7.287-83.843 0-266.713 216.989-483.702 483.698-483.702 25.678 0 51.317 2.014 76.298 5.991 39.82-19.206 84.083-29.33 128.399-29.33 163.037 0 295.677 132.647 295.677 295.695-0.010 41.779-8.531 82.052-25.347 119.801zM502.050 514.010c6.573-2.129 13.292-4.307 20.14-6.576 9.023-2.983 18.467-5.911 27.601-8.74 37.809-11.713 76.904-23.827 108.869-46.546 42.144-29.957 63.515-72.367 63.515-126.043 0-49.317-21.806-92.402-61.403-121.31-35.384-25.835-84.136-39.489-140.98-39.489-169.784 0-210.562 99.78-219.017 130.358-7.691 27.828 8.632 56.625 36.457 64.316 27.818 7.681 56.621-8.632 64.316-36.457 9.427-34.108 52.523-53.666 118.244-53.666 29.414 0 97.832 5.478 97.832 56.248 0 37.164-19.858 48.271-98.776 72.726-9.601 2.976-19.53 6.050-29.508 9.354-6.646 2.199-13.163 4.311-19.534 6.378-39.729 12.881-77.256 25.047-106.757 45.88-39.029 27.563-58.82 66.644-58.82 116.153 0 76.584 73.478 154.112 213.911 154.112 120.296 0 175.276-52.638 200.215-96.79 14.198-25.138 5.329-57.026-19.809-71.227-25.138-14.198-57.022-5.332-71.227 19.809-6.099 10.8-24.66 43.657-109.183 43.657-71.356 0-109.36-28.783-109.36-49.561 0.003-26.633 8.043-34.951 93.273-62.584z" />
<glyph unicode="&#xe905;" glyph-name="billboard" d="M1024 214v604h-170v62h40v80h-160v-80h40v-62h-222v62h40v80h-160v-80h40v-62h-242v62h40v80h-160v-80h40v-62h-150v-604h472v-198h-120v-80h320v80h-120v198zM80 738h864v-444h-864z" />
<glyph unicode="&#xe906;" glyph-name="calendar-10" d="M782.034 457.092h71.428c16.148 0 29.286 13.138 29.286 29.286v71.428c0 16.148-13.138 29.286-29.286 29.286h-71.428c-16.148 0-29.286-13.138-29.286-29.286v-71.428c0-16.148 13.138-29.286 29.286-29.286zM782.748 557.092h70v-70h-70zM782.034 267.092h71.428c16.148 0 29.286 13.138 29.286 29.286v71.428c0 16.148-13.138 29.286-29.286 29.286h-71.428c-16.148 0-29.286-13.138-29.286-29.286v-71.428c0-16.148 13.138-29.286 29.286-29.286zM782.748 367.092h70v-70h-70zM578.202 457.092h71.428c16.148 0 29.286 13.138 29.286 29.286v71.428c0 16.148-13.138 29.286-29.286 29.286h-71.428c-16.148 0-29.286-13.138-29.286-29.286v-71.428c0-16.148 13.138-29.286 29.286-29.286zM578.916 557.092h70v-70h-70zM241.966 216h-71.428c-16.148 0-29.286-13.138-29.286-29.286v-71.428c0-16.148 13.138-29.286 29.286-29.286h71.428c16.148 0 29.286 13.138 29.286 29.286v71.428c0 16.148-13.138 29.286-29.286 29.286zM241.252 116h-70v70h70zM241.966 587.092h-71.428c-16.148 0-29.286-13.138-29.286-29.286v-71.428c0-16.148 13.138-29.286 29.286-29.286h71.428c16.148 0 29.286 13.138 29.286 29.286v71.428c0 16.15-13.138 29.286-29.286 29.286zM241.252 487.092h-70v70h70zM578.202 271.546h71.428c16.148 0 29.286 13.138 29.286 29.286v71.428c0 16.148-13.138 29.286-29.286 29.286h-71.428c-16.148 0-29.286-13.138-29.286-29.286v-71.428c0-16.148 13.138-29.286 29.286-29.286zM578.916 371.546h70v-70h-70zM897.646 891.452h-64.132v22.934c0 25.152-20.462 45.614-45.614 45.614h-6.888c-25.15 0-45.612-20.462-45.612-45.614v-22.934h-446.8v22.934c0 25.152-20.462 45.614-45.614 45.614h-6.888c-25.152 0-45.614-20.462-45.614-45.614v-22.934h-64.13c-41.41 0-75.1-33.69-75.1-75.1v-805.352c0-41.356 33.644-75 75-75h771.496c41.356 0 75 33.644 75 75v805.352c-0.002 41.41-33.692 75.1-75.104 75.1zM765.4 914.386c0 8.61 7.004 15.614 15.614 15.614h6.888c8.61 0 15.614-7.004 15.614-15.614v-22.934h-38.116zM220.486 914.386c0 8.61 7.004 15.614 15.614 15.614h6.888c8.61 0 15.614-7.004 15.614-15.614v-22.934h-38.114v22.934zM942.748 11c0-24.814-20.186-45-45-45h-771.496c-24.814 0-45 20.186-45 45v0.094c12.568-9.47 28.19-15.094 45.102-15.094h608.166c20.060 0 38.92 7.812 53.104 21.998l155.124 155.124zM772.318 45.118c1.176 4.854 1.816 9.916 1.816 15.126v100.128c0 18.88 15.362 34.242 34.244 34.242h100.126c5.21 0 10.272 0.64 15.126 1.816zM942.748 677.092h-639.148c-8.284 0-15-6.716-15-15s6.716-15 15-15h639.148v-388.236c0-18.882-15.362-34.244-34.244-34.244h-100.126c-35.424 0-64.244-28.82-64.244-64.242v-100.128c0-18.882-15.362-34.244-34.242-34.244h-583.538c-24.868 0-45.1 20.232-45.1 45.102v575.992h162.346c8.284 0 15 6.716 15 15s-6.716 15-15 15h-162.348v139.26c0 24.868 20.232 45.1 45.1 45.1h64.132v-44.104c0-25.152 20.462-45.614 45.614-45.614 8.284 0 15 6.716 15 15s-6.716 15-15 15c-8.61 0-15.614 7.004-15.614 15.614v44.104h514.916v-44.104c0-25.152 20.462-45.614 45.614-45.614 8.284 0 15 6.716 15 15s-6.716 15-15 15c-8.61 0-15.614 7.004-15.614 15.614v44.104h132.248c24.868 0 45.1-20.232 45.1-45.1zM241.966 401.546h-71.428c-16.148 0-29.286-13.138-29.286-29.286v-71.428c0-16.148 13.138-29.286 29.286-29.286h71.428c16.148 0 29.286 13.138 29.286 29.286v71.428c0 16.15-13.138 29.286-29.286 29.286zM241.252 301.546h-70v70h70zM374.37 457.092h71.428c16.148 0 29.286 13.138 29.286 29.286v71.428c0 16.148-13.138 29.286-29.286 29.286h-71.428c-16.148 0-29.286-13.138-29.286-29.286v-71.428c0-16.148 13.138-29.286 29.286-29.286zM375.084 557.092h70v-70h-70zM578.898 116c-0.372 7.954-6.938 14.286-14.984 14.286-8.284 0-15-6.716-15-15 0-16.148 13.138-29.286 29.286-29.286h71.428c16.148 0 29.286 13.138 29.286 29.286v71.428c0 16.148-13.138 29.286-29.286 29.286h-71.428c-16.148 0-29.286-13.138-29.286-29.286v-20.6c0-8.284 6.716-15 15-15s15 6.716 15 15v19.886h70v-70zM374.37 271.546h71.428c16.148 0 29.286 13.138 29.286 29.286v71.428c0 16.148-13.138 29.286-29.286 29.286h-71.428c-16.148 0-29.286-13.138-29.286-29.286v-71.428c0-16.148 13.138-29.286 29.286-29.286zM375.084 371.546h70v-70h-70zM374.37 86h71.428c16.148 0 29.286 13.138 29.286 29.286v71.428c0 16.148-13.138 29.286-29.286 29.286h-71.428c-16.148 0-29.286-13.138-29.286-29.286v-71.428c0-16.148 13.138-29.286 29.286-29.286zM375.084 186h70v-70h-70z" />
<glyph unicode="&#xe907;" glyph-name="calendar-11" d="M373.086 395.064c0 12.827-10.405 23.22-23.243 23.22h-81.108c-12.823 0-23.23-10.392-23.23-23.22v-81.097c0-12.844 10.407-23.24 23.23-23.24h81.108c12.838 0 23.243 10.396 23.243 23.24v81.097zM575.785 395.064c0 12.827-10.407 23.22-23.22 23.22h-81.118c-12.823 0-23.23-10.392-23.23-23.22v-81.097c0-12.844 10.407-23.24 23.23-23.24h81.118c12.813 0 23.22 10.396 23.22 23.24v81.097zM778.495 395.064c0 12.827-10.407 23.22-23.23 23.22h-81.108c-12.838 0-23.243-10.392-23.243-23.22v-81.097c0-12.844 10.405-23.24 23.243-23.24h81.108c12.823 0 23.23 10.396 23.23 23.24v81.097zM373.086 192.344c0 12.848-10.405 23.232-23.243 23.232h-81.108c-12.823 0-23.23-10.384-23.23-23.232v-81.083c0-12.836 10.407-23.23 23.23-23.23h81.108c12.838 0 23.243 10.396 23.243 23.23v81.083zM575.785 192.344c0 12.848-10.407 23.232-23.22 23.232h-81.118c-12.823 0-23.23-10.384-23.23-23.232v-81.083c0-12.836 10.407-23.23 23.23-23.23h81.118c12.813 0 23.22 10.396 23.22 23.23v81.083zM778.495 192.344c0 12.848-10.407 23.232-23.22 23.232h-81.118c-12.838 0-23.243-10.384-23.243-23.232v-81.083c0-12.836 10.405-23.23 23.243-23.23h81.118c12.813 0 23.22 10.396 23.22 23.23v81.083zM923.524 845.981v-123.87c0-55.988-45.42-101.105-101.399-101.105h-63.965c-55.984 0-102.005 45.117-102.005 101.105v124.314h-288.309v-124.314c0-55.988-46.020-101.105-101.995-101.105h-63.978c-55.977 0-101.395 45.117-101.395 101.105v123.87c-48.925-1.475-89.127-41.958-89.127-91.718v-725.935c0-50.695 41.090-92.331 91.785-92.331h817.728c50.62 0 91.785 41.721 91.785 92.331v725.935c0 49.76-40.2 90.243-89.125 91.718zM893.814 73.534c0-21.908-17.763-39.682-39.68-39.682h-686.015c-21.917 0-39.68 17.774-39.68 39.682v374.971c0 21.917 17.761 39.691 39.68 39.691h686.013c21.917 0 39.68-17.774 39.68-39.691l0.002-374.971zM201.648 687.413h63.271c19.205 0 34.776 15.548 34.776 34.753v203.069c0 19.207-15.571 34.765-34.776 34.765h-63.271c-19.207 0-34.776-15.559-34.776-34.765v-203.069c0-19.205 15.569-34.753 34.776-34.753zM757.346 687.413h63.271c19.192 0 34.763 15.548 34.763 34.753v203.069c0.002 19.207-15.569 34.765-34.763 34.765h-63.271c-19.202 0-34.774-15.559-34.774-34.765v-203.069c0-19.205 15.571-34.753 34.774-34.753z" />
<glyph unicode="&#xe908;" glyph-name="calendar-12" d="M904 878h-108v82h-80v-82h-408v82h-80v-82h-108c-66.168 0-120-53.832-120-120v-702c0-66.168 53.832-120 120-120h784c66.168 0 120 53.832 120 120v702c0 66.168-53.832 120-120 120zM120 798h108v-80h80v80h408v-80h80v80h108c22.056 0 40-17.944 40-40v-142h-864v142c0 22.056 17.944 40 40 40zM712 536v-120h-160v120zM472 416h-160v120h160zM232 416h-152v120h152zM232 336v-120h-152v120zM312 336h160v-120h-160zM472 136v-120h-160v120zM552 136h160v-120h-160zM552 216v120h160v-120zM792 336h152v-120h-152zM792 416v120h152v-120zM80 56v80h152v-120h-112c-22.056 0-40 17.944-40 40zM904 16h-112v120h152v-80c0-22.056-17.944-40-40-40z" />
<glyph unicode="&#xe909;" glyph-name="call-1" d="M997.13 170.039l-207.261 138.219c-26.302 17.399-61.559 11.674-81.004-13.156l-60.373-77.624c-7.759-10.23-21.863-13.198-33.087-6.963l-11.484 6.331c-38.070 20.751-85.439 46.585-180.879 142.059s-121.326 142.879-142.077 180.879l-6.297 11.484c-6.321 11.222-3.409 25.386 6.825 33.207l77.572 60.355c24.82 19.447 30.553 54.694 13.174 81.004l-138.219 207.261c-17.811 26.792-53.546 34.835-81.12 18.259l-86.669-52.062c-27.232-16.010-47.211-41.938-55.748-72.351-31.209-113.715-7.731-309.97 281.37-599.105 229.974-229.956 401.178-291.797 518.853-291.797 27.082-0.116 54.058 3.407 80.202 10.476 30.419 8.527 56.352 28.508 72.351 55.748l52.114 86.617c16.6 27.58 8.561 63.337-18.243 81.158zM985.97 106.391l-51.994-86.669c-11.488-19.661-30.14-34.117-52.046-40.34-104.978-28.822-288.383-4.949-565.932 272.6s-301.419 460.938-272.598 565.932c6.231 21.933 20.705 40.608 40.39 52.114l86.669 51.994c11.964 7.199 27.474 3.709 35.203-7.917l138.102-207.243c7.547-11.412 5.067-26.708-5.699-35.153l-77.59-60.355c-23.612-18.055-30.355-50.724-15.818-76.653l6.161-11.194c21.809-39.998 48.923-89.757 147.912-188.73 98.989-98.971 148.732-126.087 188.712-147.894l11.21-6.177c25.926-14.536 58.597-7.795 76.653 15.818l60.355 77.59c8.447 10.76 23.736 13.238 35.153 5.699l207.243-138.219c11.634-7.723 15.124-23.241 7.915-35.203zM580.236 789.245c160.138-0.178 289.911-129.953 290.091-290.091 0-9.425 7.639-17.063 17.063-17.063s17.063 7.639 17.063 17.063c-0.198 178.979-145.238 324.022-324.218 324.218-9.425 0-17.063-7.639-17.063-17.063s7.639-17.063 17.063-17.063zM580.236 686.861c103.617-0.122 187.584-84.090 187.706-187.706 0-9.425 7.641-17.063 17.063-17.063 9.425 0 17.063 7.639 17.063 17.063-0.142 122.458-99.377 221.693-221.833 221.833-9.425 0-17.063-7.639-17.063-17.063s7.639-17.063 17.063-17.063zM580.236 584.476c47.097-0.056 85.263-38.222 85.321-85.321 0-9.425 7.641-17.063 17.063-17.063s17.063 7.639 17.063 17.063c-0.076 65.938-53.51 119.374-119.448 119.448-9.425 0-17.063-7.639-17.063-17.063s7.639-17.063 17.063-17.063z" />
<glyph unicode="&#xe90a;" glyph-name="cash-1" d="M904 960h-784c-66.172 0-120-53.828-120-120v-468c0-66.172 53.828-120 120-120h109.992c8.539 30.547 26.047 58.352 51.32 81.758-24.758 4.875-41.313 19.469-41.313 38.242 0 66.172-53.828 120-120 120-13.977 0-40 0-40 64v96c0 68 29.063 68 40 68 66.172 0 120 53.828 120 120 0 23.18 25.234 40 60 40h424c34.766 0 60-16.82 60-40 0-50.523 31.398-93.82 75.695-111.484 48.109-3.984 93.703-15.914 131.109-34.617 11.93-5.961 23-12.602 33.195-19.805v165.906c0 66.172-53.828 120-120 120zM120 412c22.055 0 40-17.945 40-40 0-14.164 2.617-27.586 7.414-40h-47.414c-22.055 0-40 17.945-40 40v46.055c12.289-3.984 25.68-6.055 40-6.055zM160 840c0-22.055-17.945-40-40-40-13.391 0-26.992-2.102-40-6.633v46.633c0 22.055 17.945 40 40 40h47.414c-4.797-12.414-7.414-25.836-7.414-40zM944 793.945c-12.289 3.984-25.68 6.055-40 6.055-22.055 0-40 17.945-40 40 0 14.164-2.617 27.586-7.414 40h47.414c22.055 0 40-17.945 40-40zM410 604c0-65.063 45.758-118 102-118 11.18 0 21.93 2.117 32 5.984v-83c-10.445-1.977-21.141-2.984-32-2.984-49.5 0-95.703 20.969-130.094 59.055-33.469 37.063-51.906 86.406-51.906 138.945s18.438 101.883 51.906 138.945c34.391 38.086 80.594 59.055 130.094 59.055s95.703-20.969 130.094-59.055c11.18-12.375 20.633-26.141 28.328-40.906-4.5-1.969-8.93-3.992-13.227-6.141-20.992-10.5-39.352-23.031-54.859-37.195-17.078 37.586-51.148 63.297-90.336 63.297-56.242 0-102-52.938-102-118zM194 644c22.094 0 40-17.906 40-40s-17.906-40-40-40-40 17.906-40 40 17.906 40 40 40zM955.023 620.344c-35.664 17.836-82.195 27.656-131.023 27.656s-95.359-9.82-131.023-27.656c-44.484-22.234-68.977-55.031-68.977-92.344 0-2.016 0.086-4.016 0.227-6h-0.227v-211.422c-34.203 15.141-76.258 23.422-120 23.422-48.828 0-95.359-9.82-131.023-27.656-44.484-22.234-68.977-55.031-68.977-92.344 0-0.672 0.023-1.336 0.039-2h-0.039v-156c0-37.313 24.492-70.109 68.977-92.344 35.664-17.836 82.195-27.656 131.023-27.656s95.359 9.82 131.023 27.656c10.883 5.438 20.555 11.516 28.977 18.125 8.422-6.609 18.094-12.688 28.977-18.125 35.664-17.836 82.195-27.656 131.023-27.656s95.359 9.82 131.023 27.656c44.484 22.234 68.977 55.031 68.977 92.344v466h-0.227c0.141 1.984 0.227 3.984 0.227 6 0 37.313-24.492 70.109-68.977 92.344zM624 56c0-1.383-4.305-10.57-24.75-20.789-24.414-12.211-59.133-19.211-95.25-19.211s-70.836 7-95.25 19.211c-20.445 10.219-24.75 19.406-24.75 20.789v60.578c33.984-14.594 76.047-22.578 120-22.578 46.141 0 87.234 7.875 120 21.656zM599.75 192.453c-24.297-11.727-59.195-18.453-95.75-18.453-36.117 0-70.836 7-95.25 19.211-20.445 10.219-24.75 19.406-24.75 20.789s4.305 10.57 24.75 20.789c24.414 12.211 59.133 19.211 95.25 19.211 35.695 0 70.234-7.273 94.758-19.961 19.258-9.961 25.242-19.641 25.242-22.039 0-1.219-4.469-10-24.25-19.547zM944 56c0-1.383-4.305-10.57-24.75-20.789-24.414-12.211-59.133-19.211-95.25-19.211s-70.836 7-95.25 19.211c-20.445 10.219-24.75 19.406-24.75 20.789v60.578c33.984-14.594 76.047-22.578 120-22.578s86.016 7.984 120 22.578zM944 214c0-1.383-4.305-10.57-24.75-20.789-24.414-12.211-59.133-19.211-95.25-19.211s-70.836 7-95.25 19.211c-20.445 10.219-24.75 19.406-24.75 20.789v56.578c33.984-14.594 76.047-22.578 120-22.578s86.016 7.984 120 22.578zM944 368c0-1.383-4.305-10.57-24.75-20.789-24.414-12.211-59.133-19.211-95.25-19.211s-70.836 7-95.25 19.211c-20.445 10.219-24.75 19.406-24.75 20.789v62.578c33.984-14.594 76.047-22.578 120-22.578s86.016 7.984 120 22.578zM919.25 507.211c-24.414-12.211-59.133-19.211-95.25-19.211s-70.836 7-95.25 19.211c-20.445 10.219-24.75 19.406-24.75 20.789s4.305 10.57 24.75 20.789c24.414 12.211 59.133 19.211 95.25 19.211s70.836-7 95.25-19.211c20.445-10.219 24.75-19.406 24.75-20.789s-4.305-10.57-24.75-20.789z" />
<glyph unicode="&#xe90b;" glyph-name="certificate" d="M517.546 596.988h-383.968c-8.284 0-14.998-6.716-14.998-14.998 0-8.284 6.714-14.998 14.998-14.998h383.97c8.284 0 14.998 6.716 14.998 14.998s-6.714 14.998-15 14.998zM517.546 491.596h-383.968c-8.284 0-14.998-6.716-14.998-14.998s6.714-14.998 14.998-14.998h383.97c8.284 0 14.998 6.716 14.998 14.998s-6.714 14.998-15 14.998zM517.546 386.206h-383.968c-8.284 0-14.998-6.716-14.998-14.998s6.714-14.998 14.998-14.998h383.97c8.284 0 14.998 6.716 14.998 14.998s-6.714 14.998-15 14.998zM532.546 265.814c0 8.284-6.714 14.998-14.998 14.998h-383.97c-8.284 0-14.998-6.716-14.998-14.998s6.714-14.998 14.998-14.998h383.97c8.284 0 14.998 6.714 14.998 14.998zM133.578 126.358c-8.284 0-14.998-6.716-14.998-14.998s6.714-14.998 14.998-14.998h192.476c8.284 0 14.998 6.716 14.998 14.998s-6.714 14.998-14.998 14.998zM690.388 774.294v48.668c0 18.54-15.082 33.624-33.624 33.624h-307.934c-18.54 0-33.622-15.084-33.622-33.624v-48.668c0-18.54 15.082-33.622 33.622-33.622h26.004c8.284 0 14.998 6.716 14.998 14.998 0 8.284-6.714 14.998-14.998 14.998h-26.004c-1.998 0-3.624 1.626-3.624 3.624v48.67c0 1.998 1.626 3.626 3.624 3.626h307.934c2 0 3.626-1.626 3.626-3.626v-48.668c0-1.998-1.626-3.624-3.626-3.624h-211.81c-8.284 0-14.998-6.716-14.998-14.998 0-8.284 6.714-14.998 14.998-14.998h211.812c18.54-0.004 33.622 15.080 33.622 33.62zM802.536 45.408c-8.284 0-14.998-6.716-14.998-14.998v-20.198c0-24.378-19.834-44.214-44.216-44.214h-663.524c-24.378 0-44.214 19.834-44.214 44.214v720.932c0 3.246 0.38 6.43 1.058 9.528h136.566c28.512 0 51.708 23.196 51.708 51.708v136.564c3.098 0.678 6.28 1.058 9.526 1.058h508.878c24.38 0 44.216-19.834 44.216-44.214v-199.684c0-8.284 6.714-14.998 14.998-14.998s14.998 6.716 14.998 14.998v199.686c0.002 40.918-33.29 74.21-74.21 74.21h-508.878c-19.822 0-38.46-7.72-52.476-21.736l-154.646-154.646c-14.016-14.016-21.734-32.652-21.734-52.476v-720.932c0-40.92 33.29-74.21 74.21-74.21h663.524c40.92 0 74.212 33.292 74.212 74.21v20.198c0 8.284-6.714 15-14.998 15zM194.92 908.792v-116.412c0-11.972-9.74-21.712-21.712-21.712h-116.412zM1007.964 424.002c10.528 15.454 13.252 34.516 7.474 52.3s-19.188 31.604-36.788 37.916c-11.676 4.188-19.466 14.908-19.838 27.308-0.566 18.69-9.568 35.714-24.698 46.706-15.126 10.99-34.102 14.288-52.046 9.052-11.916-3.476-24.51 0.62-32.102 10.43-11.442 14.79-28.73 23.272-47.43 23.272-18.698 0-35.988-8.482-47.432-23.272-7.592-9.812-20.194-13.902-32.1-10.43-17.946 5.24-36.92 1.938-52.050-9.052-15.128-10.992-24.126-28.014-24.694-46.704-0.374-12.4-8.162-23.118-19.84-27.308-17.6-6.312-31.010-20.134-36.786-37.916-5.778-17.784-3.054-36.848 7.474-52.3 6.984-10.254 6.984-23.502 0-33.754-10.528-15.454-13.252-34.516-7.474-52.3 5.776-17.784 19.186-31.604 36.786-37.918 11.678-4.19 19.468-14.908 19.84-27.308 0.522-17.192 8.4-33.346 21.62-44.316 8.722-7.24 19.2-11.77 30.166-13.284v-136.556c0-11.522 6.25-22.172 16.308-27.79 10.046-5.614 22.396-5.364 32.214 0.682l55.010 33.864c0.896 0.554 1.43 0.304 1.924 0l55.006-33.864c9.814-6.040 22.16-6.3 32.216-0.68 10.060 5.62 16.308 16.27 16.308 27.79v136.558c10.962 1.512 21.44 6.042 30.162 13.28 13.222 10.97 21.102 27.122 21.624 44.318 0.372 12.4 8.162 23.12 19.838 27.308 17.602 6.312 31.012 20.134 36.788 37.918 5.778 17.784 3.054 36.846-7.474 52.3-6.992 10.248-6.992 23.496-0.006 33.75zM874.23 77.004l-55.008 33.864c-10.226 6.294-23.138 6.304-33.374 0l-55.008-33.862c-1.252-0.762-2.798 0.116-2.798 1.564v139.402c10.312 1.194 20.536-3.002 27.062-11.436 11.446-14.788 28.734-23.27 47.434-23.27 18.698 0 35.986 8.482 47.428 23.27 6.528 8.436 16.754 12.63 27.064 11.436v-139.402c0-1.458-1.566-2.328-2.8-1.566zM983.174 373.356c5.264-7.724 6.624-17.25 3.736-26.138s-9.59-15.796-18.388-18.952c-23.364-8.38-38.944-29.826-39.694-54.636-0.266-8.722-4.1-16.584-10.794-22.14-7.526-6.246-17.718-8.602-27.562-5.73-23.826 6.952-49.040-1.24-64.232-20.868-5.718-7.39-14.36-11.63-23.706-11.63-9.344 0-17.986 4.238-23.708 11.63-11.598 14.992-29.040 23.312-47.246 23.312-5.636 0-11.348-0.798-16.98-2.442-9.94-2.896-20.102-0.468-27.568 5.73-6.694 5.556-10.528 13.418-10.79 22.138-0.752 24.81-16.332 46.256-39.698 54.638-8.796 3.156-15.496 10.062-18.386 18.95-2.888 8.888-1.528 18.416 3.736 26.14 13.974 20.514 13.974 47.020 0 67.534-5.264 7.724-6.624 17.252-3.736 26.142 2.888 8.888 9.59 15.796 18.386 18.95 23.366 8.382 38.946 29.828 39.698 54.638 0.282 9.342 4.778 17.85 12.34 23.342 7.558 5.494 17.038 7.142 26.016 4.526 23.82-6.954 49.040 1.24 64.228 20.868 5.72 7.392 14.36 11.632 23.708 11.632 9.346 0 17.986-4.238 23.706-11.63 15.19-19.63 40.398-27.822 64.23-20.87 8.972 2.62 18.452 0.97 26.014-4.524 7.562-5.492 12.062-14.002 12.342-23.342 0.752-24.81 16.332-46.258 39.696-54.638 8.798-3.154 15.498-10.062 18.388-18.95 2.888-8.888 1.528-18.418-3.736-26.14-13.978-20.516-13.978-47.026 0-67.54zM802.536 532.834c-69.316 0-125.708-56.392-125.708-125.708s56.392-125.708 125.708-125.708c69.314 0 125.706 56.392 125.706 125.708s-56.392 125.708-125.706 125.708zM802.536 311.414c-52.776 0-95.712 42.936-95.712 95.71s42.936 95.712 95.712 95.712 95.71-42.936 95.71-95.712-42.936-95.71-95.71-95.71z" />
<glyph unicode="&#xe90c;" glyph-name="chat-3" d="M332.8 499.2h238.933c9.421 0 17.067 7.629 17.067 17.067s-7.646 17.067-17.067 17.067h-238.933c-9.421 0-17.067-7.629-17.067-17.067s7.646-17.067 17.067-17.067zM665.6 413.867h-426.667c-9.421 0-17.067-7.629-17.067-17.067s7.646-17.067 17.067-17.067h426.667c9.421 0 17.067 7.629 17.067 17.067s-7.646 17.067-17.067 17.067zM665.6 294.4h-426.667c-9.421 0-17.067-7.629-17.067-17.067s7.646-17.067 17.067-17.067h426.667c9.421 0 17.067 7.629 17.067 17.067s-7.646 17.067-17.067 17.067zM953.924 327.834c45.875 64.341 70.076 138.718 70.076 215.501 0 220.331-199.049 399.599-443.733 399.599-168.465 0-324.233-87.757-398.404-223.812-110.165-72.789-181.862-190.14-181.862-322.321 0-76.783 24.201-151.142 70.076-215.501-8.704-95.198-31.744-165.769-65.075-199.1-5.188-5.188-6.485-13.124-3.209-19.678 2.918-5.854 8.875-9.455 15.275-9.455 0.785 0 1.587 0.051 2.372 0.171 5.973 0.836 143.923 20.702 244.343 78.268 56.832-22.767 117.333-34.304 179.951-34.304 145.493 0 274.842 63.386 355.806 161.109 94.071-42.428 200.329-57.89 205.005-58.539 0.802-0.119 1.604-0.171 2.389-0.171 6.4 0 12.356 3.601 15.275 9.455 3.277 6.571 1.98 14.507-3.209 19.678-33.331 33.331-56.371 103.902-65.075 199.1zM443.733 31.334c-49.34 0-97.178 7.817-142.746 23.023 56.9 35.669 56.969 38.485 56.917 48.128-0.017 5.956-3.243 11.605-8.329 14.677-7.663 4.625-17.51 2.492-22.665-4.625-8.397-6.571-42.701-28.553-73.284-47.411v0c-63.164-38.161-147.541-60.041-197.274-70.451 30.669 54.17 43.264 130.099 48.299 190.054 0.341 4.13-0.819 8.226-3.277 11.571-43.998 59.614-67.243 128.956-67.243 200.499 0 123.204 68.745 232.277 173.739 298.513 6.622 4.181 13.329 8.192 20.173 11.981 1.536 0.853 3.055 1.741 4.625 2.577 7.168 3.874 14.49 7.458 21.879 10.906 2.697 1.263 5.393 2.509 8.107 3.721 7.509 3.328 15.104 6.468 22.801 9.353 2.679 1.007 5.41 1.911 8.124 2.867 6.093 2.15 12.237 4.164 18.432 6.042 2.833 0.853 5.632 1.758 8.499 2.577 8.038 2.27 16.145 4.284 24.337 6.093 2.833 0.631 5.7 1.195 8.567 1.775 7.373 1.485 14.78 2.816 22.255 3.925 1.707 0.256 3.396 0.58 5.12 0.819 9.011 1.246 18.108 2.15 27.238 2.85 2.372 0.188 4.762 0.341 7.151 0.495 9.472 0.58 18.995 0.99 28.57 0.99 183.501 0 339.217-108.237 391.151-256.905 11.981-34.338 18.432-70.793 18.432-108.578 0-8.26-0.427-16.452-1.041-24.627-0.154-2.116-0.341-4.233-0.546-6.349-0.717-7.612-1.638-15.189-2.884-22.699-0.102-0.58-0.154-1.161-0.256-1.741-1.331-7.834-3.072-15.599-4.983-23.33-0.563-2.27-1.161-4.54-1.758-6.81-1.86-6.929-3.925-13.824-6.246-20.651-0.495-1.434-0.973-2.867-1.485-4.301-2.389-6.741-5.069-13.397-7.902-19.985-1.041-2.423-2.116-4.847-3.209-7.253-3.174-6.929-6.502-13.807-10.155-20.565-0.853-1.57-1.792-3.089-2.662-4.642-3.157-5.632-6.502-11.196-10.001-16.708-1.451-2.27-2.884-4.557-4.386-6.793-4.233-6.332-8.636-12.578-13.312-18.705-73.762-96.683-198.093-160.307-338.773-160.307zM820.804 186.146c0.717 1.024 1.297 2.099 1.997 3.14 3.977 5.854 7.782 11.827 11.418 17.869 2.031 3.396 3.925 6.827 5.854 10.257 2.116 3.789 4.181 7.595 6.178 11.452 1.792 3.465 3.584 6.946 5.257 10.445 2.594 5.444 5.035 10.94 7.373 16.503 1.638 3.908 3.174 7.851 4.676 11.793 1.86 4.881 3.635 9.779 5.291 14.729 1.058 3.209 2.082 6.417 3.055 9.643 1.638 5.393 3.106 10.837 4.489 16.333 0.597 2.389 1.28 4.745 1.843 7.151 1.775 7.68 3.26 15.445 4.523 23.279 0.393 2.406 0.683 4.83 1.024 7.236 0.87 6.076 1.57 12.203 2.133 18.364 0.222 2.475 0.461 4.932 0.631 7.407 0.529 8.311 0.922 16.64 0.922 25.054 0 220.331-199.049 399.599-443.733 399.599-8.175 0-16.299-0.239-24.371-0.631-2.918-0.137-5.82-0.41-8.738-0.597-5.086-0.341-10.155-0.683-15.189-1.178-3.618-0.358-7.219-0.802-10.82-1.246-4.233-0.512-8.448-1.024-12.629-1.655-4.011-0.58-8.004-1.246-11.981-1.929-3.635-0.631-7.253-1.297-10.854-1.997-4.335-0.853-8.67-1.741-12.971-2.697-3.038-0.683-6.042-1.434-9.045-2.167-4.693-1.161-9.404-2.304-14.046-3.601-2.082-0.58-4.13-1.229-6.195-1.843-17.783-5.188-35.174-11.401-52.139-18.62-1.297-0.546-2.594-1.058-3.891-1.621-1.536-0.666-3.106-1.246-4.642-1.929 76.032 95.232 200.687 154.112 334.046 154.112 225.86 0 409.6-163.942 409.6-365.466 0-71.526-23.245-140.885-67.226-200.516-2.458-3.328-3.618-7.441-3.277-11.571 5.035-59.955 17.613-135.851 48.282-190.020-37.342 7.834-94.14 22.135-146.842 44.919z" />
<glyph unicode="&#xe90d;" glyph-name="check-4" d="M994.006 645.616l-540.203-540.165c-40.003-40.010-104.893-40.010-144.934 0l-278.857 278.877c-40.018 40.010-40.018 104.909 0 144.926 40.025 40.025 104.911 40.025 144.919 0.015l206.426-206.429 467.707 467.71c40.025 40.025 104.916 39.995 144.926 0 40.010-40.018 40.010-104.893 0.015-144.934z" />
<glyph unicode="&#xe90e;" glyph-name="check-6" d="M515.73 346.6l419.924 460.91 55.436-50.508-471.51-517.535-257.045 244.354 51.68 54.357zM961.969 614.9l-58.482-64.395c8.49-32.602 13.014-66.785 13.014-102.006 0-223.312-181.687-405-405-405s-405 181.687-405 405 181.687 405 405 405c103.453 0 197.953-39.012 269.619-103.066l50.561 55.67c-88.143 79.107-200.83 122.396-320.18 122.396-128.209 0-248.754-49.928-339.41-140.59-90.662-90.656-140.59-211.201-140.59-339.41s49.928-248.754 140.59-339.41c90.656-90.662 211.201-140.59 339.41-140.59s248.754 49.928 339.41 140.59c90.662 90.656 140.59 211.201 140.59 339.41 0 57.703-10.143 113.836-29.531 166.4z" />
<glyph unicode="&#xe90f;" glyph-name="clock-5" d="M512-64c-282.328 0-512 229.672-512 512s229.672 512 512 512 512-229.672 512-512-229.672-512-512-512zM512 896c-247.039 0-448-200.961-448-448s200.961-448 448-448 448 200.961 448 448-200.961 448-448 448zM736 170.664c-8.195 0-16.383 3.117-22.617 9.391l-224 224c-6.016 6.016-9.383 14.164-9.383 22.609v298.672c0 17.664 14.336 32 32 32s32-14.336 32-32v-285.398l214.617-214.617c12.5-12.5 12.5-32.766 0-45.266-6.234-6.273-14.422-9.391-22.617-9.391z" />
<glyph unicode="&#xe910;" glyph-name="clock-6" d="M874.040 810.040c-96.706 96.704-225.28 149.96-362.040 149.96s-265.334-53.256-362.040-149.96-149.96-225.28-149.96-362.040 53.256-265.334 149.96-362.040 225.28-149.96 362.040-149.96 265.334 53.256 362.040 149.96 149.96 225.28 149.96 362.040-53.256 265.334-149.96 362.040zM851.412 108.588c-90.66-90.66-211.2-140.588-339.412-140.588s-248.752 49.928-339.412 140.588c-90.66 90.66-140.588 211.2-140.588 339.412s49.928 248.752 140.588 339.412c90.66 90.66 211.2 140.588 339.412 140.588s248.752-49.928 339.412-140.588c90.66-90.66 140.588-211.2 140.588-339.412s-49.928-248.752-140.588-339.412zM96 448c0 229.382 186.618 416 416 416 82.736 0 162.652-24.222 231.11-70.048 7.342-4.916 17.28-2.948 22.196 4.396 4.916 7.342 2.948 17.28-4.396 22.196-73.742 49.364-159.814 75.456-248.91 75.456-119.666 0-232.168-46.6-316.784-131.216s-131.216-197.118-131.216-316.784c0-110.4 40.508-216.464 114.064-298.656 3.16-3.532 7.536-5.33 11.928-5.33 3.798 0 7.612 1.344 10.664 4.078 6.584 5.894 7.146 16.008 1.252 22.592-68.294 76.316-105.908 174.802-105.908 277.316zM884.546 696.906c-4.916 7.344-14.854 9.312-22.196 4.396s-9.312-14.854-4.396-22.196c45.824-68.456 70.046-148.372 70.046-231.106 0-229.382-186.618-416-416-416-95.166 0-188.192 32.958-261.938 92.802-6.862 5.568-16.938 4.52-22.506-2.342s-4.52-16.938 2.342-22.506c79.43-64.456 179.616-99.954 282.102-99.954 119.666 0 232.168 46.6 316.784 131.216s131.216 197.118 131.216 316.784c0 89.094-26.092 175.166-75.454 248.906zM789.316 758.090c10.758-9.626 21.13-19.928 30.828-30.616 3.158-3.48 7.498-5.248 11.854-5.248 3.834 0 7.684 1.372 10.748 4.152 6.542 5.938 7.034 16.058 1.096 22.602-10.44 11.504-21.606 22.592-33.186 32.956-6.584 5.892-16.7 5.332-22.592-1.252s-5.334-16.7 1.252-22.594zM512 752c8.836 0 16 7.164 16 16v48c0 8.836-7.164 16-16 16s-16-7.164-16-16v-48c0-8.836 7.164-16 16-16zM496 128v-48c0-8.836 7.164-16 16-16s16 7.164 16 16v48c0 8.836-7.164 16-16 16s-16-7.164-16-16zM208 448c0 8.836-7.164 16-16 16h-48c-8.836 0-16-7.164-16-16s7.164-16 16-16h48c8.836 0 16 7.164 16 16zM816 448c0-8.836 7.164-16 16-16h48c8.836 0 16 7.164 16 16s-7.164 16-16 16h-48c-8.836 0-16-7.164-16-16zM365.856 733.128l-24 41.57c-4.418 7.654-14.204 10.272-21.856 5.856-7.652-4.418-10.274-14.204-5.856-21.856l24-41.57c2.964-5.132 8.342-8.002 13.872-8.002 2.714 0 5.466 0.692 7.986 2.146 7.65 4.418 10.272 14.204 5.854 21.856zM685.856 178.872c-4.418 7.652-14.206 10.27-21.856 5.856-7.652-4.418-10.274-14.204-5.856-21.856l24-41.57c2.964-5.132 8.342-8.002 13.872-8.002 2.714 0 5.466 0.692 7.986 2.146 7.652 4.418 10.274 14.204 5.856 21.856l-24.002 41.57zM193.318 247.998c2.714 0 5.466 0.692 7.986 2.146l41.57 24c7.652 4.418 10.274 14.204 5.856 21.856s-14.206 10.27-21.856 5.856l-41.57-24c-7.652-4.418-10.274-14.204-5.856-21.856 2.962-5.132 8.34-8.002 13.87-8.002zM789.142 591.998c2.714 0 5.466 0.692 7.986 2.146l41.57 24c7.652 4.418 10.274 14.204 5.856 21.856s-14.204 10.27-21.856 5.856l-41.57-24c-7.652-4.418-10.274-14.204-5.856-21.856 2.964-5.132 8.342-8.002 13.87-8.002zM704 780.554c-7.652 4.42-17.438 1.798-21.856-5.856l-24-41.57c-4.418-7.652-1.796-17.438 5.856-21.856 2.52-1.456 5.27-2.146 7.986-2.146 5.53 0 10.908 2.87 13.872 8.002l24 41.57c4.416 7.652 1.794 17.438-5.858 21.856zM360 184.728c-7.652 4.418-17.438 1.796-21.856-5.856l-24-41.57c-4.418-7.652-1.796-17.438 5.856-21.856 2.52-1.456 5.27-2.146 7.986-2.146 5.53 0 10.908 2.87 13.872 8.002l24 41.57c4.416 7.652 1.794 17.438-5.858 21.856zM781.128 274.144l41.57-24c2.52-1.456 5.27-2.146 7.986-2.146 5.53 0 10.908 2.87 13.872 8.002 4.418 7.652 1.796 17.438-5.856 21.856l-41.57 24c-7.652 4.42-17.438 1.796-21.856-5.856-4.42-7.652-1.798-17.438 5.854-21.856zM242.872 621.856l-41.57 24c-7.652 4.42-17.438 1.796-21.856-5.856s-1.796-17.438 5.856-21.856l41.57-24c2.52-1.456 5.27-2.146 7.986-2.146 5.53 0 10.908 2.87 13.872 8.002 4.416 7.652 1.794 17.438-5.858 21.856zM623.384 239.098c2.714 0 5.466 0.692 7.986 2.146 7.652 4.418 10.274 14.204 5.856 21.856l-88.76 153.738c7.182 8.394 11.534 19.276 11.534 31.162 0 20.858-13.378 38.644-32 45.248v210.752c0 8.836-7.164 16-16 16s-16-7.164-16-16v-210.752c-18.622-6.604-32-24.39-32-45.248 0-26.468 21.532-48 48-48 2.994 0 5.922 0.29 8.766 0.816l88.748-153.716c2.964-5.132 8.342-8.002 13.87-8.002zM496 448c0 8.822 7.178 16 16 16s16-7.178 16-16-7.178-16-16-16-16 7.178-16 16z" />
<glyph unicode="&#xe911;" glyph-name="coins-1" d="M686.544 737.654h-28.918c5.1 8.888 8.036 19.172 8.036 30.134v92.022c0 33.494-27.248 60.742-60.742 60.742h-544.178c-33.494-0.012-60.742-27.26-60.742-60.752v-92.022c0-33.494 27.248-60.742 60.742-60.742h28.914c-5.1-8.888-8.036-19.172-8.036-30.134v-92.022c0-10.964 2.934-21.246 8.036-30.134h-28.914c-33.494 0.002-60.742-27.246-60.742-60.738v-92.022c0-26.484 17.046-49.052 40.736-57.34-6.392-9.616-10.128-21.144-10.128-33.534v-92.022c0-12.39 3.736-23.918 10.128-33.534-23.69-8.288-40.736-30.856-40.736-57.34v-92.022c0-33.492 27.248-60.74 60.742-60.74h466.638c8.454 0 15.304 6.852 15.304 15.304s-6.852 15.304-15.304 15.304h-466.638c-16.618 0-30.134 13.518-30.134 30.132v92.022c0 16.616 13.518 30.134 30.134 30.134h295.928c8.454 0 15.304 6.852 15.304 15.304s-6.85 15.304-15.304 15.304h-265.32c-16.618 0-30.134 13.518-30.134 30.134v92.022c0 16.616 13.518 30.134 30.134 30.134h237.434c8.454 0 15.304 6.852 15.304 15.304s-6.85 15.304-15.304 15.304h-268.042c-16.618 0-30.134 13.518-30.134 30.134v92.022c0 16.616 13.518 30.134 30.134 30.134h354.76c8.454 0 15.304 6.852 15.304 15.304s-6.85 15.304-15.304 15.304h-273.14c-16.618 0-30.134 13.518-30.134 30.134v92.022c0 16.616 13.518 30.134 30.134 30.134h544.182c16.618 0 30.134-13.518 30.134-30.134v-11.414c0-8.452 6.85-15.304 15.304-15.304s15.304 6.852 15.304 15.304v11.414c0 33.496-27.248 60.744-60.742 60.744zM635.056 767.778c0-16.616-13.518-30.134-30.134-30.134h-544.18c-16.618 0.002-30.134 13.52-30.134 30.134v92.022c0 16.616 13.518 30.134 30.134 30.134h544.18c16.618 0 30.134-13.518 30.134-30.134v-92.022zM872.66 587.318c-7.078 4.614-16.562 2.616-21.176-4.466-4.616-7.080-2.616-16.562 4.464-21.176 86.064-56.086 137.444-150.814 137.444-253.396 0-166.646-135.578-302.224-302.224-302.224-166.648 0-302.226 135.578-302.226 302.224s135.578 302.224 302.226 302.224c43.754 0 85.954-9.14 125.422-27.168 7.694-3.514 16.768-0.124 20.278 7.562 3.512 7.688 0.126 16.766-7.562 20.278-43.488 19.864-89.964 29.934-138.138 29.934-183.522 0-332.832-149.308-332.832-332.83s149.31-332.83 332.832-332.83 332.832 149.306 332.832 332.828c0 112.97-56.574 217.284-151.34 279.040zM860.758 477.866c-45.3 45.3-105.526 70.246-169.586 70.246s-124.288-24.948-169.586-70.246c-60.554-60.552-84.284-149.578-61.93-232.338 2.204-8.16 10.6-12.988 18.764-10.784 8.158 2.204 12.986 10.604 10.782 18.764-19.504 72.212 1.198 149.888 54.028 202.716 39.516 39.516 92.058 61.282 147.944 61.282s108.428-21.764 147.944-61.282c81.578-81.578 81.578-214.312 0-295.89-81.576-81.576-214.31-81.576-295.888 0-14.664 14.664-27.002 31.276-36.676 49.374-3.982 7.454-13.25 10.27-20.708 6.282-7.454-3.982-10.268-13.256-6.282-20.71 11.094-20.756 25.232-39.794 42.024-56.586 46.756-46.756 108.172-70.134 169.588-70.134s122.83 23.376 169.586 70.134c93.506 93.508 93.506 245.662-0.004 339.172zM706.474 322.362v84.276c22.312-5.198 38.64-21.45 38.64-40.654 0-8.452 6.85-15.304 15.304-15.304s15.304 6.852 15.304 15.304c0 35.744-29.908 65.548-69.246 71.786v9c0 8.452-6.85 15.304-15.304 15.304s-15.304-6.852-15.304-15.304v-9c-39.338-6.24-69.248-36.044-69.248-71.786s29.91-65.548 69.248-71.786v-84.276c-22.314 5.198-38.642 21.45-38.642 40.654 0 8.452-6.85 15.304-15.304 15.304s-15.304-6.852-15.304-15.304c0-35.744 29.91-65.548 69.248-71.786v-9c0-8.452 6.85-15.304 15.304-15.304s15.304 6.852 15.304 15.304v9c39.338 6.238 69.246 36.044 69.246 71.786s-29.908 65.548-69.246 71.786zM675.868 325.33c-22.314 5.198-38.642 21.45-38.642 40.654s16.328 35.454 38.642 40.654v-81.308zM706.472 209.922v81.306c22.312-5.198 38.64-21.452 38.64-40.654 0-19.2-16.328-35.452-38.64-40.652z" />
<glyph unicode="&#xe912;" glyph-name="comment-1" d="M762 524c0-27.614-22.386-50-50-50s-50 22.386-50 50c0 27.614 22.386 50 50 50s50-22.386 50-50zM562 524c0-27.614-22.386-50-50-50s-50 22.386-50 50c0 27.614 22.386 50 50 50s50-22.386 50-50zM362 524c0-27.614-22.386-50-50-50s-50 22.386-50 50c0 27.614 22.386 50 50 50s50-22.386 50-50zM984 960h-944c-22.092 0-40-17.908-40-40v-792c0-22.092 17.908-40 40-40h353.954l84.226-133.36c7.33-11.604 20.096-18.64 33.82-18.64s26.49 7.036 33.82 18.64l84.226 133.36h353.954c22.092 0 40 17.908 40 40v792c0 22.092-17.908 40-40 40zM944 168h-336c-13.724 0-26.49-7.036-33.82-18.64l-62.18-98.452-62.18 98.452c-7.33 11.604-20.096 18.64-33.82 18.64h-336v712h864v-712z" />
<glyph unicode="&#xe913;" glyph-name="computer" d="M976 816h-704c-8.837 0-16-7.163-16-16v0-464c0-8.837 7.163-16 16-16h432v-144h-64v-32h256v-32h-256v-32h272c8.837 0 16 7.163 16 16v0 224h48c8.837 0 16 7.163 16 16v0 464c0 8.837-7.163 16-16 16v0zM960 784v-64h-672v64zM736 320h32v-32c0-8.837 7.163-16 16-16s16 7.163 16 16v0 32h32v-144h-96zM896 176h-32v144h32zM288 352v336h672v-336zM112 80h416c44.162 0.052 79.948 35.838 80 79.995v0.005c0 8.837-7.163 16-16 16h-64v112h-32v-112h-352v272h80v32h-96c-8.837 0-16-7.163-16-16v0-288h-64c-8.837 0-16-7.163-16-16v0c0.052-44.162 35.838-79.948 79.995-80h0.005zM265.372 144l11.313-11.313c2.896-2.896 6.896-4.687 11.315-4.687h64c4.419 0 8.419 1.791 11.314 4.687l11.314 11.313h198.63c-6.81-18.789-24.491-31.975-45.255-32h-416.003c-20.767 0.025-38.448 13.212-45.152 31.665l-0.106 0.335zM336 752c0-8.837-7.163-16-16-16s-16 7.163-16 16c0 8.837 7.163 16 16 16s16-7.163 16-16zM384 752c0-8.837-7.163-16-16-16s-16 7.163-16 16c0 8.837 7.163 16 16 16s16-7.163 16-16zM432 752c0-8.837-7.163-16-16-16s-16 7.163-16 16c0 8.837 7.163 16 16 16s16-7.163 16-16zM320 656h48v-32h-48zM416 656h112v-32h-112zM560 656h48v-32h-48zM320 576h48v-32h-48zM416 576h64v-32h-64zM512 576h96v-32h-96zM320 496h48v-32h-48zM416 496h192v-32h-192zM320 416h48v-32h-48zM416 416h64v-32h-64zM512 416h96v-32h-96zM708.686 587.313l-48-48c-2.895-2.895-4.686-6.895-4.686-11.313s1.791-8.418 4.686-11.313l48-48 22.629 22.627-36.688 36.687 36.688 36.687zM859.314 587.313l-22.629-22.627 36.688-36.687-36.688-36.687 22.629-22.627 48 48c2.895 2.895 4.686 6.895 4.686 11.313s-1.791 8.418-4.686 11.313v0zM736.809 437.359l63.954 192.064 30.37-10.113-63.954-192.064z" />
<glyph unicode="&#xe914;" glyph-name="contacts" d="M201 96h622c66.168 0 120 53.832 120 120v624c0 66.168-53.832 120-120 120h-622c-66.168 0-120-53.832-120-120v-784c0-66.168 53.832-120 120-120h622c66.168 0 120 53.832 120 120v0.1c-33.45-25.166-75.012-40.1-120-40.1h-622c-22.056 0-40 17.944-40 40s17.944 40 40 40zM161 840c0 22.056 17.944 40 40 40h622c22.056 0 40-17.944 40-40v-624c0-22.056-17.944-40-40-40h-622c-14.018 0-27.484-2.416-40-6.854zM509 464c89.326 0 162-72.672 162-162h80c0 94.646-54.622 176.76-133.99 216.514 19.894 24.442 31.848 55.59 31.848 89.486 0 78.298-63.702 142-142 142s-142-63.702-142-142c0-34.61 12.46-66.354 33.112-91.018-77.732-40.308-130.97-121.542-130.97-214.982h80c0 89.328 72.674 162 162 162zM506.858 670c34.188 0 62-27.814 62-62s-27.812-62-62-62-62 27.814-62 62 27.812 62 62 62z" />
<glyph unicode="&#xe915;" glyph-name="correction-2" d="M469.333-64c-258.773 0-469.333 210.56-469.333 469.333s210.56 469.333 469.333 469.333c89.984 0 177.536-25.643 253.184-74.197 9.899-6.357 12.8-19.541 6.443-29.483-6.4-9.899-19.584-12.8-29.483-6.443-68.779 44.16-148.352 67.456-230.144 67.456-235.264 0-426.667-191.403-426.667-426.667s191.403-426.667 426.667-426.667 426.667 191.403 426.667 426.667c0 14.080-0.683 27.947-2.005 41.643-1.152 11.733 7.424 22.187 19.157 23.296 11.947 0.981 22.187-7.424 23.296-19.157 1.451-15.061 2.219-30.336 2.219-45.781 0-258.773-210.56-469.333-469.333-469.333zM533.333 309.333c-5.461 0-10.923 2.091-15.104 6.229l-192 192c-8.32 8.32-8.32 21.845 0 30.165s21.845 8.32 30.165 0l176.896-176.896 454.272 454.272c8.32 8.32 21.845 8.32 30.165 0s8.32-21.845 0-30.165l-469.333-469.333c-4.139-4.181-9.6-6.272-15.061-6.272z" />
<glyph unicode="&#xe916;" glyph-name="credit-card-5" d="M904 828h-784c-66.2 0-120-53.8-120-120v-540c0-66.2 53.8-120 120-120h784c66.2 0 120 53.8 120 120v540c0 66.2-53.8 120-120 120zM944 168c0-22-18-40-40-40h-784c-22 0-40 18-40 40v420h864v-420zM944 668h-864v40c0 22 18 40 40 40h784c22 0 40-18 40-40v-40zM872 288h-320v-80h320v80zM392 288h-80v-80h80v80zM232 288h-80v-80h80v80z" />
<glyph unicode="&#xe917;" glyph-name="customer-service-6" d="M980.857 500.306c-1.647 79.805-23.718 158.018-63.946 226.724 32.733 156.582-132.83 283.91-275.419 212.709-134.416 40.076-290.694 18.766-413.968-76.67-15.639-11.992 3.257-35.29 18.248-23.8 37.859 29.028 79.801 51.532 124.659 66.893 46.77 16.014 95.749 23.902 145.614 23.478 31.175-0.272 62.157-3.843 92.352-10.624-11.78-9.143-22.48-19.611-31.877-31.179-233.26 39.85-455.303-140.526-465.946-374.889-12.298 0.598-24.971-0.258-36.861-3.501 4.141 99.398 42.034 195.729 105.456 266.784 12.912 14.463-9.463 34.432-22.372 19.969-71.266-79.841-112.461-189.263-113.435-300.895-26.071-18.020-43.185-48.113-43.185-82.132v-144.896c0-64.040 54.529-101.259 113.609-99.772 20.905-60.403 109.031-47.282 110.53 17.532v314.524c0.67 40.052-42.895 68.518-79.215 51.966 30.512 191.476 215.178 333.529 412.666 307.684-42.389-72.369-28.16-174.022 33.227-232.356v-40.716c2.001-12.058 8.945-16.662 20.831-13.813l36.499 15.421c68.848-32.255 158.547-15.783 211.131 35.776 9.049-23.38 15.659-47.492 19.785-72.143-36.352 16.816-80.222-11.56-79.551-51.816v-314.524c-0.432-42.649 47.148-70.586 84.049-49.577-0.076-13.249-0.318-26.495-0.838-39.61-3.571-42.961-36.695-79.033-78.941-85.998-13.423-1.32-28.732-1.831-47.454-1.563-6.712 24.638-29.282 42.803-56.017 42.803h-79.623c-76.988-3.179-77.006-112.909 0-116.094h79.619c26.913 0 49.605 18.41 56.149 43.297 16.92-0.228 34.834-0.822 51.634 1.875 56.031 8.965 100.787 56.73 105.334 113.577 0.016 0.2-0.008 0.398 0 0.596 1.044 26.093 0.256 52.446 0 78.309 57.958-2.809 110.222 39.43 110.222 99.772v144.896c0 33.924-17.018 63.948-42.967 81.984zM30.166 268.278v144.896c0 43.713 38.473 72.155 79.787 69.782v-284.46c-41.336-2.291-79.787 25.935-79.787 69.782zM167.662 527.225c14.703 0 26.663-11.962 26.663-26.663v-314.524c-1.469-35.382-51.87-35.352-53.326 0v314.524c0 14.703 11.962 26.663 26.663 26.663zM700.485-34.010h-79.619c-15.471 0-28.058 12.586-28.058 28.058s12.586 28.058 28.058 28.058h79.619c37.201-1.533 37.231-54.573 0-56.117zM950.311 514.587c-11.902 3.251-24.59 4.105-36.899 3.507-3.073 45.396-13.709 89.445-31.687 131.187 8.899 11.776 16.486 24.594 22.542 38.237 27.023-53.724 42.745-112.675 46.044-172.931zM727.016 602.085c-25.181 0-49.341 5.566-71.809 16.54-4.115 1.909-8.253 2.021-12.418 0.34l-21.807-9.213v24.526c0 4.195-1.755 8.197-4.842 11.036-109.182 100.198-37.475 284.424 110.878 284.342 217.317-8.991 217.267-318.604-0.002-327.571zM993.834 273.426c0-44.187-39.013-72.295-80.58-69.782-0.188 16.114-0.294 32.229-0.264 48.343 0 19.387-29.99 19.387-29.99 0v-65.947c0-14.703-11.962-26.663-26.663-26.663s-26.663 11.96-26.663 26.663v314.522c1.424 35.286 51.83 35.448 53.326 0v-168.75c0-19.387 29.99-19.387 29.99 0v156.292c41.67 2.359 80.844-25.213 80.844-69.782zM648.417 115.28c11.886-2.849 18.83 1.753 20.831 13.813v48.959c143.653 139.672 43.421 386.497-157.25 386.239-124.153 0.002-225.163-100.991-225.163-225.125-1.903-161.057 171.767-273.19 317.625-205.317zM597.557 163.738c-126.798-63.852-282.473 33.307-280.729 175.432-0.002 107.597 87.554 195.135 195.173 195.135 176.765 0.080 262.18-219.411 132.101-338.77-3.087-2.839-4.842-6.842-4.842-11.036v-32.793l-29.284 12.372c-3.993 1.687-8.523 1.563-12.418-0.34zM471.894 408.278h80.214c19.387 0 19.387 29.99 0 29.99h-80.214c-19.389 0-19.389-29.99 0-29.99zM552.108 270.057h-80.214c-19.387 0-19.387-29.99 0-29.99h80.214c19.387 0 19.387 29.99 0 29.99zM595.021 354.162h-166.043c-19.387 0-19.387-29.99 0-29.99h166.043c19.387 0 19.387 29.99 0 29.99zM728.33 880.305c-35.42 0.678-65.364-28.61-65.364-64.036 0-19.387 29.99-19.387 29.99 0 0 18.46 16.25 34.456 34.77 34.052 17.754-0.358 32.383-14.511 33.303-32.221 1-19.253-14.707-35.892-34.012-35.892-8.281 0-14.995-6.714-14.995-14.995v-51.294c0-8.281 6.714-14.995 14.995-14.995s14.995 6.714 14.995 14.995v38.099c29.62 7.184 50.547 35.18 48.965 65.637-1.729 33.335-29.248 59.975-62.646 60.649zM727.016 679.434c-19.297 0-19.329-29.99 0-29.99 19.295 0 19.327 29.99 0 29.99z" />
<glyph unicode="&#xe918;" glyph-name="database" d="M504.014 802.278h239.578v-79.86h-239.578v79.86zM120.69 37.624v193.658c0 11.008 8.956 19.964 19.964 19.964h283.5v79.86h-283.5c-11.008 0-19.964 8.956-19.964 19.964v195.656c0 11.008 8.956 19.964 19.964 19.964h662.832c11.008 0 19.964-8.956 19.964-19.964h79.86c0 22.454-7.456 43.198-20.018 59.894 12.562 16.696 20.018 37.44 20.018 59.894v193.662c0 55.042-44.78 99.824-99.824 99.824h-662.832c-55.042 0-99.824-44.782-99.824-99.824v-193.658c0-22.454 7.456-43.198 20.018-59.894-12.562-16.696-20.018-37.44-20.018-59.894v-195.656c0-22.454 7.456-43.198 20.018-59.894-12.562-16.696-20.018-37.44-20.018-59.894v-193.658c0-55.042 44.782-99.824 99.824-99.824h363.36v79.86h-363.36c-11.006-0.004-19.964 8.952-19.964 19.96zM120.69 860.176c0 11.008 8.956 19.964 19.964 19.964h662.832c11.008 0 19.964-8.956 19.964-19.964v-193.658c0-11.008-8.956-19.964-19.964-19.964h-662.832c-11.008 0-19.964 8.956-19.964 19.964v193.658zM276.416 762.348c0-22.053-17.877-39.93-39.93-39.93s-39.93 17.877-39.93 39.93c0 22.053 17.877 39.93 39.93 39.93s39.93-17.877 39.93-39.93zM916.256 437.218c-48.126 8.652-93.924 37.002-111.384 48.792-18.21 12.294-39.4 18.792-61.28 18.792s-43.070-6.498-61.284-18.794c-17.456-11.788-63.254-40.138-111.38-48.79-38.774-6.972-66.914-40.602-66.914-79.966v-124.574c0-187.576 214.184-285.342 223.302-289.412l16.276-7.266 16.276 7.266c9.12 4.070 223.302 101.836 223.302 289.412v124.574c0 39.362-28.14 72.994-66.914 79.966zM903.308 357.252v-124.574c0-110.708-116.226-184.458-159.782-208.204-43.66 23.646-159.654 96.954-159.654 208.204v124.574c0 0.678 0.488 1.24 1.186 1.366 60.83 10.936 115.040 43.042 141.936 61.204 4.964 3.35 10.702 5.12 16.596 5.12s11.636-1.77 16.594-5.12c26.9-18.164 81.11-50.27 141.94-61.206 0.7-0.124 1.186-0.686 1.184-1.364v0zM276.416 133.456c0-22.053-17.877-39.93-39.93-39.93s-39.93 17.877-39.93 39.93c0 22.053 17.877 39.93 39.93 39.93s39.93-17.877 39.93-39.93zM276.416 448.9c0-22.053-17.877-39.93-39.93-39.93s-39.93 17.877-39.93 39.93c0 22.053 17.877 39.93 39.93 39.93s39.93-17.877 39.93-39.93z" />
<glyph unicode="&#xe919;" glyph-name="design-thinking" d="M893.312 568.876c-2.91 4.32-7.784 7.124-13.312 7.124s-10.402-2.804-13.276-7.067l-0.036-0.057-64-96c-1.684-2.494-2.688-5.568-2.688-8.876 0-8.836 7.163-16 16-16h16v-464c0-8.837 7.163-16 16-16v0h64c8.837 0 16 7.163 16 16v0 464h16c8.836 0 16 7.164 16 16 0 3.308-1.004 6.382-2.724 8.933l0.036-0.057zM912 480c-8.837 0-16-7.163-16-16v0-464h-32v464c0 8.837-7.163 16-16 16v0h-2.104l34.104 51.156 34.104-51.156zM80 800h16v-112c0-8.837 7.163-16 16-16v0h64c8.837 0 16 7.163 16 16v0 112h16c8.836 0 16 7.164 16 16 0 3.308-1.004 6.382-2.724 8.933l0.036-0.057-64 96c-2.91 4.32-7.784 7.124-13.312 7.124s-10.402-2.804-13.276-7.067l-0.036-0.057-64-96c-1.684-2.494-2.688-5.568-2.688-8.876 0-8.836 7.163-16 16-16v0zM144 883.156l34.104-51.156h-2.104c-8.837 0-16-7.163-16-16v0-112h-32v112c0 8.837-7.163 16-16 16v0h-2.104zM157.312 216.876c-2.91 4.32-7.784 7.124-13.312 7.124s-10.402-2.804-13.276-7.067l-0.036-0.057-64-96c-1.684-2.494-2.688-5.568-2.688-8.876 0-8.836 7.163-16 16-16h16v-112c0-8.837 7.163-16 16-16v0h64c8.837 0 16 7.163 16 16v0 112h16c8.836 0 16 7.164 16 16 0 3.308-1.004 6.382-2.724 8.933l0.036-0.057zM176 128c-8.837 0-16-7.163-16-16v0-112h-32v112c0 8.837-7.163 16-16 16v0h-2.104l34.104 51.156 34.104-51.156zM960 816l-25.344 0.020 20.666 20.666c2.896 2.895 4.687 6.896 4.687 11.314s-1.791 8.419-4.687 11.314l-48 48c-2.895 2.896-6.896 4.687-11.314 4.687s-8.419-1.791-11.314-4.687l-20.694-20.666v25.352c0 8.837-7.163 16-16 16v0h-64c-8.837 0-16-7.163-16-16v0-25.344h-0.020l-20.666 20.658c-2.895 2.896-6.896 4.687-11.314 4.687s-8.419-1.791-11.314-4.687l-37.872-37.874c-47.916 36.92-108.79 59.172-174.861 59.172-159.033 0-287.954-128.921-287.954-287.954 0-0.231 0-0.463 0.001-0.694v0.036c0-9.224 0.468-18.4 1.346-27.502q-5.434-2.070-10.728-4.488l-27.304 27.304c-2.895 2.896-6.896 4.687-11.314 4.687s-8.419-1.791-11.314-4.687l-64-64c-2.896-2.895-4.687-6.896-4.687-11.314s1.791-8.419 4.687-11.314l27.314-27.304q-2.124-4.636-3.978-9.382h-44.022c-8.837 0-16-7.163-16-16v0-96c0-8.837 7.163-16 16-16v0h44.012q1.85-4.746 3.978-9.382l-27.304-27.304c-2.896-2.895-4.687-6.896-4.687-11.314s1.791-8.419 4.687-11.314l64-64c2.895-2.896 6.896-4.687 11.314-4.687s8.419 1.791 11.314 4.687l27.304 27.304q4.634-2.124 9.382-3.978v-44.012c0-8.837 7.163-16 16-16v0h96c8.837 0 16 7.163 16 16v0 16h16v-67.1c0.044-34.156 11.931-65.528 31.773-90.238l-0.219 0.282 99.952-124.944c2.957-3.674 7.453-6.005 12.494-6.005s9.537 2.331 12.47 5.974l0.024 0.031 99.952 124.94c19.624 24.429 31.511 55.802 31.554 89.95v67.11h16c26.496 0.018 47.968 21.502 47.968 48 0 22.015-14.821 40.569-35.030 46.227l-0.338 0.081c2.151 5.237 3.4 11.316 3.4 17.687 0 0.002 0 0.003 0 0.005v0 21.6c0 0.024 0 0.053 0 0.082 0 14.087 6.098 26.749 15.797 35.492l0.043 0.038c51.297 46.021 85.918 109.724 94.233 181.446l0.127 1.342h49.8c8.837 0 16 7.163 16 16v0 25.344h0.020l20.666-20.666c2.895-2.896 6.896-4.687 11.314-4.687s8.419 1.791 11.314 4.687l48 48c2.896 2.895 4.687 6.896 4.687 11.314s-1.791 8.419-4.687 11.314l-20.666 20.694h25.352c8.837 0 16 7.163 16 16v0 64c0 8.837-7.163 16-16 16v0zM274.6 477.030c12.096-17.511 25.257-32.806 39.86-46.591l0.14-0.131c-5.811-8.669-15.569-14.298-26.643-14.298-17.658 0-31.972 14.314-31.972 31.972 0 12.813 7.537 23.865 18.419 28.966l0.196 0.082zM224 448c0-0.028 0-0.062 0-0.096 0-35.293 28.611-63.904 63.904-63.904 18.062 0 34.373 7.493 45.996 19.54l0.018 0.019c1.317-4.176 2.078-8.978 2.082-13.958v-21.602c0-1.034 0.044-2.056 0.108-3.072-13.794-8.12-30.387-12.917-48.1-12.917-53.029 0-96.018 42.989-96.018 96.018 0 37.133 21.079 69.343 51.923 85.317l0.535 0.252c4.7-11.785 9.235-21.368 14.265-30.644l-0.755 1.522c-20.318-11.012-33.897-32.151-33.958-56.468v-0.008zM320 256h-64v39.34c0 7.128-4.662 13.168-11.103 15.237l-0.113 0.031c-9.882 3.132-18.375 6.827-26.395 11.27l0.733-0.372c-2.213 1.23-4.853 1.954-7.662 1.954-4.418 0-8.418-1.791-11.314-4.686l-24.146-24.148-41.374 41.374 24.148 24.146c2.895 2.895 4.686 6.895 4.686 11.314 0 2.809-0.724 5.45-1.996 7.744l0.042-0.082c-4.074 7.288-7.771 15.78-10.625 24.651l-0.281 1.011c-2.099 6.552-8.135 11.212-15.26 11.216h-39.34v64h39.34c7.128 0 13.168 4.662 15.237 11.103l0.031 0.113c3.132 9.882 6.827 18.375 11.27 26.395l-0.372-0.733c1.23 2.213 1.954 4.853 1.954 7.662 0 4.418-1.791 8.418-4.686 11.314l-24.148 24.146 41.374 41.374 24.146-24.148c2.895-2.895 6.895-4.686 11.314-4.686 2.809 0 5.45 0.724 7.744 1.996l-0.082-0.042c3.654 2 7.412 3.8 11.23 5.47q1.7-7.95 3.844-15.776c-44.172-20.826-74.195-64.987-74.195-116.16 0-70.698 57.303-128.011 127.997-128.028h0.002c6.813 0.002 13.501 0.531 20.027 1.547l-0.727-0.093c-2.090-5.179-3.302-11.185-3.302-17.474 0-14.179 6.163-26.919 15.957-35.686l0.046-0.040zM448 256v-96h-44.17c-2.422 8.665-3.819 18.617-3.83 28.894v67.106zM480 160v96h64v-96zM512 9.612l-17.91 22.388h35.82zM555.51 64h-87.020l-43.948 54.934c-2.106 2.622-4.247 5.577-6.242 8.637l-0.262 0.429h187.924c-2.257-3.489-4.398-6.444-6.674-9.286l0.17 0.22zM624 188.9c-0.011-10.283-1.408-20.235-4.015-29.685l0.185 0.785h-44.17v96h48zM672 288h-320c-8.837 0-16 7.163-16 16s7.163 16 16 16v0h320c8.837 0 16-7.163 16-16s-7.163-16-16-16v0zM464 576c-8.837 0-16-7.163-16-16v0c0-0.007 0-0.014 0-0.022 0-26.51-21.49-48-48-48s-48 21.49-48 48c0 3.94 0.475 7.769 1.37 11.433l-0.068-0.329c0.272 1.105 0.428 2.373 0.428 3.677 0 5.361-2.637 10.107-6.684 13.010l-0.048 0.033c-16.423 11.732-27.001 30.731-27.001 52.2s10.578 40.468 26.808 52.068l0.194 0.132c4.096 2.936 6.732 7.681 6.732 13.043 0 1.305-0.156 2.573-0.451 3.787l0.022-0.109c-0.827 3.335-1.302 7.164-1.302 11.104 0 26.51 21.49 48 48 48s48-21.49 48-48c0-0.009 0-0.018 0-0.027v0.001c0-8.837 7.163-16 16-16s16 7.163 16 16v0c-0.055 37.754-26.213 69.382-61.39 77.808l-0.546 0.11c6.187 19.871 24.401 34.052 45.932 34.082h32.004v-48c0-8.837 7.163-16 16-16s16 7.163 16 16v0 48h32c21.535-0.030 39.749-14.211 45.844-33.741l0.092-0.341c-35.723-8.536-61.881-40.164-61.936-77.912v-0.006c0-8.837 7.163-16 16-16s16 7.163 16 16v0c0 0.007 0 0.014 0 0.022 0 26.51 21.49 48 48 48s48-21.49 48-48c0-3.94-0.475-7.769-1.37-11.433l0.068 0.329c-0.272-1.105-0.428-2.373-0.428-3.677 0-5.361 2.637-10.107 6.684-13.010l0.048-0.033c16.423-11.732 27.001-30.731 27.001-52.2s-10.578-40.468-26.808-52.068l-0.194-0.132c-4.096-2.936-6.732-7.681-6.732-13.043 0-1.305 0.156-2.573 0.451-3.787l-0.022 0.109c0.827-3.335 1.302-7.164 1.302-11.104 0-26.51-21.49-48-48-48s-48 21.49-48 48c0 0.009 0 0.018 0 0.027v-0.001c0 8.837-7.163 16-16 16s-16-7.163-16-16v0c0.055-37.754 26.213-69.382 61.39-77.808l0.546-0.11c-6.187-19.871-24.401-34.052-45.932-34.082h-32.004v48c0 8.837-7.163 16-16 16s-16-7.163-16-16v0-48h-32c-21.535 0.030-39.749 14.211-45.844 33.741l-0.092 0.341c35.723 8.536 61.881 40.164 61.936 77.912v0.006c0 8.837-7.163 16-16 16v0zM480 416h64v-64h-64zM682.516 449.076c-16.307-14.672-26.516-35.846-26.516-59.404 0-0.025 0-0.051 0-0.076v0.004-21.6c-0.010-8.832-7.168-15.99-15.999-16h-64.001v65.628c31.87 6.732 56.458 31.675 62.574 63.211l0.082 0.505c37.434 7.149 65.344 39.624 65.344 78.618 0 2.869-0.151 5.703-0.446 8.494l0.030-0.348c19.923 17.661 32.416 43.317 32.416 71.892s-12.494 54.231-32.317 71.805l-0.1 0.087c0.265 2.443 0.416 5.277 0.416 8.146 0 38.994-27.91 71.469-64.844 78.538l-0.5 0.080c-7.215 37.411-39.672 65.291-78.65 65.344h-96.006c-38.984-0.053-71.441-27.933-78.575-64.84l-0.081-0.504c-37.434-7.149-65.344-39.624-65.344-78.618 0-2.869 0.151-5.703 0.446-8.494l-0.030 0.348c-19.923-17.661-32.416-43.317-32.416-71.892s12.494-54.231 32.317-71.805l0.1-0.087c-0.265-2.443-0.416-5.277-0.416-8.146 0-38.994 27.91-71.469 64.844-78.538l0.5-0.080c6.198-32.041 30.786-56.984 62.132-63.623l0.524-0.093v-65.628h-64c-8.832 0.010-15.99 7.168-16 15.999v21.601c0 0.020 0 0.044 0 0.068 0 23.558-10.209 44.733-26.443 59.34l-0.073 0.064c-52.563 47.086-85.484 115.171-85.484 190.946 0 141.385 114.615 256 256 256s256-114.615 256-256c0-75.774-32.921-143.859-85.241-190.732l-0.243-0.214zM944 752h-20.66c-0.002 0-0.004 0-0.006 0-7.208 0-13.302-4.766-15.304-11.319l-0.030-0.113c-1.947-6.433-4.242-11.957-7.006-17.193l0.252 0.523c-1.129-2.137-1.792-4.67-1.792-7.358 0-4.418 1.791-8.418 4.686-11.314l17.234-17.226-25.374-25.374-17.226 17.228c-2.895 2.895-6.895 4.686-11.314 4.686-2.688 0-5.222-0.663-7.446-1.834l0.087 0.042c-4.713-2.511-10.237-4.803-15.99-6.568l-0.68-0.18c-6.666-2.032-11.432-8.126-11.432-15.334 0-0.002 0-0.004 0-0.006v0-20.66h-32c0 0.060 0 0.131 0 0.203 0 24.321-2.962 47.95-8.545 70.547l0.421-2.013c7.142-2.992 15.442-4.73 24.147-4.73 35.346 0 64 28.654 64 64s-28.654 64-64 64c-26.527 0-49.285-16.139-58.99-39.133l-0.158-0.42c-12.185 19.42-25.66 36.27-40.821 51.435l0.001-0.001q-2.384 2.388-4.822 4.71l24.766 24.778 17.226-17.228c2.895-2.895 6.895-4.686 11.314-4.686 2.688 0 5.222 0.663 7.446 1.834l-0.087-0.042c4.713 2.511 10.237 4.803 15.99 6.568l0.68 0.18c6.666 2.032 11.432 8.126 11.432 15.334 0 0.002 0 0.004 0 0.006v0 20.66h32v-20.66c0-0.002 0-0.004 0-0.006 0-7.208 4.766-13.302 11.319-15.304l0.113-0.030c6.433-1.947 11.957-4.242 17.193-7.006l-0.523 0.252c2.137-1.129 4.67-1.792 7.358-1.792 4.418 0 8.418 1.791 11.314 4.686l17.226 17.234 25.374-25.374-17.228-17.226c-2.895-2.895-4.686-6.895-4.686-11.314 0-2.688 0.663-5.222 1.834-7.446l-0.042 0.087c2.511-4.713 4.803-10.237 6.568-15.99l0.18-0.68c2.032-6.666 8.126-11.432 15.334-11.432 0.002 0 0.004 0 0.006 0h20.66zM784 768c0 17.673 14.327 32 32 32s32-14.327 32-32c0-17.673-14.327-32-32-32v0c-17.664 0.022-31.978 14.336-32 31.998v0.002zM464 672c-8.837 0-16-7.163-16-16v0c0-8.837-7.163-16-16-16s-16 7.163-16 16v0c0 8.837-7.163 16-16 16s-16-7.163-16-16v0c0-26.51 21.49-48 48-48s48 21.49 48 48v0c0 8.837-7.163 16-16 16v0zM592 608c26.497 0.031 47.969 21.503 48 47.997v0.003c0 8.837-7.163 16-16 16s-16-7.163-16-16v0c0-8.837-7.163-16-16-16s-16 7.163-16 16v0c0 8.837-7.163 16-16 16s-16-7.163-16-16v0c0.031-26.497 21.503-47.969 47.997-48h0.003z" />
<glyph unicode="&#xe91a;" glyph-name="electrical-panel" d="M432.876 900h-245.876c-19.298 0-35-15.702-35-35v-370.702c0-8.286 6.714-15 15-15s15 6.714 15 15v370.702c0 2.758 2.242 5 5 5h245.876c8.286 0 15 6.714 15 15s-6.716 15-15 15zM152 315c0-19.298 15.702-35 35-35h650c19.298 0 35 15.702 35 35v550c0 19.298-15.702 35-35 35h-334.124c-8.286 0-15-6.714-15-15s6.714-15 15-15h334.124c2.758 0 5-2.242 5-5v-550c0-2.758-2.242-5-5-5h-650c-2.758 0-5 2.242-5 5v109.298c0 8.286-6.714 15-15 15s-15-6.714-15-15zM1009-34h-327c-24.812 0-45 20.188-45 45v209h30v-203c0-11.58 9.42-21 21-21h321c8.286 0 15 6.714 15 15s-6.714 15-15 15h-312v116h88c19.298 0 35 15.702 35 35v43h37c41.356 0 75 33.644 75 75v295.212c0 8.286-6.714 15-15 15s-15-6.714-15-15v-295.212c0-24.812-20.188-45-45-45-67.25 0-623.9 0-690 0-24.812 0-45 20.188-45 45v590c0 24.812 20.188 45 45 45h690c24.812 0 45-20.188 45-45v-224.788c0-8.286 6.714-15 15-15s15 6.714 15 15v224.788c0 41.356-33.644 75-75 75h-690c-41.356 0-75-33.644-75-75v-590c0-41.356 33.644-75 75-75h37v-43c0-19.298 15.702-35 35-35h88v-116h-108c-8.286 0-15-6.714-15-15s6.714-15 15-15h117c11.58 0 21 9.42 21 21v203h30v-209c0-24.812-20.188-45-45-45h-327c-8.286 0-15-6.714-15-15s6.714-15 15-15h327c41.356 0 75 33.644 75 75v131h50v-191c0-8.286 6.714-15 15-15s15 6.714 15 15v269h30v-269c0-8.286 6.714-15 15-15s15 6.714 15 15v191h50v-131c0-41.356 33.644-75 75-75h327c8.286 0 15 6.714 15 15s-6.714 15-15 15zM790 177c0-2.758-2.242-5-5-5h-88v48h93zM327 172h-88c-2.758 0-5 2.242-5 5v43h93zM467 172h-50v48h50zM557 172v48h50v-48zM15-4h134c8.286 0 15 6.714 15 15s-6.714 15-15 15h-134c-8.286 0-15-6.714-15-15s6.714-15 15-15zM428.118 526.066h41.18l-25.444-58.85c-4.452-10.298-3.43-22.044 2.732-31.42s16.538-14.972 27.756-14.972c10.394 0 20.326 4.964 26.564 13.278l95.848 127.72c5.974 7.958 6.922 18.43 2.472 27.332-4.448 8.9-13.392 14.43-23.344 14.43h-41.182l25.442 58.848c4.454 10.298 3.434 22.044-2.726 31.42-6.162 9.376-16.538 14.972-27.758 14.972-10.392 0-20.324-4.962-26.564-13.276l-95.848-127.72c-5.974-7.958-6.922-18.43-2.472-27.332 4.446-8.9 13.392-14.43 23.344-14.43zM527.088 677.54c0.604 0.804 1.564 1.286 2.57 1.286 1.434 0 2.252-0.788 2.686-1.448s0.832-1.724 0.264-3.040l-34.502-79.8c-2.006-4.636-1.542-9.968 1.232-14.192 2.774-4.22 7.484-6.762 12.536-6.762h56.202l-91.164-121.476c-0.604-0.802-1.562-1.284-2.568-1.284-1.434 0-2.252 0.788-2.686 1.45-0.434 0.66-0.834 1.724-0.266 3.040l34.502 79.8c2.006 4.636 1.542 9.968-1.232 14.192-2.774 4.22-7.484 6.762-12.536 6.762h-56.2zM338.646 364.872h346.708c56.612-1.452 93.716 64.496 64.952 112.5l-173.354 300.256c-29.116 51.232-102.89 47.916-129.902 0l-173.354-300.258c-29.688-51.062 9.874-112.958 64.95-112.498zM299.676 462.372l173.354 300.258c15.228 28.636 61.208 30.094 77.942 0l173.354-300.258c17.072-27.242-4.462-68.158-38.97-67.5h-346.71c-32.444-1.082-56.548 37.74-38.97 67.5zM275 670c8.286 0 15 6.714 15 15v30.818c27.518 6.748 48 31.612 48 61.182 0 34.738-28.262 63-63 63s-63-28.262-63-63c0-29.57 20.482-54.432 48-61.182v-30.818c0-8.286 6.714-15 15-15zM242 777c0 18.196 14.804 33 33 33s33-14.804 33-33-14.804-33-33-33-33 14.804-33 33z" />
<glyph unicode="&#xe91b;" glyph-name="envelope-2" d="M460.8 635.785h102.4c9.438 0 17.067 7.629 17.067 17.067s-7.629 17.067-17.067 17.067h-102.4c-9.438 0-17.067-7.629-17.067-17.067s7.629-17.067 17.067-17.067zM716.8 396.851h-102.4c-9.438 0-17.067-7.629-17.067-17.067s7.629-17.067 17.067-17.067h102.4c9.438 0 17.067 7.629 17.067 17.067s-7.629 17.067-17.067 17.067zM307.2 499.251h85.333c9.438 0 17.067 7.629 17.067 17.067s-7.629 17.067-17.067 17.067h-85.333c-9.438 0-17.067-7.629-17.067-17.067s7.629-17.067 17.067-17.067zM512 516.318c0-9.438 7.629-17.067 17.067-17.067h119.467c9.438 0 17.067 7.629 17.067 17.067s-7.629 17.067-17.067 17.067h-119.467c-9.438 0-17.067-7.646-17.067-17.067zM460.8 499.251c4.437 0 8.875 1.877 12.117 4.949 3.072 3.243 4.949 7.68 4.949 12.117 0 4.625-1.877 8.892-4.949 12.117-6.315 6.315-17.92 6.315-24.235 0-3.089-3.072-4.949-7.492-4.949-12.117 0-4.437 1.86-8.875 4.949-12.117 3.226-3.072 7.68-4.949 12.117-4.949zM546.133 396.851h-170.667c-9.438 0-17.067-7.629-17.067-17.067s7.629-17.067 17.067-17.067h170.667c9.438 0 17.067 7.629 17.067 17.067s-7.629 17.067-17.067 17.067zM307.2 362.718c4.608 0 8.875 1.877 12.117 4.949 3.072 3.243 4.949 7.68 4.949 12.117s-1.877 8.892-4.949 12.117c-6.315 6.315-17.92 6.315-24.235 0-3.243-3.226-4.949-7.68-4.949-12.117s1.707-8.875 4.949-12.117c3.226-3.072 7.68-4.949 12.117-4.949zM716.8 499.251c4.437 0 8.875 1.877 12.117 4.949 3.072 3.243 4.949 7.68 4.949 12.117 0 4.625-1.877 8.892-4.949 12.117-6.485 6.315-17.92 6.315-24.235 0-3.089-3.226-4.949-7.492-4.949-12.117 0-4.437 1.707-8.875 4.949-12.117 3.226-3.072 7.68-4.949 12.117-4.949zM921.6 602.027v204.425h-219.563l-146.654 136.533c-24.337 22.63-62.447 22.647-86.784-0.017l-146.637-136.516h-219.563v-204.425l-102.4-95.317v-570.658h1024v570.658l-102.4 95.317zM342.135 230.127c-0.324-1.314-0.802-2.56-0.802-3.942s0.478-2.645 0.802-3.942l-308.002-234.667v477.201l308.002-234.65zM381.235 209.118h261.53l313.6-238.933h-888.73l313.6 238.933zM989.867 464.777v-477.201l-313.173 238.592 313.173 238.609zM980.685 500.378c-0.529-0.341-1.109-0.529-1.604-0.905l-57.481-43.776v99.703l59.085-55.023zM491.844 917.982c11.298 10.496 29.013 10.479 40.277 0.017l119.808-111.548h-279.859l119.774 111.531zM136.533 772.318h750.933v-342.613l-244.702-186.453h-261.53l-244.702 186.419v342.647zM102.4 455.68l-57.481 43.793c-0.495 0.375-1.092 0.563-1.604 0.905l59.085 55.023v-99.721z" />
<glyph unicode="&#xe91c;" glyph-name="excellence" d="M1000.404 511.865c21.187 20.651 28.669 50.961 19.526 79.102-9.143 28.139-33.013 48.262-62.292 52.517l-235.572 34.231c-15.369 2.233-28.647 11.88-35.52 25.806l-38.306 77.615c-3.665 7.428-12.654 10.477-20.083 6.81-7.426-3.665-10.475-12.656-6.81-20.083l38.306-77.615c11.242-22.779 32.963-38.557 58.101-42.21l235.572-34.231c18.172-2.641 32.407-14.643 38.082-32.108 5.674-17.462 1.212-35.542-11.936-48.36l-170.461-166.156c-18.19-17.732-26.487-43.266-22.193-68.302l40.239-234.62c3.105-18.098-3.913-35.347-18.766-46.139-14.857-10.793-33.429-12.138-49.682-3.591l-37.944 19.948v24.364c0 24.456-19.898 44.356-44.356 44.356h-8.651v67.098c0.004 12.416 8.201 31.848 17.198 40.767 40.011 39.665 61.234 73.368 58.821 137.765-1.879 50.124-10.902 95.239-21.201 134.688v39.943c0 30.598-24.894 55.49-55.49 55.49-9.251 0-17.974-2.287-25.652-6.308-3.049 30.628-28.963 54.626-60.38 54.626-13.686 0-26.325-4.559-36.488-12.232-9.953 19.95-30.56 33.691-54.328 33.691-24.186 0-45.107-14.227-54.85-34.749-10.383 8.305-23.534 13.29-37.834 13.29-33.461 0-60.684-27.221-60.684-60.684v-93.766c-2.811-1.745-5.51-3.691-8.055-5.852-21.979-18.676-37.756-53.465-43.116-77.885-3.689-16.805-5.528-33.221-5.47-48.792 0.238-63.265 32.907-107.599 64.833-142.626 2.455-2.693 3.807-6.154 3.807-9.745v-84.719h-1.086c-24.456 0-44.356-19.898-44.356-44.356v-24.366l-37.938-19.946c-16.253-8.547-34.825-7.204-49.682 3.591-14.855 10.793-21.871 28.041-18.766 46.139l40.239 234.62c4.295 25.036-4.003 50.57-22.193 68.302l-170.459 166.154c-13.15 12.818-17.612 30.898-11.938 48.36s19.91 29.464 38.082 32.108l235.572 34.231c25.138 3.653 46.859 19.434 58.101 42.21l105.35 213.465c8.129 16.469 23.944 26.297 42.306 26.297s34.177-9.829 42.3-26.289l36.388-73.81c3.663-7.428 12.652-10.487 20.079-6.818 7.428 3.661 10.481 12.652 6.82 20.079l-36.39 73.816c-13.096 26.531-39.609 43.012-69.198 43.012s-56.102-16.481-69.196-43.014l-105.352-213.463c-6.874-13.925-20.151-23.572-35.52-25.806l-235.57-34.233c-29.281-4.255-53.149-24.376-62.292-52.517s-1.661-58.451 19.528-79.104l170.461-166.156c11.12-10.838 16.193-26.449 13.568-41.756l-40.243-234.62c-5.002-29.161 6.76-58.079 30.698-75.472 23.936-17.39 55.076-19.642 81.266-5.874l23.982 12.608v-20.241c0-24.456 19.898-44.356 44.356-44.356h63.349c8.281 0 14.995 6.712 14.995 14.995s-6.714 14.995-14.995 14.995h-63.349c-7.919 0-14.365 6.444-14.365 14.365v78.491c0 7.921 6.444 14.365 14.365 14.365h328.627c7.919 0 14.365-6.444 14.365-14.365v-78.491c0-7.921-6.444-14.365-14.365-14.365h-195.968c-8.281 0-14.995-6.712-14.995-14.995s6.714-14.995 14.995-14.995h195.968c24.456 0 44.356 19.898 44.356 44.356v20.243l23.988-12.612c11.392-5.988 23.716-8.947 35.982-8.947 15.931 0.002 31.76 4.994 45.283 14.819 23.938 17.392 35.7 46.311 30.698 75.472l-40.245 234.624c-2.625 15.307 2.447 30.918 13.568 41.756zM641.638 526.191c1.368 12.78 12.21 22.769 25.348 22.769 14.061 0 25.5-11.44 25.5-25.5v-93.632c0-14.059-11.44-25.5-25.5-25.5s-25.5 11.44-25.5 25.5zM550.821 572.342c2.705 14.179 15.179 24.936 30.132 24.936 16.925 0 30.694-13.77 30.694-30.694l-0.152-108.627c-1.508-15.527-14.625-27.707-30.542-27.707-5.538 0-10.713 1.512-15.197 4.097 1.763 7.456 2.199 15.483 1.226 24.086-1.136 10.051-7.536 18.3-16.231 22.159 0.018 0.608 0.070 91.75 0.070 91.75zM459.443 588.045c0 16.925 13.77 30.694 30.694 30.694s30.694-13.77 30.694-30.694l-0.56-105.084h-60.826v105.084zM366.759 566.586c0 16.925 13.77 30.694 30.694 30.694s30.694-13.77 30.694-30.694v-83.623h-55.884c-1.843 0-3.677-0.084-5.502-0.234v83.857zM637.669 170.298v-67.1h-258.91s0 83.111 0 84.719c0 11.082-4.131 21.719-11.632 29.948-28.079 30.802-56.81 69.449-57.008 122.534-0.050 13.374 1.555 27.591 4.772 42.252 4.343 19.79 17.47 48.056 33.237 61.454 6.734 5.714 15.305 8.863 24.136 8.863h165.116c1.004-13.402-3.487-22.747-14.757-30.958-24.69-17.988-64.533-13.472-85.938-11.048-3.415 0.388-6.366 0.722-8.863 0.92-10.523 0.852-22.389-1.256-27.379-11.71-3.359-7.038-2.489-15.247 2.275-21.433 5.604-7.278 13.63-11.336 20.081-17.584 4.776-4.627 8.741-10.187 12.142-15.875 9.351-15.637 14.539-34.161 12.352-52.417-0.986-8.221 4.882-15.687 13.106-16.673 8.213-0.986 15.689 4.882 16.671 13.108 4.607 38.472-13.975 72.644-30.582 90.495 25.86-2.305 65.145-2.891 93.796 17.984 4.291 3.125 8.045 6.5 11.326 10.093 8.703-4.832 18.704-7.606 29.344-7.606 12.568 0 24.256 3.841 33.953 10.411 7.817-21.185 28.211-36.334 52.079-36.334 17.168 0 32.539 7.839 42.726 20.123 1.965-15.071 3.393-30.648 3.999-46.761 1.823-48.624-9.851-75.575-49.966-115.343-14.617-14.489-26.072-41.744-26.078-62.062z" />
<glyph unicode="&#xe91d;" glyph-name="file" d="M360 280h244v-80h-244v80zM360 440h464v-80h-464v80zM904 800h-40v40c0 66.168-53.832 120-120 120h-624c-66.168 0-120-53.832-120-120v-624c0-66.168 53.832-120 120-120h40v-40c0-66.168 53.832-120 120-120h459.656l284.344 285.71v458.29c0 66.168-53.832 120-120 120zM160 680v-504h-40c-22.056 0-40 17.944-40 40v624c0 22.056 17.944 40 40 40h624c22.056 0 40-17.944 40-40v-40h-504c-66.168 0-120-53.832-120-120zM763.778 73.646v84.576c0 22.056 17.944 40 40 40h83.98l-123.98-124.576zM944 278.222h-140.222c-66.168 0-120-53.832-120-120v-142.222h-403.778c-22.056 0-40 17.944-40 40v624c0 22.056 17.944 40 40 40h624c22.056 0 40-17.944 40-40v-401.778zM360 600h464v-80h-464v80z" />
<glyph unicode="&#xe91e;" glyph-name="filtration" d="M392 424.211l186.211-120.211h53.789v248.406l232 302v105.594h-704v-105.594l232-302zM364.133 720h194.852l61.461 80h-317.766l-61.461 80h541.555l-230.773-300.406v-163.453l-80 51.648v111.797zM1024 681.492v-465.492c0-66.172-53.828-120-120-120h-352v-80h208v-80h-496v80h208v80h-352c-66.172 0-120 53.828-120 120v465.492c0 56.281 38.953 103.609 91.305 116.508l58.773-76h-30.078c-22.055 0-40-18.453-40-40.508v-465.492c0-22.055 17.945-40 40-40h784c22.055 0 40 17.945 40 40v465.492c0 22.055-17.945 40.508-40 40.508h-30.086l58.773 76c52.359-12.898 91.313-60.227 91.313-116.508z" />
<glyph unicode="&#xe91f;" glyph-name="foreign" d="M977.454 960h-372.364c-25.706 0-46.546-20.84-46.546-46.546s20.84-46.546 46.546-46.546h259.994l-479.086-479.088c-18.178-18.178-18.178-47.646 0-65.824 9.086-9.088 20.998-13.632 32.91-13.632s23.826 4.542 32.914 13.634l479.088 479.086v-259.994c0-25.706 20.84-46.546 46.546-46.546s46.546 20.84 46.546 46.546v372.364c-0.002 25.706-20.842 46.546-46.548 46.546zM791.272 494.546c-25.706 0-46.546-20.84-46.546-46.546v-418.91h-651.636v651.638h418.91c25.706 0 46.546 20.84 46.546 46.546s-20.84 46.544-46.546 46.544h-465.454c-25.706 0-46.546-20.84-46.546-46.546v-744.728c0-25.704 20.84-46.544 46.546-46.544h744.728c25.706 0 46.546 20.84 46.546 46.546v465.454c-0.002 25.706-20.842 46.546-46.548 46.546z" />
<glyph unicode="&#xe920;" glyph-name="globe-2" d="M873.956 809.958c-200.037 200.041-523.844 200.073-723.913 0-200.043-200.041-200.073-523.844 0-723.915 200.037-200.041 523.844-200.071 723.913 0 200.043 200.041 200.071 523.844 0 723.915zM852.562 159.012c-23.916 21.387-49.5 40.313-76.466 56.624 17.823 61.568 28.383 129.318 30.879 199.745h150.495c-6.804-94.928-43.279-183.978-104.908-256.369zM66.528 415.381h150.495c2.496-70.427 13.055-138.177 30.879-199.745-26.966-16.311-52.549-35.237-76.466-56.624-61.63 72.391-98.102 161.44-104.908 256.369zM171.438 736.99c23.916-21.387 49.5-40.313 76.466-56.624-17.823-61.568-28.383-129.318-30.879-199.745h-150.497c6.806 94.927 43.279 183.976 104.91 256.369zM479.381 673.624c-53.201 3.805-104.497 16.908-152.052 38.525 27.657 71.22 78.644 156.64 152.052 177.809zM479.381 608.261v-127.642h-197.089c2.258 59.575 10.699 116.783 24.738 169.126 54.042-23.625 112.162-37.733 172.351-41.484zM479.381 415.381v-127.642c-60.189-3.751-118.309-17.859-172.351-41.484-14.039 52.343-22.48 109.551-24.738 169.126zM479.381 222.376v-216.331c-73.404 21.169-124.39 106.579-152.052 177.807 47.555 21.616 98.851 34.72 152.052 38.525zM544.619 222.376c53.201-3.805 104.497-16.908 152.052-38.525-27.659-71.222-78.644-156.638-152.052-177.807zM544.619 287.739v127.642h197.089c-2.258-59.575-10.699-116.783-24.738-169.126-54.042 23.625-112.162 37.733-172.351 41.484zM544.619 480.619v127.642c60.189 3.751 118.309 17.859 172.351 41.484 14.039-52.343 22.48-109.551 24.738-169.126zM544.619 673.624v216.331c73.408-21.169 124.394-106.589 152.052-177.809-47.555-21.614-98.851-34.718-152.052-38.523zM691.14 857.388c41.756-18.285 80.712-43.079 115.634-73.842-16.622-14.656-34.162-27.945-52.477-39.829-16.265 40.271-37.042 79.407-63.156 113.671zM269.702 743.717c-18.315 11.884-35.853 25.173-52.477 39.829 34.921 30.763 73.878 55.557 115.634 73.842-26.115-34.268-46.892-73.404-63.156-113.671zM269.704 152.283c16.263-40.269 37.044-79.407 63.156-113.671-41.756 18.285-80.712 43.079-115.634 73.842 16.622 14.656 34.162 27.945 52.477 39.829zM754.296 152.283c18.315-11.884 35.855-25.173 52.477-39.827-34.921-30.763-73.878-55.557-115.634-73.842 26.113 34.26 46.892 73.398 63.156 113.669zM806.977 480.619c-2.496 70.427-13.055 138.179-30.879 199.745 26.966 16.311 52.547 35.237 76.466 56.624 61.63-72.391 98.102-161.44 104.908-256.369z" />
<glyph unicode="&#xe921;" glyph-name="headphones-2" d="M1024 448.002c-0.002 136.76-53.258 265.334-149.962 362.038s-225.278 149.96-362.038 149.96-265.336-53.258-362.040-149.96c-96.702-96.706-149.96-225.28-149.96-362.040v-280c0-66.168 53.832-120 120-120h6.164c4.134-62.448 56.226-112 119.704-112h102.132v538h-102.132c-58.652 0-107.578-42.308-117.944-98h-7.924c-14.022 0-27.48-2.44-40-6.88v78.88c0 238.206 193.794 432 432 432 238.204 0 431.998-193.794 432-431.998v-78.882c-12.52 4.44-25.978 6.88-40 6.88h-7.924c-10.366 55.692-59.292 98-117.944 98h-102.132v-538h102.132c63.476 0 115.57 49.552 119.704 112h6.164c66.168 0 120 53.832 120 120v88c0 2.69-0.122 5.352-0.296 8h0.296v184.002zM205.868 354c0 22.056 17.944 40 40 40h22.132v-378h-22.132c-22.056 0-40 17.944-40 40v298zM120 296h5.868v-168h-5.868c-22.056 0-40 17.944-40 40v88c0 22.056 17.944 40 40 40zM818.132 56c0-22.056-17.944-40-40-40h-22.132v378h22.132c22.056 0 40-17.944 40-40v-298zM944 168c0-22.056-17.944-40-40-40h-5.868v168h5.868c22.056 0 40-17.944 40-40v-88z" />
<glyph unicode="&#xe922;" glyph-name="id-card" d="M904 736h-272v224h-240v-224h-272c-66.168 0-120-53.832-120-120v-560c0-66.168 53.832-120 120-120h784c66.168 0 120 53.832 120 120v560c0 66.168-53.832 120-120 120zM472 880h80v-184c0-22.056-17.944-40-40-40s-40 17.944-40 40zM944 56c0-22.056-17.944-40-40-40h-784c-22.056 0-40 17.944-40 40v560c0 22.056 17.944 40 40 40h278.88c16.512-46.556 60.974-80 113.12-80s96.606 33.444 113.12 80h278.88c22.056 0 40-17.944 40-40zM472 456c0 66.168-53.832 120-120 120s-120-53.832-120-120 53.832-120 120-120 120 53.832 120 120zM352 416c-22.056 0-40 17.944-40 40s17.944 40 40 40 40-17.944 40-40-17.944-40-40-40zM632 176h240v-80h-240zM632 336h240v-80h-240zM632 496h240v-80h-240zM432 336h-160c-66.168 0-120-53.832-120-120v-120h400v120c0 66.168-53.832 120-120 120zM472 176h-240v40c0 22.056 17.944 40 40 40h160c22.056 0 40-17.944 40-40z" />
<glyph unicode="&#xe923;" glyph-name="identity-card" d="M925.297 821.39h-826.571c-54.496 0-98.725-44.207-98.725-98.725v-549.351c0-54.518 44.229-98.725 98.725-98.725h826.571c54.518 0 98.725 44.207 98.725 98.725v549.351c0 54.518-44.207 98.725-98.725 98.725zM98.418 321.687c0 1.163 0.263 2.282 0.307 3.357 1.58 48.090 36.111 87.339 90.41 108.664-18.933 22.509-30.342 51.513-30.342 83.149 0 36.046 14.831 68.647 38.656 92.144 5.572 5.485 11.606 10.509 18.078 14.94 20.776 14.173 45.83 22.422 72.793 22.422s51.995-8.293 72.75-22.422c34.247-23.321 56.756-62.614 56.756-107.084 0-31.614-11.43-60.617-30.342-83.127 52.105-20.447 86.22-57.326 90.257-102.85 0.417-3.028 0.548-6.121 0.548-9.214 0-19.35-7.723-36.792-20.118-49.692-13.054-13.536-31.307-22.071-51.622-22.071-0.044 0-0.088 0-0.176 0h-236.26c-38.613 0-69.854 30.583-71.433 68.735 0 1.053-0.263 1.996-0.263 3.050zM925.297 291.411c-1.536-22.816-20.381-40.894-43.571-40.894h-263.267c-15.993 0-29.859 8.688-37.581 21.522-3.905 6.56-6.296 14.173-6.296 22.356 0 24.221 19.657 43.878 43.878 43.878h263.267c23.255 0 42.035-18.078 43.571-40.872 0.066-1.031 0.307-1.975 0.307-3.006s-0.241-1.975-0.307-2.984zM925.297 445.005c-1.536-22.795-20.381-40.872-43.571-40.872h-263.267c-24.221 0-43.878 19.657-43.878 43.878s19.657 43.878 43.878 43.878h263.267c23.255 0 42.035-18.078 43.571-40.894 0.066-1.009 0.307-1.953 0.307-2.962-0.022-1.053-0.241-1.996-0.307-3.028zM925.297 598.6c-1.536-22.816-20.381-40.894-43.571-40.894h-263.267c-24.221 0-43.878 19.657-43.878 43.878 0 8.205 2.391 15.796 6.296 22.356 7.723 12.856 21.544 21.522 37.581 21.522h263.267c23.255 0 42.035-18.078 43.571-40.894 0.066-1.009 0.307-1.953 0.307-2.984s-0.241-1.975-0.307-2.984z" />
<glyph unicode="&#xe924;" glyph-name="income" d="M512 24.662c145.002 0 262.968 117.966 262.968 262.966 0 145.002-117.966 262.968-262.968 262.968s-262.968-117.966-262.968-262.968c-0.002-145 117.966-262.966 262.968-262.966zM512 520.598c128.458 0 232.968-104.51 232.968-232.968s-104.51-232.968-232.968-232.968-232.968 104.508-232.968 232.966 104.508 232.97 232.968 232.97zM443.326 180c20.352-13.314 34.182-17.152 52.258-18.084v-17.898c0-8.286 6.714-15 15-15s15 6.714 15 15v19.060c35.52 6.66 56.266 35.804 60.842 63.024 5.84 34.74-12.338 64.946-46.312 76.956-4.772 1.686-9.66 3.458-14.53 5.308v77.32c18.054-2.19 31.004-9.978 31.292-10.154 6.996-4.366 16.22-2.266 20.63 4.72 4.42 7.008 2.322 16.272-4.684 20.692-1.132 0.712-20.342 12.568-47.238 14.924v15.372c0 8.286-6.714 15-15 15s-15-6.714-15-15v-17.148c-2.558-0.546-5.142-1.194-7.75-1.98-22.338-6.73-39.034-25.858-43.566-49.916-4.128-21.91 2.872-43.026 18.27-55.104 8.332-6.536 18.734-12.52 33.046-18.858v-96.288c-12.85 0.828-21.458 3.754-35.832 13.158-6.934 4.534-16.23 2.592-20.766-4.34s-2.592-16.228 4.34-20.764zM481.052 330.7c-6.552 5.138-9.352 15.080-7.304 25.942 1.878 9.968 8.612 22.004 21.836 26.432v-61.54c-5.494 2.914-10.454 5.966-14.532 9.166zM530.114 274.774c29.842-10.546 28-36.114 26.724-43.698-2.532-15.060-13.162-31.076-31.256-37.016v82.336c1.492-0.538 2.98-1.074 4.532-1.622zM301.55 720.604l18.83 15.044v-95.388c0-8.286 6.714-15 15-15s15 6.714 15 15v95.388l18.83-15.044c2.766-2.208 6.070-3.282 9.354-3.282 4.402 0 8.768 1.93 11.728 5.636 5.172 6.472 4.118 15.912-2.356 21.082l-43.194 34.51c-5.476 4.376-13.25 4.376-18.726 0l-43.194-34.51c-6.472-5.17-7.528-14.61-2.356-21.082 5.174-6.47 14.61-7.526 21.084-2.354zM633.708 722.958c5.172-6.47 14.606-7.528 21.082-2.356l18.83 15.044v-95.388c0-8.286 6.714-15 15-15s15 6.714 15 15v95.388l18.83-15.044c2.766-2.208 6.070-3.282 9.354-3.282 4.402 0 8.768 1.93 11.728 5.636 5.172 6.472 4.118 15.912-2.356 21.082l-43.194 34.51c-5.476 4.376-13.25 4.376-18.726 0l-43.194-34.51c-6.472-5.166-7.526-14.606-2.354-21.080zM512 639.26c-193.888 0-351.628-157.74-351.628-351.63 0-89.976 33.976-175.592 95.672-241.074 5.682-6.028 15.174-6.31 21.206-0.63 6.030 5.682 6.31 15.174 0.63 21.206-56.43 59.892-87.508 138.202-87.508 220.5 0 177.348 144.282 321.63 321.628 321.63s321.63-144.284 321.63-321.63-144.284-321.632-321.63-321.632c-69.434 0-135.548 21.784-191.198 62.994-6.66 4.932-16.050 3.528-20.982-3.126-4.93-6.658-3.53-16.052 3.126-20.982 60.854-45.066 133.142-68.886 209.054-68.886 193.89 0 351.63 157.74 351.63 351.628 0 193.892-157.74 351.632-351.63 351.632zM484.34 896.538l27.66 27.362 78.526-77.688h-14.194c-14.88 0-26.986-12.106-26.986-26.986v-144.506c0-8.286 6.714-15 15-15s15 6.714 15 15v141.492h47.67c6.082 0 11.56 3.672 13.874 9.296s1 12.090-3.324 16.368l-115.018 113.788c-5.844 5.782-15.254 5.782-21.098 0l-38.208-37.798c-5.89-5.826-5.942-15.324-0.116-21.212 5.83-5.894 15.328-5.944 21.214-0.116zM396.986 816.212h47.67v-141.492c0-8.286 6.714-15 15-15s15 6.714 15 15v144.506c0 14.88-12.108 26.986-26.988 26.986h-14.194l8.232 8.144c5.89 5.828 5.942 15.324 0.116 21.212-5.83 5.892-15.328 5.942-21.212 0.116l-34.172-33.808c-4.324-4.278-5.636-10.742-3.324-16.368s7.79-9.296 13.872-9.296z" />
<glyph unicode="&#xe925;" glyph-name="income2" d="M512 871.4c-145 0-263-118-263-263s118-263 263-263 263 118 263 263c0 145-118 263-263 263zM512 375.4c-128.4 0-233 104.6-233 233s104.6 233 233 233 233-104.6 233-233-104.6-233-233-233zM443.4 492c20.4-13.4 34.2-17.2 52.2-18v-17.8c0-8.2 6.8-15 15-15s15 6.8 15 15v19c35.6 6.6 56.2 35.8 60.8 63 5.8 34.8-12.4 65-46.4 77-4.8 1.6-9.6 3.4-14.6 5.4v77.4c18-2.2 31-10 31.2-10.2 7-4.4 16.2-2.2 20.6 4.8s2.4 16.2-4.6 20.6c-1.2 0.8-20.4 12.6-47.2 15v15.4c0 8.2-6.8 15-15 15s-15-6.8-15-15v-17.2c-2.6-0.6-5.2-1.2-7.8-2-22.4-6.8-39-25.8-43.6-50-4.2-22 2.8-43 18.2-55.2 8.4-6.6 18.8-12.6 33-18.8v-96.4c-12.8 0.8-21.4 3.8-35.8 13.2-7 4.6-16.2 2.6-20.8-4.4s-2.2-16.2 4.8-20.8v0zM481 642.8c-6.6 5.2-9.4 15-7.4 26 1.8 10 8.6 22 21.8 26.4v-61.6c-5.4 2.8-10.2 6-14.4 9.2v0zM530.2 586.8c29.8-10.6 28-36.2 26.8-43.6-2.6-15-13.2-31-31.2-37v82.4c1.2-0.8 2.8-1.2 4.4-1.8zM722.4 175.4l-18.8-15v95.4c0 8.2-6.8 15-15 15s-15-6.8-15-15v-95.4l-18.8 15c-2.8 2.2-6 3.2-9.4 3.2-4.4 0-8.8-2-11.8-5.6-5.2-6.4-4.2-16 2.4-21l43.2-34.6c5.4-4.4 13.2-4.4 18.8 0l43.2 34.6c6.4 5.2 7.6 14.6 2.4 21-5.2 6.6-14.6 7.6-21.2 2.4zM390.2 173c-5.2 6.4-14.6 7.6-21 2.4l-18.8-15v95.4c0 8.2-6.8 15-15 15s-15-6.8-15-15v-95.4l-18.8 15c-2.8 2.2-6 3.2-9.4 3.2-4.4 0-8.8-2-11.8-5.6-5.2-6.4-4.2-16 2.4-21l43.2-34.6c5.4-4.4 13.2-4.4 18.8 0l43.2 34.6c6.4 5.2 7.4 14.6 2.2 21zM512 256.8c193.8 0 351.6 157.8 351.6 351.6 0 90-34 175.6-95.6 241-5.6 6-15.2 6.4-21.2 0.6-6-5.6-6.4-15.2-0.6-21.2 56.4-59.8 87.6-138.2 87.6-220.4 0-177.4-144.2-321.6-321.6-321.6s-321.8 144.2-321.8 321.6 144.2 321.6 321.6 321.6c69.4 0 135.6-21.8 191.2-63 6.6-5 16-3.6 21 3.2 5 6.6 3.6 16-3.2 21-60.8 45-133 68.8-209 68.8-193.8 0-351.6-157.8-351.6-351.6 0-194 157.8-351.6 351.6-351.6v0zM539.6-0.6l-27.6-27.2-78.6 77.6h14.2c14.8 0 27 12.2 27 27v144.6c0 8.2-6.8 15-15 15s-15-6.8-15-15v-141.4h-47.6c-6 0-11.6-3.6-13.8-9.2-2.4-5.6-1-12 3.4-16.4l115-113.8c5.8-5.8 15.2-5.8 21 0l38.2 37.8c5.8 5.8 6 15.4 0.2 21.2-6 5.6-15.4 5.6-21.4-0.2v0zM627 79.8h-47.6v141.4c0 8.2-6.8 15-15 15s-15-6.8-15-15v-144.6c0-14.8 12.2-27 27-27h14.2l-8.2-8.2c-5.8-5.8-6-15.4-0.2-21.2s15.4-6 21.2-0.2l34.2 33.8c4.4 4.2 5.6 10.8 3.4 16.4-2.4 6-8 9.6-14 9.6z" />
<glyph unicode="&#xe926;" glyph-name="layout-1" d="M999 833.724c13.786 0 25 11.214 25 25v76.276c0 13.786-11.214 25-25 25h-76.276c-13.786 0-25-11.214-25-25v-23.070h-771.448v23.070c0 13.786-11.214 25-25 25h-76.276c-13.786 0-25-11.214-25-25v-76.276c0-13.786 11.214-25 25-25h23.070v-771.448h-23.070c-13.786 0-25-11.214-25-25v-76.276c0-13.786 11.214-25 25-25h76.276c13.786 0 25 11.214 25 25v23.070h563.84c8.284 0 15 6.716 15 15s-6.716 15-15 15h-563.84v23.206c0 13.786-11.214 25-25 25h-23.206v771.448h23.208c13.786 0 25 11.214 25 25v23.206h771.448v-23.208c0-13.786 11.214-25 25-25h23.206v-771.448h-23.206c-13.786 0-25-11.214-25-25v-23.206h-142.234c-8.284 0-15-6.716-15-15s6.716-15 15-15h142.234v-23.068c0-13.786 11.214-25 25-25h76.274c13.786 0 25 11.214 25 25v76.276c0 13.786-11.214 25-25 25h-23.070v771.448zM96.276-34h-66.276v66.276h66.276zM96.276 863.724h-66.276v66.276h66.276zM994-34h-66.276v66.276h66.276zM927.724 930h66.276v-66.276h-66.276zM171.246 300.15c-19.298 0-35-15.702-35-35v-155.804c0-19.298 15.702-35 35-35h155.804c19.298 0 35 15.702 35 35v155.804c0 19.298-15.702 35-35 35zM332.052 265.15v-155.804c0-2.756-2.244-5-5-5h-155.806c-2.756 0-5 2.244-5 5v155.804c0 2.756 2.244 5 5 5h155.804c2.758 0 5.002-2.242 5.002-5zM589.902 300.15h-155.804c-19.298 0-35-15.702-35-35v-155.804c0-19.298 15.702-35 35-35h155.804c19.298 0 35 15.702 35 35v155.804c0 19.3-15.7 35-35 35zM594.902 109.346c0-2.756-2.244-5-5-5h-155.804c-2.756 0-5 2.244-5 5v155.804c0 2.756 2.244 5 5 5h155.804c2.756 0 5-2.244 5-5zM696.948 74.346h155.804c19.298 0 35 15.702 35 35v155.804c0 19.298-15.702 35-35 35h-155.804c-19.298 0-35-15.702-35-35v-155.804c0-19.298 15.702-35 35-35zM691.948 265.15c0 2.756 2.244 5 5 5h155.804c2.756 0 5-2.244 5-5v-155.804c0-2.756-2.244-5-5-5h-155.804c-2.756 0-5 2.244-5 5zM852.752 560.902h-155.804c-19.298 0-35-15.702-35-35v-155.804c0-19.298 15.702-35 35-35h155.804c19.298 0 35 15.702 35 35v155.804c0 19.3-15.7 35-35 35zM857.752 370.098c0-2.756-2.244-5-5-5h-155.804c-2.756 0-5 2.244-5 5v155.804c0 2.756 2.244 5 5 5h155.804c2.756 0 5-2.244 5-5zM236.172 708.75c0-8.284 6.716-15 15-15h521.656c8.284 0 15 6.716 15 15s-6.716 15-15 15h-521.656c-8.284 0-15-6.714-15-15zM527 448c0 8.284-6.716 15-15 15h-262.85c-8.284 0-15-6.716-15-15s6.716-15 15-15h262.85c8.284 0 15 6.716 15 15zM624.902 525.902c0 19.298-15.702 35-35 35h-418.656c-19.298 0-35-15.702-35-35v-155.804c0-19.298 15.702-35 35-35h292.136c8.284 0 15 6.716 15 15s-6.716 15-15 15h-292.136c-2.756 0-5 2.244-5 5v155.804c0 2.756 2.244 5 5 5h418.656c2.756 0 5-2.244 5-5v-155.804c0-2.756-2.244-5-5-5h-61.146c-8.284 0-15-6.716-15-15s6.716-15 15-15h61.146c19.298 0 35 15.702 35 35zM887.752 630.85v155.804c0 19.298-15.702 35-35 35h-453.944c-8.284 0-15-6.716-15-15s6.716-15 15-15h453.946c2.756 0 5-2.244 5-5v-155.804c0-2.756-2.244-5-5-5h-681.508c-2.756 0-5 2.244-5 5v155.804c0 2.756 2.244 5 5 5h162.188c8.284 0 15 6.716 15 15s-6.716 15-15 15h-162.188c-19.298 0-35-15.702-35-35v-155.804c0-19.298 15.702-35 35-35h681.506c19.3 0 35 15.7 35 35z" />
<glyph unicode="&#xe927;" glyph-name="leader-1" d="M568.8 305.2v46.2c0 30.8-24.6 56.6-54.6 57.8-15.6 0.6-30.2-5-41.4-15.8s-17.4-25.2-17.4-40.8v-47.2l-9.4-9.4c-5.8-5.8-5.8-15.4 0-21.2s15.4-5.8 21.2 0l10.2 10.2c5.2 5.2 8 12 8 19.4v48.4c0 7.4 3 14.2 8.2 19.2s12.2 7.8 19.6 7.4c14.2-0.6 25.8-13 25.8-27.8v-47.6c0-7.4 2.8-14.2 8-19.4l56.6-56.6c10.4-10.4 10.4-27.4 0-37.8-5-5-11.8-7.8-19-7.8s-13.8 2.8-19 7.8l-34 34c-5.2 5.2-12.2 8-19.4 8s-14.2-2.8-19.4-8l-34-34c-5-5-11.8-7.8-19-7.8s-13.8 2.8-19 7.8c-9.6 9.6-10.6 25-2 35.6 5.2 6.4 4.2 15.8-2.4 21-6.4 5.2-15.8 4.2-21-2.4-18.2-22.6-16.4-55.2 4.2-75.6 10.8-10.8 25-16.6 40.2-16.6s29.4 6 40.2 16.6l32.4 32.4 32.4-32.4c10.8-10.8 25-16.6 40.2-16.6s29.4 6 40.2 16.6c22.2 22.2 22.2 58.2 0 80.2l-56.4 56.2zM358.4 459.6h307c14.4 0 26 11.6 26 26v43.8c0 39.4-12.4 76.6-36.2 108-22.8 30.2-55.4 53-91.4 63.8-1.2 0.4-2 1.4-2 2.6v9.6c45 20.2 76.4 65.2 76.4 117.6 0 71-57.8 128.8-128.8 128.8s-128.8-57.8-128.8-128.8c0-54.4 33.8-100.8 81.6-119.8v-7.4c0-1.2-0.8-2.2-2-2.6-36.2-11-68.6-33.6-91.4-63.8-23.6-31.4-36.2-68.6-36.2-108v-43.8c-0.2-14.2 11.6-26 25.8-26v0zM410.6 831.2c0 54.6 44.4 98.8 98.8 98.8s98.8-44.4 98.8-98.8-44.4-98.8-98.8-98.8c-54.6-0.2-98.8 44.2-98.8 98.8v0zM362.4 529.6c0 32.8 10.4 63.8 30 90 19 25.2 46 44.2 76.2 53.2 13.8 4.2 23 16.4 23.2 30.8 5.6-0.8 11.4-1.2 17.4-1.2 7.6 0 15.2 0.8 22.6 2v-0.4c0-14.4 9.4-27 23.4-31.2 30-9 57.2-28 76.2-53.2 19.6-26 30-57.2 30-90v-40h-43.6v57c0 8.2-6.8 15-15 15s-15-6.8-15-15v-57h-151.8v59.4c0 8.2-6.8 15-15 15s-15-6.8-15-15v-59.4h-43.6v40zM258.4 159c-0.4 0.2-0.8 0.4-0.8 1v7.8c41 18.8 69.6 60 69.6 108 0 65.4-53.2 118.8-118.8 118.8-65.4 0-118.8-53.2-118.8-118.8 0-49.8 30.8-92.4 74.2-110v-5.8c0-0.6-0.4-0.8-0.8-1-33.2-10-63-30.8-84-58.6-21.8-28.8-33.2-63-33.2-99.2v-39.2c0-14.4 11.6-26 26-26h277.8c14.4 0 26 11.6 26 26v39c0 36.2-11.4 70.4-33.2 99.2-21 27.8-50.8 48.6-84 58.8v0zM119.6 275.8c0 49 39.8 88.8 88.8 88.8s88.8-39.8 88.8-88.8-39.8-88.8-88.8-88.8-88.8 39.8-88.8 88.8zM345.6-34h-37.2v50.6c0 8.2-6.8 15-15 15s-15-6.8-15-15v-50.6h-135.6v52.8c0 8.2-6.8 15-15 15s-15-6.8-15-15v-52.8h-37v35c0 29.6 9.4 57.6 27.2 81.2 17.2 22.8 41.6 39.8 68.8 48 12.6 3.8 21.4 14.8 22.2 27.8 4.8-0.6 9.6-1 14.6-1 6.6 0 13 0.6 19.2 1.6 0.6-13.2 9.2-24.6 22.2-28.4 27.2-8.2 51.6-25.2 68.8-48 17.8-23.6 27.2-51.6 27.2-81.2l-0.4-35zM963.2-9.8c-8.2 0-15-6.8-15-15v-9.2h-37.2v50.6c0 8.2-6.8 15-15 15s-15-6.8-15-15v-50.6h-135.6v52.8c0 8.2-6.8 15-15 15s-15-6.8-15-15v-52.8h-37.2v35c0 29.6 9.4 57.6 27.2 81.2 17.2 22.8 41.6 39.8 68.8 48 12.6 3.8 21.4 14.8 22.2 27.8 4.8-0.6 9.6-1 14.6-1 6.6 0 13 0.6 19.2 1.6 0.6-13.2 9.2-24.6 22.2-28.4 42.8-13 76.4-46.2 89.8-89 2.4-8 10.8-12.4 18.8-9.8 8 2.4 12.4 10.8 9.8 18.8-16.2 52.2-57.4 93-109.8 108.8-0.4 0.2-0.8 0.4-0.8 1v7.8c41 18.8 69.6 60 69.6 108 0 65.4-53.2 118.8-118.8 118.8s-118.8-53.2-118.8-118.8c0-49.8 30.8-92.4 74.2-110v-5.8c0-0.6-0.4-0.8-0.8-1-33.2-10-63-30.8-84-58.6-21.8-28.8-33.2-63-33.2-99.2v-39.2c0-14.4 11.6-26 26-26h277.8c14.4 0 26 11.6 26 26v13.2c0 8.4-6.6 15-15 15zM722.2 275.8c0 49 39.8 88.8 88.8 88.8s88.8-39.8 88.8-88.8-39.8-88.8-88.8-88.8-88.8 39.8-88.8 88.8z" />
<glyph unicode="&#xe928;" glyph-name="link-2" d="M551.166 252.153l-156.677-156.681c0 0 0-0.004-0.004-0.004 0 0 0-0.004-0.004-0.004-64.791-64.794-170.219-64.798-235.017 0-31.391 31.391-48.674 73.126-48.674 117.512 0 44.383 17.283 86.11 48.663 117.501 0.004 0.004 0.007 0.007 0.011 0.011l156.677 156.681c21.63 21.634 21.63 56.71-0.004 78.34-21.63 21.63-56.706 21.63-78.34 0l-156.677-156.681c-0.011-0.011-0.022-0.026-0.033-0.037-52.29-52.308-81.088-121.852-81.088-195.816 0-73.982 28.809-143.537 81.125-195.853 54-53.996 124.924-80.996 195.853-80.996s141.857 27 195.849 80.996c0 0 0 0.004 0 0.004 0.004 0 0.004 0.004 0.004 0.004l156.677 156.681c21.63 21.63 21.63 56.706-0.004 78.34-21.626 21.63-56.699 21.63-78.337 0zM1024 683.023c0 73.982-28.813 143.537-81.129 195.853-107.995 107.992-283.713 107.988-391.701 0-0.004-0.007-0.011-0.011-0.015-0.018l-156.673-156.669c-21.634-21.63-21.634-56.71 0-78.34 10.821-10.821 24.994-16.227 39.172-16.227 14.174 0 28.355 5.41 39.168 16.227l156.673 156.669c0.004 0.007 0.011 0.011 0.018 0.018 64.791 64.791 170.219 64.794 235.017 0 31.387-31.391 48.678-73.126 48.678-117.512 0-44.383-17.283-86.11-48.667-117.501-0.004-0.004-0.007-0.007-0.011-0.011l-156.677-156.681c-21.63-21.63-21.63-56.706 0.004-78.34 10.817-10.817 24.994-16.227 39.168-16.227 14.178 0 28.355 5.41 39.172 16.227l156.677 156.681c0.011 0.011 0.022 0.026 0.033 0.037 52.29 52.308 81.092 121.852 81.092 195.816zM316.149 252.153c10.817-10.817 24.994-16.227 39.168-16.227 14.178 0 28.355 5.41 39.172 16.227l313.361 313.361c21.634 21.63 21.634 56.706 0 78.34-21.63 21.63-56.706 21.63-78.34 0l-313.361-313.357c-21.634-21.637-21.634-56.714 0-78.344z" />
<glyph unicode="&#xe929;" glyph-name="link-button" d="M340.331 448c0-21.606 17.516-39.122 39.122-39.122h265.092c21.606 0 39.122 17.516 39.122 39.122s-17.516 39.122-39.122 39.122h-265.092c-21.606 0-39.122-17.516-39.122-39.122zM461.882 343.12h-132.545c-28.4 0-51.505 23.105-51.505 51.505v106.75c0 28.4 23.105 51.505 51.505 51.505h132.545c21.606 0 39.122 17.516 39.122 39.122s-17.516 39.122-39.122 39.122h-132.545c-71.543 0-129.749-58.203-129.749-129.749v-106.75c0-71.546 58.205-129.749 129.749-129.749h132.545c21.606 0 39.122 17.516 39.122 39.122s-17.516 39.122-39.122 39.122zM694.662 631.124h-132.545c-21.606 0-39.122-17.516-39.122-39.122s17.516-39.122 39.122-39.122h132.545c28.4 0 51.505-23.105 51.505-51.505v-106.75c0-28.4-23.105-51.505-51.505-51.505h-132.545c-21.606 0-39.122-17.516-39.122-39.122s17.516-39.122 39.122-39.122h132.545c71.543 0 129.749 58.203 129.749 129.749v106.75c0 71.546-58.205 129.749-129.749 129.749zM810.405 957.577h-596.811c-117.777 0-213.595-95.817-213.595-213.595v-591.965c0-117.775 95.817-213.595 213.595-213.595h596.811c117.777 0 213.595 95.817 213.595 213.595v591.965c0 117.777-95.82 213.595-213.595 213.595zM945.756 152.018c0-74.631-60.717-135.351-135.351-135.351h-596.811c-74.634 0-135.351 60.72-135.351 135.351v591.965c0 74.634 60.717 135.351 135.351 135.351h596.811c74.634 0 135.351-60.717 135.351-135.351v-591.965z" />
<glyph unicode="&#xe92a;" glyph-name="lock" d="M874.666 576h-64v85.334c0 164.686-133.978 298.666-298.666 298.666s-298.666-133.98-298.666-298.666v-85.334h-64c-11.792 0-21.334-9.542-21.334-21.334v-533.334c0-47.062 38.27-85.332 85.334-85.332h597.334c47.062 0 85.332 38.27 85.332 85.334v533.332c0 11.792-9.542 21.334-21.334 21.334zM575.876 130.354c0.666-6.020-1.27-12.062-5.312-16.584-4.042-4.52-9.834-7.104-15.896-7.104h-85.334c-6.062 0-11.854 2.584-15.896 7.104s-5.98 10.562-5.312 16.584l13.458 121.020c-21.854 15.896-34.916 41.042-34.916 68.626 0 47.062 38.27 85.334 85.334 85.334s85.334-38.27 85.334-85.334c0-27.584-13.062-52.73-34.916-68.626l13.456-121.020zM682.666 576h-341.332v85.334c0 94.104 76.562 170.666 170.666 170.666s170.666-76.562 170.666-170.666v-85.334z" />
<glyph unicode="&#xe92b;" glyph-name="log-in" d="M904 960h-784c-66.168 0-120-53.832-120-120v-160h80v160c0 22.056 17.944 40 40 40h784c22.056 0 40-17.944 40-40v-784c0-22.056-17.944-40-40-40h-784c-22.056 0-40 17.944-40 40v160h-80v-160c0-66.168 53.832-120 120-120h784c66.168 0 120 53.832 120 120v784c0 66.168-53.832 120-120 120zM480 696.568l-56.568-56.568 152-152h-575.432v-80h575.432l-152-152 56.568-56.568 248.568 248.568z" />
<glyph unicode="&#xe92c;" glyph-name="log-out-1" d="M755.777 716.224l-56.558-56.556 171.678-171.678h-639.291v-79.982h639.291l-171.678-171.678 56.558-56.556 268.223 268.225zM527.883 56.085c0-22.051-17.94-39.991-39.991-39.991h-367.919c-22.051 0-39.991 17.94-39.991 39.991v783.827c0 22.051 17.94 39.991 39.991 39.991h367.919c22.051 0 39.991-17.94 39.991-39.991v-191.958h79.982v191.958c0 66.153-53.82 119.974-119.974 119.974h-367.919c-66.153 0-119.974-53.82-119.974-119.974v-783.827c0-66.153 53.82-119.974 119.974-119.974h367.919c66.153 0 119.974 53.82 119.974 119.974v191.958h-79.982z" />
<glyph unicode="&#xe92d;" glyph-name="mail-3" d="M1014.98 756.558l-310.558-308.558 310.558-308.558c5.614 11.734 9.020 24.706 9.020 38.558v540c0 13.854-3.406 26.824-9.020 38.558zM934 808h-844c-13.854 0-26.824-3.406-38.558-9.020l396.926-394.926c35.096-35.096 92.168-35.096 127.264 0l396.926 394.926c-11.734 5.614-24.704 9.020-38.558 9.020zM9.020 756.558c-5.614-11.734-9.020-24.704-9.020-38.558v-540c0-13.854 3.406-26.826 9.020-38.558l310.558 308.558-310.558 308.558zM662 405.578l-43.946-43.946c-58.478-58.478-153.632-58.478-212.11 0l-43.944 43.946-310.558-308.558c11.734-5.614 24.704-9.020 38.558-9.020h844c13.854 0 26.824 3.406 38.558 9.020l-310.558 308.558z" />
<glyph unicode="&#xe92e;" glyph-name="mail-4" d="M140.522 94.283h742.029c60.159 0.065 108.92 48.819 108.986 108.986v503.514c-0.065 60.159-48.826 108.92-108.986 108.986h-742.029c-60.159-0.065-108.92-48.826-108.986-108.986v-503.514c0.065-60.167 48.826-108.92 108.986-108.986zM140.522 126.746c-16.746-0.022-33.036 5.486-46.333 15.674l221.913 226.978c4.116 4.138 5.688 10.167 4.13 15.783-1.558 5.623-6.007 9.971-11.659 11.399-5.659 1.435-11.645-0.275-15.688-4.493l-219.841-224.862c-5.942 11.080-9.051 23.464-9.043 36.043v467.732l377.239-319.428c40.616-34.572 100.326-34.558 140.913 0.065l376.92 319.674v-468.043c0.014-12.63-3.116-25.051-9.101-36.159l-221.159 225.022c-6.297 6.333-16.522 6.399-22.899 0.145-6.37-6.275-6.486-16.5-0.254-22.899l223.13-227.029c-13.283-10.138-29.529-15.623-46.239-15.601zM140.522 783.304h742.029c39.594-0.058 72.623-30.261 76.203-69.703l-397.594-337.21c-28.5-24.304-70.428-24.319-98.942-0.036l-397.913 336.935c3.406 39.565 36.5 69.957 76.217 70.014z" />
<glyph unicode="&#xe92f;" glyph-name="mail-7" d="M873.898 810.039c-96.688 96.703-225.242 149.961-361.977 149.961-90.109 0-178.719-23.742-256.25-68.664-7.164-4.156-9.609-13.328-5.453-20.5 4.148-7.164 13.328-9.617 20.492-5.461 72.969 42.281 156.375 64.625 241.211 64.625 128.719 0 249.742-50.133 340.766-141.172s141.148-212.086 141.148-340.828c0-128.75-50.125-249.789-141.148-340.828-91.023-91.031-212.047-141.172-340.766-141.172-128.727 0-249.75 50.133-340.773 141.172s-141.148 212.078-141.148 340.828c0 149.359 67.563 287.852 185.352 379.953 6.531 5.102 7.68 14.531 2.578 21.055-5.102 6.531-14.531 7.68-21.055 2.578-59.945-46.867-109.516-107.539-143.367-175.445-35.508-71.227-53.508-147.984-53.508-228.141 0-136.758 53.25-265.336 149.938-362.039s225.242-149.961 361.984-149.961c136.734 0 265.289 53.258 361.977 149.961s149.938 225.281 149.938 362.039-53.25 265.336-149.938 362.039zM295.227 258.195h277.617c8.281 0 15 6.711 15 15 0 8.281-6.719 15-15 15h-277.617c-16.32 0-29.594 13.273-29.594 29.602v260.406c0 4.227 0.898 8.234 2.5 11.867l220.617-172.578c6.82-5.336 14.992-8 23.164-8s16.344 2.664 23.164 8l220.625 172.586c1.602-3.641 2.5-7.648 2.5-11.875v-260.406c0-16.328-13.273-29.609-29.594-29.609h-87.133c-8.289 0-15-6.711-15-15 0-8.281 6.711-15 15-15h87.133c32.859 0 59.594 26.742 59.594 59.609v260.406c0 13.859-4.758 26.609-12.719 36.742-0.461 3.5-2.133 6.758-4.797 9.164-9.773 8.836-22.383 13.695-35.492 13.695h-446.555c-13.117 0-25.719-4.867-35.5-13.703-2.656-2.398-4.328-5.664-4.789-9.156-7.961-10.133-12.719-22.891-12.719-36.742v-260.414c0-32.859 26.734-59.594 59.594-59.594zM728.609 607.805c0.344 0 0.672-0.039 1.008-0.047l-213.023-166.633c-2.75-2.156-6.602-2.156-9.359 0l-213.023 166.633c0.344 0.016 0.672 0.055 1.016 0.055h433.383z" />
<glyph unicode="&#xe930;" glyph-name="mail-advertising" d="M904 960h-784c-66.172 0-120-53.828-120-120v-784c0-66.172 53.828-120 120-120h366v80h-366c-22.055 0-40 17.945-40 40v624h290v-120h282v120h292v-164h80v324c0 66.172-53.828 120-120 120zM80 760v80c0 22.055 17.945 40 40 40h250v-120zM450 640v240h122v-240zM652 760v120h252c22.055 0 40-17.945 40-40v-80zM694 336c0 66.172-53.828 120-120 120s-120-53.828-120-120 53.828-120 120-120 120 53.828 120 120zM534 336c0 22.055 17.945 40 40 40s40-17.945 40-40-17.945-40-40-40-40 17.945-40 40zM904 176c-66.172 0-120-53.828-120-120s53.828-120 120-120 120 53.828 120 120-53.828 120-120 120zM904 16c-22.055 0-40 17.945-40 40s17.945 40 40 40 40-17.945 40-40-17.945-40-40-40zM915.195 436l-259.453-480h-90.938l259.453 480z" />
<glyph unicode="&#xe931;" glyph-name="merge--" d="M944 326v-270c0-22.056-17.944-40-40-40h-278v-80h278c66.168 0 120 53.832 120 120v270h-80zM904 960h-278v-80h278c22.056 0 40-17.944 40-40v-274h80v274c0 66.168-53.832 120-120 120zM1024 486h-295.432l107.716 107.716-56.568 56.568-204.126-204.124 203.966-206.284 56.888 56.248-108.642 109.876h296.198zM120 16c-22.056 0-40 17.944-40 40v270h-80v-270c0-66.168 53.832-120 120-120h278v80h-278zM120 960c-66.168 0-120-53.832-120-120v-274h80v274c0 22.056 17.944 40 40 40h278v80h-278zM244.284 650.284l-56.568-56.568 107.716-107.716h-295.432v-80h296.198l-108.642-109.876 56.888-56.248 203.966 206.284z" />
<glyph unicode="&#xe932;" glyph-name="merge" d="M944 326v-270c0-22.056-17.944-40-40-40h-278v-80h278c66.168 0 120 53.832 120 120v270h-80zM904 960h-278v-80h278c22.056 0 40-17.944 40-40v-274h80v274c0 66.168-53.832 120-120 120zM1024 486h-295.432l107.716 107.716-56.568 56.568-204.126-204.124 203.966-206.284 56.888 56.248-108.642 109.876h296.198zM120 16c-22.056 0-40 17.944-40 40v270h-80v-270c0-66.168 53.832-120 120-120h278v80h-278zM120 960c-66.168 0-120-53.832-120-120v-274h80v274c0 22.056 17.944 40 40 40h278v80h-278zM244.284 650.284l-56.568-56.568 107.716-107.716h-295.432v-80h296.198l-108.642-109.876 56.888-56.248 203.966 206.284z" />
<glyph unicode="&#xe933;" glyph-name="minus" d="M512 960c-282.294 0-512-229.666-512-512s229.706-512 512-512c282.334 0 512 229.666 512 512s-229.706 512-512 512zM512 15.318c-238.59 0-432.682 194.092-432.682 432.682s194.092 432.682 432.682 432.682 432.682-194.092 432.682-432.682-194.092-432.682-432.682-432.682zM710.296 491.228h-396.592c-21.892 0-39.66-17.768-39.66-39.66s17.768-39.66 39.66-39.66h396.592c21.892 0 39.66 17.768 39.66 39.66s-17.768 39.66-39.66 39.66z" />
</font>
</defs>
</svg>
